<svg xmlns="http://www.w3.org/2000/svg" viewBox="0 0 267.02 218.31"><defs><style>.cls-1{fill:#fdd300;}.cls-2{fill:#231f20;}</style></defs><title>Asset 1</title><g id="Layer_2" data-name="Layer 2"><g id="Layer_1-2" data-name="Layer 1"><path class="cls-1" d="M196.79,15.14c-22.68-10.28-41.53-12-59-13.6C117.32-.33,89-2.91,67.89,10.19c-3.18,2-11,7.24-19.27,13.6A204.66,204.66,0,0,0,29.35,39.86C19.09,49.75,10.83,57.72,6.46,69.53,3.72,76.93,4.52,80.41,4,96.73c-1.17,40.44-6.78,43.34-2.41,56.87,5,15.42,16.35,24.26,26.5,32.14,13.54,10.52,28.47,16.82,53,22.25,40.82,9,62,13.74,89.14,7.42,5.43-1.27,78.29-19.46,94-81.59,1.17-4.66,8.64-36.2-7.23-68C241.93,35.6,214.82,23.31,196.79,15.14Z"/><path class="cls-2" d="M87.94,23.44,77,72.28c-.57,2.55,3.35,3.64,3.92,1.08L91.87,24.52c.57-2.55-3.35-3.64-3.92-1.08Z"/><path class="cls-2" d="M66.45,30.38a137.58,137.58,0,0,1,44.66-1c2.56.36,3.67-3.56,1.08-3.92a143.79,143.79,0,0,0-46.82,1c-2.57.48-1.48,4.4,1.08,3.92Z"/><path class="cls-2" d="M99.36,36.28,94.18,74.19c-.35,2.56,3.57,3.67,3.92,1.08l5.18-37.91c.35-2.56-3.57-3.67-3.92-1.08Z"/><path class="cls-2" d="M98.43,61.49l10.27-7.64-3.06-1.76,2.54,22.61c.29,2.57,4.36,2.6,4.07,0l-2.54-22.61c-.15-1.34-1.68-2.78-3.06-1.76L96.37,58c-2.08,1.55-.05,5.08,2.05,3.51Z"/><path class="cls-2" d="M120.87,67.74c4.92-7.1,18.38-9.38,16.79-20.49-1.41-9.8-13.19-6.85-17.4-1.1-5.43,7.41-9.18,19.35-3,27.4,5.06,6.62,15.3,5.94,18.33-2.14.92-2.46-3-3.52-3.92-1.08-1.36,3.62-5.92,4.78-9.07,2.77-2.84-1.81-4.26-5.46-4.44-8.7-.33-5.81,3-15.56,8.32-18.73a6.41,6.41,0,0,1,6.25.15c2,1.48.67,5.08-.21,6.65A15.31,15.31,0,0,1,127,57.64c-3.67,2.34-7.09,4.41-9.62,8-1.5,2.16,2,4.19,3.51,2.05Z"/><path class="cls-2" d="M145.61,45.25l-4.2,27.55,4,.54a33.44,33.44,0,0,1,17.65-27.43c2.31-1.23.26-4.75-2.05-3.51a37.59,37.59,0,0,0-19.66,30.94c-.15,2.25,3.65,2.82,4,.54l4.2-27.55c.39-2.56-3.53-3.67-3.92-1.08Z"/><path class="cls-2" d="M161.9,63c6.16-.26,15.14-2.61,13.38-10.81a5.84,5.84,0,0,0-5.39-4.77c-3.86-.2-7,3.2-9.06,6-4.47,6-6.22,15.47.39,20.74,5.16,4.11,13.32,1.3,14.3-5.35.38-2.56-3.54-3.67-3.92-1.08C171,72,166,73.35,163,70.29c-2.69-2.76-2.49-7-1.23-10.34.6-1.55,6.89-12.3,9.59-6.22,1.91,4.3-7.23,5.1-9.47,5.19-2.61.11-2.62,4.18,0,4.07Z"/><path class="cls-2" d="M182.37,34.55l-2.7,12.62c-.55,2.55,3.38,3.65,3.92,1.08l2.7-12.62c.55-2.55-3.38-3.65-3.92-1.08Z"/><path class="cls-2" d="M210.68,44.32C207.58,35.79,194.73,36,194,45.9c-.32,4.58,2.42,7.79,6.51,9.32s8.7,2.49,8.19,8.22-7.46,7-11.09,3.2c-1.81-1.9-4.69,1-2.88,2.88,6.12,6.39,17.53,3.23,18-6.08a11.07,11.07,0,0,0-5.28-10.14c-2.61-1.48-6.93-1.32-8.71-4-3.73-5.6,5.53-10.58,8-3.91.89,2.44,4.82,1.39,3.92-1.08Z"/><path class="cls-2" d="M56.06,79.54,51.69,106c-1,6.05-2.78,12.65-1.6,18.8,1,5,4.19,9,9.44,9.59,6.41.7,11.47-3.64,15.86-7.71,1.92-1.79-1-4.66-2.88-2.88-4.13,3.84-11.41,10-16.66,4.33-3.27-3.55-2-10.18-1.33-14.43,1.75-11,3.65-22,5.47-33,.42-2.56-3.5-3.66-3.92-1.08Z"/><path class="cls-2" d="M46.79,109.08,63.5,110c2.62.14,2.61-3.93,0-4.07L46.79,105c-2.62-.14-2.61,3.93,0,4.07Z"/><path class="cls-2" d="M84.6,97.7c10.41.64,11.77,16.69.82,18-10.51,1.29-13-13.92-3.85-17.54,2.41-1,1.36-4.89-1.08-3.92C66.92,99.63,70.37,121.72,86,119.76c6.62-.83,11.82-6.22,11.37-13.06A14,14,0,0,0,84.6,93.63c-2.62-.16-2.61,3.91,0,4.07Z"/><path class="cls-2" d="M85.88,97.76a16.71,16.71,0,0,0-3.94,19.57c.75,1.65,3.29,1.08,3.72-.49L90,101,86.11,99.9l-3.22,14.57c-.47,2.12,2.76,3.8,3.72,1.57l6.2-14.47L89.1,100l-1.91,11.69c-.34,2.09,2.62,3.81,3.72,1.57l3.36-6.84c1.15-2.34-2.36-4.41-3.51-2.05l-3.36,6.84,3.72,1.57L93,101.09c.34-2.06-2.73-3.87-3.72-1.57L83.1,114l3.72,1.57L90,101c.56-2.55-3.23-3.62-3.92-1.08l-4.37,15.86,3.72-.49a12.58,12.58,0,0,1,3.3-14.64c2-1.73-.92-4.6-2.88-2.88Z"/><path class="cls-2" d="M109.56,92.69a13,13,0,0,0-6.37,17.15c3.19,6.44,12.14,8.8,18.07,4.68s7-13.09,2.76-18.64c-4.56-6-13.25-6.2-18.82-1.65-2,1.66.87,4.52,2.88,2.88,3.83-3.13,10.1-2.62,13,1.58,2.68,3.9,1.6,10.41-2.62,12.82s-10.49.28-12-4.47a9,9,0,0,1,5.19-10.84c2.4-1,.33-4.53-2.05-3.51Z"/><path class="cls-2" d="M113.61,96.25a30.51,30.51,0,0,0-3.46,19.42c.23,1.66,3.06,2,3.72.49l8.22-19.46-3.72-1.57-4.52,15.66a2,2,0,0,0,3.72,1.57l5.33-8.9-3.72-1.57-1.5,10.95c-.35,2.56,3.57,3.67,3.92,1.08L123.1,103c.29-2.14-2.44-3.71-3.72-1.57l-5.33,8.9,3.72,1.57,4.52-15.66c.62-2.15-2.8-3.73-3.72-1.57l-8.22,19.46,3.72.49a25.83,25.83,0,0,1,3-16.29c1.26-2.3-2.25-4.35-3.51-2.05Z"/><path class="cls-2" d="M154.53,102.67l-2.64,22.56c-.3,2.6,3.77,2.57,4.07,0l2.64-22.56c.3-2.6-3.77-2.57-4.07,0Z"/><path class="cls-2" d="M156.54,111.17c1.76-3.94,6-1.24,6.81,1.78,1,3.7-.8,7.56-2.32,10.85-1.09,2.36,2.42,4.43,3.51,2.05,2.54-5.5,5.3-12.88.56-18.1-3.35-3.69-9.91-3.48-12.08,1.37-1.06,2.37,2.45,4.44,3.51,2.05Z"/><path class="cls-2" d="M166.92,113.4a3.43,3.43,0,0,1,4-3.8c2,.43,3.25,2.61,3.78,4.34,1.18,3.88-.47,8.07-1.77,11.71-.88,2.47,3.05,3.54,3.92,1.08,2.25-6.33,4.35-15.23-2.3-19.82-4.9-3.38-12.51.15-11.71,6.49.32,2.56,4.4,2.6,4.07,0Z"/><path class="cls-2" d="M185.05,105.9c-2.16,3.54-4.47,7.65-3.49,12,.75,3.29,3.26,6.27,6.81,6.39,11,.38,7.17-15.68,9.69-21.42,1-2.38-2.46-4.45-3.51-2.05-2.2,5-.48,10.21-2.09,15.21-1,3.24-5.06,6.42-6.73,1.51-1.14-3.36,1.16-6.8,2.84-9.55,1.37-2.24-2.15-4.29-3.51-2.05Z"/><path class="cls-2" d="M214.12,108.1l-.64-5.11c-.17-1.36-1.66-2.76-3.06-1.76-5.74,4.11-12.84,10.47-9.59,18.41,2.24,5.47,10.41,6.95,13.39,1.3,1.22-2.32-2.29-4.37-3.51-2.05a3.12,3.12,0,0,1-4,1.37c-2.33-.94-2.76-3.75-2.33-5.94.86-4.38,4.72-7.13,8.13-9.57L209.41,103l.64,5.11c.32,2.56,4.4,2.6,4.07,0Z"/><path class="cls-2" d="M219.68,88.28l.78,35.95c.06,2.62,4.13,2.62,4.07,0l-.78-35.95c-.06-2.62-4.13-2.62-4.07,0Z"/><path class="cls-2" d="M225.61,107.79q4.14-2.43,4.88,1.14a11,11,0,0,1,.3,3.69c0,1.8-.45,3.58-.6,5.37a15.35,15.35,0,0,0,1.28,8c.84,1.85,3.88.91,3.79-1l0-.78c-.12-2.61-4.19-2.62-4.07,0l0,.78,3.79-1c-3-6.56,3.33-15.95-3.91-21.06a6,6,0,0,0-9.39,5.94c.41,2.58,4.33,1.48,3.92-1.08Z"/><path class="cls-2" d="M100.41,140.72c-12.15-11.6-32.13-3.52-32.51,13.34s19.29,25.7,31.93,14.74c2-1.72-.91-4.59-2.88-2.88-10.09,8.76-25.25,1.29-25-11.86.27-13.3,16-19.59,25.56-10.46,1.89,1.81,4.78-1.07,2.88-2.88Z"/><path class="cls-2" d="M117.57,139.09c13.44-3.43,20.44,16.39,7.56,21.76-13.19,5.5-20.89-14-9.28-21,2.24-1.35.2-4.87-2.05-3.51-6.85,4.13-10.19,13.15-6.69,20.6,3.31,7.06,12.36,10.81,19.62,7.74s11.18-12.16,8.67-19.6c-2.62-7.76-11.18-11.84-18.91-9.87-2.54.65-1.46,4.57,1.08,3.92Z"/><path class="cls-2" d="M142,136.53l-8.84,57.26c-.4,2.56,3.53,3.67,3.92,1.08L146,137.62c.4-2.56-3.53-3.67-3.92-1.08Z"/><path class="cls-2" d="M148,149.66c.63-4.54,4.95-8,9.57-6.59,4.41,1.35,6.49,7,5.6,11.2-2.24,10.43-15.07,11.24-22.2,5.74-2.07-1.6-4.1,1.93-2.05,3.51,5.77,4.45,13.54,5.65,20.08,2.08,5.48-3,9.11-8.93,8.33-15.23-.68-5.51-4.71-10.83-10.45-11.6a11.62,11.62,0,0,0-12.81,9.81c-.35,2.56,3.57,3.67,3.92,1.08Z"/><path class="cls-2" d="M173.43,139.26l10.51,16.48c1.4,2.2,4.93.16,3.51-2.05l-10.51-16.48c-1.4-2.2-4.93-.16-3.51,2.05Z"/><path class="cls-2" d="M196.06,131.79c-8.42,17.07-18.68,37.08-39.36,40.65-2.58.45-1.48,4.37,1.08,3.92,21.75-3.76,32.91-24.53,41.79-42.52,1.15-2.34-2.35-4.41-3.51-2.05Z"/></g></g></svg>