<svg xmlns="http://www.w3.org/2000/svg" viewBox="0 0 70.92 108.35"><defs><style>.cls-1{fill:#231f20;}</style></defs><title>Asset 56</title><g id="Layer_2" data-name="Layer 2"><g id="Layer_1-2" data-name="Layer 1"><path class="cls-1" d="M9.85,3.64C1.89,8.45,4.27,24,13.07,26.76c5.4,1.68,10.2-3.33,12.17-7.83,2.45-5.6,1.94-13.47-4.17-16.47C15.56-.24,7.87,2,7.23,8.69c-.18,1.83,2.69,1.82,2.87,0,.31-3.22,3.35-4.54,6.27-4.45a7.27,7.27,0,0,1,7,5C25,14.3,22,22.56,16.49,24.07,8.31,26.28,5,9.92,11.3,6.11A1.43,1.43,0,0,0,9.85,3.64Z"/><path class="cls-1" d="M32.06,3.35c-.48,4.74-1.66,9.42-2.27,14.16-.3,2.37-1.68,8.07,1.07,9.62a1.43,1.43,0,0,0,1.45-2.47c-1.37-.77.8-10.23,1-11.54.53-3.25,1.27-6.49,1.6-9.76.19-1.83-2.68-1.82-2.87,0Z"/><path class="cls-1" d="M32.5,6c1.59,7.09,3.24,14.25,7.13,20.49a1.45,1.45,0,0,0,2.62-.34c2.68-7.75,1.17-16.69,5.1-24C48.21.53,45.74-.91,44.87.71c-4.09,7.62-2.62,16.67-5.39,24.69l2.62-.34c-3.75-6-5.3-13-6.84-19.81-.4-1.8-3.17-1-2.76.76Z"/><path class="cls-1" d="M51.22,3.35C50.33,9.85,47,18.27,50,24.64c.7,1.5,1.36,2.11,3,2.16a19.55,19.55,0,0,0,9.46-2.73c1.55-1,.12-3.47-1.45-2.47S55.9,24,53.86,23.71s-2-3.11-2-5.2c.05-4.87,1.46-9.6,2.12-14.4.25-1.8-2.51-2.58-2.76-.76Z"/><path class="cls-1" d="M50.3,16.19c4.22-1.06,9-.75,12.95-2.82,1.63-.86.19-3.33-1.45-2.47-3.62,1.91-8.35,1.54-12.26,2.53-1.79.45-1,3.21.76,2.76Z"/><path class="cls-1" d="M52.08,5.5c-.43.41.09,0,.42,0s.78-.1,1.17-.14c1.1-.1,2.2-.14,3.3-.14,1.4,0,4.51-.33,5.69.64,1.41,1.16,3.45-.85,2-2-2-1.63-5.3-1.49-7.72-1.48-1.87,0-5.41-.33-6.91,1.1-1.34,1.28.69,3.3,2,2Z"/><path class="cls-1" d="M13.63,36.35c-3.71-.92-7.8,1.46-10.1,4.26C1.6,43,1.13,46.75,4.68,47.87c6.32,2,10-11,9.54-15.37-.16-1.52-2.36-2-2.81-.38a40.27,40.27,0,0,0-1.11,8.82c-.09,2.17-.45,5.59,1,7.45,1.1,1.45,3.59,0,2.47-1.45s-.63-4.9-.53-6.72a35.41,35.41,0,0,1,1-7.34l-2.81-.38c.38,3.52-1.52,9.29-4,11.79-.57.56-1.43,1.35-2.18.59s.19-2,.79-2.67c1.54-1.78,4.48-3.7,6.94-3.09,1.79.44,2.55-2.32.76-2.76Z"/><path class="cls-1" d="M17.36,36.62a7.76,7.76,0,0,0-.74,6.16,3.22,3.22,0,0,0,5,1.71c3-2.27,2-10.08-2.69-8.91-1.79.45-1,3.21.76,2.76.79-.2,1.2,3.46.19,3.89-1.3.55-.47-3.59-.09-4.16,1-1.55-1.47-3-2.47-1.45Z"/><path class="cls-1" d="M27.63,42.94c1.58-1.61,3.31-3.13,3.34-5.56A1.46,1.46,0,0,0,29.54,36c-4.38-.34-5.47,4.17-4.59,7.62a6.29,6.29,0,0,0,2.45,3.94c1.55.9,3.07,0,3.89-1.42a1.43,1.43,0,0,0-2.47-1.45l-.37.48c0-.09.27-.1.28-.11.1-.17.06.21,0-.06,0,.13-.13-.14-.17-.2a6.9,6.9,0,0,1-.95-2.4c-.32-1.69-.2-3.7,1.93-3.54l-1.43-1.43c0,1.48-1.55,2.56-2.5,3.53-1.29,1.32.73,3.34,2,2Z"/><path class="cls-1" d="M35.41,31c-4.58,1.6-2.58,5.65-.67,8.72,1.7,2.73,4,5.4,1,8.23-2.48,2.34-6.7,2.43-9.91,2.48a1.43,1.43,0,0,0,0,2.87c5-.08,11.86-.77,13.91-6.17.81-2.14.29-3.94-.74-5.9-.62-1.17-5.05-6.7-2.85-7.47,1.73-.6,1-3.37-.76-2.76Z"/><path class="cls-1" d="M42.38,36.58c.3,3.69.48,7.39.76,11.08.14,1.83,3,1.84,2.87,0-.28-3.69-.46-7.39-.76-11.08-.15-1.82-3-1.84-2.87,0Z"/><path class="cls-1" d="M45.81,40.74a1.43,1.43,0,0,1,1.08-.84l-1.62-.66A14.32,14.32,0,0,1,47,47.66c-.12,1.84,2.75,1.83,2.87,0a17,17,0,0,0-2.08-9.86,1.46,1.46,0,0,0-1.62-.66,4.71,4.71,0,0,0-2.79,2.16c-1,1.54,1.46,3,2.47,1.45Z"/><path class="cls-1" d="M52.51,32a7.52,7.52,0,0,0-.58,4.16,1.48,1.48,0,0,0,1.43,1.43c.7,0,1.53-.66,1.43-1.43A5.62,5.62,0,0,1,55,33.48a1.47,1.47,0,0,0-.51-2,1.44,1.44,0,0,0-2,.51Z"/><path class="cls-1" d="M60.77,29.32c-1.09,4.81-3.88,12.25-1.06,16.95,2.08,3.46,6.16,1.22,8.9,0,1.67-.77.22-3.24-1.45-2.47a14.63,14.63,0,0,1-3.47,1.43c-2.08.35-2.07-2-2.12-3.6-.12-3.89,1.11-7.73,2-11.49.41-1.8-2.36-2.56-2.76-.76Z"/><path class="cls-1" d="M55.23,42.4a23.53,23.53,0,0,1,9.59-2.48c1.84,0,1.85-2.91,0-2.87a26.86,26.86,0,0,0-11,2.87c-1.65.82-.2,3.29,1.45,2.47Z"/><path class="cls-1" d="M15.54,53.54c-2.25-.94-5.79,0-7.71,1.35S5.48,59.1,8,60.17c1.48.63,8.7,0,7.83,3-.8,2.77-8.3,2.47-10.27,1.61C3.89,64,2.43,66.5,4.12,67.23c2.77,1.2,6.46,1.05,9.36.47s6.35-3,5-6.34c-1.25-3.1-4.55-3.37-7.39-3.54A8.68,8.68,0,0,1,9,57.62c-.1-.13,1.06-.74,1.42-.88,1.24-.5,3-1,4.32-.43,1.7.71,2.44-2.06.76-2.76Z"/><path class="cls-1" d="M21.37,59.12c0,2.37-.47,5,.43,7.26.68,1.69,3.45,1,2.76-.76-.81-2-.35-4.38-.33-6.5a1.43,1.43,0,0,0-2.87,0Z"/><path class="cls-1" d="M22,56.35a1.43,1.43,0,0,0,0-2.87,1.43,1.43,0,0,0,0,2.87Z"/><path class="cls-1" d="M29.58,67.14c0-1.69-1-6,.39-7.28,1-.94,1.47,1.76,1.68,2.61.31,1.26.5,2.55.84,3.81a1.44,1.44,0,0,0,2.76,0,26.81,26.81,0,0,1,1.07-3.63c.41-1.1,1.2-3.66,2.36-4.24,1.34-.66,1.22,2,1.22,3,0,1.29-.17,2.57-.2,3.85-.06,1.84,2.81,1.84,2.87,0,.08-2.8,1.24-10.29-3.56-10-4.08.27-5.84,7.08-6.52,10.26h2.76c-.73-2.69-1.23-10.18-5.77-8.76C25.53,58,26.65,64.1,26.72,67.14c0,1.84,2.9,1.85,2.87,0Z"/><path class="cls-1" d="M45.05,55.68c-.05,6.51-1.71,14.93,1.34,21,.83,1.65,3.3.2,2.47-1.45-2.72-5.39-1-13.69-1-19.52a1.43,1.43,0,0,0-2.87,0Z"/><path class="cls-1" d="M47.21,58.83c1.93-1.21,4.42.43,3.3,2.68-.53,1.08-2.91,3.6-3.93,1.85a1.43,1.43,0,0,0-2.47,1.45c2.46,4.18,7.71,1,9.14-2.4,2-4.67-3.39-8.62-7.48-6.06-1.56,1-.12,3.46,1.45,2.47Z"/><path class="cls-1" d="M54,51.06c2.15,4.52,1.71,9.75,1.72,14.62,0,1.56,2.57,2,2.81.38v.19c1.38-1.23-.66-3.25-2-2a1.82,1.82,0,0,0-.75,1.08l2.81.38c0-5.46.29-11-2.11-16.07-.79-1.67-3.26-.21-2.47,1.45Z"/><path class="cls-1" d="M60.15,55.26c1.44,1.93,2.43,4.15,3.82,6.11,1.06,1.49,3.55.06,2.47-1.45-1.4-2-2.38-4.18-3.82-6.11-1.09-1.46-3.58,0-2.47,1.45Z"/><path class="cls-1" d="M67.41,53a108.33,108.33,0,0,0-5.69,10.08c-1.25,2.47-3.32,5.71-3.29,8.6a1.43,1.43,0,0,0,2.87,0c0-2.8,2.42-6.26,3.68-8.66,1.53-2.91,3.11-5.81,4.91-8.57,1-1.55-1.47-3-2.47-1.45Z"/><path class="cls-1" d="M6.9,78.22c.61,3.27.32,6.7,1.15,9.93a1.43,1.43,0,0,0,2.76-.76c-.83-3.22-.53-6.66-1.15-9.93-.34-1.81-3.1-1-2.76.76Z"/><path class="cls-1" d="M6.37,75.45,5.32,74.4a1.43,1.43,0,0,0,2.87,0,1.73,1.73,0,0,0-1.81-1.81,1.43,1.43,0,1,0,0,2.87Z"/><path class="cls-1" d="M13,78.22a21.77,21.77,0,0,1,.71,8.41c-.18,1.83,2.69,1.82,2.87,0a23.93,23.93,0,0,0-.82-9.17c-.54-1.76-3.31-1-2.76.76Z"/><path class="cls-1" d="M16.17,80a4.71,4.71,0,0,1,1.07-.79c.17-.09.07-.06.08,0a4.54,4.54,0,0,1,.84,2c.4,1.66.42,3.44,1,5.06s3.35,1,2.76-.76c-.75-2.25-.58-4.7-1.57-6.9A3.58,3.58,0,0,0,18,76.39C16.51,76,15.17,77,14.15,78c-1.35,1.26.68,3.28,2,2Z"/><path class="cls-1" d="M21.14,79.62c.2-.19.57-.6.83-.61-.13,0,0,0,.17.15a4.57,4.57,0,0,1,.83,2,24,24,0,0,1,.68,4.72c.11,1.83,3,1.84,2.87,0a20.53,20.53,0,0,0-1.41-7.26c-1.27-2.77-3.84-3.07-6-1-1.34,1.27.69,3.3,2,2Z"/><path class="cls-1" d="M27.86,75.55c0,6.5.35,13,.38,19.48a1.43,1.43,0,0,0,2.87,0c0-6.5-.36-13-.38-19.48a1.43,1.43,0,0,0-2.87,0Z"/><path class="cls-1" d="M30.4,80.22a3.07,3.07,0,0,1,.67-.23s.43,0,.23,0a.58.58,0,0,1,.41.29,4,4,0,0,1,.42,2.5,5.35,5.35,0,0,1-.28,1.28,4.54,4.54,0,0,1-.43.78c-.19.21,0,0-.26.2.14-.08.14.05-.05,0,0,0,0,0-.17-.07a3.62,3.62,0,0,1-.64-.48c-1.35-1.26-3.38.77-2,2s3.06,1.92,4.65.82A5.86,5.86,0,0,0,35,82.95a6.24,6.24,0,0,0-1.19-4.64c-1.31-1.49-3.2-1.36-4.85-.56S28.75,81,30.4,80.22Z"/><path class="cls-1" d="M35.88,77.08c.19,3.25.8,6.46.76,9.73h2.87a15,15,0,0,1,2.48-9c1-1.53-1.45-3-2.47-1.45a17.75,17.75,0,0,0-2.87,10.46,1.43,1.43,0,0,0,2.87,0c0-3.27-.57-6.48-.76-9.73-.11-1.83-3-1.84-2.87,0Z"/><path class="cls-1" d="M45.72,79.46c-2.26.18-3.87,2-3.11,4.28a4.35,4.35,0,0,0,5.3,2.65,3.36,3.36,0,0,0,2.57-4.27,4.65,4.65,0,0,0-4.76-3.05c-1.84.08-1.85,2.95,0,2.87a2,2,0,0,1,1.94.83c.11.2.1.09.13.38,0-.15,0-.1,0,0,0,.39,0-.14,0,.07,0-.08-.12.18,0,.12a.53.53,0,0,1-.31.2,1.67,1.67,0,0,1-2-.5,1,1,0,0,1-.14-.56s0-.1.11-.14c-.21.07.25,0,.32,0,1.82-.15,1.84-3,0-2.87Z"/><path class="cls-1" d="M50.45,76.31c.88,3.17,2.76,5.86,4.26,8.75a1.45,1.45,0,0,0,2.62-.34c.66-2.58.9-5.33,2.23-7.68a1.43,1.43,0,0,0-2.47-1.45c-1.47,2.59-1.8,5.52-2.52,8.36l2.62-.34c-1.39-2.66-3.16-5.14-4-8.06a1.43,1.43,0,0,0-2.76.76Z"/><path class="cls-1" d="M62.91,78.89a10.84,10.84,0,0,0,6.32-1.64,2.93,2.93,0,0,0-1.05-5.18c-2.11-.5-4.72,1.09-6.08,2.6a6.09,6.09,0,0,0-.45,7.69c2.3,2.91,6.14,2.37,8.78.31,1.45-1.13-.59-3.15-2-2s-4.08,1.39-4.91-.73c-.71-1.84.59-3.44,2-4.32a4.92,4.92,0,0,1,2-.74c.11,0,0,0,.12.18-.12-.28.17-.12-.24,0a11.83,11.83,0,0,1-4.44.95,1.43,1.43,0,0,0,0,2.87Z"/><path class="cls-1" d="M5,93.25c-1.05,1.19-1.26,3-1.49,4.48a20.83,20.83,0,0,0-.38,5.74c.24,1.8,1.14,3.84,2.91,4.61,2,.86,3.53-.53,4.66-2s-1.37-2.9-2.47-1.45c-2.12,2.81-2.28-3.18-2.15-4.41s.09-3.95,1-4.93c1.22-1.38-.8-3.41-2-2Z"/><path class="cls-1" d="M1.79,101.38A25.42,25.42,0,0,1,7.52,101a1.43,1.43,0,0,0,0-2.87A28.66,28.66,0,0,0,1,98.62c-1.8.41-1,3.17.76,2.76Z"/><path class="cls-1" d="M12.2,94.27c-.33,3.72-.66,8.7.82,12.22.7,1.68,3.48.94,2.76-.76-1.38-3.3-1-8-.71-11.46.16-1.84-2.7-1.82-2.87,0Z"/><path class="cls-1" d="M15.41,102.16a5.47,5.47,0,0,1,1-1,1.19,1.19,0,0,1,.32-.17h-.11q.26,0,0,0s.09,0,.11.06c-.06-.16,0,.05.11.15s.28.51.34.67a12.3,12.3,0,0,1,.75,4.3c0,1.84,2.91,1.85,2.87,0a12.66,12.66,0,0,0-1.49-6.4,3.17,3.17,0,0,0-2.62-1.63,4.62,4.62,0,0,0-3.31,2c-1.16,1.42.86,3.46,2,2Z"/><path class="cls-1" d="M23.56,104.49c2.41-.21,5.37-1.62,4.45-4.56a3,3,0,0,0-4.94-1.52c-2,1.88-2.21,5.76-.05,7.56s5.44,1.37,7.76.23c1.66-.81.21-3.28-1.45-2.47a5.29,5.29,0,0,1-3.77.4c-1.43-.47-1.4-1.9-.84-3.13.09-.21.57-.74.23-.55,0,0,.21.07.32.31s.09.25,0,.34a3,3,0,0,1-1.68.53c-1.82.16-1.84,3,0,2.87Z"/><path class="cls-1" d="M42.76,93.5c0,3.31-.74,11.18,4.37,11.17,4.94,0,5.64-8.81,5.76-12.32.06-1.84-2.81-1.84-2.87,0a26.49,26.49,0,0,1-.72,5.17c-.23,1-.81,4.27-2.18,4.29-2.13,0-1.5-6.95-1.49-8.31a1.43,1.43,0,0,0-2.87,0Z"/><path class="cls-1" d="M56.55,92.61c3.55,3,5.85,8.2,10.22,10.16,1.67.75,3.13-1.72,1.45-2.47-2-.9-3.46-2.81-4.85-4.46a43,43,0,0,0-4.79-5.25c-1.4-1.19-3.43.83-2,2Z"/><path class="cls-1" d="M66.39,89.59a32.83,32.83,0,0,0-7.09,6.7c-1,1.24-2,2.51-3.1,3.73-.85,1-2.46,2.15-3,3.32-.6,1.34,1.14,3.12,2.25,1.74.24-.3.44-.61.65-.92,1-1.54-1.46-3-2.47-1.45-.07.11-.13.25-.2.34l2.25,1.74c.46-1,2-2.17,2.79-3,1-1.13,1.89-2.29,2.84-3.42a30.48,30.48,0,0,1,6.51-6.25c1.54-1,.1-3.49-1.45-2.47Z"/></g></g></svg>