<svg xmlns="http://www.w3.org/2000/svg" viewBox="0 0 212.54 93.78"><defs><style>.cls-1{fill:#231f20;}</style></defs><title>Asset 35</title><g id="Layer_2" data-name="Layer 2"><g id="Layer_1-2" data-name="Layer 1"><path class="cls-1" d="M24.55,36.72c-.14-7.31,2.44-14.23,3.81-21.33H24.83c1.75,4.71,3.12,10,6.72,13.72a1.84,1.84,0,0,0,2.87-.37c2.09-4.42,3.66-9.06,6-13.38l-3.34-.44c1.38,4.83,1.57,9.78,2.21,14.73.37,2.84.6,7,2.61,9.17,1,1.11,3.27.29,3.12-1.29l0-.34c.33-2.3-3.19-3.29-3.52-1a5.18,5.18,0,0,0-.09,1.31l3.12-1.29c-2.18-2.39-1.81-9-2.11-12A58.06,58.06,0,0,0,40.58,14a1.85,1.85,0,0,0-3.34-.44c-2.31,4.32-3.88,9-6,13.38l2.87-.37c-3.13-3.21-4.25-8-5.78-12.11-.57-1.53-3.15-1.94-3.52,0-1.43,7.42-4.08,14.65-3.94,22.3,0,2.35,3.7,2.36,3.65,0Z"/><path class="cls-1" d="M47,24.17c6.36-4.75,6.27,6.58,7.19,10.09.43,1.65,1.06,3.86,2.7,4.74,2.11,1.14,3.86-.67,4.9-2.33,1.26-2-1.91-3.83-3.16-1.84-.62,1-.65.5-.13.92s-.08-.26-.08-.4a21.93,21.93,0,0,0-.91-3c-.43-1.9-.67-3.84-.93-5.77-.77-5.85-6.27-9.44-11.42-5.59-1.86,1.39,0,4.57,1.84,3.16Z"/><path class="cls-1" d="M52.93,25.7C51,25.43,49,25.6,47.66,27.18A5,5,0,0,0,50.11,35c2.08.57,4.08-.56,5.58-1.91,1.75-1.57-.84-4.15-2.58-2.58a3.59,3.59,0,0,1-.71.55l-.44.25c-.43.23.31-.08-.12.06-.13,0-.28.07-.4.11-.32.13.3,0,0,0H51c.23,0,.33.08,0,0l-.31-.1c.21.06.32.1.05,0s-.3-.32,0,0c-.06-.07-.14-.12-.19-.18-.35-.4.08.25-.17-.22l-.15-.29c-.07-.13.1.42,0,0,0-.19-.1-.39-.14-.58.12.57.05-.08,0-.27s-.13.32,0,.06a1.5,1.5,0,0,0,.08-.31c0-.36-.12.39,0,0a2,2,0,0,1,.16-.27c-.18.36-.17.17,0,0s.37-.22,0,0a3,3,0,0,1,.3-.18c.33-.13-.37.05,0,0,.13,0,.26-.07.39-.1.34-.08-.21,0,0,0h.48c.07,0,.64.05.32,0a1.89,1.89,0,0,0,2.25-1.28,1.84,1.84,0,0,0-1.28-2.25Z"/><path class="cls-1" d="M60.43,11.87c-1.87,5.7-2.11,13.82,0,19.49.81,2.19,4.35,1.24,3.52-1-1.89-5.07-1.67-12.45,0-17.55.73-2.24-2.79-3.2-3.52-1Z"/><path class="cls-1" d="M62.19,24.35c3.19-1.22,5.75-3.44,8.72-5.06,2.07-1.13.22-4.28-1.84-3.16-2.67,1.46-5,3.59-7.85,4.69-2.17.83-1.23,4.37,1,3.52Z"/><path class="cls-1" d="M61.88,23.39c2.5,2.32,5.15,4.54,7,7.43,1.28,2,4.44.14,3.16-1.84-2.06-3.17-4.85-5.62-7.6-8.17-1.72-1.6-4.31,1-2.58,2.58Z"/><path class="cls-1" d="M76.81,27.27c3.64-1.11,9.86-4.56,7.07-9.24-2.27-3.8-7.8-.79-9.59,1.95-5,7.69,5,21.26,12.59,12.67,1.56-1.75-1-4.35-2.58-2.58-1.8,2-3.83,2.42-5.68.22a8.28,8.28,0,0,1-1.79-7.05A4,4,0,0,1,78.35,21c.33-.26,2-1.38,2.4-1.07,1.44,1.07-4.2,3.64-4.91,3.86-2.24.69-1.29,4.22,1,3.52Z"/><path class="cls-1" d="M101.3,8.46c0,5.39-5,33.52,8.6,24.48,2-1.29.12-4.46-1.84-3.16s-3.17,1.66-3.9-1c-.66-2.37-.44-5.1-.33-7.53C104,17,105,12.73,105,8.46c0-2.35-3.66-2.36-3.65,0Z"/><path class="cls-1" d="M97.28,22.89a25.33,25.33,0,0,1,9.26-.91c2.34.21,2.33-3.44,0-3.65a28.27,28.27,0,0,0-10.23,1c-2.26.65-1.3,4.17,1,3.52Z"/><path class="cls-1" d="M111,7.48c.8,6.18.81,12.71,3,18.62.67,1.81,3.72,1.71,3.59-.49a6.51,6.51,0,0,1,.2-2.77l.64-1.56L120.92,23c.49,1.09-.12,3.34,0,4.5.13,1.93.58,3.43,2.28,4.47,2,1.23,3.85-1.93,1.84-3.16-1.29-.79-.27-5.79-.59-7.26a6.18,6.18,0,0,0-3.93-4.7c-4.77-1.33-6.71,5.25-6.51,8.76l3.59-.49c-2.07-5.62-2.1-11.76-2.86-17.65-.3-2.3-4-2.33-3.65,0Z"/><path class="cls-1" d="M130.41,27.76c3.23-1.11,8.41-2.77,8.45-6.9,0-5.1-6.29-4.83-9-2s-2.51,7.54,0,10.53c2.84,3.38,7.22,3,10.1-.11,1.6-1.72-1-4.31-2.58-2.58-1.37,1.47-3.09,2.14-4.61.49a4.46,4.46,0,0,1-.71-5.21,3,3,0,0,1,2.42-1.56c.6,0,1,.34.59,1s-2,1.29-2.68,1.62a27.45,27.45,0,0,1-3,1.22c-2.21.76-1.26,4.29,1,3.52Z"/><path class="cls-1" d="M152,8c-.36,9-2.2,17.82-2.44,26.8-.06,2.35,3.59,2.35,3.65,0,.24-9,2.08-17.83,2.44-26.8.09-2.35-3.56-2.35-3.65,0Z"/><path class="cls-1" d="M161,18.74a18.1,18.1,0,0,0-1.38,11.09c.77,4,4.14,5.08,7.15,2.38a8.78,8.78,0,0,0,1-12.24c-2.66-3.29-7.16-3.35-8.38,1.16a1.83,1.83,0,0,0,3.52,1c.6-2.19,2.25.21,2.78,1.37a5.07,5.07,0,0,1,.29,3.75c-.48,1.38-1.55,1.91-2.44,2.9-.33.36-.2-.21.18.25a1.49,1.49,0,0,1-.34-.64,10.76,10.76,0,0,1-.33-3,14,14,0,0,1,1.14-6.15c1.08-2.08-2.07-3.93-3.16-1.84Z"/><path class="cls-1" d="M176.71,16.44c-4.85.91-8.84,8.85-4.16,12.32,5.06,3.75,8.22-4.64,7.83-8.46-.2-1.93-3-2.62-3.59-.49-1.75,6.73,1,18.16-4.32,23.35-1.91,1.86-4.68,2.12-7.21,2-1.22-.08-4.68-.29-5.38-1.42L160.5,40a20.43,20.43,0,0,1,4.11-1.7c6.65-2.09,13.77-2,20.38-4.24,2.21-.77,1.26-4.3-1-3.52-5.32,1.84-10.92,2.15-16.41,3.27-3.84.78-9.15,1.94-11.63,5.31-4.63,6.29,5.37,9.55,9.89,9.65,16.14.36,11.74-17.66,14.44-28l-3.59-.49c.06.55,0,4.87-1,4.89-3.49.06.49-4.94,2-5.23,2.31-.43,1.33-4-1-3.52Z"/><path class="cls-1" d="M186.62,17.88a8,8,0,0,0-2.34,7.51c.81,3,3.93,4,6.7,3A6,6,0,0,0,195.33,23a6.85,6.85,0,0,0-3-5.84c-2.69-1.72-5.71-.53-7.63,1.73-1.51,1.78,1.06,4.38,2.58,2.58,1-1.2,2.18-2,3.26-1.12a3.06,3.06,0,0,1,1,3.36c-.43.94-2.65,2.18-3.51,1.2-1-1.18.34-3.6,1.21-4.42,1.71-1.63-.88-4.21-2.58-2.58Z"/><path class="cls-1" d="M22.91,46c-1.6,7.7-1.71,15.62-3.3,23.32-.68,3.31-2.52,7.35-1.46,10.76,2,6.51,12.94,5.72,18.1,4.62,6.63-1.41,11.33-7.07,6.55-13.44-5.1-6.8-15.57-4.8-22.81-6.42v3.52c7.55-1.85,27.14-1,25-13.73-1.67-10.07-17-5.82-23.66-7.32l.44,3.34L23.16,50c2.13-1,.27-4.15-1.84-3.16L20,47.47a1.85,1.85,0,0,0,.44,3.34C25.66,52,37.72,48.68,41,54c5.43,8.76-18,9.81-22,10.79a1.84,1.84,0,0,0,0,3.52c5.49,1.24,11.39.47,16.74,2.39,3,1.08,7.13,4.57,4.69,8.06-1.44,2-5.25,2.49-7.5,2.72a25.33,25.33,0,0,1-7-.13c-5-.91-4.66-3.64-3.67-7.71C24.47,64.87,24.6,55.8,26.43,47c.48-2.3-3-3.28-3.52-1Z"/><path class="cls-1" d="M49,50.24c6.9-.16,14.13,2.48,21,.91,2.29-.53,1.32-4.05-1-3.52-6.38,1.47-13.49-1.19-20-1-2.35.05-2.36,3.71,0,3.65Z"/><path class="cls-1" d="M54.1,51.34A91.51,91.51,0,0,1,55,67.28c0,3-.6,6.68.18,9.58a1.86,1.86,0,0,0,2.68,1.09l.38-.18c2.12-1,.27-4.16-1.84-3.16l-.38.18,2.68,1.09c-1-3.58,0-8.43,0-12.12a85.59,85.59,0,0,0-1-13.4c-.39-2.31-3.91-1.33-3.52,1Z"/><path class="cls-1" d="M51,79H68.53a1.83,1.83,0,0,0,0-3.65H51A1.83,1.83,0,0,0,51,79Z"/><path class="cls-1" d="M96.67,52.31c.07-7.38-8.17-9.89-14-6.72C75.48,49.48,74,60.85,75.25,68.1c1,6,6.2,14.94,13.64,11.81,4.19-1.76,10.93-10.62,8.5-15.37-1.07-2.09-4.23-.25-3.16,1.84,1.16,2.27-4.63,9-6.36,9.9C82.67,79,79.36,71,78.77,67.13a25.32,25.32,0,0,1,2-14.23c1.34-2.6,3.35-4.51,6.31-4.9s6,.77,5.94,4.31c0,2.35,3.63,2.35,3.65,0Z"/><path class="cls-1" d="M87.53,67.23c4.72-1.41,9.76-.93,14.62-.91,2.35,0,2.35-3.64,0-3.65-5.2,0-10.55-.46-15.59,1-2.25.67-1.29,4.2,1,3.52Z"/><path class="cls-1" d="M126.33,50.85c1.27-6.4-7.35-8.13-11.91-6-7,3.32-6.72,12.88-6.93,19.46-.19,6.08.12,16.49,8,17.81,6.87,1.15,12.81-6.54,12.89-12.77,0-2.35-3.62-2.35-3.65,0-.05,4.12-4.93,11.24-9.86,8.75-4.18-2.11-3.79-9.31-3.7-13.19.08-3.6,0-7.5.92-11,.68-2.58,1.94-5.25,4.74-6.1,1.38-.41,6.49-.38,6,2s3.07,3.28,3.52,1Z"/><path class="cls-1" d="M118.72,69.25a88.46,88.46,0,0,0,14.62,0c2.33-.18,2.35-3.83,0-3.65a88.46,88.46,0,0,1-14.62,0c-2.34-.21-2.33,3.44,0,3.65Z"/><path class="cls-1" d="M140.28,49.39q-1,14.21-3.19,28.3a1.86,1.86,0,0,0,1.28,2.25c4.15.86,10.5,0,13.92-2.65,1.84-1.42,0-4.59-1.84-3.16-2.64,2-7.89,2.95-11.1,2.28l1.28,2.25q2.24-14.57,3.32-29.27c.17-2.35-3.49-2.34-3.65,0Z"/><path class="cls-1" d="M141.13,65.77c4.73-.64,9.64-.7,14.08-2.62,2.15-.93.29-4.08-1.84-3.16-4.07,1.76-8.87,1.67-13.21,2.25-2.32.31-1.33,3.83,1,3.52Z"/><path class="cls-1" d="M142.11,50.73c5.55.11,11,1.45,16.57,1,2.33-.2,2.35-3.85,0-3.65-5.56.47-11-.87-16.57-1-2.35,0-2.35,3.61,0,3.65Z"/><path class="cls-1" d="M167.57,53.29c.35,5.71-1,11.39-1.51,17.06-.27,2.74-1.78,8.34-.18,10.9a1.87,1.87,0,0,0,2.5.66l.48-.24c2.1-1.05.26-4.2-1.84-3.16l-.48.24,2.5.66c-.36-.57.19-2.51.24-3.19.22-2.94.41-5.86.75-8.79.54-4.72,1.49-9.37,1.2-14.13-.14-2.34-3.8-2.35-3.65,0Z"/><path class="cls-1" d="M170.37,54.07c3.6-1.18,7-2.87,10.77-3.65,1.84-.39,4.32-.82,6,.32a3.51,3.51,0,0,1,1.11,4.85c-2.76,4.11-12.69,4.9-16.9,3.24-2.19-.86-3.14,2.67-1,3.52,6,2.34,20.09.56,21.95-6.9,1.07-4.3-2.3-8.27-6.42-8.93-5.69-.91-11.27,2.31-16.5,4-2.23.73-1.27,4.26,1,3.52Z"/><path class="cls-1" d="M182.68,62.06c-.06,5-1.58,16,6.24,16.12,6.43.14,9.47-9.18,10.51-14.17.48-2.29-3-3.28-3.52-1-.66,3.14-2.58,11-6.52,11.47-4.69.61-3.08-9.87-3-12.45,0-2.35-3.63-2.35-3.65,0Z"/><path class="cls-1" d="M4.31,9.23A32.33,32.33,0,0,1,17.91,7.42c2.35.16,2.34-3.5,0-3.65A35,35,0,0,0,3.34,5.71c-2.19.81-1.24,4.35,1,3.52Z"/><path class="cls-1" d="M2.94,8.41C2.85,36.25-1,64,.27,91.83a1.87,1.87,0,0,0,1.83,1.83c4.33.16,8.66.13,13,.12a1.83,1.83,0,0,0,0-3.65c-4.34,0-8.67,0-13-.12l1.83,1.83C2.62,64,6.5,36.25,6.59,8.41a1.83,1.83,0,0,0-3.65,0Z"/><path class="cls-1" d="M195.31,3.66c5,.45,11.5-.84,12.88,5.39,1.88,8.49-.83,17.93-2,26.32-2.48,17.78-2.52,35.77-3.46,53.66l1.83-1.83c-1.67.06-6.68.92-8-.31-1.69-1.63-4.28.95-2.58,2.58,2.47,2.39,7.5,1.48,10.54,1.38A1.87,1.87,0,0,0,206.39,89c.57-10.83.82-21.67,1.46-32.49.66-11,2.35-21.85,3.78-32.81.78-6,2.33-15.33-2-20.39C206.28-.5,199.81.42,195.31,0c-2.34-.21-2.33,3.44,0,3.65Z"/></g></g></svg>