<svg xmlns="http://www.w3.org/2000/svg" viewBox="0 0 251.44 270.31"><defs><style>.cls-1{fill:#c14d9b;}</style></defs><title>Asset 24</title><g id="Layer_2" data-name="Layer 2"><g id="Layer_1-2" data-name="Layer 1"><path class="cls-1" d="M62,5.75,58.36,57.09c-.55,7.68,11.42,7.65,12,0L74,5.75c.55-7.68-11.42-7.65-12,0Z"/><path class="cls-1" d="M49.59,13.18l37.29-.7c7.69-.14,7.72-12.11,0-12l-37.29.7c-7.69.14-7.72,12.11,0,12Z"/><path class="cls-1" d="M143,12c-9,8.47-15.83,20.78-10.18,33.08s20.13,13.68,30,5.66c9.62-7.82,13.4-23.12,6.32-33.84a19.69,19.69,0,0,0-28.84-4.29c-5.94,4.91,2.57,13.34,8.46,8.46,4-3.27,9.85.34,11.4,4.38,2.23,5.84-.75,13.36-5.8,16.75-5.33,3.57-10.83,1-11.64-5.35-.83-6.57,4.36-12.27,8.76-16.39C157.06,15.2,148.59,6.75,143,12Z"/><path class="cls-1" d="M34.51,74.48l3.36,31.73,11.75-1.59c-1-3.74-4.69-14.79,1.58-16.37,4.76-1.2,4,7,2.55,9.38l11.15,3c-.11-4.23-.58-9.24,1.37-13.16.9-1.82,4.11-5.32,6.56-3.8,2.2,1.36,1,6.53.84,8.56a32,32,0,0,0,.67,11.26c2,7.41,13.6,4.27,11.54-3.18-1.71-6.2,1.16-12.69-.78-19a13.89,13.89,0,0,0-12.92-9.79A18.24,18.24,0,0,0,57.45,79c-4.53,6.2-4.72,14.24-4.52,21.61.16,5.91,8,8.17,11.15,3,6-10,1.67-28.1-12.37-27.58-6,.22-11.35,4.32-14,9.54-3.49,7-1.65,15.08.33,22.17,1.75,6.25,12.49,5.32,11.75-1.59L46.48,74.48c-.8-7.58-12.78-7.66-12,0Z"/><path class="cls-1" d="M94.06,75C91,82.1,87.9,89.81,90.59,97.53c2.19,6.27,8,11.2,14.79,11.07,15.67-.31,18.21-23.57,18.68-34.94.32-7.7-11.65-7.69-12,0a63.59,63.59,0,0,1-1.84,13.21c-.69,2.7-1.42,6.79-3.61,8.72s-4.24,0-5-2.62c-1.05-3.81,1.26-8.53,2.71-11.9,3-7-7.28-13.1-10.33-6Z"/><path class="cls-1" d="M154.43,72.63c-12.5-10.71-30.08.89-29.43,16.18.68,15.8,18.79,24.82,31.91,15.92,6.34-4.3.35-14.68-6-10.33-5,3.4-12.63,2-13.79-4.71-.71-4.08,3.84-12.91,8.89-8.59,5.82,5,14.32-3.44,8.46-8.46Z"/><path class="cls-1" d="M179.35,36.38,165.3,101c-1.63,7.51,9.9,10.72,11.54,3.18l14.05-64.63c1.63-7.51-9.9-10.72-11.54-3.18Z"/><path class="cls-1" d="M182.2,78.6c3.15-6.69,10.36-3.78,11.37,2.62,1.43,9-2.46,17.82-.63,27,1.5,7.55,13,4.35,11.54-3.18C203,97.78,206,90.51,205.69,83.22c-.23-6-2-12.19-6.58-16.3-8.27-7.39-22.54-4.36-27.24,5.63-3.26,6.93,7.05,13,10.33,6Z"/><path class="cls-1" d="M20.88,139.26l12.9,37.44a6,6,0,0,0,11.54,0l9.08-24.9-10.94,1.43,15.3,24.55c2.66,4.26,9.61,3.68,10.94-1.43L80,136.72c1.93-7.46-9.61-10.64-11.54-3.18L58.17,173.18l10.94-1.43L53.81,147.2c-2.86-4.59-9.19-3.35-10.94,1.43l-9.08,24.9H45.33l-12.9-37.44c-2.49-7.24-14.06-4.13-11.54,3.18Z"/><path class="cls-1" d="M86.76,120.9,85.3,173.1c-.22,7.7,11.75,7.7,12,0l1.46-52.2c.22-7.7-11.75-7.7-12,0Z"/><path class="cls-1" d="M97,150.78c.85-1.69,2.58-3.12,4.64-2.52,2.43.71,2.89,3.84,3.05,6,.58,7.84-2.4,15-.23,22.85,2,7.42,13.59,4.27,11.54-3.18-1.73-6.29.84-12.6.69-19-.13-5.43-1.64-10.95-5.7-14.77-7.3-6.88-19.89-4.26-24.33,4.55-3.46,6.86,6.86,12.93,10.33,6Z"/><path class="cls-1" d="M122.74,143.26l-.56,29c-.15,7.7,11.82,7.7,12,0l.56-29c.15-7.7-11.82-7.7-12,0Z"/><path class="cls-1" d="M136,124.21v-.83a6.17,6.17,0,0,0-1.75-4.23,6,6,0,0,0-8.46,0,6.22,6.22,0,0,0-1.75,4.23v.83a6.17,6.17,0,0,0,1.75,4.23,6,6,0,0,0,8.46,0,6.22,6.22,0,0,0,1.75-4.23Z"/><path class="cls-1" d="M151.65,121.81c-2.24,8.81-4.22,17.68-5.88,26.62-1.41,7.64-3.64,16.09-2.38,23.88,2.35,14.54,19.87,18.3,28.48,6.77,4.61-6.17-5.77-12.15-10.33-6-1.8,2.41-5.07.91-6-1.23-1.68-3.83-.05-9.61.6-13.48C158,147.11,160.39,136,163.19,125c1.9-7.47-9.64-10.65-11.54-3.18Z"/><path class="cls-1" d="M142.4,151.75l22.37,0c7.7,0,7.71-12,0-12l-22.37,0c-7.7,0-7.71,12,0,12Z"/><path class="cls-1" d="M182,162.67c5-3.86,11.77-3.85,17-7.46,4.67-3.23,8.34-8.54,7.39-14.44s-6.12-10-12-10.44-10.92,2.56-14.53,6.88c-8.16,9.76-11.08,24.68-3.17,35.45,7.19,9.78,22.63,12,30.64,1.84,4.73-6-3.69-14.5-8.46-8.46-3.53,4.47-9.39,4-12.69-.6-4-5.65-2.1-13.34,1.46-18.7,1.12-1.68,3.16-4.59,5.51-4.52,2.74.08.55,2.12-.79,3.09-4.82,3.49-11.5,3.28-16.4,7-6,4.62-.07,15,6,10.33Z"/><path class="cls-1" d="M71.85,186l-24,3.16c-6.21.82-12.65,1.52-16.93,6.63a12.28,12.28,0,0,0,.48,16.44c4.83,5.17,12,5.45,18.55,6.2,7,.8,14.26,1.21,21.23,2.47.82.15,5.37.78,5.57,2.17.38,2.68-6.39,2.46-7.48,2.42-15.86-.56-31.83-2.72-47.64-4.1l1.59,11.75,3.09-.43c7.6-1,4.36-12.58-3.18-11.54l-3.09.43c-7.11,1-4.63,11.21,1.59,11.75,15.82,1.38,31.77,3.47,47.64,4.1,6.36.25,12.85-1.3,16.79-6.67,3.49-4.77,3.58-11.48-.57-15.92-3.62-3.88-8.87-5.23-13.95-5.91-7.8-1-15.64-1.76-23.45-2.7-1.37-.16-8-.33-8.25-2.53-.19-1.91,6.78-2.43,8-2.6,8-1.11,16-2.11,24-3.16,3.23-.43,5.95-2.45,6-6,0-2.91-2.78-6.41-6-6Z"/><path class="cls-1" d="M93,199.62l1.88,64.73a6.06,6.06,0,0,0,7.57,5.77l.76-.19a5.94,5.94,0,0,0,4.18-4.18l.19-.76c1.82-7.48-9.71-10.67-11.54-3.18l-.19.76,4.18-4.18-.76.19,7.57,5.77L105,199.62c-.22-7.68-12.19-7.72-12,0Z"/><path class="cls-1" d="M104.59,216c2.76-1.74,6.65-.66,6.65,3s-3.88,4.78-6.64,3c-6.53-4.12-12.54,6.23-6,10.33,10.49,6.62,24.66-.85,24.65-13.37s-14.17-20-24.66-13.36c-6.49,4.11-.49,14.47,6,10.33Z"/><path class="cls-1" d="M129.87,196.84c4.41-1.95,9.28,2.21,9.24,6.57-.08,7-4.58,13.07-3.77,20.33.61,5.49,3.66,11,9.12,12.91a12.31,12.31,0,0,0,14.73-5c4.2-6.48-6.15-12.49-10.33-6-.3.46-1.6-2.45-1.69-3.14-.37-3,1-6.19,1.91-9,1.84-5.89,3.1-12.17.38-18-4.53-9.75-16.18-13.13-25.62-9-7,3.11-.95,13.42,6,10.33Z"/><path class="cls-1" d="M142.55,201.9c-4.39-2.06-9.4-2.07-13.48.78a12.57,12.57,0,0,0-4.93,13.57,12.44,12.44,0,0,0,10.14,9.23c5.26.75,9.79-1.52,12.88-5.72,1.92-2.6.43-6.68-2.15-8.19-3-1.78-6.27-.46-8.19,2.15,0-.07.45-.42.45-.44s-.9.53-.19.22a4.22,4.22,0,0,1-1.18.31c.68-.07.09-.22-.23-.12a.77.77,0,0,1,.69.2c-.11-.15-.78-.54-.29-.09-.25-.23-.48-.7-.2-.2l-.29-.53q.27.59.09,0c-.16-1,0,.77,0-.22q0-.55,0-.11t.05-.1c.42-.14-.17-.31-.14.14s.4-.51.18-.22a3.73,3.73,0,0,1,.48-.24c-.69.22.9-.23.22-.05-.41.11.81.29.09,0,2.92,1.37,6.45.82,8.19-2.15,1.52-2.6.79-6.81-2.15-8.19Z"/><path class="cls-1" d="M185.34,194c-12.25-8.87-30,1.14-28.63,16.21,1.45,15.48,20.35,22,31.27,11,5.44-5.46-3-13.93-8.46-8.46-3.78,3.79-10.47,2.17-10.92-3.53-.5-6.25,6.35-8,10.7-4.88,2.62,1.9,6.67.45,8.19-2.15,1.77-3,.48-6.29-2.15-8.19Z"/><path class="cls-1" d="M198.3,236.84c11.66-5.83,29.79-19,27.56-34.07-1.07-7.21-7-12.53-14.37-11.88s-13.15,6.68-15.43,13.4c-4.93,14.52,4.26,30,18.65,34,14.58,4.15,29.56-3.92,36.06-17.16,3.38-6.89-6.93-13-10.33-6-3.52,7.16-10.17,12.74-18.52,12.35-8-.38-15-6.38-15.2-14.65-.09-3.35,1-7.52,4.07-9.34,4.32-2.52,3.39,3.06,2.17,5.34-4.22,7.87-12.93,13.8-20.69,17.68-6.89,3.44-.84,13.77,6,10.33Z"/><path class="cls-1" d="M7.42,28.05l30.65,5.8c7.53,1.42,10.75-10.11,3.18-11.54L10.6,16.51C3.08,15.09-.15,26.62,7.42,28.05Z"/><path class="cls-1" d="M5.72,52.58,31.39,50c7.59-.77,7.67-12.75,0-12L5.72,40.61c-7.59.77-7.67,12.75,0,12Z"/><path class="cls-1" d="M8.11,72.82l9.11-3.31c2.93-1.07,5.23-4.11,4.18-7.36C20.47,59.26,17.19,56.82,14,58L4.93,61.28C2,62.34-.3,65.39.75,68.64,1.69,71.52,5,74,8.11,72.82Z"/><path class="cls-1" d="M198.65,23.85,221,18.62c7.5-1.75,4.32-13.3-3.18-11.54l-22.31,5.22c-7.5,1.75-4.32,13.3,3.18,11.54Z"/><path class="cls-1" d="M207,39l21.54,2.46c3.24.37,6-3,6-6,0-3.54-2.79-5.62-6-6L207,27c-3.24-.37-6,3-6,6,0,3.54,2.79,5.62,6,6Z"/><path class="cls-1" d="M207.86,59.8l18.24,4.06c7.5,1.67,10.71-9.86,3.18-11.54L211,48.26c-7.5-1.67-10.71,9.86-3.18,11.54Z"/><path class="cls-1" d="M110.87,10.14c-11.68,1.49-22.79,7.65-28.31,18.45C77.25,39,80.09,53.92,92.94,56.71c12.37,2.69,22.34-7.73,27.86-17.53,3-5.33,4.65-11.59,2.36-17.49a14.51,14.51,0,0,0-13-9.54c-7.69-.53-7.65,11.44,0,12,6.13.42-1.61,12.17-2.9,13.87-2.61,3.41-8.89,10.14-13.61,6.13-4.39-3.73-.67-10.66,2.25-14a24.32,24.32,0,0,1,15-8c7.54-1,7.63-12.94,0-12Z"/></g></g></svg>