<svg xmlns="http://www.w3.org/2000/svg" viewBox="0 0 174.07 262.56"><defs><style>.cls-1{fill:#231f20;}</style></defs><title>Asset 43</title><g id="Layer_2" data-name="Layer 2"><g id="Layer_1-2" data-name="Layer 1"><path class="cls-1" d="M18.93,12.26c-3.48,10.19-3.33,21-4.88,31.56-.73,5-1.7,9.89-2.29,14.88-.27,2.27-.08,5.91-.33,7.45l4.91.66v-.28c-.12-3.21-5.12-3.22-5,0v.28c.1,2.67,4.42,3.57,4.91.66a61.76,61.76,0,0,0,.27-6.29c.34-5.38,1.55-10.71,2.35-16,1.58-10.53,1.41-21.39,4.88-31.56,1-3.05-3.78-4.36-4.82-1.33Z"/><path class="cls-1" d="M18.68,13.68C23.28,21.6,24.53,30.74,27,39.43A107.71,107.71,0,0,0,37.1,62.91a2.53,2.53,0,0,0,4.57-.6c4.48-17.47,1.16-35.72,5.12-53.24C47.5,5.95,42.68,4.61,42,7.75c-4,17.53-.65,35.8-5.12,53.24l4.57-.6A103.56,103.56,0,0,1,31,35.11c-2.09-8.19-3.71-16.56-8-23.95-1.62-2.78-5.94-.27-4.32,2.52Z"/><path class="cls-1" d="M55.64,35.81a14.22,14.22,0,0,0-5.06,18.13c2.79,5.89,9.31,8.26,14.82,4.3,6.15-4.42,9.17-13.51,5.24-20.35-4.62-8-13.32-4.59-18,1.31-2,2.49,1.53,6.06,3.54,3.54C58.83,39.39,64,35.24,66.62,41c2.12,4.62-.19,10.68-4.33,13.36-3.26,2.12-6.18.15-7.47-3.15a9.09,9.09,0,0,1,3.35-11.07c2.67-1.77.17-6.1-2.52-4.32Z"/><path class="cls-1" d="M54.9,28.45c10.34.06,20.62.94,30.91,1.76,5.16.41,10.31.81,15.48,1,2.47.11,7.82,1.44,9.7-.69a2.54,2.54,0,0,0-1.1-4.18l-.13-.09c-2.79-1.62-5.31,2.7-2.52,4.32a7.49,7.49,0,0,0,1.32.59L107.46,27c.44-.5-5.64-.75-6.16-.77-1.94-.09-3.88-.2-5.81-.32-4.51-.29-9-.67-13.53-1-9-.73-18-1.4-27.05-1.45-3.22,0-3.22,5,0,5Z"/><path class="cls-1" d="M83,2.4c.71,10.38-.65,21.08-1.81,31.39-1,8.7-3.85,18.92-.35,27.39,5.27,12.75,20.76,1.61,27.46-3.53,2.52-1.93,0-6.28-2.52-4.32-3.83,2.93-7.87,6.08-12.41,7.82-2,.75-4.67,1.63-6.55.19-2.7-2.07-2.51-7.56-2.49-10.45C84.36,43,86,35,86.73,27.08c.73-8.23,1.79-16.4,1.22-24.68-.22-3.19-5.22-3.22-5,0Z"/><path class="cls-1" d="M124.63,32.8c-.78,4.91-1.88,9.76-2.51,14.7-.6,4.66.05,8.67.33,13.23A2.52,2.52,0,0,0,127.1,62l.21-.2c2.23-2.32-1.3-5.86-3.54-3.54a10.91,10.91,0,0,0-1,1.21l4.66,1.26c-.26-4.37-.95-8.12-.4-12.56.59-4.71,1.66-9.34,2.4-14,.5-3.15-4.32-4.5-4.82-1.33Z"/><path class="cls-1" d="M124.88,34.72c2.62,6,3.87,12.72,7.89,18a2.54,2.54,0,0,0,4.57-.6c2.82-6.77,5.31-13.67,8.43-20.32l-4.66-1.26c-.36,9.47,1.54,18.89,3.56,28.1.69,3.14,5.51,1.81,4.82-1.33-1.93-8.8-3.72-17.72-3.38-26.77.09-2.38-3.59-3.53-4.66-1.26-3.3,7-5.94,14.34-8.93,21.51l4.57-.6c-4-5.27-5.28-12-7.89-18-1.28-2.94-5.59-.4-4.32,2.52Z"/><path class="cls-1" d="M151.18,31.62a239.34,239.34,0,0,1,6.62,23,2.53,2.53,0,0,0,3.67,1.49l.35-.18a2.45,2.45,0,0,0,1.24-2.16,2,2,0,0,1,0-.78c.41-3.18-4.59-3.15-5,0a2,2,0,0,0,0,.78l1.24-2.16-.35.18,3.67,1.49a239.34,239.34,0,0,0-6.62-23c-1-3-5.87-1.73-4.82,1.33Z"/><path class="cls-1" d="M169.46,27.19c-6.78,13.4-7.82,29.76-19.31,40.43A44.17,44.17,0,0,1,131.07,78.1q-3.47.91-7,1.64c-1.25.26-5.81,1.15-5.81,1.15-2.69-1.79-5.19,2.54-2.52,4.32,3.16,2.1,10.63-.83,13.86-1.6a52.29,52.29,0,0,0,19.93-9,45.24,45.24,0,0,0,14.66-19c3.57-8.5,5.4-17.63,9.58-25.89,1.45-2.86-2.86-5.4-4.32-2.52Z"/><path class="cls-1" d="M16.49,85.47C29,83.63,41.94,80.66,54.64,81.95c2.95.3,11.1,1.45,11.29,5.66.11,2.29-3.36,3.91-5,4.77-13.19,7-28.65,7.09-42.66,11.35a2.5,2.5,0,0,0,1.33,4.82c11.43-2.79,24.16-4.73,35.77-1.89,6.07,1.48,20.55,7.88,10.27,14.7-6.71,4.45-15.77,5.49-23.54,6.8-12.88,2.17-26.37,3.85-39-.42v4.82l1.7-.41c3.17-.33,3.2-5.33,0-5a12.58,12.58,0,0,0-3,.59,2.52,2.52,0,0,0,0,4.82c14.27,4.82,29.5,2.52,44,0,8.52-1.47,22.3-3.14,27.14-11.49,5.48-9.43-5.69-16.06-13.18-18.42-13.32-4.2-28.17-2.19-41.45,1.05l1.33,4.82c13.4-4.07,27.53-4.82,40.58-10.34,4.3-1.82,10.72-4.86,10.74-10.38C71,80,60.62,77.52,54.64,76.95c-13.18-1.26-26.54,1.79-39.48,3.7-3.17.47-1.82,5.29,1.33,4.82Z"/><path class="cls-1" d="M11.32,83.56c.2,16.72,1.93,33.38,2,50.09,0,3.22,5,3.22,5,0-.07-16.72-1.8-33.38-2-50.09,0-3.22-5-3.22-5,0Z"/><path class="cls-1" d="M83.55,85.9c-1.22,7.45-2.36,15-2.13,22.6.18,6.07,1.21,15.45,8.61,16.79,7.92,1.43,10.84-6.68,11.68-13,.62-4.63.62-9.31.78-14,.11-3-.3-7.46,1.66-10s-2.39-5-4.32-2.52c-3.19,4.17-2.31,11.64-2.45,16.53-.12,4.17.7,17.22-5.28,18.06-9.8,1.38-4.56-28.12-3.73-33.17.52-3.15-4.3-4.5-4.82-1.33Z"/><path class="cls-1" d="M153.85,85.41c-4.87-2.74-10.4-1.3-15.37.45-5.24,1.84-11,3.59-15.8,6.36-7.57,4.35-14,15.78-7.35,23.67,5.24,6.26,15.44,6.2,22.79,5.2,4.57-.62,9.69-1.71,13.74-3.94,4.81-2.65,4.86-7.06,4.73-12-.08-3.21-5.08-3.22-5,0a18.27,18.27,0,0,1-.08,4.82c-.74,2.89-3.4,3.55-5.94,4.35a49,49,0,0,1-8.71,2c-5.21.64-12.63,1-16.88-2.73-6.72-5.85,1.33-15.13,7-17.9,3.49-1.71,7.32-2.87,11-4.24,3.93-1.48,9.39-3.91,13.41-1.65,2.81,1.58,5.33-2.74,2.52-4.32Z"/><path class="cls-1" d="M137.06,108.6c9.1-.28,19.4-.48,27.81-4.35,2.92-1.34.38-5.65-2.52-4.32-7.54,3.47-17.13,3.41-25.29,3.67-3.21.1-3.22,5.1,0,5Z"/><path class="cls-1" d="M33.46,231.87c-2.4-7.57-5.56-15.27-6.14-23.27A33.73,33.73,0,0,1,34,186.44c4-5.6,9.06-10.4,13.25-15.87,4.84-6.31,9.69-12.61,17.19-15.86l-3.67-1.49c2.66,10.14-5.5,18.92-6.69,28.66-.86,7,5.19,8.56,10.44,5.07,7.43-4.93,11.37-14.25,17.13-20.8,7-8,14.27-18.87,24.82-22.31l-3.08-1.75c3.34,8.31-10.11,15.89-12,23.7a2.53,2.53,0,0,0,1.75,3.08c8,1.76,14.57-7.26,19-12.54,7-8.3,16.3-17,27.49-18.49l-3.16-2.41c-.19,8.62-7.62,14.31-13.54,19.56-5.49,4.87-11.2,10.1-12.92,17.53a2.53,2.53,0,0,0,3.08,3.08c11.77-3.1,20.39-12.41,31.27-17.38l-3-.39c3.35,4.25-7.24,11.27-9.86,13.39-3.87,3.15-9.44,6.75-10.72,11.92a2.53,2.53,0,0,0,3.08,3.08c5.81-1.17,10.66-5.48,15.58-8.52,2-1.22,11-6.75,10-1.44-.79,4.45-5.52,9.25-8.29,12.56s-5.76,6.49-8.68,9.7c-4.63,5.08-9.13,10.22-14.2,14.88-5.92,5.44-12.43,9.76-19.08,14.21-4.48,3-8.58,6.55-13,9.59-3.53,2.4-10.68,7.95-15.13,5.22-2.75-1.69-5.27,2.64-2.52,4.32,8.32,5.1,19.72-4.71,25.92-9.38,10.58-8,21.79-14.7,31.24-24.12a280.55,280.55,0,0,0,20.64-22.85c3.24-4,12.33-14.22,6.78-19.6-8.2-7.94-22.79,9.07-30.56,10.63l3.08,3.08c2.42-9.78,29.49-17.24,19.3-30.18a2.54,2.54,0,0,0-3-.39c-10.45,4.77-18.8,13.9-30.07,16.88l3.08,3.08c3.72-16.07,26.25-20.3,26.65-38.41,0-1.8-1.62-2.62-3.16-2.41-9.41,1.28-19.22,8.08-25.58,15-2.8,3-5.27,6.34-8.06,9.37-2.28,2.48-6.34,7.56-10.2,6.71l1.75,3.08c2.22-9.27,16.38-15.41,12-26.36A2.55,2.55,0,0,0,105.1,139c-8.55,2.79-14.95,9.72-20.72,16.3-5.36,6.12-10.24,12.31-15,18.9-2.14,3-5.07,7.71-8.65,9.19-2.32,1-2,.24-1.58-1.89A31.08,31.08,0,0,1,60.53,177c2.91-8.14,7.33-16.26,5-25.09a2.54,2.54,0,0,0-3.67-1.49c-7.26,3.15-12.39,9.05-17.12,15.2-5.14,6.67-11.36,12.6-16,19.62a37.82,37.82,0,0,0-6.42,23.39c.59,8.5,3.78,16.55,6.32,24.6,1,3.06,5.8,1.75,4.82-1.33Z"/><path class="cls-1" d="M79.79,191c-6.37,4.19-16.28,13.37-12.39,22,3.29,7.28,13.43,4.77,19,2,8.26-4.15,17.4-15.6,10.77-24.83-5.28-7.34-15.54-3.23-19.56,3.09-1.73,2.72,2.59,5.24,4.32,2.52,3.37-5.3,12.58-6.75,12.39,1.76-.15,6.51-6.75,11.87-12.39,14-3.33,1.24-10.61,3-10.34-2.82.25-5.24,6.74-10.71,10.77-13.36,2.68-1.76.18-6.09-2.52-4.32Z"/><path class="cls-1" d="M82.88,189.87c0-2.48-.21-4.95.58-7.34,1-3.06-3.81-4.37-4.82-1.33-.93,2.82-.75,5.75-.76,8.66,0,3.22,5,3.22,5,0Z"/><path class="cls-1" d="M75,194.79a8,8,0,0,1-3.84-2.85,2.57,2.57,0,0,0-3.42-.9,2.52,2.52,0,0,0-.9,3.42,13.8,13.8,0,0,0,6.83,5.15,2.52,2.52,0,0,0,3.08-1.75A2.55,2.55,0,0,0,75,194.79Z"/><path class="cls-1" d="M67.05,202.7H61.72c-3.22,0-3.22,5,0,5h5.33c3.22,0,3.22-5,0-5Z"/><path class="cls-1" d="M79.22,215.2a18,18,0,0,0,1.67,7.93c1.5,2.85,5.82.32,4.32-2.52a12.48,12.48,0,0,1-1-5.4c-.1-3.21-5.1-3.22-5,0Z"/><path class="cls-1" d="M89.56,209.8a21.47,21.47,0,0,0,5.56,5.56,2.52,2.52,0,0,0,3.42-.9,2.55,2.55,0,0,0-.9-3.42,15.29,15.29,0,0,1-3.77-3.77,2.56,2.56,0,0,0-3.42-.9,2.52,2.52,0,0,0-.9,3.42Z"/><path class="cls-1" d="M96.38,203a27.41,27.41,0,0,1,8,.58c3.11.83,4.44-4,1.33-4.82a32.05,32.05,0,0,0-9.33-.76c-3.21.1-3.22,5.1,0,5Z"/><path class="cls-1" d="M74.38,209c3.22,0,3.22-5,0-5s-3.22,5,0,5Z"/><path class="cls-1" d="M80.82,212.3l.67-.67a2.5,2.5,0,0,0-3.54-3.54l-.67.67a2.5,2.5,0,0,0,3.54,3.54Z"/><path class="cls-1" d="M82.82,206.3A82.84,82.84,0,0,1,96.31,194c2.59-1.86.1-6.2-2.52-4.32a88.46,88.46,0,0,0-14.51,13.06c-2.13,2.4,1.39,5.95,3.54,3.54Z"/><path class="cls-1" d="M75.72,205a10,10,0,0,1,8.51,5.43c1.62,2.78,5.94.27,4.32-2.52A15.11,15.11,0,0,0,75.72,200c-3.22-.13-3.21,4.87,0,5Z"/><path class="cls-1" d="M19.45,231.2c10.52-.76,20.79,4.23,30.52,7.63,8.44,3,18.52,6.09,24.47,13.17,2.07,2.47,5.59-1.09,3.54-3.54-6.23-7.42-16.6-10.89-25.45-14-10.52-3.72-21.68-9.06-33.07-8.23-3.19.23-3.22,5.23,0,5Z"/><path class="cls-1" d="M16.84,241c9.72.53,17.16,5.8,25.51,10.13,7.69,4,16.05,6.5,23.46,11.06,2.75,1.69,5.26-2.63,2.52-4.32C60,252.72,50.46,250,42,245.19c-8-4.56-15.71-8.7-25.11-9.21-3.22-.17-3.21,4.83,0,5Z"/><path class="cls-1" d="M76.25,249.37a36.58,36.58,0,0,0-9.64,6.91c-2.32,2.23,1.21,5.77,3.54,3.54a32.35,32.35,0,0,1,8.63-6.13c2.91-1.36.38-5.68-2.52-4.32Z"/><path class="cls-1" d="M15.34,226.13c-2.27,3.42-5.41,7.37-4.82,11.71.18,1.35,1.9,2.06,3.08,1.75a2.56,2.56,0,0,0,1.75-3.08c-.14-1,1.11-2.77,1.59-3.6.84-1.46,1.79-2.85,2.72-4.26,1.79-2.69-2.54-5.19-4.32-2.52Z"/></g></g></svg>