<svg xmlns="http://www.w3.org/2000/svg" viewBox="0 0 233.98 277.4"><defs><style>.cls-1{fill:#fdd405;}.cls-2{fill:#231f20;}</style></defs><title>Asset 48</title><g id="Layer_2" data-name="Layer 2"><g id="Layer_1-2" data-name="Layer 1"><path class="cls-1" d="M72.91,9.68c-9.14-1-22.38-2.87-36,4C10.69,26.9,4,62,1.91,72.68c-7.65,39.91,10,46.12,12,105,1.37,40.28-6.23,56.51,7,72,10.17,11.91,24.73,14.1,48,17,92,11.47,138.36,16.86,153,0,10.85-12.5,11.26-27.92,12-56,1.06-40-10.73-54.43-17-92-11.59-69.48,16.72-92.09-2-111C193.14-14.31,157.35,18.86,72.91,9.68Z"/><path class="cls-2" d="M39.25,27.19c-4.53,12.69-4,26.39-6.15,39.54l4.11.56V65.7c0-2.69-4.16-2.7-4.19,0v1.59c0,2.29,3.72,2.94,4.11.56C39.28,54.7,38.76,41,43.29,28.3c.91-2.54-3.14-3.64-4-1.11Z"/><path class="cls-2" d="M38.69,26.63c4.53,12.79,3.73,26.73,8.37,39.5.62,1.7,3.73,2.26,4,0,1.69-12.51,6.29-24.52,6.22-37.26,0-2.69-4.2-2.7-4.19,0,.07,12.35-4.42,24-6.07,36.15h4c-4.64-12.77-3.84-26.7-8.37-39.5-.89-2.52-4.94-1.44-4,1.11Z"/><path class="cls-2" d="M67.5,40.72c-10.83.91-10.18,19-1.85,23,5.17,2.52,11.24-2.18,13.07-6.92,2.07-5.36-.68-11.33-5-14.68-4.82-3.72-11.08-3-12.69,3.45-.65,2.61,3.38,3.73,4,1.11,1.21-4.84,5.77-2.16,8,.55,3.31,4.09,2.82,9.71-2.1,12.34-7.41,4-10.52-14.11-3.41-14.7,2.66-.22,2.69-4.41,0-4.19Z"/><path class="cls-2" d="M88.29,22.72c.14,12.15-4.81,26.1,0,37.89,3.43,8.46,13.45,4.33,17.33-1.67,1.47-2.27-2.16-4.37-3.61-2.11-2.3,3.55-7.88,6.78-10.06,1.58-1.09-2.61-1.12-6-1.24-8.77-.4-9,1.91-17.9,1.81-26.91,0-2.69-4.22-2.7-4.19,0Z"/><path class="cls-2" d="M79.22,37.65H101c2.69,0,2.7-4.19,0-4.19H79.22c-2.69,0-2.7,4.19,0,4.19Z"/><path class="cls-2" d="M134.33,41.14c-.58-8.83-13.78-4-11.11,3.37,1.55,4.29,5.74,3.05,9.24,3.64,2.9.49,3.09,3.73,2.55,6.23a5.51,5.51,0,0,1-1.58,3.18c-1.25.91-2.86.43-4.1-.08-.39-.16-2.63-1.17-2.66-1.53l-1,1.81.41-.29c2.17-1.56.08-5.19-2.11-3.61-4.63,3.32,3,7.57,5.93,8.2,5.27,1.12,8.67-2.8,9.37-7.67.57-3.94-.53-9-4.91-10.17-1.85-.48-4.5.39-6.17-.4-3.35-1.59,1.87-4.43,2-2.66.18,2.67,4.36,2.69,4.19,0Z"/><path class="cls-2" d="M143.06,38.91c-1.4,4.94-5.12,25.41,5.53,22.93,4.14-1,5.95-6.23,7-9.78a45,45,0,0,0,2.17-14.27c-.11-2.68-4.3-2.7-4.19,0a37.57,37.57,0,0,1-1,8.86c-.63,3.09-1.37,8-3.81,10.22-3.44,3.21-3.35-4.47-3.28-6.39A44.67,44.67,0,0,1,147.1,40c.73-2.6-3.3-3.7-4-1.11Z"/><path class="cls-2" d="M160.36,37.79c-1.2,7.57-4.25,15.72-2.79,23.44.5,2.64,4.54,1.52,4-1.11-1.3-6.85,1.72-14.46,2.79-21.21.42-2.64-3.62-3.77-4-1.11Z"/><path class="cls-2" d="M162.74,49.32a49.83,49.83,0,0,1,3.94-4.45c.77-.76,2.78-3,4.07-2.83,2.63.36,3.77-3.67,1.11-4-5.1-.7-9.26,4.83-12.08,8.35-1.67,2.08,1.27,5.06,3,3Z"/><path class="cls-2" d="M173.54,52.72a21.52,21.52,0,0,0,12.85-4.48c2.26-1.69,6-4.95,4.32-8.21-1.29-2.5-4.69-2.58-7.1-2.19a16.5,16.5,0,0,0-9.78,5.42,11.14,11.14,0,0,0,.12,14.63c4.25,4.78,10.93,4.39,15.72.69,2.1-1.62,0-5.26-2.11-3.61-2.72,2.1-6.23,3.38-9.32,1.19a7,7,0,0,1-2.65-7.7c1.24-3.82,6.14-6.74,10.05-6.62,1.4,0,1.33-.07.54,1A13.28,13.28,0,0,1,182.25,46a16.75,16.75,0,0,1-8.71,2.54c-2.69,0-2.7,4.19,0,4.19Z"/><path class="cls-2" d="M42,91.82c0,7.12-.56,14.22-.67,21.33,0,3.22,5,3.22,5,0,.11-7.11.63-14.22.67-21.33,0-3.22-5-3.22-5,0Z"/><path class="cls-2" d="M45.15,85c3.22,0,3.22-5,0-5s-3.22,5,0,5Z"/><path class="cls-2" d="M66.64,82.42c2-4.32,1.84-12.1-4.73-12-5.76.12-7.5,7.06-8.08,11.64a110,110,0,0,0-.47,20.33c.27,4.49.21,10.88,3.35,14.5,2.11,2.43,5.64-1.12,3.54-3.54-1.47-1.7-1.45-5.73-1.65-7.8a114.2,114.2,0,0,1-.45-12.22,84.2,84.2,0,0,1,.7-11.42,16.1,16.1,0,0,1,.69-3.26c.33-.89,1.39-3.56,2.84-3.15s.24,3.74,0,4.36c-1.37,2.89,2.94,5.43,4.32,2.52Z"/><path class="cls-2" d="M52.48,100.9c3.31-.71,6.57-2,10-1.91,3.22.08,3.22-4.92,0-5-3.89-.1-7.58,1.28-11.33,2.09-3.14.68-1.81,5.5,1.33,4.82Z"/><path class="cls-2" d="M83.41,87.82c1.8,8.5,1.62,17.24,3.42,25.75.47,2.21,3.48,2.3,4.57.6,3.15-4.95,5.38-10.34,7.92-15.61L94.74,98c1.31,6.17.79,12.38,5.33,17.31a2.52,2.52,0,0,0,3.93-.51,92.73,92.73,0,0,0,7.57-26.27c.43-3.15-4.39-4.51-4.82-1.33a88.68,88.68,0,0,1-7.06,25.08l3.93-.51c-3.64-3.95-3-10.14-4-15.1-.43-2-3.65-2.52-4.57-.6-2.54,5.27-4.76,10.66-7.92,15.61l4.57.6C89.85,103.74,90,95,88.23,86.49c-.67-3.15-5.49-1.81-4.82,1.33Z"/><path class="cls-2" d="M116.48,103.57c5.36-1.92,15.79-3.49,15.29-11.21S121,86.85,117.59,91a18,18,0,0,0-3.05,15.88c1.92,6,7.6,6.66,12.54,3.73,2.77-1.64.25-6-2.52-4.32-7,4.17-6.2-6.32-4.28-10.26a7.53,7.53,0,0,1,2.61-3.2c1.52-.95,5.16-1.35,3.3,1.31-2,2.87-7.93,3.46-11,4.57s-1.71,5.91,1.33,4.82Z"/><path class="cls-2" d="M136.07,81.16c-.48,2.67-1.13,5.29-1.42,8a2.52,2.52,0,0,0,2.5,2.5,2.56,2.56,0,0,0,2.5-2.5c.24-2.25.85-4.45,1.24-6.67a2.57,2.57,0,0,0-1.75-3.08,2.52,2.52,0,0,0-3.08,1.75Z"/><path class="cls-2" d="M144.07,87.16A112.68,112.68,0,0,0,141.32,107c-.11,3.25,4.75,3.17,5,0,.6-7.77,6.77-15.11,12.76-19.65,2.53-1.92,0-6.26-2.52-4.32-7.52,5.7-14.48,14.24-15.24,24h5a104.94,104.94,0,0,1,2.58-18.48c.67-3.14-4.15-4.48-4.82-1.33Z"/><path class="cls-2" d="M161.82,102.24c5.15-1.47,16.09-3.35,14.55-11.16-1.37-7-11.79-3.25-15-.1-3.73,3.61-5,9.64-2.47,14.29,3.16,5.71,9.78,5.37,14.9,2.72,2.86-1.48.33-5.8-2.52-4.32-2.49,1.29-6,2.26-7.82-.53a6.86,6.86,0,0,1,.41-7.42,8.28,8.28,0,0,1,3.62-2.85,8.49,8.49,0,0,1,3.08-.69c1.24,0,1-.12.73.57-1.2,3.23-7.88,3.84-10.74,4.66-3.09.88-1.78,5.71,1.33,4.82Z"/><path class="cls-2" d="M60.48,162.75c-8.24-3-24-7.39-28.68,3.79a8.48,8.48,0,0,0,2.72,9.73c3.45,2.65,8,2.09,12.07,2.08,7.34,0,22.67,3.64,15.06,14.29-5.4,7.56-18.71.79-23.2-4.49l-1.1,4.18-.63-.08c2.41,2.11,6-1.41,3.54-3.54a4,4,0,0,0-4.23-1.2c-2,.39-2.22,2.86-1.1,4.18,5,5.85,13.67,9.71,21.36,9A13.4,13.4,0,0,0,68.1,184.56c-1.62-7.89-10.52-10.38-17.47-11-3.52-.33-13.36,1.58-14.32-3.2-1.12-5.54,8.33-6.32,11.44-6,4,.42,7.71,1.86,11.42,3.21,3,1.11,4.33-3.72,1.33-4.82Z"/><path class="cls-2" d="M87.56,177.83c-1-4-4.31-5.88-7.93-3.54s-6.39,7.29-7.68,11.41A12.34,12.34,0,0,0,76,199.05c4.76,3.65,10.7,2.28,14.92-1.46,2.41-2.14-1.13-5.66-3.54-3.54-5.52,4.89-12.79-.15-10.61-7a20.49,20.49,0,0,1,3.61-6.6,10.22,10.22,0,0,1,2.17-2.08c.37-.25.35-.15-.24-.43.27.13.38,1.08.42,1.24.76,3.13,5.58,1.8,4.82-1.33Z"/><path class="cls-2" d="M94.07,177.83c-1.68,7.19.48,15.41,2,22.46.59,2.72,5.13,2.17,4.91-.66-.45-5.74,2.57-14,8.83-15.39,3.14-.68,1.81-5.5-1.33-4.82-8.38,1.8-13.12,12.31-12.5,20.21l4.91-.66c-1.32-6.13-3.46-13.55-2-19.8.73-3.13-4.09-4.47-4.82-1.33Z"/><path class="cls-2" d="M116.33,179.23c-2.64,5.45-3.79,18.29,3.95,20.26,8.95,2.29,11.64-12.16,11.38-18.33-.14-3.21-5.14-3.22-5,0,.11,2.53-1.19,14.55-5.12,13.5-3.64-1-2-10.54-.89-12.9,1.4-2.88-2.91-5.42-4.32-2.52Z"/><path class="cls-2" d="M138,179.16c.11,5.52-.51,11-.7,16.51-.1,2.92,4,3.26,4.91.66,2-5.88,5.68-14.74,11.08-18.21,3.33-2.14,3.1,2.85,3.16,5.29a37.11,37.11,0,0,1-.88,9.61l4.91.66c-.72-8.22,6.3-14.45,12.64-18.47l-3-.39c1.86,2.09,1.9,6.26,2.31,8.88.53,3.45.89,7.1,2.35,10.32,3.47,7.7,10.48,4.56,15.52.23,2.44-2.1-1.11-5.63-3.54-3.54-1.72,1.48-4.76,4.53-6.84,2.42-1.6-1.62-1.82-5.43-2.17-7.53-.79-4.67-.77-10.58-4.09-14.31a2.52,2.52,0,0,0-3-.39c-7.8,4.94-16,12.76-15.12,22.79.23,2.65,4.2,3.58,4.91.66,1.28-5.23,3.67-22.51-5.52-22.08-4.68.22-8.2,5.14-10.53,8.64A59.34,59.34,0,0,0,137.38,195l4.91.66c.18-5.51.81-11,.7-16.51-.06-3.21-5.06-3.22-5,0Z"/><path class="cls-2" d="M92.56,210.33c-6.21,3.18-6.5,19,2.63,16.72,5-1.26,7.56-6.5,6.71-11.31s-5.12-8.68-10-6.07c-2.84,1.51-.32,5.83,2.52,4.32,1.87-1,2.62,2.21,2.67,3.53.1,2.21-1.34,4.43-3.45,4.73,0,0,0,0,0,0a3.81,3.81,0,0,1-.3-.44,6,6,0,0,1-.36-2.66c.08-1.65.59-3.73,2.07-4.48,2.87-1.47.34-5.78-2.52-4.32Z"/><path class="cls-2" d="M34.06,231.71c1.41,4,.94,8.65,3.56,12.14a2.12,2.12,0,0,0,3.81-.5A33.59,33.59,0,0,1,44,237.5l-3.27.42c2.05,2.29,2.66,5.44,5,7.52.89.78,2.71.9,3.27-.42,1.79-4.22,3.1-8.63,5-12.81,1.1-2.43-2.5-4.55-3.6-2.1-1.89,4.19-3.2,8.59-5,12.81l3.27-.42c-2.27-2-3-5.26-5-7.52a2.1,2.1,0,0,0-3.27.42,39.44,39.44,0,0,0-3,6.85l3.81-.5c-2.34-3.12-1.87-7.57-3.14-11.15-.89-2.51-4.92-1.43-4,1.11Z"/><path class="cls-2" d="M62.75,231.29c-5.59-.36-13.61,8.37-8.24,13.26,5.82,5.3,11.49-5.64,11.31-10.45-.08-2.27-3.55-2.93-4.1-.55-1,4.27-1.76,13.63,3.25,15.74,2.47,1,3.55-3,1.11-4,.31.13-.26-1.3-.36-1.75a18.71,18.71,0,0,1-.35-3.2,21.58,21.58,0,0,1,.37-5.66l-4.1-.55c.05,1.45-2.19,8.48-4.2,7.48-1.28-.64.29-3,.8-3.62,1.08-1.38,2.66-2.62,4.49-2.51,2.68.17,2.67-4,0-4.17Z"/><path class="cls-2" d="M70.68,222.82c0,6.07-.15,12.34,1.18,18.29,1.2,5.39,5.22,8.91,9.61,3.75,1.73-2-1.21-5-2.95-2.95-1.33,1.56-1.33,2-2.1.11a25.13,25.13,0,0,1-1.24-7.09c-.34-4-.34-8.07-.33-12.12,0-2.68-4.16-2.69-4.17,0Z"/><path class="cls-2" d="M66.65,231.57a50.34,50.34,0,0,1,10.57,1c2.62.44,3.75-3.58,1.11-4a55.83,55.83,0,0,0-11.67-1.19c-2.67.12-2.69,4.29,0,4.17Z"/><path class="cls-2" d="M86.66,243.17c3.2-1.14,9.05-4.13,6.51-8.5-1.71-2.93-6-3.13-8.54-1.34-3.85,2.67-4.07,8.16-1.26,11.63a8.13,8.13,0,0,0,12,1c2-1.79-1-4.73-2.95-2.95-3.81,3.4-9.48-3-5.59-6.15a2.2,2.2,0,0,1,2.81,0c-.18-.14-.1,0-.08-.07.14-.24-.09.15-.15.21a8.67,8.67,0,0,1-3.86,2.17c-2.51.89-1.43,4.92,1.11,4Z"/><path class="cls-2" d="M97.44,234.49c1.54,3.82.89,8.05,2.09,12,.56,1.84,3.61,2.12,4,0a20.55,20.55,0,0,1,6.27-11c1.95-1.86-1-4.8-2.95-2.95a24.38,24.38,0,0,0-7.34,12.89h4c-1.2-3.91-.54-8.12-2.09-12-1-2.46-5-1.39-4,1.11Z"/><path class="cls-2" d="M127.66,221.15c.32-2.75-.63-6-3.94-6.12-3.54-.11-5.13,3.28-5.88,6.13a138.25,138.25,0,0,0-2.71,14.18,53.32,53.32,0,0,0-.59,6.15c0,1.06.5,4.08-.07,4.92l3.27-.42-.15-.17c-1.73-2.06-4.66.9-2.95,2.95l.15.17a2.11,2.11,0,0,0,3.27-.42c.75-1.1.56-2.84.6-4.11a67.48,67.48,0,0,1,.6-8.78c.5-3.12,1.31-6.18,1.83-9.3.19-1.16.35-2.33.61-3.47.23-1,2.16-5.13,1.77-1.69-.31,2.66,3.87,2.64,4.17,0Z"/><path class="cls-2" d="M113.9,231.57a41.5,41.5,0,0,1,7.78.56,2.1,2.1,0,0,0,2.08-2.08,2.13,2.13,0,0,0-2.08-2.08,41.48,41.48,0,0,0-7.78-.56c-2.66.19-2.68,4.36,0,4.17Z"/><path class="cls-2" d="M133.73,232.46c-5.29-6.83-14.08,8.49-12.14,13.56a4.36,4.36,0,0,0,4.26,2.77c2-.13,3.46-1.69,4.51-3.25a32.23,32.23,0,0,0,4.37-11.44c.52-2.61-3.33-3.73-4-1.11-1,4-2.35,14.72,3.77,15.26,2.67.23,2.66-3.94,0-4.17.55,0,.42.3.22-.16a6.4,6.4,0,0,1-.35-1.31,16,16,0,0,1-.22-2.93,21.56,21.56,0,0,1,.59-5.57l-4-1.11a37.81,37.81,0,0,1-2.16,7,15.31,15.31,0,0,1-2,3.8,6.3,6.3,0,0,1-1,.85c-1.07-1,1.26-5,1.78-5.94s2.7-4.29,3.47-3.29c1.64,2.12,4.57-.85,2.95-2.95Z"/><path class="cls-2" d="M140.73,220.59c-.09,5.1-.66,10.16-1,15.24-.28,3.81-1,8.53,0,12.26a2.11,2.11,0,0,0,3.81.5,4.22,4.22,0,0,1,.52-.82c1.56-2.19-2.05-4.27-3.6-2.1a4.22,4.22,0,0,0-.52.82l3.81.5c-1.06-3.86-.07-9,.25-13,.37-4.48.81-8.94.89-13.43,0-2.68-4.12-2.68-4.17,0Z"/><path class="cls-2" d="M148.59,219.48c-1.2,8.26-2.42,16.65-2.3,25,0,2.68,4.21,2.69,4.17,0-.12-8,1-16,2.15-23.91.38-2.62-3.64-3.76-4-1.11Z"/><path class="cls-2" d="M161.3,220c.36,8.76-2.58,17.21-2.22,26,.09,2.23,3.65,3,4.1.55,1.13-6.06,4-11.43,7.55-16.41h-3.6c3.53,4.75-.09,12,4.24,16.38,1.88,1.92,4.83-1,2.95-2.95s-1.17-6.42-1.43-9a12.61,12.61,0,0,0-2.15-6.55,2.12,2.12,0,0,0-3.6,0c-3.72,5.26-6.79,11-8,17.41l4.1.55c-.35-8.76,2.59-17.21,2.22-26-.11-2.67-4.28-2.69-4.17,0Z"/><path class="cls-2" d="M178.4,239.84c3.34-1.33,9.69-4.81,8.5-9.27-1.41-5.26-8.56-3.26-11.08-.16s-2.77,8.13-1,11.67c2.22,4.38,6.7,4,10,1.12,2-1.75-.92-4.69-2.95-2.95-1.47,1.27-2.74,1.52-3.56-.43a7.6,7.6,0,0,1,.17-6,4.08,4.08,0,0,1,2.15-2c.39-.16,2.05-.72,2.2-.19s-1.92,2-2.37,2.28a16.07,16.07,0,0,1-3.23,1.88c-2.46,1-1.39,5,1.11,4Z"/><path class="cls-2" d="M188.54,224.48c.07,6.21,1.51,12.72.63,18.91-.37,2.62,3.65,3.76,4,1.11.94-6.62-.41-13.37-.48-20,0-2.68-4.2-2.69-4.17,0Z"/><path class="cls-2" d="M193.83,235.6c-.11-3.31,3.62-6.66,6.2-8.21,2.3-1.38.2-5-2.1-3.6-3.86,2.32-8.42,7-8.26,11.81.09,2.68,4.26,2.69,4.17,0Z"/><path class="cls-2" d="M199,239.36a19.73,19.73,0,0,0,7.76-1.55c1.92-.92,4.25-3,4.16-5.32-.21-5.35-8.32-3.46-11-1.59-3.79,2.68-4.68,7.52-1.43,11s8.74,3.68,12.62,1c2.21-1.5.13-5.11-2.1-3.6-2,1.38-4.56,1.86-6.69.38-1.56-1.08-2.34-2.89-1.07-4.51a6,6,0,0,1,3.24-1.94,16.38,16.38,0,0,1,1.86-.17,2.64,2.64,0,0,1,.65.14.8.8,0,0,1-.28-.83c-.33.11-.82,1-1.2,1.27a6.6,6.6,0,0,1-2.08.86,19.4,19.4,0,0,1-4.51.62c-2.68.09-2.69,4.26,0,4.17Z"/><path class="cls-2" d="M32,126.49c0,4.47.21,8.94.12,13.4-.06,3.44-1.37,7.72-.6,11,.51,2.19,3.46,2.32,4.57.6.22-.35.34-.74.57-1.09,1.78-2.69-2.55-5.2-4.32-2.52-.23.35-.34.74-.57,1.09l4.57.6c-.29-1.24.46-3.45.56-4.7.15-1.94.2-3.88.22-5.83,0-4.19-.11-8.38-.13-12.56,0-3.22-5-3.22-5,0Z"/><path class="cls-2" d="M33.75,128.65c3.91-2.85,9-4.18,13.64-2.41,4.25,1.61,8.35,7,6.67,11.73-2.27,6.38-13.27,7.3-18.9,7.35-3.22,0-3.22,5,0,5,8.82-.08,24-2.75,24.23-14.12.37-14.89-17.84-19.4-28.16-11.88-2.57,1.88-.08,6.22,2.52,4.32Z"/><path class="cls-2" d="M73.82,123.41c-15.56,4.05-9,37.23,6.73,31.12,16.44-6.36,6.23-42-8.5-29.81-2.48,2.06,1.07,5.58,3.54,3.54,4.83-4,7.51,3.78,8.14,7.49.8,4.75.22,13.34-5.88,14.43-8.69,1.55-11.25-19.72-2.69-21.94,3.11-.81,1.79-5.63-1.33-4.82Z"/><path class="cls-2" d="M96,129.16c.19,9.17-2.14,18.17-2,27.33,0,3.21,5,3.22,5,0-.14-9.16,2.19-18.16,2-27.33-.07-3.21-5.07-3.22-5,0Z"/><path class="cls-2" d="M93.15,129.66c3.06.23,6.32-.66,9.34-.09s4.49-4.23,1.33-4.82c-3.54-.67-7.1.18-10.66-.09-3.21-.24-3.19,4.76,0,5Z"/><path class="cls-2" d="M88.49,159.66c4.75.6,9.49.84,14,2.58,3,1.16,4.3-3.67,1.33-4.82-4.92-1.9-10.16-2.1-15.33-2.76-3.18-.4-3.15,4.6,0,5Z"/><path class="cls-2" d="M111.32,127.16c-.06,10.68-1.21,21.32-1.33,32,0,3.22,5,3.22,5,0,.12-10.68,1.27-21.32,1.33-32,0-3.22-5-3.22-5,0Z"/><path class="cls-2" d="M113,127.75c6.38,11.47,13.11,22.73,19.85,34,1.07,1.78,4.07,1.55,4.57-.6,1.81-7.83,3.37-15.7,5.7-23.4,1-3.14,1.91-6.28,2.92-9.41.53-1.65,1.15-5.78,2.53-6.85l-2.43.64.36.11c3.07,1,4.39-3.85,1.33-4.82-4.86-1.54-6.44,9-7.35,11.88-3.19,10.06-5.5,20.24-7.88,30.51l4.57-.6c-6.74-11.25-13.48-22.51-19.85-34-1.56-2.81-5.88-.29-4.32,2.52Z"/><path class="cls-2" d="M181.82,117.41c-18.68-4-40.48,16.3-27.23,34.57,5.11,7,16.22,10.62,23.9,5.51,6.57-4.37,10.56-15.22,4.43-21.43-2.26-2.29-5.8,1.24-3.54,3.54,4.62,4.68-1,13.53-6.35,14.85-7.59,1.88-14.93-3.26-16.8-10.6-3.51-13.76,11.89-24.23,24.25-21.61,3.14.66,4.48-4.15,1.33-4.82Z"/><path class="cls-2" d="M169.75,144A103.81,103.81,0,0,1,180,140.07c2.31-.75,6.67-2.79,9.13-1.83,3,1.16,4.3-3.67,1.33-4.82-3.17-1.23-7.79.57-10.81,1.52a113.6,113.6,0,0,0-12.45,4.73c-2.93,1.31-.39,5.62,2.52,4.32Z"/><path class="cls-2" d="M104.74,205.66c-1,2.86-1,6.19-1.13,9.18-.11,2.33-.6,5.37.13,7.65,1,3.06,5.8,1.75,4.82-1.33,0,.16-.06-1.33-.06-1.94,0-1.46,0-2.93.11-4.39.12-2.57.11-5.39.95-7.85,1-3.05-3.79-4.37-4.82-1.33Z"/><path class="cls-2" d="M110.31,214.09c.32-.46-.08.06.31-.4s.58-.67.88-1c.72-.79,1.48-1.55,2.26-2.27a14.49,14.49,0,0,1,2-1.64c.2-.12.41-.23.6-.35s.08-.1.06,0l.2-.05a.9.9,0,0,1-1.07-.39c-.51-.3-.89-.79-.84-.47.55,3.16,5.37,1.82,4.82-1.33-.69-4-5-2.71-7.2-1.05a28.52,28.52,0,0,0-6.37,6.46c-1.83,2.66,2.51,5.16,4.32,2.52Z"/></g></g></svg>