<svg xmlns="http://www.w3.org/2000/svg" viewBox="0 0 109.91 213.59"><defs><style>.cls-1{fill:#231f20;}</style></defs><title>Asset 27</title><g id="Layer_2" data-name="Layer 2"><g id="Layer_1-2" data-name="Layer 1"><path class="cls-1" d="M10.37,41.66c.93,1.74-.12,5.33-.38,7.15-.41,2.84-.93,5.65-1.44,8.47C8,60.37,7.33,63.43,6.73,66.51c-.37,1.89-1.42,4.59-1,6.53a1.29,1.29,0,0,0,2.14.57l.46-.44c1.2-1.13-.61-2.94-1.81-1.81L6,71.79l2.14.57c-.16-.8.72-3.54.86-4.25.47-2.46,1.07-4.89,1.53-7.35s.93-5.14,1.36-7.71c.59-3.46,2.46-9.35.69-12.68-.78-1.46-3-.16-2.21,1.29Z"/><path class="cls-1" d="M4.31,41.78c4.6-.55,9.42-1.9,14-.56A1.28,1.28,0,0,0,19,38.75c-4.85-1.42-9.81-.12-14.68.47-1.62.19-1.64,2.76,0,2.56Z"/><path class="cls-1" d="M1.23,73.54A61.39,61.39,0,0,0,18,72c1.6-.38.92-2.85-.68-2.47A58.8,58.8,0,0,1,1.23,71c-1.65-.08-1.64,2.49,0,2.56Z"/><path class="cls-1" d="M18.91,46.13c-.35,2.81-1.75,5.29-1.54,8.2.12,1.63,2.68,1.65,2.56,0-.21-2.83,1.2-5.42,1.54-8.2.2-1.63-2.36-1.62-2.56,0Z"/><path class="cls-1" d="M26.64,42.72C24,51.21,23.4,60.11,22,68.84c-.25,1.61,2.21,2.31,2.47.68,1.37-8.73,2-17.63,4.61-26.12.48-1.58-2-2.26-2.47-.68Z"/><path class="cls-1" d="M33.94,41.9c-2.8,5-4.09,11.19-5.31,16.76-.78,3.57-3,10.26-.84,13.73.86,1.4,3.08.12,2.21-1.29-1.9-3.1.84-10.78,1.61-14,1.1-4.61,2.21-9.72,4.54-13.89.8-1.44-1.41-2.73-2.21-1.29Z"/><path class="cls-1" d="M44,45.11c.56,7.65,1.24,18.49-2.39,25.48-.76,1.46,1.45,2.76,2.21,1.29,3.88-7.48,3.33-18.61,2.74-26.77-.12-1.63-2.68-1.65-2.56,0Z"/><path class="cls-1" d="M51.81,48.1c-2.85,2.12-9,6.21-8.32,10.38.32,2.06,2.27,4.25,3.44,5.84,1.45,2,3,3.93,4.61,5.76,1.1,1.23,2.91-.59,1.81-1.81a46.79,46.79,0,0,1-6.57-8.71c-1.23-2.3-.11-3.36,1.65-5.18a38.88,38.88,0,0,1,4.65-4.07c1.31-1,0-3.2-1.29-2.21Z"/><path class="cls-1" d="M55.27,52.79c0,3.92-.2,7.83-.36,11.75-.08,1.86-1.08,5.32.75,6.52a1.29,1.29,0,0,0,1.88-.77,2.27,2.27,0,0,1,.25-.77c.63-1.52-1.85-2.19-2.47-.68a2.27,2.27,0,0,0-.25.77L57,68.85c.41.27.45-2.6.47-3,.06-1.51.13-3,.19-4.54.12-2.83.21-5.67.22-8.5a1.28,1.28,0,0,0-2.56,0Z"/><path class="cls-1" d="M55.83,52.62c1.23,5.6,2.28,11.29,5.66,16.06.57.8,2.13.88,2.34-.31,1-5.45,1.42-11,2.43-16.42.5-2.71,2.14-6.1,2.11-8.82A1.29,1.29,0,0,0,66,42.48l-.29.45c-.91,1.38,1.31,2.67,2.21,1.29l.29-.45-2.39-.65a12,12,0,0,1-.89,2.77,70.19,70.19,0,0,0-1.4,6.92c-.84,4.94-1.27,9.94-2.16,14.88l2.34-.31c-3.25-4.58-4.22-10.07-5.4-15.44-.35-1.61-2.82-.93-2.47.68Z"/><path class="cls-1" d="M71.53,51.37c-2.35,2.36-3.09,6-2.77,9.27.26,2.59,1.46,6.09,4.59,6.15,3.49.07,6.6-3.87,7.11-7a8.85,8.85,0,0,0-3.83-8.57c-3.47-2.26-6.78-.37-8,3.3-.52,1.57,2,2.24,2.47.68,1-3.09,3.62-2.92,5.49-.58a6,6,0,0,1-.92,8.48c-2.37,2-3.84.74-4.3-2s0-5.94,2-7.9a1.28,1.28,0,0,0-1.81-1.81Z"/><path class="cls-1" d="M80.89,50.23a38.82,38.82,0,0,0,3.73,16.91,1.3,1.3,0,0,0,2.21,0c2.35-3.2,3.61-7,4.78-10.79L89.09,56c.26,3.41,1,6.8,3.44,9.36a1.3,1.3,0,0,0,2-.26c3.39-5.24,4.93-11.38,7.3-17.09.63-1.52-1.85-2.18-2.47-.68-2.28,5.51-3.77,11.43-7,16.48l2-.26c-1.91-2-2.48-4.85-2.69-7.54a1.29,1.29,0,0,0-2.52-.34c-1.11,3.56-2.29,7.15-4.52,10.18h2.21a36.13,36.13,0,0,1-3.38-15.62,1.28,1.28,0,0,0-2.56,0Z"/><path class="cls-1" d="M27,81.14a2.06,2.06,0,0,0-.73-1c-.87-.65-1.83.26-1.93,1.11-.18,1.61.44,3.53.69,5.11a36.49,36.49,0,0,0,2.31,9.11c.41.94,1.75.73,2.21,0,1.69-2.65,2.09-5.85,2.67-8.88l-2.34.31c1.63,3.28,3.07,6.64,5.62,9.33a1.29,1.29,0,0,0,2.14-.57c.8-3,2.24-5.81,3.07-8.82a14.75,14.75,0,0,0,.44-2.32,6.76,6.76,0,0,0,.14-1.41,3.16,3.16,0,0,1,.1-.67q.28-.8-.9.19c1.38.91,2.66-1.31,1.29-2.21-1.91-1.26-2.8.71-3,2.33-.59,4.32-2.47,8-3.59,12.24l2.14-.57c-2.38-2.51-3.69-5.75-5.22-8.81a1.29,1.29,0,0,0-2.34.31c-.53,2.8-.85,5.82-2.41,8.27h2.21a34.3,34.3,0,0,1-2.05-8.5,17.78,17.78,0,0,1-.6-4.43L25,82.31l-.44-.49c.6,1.51,3.08.85,2.47-.68Z"/><path class="cls-1" d="M47.55,73.28c-.7,7.38-1.3,14.79-2.91,22l2.52.34c-.2-2.71,1.13-11.08,4.77-9.45,2.93,1.31,1.85,7.1,2.84,9.94.54,1.55,3,.88,2.47-.68-1.23-3.5.08-13.2-6-12.68-5.17.44-6.92,8.78-6.63,12.86.1,1.36,2.18,1.83,2.52.34,1.66-7.48,2.28-15.11,3-22.72.16-1.64-2.41-1.63-2.56,0Z"/><path class="cls-1" d="M63.31,81.56c2.27-1.75,4-2.75,4.53.64.45,3.13,0,6.4,0,9.56,0,2-.25,5.29,1.53,6.73,2.39,1.94,5.45-1.22,7-2.79a1.28,1.28,0,0,0-1.81-1.81c-1.47,1.48-3.55,4.17-4,1.1s0-6.29,0-9.34c0-2.3.16-5.59-1.56-7.4-2.07-2.19-5.09-.35-7,1.1-1.29,1,0,3.22,1.29,2.21Z"/><path class="cls-1" d="M68.69,87.23c-6.12-5.47-10.46,7.17-5.07,8.42,2.09.48,4.15-1.22,5.58-2.51,1.23-1.11-.59-2.91-1.81-1.81a10.56,10.56,0,0,1-2,1.47L65,93c.22-.1-.07,0-.15,0l-.37.1c-.27.07.2,0-.12,0-.06,0-.36,0-.13,0s-.09,0-.14-.05.28.09,0,0,.21.14,0,0,0,0,0,0a1.32,1.32,0,0,0-.13-.21c-.19-.21,0,.12,0,0l-.1-.33s-.08-.41,0-.18,0-.1,0-.16c0-.25,0-.49,0-.74s0-.21,0-.31c0,.36,0,0,0-.11s.11-.48.18-.72.08-.23.12-.35c.11-.33,0,0,0-.12a6.74,6.74,0,0,1,.34-.63l.2-.28c-.17.22,0,0,.07-.06l.2-.2c.18-.18-.19.09.09-.07l.3-.17c-.17.09-.07.1.09,0s-.06,0,0,0,.52.05.14,0l.34.08c.33.08-.07-.07.18.07l.41.25a2.15,2.15,0,0,1,.3.25c1.23,1.1,3-.71,1.81-1.81Z"/><path class="cls-1" d="M76,87.88c7.06.31,14-2,21-1.54,1.64.12,1.64-2.44,0-2.56-7-.51-13.95,1.85-21,1.54-1.65-.07-1.64,2.49,0,2.56Z"/><path class="cls-1" d="M83.46,71.92c-2.21,6.64-6.48,16.18-3.4,23.2,2.17,5,7.47,3.07,11.63,2.45,1.62-.24.93-2.71-.68-2.47s-3.55,1-5.19.86c-4-.24-4.13-3.8-4-7,.17-5.6,2.39-11.11,4.14-16.36.52-1.57-2-2.24-2.47-.68Z"/><path class="cls-1" d="M14.95,96.2c-2,4.39-2.43,9-2.82,13.79-.51,6.16-2.1,12.28-2,18.47a1.28,1.28,0,0,0,2.56,0v-1.39a1.28,1.28,0,0,0-2.56,0v1.39h2.56c-.11-5.24,1.24-10.33,1.73-15.53s.53-10.57,2.7-15.44c.67-1.49-1.54-2.8-2.21-1.29Z"/><path class="cls-1" d="M3.76,130.91c7.46-.55,15.12-.53,22.37-2.61a1.28,1.28,0,0,0-.68-2.47c-7,2-14.46,2-21.69,2.52-1.63.12-1.65,2.68,0,2.56Z"/><path class="cls-1" d="M7.35,99.15c5.05-.2,10.24,1.6,15.19,0,1.56-.52.89-3-.68-2.47-4.69,1.55-9.72-.24-14.51,0-1.64.07-1.65,2.63,0,2.56Z"/><path class="cls-1" d="M29.63,109.14c-.42,5.68,1.67,11.89,3.87,17,.41,1,1.73.7,2.21,0,2.35-3.4,2.75-7.78,3.25-11.78l-2.52.34c1.41,4.12,1.52,8.62,4.13,12.25a1.3,1.3,0,0,0,2.34-.31c2.11-5.32,1.47-12.22,5-16.89,1-1.32-1.23-2.6-2.21-1.29-3.68,4.9-3,12-5.24,17.51l2.34-.31c-2.46-3.43-2.53-7.75-3.87-11.64a1.29,1.29,0,0,0-2.52.34c-.44,3.54-.82,7.47-2.9,10.49h2.21c-2-4.73-3.91-10.54-3.52-15.74.12-1.64-2.44-1.64-2.56,0Z"/><path class="cls-1" d="M51.74,104.74c4.76-1.67,1.38,14.46,1.27,16.8-.26,5.74,6.31,10,8.84,3.31.59-1.54-1.89-2.21-2.47-.68q-3.72,1.94-3.65-.93a3.59,3.59,0,0,1-.17-1.7,25.27,25.27,0,0,1,.49-3.46c.12-.84.24-1.68.36-2.52a40.3,40.3,0,0,0,.48-7.35c-.19-3.51-1.62-7.4-5.84-5.93-1.55.54-.88,3,.68,2.47Z"/><path class="cls-1" d="M54.86,115.4c-5.49-5.67-10.49,7.24-5.1,8.47,2.1.48,4.18-1.29,5.61-2.56,1.23-1.1-.58-2.9-1.81-1.81a11.48,11.48,0,0,1-2,1.48l-.44.23c-.23.11,0,0,0,0l-.19.07-.36.1c-.08,0-.24,0,.09,0,0,0-.18,0-.2,0s-.37.14,0,0a.63.63,0,0,1-.26-.07c.55.2,0,0,0,0s.25.14,0,0,.11.21,0,0c0,0-.17-.34-.07-.11s0,0,0-.11-.06-.24-.08-.36,0,.3,0,0c0-.11,0-.22,0-.33a6.29,6.29,0,0,1,0-.73c0,.35.06-.28.09-.42a7.32,7.32,0,0,1,.22-.76l.13-.35c-.11.27,0,0,.06-.11s.23-.42.35-.62.23-.31.05-.09l.22-.25.23-.23c.21-.23-.13.06.08-.06l.29-.17c.16-.09-.26.16.07,0s0,0,0,0,.42,0,.2,0,.15.05.21.07.19.1-.07,0l.2.11c.07,0,.4.29.18.11a5,5,0,0,1,.41.38c1.15,1.19,3-.63,1.81-1.81Z"/><path class="cls-1" d="M63,105.21a55.34,55.34,0,0,0-1.59,14.05c0,1.41,2.26,1.79,2.52.34a15,15,0,0,1,6.64-9.72l-1.75-.46c2.57,4.9-1.2,10.89,1.49,15.72.8,1.44,3,.15,2.21-1.29-1.37-2.46-.36-6.12-.26-8.81A13.29,13.29,0,0,0,71,108.13a1.29,1.29,0,0,0-1.75-.46,17.49,17.49,0,0,0-7.82,11.25l2.52.34a52.72,52.72,0,0,1,1.5-13.37,1.28,1.28,0,0,0-2.47-.68Z"/><path class="cls-1" d="M76.32,116.52c7.58-2.6,16.14.54,23.56-2.56,1.5-.63.84-3.11-.68-2.47-7.37,3.09-16,0-23.56,2.56-1.55.53-.88,3,.68,2.47Z"/><path class="cls-1" d="M82.9,103.5c-.54,6.69-4.8,18,.86,23.58,3.86,3.79,9.39,1.95,12.28-1.93,1-1.32-1.24-2.6-2.21-1.29-1.54,2.07-4,3.4-6.6,2.42-3-1.12-3.44-4.32-3.53-7.12-.18-5.24,1.34-10.45,1.76-15.66.13-1.64-2.43-1.63-2.56,0Z"/><path class="cls-1" d="M32.7,136.28c0,3.37.36,6.63,2.55,9.32a1.29,1.29,0,0,0,2-.26c1.27-1.81,2.05-3.89,3.34-5.69H38.4c1,2.37,1.95,4.57,4.19,6a1.31,1.31,0,0,0,1.75-.46c1.95-2.64,2.73-6,3.69-9.08.49-1.58-2-2.25-2.47-.68-.9,2.88-1.61,6-3.43,8.47l1.75-.46c-1.8-1.16-2.46-3.22-3.27-5.09-.42-1-1.72-.68-2.21,0-1.29,1.8-2.07,3.88-3.34,5.69l2-.26c-1.7-2.09-1.81-4.93-1.8-7.51a1.28,1.28,0,0,0-2.56,0Z"/><path class="cls-1" d="M51.65,132.19c0,4.29.55,8.63-.49,12.85l2.47.68c.69-2.89,1.63-5.72,3.78-7.87l-1.55.2c2,1.42,2.15,4.15,3,6.26.61,1.51,3.09.85,2.47-.68-1.21-3-1.43-5.81-4.19-7.79a1.29,1.29,0,0,0-1.55.2c-2.46,2.46-3.64,5.67-4.44,9-.38,1.6,2.08,2.28,2.47.68,1.1-4.46.62-9,.58-13.53a1.28,1.28,0,0,0-2.56,0Z"/><path class="cls-1" d="M66.08,141.62c2.72-.74,5.52-2.42,6-5.44a1.34,1.34,0,0,0-.59-1.45c-4-2.29-6.72,3.27-7,6.43-.18,1.69.17,3.68,1.78,4.59,2.23,1.26,5-.45,6.85-1.7,1.34-.93.07-3.16-1.29-2.21a11.09,11.09,0,0,1-2.91,1.6,2.53,2.53,0,0,1-1.35.1c-.22-.1-.34-.28-.46-.71a4.31,4.31,0,0,1-.06-1.59,7.38,7.38,0,0,1,1.4-3.54,2.54,2.54,0,0,1,1.07-.89.83.83,0,0,1,.74.13l-.59-1.45c-.32,2.15-2.26,3.13-4.19,3.65a1.28,1.28,0,0,0,.68,2.47Z"/><path class="cls-1" d="M75.26,133.38c-1.09,3.18-.68,6.63-.46,9.92.08,1.15,1.8,1.89,2.39.65,1.25-2.69,2.41-6,5.08-7.55l-1.55-.2c1.59,2,1.25,4.7,3.07,6.63,1.13,1.2,2.94-.61,1.81-1.81-1-1-1.08-2.37-1.48-3.66a8.61,8.61,0,0,0-1.58-3,1.29,1.29,0,0,0-1.55-.2c-3.12,1.87-4.53,5.32-6,8.47l2.39.65c-.21-3.05-.64-6.28.36-9.24.53-1.56-1.94-2.23-2.47-.68Z"/><path class="cls-1" d="M19.38,147v18.44a1.28,1.28,0,0,0,2.56,0V147a1.28,1.28,0,0,0-2.56,0Z"/><path class="cls-1" d="M15.88,167.23c4.21-1.27,8.63-1.11,13-1.49,1.63-.14,1.64-2.7,0-2.56-4.57.4-9.22.25-13.66,1.58a1.28,1.28,0,0,0,.68,2.47Z"/><path class="cls-1" d="M15.88,148.28a24.9,24.9,0,0,1,11.1.51,1.28,1.28,0,0,0,.68-2.47,27.61,27.61,0,0,0-12.46-.51c-1.6.38-.93,2.85.68,2.47Z"/><path class="cls-1" d="M48.15,154.51c-2.89-1-8-1.48-9.67,1.73-2,3.66,1.81,5,4.61,5.68,1.67.4,5.87,2.64,2.55,3.87-1.5.56-5.8,1-6.32-1.17-.39-1.6-2.86-.92-2.47.68,1.15,4.74,12,4.88,12.68-.16.45-3.32-3.52-5.17-6.11-5.77-1.07-.25-4.38-.84-2.2-2.45,1.56-1.15,4.6-.49,6.25.06s2.24-1.94.68-2.47Z"/><path class="cls-1" d="M54,163.18c3.55.1,10.12-.16,10.73-4.77.63-4.77-6.33-5.83-9.45-4.09a8.17,8.17,0,0,0-3.45,9.8c1.39,4,5.32,5.43,9.17,4.13,1.55-.52.89-3-.68-2.47-2.52.85-5,.32-6-2.34a5.79,5.79,0,0,1,1.11-6,4.76,4.76,0,0,1,4.24-1.31c1.28.22,3.16,1,2.32,2.63-1.11,2.12-5.94,2-8,1.9a1.28,1.28,0,0,0,0,2.56Z"/><path class="cls-1" d="M68.3,161.64c3.63-.19,9.85-1.44,9.67-6.18s-6.42-3.9-8.89-1.77c-3.23,2.79-3.16,7.83-1,11.25s6.15,4.35,8.8.93c1-1.29-.8-3.11-1.81-1.81-1.6,2.07-3.4,1.69-4.77-.41s-1.77-5-.34-7.13c.81-1.19,5.57-3.53,5.44-.66-.12,2.55-5.24,3.12-7.11,3.22-1.64.08-1.65,2.65,0,2.56Z"/><path class="cls-1" d="M87.68,152.54c-1.64,3.69-.73,8-.69,11.92a1.28,1.28,0,0,0,2.56,0c0-3.3-1.05-7.5.34-10.62.66-1.49-1.54-2.8-2.21-1.29Z"/><path class="cls-1" d="M88,147v1.54a1.28,1.28,0,0,0,2.56,0V147A1.28,1.28,0,0,0,88,147Z"/><path class="cls-1" d="M96.73,133.21c.15,8.87-3.14,19.54.06,28.08,2.11,5.65,6.16,3.63,9-.29,1-1.34-1.26-2.62-2.21-1.29-5,6.87-5.38-5.18-5.2-8.34.33-6.07,1-12.08.93-18.17a1.28,1.28,0,0,0-2.56,0Z"/><path class="cls-1" d="M92,143.67c3.25,1.09,6.72.51,10.07.56a1.28,1.28,0,0,0,0-2.56c-3.12,0-6.37.54-9.39-.47-1.57-.52-2.24,1.95-.68,2.47Z"/><path d="M28.25,185.85c13.93-6.77,28.14-7.43,43.33-7.67,7-.11,14.47-.37,21.3,1.52,3.42.95,3.24,1.58.83,3.85a29.15,29.15,0,0,1-5.39,3.78C76.81,194,63.4,193,50.66,191.8c-3.31-.32-20.51-.87-20.65-5.47-.1-3.21-5.1-3.22-5,0,.23,7.85,12.45,8.95,18.14,9.69,11.51,1.5,23.63,2.89,35.08.49a42.61,42.61,0,0,0,14.38-5.94c3-1.92,7.19-4.68,8-8.42,2.27-10.29-20.45-9-25.74-9-17.2.09-33.41.73-49.17,8.39-2.89,1.41-.36,5.72,2.52,4.32Z"/><path d="M54.85,178.22c-3.54,4.75-2.9,11.38.39,16.09,2.84,4.06,8.33,7,12.71,3.32,4.15-3.51,5-10.46,4.15-15.53-.46-2.58-1.74-5.24-4.38-6.15a6.24,6.24,0,0,0-6.95,2.16c-3.18,3.81-4.73,12-.66,15.68,3.33,3.05,7.6,1.78,9-2.38a14.6,14.6,0,0,0-.74-11c-2.32-4.18-6.73-3-9.26.26-3.5,4.55-.41,16.6,6.83,12.56,5-2.81,3.42-13.18-2.39-14.05a2.6,2.6,0,0,0-2.82,1.15c-1.9,3.45-2.29,6.78-.63,10.39,1.34,2.92,5.65.38,4.32-2.52-.86-1.88-.31-3.63.63-5.34L62.24,184c1.85.28,2,4.87,1.26,4.87-1,0-1.08-2.9-1-3.45.13-1.42,1.29-1.7,1.67-2.77,0-.14-.26-.27-.25-.05s.57,1.35.71,2.07a10,10,0,0,1-.29,5.38,4.06,4.06,0,0,0-.35.64c0-.06.11,0,.06-.09.1.12.32.08.18-.07-.35-.35-.75-.4-1-.85-1.25-2-.16-7.13,1.62-8.61,2.45-2,2.62,3.31,2.6,4.67,0,2.48-.45,6.72-2.8,8.18s-4.67-1.46-5.69-3.23a8.82,8.82,0,0,1,.29-10c1.92-2.58-2.41-5.08-4.32-2.52Z"/><path d="M13.5,27.86c10.65-7.92,24.41-10.06,37.41-9.79,12.22.25,26.48.56,36.91,7.66L86.67,22.9c-2.26,9.53-19.61,9.5-27.14,9.64-15.74.28-30.24-4.41-45-9.25-3.07-1-4.38,3.82-1.33,4.82,16.6,5.43,32.77,10.26,50.4,9.29,9.35-.52,25.26-1.91,27.94-13.16a2.59,2.59,0,0,0-1.15-2.82C79.19,13.82,64,13.32,50.91,13.06,37.12,12.79,22.27,15.14,11,23.54c-2.55,1.9-.06,6.24,2.52,4.32Z"/><path d="M54.51,20.65C46.62,18.1,42.25,31,50.19,33.28c7.66,2.18,13.87-7.94,9.73-14.23-2.31-3.52-6.92-2.92-10-.77a8.28,8.28,0,0,0-2.49,11c2,3.6,6.47,5.19,10.09,2.91,2.92-1.84,5.58-6.05,3.65-9.45-1.6-2.81-5.45-3.8-8.45-3.24-3.64.68-5.28,4.15-3.17,7.3a2.59,2.59,0,0,0,3.42.9h-.2c3.19-.25,3.21-5.25,0-5a6.74,6.74,0,0,0-2.33.69l3.42.9c-.52-.78-.31-.45-.39-.17s-.3.35-.31.43c0,.38-.08-.22.07,0a1.87,1.87,0,0,1,.56-.15,11,11,0,0,0,1.15,0,3.82,3.82,0,0,1,1.63.58,1.07,1.07,0,0,1,.27.28.7.7,0,0,1-.06.34,4.27,4.27,0,0,1-.6,1.09c-1,1.35-2.43,2.28-3.8.94a3.4,3.4,0,0,1-.56-4.29,4.69,4.69,0,0,1,2.61-1.69,1.7,1.7,0,0,1,1.09,0c1.74,1.38.12,6-2.15,6.79-1.64.56-2.56.05-2.44-1.22s.9-2.09,2.23-1.66c3.07,1,4.38-3.83,1.33-4.82Z"/><path d="M50.11,21.28c-1.21,2.7-1.91,5.49-.17,8.14a2.55,2.55,0,0,0,2.82,1.15,7.87,7.87,0,0,0,4.81-4.41A10,10,0,0,0,58.33,23a3.56,3.56,0,0,0-1.25-3.22,2.58,2.58,0,0,0-3-.39,6.42,6.42,0,0,0-2.94,9.14,2.57,2.57,0,0,0,2.82,1.15c5.14-1.26,7.78-10.58,1.49-12.18a5.64,5.64,0,0,0-6.79,4,5.67,5.67,0,0,0,3.49,7.13,2.52,2.52,0,0,0,3.08-1.75,2.56,2.56,0,0,0-1.75-3.08c-.15-.06-.12-.68,0-1,.24-.64.56-.45.73-.54-.12.06,0-.39,0,0a2.88,2.88,0,0,1-.25,1.25,2.2,2.2,0,0,1-1.27,1.29L55.43,26c-.67-1.11.14-1.81,1.15-2.3l-3-.39a5.06,5.06,0,0,0,.56.52l-.73-1.77c0,1.46-.41,3.11-1.94,3.67l2.82,1.15c-.69-1.05-.33-2,.17-3.1a2.58,2.58,0,0,0-.9-3.42,2.52,2.52,0,0,0-3.42.9Z"/><path d="M15.61,14.16C37.56,3.53,61.94,1.85,84.78,10.73c3,1.17,4.3-3.67,1.33-4.82C62-3.46,36.18-1.35,13.08,9.85c-2.9,1.4-.36,5.72,2.52,4.32Z"/><path d="M13.68,200.85c17,4.57,33.23,13.64,51.29,12.67a76.58,76.58,0,0,0,24.88-5.32c6.62-2.79,11.73-8.46,18.38-11,3-1.15,1.68-6-1.33-4.82-6,2.33-10.77,7-16.4,10-7.39,4-17.25,5.72-25.52,6.17-17.56.94-33.45-8.05-50-12.49-3.11-.84-4.44,4-1.33,4.82Z"/></g></g></svg>