<svg xmlns="http://www.w3.org/2000/svg" viewBox="0 0 125.58 123.66"><defs><style>.cls-1{fill:#231f20;}</style></defs><title>Asset 26</title><g id="Layer_2" data-name="Layer 2"><g id="Layer_1-2" data-name="Layer 1"><path class="cls-1" d="M53.84,1.85c-14.47-8.78-19,23.3-20.55,31.25-1,4.87-1.47,10-3.06,14.73C28.73,52.29,25.08,57.26,19.6,56c-2-.46-3.83-2-5.32-3.33-2-1.7-3.2-2.67-1.59-5.18,1.07-1.66,3.75-3.77,5.77-4,1.67-.21,1.16-.59,1.91,1,.91,2-1,4,.43,5.84,2.38,3.09,5.82,0,7.3-2.16,4.42-6.37,4.9-15.14,6.39-22.52,1.27-6.34,5.56-25.25,15.35-23C51.43,3,52.1.57,50.52.21,43.81-1.31,38.87,5.67,36.34,11c-4.46,9.35-4.63,19.87-7.56,29.66-.62,2.08-1.34,4.69-2.84,6.31-1,1.1-1.79,2.41-2.85.58.08.15.14-2,.15-1.61,0-1.49-.55-4.31-2-5.13-1.79-1-4.65.68-6.2,1.52A13.08,13.08,0,0,0,8.67,50,1.24,1.24,0,0,0,9,51.26c5.73,5.16,12.51,11.13,19.67,4.22,5.44-5.25,5.61-14.46,7-21.42C37,27.59,41.21-2.87,52.57,4a1.26,1.26,0,0,0,1.27-2.18Z"/><path class="cls-1" d="M33.21,14.33c-.26.08.16,0,0,0l-.22,0a1.81,1.81,0,0,0-.58,0,1.38,1.38,0,0,0-.75,2,2.82,2.82,0,0,0,1.56,1.21,13.39,13.39,0,0,0,2,.68,1.26,1.26,0,0,0,.67-2.43,9.29,9.29,0,0,1-2.32-.89l.45.45-.13-.2q-.16-.28.09.39l-.37.89,0,0-.56.32c-.1,0-.35,0-.13,0l.22,0a2,2,0,0,0,.71-.09,1.29,1.29,0,0,0,.88-1.55,1.27,1.27,0,0,0-1.55-.88Z"/><path class="cls-1" d="M30.39,24.19a3.43,3.43,0,0,0,2.14.71,1.6,1.6,0,0,0,1.22-2.14,1.26,1.26,0,1,0-2.43.67c0-.11.92-1.19,1.13-1,0,0-.3-.11-.17-.06s-.22-.12-.22-.12l-.4-.23c-1.39-.85-2.66,1.33-1.27,2.18Z"/><path class="cls-1" d="M31.9,29.58c.25-.11-.22,0-.31.06s-.11,0,0,0l-.24,0a3,3,0,0,0-1.18.3c-1.06.59-1,1.87-.8,2.89a1.24,1.24,0,0,0,.88.88,1.49,1.49,0,0,0,2-.89,1.51,1.51,0,0,0,0-.85c0-.14-.12-.28-.18-.42q.12.3.05.12-.21-.78-.74,1.2a1.29,1.29,0,0,0,.88-1.55,1.27,1.27,0,0,0-1.55-.88,1.49,1.49,0,0,0-1.09,1.45,1.69,1.69,0,0,0,.12.57c0-.1.28.76.08.18.06.16,0,.16,0-.15l.17-.64.16-.2.56-.32c.09,0,.55,0,.28,0l.88.88s0-.26,0-.37,0-.14,0-.21,0,.24,0,.09a.82.82,0,0,1-.2.34s-.26.17-.12.1l-.13.06s.26-.08,0,0,.1,0,.18,0l.59-.08a4.23,4.23,0,0,0,1-.33A1.27,1.27,0,0,0,33.63,30a1.29,1.29,0,0,0-1.72-.45Z"/><path class="cls-1" d="M11.79,46.66a10.54,10.54,0,0,0-1.71,3.17c-.43,1.25,1.24,2,2.11,1.23a21,21,0,0,0,4.13-5.14c.69-1.22-1-2.61-2-1.53a14.84,14.84,0,0,0-3.76,6c-.39,1.32,1.19,1.94,2.11,1.23a24.55,24.55,0,0,0,6.25-7.41c.83-1.45-1.22-2.53-2.18-1.27a32.14,32.14,0,0,0-5.55,10,1.27,1.27,0,0,0,2.3,1c1.81-2.78,3.56-5.58,5.57-8.22L16.9,44.4c-1.7,3.58-3.65,6.84-4.17,10.82-.17,1.28,1.78,1.66,2.35.64,1.77-3.22,3.92-6.2,5.73-9.4l-2.18-1.27c-1.84,3.68-3.49,7.15-3.91,11.28a1.27,1.27,0,0,0,1.9,1.09c2.72-1.92,3.42-5.06,4.44-8.07l-2.43-.67a44.72,44.72,0,0,1-1.87,6.66A1.27,1.27,0,0,0,18.31,57c3-1.17,3.92-3.82,5.56-6.44L21.7,49.32A26.62,26.62,0,0,0,19.89,54a1.27,1.27,0,0,0,1.85,1.42c2-1.3,2.7-3.16,4.17-5l-2.11-1.23c-.59,1.49-1,3-1.41,4.56A1.27,1.27,0,0,0,24.51,55a30.58,30.58,0,0,0,5.17-7L27.5,46.75a31.09,31.09,0,0,0-2.68,6.64,1.27,1.27,0,0,0,2.11,1.23c3.39-3.28,3.69-8.08,6-12l-2.3-1c-.7,1.71-1.41,3.36-2.23,5-.72,1.45,1.46,2.73,2.18,1.27.91-1.84,1.71-3.72,2.49-5.62.55-1.35-1.59-2.16-2.3-1C28.6,45,28.28,49.79,25.15,52.83l2.11,1.23a28.41,28.41,0,0,1,2.42-6,1.26,1.26,0,0,0-2.18-1.27,28.16,28.16,0,0,1-4.77,6.5l2.11,1.23c.44-1.54.82-3.07,1.41-4.56a1.27,1.27,0,0,0-2.11-1.23C23,50.13,22,52.21,20.47,53.25l1.85,1.42a22.63,22.63,0,0,1,1.55-4.08,1.26,1.26,0,0,0-2.18-1.27c-1.07,1.72-2,4.49-4.06,5.28l1.55,1.55a44.65,44.65,0,0,0,1.87-6.66,1.26,1.26,0,0,0-2.43-.67C17.89,51,17.35,54,15.35,55.38l1.9,1.09c.37-3.64,2-6.78,3.57-10,.72-1.44-1.37-2.7-2.18-1.27-1.81,3.19-4,6.18-5.73,9.4l2.35.64c.46-3.47,2.36-6.45,3.83-9.55A1.26,1.26,0,0,0,16.9,44.4c-2,2.64-3.76,5.45-5.57,8.22l2.3,1a30.13,30.13,0,0,1,5.3-9.43L16.77,42.9a22.92,22.92,0,0,1-5.86,6.9L13,51a12.22,12.22,0,0,1,3.11-4.84l-2-1.53a19,19,0,0,1-3.74,4.63l2.11,1.23A7.28,7.28,0,0,1,14,47.94c1-1.3-1.21-2.56-2.18-1.27Z"/><path class="cls-1" d="M48.37,23.94c1.19-2.95,5.13-9,8.91-8.93,4.76.08.94,9.69,0,12.31-2.19,6-7.58,16.76-1.82,22.26a1.29,1.29,0,0,0,1.53.2,12.67,12.67,0,0,0,6-8.19,1.26,1.26,0,0,0-2.43-.67c-.44,1.67-2.66,7.08-4.48,5.32-1-.94-.53-3.72-.39-4.9a46,46,0,0,1,2.79-10.07c1.67-4.63,4.91-10.8,3.17-15.85-3.19-9.26-14.14,4-15.71,7.86-.61,1.5,1.83,2.16,2.43.67Z"/><path class="cls-1" d="M55.94,36c.79-2.68,2.32-9.48-1.62-10.44s-6.73,4.88-7.94,7.67c-1.49,3.44-2.74,9,.36,12,3.75,3.59,8-1.92,9.57-4.92.75-1.44-1.43-2.71-2.18-1.27-.84,1.6-4.23,7.12-6.15,3.66-1.42-2.57-.33-6.21.77-8.7.56-1.26,2.8-6.41,4.7-6s.43,6,0,7.32a1.26,1.26,0,0,0,2.43.67Z"/><path class="cls-1" d="M65.14,23.81c5.54-1.73,11-3.71,16.64-5l-1.42-1.85c-2.68,5.53-6.5,10.34-9.56,15.65a100.63,100.63,0,0,0-7.19,16.82A1.27,1.27,0,0,0,64.83,51a43,43,0,0,0,21.78-6.65c1.34-.9.08-3.08-1.27-2.18a41,41,0,0,1-20.51,6.3L66,50.08c2.14-6.06,4.44-12.17,7.8-17.67,2.9-4.75,6.25-9.17,8.69-14.2a1.28,1.28,0,0,0-1.42-1.85c-5.66,1.32-11.11,3.3-16.64,5-1.54.48-.88,2.92.67,2.43Z"/><path class="cls-1" d="M74.71,10.71A85.53,85.53,0,0,1,85.57,8.53c3.92-.46,10.34-1,8.06,4.66-2.91,7.25-8.7,13.47-13.45,19.56a1.27,1.27,0,0,0,1.23,2.11c7.85-1.56,15.22-5.1,22.34-8.66,1.45-.73.18-2.9-1.27-2.18-6.94,3.47-14.08,6.88-21.73,8.4L82,34.54c3-3.91,6.17-7.75,9-11.83,2.24-3.24,6.53-8.53,5.93-12.85C95.76,1.74,78.63,7.13,74,8.28a1.26,1.26,0,0,0,.67,2.43Z"/><path class="cls-1" d="M35.64,63.06c.91-1.24,4.73-1.72,6.09-2.06,2.23-.55,4.49-1,6.76-1.4,1.6-.25.92-2.68-.67-2.43a75.88,75.88,0,0,0-8.62,1.88c-1.88.53-4.51,1-5.74,2.73-1,1.31,1.23,2.57,2.18,1.27Z"/><path class="cls-1" d="M39.39,60.74c1.81,8,1.42,16.36,4.53,24,2.19,5.42,7.65,11.38,14.17,9.28,6-1.93,8.52-9.77,9.84-15.2,1.52-6.21,2.79-14.09.6-20.3-.53-1.52-3-.87-2.43.67,1.77,5,.93,11.32,0,16.41s-2.89,13.84-8.47,15.91C50,94.37,45.9,84,44.65,78.47c-1.37-6.07-1.45-12.34-2.83-18.4-.36-1.58-2.79-.91-2.43.67Z"/><path class="cls-1" d="M60.77,59.65a59.32,59.32,0,0,0,11.43-2.06c1.54-.48.88-2.91-.67-2.43a55.79,55.79,0,0,1-10.76,2c-1.6.17-1.61,2.69,0,2.52Z"/><path class="cls-1" d="M78.92,56.63c5.59-.58,17.95-6,18.26,3.66.13,4.07-3.27,6.11-6.74,7.16a29.35,29.35,0,0,1-5.19,1c-.89.1-3.72.72-4.52.24v2.18c.24-.12.58-.16.84-.3,1.43-.77.16-2.95-1.27-2.18-.24.13-.58.17-.84.3a1.27,1.27,0,0,0,0,2.18c2.83,1.69,9.89-.32,12.78-1.36,3.7-1.33,7-3.87,7.44-8s-1.71-8.3-6-9.22c-4.94-1.06-9.91,1.35-14.76,1.85-1.6.16-1.61,2.69,0,2.52Z"/><path class="cls-1" d="M81.23,55.2c1.12,7.7,2.37,15.32,1.63,23.09-.41,4.27-1.76,10,.51,14A1.26,1.26,0,0,0,85.55,91c-2.42-4.24-.1-11.58.13-16.18.33-6.75-1-13.66-2-20.32-.23-1.6-2.66-.92-2.43.67Z"/><path class="cls-1" d="M79.42,94.43a21.06,21.06,0,0,0,7.9-1.05c1.54-.49.88-2.93-.67-2.43a19.11,19.11,0,0,1-7.23,1c-1.62-.11-1.61,2.41,0,2.52Z"/><path class="cls-1" d="M26.88,100.62c1-.86,3.93-2.67,4.32.66.07.58-.69,1.6-.94,2.09-.49,1-1,2-1.48,3-.91,1.82-2.3,4-2.25,6.11a3.75,3.75,0,0,0,3.21,3.63c2.07.29,3.73-1.08,4.9-2.61,1-1.29-1.2-2.54-2.18-1.27q-.83,1.74-2.27.66-1.63.06-1-1.2a4.75,4.75,0,0,1,.57-1.6c.46-1.09,1.06-2.11,1.57-3.17.87-1.79,2.4-3.89,2.46-5.95.16-5.23-5.94-4.49-8.69-2.1-1.23,1.07.56,2.84,1.78,1.78Z"/><path class="cls-1" d="M28.34,105.06a4.7,4.7,0,0,0-5.87,5,3.75,3.75,0,0,0,2.28,3.31c1.67.64,3.47-.08,4.9-1s.11-3-1.27-2.18a5.64,5.64,0,0,1-1.82.83,1.57,1.57,0,0,1-1,0,1.19,1.19,0,0,1-.36-.33,2.08,2.08,0,0,1-.25-.74,2.2,2.2,0,0,1,2.69-2.45c1.59.26,2.27-2.17.67-2.43Z"/><path class="cls-1" d="M50.44,100.73c-.38,5.83-4.36,12.35-2.95,18.22a1.27,1.27,0,0,0,2.3.3l.28-.49c1-1.26-.78-3.06-1.78-1.78a5.86,5.86,0,0,0-.67,1l2.3.3c-.71-3,.77-6.74,1.54-9.58a40.17,40.17,0,0,0,1.5-8c.11-1.62-2.42-1.61-2.52,0Z"/><path class="cls-1" d="M58,107.29c.22,3.36-.86,6.76-.5,10.08.17,1.6,2.69,1.61,2.52,0-.35-3.32.72-6.72.5-10.08-.1-1.61-2.63-1.62-2.52,0Z"/><path class="cls-1" d="M60.26,102a1.26,1.26,0,0,0,0-2.52,1.26,1.26,0,0,0,0,2.52Z"/><path class="cls-1" d="M68.12,96c2,7.7-2.51,16.39,2,23.57,3.19,5,7.55,3.2,10.35-1.08.89-1.36-1.29-2.63-2.18-1.27-1.23,1.87-3.53,3.39-5.52,1.69a7.21,7.21,0,0,1-1.64-3.16,18.72,18.72,0,0,1-.5-7.12c.33-4.53,1-8.82-.11-13.3a1.26,1.26,0,0,0-2.43.67Z"/><path class="cls-1" d="M65.14,114.55c4.06-1.65,8.47-2.15,12.4-4.16,1.44-.74.17-2.91-1.27-2.18-3.72,1.9-7.95,2.34-11.8,3.91-1.48.6-.83,3,.67,2.43Z"/><path class="cls-1" d="M82.74,100.06c1.34,6.7,6.44,33.5,17.23,19.71,1-1.26-.78-3.06-1.78-1.78-1.55,2-3.69,4.41-6.09,2.24-1.83-1.65-2.79-4.54-3.56-6.79a109.65,109.65,0,0,1-3.37-14.05c-.32-1.59-2.75-.92-2.43.67Z"/><path class="cls-1" d="M81.06,113.42c3.32-1.43,6.29-3.54,9.58-5,1.47-.67.19-2.85-1.27-2.18-3.29,1.5-6.25,3.61-9.58,5-1.49.64-.2,2.81,1.27,2.18Z"/><path class="cls-1" d="M96.14,105.4c1.79-3.26,3.42-6.88,3.31-10.68-.06-2.24-.68-5.34-2.57-6.82-4.52-3.54-4.7,5.78-4.22,8,1,4.82,3.08,11,7.08,14.19s7.43,1.29,8.11-3.46c.23-1.59-2.2-2.27-2.43-.67s-.43,3.48-2.33,3.19a5.77,5.77,0,0,1-2.76-1.95c-2.07-2.18-3.16-5.35-4.12-8.13a27.91,27.91,0,0,1-1.26-4.58,9.53,9.53,0,0,1-.08-2.88c.15-1.1.17-1.67,1.07-.88,1.42,1.25,1.07,4.92.76,6.55A23.55,23.55,0,0,1,94,104.13c-.78,1.42,1.39,2.7,2.18,1.27Z"/><path class="cls-1" d="M106.72,93.81c1.56-2.4,3.16-6.86-.14-8.7-2.76-1.54-4.93,1.19-4.94,3.79,0,3.8,2.44,8,6.41,8.61,4.17.66,7.09-2.76,7.87-6.52.33-1.58-2.1-2.26-2.43-.67-.48,2.28-1.82,4.77-4.48,4.75s-4.07-2.32-4.63-4.53c-.17-.66-.67-3.78.93-3.26,2,.65-.28,4.51-.77,5.25-.89,1.36,1.29,2.63,2.18,1.27Z"/><path class="cls-1" d="M105.34,62.25c1.73-5.65,10-5.89,12.48-11.29.67-1.46-1.5-2.75-2.18-1.27-2.58,5.6-10.79,5.55-12.73,11.9-.48,1.55,2,2.22,2.43.67Z"/><path class="cls-1" d="M104,72.39c6.18-4.83,14.36-5.68,20.92-9.88,1.36-.87.1-3.06-1.27-2.18-6.76,4.34-15,5.28-21.43,10.28-1.28,1,.52,2.77,1.78,1.78Z"/><path class="cls-1" d="M107.48,79.27c5.77-1.75,11.77.39,17.44-2.14,1.48-.66.2-2.83-1.27-2.18-5.33,2.38-11.32.22-16.84,1.89-1.55.47-.89,2.9.67,2.43Z"/><path class="cls-1" d="M28.84,72.3C20.44,70,12.71,77.42,4.65,74.82c-1.55-.5-2.21,1.93-.67,2.43,8.33,2.69,15.85-4.81,24.2-2.52a1.26,1.26,0,0,0,.67-2.43Z"/><path class="cls-1" d="M28.51,81.83c-4.07-.21-7.79,1.57-11.35,3.34C13,87.25,6.73,91.83,1.92,89.56.46,88.88-.82,91,.65,91.74c9.49,4.47,18.41-7.88,27.86-7.39,1.62.08,1.62-2.44,0-2.52Z"/><path class="cls-1" d="M27.33,89.44c-2.77-.68-6.07,1.7-8.29,3-3.3,2-6.39,4.41-9.82,6.17-1.44.74-.17,2.91,1.27,2.18,2.72-1.39,5.21-3.26,7.79-4.9,1.85-1.18,6-4.63,8.38-4,1.58.39,2.25-2,.67-2.43Z"/><path class="cls-1" d="M45.39,58.89c0,6,.4,25.46,10.08,24.43,9-.95,7.59-18.88,7.57-24.94a1.26,1.26,0,0,0-2.52,0c0,3.56,0,7.11-.29,10.66-.27,3-.72,10.57-4.48,11.67-7.16,2.1-7.81-17.78-7.83-21.83a1.26,1.26,0,0,0-2.52,0Z"/><path class="cls-1" d="M43.63,69.23h.5a1.26,1.26,0,0,0,0-2.52h-.5a1.26,1.26,0,0,0,0,2.52Z"/><path class="cls-1" d="M44.56,76.67l.5,1a1.26,1.26,0,1,0,2.18-1.27l-.5-1a1.26,1.26,0,0,0-2.18,1.27Z"/><path class="cls-1" d="M48.92,84.1v.5a1.26,1.26,0,0,0,2.52,0v-.5a1.26,1.26,0,0,0-2.52,0Z"/><path class="cls-1" d="M54.47,86.62v.5a1.26,1.26,0,0,0,2.52,0v-.5a1.26,1.26,0,0,0-2.52,0Z"/><path class="cls-1" d="M63.29,79.81a1.26,1.26,0,0,0,0-2.52,1.26,1.26,0,0,0,0,2.52Z"/><path class="cls-1" d="M64.8,68.72a1.26,1.26,0,0,0,0-2.52,1.26,1.26,0,0,0,0,2.52Z"/><path class="cls-1" d="M76.14,56.37c.07,11.92,1.61,23.89.5,35.79-.15,1.61,2.37,1.6,2.52,0,1.11-11.9-.43-23.87-.5-35.79a1.26,1.26,0,0,0-2.52,0Z"/><path class="cls-1" d="M80.43,86.87a1.26,1.26,0,0,0,0-2.52,1.26,1.26,0,0,0,0,2.52Z"/><path class="cls-1" d="M80.93,79.31a1.26,1.26,0,0,0,0-2.52,1.26,1.26,0,0,0,0,2.52Z"/><path class="cls-1" d="M81.69,66v-.5a1.26,1.26,0,0,0-2.52,0V66a1.26,1.26,0,0,0,2.52,0Z"/><path class="cls-1" d="M84,60.66c1.41-.05,5.94-1,5.84,1.46-.08,1.94-3.46,2.88-5,2.62s-2.27,2.16-.67,2.43c3.07.51,7.81-1.12,8.16-4.71.48-4.87-5.14-4.44-8.33-4.32-1.62.06-1.62,2.58,0,2.52Z"/><path class="cls-1" d="M93.54,64.69a1.26,1.26,0,0,0,0-2.52,1.26,1.26,0,0,0,0,2.52Z"/><path class="cls-1" d="M93,59.15a1.26,1.26,0,0,0,0-2.52,1.26,1.26,0,0,0,0,2.52Z"/><path class="cls-1" d="M87.49,58.14a1.26,1.26,0,0,0,0-2.52,1.26,1.26,0,0,0,0,2.52Z"/></g></g></svg>