<svg xmlns="http://www.w3.org/2000/svg" viewBox="0 0 239.71 196.94"><defs><style>.cls-1{fill:#5853a3;}</style></defs><title>Asset 42</title><g id="Layer_2" data-name="Layer 2"><g id="Layer_1-2" data-name="Layer 1"><path class="cls-1" d="M30.5,18.49c-3.77,11-1.66,23-3.17,34.4-1.76,13.23-5.18,26.25-5.14,39.67,0,2.94,2.7,6.22,5.89,5.89,6.64-.68,12.64-3.06,18.89-5.26,5.9-2.07,12.21-4.41,18.32-2,7.05,2.79,10.11-8.6,3.13-11.36-14.2-5.61-26.7,5.43-40.35,6.83L34,92.56c0-12.88,3.22-25.42,4.94-38.12,1.46-10.78-.61-22.41,2.95-32.82,2.46-7.19-8.92-10.28-11.36-3.13Z"/><path class="cls-1" d="M67.89,59.7C77,59,87.15,52.55,93,45.8S99.2,26.59,88.88,24c-7.95-2-17.5,2.91-23.36,8-8.09,7-10.16,19.88-5.67,29.34C65.77,73.84,80.68,78,93,72.78c3-1.24,5-3.88,4.11-7.25-.73-2.77-4.32-5.35-7.25-4.11-7.75,3.26-17.71,2.07-20.2-7.33-2-7.66,2.3-13.18,8.41-16.39a18.49,18.49,0,0,1,7.49-2.31c1.72-.09,0,.26,0-.41a2.82,2.82,0,0,1-.35,1.86c-2.26,4.77-12.93,10.71-17.29,11.07-7.5.61-7.57,12.4,0,11.78Z"/><path class="cls-1" d="M110.28,4.17c-3.45,12.6-5.17,25.64-6.25,38.64-.81,9.75-1.82,19.82-.77,29.59.75,7,2.11,15.41,7.47,20.54,6.83,6.53,15.35,2.9,21.67-2.24,5.89-4.78-2.49-13.07-8.33-8.33-3.85,3.13-5.2,3.39-7-1.08-2-5-2.42-10.9-2.42-16.28,0-19.2,1.93-39.17,7-57.71,2-7.32-9.36-10.45-11.36-3.13Z"/><path class="cls-1" d="M99.12,59.49c7.55-2.07,15.22-1.85,23-1.84,7.58,0,7.59-11.76,0-11.78-8.82,0-17.54-.09-26.11,2.26-7.3,2-4.2,13.37,3.13,11.36Z"/><path class="cls-1" d="M138.92,29.8c.71,3.41-.16,6.87-1,10.16-1.92,7.34,9.45,10.47,11.36,3.13,1.42-5.46,2.19-10.85,1-16.43-.65-3.12-4.32-4.92-7.25-4.11a6,6,0,0,0-4.11,7.25Z"/><path class="cls-1" d="M183,37.92c-3.83-11.23-16.33-9.8-23.09-2-3.44,4-5.23,9.79-3.64,15,1.44,4.68,5.63,7,9.63,9.26,3.27,1.81,7.18,4.32,8.44,8.07.28.83,0,1.23.12,1a4.06,4.06,0,0,1-1.61,1.52,10.51,10.51,0,0,1-6.29,1.37,7.89,7.89,0,0,1-1.4-.38c.5-.54.47,2.69.67.43.66-7.55-11.13-7.51-11.78,0-1.43,16.48,24.51,13.36,30.43,3.27,4.65-7.92-.78-16.7-7-21.81-1.92-1.57-9.5-4.77-10-6.24-.54-1.7,1.07-3.67,2.26-4.69.57-.49,1.35-.73,1.89-1.22,1.85-1.66.59,1.17,0-.47,2.44,7.14,13.82,4.07,11.36-3.13Z"/><path class="cls-1" d="M5.87,102.48c0,8.54-.31,17.44,2,25.75,2.58,9.27,10,13.89,18.45,7.57,3.91-2.93.08-9.6-3.88-6.63-2,1.48-3.64,3.05-5.49,1.11s-2.31-6.43-2.68-9c-.89-6.21-.74-12.52-.72-18.77,0-4.94-7.66-4.95-7.68,0Z"/><path class="cls-1" d="M3.71,123.65H15C20,123.65,20,116,15,116H3.71c-4.94,0-4.95,7.68,0,7.68Z"/><path class="cls-1" d="M41,115.79c3.75-2.41,4.6-3.15,5.28,1.44s-.39,9.21.49,13.75c1.61,8.29,12.1,13.68,16.27,4.1,2-4.49-4.66-8.4-6.63-3.88-.7,1.6.21,1.69-.91.8a4.87,4.87,0,0,1-1.3-3.17c-.32-2.28.06-4.63.07-6.92,0-3.48-.28-7.38-1.65-10.63-3-7.14-10.11-5.59-15.49-2.13-4.14,2.66-.3,9.31,3.88,6.63Z"/><path class="cls-1" d="M49.65,121.16c-6.15-3-13.16,1-14.59,7.57-.71,3.26.3,6.71,3.28,8.48,3.54,2.1,8.14,1,11.72-.37a4,4,0,0,0,2.68-4.72c-.51-1.86-2.77-3.42-4.72-2.68-.83.31-1.67.61-2.53.84-.37.1-.74.19-1.12.27l-.69.13q.64-.08.22,0l-.88,0c-.14,0-1.09-.05-.4,0s-.28-.09-.29-.08l-.31-.09q.85.39.45.2c-.05-.08-.83-.47-.17,0s0,0-.13-.17c.18.22.53.8.22.23s.42.9.13.3a2.79,2.79,0,0,1-.12-.5c.09.35,0,1,.08.32.17-1.17-.26.59,0-.27.13-.41.65-1.46.06-.4.2-.36.38-.73.59-1.09.1-.18.24-.34.36-.52-.61.92-.28.32-.06.13s1.2-.89.32-.38c.35-.2.73-.42,1.07-.64-.84.55-.51.2-.15.09.19-.06.41-.08.6-.15-.95.35-.57,0-.09.05.17,0,.92.13.24,0s.11.09.25.1c.88.09-.56-.29.08,0A3.94,3.94,0,0,0,51,126.42a3.88,3.88,0,0,0-1.38-5.25Z"/><path class="cls-1" d="M62.54,100.48c-.86,13.38,2.54,26.6,4.8,39.69.84,4.86,8.24,2.8,7.41-2-2.16-12.45-5.35-24.92-4.53-37.65.32-4.93-7.36-4.92-7.68,0Z"/><path class="cls-1" d="M77.87,109.81c.51,9.09,3.39,18.21,2.67,27.33-.39,4.93,7.29,4.9,7.68,0,.72-9.13-2.16-18.25-2.67-27.33-.28-4.91-8-4.95-7.68,0Z"/><path class="cls-1" d="M83.65,127.79c5-2.71,8.47-8.16,13.75-10.28,4.53-1.81,2.55-9.25-2-7.41-6.15,2.46-9.88,8-15.58,11.05-4.35,2.35-.47,9,3.88,6.63Z"/><path class="cls-1" d="M85,129c1.33,0,3.62,2.44,4.81,3.69,1.8,1.88,3.41,3.91,5.14,5.85,3.29,3.7,8.71-1.75,5.43-5.43C96.37,128.54,91.81,121.5,85,121.3c-4.94-.14-4.94,7.54,0,7.68Z"/><path class="cls-1" d="M125.09,115.1c-11-9.88-21.58,11.92-12.18,18.82,11.9,8.75,17.29-18.36,16.51-25.39-.42-3.75-4.92-5.27-7.16-1.94-5.26,7.82-1,21.86,3.47,29.16,2.59,4.2,9.24.35,6.63-3.88-3.05-4.95-7.08-16-3.47-21.4l-7.16-1.94c.73,6.59-2.3,12.46-4.29,18.42a2.17,2.17,0,0,1-.76.89c.3-.14.78,0,.75-.16a9.18,9.18,0,0,1-.18-3,8.51,8.51,0,0,1,1.24-3.6c.85-1.19.46-1.19,1.17-.56,3.67,3.3,9.11-2.12,5.43-5.43Z"/><path class="cls-1" d="M134.54,98.48c.45,10.32,1.36,20.69,4,30.7,1.13,4.32,7.3,3.2,7.54-1,.15-2.63.06-5.26.16-7.89a35.31,35.31,0,0,1,.33-4.42,20.69,20.69,0,0,0,.53-2.27l.12-.29q.26-.54-.8.08-1.41,0-.51.41a3.59,3.59,0,0,1,1.06.87,14.65,14.65,0,0,1,1.2,2,9.27,9.27,0,0,1,.25,4.94c-.55,3-2.68,7.18-6.35,6.56-4.83-.82-6.91,6.58-2,7.41,14.41,2.44,22-18.53,11.2-27.31-4.51-3.67-9.73-2.22-11.53,3.33-1.72,5.3-1,11.16-1.3,16.63l7.54-1c-2.46-9.38-3.29-19-3.71-28.66-.21-4.92-7.9-4.95-7.68,0Z"/><path class="cls-1" d="M158,107.46a26.58,26.58,0,0,0,.13,12.56c1,4,3.87,8.61,8.65,7.2s8.11-7.92,8.14-12.64a12.34,12.34,0,0,0-6.7-11c-5.44-2.58-10.3,1.08-10.36,6.88,0,4.94,7.63,4.95,7.68,0,0-.11.13-1.32,0-.61.1-.62-.31,0,.1-.26-.07,0-1,.79-.41.5-.13.06-1.22.6-.68.25.29-.19-.26-.12.11,0,.95.42-.74-.38.25.11.07,0,.93.64.36.19a7.19,7.19,0,0,1,.8.77,5.76,5.76,0,0,1,1.14,2.66,7.08,7.08,0,0,1-1.72,4.69,9.27,9.27,0,0,1-.65.74c-.23.25-.37.15-.38.34q-.6.32.13-.05l.53-.08c.12,0,1.47.48.84.17.38.19.37.05.46.4a6.07,6.07,0,0,0-.46-.83c.35.7-.11-.32-.13-.42-.11-.38-.22-.75-.32-1.14a20.18,20.18,0,0,1-.13-8.48c1.24-4.79-6.16-6.83-7.41-2Z"/><path class="cls-1" d="M175.87,103.14c0,6.93-.92,27.91,11.56,24.38,10.12-2.87,8.53-21.73,6.65-29.4-1.18-4.8-8.59-2.77-7.41,2a39,39,0,0,1,.8,10c0,1.56,0,9.16-2,9.84-1.66.55-1.92-14.93-1.91-16.89,0-4.94-7.65-4.95-7.68,0Z"/><path class="cls-1" d="M202.06,109.51a170.65,170.65,0,0,1,18.67-4c4.87-.68,2.8-8.08-2-7.41a170.65,170.65,0,0,0-18.67,4c-4.78,1.22-2.76,8.63,2,7.41Z"/><path class="cls-1" d="M207.2,77.14c-.72,9.52-9,59.36,13.78,48,4.42-2.21.54-8.84-3.88-6.63-2.46,1.23-2.79-.37-3.48-3-1.2-4.53-1.05-9.49-.91-14.13.25-8.13,1.56-16.12,2.17-24.22.37-4.93-7.31-4.91-7.68,0Z"/><path class="cls-1" d="M13.76,149.33c-.42,7.34-2.07,14.52-1.38,21.93.75,8.05,5.83,14.72,14.17,9.44,4.16-2.64.32-9.29-3.88-6.63-1.93,1.23-1.65,1.62-2.25-.63a30.61,30.61,0,0,1-.48-8.84c.2-5.12,1.2-10.16,1.49-15.26.28-4.94-7.4-4.92-7.68,0Z"/><path class="cls-1" d="M8.08,168.7c4.28,0,8.82-1.42,13-.14,4.73,1.46,6.76-6,2-7.41-5-1.54-10-.12-15-.14s-4.95,7.66,0,7.68Z"/><path class="cls-1" d="M30.79,151.83c0,10.24-1.19,21.2,2.14,31.08,1.57,4.66,9,2.66,7.41-2-3.11-9.2-1.88-19.49-1.87-29,0-4.94-7.67-4.95-7.68,0Z"/><path class="cls-1" d="M37.57,171.18a9.51,9.51,0,0,1,2.71-1.07c.16,0,.62-.21.3-.09.26-.09.38.48,0-.06-.2-.29.34.54.34.55.13.39.32.77.52,1.52.88,3.25,1,6.66,2,9.88,1.46,4.71,8.88,2.7,7.41-2-1.34-4.31-1.06-9.22-3.3-13.24-3.09-5.51-9-4.59-13.86-2.08-4.38,2.29-.5,8.92,3.88,6.63Z"/><path class="cls-1" d="M53.33,166.36c0,6.2-.68,12.7,2,18.47,2.1,4.47,8.72.58,6.63-3.88-2-4.25-1-10-1-14.59,0-4.94-7.65-4.95-7.68,0Z"/><path class="cls-1" d="M57.17,160.18h.5a3.84,3.84,0,0,0,0-7.68h-.5a3.84,3.84,0,0,0,0,7.68Z"/><path class="cls-1" d="M74.72,151.14c-9.65-2-15.06,13.55-5.5,17.37,1.62.65,8.38.84,7.24,3.83-.32.85-2.15,1.36-2.94,1.53a13.26,13.26,0,0,0-1.72.15q.34.06-.33-.1a2.17,2.17,0,0,1,1.42,2.48c1-4.82-6.37-6.88-7.41-2-2.15,10,12.34,7.88,16.58,3.2,3.17-3.49,2.69-8.67-.36-12.1-1.85-2.08-4.29-2.92-6.95-3.47a19.19,19.19,0,0,1-3-.53c-.53-.76,1.38-2.82.93-2.92,4.82,1,6.88-6.4,2-7.41Z"/><path class="cls-1" d="M108.25,160.15c-11.43,2.31-9.2,28.69,3.51,25.42,10.29-2.65,11.06-26.15-1-26.56-4.94-.17-4.94,7.51,0,7.68,2,.07.8,10.43-1.15,11.53.75-.42.3.07-.19-1a9.83,9.83,0,0,1-.76-3.88c0-1.47.14-5.51,1.62-5.81,4.84-1,2.79-8.38-2-7.41Z"/><path class="cls-1" d="M138.13,146.39c-2.86-4.68-8.44-5.53-10.47.35-1.67,4.84-1.29,10.75-1.23,15.8.07,5.24-.37,10.46-.43,15.69-.06,5.59-.81,14.29,4.37,18,4,2.88,7.87-3.78,3.88-6.63.93.67,0-.8-.05-1.42-.09-.9-.26-1.79-.34-2.69a78.26,78.26,0,0,1-.17-7.83c.07-4.38.43-8.76.45-13.14,0-2.75-.08-5.5,0-8.25a40.18,40.18,0,0,1,.41-5.37c.07-.43.62-1.76.49-2.11q-.48,2.07-4.13.64a3.21,3.21,0,0,1,.56.85c2.57,4.21,9.22.36,6.63-3.88Z"/><path class="cls-1" d="M120.79,162.19h15c4.94,0,4.95-7.68,0-7.68h-15c-4.94,0-4.95,7.68,0,7.68Z"/><path class="cls-1" d="M152.69,182.89a180.12,180.12,0,0,1,.92-22.6,30.78,30.78,0,0,1,1.8-7.84A7.33,7.33,0,0,1,156.7,150c1.38-1.28.85.11,1.85,1.79,2.52,4.24,9.16.39,6.63-3.88-2-3.36-4.86-7-9.24-6.25-3.53.57-5.74,3.78-7.13,6.81-4.75,10.34-3.81,23.35-3.81,34.44,0,4.94,7.68,4.95,7.68,0Z"/><path class="cls-1" d="M142.35,173.07c4.27-1.76,9-1.8,13.51-1.87,4.94-.07,5-7.75,0-7.68-5.16.07-10.71.14-15.55,2.14-1.93.8-3.26,2.54-2.68,4.72.48,1.82,2.81,3.47,4.72,2.68Z"/><path class="cls-1" d="M172.08,138.88c-2.41,5.36-2,11.06-1.67,16.8.33,6.43-.68,13,1.28,19.22,1.47,4.7,8.89,2.69,7.41-2-1.61-5.14-.71-10.51-.94-15.81-.19-4.44-1.34-10.09.55-14.29,2-4.47-4.61-8.38-6.63-3.88Z"/><path class="cls-1" d="M183.08,158.85c-.32,6.09-.34,13.63,3,19,2.63,4.17,9.28.32,6.63-3.88s-2.23-10.39-2-15.09c.26-4.94-7.42-4.93-7.68,0Z"/><path class="cls-1" d="M187.42,149.66c4.94,0,4.95-7.68,0-7.68s-4.95,7.68,0,7.68Z"/><path class="cls-1" d="M195.74,146.81c-1.27,5.38-.63,11-.73,16.49-.06,3.08-.58,8.34,3.41,9.27,4.81,1.12,6.86-6.28,2-7.41l-.19,0,2.29,1.76c.31.53.1-1.75.1-2.19,0-1.35.06-2.69.09-4,.07-3.94-.52-7.94.39-11.81,1.13-4.81-6.27-6.86-7.41-2Z"/><path class="cls-1" d="M202.64,156.86c1.22-3.2,2.78,2.07,2.89,3,.49,4.35,0,8.42,2.12,12.44,2.31,4.37,8.94.5,6.63-3.88-1.53-2.91-.82-6.8-1.23-10s-1.51-6.17-4-8.22c-5.3-4.3-11.57-1.22-13.77,4.59-1.76,4.62,5.66,6.62,7.41,2Z"/><path class="cls-1" d="M220.92,158.16c6.15-3.43,15.41-10.64,11.5-18.79-3.58-7.47-13.34-3-15.73,3-2.56,6.37-1.57,15.41,2.16,21.13,4.6,7,12.53,7,19.1,2.69,4.12-2.69.28-9.35-3.88-6.63-2.78,1.82-5.9,3.33-8.39.36-2.34-2.79-2.76-7.37-2.56-10.83.09-1.58.18-3.57,1.24-4.83a5.12,5.12,0,0,1,1.38-1c.57-.35-.19-.37-.22-.47,1,3.48-6.19,7.5-8.5,8.78-4.32,2.41-.45,9,3.88,6.63Z"/></g></g></svg>