<svg xmlns="http://www.w3.org/2000/svg" viewBox="0 0 137.35 113.94"><defs><style>.cls-1{fill:#5853a3;}</style></defs><title>Asset 47</title><g id="Layer_2" data-name="Layer 2"><g id="Layer_1-2" data-name="Layer 1"><path class="cls-1" d="M8.21,7.42C6.85,12.07,6.59,17,6.12,21.83c-.52,5.39-.41,11.59-1.75,16.8l3.43-.45-.28-.36c-1.45-1.89-4.71,0-3.24,1.89l.28.36c.92,1.2,3,1.26,3.43-.45C9.18,35,9.09,29.49,9.59,24.72c.57-5.43.7-11,2.24-16.31.68-2.32-2.94-3.31-3.62-1Z"/><path class="cls-1" d="M2.29,10.75c4.55-1.52,10.34-2,14.95-.51,2.3.75,3.28-2.87,1-3.62C13,4.92,6.45,5.42,1.3,7.14c-2.28.76-1.3,4.38,1,3.62Z"/><path class="cls-1" d="M15.86,15.63c-.09,7.06-1.06,14-1.66,21.07l3.68-.5c-1.17-4,1.35-8,4.29-10.49H19.52c3.52,3.1,2,10.88,2,15.12,0,2.41,3.73,2.42,3.75,0,0-5.38,1.48-13.74-3.1-17.77a1.93,1.93,0,0,0-2.65,0c-4,3.36-6.79,8.92-5.25,14.14A1.88,1.88,0,0,0,18,36.7c.59-7,1.56-14,1.66-21.07,0-2.41-3.72-2.42-3.75,0Z"/><path class="cls-1" d="M31.09,31.32c3.11-1.07,6.56-3,7-6.63a5,5,0,0,0-3.59-5.6C31.44,18.33,29,21,27.81,23.57a9.84,9.84,0,0,0,1.53,10.59,6.82,6.82,0,0,0,4.86,2.59c2.28.06,4-1.44,5.22-3.2,1.38-2-1.87-3.86-3.24-1.89-1.77,2.54-4,.68-5-1.54s-.61-5.41,1.44-7a1.87,1.87,0,0,1,.84-.4c-.11,0,.37.06.31,0a1.15,1.15,0,0,1,.72,1.09c.17,1.86-2.68,3.29-4.38,3.87-2.27.78-1.3,4.4,1,3.62Z"/><path class="cls-1" d="M57.32,13.84c4.66-1.47,5.33,3.06,5.75,6.72.4,3.47.27,7.09,1.2,10.48a1.88,1.88,0,0,0,3.62-1c-1.83-6.68.49-23.63-11.56-19.82-2.29.72-1.31,4.35,1,3.62Z"/><path class="cls-1" d="M64.52,18.45c-3.49-1.29-7.43-.29-8.82,3.41-1,2.62-.08,6.29,3,7,2.3.53,4.42-.77,6.16-2.12a1.88,1.88,0,0,0,0-2.65,1.92,1.92,0,0,0-2.65,0,8.37,8.37,0,0,1-1.16.74c-.07,0-.63.3-.28.16-.17.07-.35.12-.53.18s-.65.1-.13.06l-.51,0c-.35,0,.38-.09,0,0l-.21-.06q-.28-.1.15.07a1.19,1.19,0,0,1-.27-.16c0,.44.37,0,0,0-.16,0,.12.21,0,.05l-.2-.37c.27.48,0-.17-.07-.39s0,.4,0,0c0-.16,0-.31,0-.47s.06-.56,0-.23,0-.17.06-.23.09-.27.12-.41c.12-.45-.15.25,0-.07s.57-.82.25-.46c.13-.14.78-.68.37-.4l.45-.28c.37-.22-.36.1.06,0l.56-.16c.41-.11-.29,0,.11,0h.66c.09,0,.53.06.21,0a8.23,8.23,0,0,1,1.58.44,1.89,1.89,0,0,0,2.31-1.31,1.91,1.91,0,0,0-1.31-2.31Z"/><path class="cls-1" d="M69.35,12.54V23.7H73.1c-.25-2.91.41-7.39,3.2-9L73.73,14c1.81,2.45,2,5.71,1.79,8.65-.12,2.07,3.4,2.61,3.68.5.32-2.35.92-8.11,3.76-8.79l-2.12-.86c1.64,2.72.89,6.28.85,9.3,0,2.41,3.72,2.42,3.75,0,.05-3.79.69-7.78-1.36-11.19A1.93,1.93,0,0,0,82,10.78c-4.59,1.1-5.84,7.46-6.37,11.41l3.68.5c.21-3.53-.13-7.61-2.3-10.54a1.92,1.92,0,0,0-2.57-.67c-4,2.27-5.42,8-5.06,12.23.2,2.37,3.75,2.45,3.75,0V12.54a1.88,1.88,0,0,0-3.75,0Z"/><path class="cls-1" d="M89.48,14.1a15.43,15.43,0,0,0-1,8.17c.68,3.38,3.91,3.68,6.39,1.89,4.57-3.3,3.06-15.25-4-11.69-2.15,1.09-.26,4.33,1.89,3.24a1.07,1.07,0,0,1,.61-.17c-.22-.08-.11,0,0,.14a4.34,4.34,0,0,1,.4,2,6.49,6.49,0,0,1-.42,2.48C93,21,92.61,21,92,21.5c-.34.32-.14,0-.14.13s.36.11.31.19a14.09,14.09,0,0,0-.14-2.09,15.48,15.48,0,0,1,1-4.63c.89-2.25-2.74-3.22-3.62-1Z"/><path class="cls-1" d="M101.31,12c-1.11,3.27-2,18.2,5.21,14.6,2.76-1.38,3.71-5.66,4.34-8.36.45-1.92,1.9-6.38.56-8.23s-4.65-.07-3.24,1.89c-.25-.35-.12-.49-.14,0s0,.84-.09,1.26c-.1,1-.28,2-.48,3-.43,2.09-.89,5-2.27,6.68-.5.62-.14.63-.5-.13a8.75,8.75,0,0,1-.48-3.4,18.57,18.57,0,0,1,.7-6.29c.78-2.29-2.84-3.27-3.62-1Z"/><path class="cls-1" d="M112.55,13.06V24.37a1.88,1.88,0,0,0,3.75,0V13.06a1.88,1.88,0,0,0-3.75,0Z"/><path class="cls-1" d="M116.56,17.09c.3-.45.84-1,1.08-1.36s.37.1,0-.08l-.59-.23c.06,0,.25.4.32.59a10.08,10.08,0,0,1,.42,1.63,33.2,33.2,0,0,1,.45,6.22c0,2.41,3.75,2.42,3.75,0,0-3,0-6.25-1.08-9-.53-1.43-1.52-2.87-3.21-2.91-2-.05-3.36,1.81-4.35,3.3-1.34,2,1.9,3.89,3.24,1.89Z"/><path class="cls-1" d="M126.69,18.28c2.41-1,5.77-.28,8.31-.26s2.42-3.73,0-3.75c-3.41,0-7-.61-10.2.77-2.21.95-.3,4.18,1.89,3.24Z"/><path class="cls-1" d="M130.11,1.25c-2.28,5.56-3.21,12.7-3.23,18.66,0,5,2.39,10.73,8,6.6,1.93-1.41.06-4.67-1.89-3.24s-2.13.67-2.36-1.64a33,33,0,0,1,.4-7.38c.52-3.94,1.13-8.3,2.65-12,.91-2.23-2.71-3.2-3.62-1Z"/><path class="cls-1" d="M27.73,49.28c-2.37,1.89-3.11,5.88-2.47,8.71a4.67,4.67,0,0,0,7,3.19C38.13,58,35,47,28,48.8c-2.34.6-1.35,4.21,1,3.62,2.73-.7,3.53,4.52,1.32,5.54-1.32.61-1.52-.74-1.55-1.76a5.29,5.29,0,0,1,1.58-4.26c1.89-1.5-.78-4.14-2.65-2.65Z"/><path class="cls-1" d="M50.92,37.25c-1.47-6.28-7-.38-8.62,2.37-3.81,6.28-2.84,13.7-2.78,20.76,0,2.41,3.77,2.42,3.75,0,0-4.36-.39-8.8.15-13.14a13.14,13.14,0,0,1,1.64-4.91,20,20,0,0,1,1.51-2.39l.79-1q1.11-.65-.06-.72c.55,2.35,4.17,1.35,3.62-1Z"/><path class="cls-1" d="M37.28,50.94A51.09,51.09,0,0,0,46,50.35c2.37-.42,1.37-4-1-3.62a45.46,45.46,0,0,1-7.73.45c-2.41,0-2.42,3.77,0,3.75Z"/><path class="cls-1" d="M63.53,42.62c-4.92,1.85-8.63,9.28-1.83,11.3,1.08.32,6,.49,4.74,2.32-.52.75-2.07,1.08-2.91,1.22-.59.1-1.2,0-1.78.08-1,.14-.51-.7-.48.26-.09-2.41-3.84-2.42-3.75,0C57.74,63.74,68,61.28,70,57.74c1.47-2.68-.17-5.43-2.81-6.4-1.43-.52-3.1-.44-4.48-1-.91-.39-1.32-.55-.85-1.73a4.9,4.9,0,0,1,2.68-2.34c2.24-.84,1.27-4.47-1-3.62Z"/><path class="cls-1" d="M74.56,31.08c-1.48,4.3-3.93,35.27,6.35,28.35,2-1.34.12-4.59-1.89-3.24s-2.28-9.68-2.26-11.29c.07-4.14.05-8.86,1.41-12.82.78-2.29-2.84-3.27-3.62-1Z"/><path class="cls-1" d="M70.2,47.34a22.79,22.79,0,0,0,7.7-1.1c2.32-.64,1.34-4.26-1-3.62a19.59,19.59,0,0,1-6.7,1c-2.41-.17-2.4,3.58,0,3.75Z"/><path class="cls-1" d="M83.82,44.45c-.92,2.95-1.55,6.79-.49,9.78,1.31,3.67,5.67,3.58,8.07,1s2.15-6.83.69-9.8-4.7-4.33-7.27-1.76a1.88,1.88,0,0,0,2.65,2.65c.4-.4.25-.39.58-.19.59.35.91,1.41,1.08,2,.43,1.47.6,3.74-.76,4.81-1.6,1.27-1.73-.29-1.77-1.64a17.85,17.85,0,0,1,.83-5.82c.72-2.31-2.9-3.3-3.62-1Z"/><path class="cls-1" d="M95.58,42.37c.05,4.72.46,9.42.52,14.14h3.75c-.19-4.94,3.15-10.09,6.65-13.33,1.77-1.64-.88-4.29-2.65-2.65-4.2,3.89-8,10.08-7.75,16,.09,2.4,3.78,2.42,3.75,0-.06-4.72-.46-9.42-.52-14.14,0-2.41-3.78-2.42-3.75,0Z"/><path class="cls-1" d="M108.44,45.46v9.77a1.88,1.88,0,0,0,3.75,0V45.46a1.88,1.88,0,0,0-3.75,0Z"/><path class="cls-1" d="M110.31,39.62a1.88,1.88,0,0,0,0-3.75,1.88,1.88,0,0,0,0,3.75Z"/><path class="cls-1" d="M115.46,50.94c3,.27,6.14-.76,7.7-3.46,1.06-1.83,1.28-4.73-.85-5.92-2.59-1.44-5.63,1.26-6.9,3.31a9.36,9.36,0,0,0-.66,8.75c1.84,3.68,5.92,3.2,8.86,1.18,2-1.36.1-4.61-1.89-3.24-1.56,1.07-3.39,1.92-3.9-.47a5.82,5.82,0,0,1,2-5.62c.16-.12.83-.43.87-.52.25-.56.13.3,0,0,0,0-.4-.23-.13,0,0,0-.42-.43-.36-.41s0,.12,0,.09c-.1.14,0,.34-.11.67-.68,1.78-2.84,2.14-4.64,2-2.4-.22-2.39,3.53,0,3.75Z"/><path class="cls-1" d="M131,39.73c-3.92,2.5-4.66,5.85-.85,8.83,1.2.94,4.25,2.43,3.38,4.42-.79,1.81-4.61,1.45-6.22,1.41-2.41-.06-2.41,3.69,0,3.75,4,.09,10.1-.45,10.06-5.72a6.46,6.46,0,0,0-2.8-5.21c-.83-.67-1.75-1.24-2.56-1.94-1.33-1.14-.58-1.39.87-2.31,2-1.3.15-4.54-1.89-3.24Z"/><path class="cls-1" d="M4.1,71.71C3.37,75.68,2.16,80,2.49,84c.2,2.39,3.95,2.41,3.75,0-.31-3.75.8-7.66,1.48-11.33.43-2.36-3.18-3.37-3.62-1Z"/><path class="cls-1" d="M2.49,63.46v1a1.9,1.9,0,0,0,1.87,1.88,1.91,1.91,0,0,0,1.88-1.87v-1a1.9,1.9,0,0,0-1.87-1.87,1.91,1.91,0,0,0-1.87,1.88Z"/><path class="cls-1" d="M13.11,69.3c-2.31.1-2.64,3.07-3,4.83a61.32,61.32,0,0,0-1,8.13h3.75c.08-2.16,1.16-6.31,3-7.63.93-.67.72.65.73,1.59,0,1.58-.24,3.15-.27,4.73,0,2.41,3.7,2.41,3.75,0,.06-3.24,1.31-12-4.82-10.22-4,1.17-6,7.82-6.14,11.53-.08,2.42,3.64,2.4,3.75,0a52.87,52.87,0,0,1,.57-5.42c.14-.94.29-1.88.5-2.8a6.15,6.15,0,0,0,.27-1.11c0-1,1,0-1.14.14,2.4-.11,2.42-3.86,0-3.75Z"/><path class="cls-1" d="M28.72,70.66c0,7.24-.15,14.47-.63,21.7L29,90.74l-.39.2,2.75,2.12a3.6,3.6,0,0,0,0-1.81c-.59-2.34-4.2-1.35-3.62,1v-.18a1.9,1.9,0,0,0,2.75,2.12c2.46-1.25,1.59-6.24,1.68-8.48.21-5,.25-10,.26-15a1.88,1.88,0,0,0-3.75,0Z"/><path class="cls-1" d="M31.89,76.3c.68-2.6,4.37-.82,4,1.49-.36,2.57-4.31,3.45-6.38,2.89-2.33-.63-3.33,3-1,3.62,4.95,1.34,12.07-2.06,11-8-1-5.69-9.71-7.1-11.3-1-.61,2.34,3,3.33,3.62,1Z"/><path class="cls-1" d="M42.09,72.2q0,4.75,0,9.5a1.88,1.88,0,0,0,3.75,0c0-3.32,1.7-8.32,5.31-9.23,2.34-.59,1.35-4.21-1-3.62-5.3,1.34-8,7.85-8.06,12.85h3.75q0-4.75,0-9.5a1.88,1.88,0,0,0-3.75,0Z"/><path class="cls-1" d="M54,73.25c-.64,2.58-.55,6.11,1.38,8.17,2.49,2.67,6,.42,7.54-2.06a6.58,6.58,0,0,0-1.08-8,4.42,4.42,0,0,0-7.13,1c-1.28,2.06,2,3.94,3.24,1.89a5.06,5.06,0,0,1,.43-.52c.25-.16,0-.06.29,0-.18,0,0,0,.35.21a4,4,0,0,1,.44.44,2.75,2.75,0,0,1,.07,3.42,5.32,5.32,0,0,1-.89.91c-.17.13-.66.38-.44.31-.19.06-.16-.1.08.12-.3-.26-.22-.16-.39-.52a6.8,6.8,0,0,1-.27-4.25c.58-2.34-3-3.34-3.62-1Z"/><path class="cls-1" d="M79.64,68.6a26.47,26.47,0,0,1-1.51,9.68l3.68.5a13.53,13.53,0,0,1,7.34-10.62c2.12-1.15.23-4.39-1.89-3.24a17.36,17.36,0,0,0-9.19,13.85c-.2,2.24,3,2.35,3.68.5A29.49,29.49,0,0,0,83.39,68.6c0-2.41-3.79-2.42-3.75,0Z"/><path class="cls-1" d="M92.74,76.91c3.27-1.4,7.66-2.46,8.29-6.59.65-4.29-4.09-5.11-6.89-3-3,2.28-4.74,6.89-2.58,10.31,2.4,3.81,7.25,3.13,10.44.83,1.94-1.4.07-4.65-1.89-3.24-1.42,1-3.94,2.39-5.31.52-1.18-1.6,0-4,1.25-5.15a5.57,5.57,0,0,1,1-.69c.27-.16.71,0,.36-.25-.19-.15-.18.54-.36.84a2.42,2.42,0,0,1-.65.65c-1.58,1.23-3.76,1.76-5.58,2.53-2.21.95-.3,4.18,1.89,3.24Z"/><path class="cls-1" d="M114.94,62.1c-4.53.09-7.1,3.3-8.93,7.11a1.93,1.93,0,0,0,.29,2.27,9.38,9.38,0,0,0,3.07,1.71c.7.26,3.59.74,3.94,1.45.67,1.35-5.28,2.47-6.59,3-2.24.83-1.27,4.46,1,3.62,3.12-1.16,9.31-1.63,9.65-5.92.4-5-5.85-4.2-8.42-6.46l.29,2.27c1.2-2.48,2.6-5.19,5.69-5.25,2.41,0,2.42-3.8,0-3.75Z"/><path class="cls-1" d="M128.75,63.39c-3.94-1.72-11.15,2.47-7.66,7.09,1.5,2,3.7,1.17,5.74,1.76,1.71.5,2.66,1.42.93,2.4a8.83,8.83,0,0,1-5.09.84c-2.4-.21-2.39,3.54,0,3.75,3.64.31,12.07-1.8,9.58-7.18-1-2.15-3.54-3.42-5.8-3.63-.57-.05-2.3.1-2.36-.42-.1-.88,2.2-1.62,2.78-1.36,2.19,1,4.1-2.27,1.89-3.24Z"/><path class="cls-1" d="M3,100c-.59,2.43-.31,5.15-1.18,7.49s2.78,3.24,3.62,1S6,103.46,6.61,101s-3-3.34-3.62-1Z"/><path class="cls-1" d="M4.41,98.07H4.8a1.88,1.88,0,0,0,0-3.75H4.41a1.88,1.88,0,1,0,0,3.75Z"/><path class="cls-1" d="M12.58,95.57c-2.59.57-6,3.93-4,6.73.65.9,1.59.92,2.42,1.51a1.63,1.63,0,0,1,.72,1.48c-.05.79-.29.58-.57.22-1.45-1.88-4.71,0-3.24,1.89,1.18,1.54,2.78,2.69,4.8,2a4.41,4.41,0,0,0,2.76-4.05A5.37,5.37,0,0,0,13,100.64c-.34-.2-1.17-.73-1.53-.67a1.93,1.93,0,0,0,.33.6l.16-.45c.59-.33.83-.76,1.59-.93,2.36-.52,1.36-4.14-1-3.62Z"/><path class="cls-1" d="M28.06,97.08c-3-.32-6.23,2-6.18,5.2s3.05,3.88,5.23,5.38l-.67-2.57c-.76,1.2-2.24,1.17-3.5,1.05-2.4-.23-2.38,3.52,0,3.75A6.81,6.81,0,0,0,29.68,107a1.91,1.91,0,0,0-.67-2.57c-.83-.57-2.67-1-3.21-1.82-.85-1.32,1.4-1.86,2.27-1.77,2.4.25,2.38-3.5,0-3.75Z"/><path class="cls-1" d="M31.17,100.37a5.64,5.64,0,0,0-.29,5.9c1.37,2.11,4.35,1.82,5.86,0a6.6,6.6,0,0,0,.58-6.66,4.37,4.37,0,0,0-1.92-2.14c-1.71-.9-3.15.61-3.63,2.15-.71,2.31,2.9,3.3,3.62,1l-.08,0H33.41c.52.22.68.75.76,1.43a7.21,7.21,0,0,1-.31,1.8c0,.18,0,0,0,.17,0,0,.2.11.18.12s0-.13,0-.15,0-.59,0-.84a2.05,2.05,0,0,1,.42-.95c1.39-2-1.86-3.85-3.24-1.89Z"/><path class="cls-1" d="M53,98.33c-4.31-1.53-7.84,4-7.49,7.79a1.92,1.92,0,0,0,1.38,1.81c4.3.78,7.5-3,9.65-6.23s4.65-8,3.91-12.1c-.32-1.78-2.57-1.58-3.43-.45-3.82,5.05-4.35,12-4.43,18.08,0,2.41,3.72,2.42,3.75,0,.07-5.52.46-11.63,3.91-16.19l-3.43-.45c.45,2.53-1.52,5.85-2.73,7.91-1,1.73-3.66,6.27-6.22,5.8l1.38,1.81c-.12-1.24.86-4.84,2.74-4.17,2.28.81,3.26-2.81,1-3.62Z"/><path class="cls-1" d="M64.47,95.94c.58-.75.08-.73.44-.29a4,4,0,0,1,.55,1.42,7.41,7.41,0,0,1,.08,2.53,37.23,37.23,0,0,1-1,5.56c-.6,2.34,3,3.34,3.62,1,.82-3.21,1.83-7.05.9-10.32-1-3.46-4.42-6.1-7.19-2.54-1.46,1.88,1.17,4.56,2.65,2.65Z"/><path class="cls-1" d="M66.46,98.91A4.84,4.84,0,0,0,62,98.6a4.93,4.93,0,0,0-2.31,2.4c-1,2.11-.93,5.55,1.86,6.22,1.84.44,3.54-.71,4.89-1.82a1.89,1.89,0,0,0,0-2.65,1.92,1.92,0,0,0-2.65,0q-.26.21,0,0l-.25.18-.47.31c-.14.08-.3.15-.43.24s.42-.09,0,0c0,0-.34.12-.36.09s.58,0,.1,0c-.31,0,.55.15.15,0s.15.07.21.1c-.16-.08-.38-.31.13.12-.13-.11-.31-.4.09.15a1.21,1.21,0,0,1-.13-.22c.29.64.1.29.07.13a1,1,0,0,0-.06-.28c.2.26,0,.48,0,.13,0-.1,0-.21,0-.31s0-.42,0-.07,0,.06,0-.08.05-.22.09-.33.07-.31.11-.32q-.2.47-.09.21l.08-.15.17-.3c.22-.4-.06,0,0,0s.38-.37.44-.45c-.52.64.08-.22.22-.08s-.52.16-.05.05-.36-.05-.07,0a1.63,1.63,0,0,0,.37,0c.26,0-.46-.14,0,0l.41.13c-.53-.17,0,0,.09.07a1.88,1.88,0,1,0,1.89-3.24Z"/><path class="cls-1" d="M70.34,95c0,3.43-.87,6.94-.33,10.35.38,2.38,4,1.37,3.62-1-.48-3,.42-6.32.46-9.36,0-2.41-3.72-2.42-3.75,0Z"/><path class="cls-1" d="M73.83,99.51c.08-.12.66-.82.66-.85s-.53-.27-.64-.09c0,0,.43,1.11.44,1.13a6.58,6.58,0,0,1,0,3.38l3.68.5a7,7,0,0,1,.77-3.29,10.78,10.78,0,0,1,1-1.64c0-.05.42-.36.42-.38s-.69-.22-.59-.31c-.12.11.26,2.84.27,3.17,0,1.12-.06,2.24-.06,3.35,0,2.41,3.74,2.42,3.75,0,0-2.8,1.09-9.13-2.78-9.9-4.14-.82-6.76,5.77-6.51,9,.15,2,3.1,2.64,3.68.5.66-2.41.44-5.68-1.11-7.73-2-2.69-4.79-1-6.24,1.28-1.31,2,1.94,3.92,3.24,1.89Z"/><path class="cls-1" d="M84.92,94.62c.22,3.17-.35,6.3-.39,9.46,0,2.41,3.72,2.41,3.75,0,0-3.16.61-6.29.39-9.46-.16-2.39-3.92-2.41-3.75,0Z"/><path class="cls-1" d="M88.52,98.7a17.63,17.63,0,0,1,4-2.52l-2.27-.29c.83,1.06.65,2.63.65,3.88a14.36,14.36,0,0,0,.43,4c.66,2.32,4.28,1.33,3.62-1-.48-1.66-.2-3.37-.33-5.06a7.83,7.83,0,0,0-1.71-4.49,1.88,1.88,0,0,0-2.27-.29,20.88,20.88,0,0,0-4.73,3.11c-1.69,1.73,1,4.38,2.65,2.65Z"/><path class="cls-1" d="M102.66,89.49c0,4.73.37,9.45.39,14.18h3.75a9,9,0,0,1,3.74-7.4l-2.75-1.12a28.24,28.24,0,0,1,.78,7.75c-.19,2.41,3.56,2.39,3.75,0a32.09,32.09,0,0,0-.91-8.74A1.89,1.89,0,0,0,108.66,93c-3.21,1.91-6,6.86-5.6,10.64.23,2.36,3.76,2.46,3.75,0,0-4.73-.37-9.45-.39-14.18,0-2.41-3.76-2.42-3.75,0Z"/><path class="cls-1" d="M112.91,96.59a14.66,14.66,0,0,0,.46,6.81,1.94,1.94,0,0,0,2.31,1.31A1.89,1.89,0,0,0,117,102.4a12.38,12.38,0,0,1-.33-5.81,1.89,1.89,0,0,0-1.87-1.87,1.92,1.92,0,0,0-1.87,1.88Z"/><path class="cls-1" d="M113.31,91.07v.39a1.87,1.87,0,0,0,3.75,0v-.39a1.88,1.88,0,0,0-3.75,0Z"/><path class="cls-1" d="M122,93.21c-3.85-1.13-5.38,4-5.07,6.9a1.9,1.9,0,0,0,2.37,1.81,8,8,0,0,0,4.63-4.54l-3.49-.95c0,3.59.69,7.19.33,10.78-.05.52,0,2-.46,2.37q-.57,1.48-2-.69a7,7,0,0,1,.82-1.42,41.33,41.33,0,0,1,4.13-4.43c1.65-1.76-1-4.42-2.65-2.65-2.14,2.28-5.53,4.78-6,8.08a4.89,4.89,0,0,0,5.89,5.37c6.56-1.38,3.79-12.95,3.77-17.42,0-1.76-2.67-2.69-3.49-.95-.54,1.13-1.06,2.34-2.39,2.82l2.37,1.81a31.43,31.43,0,0,1,.33-3.29c2.32.68,3.31-2.93,1-3.62Z"/><path class="cls-1" d="M125.92,84.76c0,3,.21,6,.46,9,.12,1.43.18,2.86.29,4.28,0,.44,0,.87.12,1.3s-.13,1.12.16.29l3.43-.45-.18-.4c-1-2.2-4.22-.29-3.24,1.89l.18.4c.72,1.59,3,.92,3.43-.45.56-1.61-.26-4.69-.39-6.34-.26-3.18-.49-6.34-.51-9.54,0-2.41-3.76-2.42-3.75,0Z"/><path class="cls-1" d="M129.81,97.14a12.93,12.93,0,0,1,1.58-1.77c.26-.24.3,0-.13-.15.23.07-.18-.29-.09,0-.1-.3.05.09.11.19a4.15,4.15,0,0,1,.43,1c.63,1.93.88,4.11,1.95,5.87,1.25,2.06,4.49.18,3.24-1.89-1.11-1.83-1.15-5-2.53-7.12a3.39,3.39,0,0,0-3.64-1.65c-1.85.45-3.11,2.2-4.17,3.65-1.42,2,1.83,3.83,3.24,1.89Z"/><path class="cls-1" d="M71.66,69.56c-4.91-2.38-8,4.95-6,8.66a1.88,1.88,0,0,0,2.12.86,10.49,10.49,0,0,0,5.62-4.9c1.15-2.12-2.08-4-3.24-1.89a6.59,6.59,0,0,1-3.38,3.18l2.12.86a3.06,3.06,0,0,1,.2-2.43,3.4,3.4,0,0,1,.7-1c.26-.27.3,0,0-.12,2.16,1,4.07-2.18,1.89-3.24Z"/><path class="cls-1" d="M69.09,72.12c1.46,2.32,1,6.2.51,8.74-.29,1.69-1.2,7-3.69,4.81l.48,1.82c1.36-3.26,5.26-5.57,8.41-6.8,2.22-.87,1.25-4.5-1-3.62-4.57,1.79-9.08,4.76-11,9.42a1.81,1.81,0,0,0,.48,1.82c9.08,7.83,12.57-12.55,9.06-18.1-1.29-2-4.53-.16-3.24,1.89Z"/></g></g></svg>