<svg xmlns="http://www.w3.org/2000/svg" viewBox="0 0 127.36 162.64"><defs><style>.cls-1{fill:#5853a3;}</style></defs><title>Asset 33</title><g id="Layer_2" data-name="Layer 2"><g id="Layer_1-2" data-name="Layer 1"><path class="cls-1" d="M21.44,12.31C19.55,0,4.57,5.37,1,13.77-1.29,19.25.48,26.82,4.66,31c6.09,6.07,14.15,2.48,20.16-1.66,2.2-1.51.11-5.13-2.1-3.6C18.47,28.65,12.17,32.62,7.61,28c-3-3-4.46-8.91-2.66-12.89,2.22-4.91,11.25-9.66,12.47-1.72.41,2.64,4.42,1.52,4-1.11Z"/><path class="cls-1" d="M30.25,8.69c5.52-3.43,4,5.88,3.59,9.07a60.26,60.26,0,0,0-.74,9.86c.06,2.66.08,6.78,2.39,8.66,2.78,2.27,5.77-.25,7.68-2.39s-1.15-5-2.95-2.95c-1.49,1.66-2.1,3-2.63.4a25.63,25.63,0,0,1-.31-5.83c.08-3.24.67-6.34,1-9.55C39,9.08,36.75-.26,28.15,5.09c-2.27,1.41-.18,5,2.1,3.6Z"/><path class="cls-1" d="M37,16.16c-3.86-5-12.82-2.92-13.33,3.73C23.17,26,31.19,26.79,34.47,23c1.76-2-1.18-5-2.95-2.95-.75.86-3.67,2.16-3.74.13-.09-2.41,4.15-3.8,5.59-1.94a2.16,2.16,0,0,0,2.85.75A2.1,2.1,0,0,0,37,16.16Z"/><path class="cls-1" d="M46.4,4.76A45.48,45.48,0,0,0,42.87,15.7c-.65,2.81-1.94,6.79-1,9.67.81,2.55,4.84,1.46,4-1.11-.73-2.29.69-6.11,1.23-8.33A39.51,39.51,0,0,1,50,6.86c1.25-2.37-2.35-4.48-3.6-2.1Z"/><path class="cls-1" d="M45.65,4.19a180.32,180.32,0,0,0,7.18,27.44c.54,1.56,3,2.22,3.81.5C61.23,22.75,62.86,12.46,66,2.56c.8-2.57-3.22-3.67-4-1.11C59,11,57.46,21,53,30l3.81.5A180.32,180.32,0,0,1,49.67,3.08c-.47-2.64-4.49-1.52-4,1.11Z"/><path class="cls-1" d="M73.88,14.11c-1.79,1.66-1,4.42-.19,6.37A83,83,0,0,0,77.35,28c1.22,2.39,4.82.28,3.6-2.1-.86-1.69-1.78-3.35-2.59-5.07a20.64,20.64,0,0,1-1.08-2.66A5.42,5.42,0,0,1,77,16.95c0-.33.11-.12-.14.11,2-1.83-1-4.77-2.95-2.95Z"/><path class="cls-1" d="M83.11,12.86C81.71,19.61,75.36,44.12,65,34.7l-1.47,3.56,2,0c2.68,0,2.68-4.13,0-4.17l-2,0a2.11,2.11,0,0,0-1.47,3.56C76.38,50.7,85,24.19,87.14,14c.54-2.62-3.47-3.74-4-1.11Z"/><path class="cls-1" d="M89.84,16.7C87.86,19.56,87,24,89,27.09c2.57,3.89,7.3,1.64,9.78-1.08,2.8-3.08,3.78-8,.76-11.28s-7.78-2.12-10.51,1c-1.76,2,1.18,5,2.95,2.95,1.15-1.32,3.17-2.83,4.61-1s.33,4.3-1.1,5.73a5.13,5.13,0,0,1-2.62,1.65c-.18,0-.2,0-.21-.05a2,2,0,0,1-.37-.55c-.77-1.85,0-4.12,1.1-5.65,1.53-2.21-2.08-4.3-3.6-2.1Z"/><path class="cls-1" d="M104.29,10.68c-1.6,5.64-3.58,20.38,6.48,19,7.93-1.11,6.88-13.85,6.85-19.5,0-2.68-4.18-2.69-4.17,0,0,2.51.07,5-.11,7.53-.15,2-.32,6.24-2.31,7.49-5.62,3.55-3.3-11.31-2.71-13.39.73-2.59-3.29-3.69-4-1.11Z"/><path class="cls-1" d="M9.74,47.62c-.07,10-2.61,19.91-.91,29.92,1.2,7,7,16.25,15.51,12.69,7.36-3.1,8.85-14.23,9.77-21,1.15-8.44,1.13-16.9,1.52-25.39.12-2.68-4-2.68-4.17,0-.3,6.61-.29,13.22-.89,19.82-.58,6.41-1.06,17-6.3,21.71-2.51,2.23-5.91,1.44-8.16-.87-3.09-3.16-3.51-8.56-3.67-12.71-.3-8.11,1.41-16.08,1.47-24.16,0-2.68-4.15-2.69-4.17,0Z"/><path class="cls-1" d="M63.86,54.68c.25-6.46-4.25-15.46-12.06-13.56-7,1.7-11.44,13-8.05,19.18,4.34,8,21.36-.63,20.38,11.57a12.8,12.8,0,0,1-8.35,10.74c-4.92,1.55-10.17-.34-10.42-6L41.8,78.06l1.12.89C45,80.61,48,77.68,45.88,76l-1.12-.89c-1.3-1-3.65-.5-3.56,1.47C41.51,83.74,46.93,87.92,54,87.2S66.89,80.5,68.1,73.48C69.39,66.07,64,60.3,56.62,60c-3.17-.12-7.69,1.5-9.45-2.39-1-2.23.18-6.2,1.21-8.23,4.46-8.77,11.58-1.75,11.31,5.26-.11,2.68,4.06,2.68,4.17,0Z"/><path class="cls-1" d="M75.44,44.36c.63,7.37-.27,14.65-.78,22-.29,4.21-1.44,10.58,1,14.47,1.67,2.71,4.65,3.12,7.6,3.17,7.57.13,14.94-2.1,22.55-1.71,2.68.14,2.67-4,0-4.17-5.73-.29-11.26.71-16.93,1.33-3.52.39-9.31,1.87-10.15-2.69-.88-4.78.12-10.24.52-15a102.49,102.49,0,0,0,.41-17.35c-.23-2.65-4.4-2.68-4.17,0Z"/><path class="cls-1" d="M77.52,61.11c8,.5,16-.76,23.89-1.63,2.64-.29,2.67-4.46,0-4.17-7.93.87-15.89,2.12-23.89,1.63-2.68-.17-2.67,4,0,4.17Z"/><path class="cls-1" d="M75.36,45.28c11.72-3.78,24.31-1.54,36.37-2.64,2.65-.24,2.68-4.41,0-4.17-12.44,1.14-25.38-1.12-37.48,2.79-2.54.82-1.46,4.85,1.11,4Z"/><path class="cls-1" d="M10.37,113.28c2-3.57,4.17-7.07,6.09-10.7l-3.27.42c2.15,2.7,3.29,5.85,5.74,8.33a2.11,2.11,0,0,0,3.27-.42c1.94-3.51,3.22-7.41,6.43-10H25.68c3.12,4,5.21,8.78,6.93,13.49.92,2.5,4.95,1.42,4-1.11a55.27,55.27,0,0,0-8-15.33c-.75-1-2.16-.64-2.95,0-3.5,2.82-5,7-7.08,10.84l3.27-.42c-2.4-2.42-3.63-5.68-5.74-8.33a2.1,2.1,0,0,0-3.27.42c-1.93,3.63-4.07,7.12-6.09,10.7-1.32,2.34,2.28,4.44,3.6,2.1Z"/><path class="cls-1" d="M49.83,97.66c-9.9-.84-14.2,13.87-4.27,17.19,4.27,1.43,10.89.44,13.38-3.73,2-3.34.77-7.56-1.76-10.24-3.58-3.79-9-4-13.29-1.31-2.25,1.44-.17,5.05,2.1,3.6,2.89-1.84,6.41-1.8,8.62,1.09,1.63,2.13,1.63,4.91-1,6.16-3.06,1.46-8.8,1.46-9.57-2.73-.67-3.65,2.36-6.16,5.76-5.87,2.67.23,2.66-3.94,0-4.17Z"/><path class="cls-1" d="M69.29,115.49c0-6.71.56-13.46-1.11-20L66.73,98c2.21-.43,10.92-2.27,11.37,1.43.52,4.21-9.63,4.39-12,3.56v4c7.71-1.07,13.76,7.25,21.74,6.12,2.65-.37,1.52-4.39-1.11-4-4.09.58-8.51-2.8-12.1-4.36-3.18-1.38-6.18-2.24-9.65-1.76-2.23.31-1.71,3.42,0,4,5.38,1.9,17.56,0,17.27-7.58C82,91.42,70.83,93,65.62,94a2.11,2.11,0,0,0-1.46,2.56c1.57,6.18,1,12.61,1,18.93,0,2.68,4.15,2.69,4.17,0Z"/><path class="cls-1" d="M94.44,94.31c0,5.55.06,11.09.61,16.61a2.2,2.2,0,0,0,1.53,2c4,1.4,8.9,1.14,13.07.89,2.84-.17,7.49-.09,9.31-2.72,1.53-2.21-2.08-4.3-3.6-2.1.38-.55-.62,0-.9.06a16.66,16.66,0,0,1-2.26.38,50.88,50.88,0,0,1-5.28.32c-3,.05-6.35.16-9.23-.85l1.53,2c-.55-5.53-.61-11.06-.61-16.61,0-2.68-4.17-2.69-4.17,0Z"/><path class="cls-1" d="M96,104.47c4.4-1.53,8.85-2.92,13.56-2.64,2.68.16,2.67-4,0-4.17-5.07-.3-9.94,1.14-14.67,2.79-2.52.88-1.44,4.91,1.11,4Z"/><path class="cls-1" d="M95.44,94.23a75.84,75.84,0,0,0,8.67-.93c2.8-.36,6.61-1.18,9.28.1,2.41,1.15,4.53-2.44,2.1-3.6-6.13-2.94-13.64.17-20.06.26-2.68,0-2.69,4.21,0,4.17Z"/><path class="cls-1" d="M27.4,126.32l.15.3a2.1,2.1,0,0,0,3.48.92c5.41-5.82-9.83-13.46-11.91-3.32-.91,4.46.51,10.23.73,14.77.27,5.75.88,12.32-1.35,17.76-1,2.48,3,3.56,4,1.11,2.11-5.15,1.79-11.29,1.6-16.74-.11-3.08-.3-6.16-.5-9.23-.07-1.11-.17-2.22-.28-3.33q-.15-1.11-.21-2.23-.5-3.88,5-1.73l3.48.92a5,5,0,0,0-.57-1.3c-1.43-2.26-5-.17-3.6,2.1Z"/><path class="cls-1" d="M15,139.55c4-2.33,9.2-3.16,13.6-1.42,2.5,1,3.58-3,1.11-4-5.38-2.13-11.9-1-16.81,1.84-2.32,1.34-.23,4.95,2.1,3.6Z"/><path class="cls-1" d="M41,130.18c-3.7,5-5.61,25.22,4.84,23.44,11.68-2,6.93-23.23-2.47-25.48a2.07,2.07,0,0,0-2,.54,16.38,16.38,0,0,0-2.51,3.68c-1.09,2.43,2.51,4.55,3.6,2.1a11.79,11.79,0,0,1,1.86-2.83l-2,.54c3.73.89,5.4,5.28,5.93,8.71.29,1.85.14,10.26-3.9,8.62-2.39-1-2-6.64-1.85-8.57.15-2.77.46-6.32,2.17-8.63s-2-4.25-3.6-2.1Z"/><path class="cls-1" d="M54.88,129.62c1.7,6.73,2.9,16,.49,22.62-.72,2,2.1,3.46,3.48,2l.72-.6c2.28-1.41.19-5-2.1-3.6a7.2,7.2,0,0,0-1.56,1.25l3.48,2c2.67-7.39,1.39-17.37-.49-24.84-.66-2.6-4.68-1.5-4,1.11Z"/><path class="cls-1" d="M56,130.16c2.16,8.92,7,16.63,11,24.82.94,1.95,3.84.89,3.89-1.05.2-8.92,3.08-17.53,2.81-26.49-.08-2.68-4.25-2.69-4.17,0,.27,8.94-2.61,17.57-2.81,26.49l3.89-1.05C66.75,145,62.06,137.63,60,129.05c-.63-2.61-4.65-1.5-4,1.11Z"/><path class="cls-1" d="M80.94,120.37a81,81,0,0,0-4.17,16.41c-.7,4.74-1.55,10.14,0,14.78,2.89,8.38,11.14,7.46,16.29,1.79,1.8-2-1.14-4.94-2.95-2.95-2.51,2.76-6.15,5.25-8.82,1.17-1.85-2.83-1.23-7.21-.94-10.36A77.13,77.13,0,0,1,85,121.47c.94-2.52-3.09-3.61-4-1.11Z"/><path class="cls-1" d="M74.27,148a41.93,41.93,0,0,0,13.59-1.16c2.59-.68,1.49-4.71-1.11-4a38.33,38.33,0,0,1-12.48,1c-2.68-.19-2.67,4,0,4.17Z"/><path class="cls-1" d="M110.48,129.6c-2.77-10-19.34-6.58-15.41,3.17,1.69,4.2,6.74,3.43,10.08,5.21,3.5,1.87,2.72,6.74,1.9,10.05-.52,2.08-1.37,5.36-3.82,5.37-2.78,0-3-3.47-2.9-5.83l-2.64,2,1,.29c2.39,1.21,4.5-2.39,2.1-3.6a5.74,5.74,0,0,0-2-.71,2.12,2.12,0,0,0-2.64,2c-.11,4.33,1.93,11.38,7.58,10.69s7.61-8.62,8-13.23c.45-5.09-.9-9.5-6-11.27-1.67-.58-6.38-.84-6.92-2.9-1.2-4.57,6.51-4.11,7.61-.15.71,2.58,4.74,1.49,4-1.11Z"/><path class="cls-1" d="M120.33,125.81c.09-2.18,3.23,2,2.67,4.28-.67,2.76-3.3,4.14-4.87,6.26-2.87,3.85-2.05,9.42-2,13.9,0,2.68,4.22,2.69,4.17,0-.05-2.88-.46-6,.12-8.88.49-2.34,2-3.41,3.52-5.08,2.62-2.94,4.34-6.83,2.8-10.71-2.17-5.48-10.32-7.06-10.62.24-.11,2.68,4.06,2.68,4.17,0Z"/><path class="cls-1" d="M118.25,162.64c2.68,0,2.69-4.17,0-4.17s-2.69,4.17,0,4.17Z"/></g></g></svg>