<svg xmlns="http://www.w3.org/2000/svg" viewBox="0 0 252.37 254.81"><defs><style>.cls-1{fill:#231f20;}</style></defs><title>Asset 12</title><g id="Layer_2" data-name="Layer 2"><g id="Layer_1-2" data-name="Layer 1"><path class="cls-1" d="M29.1,27.18l-.7,37.56c-.11,6,9.24,6,9.36,0l.7-37.56c.11-6-9.24-6-9.36,0Z"/><path class="cls-1" d="M24.79,29.18l20.48.23c6,.07,6-9.29,0-9.36l-20.48-.23c-6-.07-6,9.29,0,9.36Z"/><path class="cls-1" d="M23.44,71.87,40.53,73c6,.39,6-9,0-9.36L23.44,62.52c-6-.39-6,9,0,9.36Z"/><path class="cls-1" d="M57.4,24.61a154,154,0,0,0-3.61,20.13c-.71,6.36-1.78,13.72.27,19.93,3.32,10,17.91,13.59,21.69,1.94,1.86-5.74-7.17-8.2-9-2.49-.73,2.24-3.32-1.32-3.54-1.71-.82-1.43-.79-3.44-.83-5a83.9,83.9,0,0,1,.51-9.94A135,135,0,0,1,66.42,27.1c1.45-5.84-7.57-8.34-9-2.49Z"/><path class="cls-1" d="M50.73,52.26,68.49,50.2c2.53-.29,4.65-1.94,4.68-4.68,0-2.3-2.17-5-4.68-4.68L50.73,42.9c-2.53.29-4.65,1.94-4.68,4.68,0,2.3,2.17,5,4.68,4.68Z"/><path class="cls-1" d="M78.65,25.8l-.91,13c-.42,6,8.94,6,9.36,0l.91-13c.42-6-8.94-6-9.36,0Z"/><path class="cls-1" d="M108.17,32.61c-8.16-5-19,.7-18.28,10.58a12,12,0,0,0,7.35,10.18c1.68.78,5.62,1.26,6.45,3.1,1.25,2.77-2.39,4.38-4,1.91-3.28-5-11.38-.34-8.08,4.72,5.65,8.66,19.69,7.44,21.44-3.64A11.74,11.74,0,0,0,107.4,47.4c-2-1.16-6.71-1.62-7.86-3.67-1.6-2.86,1.62-4.43,3.91-3,5.15,3.14,9.86-4.94,4.72-8.08Z"/><path class="cls-1" d="M128.63,36.05l.24,25.7,9.19-1.24c-1.33-9.05,4-17.59,12-21.47l-7-4,2.1,25.68c.49,6,9.85,6,9.36,0L152.37,35a4.75,4.75,0,0,0-7-4c-12.1,5.87-18.22,19-16.3,32,.78,5.29,9.24,3.91,9.19-1.24L138,36.05c-.06-6-9.41-6-9.36,0Z"/><path class="cls-1" d="M161.47,34c.87,3.68-1.29,7.35-1.67,11a14.58,14.58,0,0,0,1.22,8.1,9.57,9.57,0,0,0,14.58,3.28c11.14-8.29,4.37-25.88-6.45-30.7-5.45-2.43-10.22,5.63-4.72,8.08a11.85,11.85,0,0,1,6.69,6.6c.74,2,1.74,7.68-1.12,8.5-2.15.62-.19-5.94.05-6.94.89-3.59,1.31-6.75.45-10.4-1.39-5.86-10.41-3.38-9,2.49Z"/><path class="cls-1" d="M186,4.52l-.49,25.18c-.15,7.56-1.34,16.08,1.46,23.3,4.21,10.84,20.07,14.91,24.63,2.05,2-5.69-7-8.13-9-2.49-.75,2.11-3.32,1.36-4.6.45-1.73-1.22-2.53-3.65-2.94-5.61-.93-4.45-.33-9.34-.24-13.83l.56-29.05c.12-6-9.24-6-9.36,0Z"/><path class="cls-1" d="M179.81,28.44l17.07-1.37c6-.48,6-9.84,0-9.36l-17.07,1.37c-6,.48-6,9.84,0,9.36Z"/><path class="cls-1" d="M28.18,92.82l32.1-1.91c6-.36,6-9.71,0-9.36l-32.1,1.91c-6,.36-6,9.71,0,9.36Z"/><path class="cls-1" d="M18.31,90l2.33,41.44c.13,2.37,2,4.89,4.68,4.68L51.4,134c6-.48,6-9.84,0-9.36l-26.08,2.09L30,131.42,27.67,90c-.34-6-9.69-6-9.36,0Z"/><path class="cls-1" d="M23.43,116l34.14-2.07c6-.36,6-9.72,0-9.36l-34.14,2.07c-6,.36-6,9.72,0,9.36Z"/><path class="cls-1" d="M70,88l-.82,38.24c-.13,6,9.23,6,9.36,0L79.4,88c.13-6-9.23-6-9.36,0Z"/><path class="cls-1" d="M71.39,86.51l9.73,25c1.42,3.65,6.32,4.79,8.55,1.12l15.24-25.07-8.72-2.36L100,122.78c.6,5.93,10,6,9.36,0l-3.81-37.56c-.45-4.44-6.15-6.59-8.72-2.36L81.59,107.93,90.14,109,80.41,84c-2.16-5.55-11.21-3.14-9,2.49Z"/><path class="cls-1" d="M111.95,84.56l2,37.56c.32,6,9.68,6,9.36,0l-2-37.56c-.32-6-9.68-6-9.36,0Z"/><path class="cls-1" d="M121.25,90.74c4.38-2.64,10.28-.27,10.28,5.22s-5.9,7.87-10.28,5.23c-5.17-3.12-9.88,5-4.72,8.08,10.46,6.31,24.35-.81,24.35-13.31S127,76.35,116.53,82.67c-5.15,3.11-.45,11.2,4.72,8.08Z"/><path class="cls-1" d="M146.21,87.6l25.27-4.08c5.93-1,3.41-10-2.49-9l-25.27,4.08c-5.93,1-3.41,10,2.49,9Z"/><path class="cls-1" d="M153.24,83.17l-.39,38.24c-.06,6,9.29,6,9.36,0l.39-38.24c.06-6-9.29-6-9.36,0Z"/><path class="cls-1" d="M181.88,83.15l15.73,16.37c4.18,4.35,10.79-2.27,6.62-6.62L188.49,76.53c-4.18-4.35-10.79,2.27-6.62,6.62Z"/><path class="cls-1" d="M212.41,73.43c-6,6.77-12,13.76-15.19,22.35-3.6,9.75-1.8,20.29-3.07,30.39-.75,6,8.61,5.9,9.36,0,1.09-8.69-.53-17.92,2.2-26.36C208.18,92.16,213.79,86,219,80c4-4.49-2.61-11.13-6.62-6.62Z"/><path class="cls-1" d="M30.83,154.84l-2.61,36.88c-.21,3,4.47,3,4.68,0l2.61-36.88c.21-3-4.47-3-4.68,0Z"/><path class="cls-1" d="M28.77,156.23a35.56,35.56,0,0,1,12.45-.7c3,.34,3-4.34,0-4.68a39.26,39.26,0,0,0-13.69.86c-2.93.7-1.69,5.21,1.24,4.51Z"/><path class="cls-1" d="M24.11,196.2l14.36-1.13c3-.23,3-4.91,0-4.68l-14.36,1.13c-3,.23-3,4.91,0,4.68Z"/><path class="cls-1" d="M52.35,149.35a168.69,168.69,0,0,0-5.89,19.29c-1.12,4.71-3.56,11.32-1.75,16.13,3,7.87,13.49,7.6,17,.43,1.31-2.7-2.72-5.07-4-2.36-2.72,5.6-8.77,3-8.69-2.72,0-3.34,1.24-7,2-10.24a168.05,168.05,0,0,1,5.89-19.29c1-2.83-3.48-4-4.51-1.24Z"/><path class="cls-1" d="M42.1,174.85c2.47-3.64,8.14-2.25,11.85-2.47,3.38-.2,6.43-1.09,8.75-3.65,2-2.23-1.28-5.55-3.31-3.31-3.28,3.63-9,1.89-13.32,2.46a10.66,10.66,0,0,0-8,4.61c-1.69,2.5,2.36,4.84,4,2.36Z"/><path class="cls-1" d="M68.42,154.1a10.52,10.52,0,0,1-.67,7.06c-1.28,2.71,2.75,5.08,4,2.36a15.71,15.71,0,0,0,1.14-10.67c-.71-2.92-5.22-1.69-4.51,1.24Z"/><path class="cls-1" d="M82.76,161c-5.56-.72-10.22,4.53-7.91,10,1.5,3.53,6.19,4.26,7,8.17a8.38,8.38,0,0,1-2.95,7.76c-.5.46-5.86,4.35-6.51,3-1.35-2.69-5.38-.33-4,2.36,3.32,6.63,13.67-1,16.17-4.8a12.59,12.59,0,0,0,1.84-9.61,10.79,10.79,0,0,0-2.27-4.54c-.4-.46-1.05-.81-1.41-1.29q-2.43-.92-1.21-3.71-1.35-3.64,1.29-2.67c3,.39,2.95-4.3,0-4.68Z"/><path class="cls-1" d="M111.84,158.65l.52-.56-2.28.6q-1-1.45-.25,1.51.08,1.93.1,3.87,0,2.9-.05,5.8c-.14,4.52-.53,9-1.08,13.49h4.68A47.94,47.94,0,0,1,120.25,160l-4.36-1.18,3,26.8c.33,3,5,3,4.68,0l-3-26.8c-.24-2.18-3.08-3.34-4.36-1.18a53.06,53.06,0,0,0-7.42,25.67c-.09,3.09,4.32,2.9,4.68,0,1-8,2.14-17.05.94-25.1-.45-3-3.12-5.91-5.88-2.92-2,2.21,1.26,5.52,3.31,3.31Z"/><path class="cls-1" d="M127.27,172.65c3.59-3.09,12.9-11.41,9.14-17a5.25,5.25,0,0,0-6.2-1.74c-3.2,1.19-4.61,4.6-5.57,7.63-1.8,5.63-2.88,15.07,2.08,19.52,5.72,5.14,11.74-1.05,14.54-6,1.49-2.62-2.55-5-4-2.36-.74,1.3-2.38,4.62-3.84,4.92a4,4,0,0,1-4.95-2.87,21.1,21.1,0,0,1,.1-9.76c.26-1.2.51-3.22,1.35-4.11q.26-2.13,1.82-.38l-.84,1.3c-.92,2.74-4.76,5.68-6.89,7.51-2.28,2,1,5.26,3.31,3.31Z"/><path class="cls-1" d="M146.84,148a17.29,17.29,0,0,0-6.46,21.67,2.34,2.34,0,0,0,3.2.84,23.87,23.87,0,0,0,9.68-23.93c-.47-2.7-4.48-1.9-4.59.62-.56,12.46-.86,25-1.72,37.4-.73,10.46-4.8,27.44-18.51,27-3.37-.1-7.18-2-6.31-6,.59-2.67,3.52-5.75,5.2-7.68a64.72,64.72,0,0,1,12.26-10.7c8.64-5.91,18.25-10.24,27.79-14.48,2.75-1.22.37-5.25-2.36-4-12.95,5.76-26.21,11.78-36.72,21.53-6.41,5.94-18.44,20.4-4.26,25.32,12.14,4.21,22.57-7.68,25.6-18.13,2.23-7.67,2.16-15.89,2.51-23.8l1.19-26.42-4.59.62a18.94,18.94,0,0,1-7.53,18.65l3.2.84A12.49,12.49,0,0,1,149.2,152c2.51-1.64.17-5.69-2.36-4Z"/><path class="cls-1" d="M166.59,143.31a20.4,20.4,0,0,0-8.2,9.7c-1.09,2.73-2.78,8.45-.34,11,6.9,7.16,12.93-15.85,13.42-19.16.35-2.37-3-4.43-4.27-1.8a20.8,20.8,0,0,0,3.35,23.16c2,2.24,5.32-1.07,3.31-3.31a15.9,15.9,0,0,1-2.62-17.49l-4.27-1.8a43.21,43.21,0,0,1-1.94,8.12,37.41,37.41,0,0,1-2,4.56s-2.79,5.37-1.38,4.79c-.29.12,1.35-7.13,1.73-7.85a15.57,15.57,0,0,1,5.54-5.87c2.53-1.61.19-5.66-2.36-4Z"/><path class="cls-1" d="M178.06,120.73l1.52,23c.41,6.14-.11,13.55,2.43,19.29,3.18,7.2,15.4,10.82,17.29.66.55-2.94-4-4.2-4.51-1.24-.75,4-4.66,3.23-6.87,1.27-1.56-1.37-2.12-3.68-2.53-5.64-.89-4.29-.78-9-1.07-13.38l-1.59-24c-.2-3-4.88-3-4.68,0Z"/><path class="cls-1" d="M177.7,151l11.64-2.59c2.94-.65,1.69-5.16-1.24-4.51l-11.64,2.59c-2.94.65-1.69,5.16,1.24,4.51Z"/><path class="cls-1" d="M199.61,143.56c3,0,3-4.68,0-4.68s-3,4.68,0,4.68Z"/><path class="cls-1" d="M197.93,148a35.22,35.22,0,0,1,.72,8.23c-.08,3,4.6,3,4.68,0a40.74,40.74,0,0,0-.89-9.48c-.62-2.94-5.13-1.7-4.51,1.24Z"/><path class="cls-1" d="M204.13,141.18a145.83,145.83,0,0,1,7.65,23.54c.64,2.74,4.34,1.84,4.59-.62a167.39,167.39,0,0,1,5.65-29c.83-2.9-3.68-4.14-4.51-1.24a174.6,174.6,0,0,0-5.82,30.23l4.59-.62a145.83,145.83,0,0,0-7.65-23.54c-1.15-2.73-5.68-1.53-4.51,1.24Z"/><path class="cls-1" d="M226.55,154.47c3.53-3.24,12.6-9.31,8.95-15.23-3.19-5.18-9.94-2-12,2.32-2.41,5.12-2.86,12.67,1.17,17.12,3.38,3.73,9.81,4.4,13.2.38,1.93-2.29-1.36-5.61-3.31-3.31s-5.57,1.37-7.09-1.11-1.25-6-.56-8.7c.39-1.54,1-4.2,2.92-4.61s1.79,1.33,1,2.56c-1.87,2.78-5.12,5-7.57,7.26-2.22,2,1.09,5.34,3.31,3.31Z"/><path class="cls-1" d="M53.56,207.9c-4.72-3.16-10.52-3.23-16-2.43-5.69.83-12.64,2.36-17.54,5.55-8.48,5.53-4.21,16.4,5.51,15.81,6.61-.4,12.47-3.73,19.28-1.93,5.49,1.45,7.77,6.48,4.56,11.36-2,3-5.66,5-8.84,6.45-10.88,4.81-32.87,4.76-36-10.12l-2.88,2.88a9.83,9.83,0,0,1,3.46,1.35c2.65,1.43,5-2.6,2.36-4A19.83,19.83,0,0,0,2.93,231a2.37,2.37,0,0,0-2.88,2.88c2.34,11.23,14.65,16,25,16.41S50.59,246.68,54.77,236c4.69-12-8.36-17.15-18.06-16.12-3,.32-5.85,1.26-8.81,1.86-1.79.36-4.75,1.08-6.41-.23-5.24-4.13,2.33-7.32,4.43-8.11,7.36-2.76,18.15-6.19,25.26-1.43,2.51,1.68,4.85-2.37,2.36-4Z"/><path class="cls-1" d="M68.83,204.74l-.55,28.15L68,246.49c0,2.49-.85,5.71,1.12,7.63a2.37,2.37,0,0,0,2.83.37l.26-.18a2.35,2.35,0,0,0,1.16-2l0-.36A2.4,2.4,0,0,0,71,249.58h-.22c-3-.1-3,4.58,0,4.68H71l-2.34-2.34,0,.36,1.16-2-.26.18,2.83.37c-.38-.37.25-4.35.27-5.29l.11-5.82L73.05,228l.45-23.3c.06-3-4.62-3-4.68,0Z"/><path class="cls-1" d="M71.16,210.71c4.28-2.09,9.66-4.91,14.58-3.33,5.46,1.76,6.64,7.38,2.07,11-6.37,5.08-16.33,6-24.14,5.61-3-.14-3,4.53,0,4.68,9.6.46,31.1-1.67,32-14.85.31-4.8-3.17-8.73-7.39-10.5-6.58-2.76-13.52.42-19.44,3.32-2.7,1.32-.34,5.36,2.36,4Z"/><path class="cls-1" d="M113.24,196.55c-5.85,19.07-18.58,35.09-24.45,54.17-.89,2.88,3.63,4.12,4.51,1.24,5.87-19.06,18.6-35.08,24.45-54.17.88-2.88-3.63-4.12-4.51-1.24Z"/><path class="cls-1" d="M124.27,205l3.35,4.15a2.35,2.35,0,0,0,3.31,0,2.39,2.39,0,0,0,0-3.31l-3.35-4.15a2.35,2.35,0,0,0-3.31,0,2.39,2.39,0,0,0,0,3.31Z"/><path class="cls-1" d="M133.4,218.2A137.91,137.91,0,0,0,144,234.45c1.37,1.86,2.77,3.7,4.09,5.6.49.71.94,1.46,1.48,2.14.38.48.7,2,.66.63l3.52-2-.26-.17c-2.28-1.94-5.6,1.35-3.31,3.31a5.27,5.27,0,0,0,1.21.9c1.53.67,3.58-.08,3.52-2-.08-2.89-3.75-6.58-5.36-8.75a150.67,150.67,0,0,1-12.08-18.23c-1.43-2.65-5.47-.29-4,2.36Z"/><path class="cls-1" d="M104,233.17c6.2.21,12.4.16,18.59-.23q4.4-.28,8.78-.76c1.14-.13,6.82-1.62,7.62-1.06l-.84-3.2-.26.35,3.2-.84-.25-.19c-2.44-1.78-4.77,2.28-2.36,4l.25.19c1.1.8,2.51.09,3.2-.84l.26-.35c.8-1.07.1-2.54-.84-3.2-1.24-.88-2.38-.55-3.81-.39-4,.47-8,1-12,1.37a190.4,190.4,0,0,1-21.52.43c-3-.1-3,4.58,0,4.68Z"/><path class="cls-1" d="M185.4,199.35c-2.39-9.64-14-9.05-20.64-4.29-7.37,5.27-10.87,15.08-10,23.92,1,9.49,6.57,18.9,15.51,22.82,8.52,3.74,18.85,1.83,25-5.23,2-2.26-1.32-5.58-3.31-3.31-10.83,12.4-28.09,3-31.82-10.61a23.75,23.75,0,0,1,2.2-18c2.89-5,15.9-14.47,18.49-4,.72,2.92,5.24,1.68,4.51-1.24Z"/><path class="cls-1" d="M201.61,191.09a199,199,0,0,1,1.38,48.8c-.17,1.85,2.09,2.81,3.52,2a44.83,44.83,0,0,1,19.84-5.61c3-.14,3-4.82,0-4.68a50.24,50.24,0,0,0-22.2,6.25l3.52,2a203.79,203.79,0,0,0-1.54-50c-.46-3-5-1.71-4.51,1.24Z"/><path class="cls-1" d="M200.46,218.61a19.3,19.3,0,0,1,10.73-4.88c3.67-.38,7.23.8,10.88.61,4.34-.23,8.28-2.5,9.28-6.94.66-2.93-3.85-4.18-4.51-1.24-1.38,6.12-13,2.41-17.49,3.13a24.36,24.36,0,0,0-12.21,6c-2.27,2,1,5.28,3.31,3.31Z"/><path class="cls-1" d="M203,192.53a113.75,113.75,0,0,0,24-5.76c2.81-1,1.6-5.54-1.24-4.51A108.37,108.37,0,0,1,203,187.85c-2.94.39-3,5.07,0,4.68Z"/><path class="cls-1" d="M215.49,130.87c9,0,9-14,0-14s-9,14,0,14Z"/><path class="cls-1" d="M231,115.87h-1a7.24,7.24,0,0,0-5,2.05,7.8,7.8,0,0,0-2.05,5,7.09,7.09,0,0,0,2.05,5,7.29,7.29,0,0,0,5,2.05h1a7.24,7.24,0,0,0,5-2.05,7.8,7.8,0,0,0,2.05-5,7.09,7.09,0,0,0-2.05-5,7.29,7.29,0,0,0-5-2.05Z"/><path class="cls-1" d="M245.59,129.9c9,0,9-14,0-14s-9,14,0,14Z"/></g></g></svg>