<svg xmlns="http://www.w3.org/2000/svg" viewBox="0 0 155.91 133.13"><defs><style>.cls-1{fill:#231f20;}</style></defs><title>Asset 51</title><g id="Layer_2" data-name="Layer 2"><g id="Layer_1-2" data-name="Layer 1"><path class="cls-1" d="M1.19,6.27c-.28,7.91,2.53,16,5.23,23.34.46,1.26,2.62,1.61,2.92,0a132.61,132.61,0,0,0,1.72-14l-3,.4a50.42,50.42,0,0,0,6.56,13.08c.61.8,2.09,1.15,2.62,0,3.34-7.29,3.5-15.41,6.29-22.86.68-1.83-2.24-2.62-2.92-.81-2.7,7.2-2.77,15.12-6,22.14h2.62A47.63,47.63,0,0,1,11,15.25a1.52,1.52,0,0,0-3,.4A124.86,124.86,0,0,1,6.42,28.8H9.34C6.74,21.73,4,13.89,4.22,6.27c.07-1.95-3-1.95-3,0Z"/><path class="cls-1" d="M24.11,25.55c3.36-.2,8.13-1.53,8.09-5.64s-4.9-3.85-7.4-2.19c-2.9,1.93-4.69,6.09-3.37,9.44,1.54,3.93,5.84,3.76,9.1,2.23,1.76-.83.23-3.44-1.53-2.62-1.55.73-3.92,1.31-4.75-.69-.76-1.81.3-4.06,1.61-5.32.6-.57,3.14-2.11,3.3-.67.2,1.82-3.84,2.36-5.05,2.43-1.94.12-2,3.15,0,3Z"/><path class="cls-1" d="M33.56,9.9a13.08,13.08,0,0,1,.35,4.44,1.52,1.52,0,0,0,3,0,15.48,15.48,0,0,0-.46-5.25c-.66-1.82-3.58-1-2.92.81Z"/><path class="cls-1" d="M43.25,7.08c-1.38,7.1-1.58,14.36-3.23,21.41-.44,1.9,2.48,2.71,2.92.81C44.6,22.24,44.79,15,46.17,7.88c.37-1.9-2.55-2.72-2.92-.81Z"/><path class="cls-1" d="M51.33,6.67a130.77,130.77,0,0,0-3.69,22.62c-.18,1.94,2.85,1.93,3,0A126,126,0,0,1,54.25,7.48a1.52,1.52,0,0,0-2.92-.81Z"/><path class="cls-1" d="M69.44,15.51c.13-.18,1.34-1.28.76-1.24s0,0,0,.56c0,.76.28,1.6.31,2.38a15.9,15.9,0,0,1-.74,5.52c-.69,2.39-.54,4.89,1.88,6.22s4.47.2,5.9-1.72c1.17-1.56-1.46-3.07-2.62-1.53-1.36,1.83-2.67.1-2.42-1.52.12-.75.47-1.45.65-2.18a12.53,12.53,0,0,0,.32-2,18.77,18.77,0,0,0-.26-5.4c-.28-1.29-.85-2.79-2.27-3.16-1.84-.48-3.18,1.3-4.11,2.59-1.14,1.58,1.48,3.09,2.62,1.53Z"/><path class="cls-1" d="M70.82,18.93c-1.16-1.12-2.87-2-4.44-1.13a4.85,4.85,0,0,0-2,3.45C63.92,23.6,64,28,67,28.74c2.16.53,3.82-1.58,4.87-3.13s-1.53-3.14-2.62-1.53a6.84,6.84,0,0,1-1.33,1.55c.31-.26-.47.25-.23.14s0,0-.11,0c-.34.09.34,0,0,0-.07,0,.41.07.09,0s.32.15.11,0,.11,0,0,0a.86.86,0,0,1-.18-.2c.11.35.09.15,0,0s-.1-.19-.15-.27.09.28,0,0-.09-.25-.12-.38-.11-.45-.16-.67-.06-.5,0-.09c0-.13,0-.26,0-.4a10.89,10.89,0,0,1,0-1.62c0-.31,0,0,0,0s0-.26.07-.38.12-.48.19-.72c0-.06.16-.42.06-.19s0-.07.06-.12l.16-.27s.12-.17,0,0,0,0,0,0,.29-.34.08-.09.27-.12,0,0,.32-.18,0,0,.16,0,.11,0-.31-.12,0,0c-.32-.16,0,0,.1.07s.35.24.24.15.29.26.37.34c1.4,1.35,3.55-.79,2.14-2.14Z"/><path class="cls-1" d="M82.68,10.81c-3.25.37-7.48,3.44-5.53,7.19.84,1.61,2.8,2.09,4.12,3.19a8.1,8.1,0,0,1,2.19,2.45c.92,2-.73,2.82-2.35,3.53-1.78.78-.24,3.39,1.53,2.62,3-1.32,5.22-3.75,3.71-7.13a11.17,11.17,0,0,0-3.2-3.84c-.62-.51-1.47-.86-2-1.38-1.81-1.65-.55-3.36,1.58-3.61,1.91-.22,1.94-3.25,0-3Z"/><path class="cls-1" d="M90.91,1c-1.65,4.24-.68,9-.51,13.45.16,4.05-.74,8.47.51,12.39.59,1.85,3.52,1.06,2.92-.81-1.15-3.61-.25-7.84-.4-11.59-.17-4.12-1.13-8.7.4-12.65C94.54,0,91.61-.78,90.91,1Z"/><path class="cls-1" d="M97,10.85a85.65,85.65,0,0,1-6.34,6.57,1.53,1.53,0,0,0,0,2.14c2.53,2.3,4.33,5.31,7,7.4,1.54,1.19,3.05-1.44,1.53-2.62-2.48-1.9-4.12-4.82-6.43-6.92v2.14A85.65,85.65,0,0,0,99.1,13c1.19-1.52-.94-3.68-2.14-2.14Z"/><path class="cls-1" d="M121.75,8.69c0-2.14-.09-5.74-2.59-6.59s-4.68,1.7-5.53,3.74c-2.73,6.56-1.14,14.95-1,21.84.05,1.95,3.08,2,3,0-.11-4.08-.45-8.15-.37-12.23A31.29,31.29,0,0,1,116,8.37c.16-.61.33-2,.92-2.43,2.28-1.48,1.8,1.57,1.8,2.75a1.52,1.52,0,0,0,3,0Z"/><path class="cls-1" d="M110.54,19.84a10.16,10.16,0,0,1,3.35-.63c.78,0,2.58-.28,3.25.24,1.52,1.19,3.68-.94,2.14-2.14-2.33-1.82-6.94-1.48-9.55-.39-1.77.74-1,3.67.81,2.92Z"/><path class="cls-1" d="M121.76,15.2c-1.26,2.92-2,7,.62,9.39a1.55,1.55,0,0,0,1.84.24c2.45-1.45,3.48-4.65,3.13-7.36-.38-2.9-2.82-4.41-5.44-2.81-1.66,1-.14,3.63,1.53,2.62.36-.22.58-.35.65-.29.34.26.31,1.2.31,1.58a4.3,4.3,0,0,1-1.7,3.65l1.84.24c-1.47-1.39-.86-4.07-.15-5.72s-1.85-3.32-2.62-1.53Z"/><path class="cls-1" d="M128.42,13.13c-.39,5.08,0,10.17-.09,15.25l3-.4c-1.35-4.69,1.95-10.56,6.71-11.77,1.89-.48,1.09-3.4-.81-2.92-6.34,1.61-10.62,9.25-8.82,15.5a1.52,1.52,0,0,0,3-.4c.12-5.09-.3-10.17.09-15.25.15-1.94-2.88-1.93-3,0Z"/><path class="cls-1" d="M4.63,39.43C2,45.5,1.36,52.58.83,59.11a1.53,1.53,0,0,0,1.51,1.51A43.5,43.5,0,0,0,12,59a1.52,1.52,0,0,0-.81-2.92,39.78,39.78,0,0,1-8.85,1.5l1.51,1.51c.48-5.93,1-12.63,3.39-18.16C8,39.19,5.4,37.64,4.63,39.43Z"/><path class="cls-1" d="M3.52,51c2.77,0,5.83.57,8.48-.46,1.8-.7,1-3.62-.81-2.92C8.81,48.54,6,48,3.52,48a1.52,1.52,0,0,0,0,3Z"/><path class="cls-1" d="M5.54,41.3c3.07,0,6.31-.6,9.29.35,1.86.6,2.66-2.33.81-2.92-3.27-1-6.73-.5-10.1-.46a1.52,1.52,0,0,0,0,3Z"/><path class="cls-1" d="M28.92,37.27c-3.77-2.54-11.41,1.84-9.84,6.64.72,2.18,3.28,3.64,5.17,4.67,1.3.71,2.84,1.33,1.82,3.08s-3.74,2.7-5.32,1.2c-1.41-1.34-3.56.8-2.14,2.14,3.48,3.3,9.93,1.09,10.82-3.67a4.19,4.19,0,0,0-2-4.45c-1-.74-2.27-1.19-3.33-1.92-1.34-.92-2.42-1.49-1.39-3.44.74-1.41,3.27-2.6,4.71-1.63C29,41,30.53,38.35,28.92,37.27Z"/><path class="cls-1" d="M33.81,40.5c4.31,0,8.61-.41,12.92-.4a1.52,1.52,0,0,0,0-3c-4.31,0-8.61.37-12.92.4a1.52,1.52,0,0,0,0,3Z"/><path class="cls-1" d="M37.14,39c.61,4.95-1.1,11.17,1.42,15.71.95,1.7,3.56.18,2.62-1.53-1.1-2-.83-4.8-.82-7A57.65,57.65,0,0,0,40.17,39c-.24-1.91-3.27-1.93-3,0Z"/><path class="cls-1" d="M54.91,37.77c0,5.25-.35,10.5-.4,15.75a1.52,1.52,0,0,0,3,0c.05-5.25.38-10.5.4-15.75a1.52,1.52,0,0,0-3,0Z"/><path class="cls-1" d="M52.79,56.6a37.5,37.5,0,0,0,7.63-2.17c1.76-.82.23-3.44-1.53-2.62A34.29,34.29,0,0,1,52,53.68c-1.9.44-1.09,3.36.81,2.92Z"/><path class="cls-1" d="M53.6,38.48A27.45,27.45,0,0,0,59.25,38a1.53,1.53,0,0,0,1.06-1.86,1.55,1.55,0,0,0-1.86-1.06,23.44,23.44,0,0,1-4.85.35c-1.95-.13-1.94,2.9,0,3Z"/><path class="cls-1" d="M68,55.54c1-6.14,3.5-12,3.36-18.28L68.52,38c1.82,3.41,2.41,7.14,5,10.13a1.52,1.52,0,0,0,2.14,0c2.86-3.65,6.42-6.63,8.08-11.06l-2.92-.81a144.54,144.54,0,0,0-1.27,20.07,1.52,1.52,0,0,0,3,0,138.9,138.9,0,0,1,1.17-19.26,1.52,1.52,0,0,0-2.92-.81C79.37,40.13,76,42.84,73.52,46h2.14c-2.34-2.69-2.88-6.41-4.53-9.51a1.53,1.53,0,0,0-2.82.76c.14,6-2.31,11.62-3.25,17.48-.31,1.91,2.61,2.73,2.92.81Z"/><path class="cls-1" d="M94.7,35.39c-2.42,3.21-3.94,7.39-5.46,11.07-1,2.47-3.61,7.12-2.22,9.84.89,1.74,3.5.2,2.62-1.53-.75-1.45,2.72-8,3.36-9.46,1.23-2.81,2.46-5.93,4.32-8.4,1.17-1.56-1.46-3.07-2.62-1.53Z"/><path class="cls-1" d="M94.89,36.15a52.59,52.59,0,0,0,2.6,10.4c.69,2,1.24,6.37,3.13,7.58a1.52,1.52,0,0,0,1.84-2.38l-.53-.52c-1.39-1.37-3.53.77-2.14,2.14l.53.52,1.84-2.38s-.83-3.17-1-3.54c-.39-1.11-.78-2.23-1.15-3.35a45,45,0,0,1-2.11-8.48c-.24-1.91-3.27-1.93-3,0Z"/><path class="cls-1" d="M91.16,47c2.56,0,5.11-.3,7.67-.4,1.94-.08,2-3.11,0-3-2.56.1-5.11.37-7.67.4a1.52,1.52,0,0,0,0,3Z"/><path class="cls-1" d="M106.46,37.46c2.71-1.36,7.77-1.62,10.59-.4,1.77.76,3.32-1.84,1.53-2.62a17.93,17.93,0,0,0-13.65.4c-1.74.87-.21,3.49,1.53,2.62Z"/><path class="cls-1" d="M109.84,35.75c0,5.89-.63,11.9,0,17.77.21,1.92,3.24,1.94,3,0-.63-5.87,0-11.88,0-17.77a1.52,1.52,0,0,0-3,0Z"/><path class="cls-1" d="M122,35.75a102,102,0,0,0-2.46,16.62c-.08.88.76,1.43,1.51,1.51a9.74,9.74,0,0,0,6-1.48c1.7-.95.18-3.57-1.53-2.62a7,7,0,0,1-4.46,1.06l1.51,1.51a97,97,0,0,1,2.35-15.81c.49-1.89-2.43-2.69-2.92-.81Z"/><path class="cls-1" d="M122.62,45.54a6.63,6.63,0,0,1,2-.24,10.14,10.14,0,0,0,2.47-.41c1.84-.61,1.05-3.54-.81-2.92-1.71.57-3.52.25-5.21,1a1.52,1.52,0,0,0-.54,2.07,1.56,1.56,0,0,0,2.07.54Z"/><path class="cls-1" d="M123.87,36.86h5.25a1.52,1.52,0,0,0,0-3h-5.25a1.52,1.52,0,0,0,0,3Z"/><path class="cls-1" d="M139.62,32.22c-3.63,0-9.49,3.36-7,7.79,1.19,2.13,4,2.74,5.26,4.91,2.06,3.55.15,6.66-3.91,6.68a1.52,1.52,0,0,0,0,3c4.23,0,7.92-2.31,7.8-6.92a9.3,9.3,0,0,0-2.07-5.45A12.42,12.42,0,0,0,137.32,40c-.45-.34-1.63-.82-1.86-1.32-1.24-2.66,2.82-3.48,4.17-3.49a1.52,1.52,0,0,0,0-3Z"/><path class="cls-1" d="M42.15,68.32c.66-.78,1.5-1.91,2.48-1a4.2,4.2,0,0,1,.8,2.87c-.08,1.8-1.16,3.42-1,5.27.37,4.15,5.29,3.94,7.41,1.37,1.23-1.49-.9-3.65-2.14-2.14-.57.69-1.91,1.84-2.27.35-.18-.76.46-2,.66-2.7A8.26,8.26,0,0,0,47.86,67c-1.56-3.88-5.39-3.68-7.85-.77-1.25,1.48.88,3.63,2.14,2.14Z"/><path class="cls-1" d="M45.07,70.79c-4.4-3.4-8.25,5.6-3.51,7.2,1.48.5,3.06-.19,4.31-1,1.66-1,.14-3.64-1.53-2.62a8.43,8.43,0,0,1-1,.53c.29-.13-.19.06-.25.08s-.23,0-.33.09c-.26.1.32,0-.1,0h-.27c.4,0,.2,0,0,0s.34.15.09,0,.2.18,0,0-.08-.24.06.09c0-.09-.11-.16-.14-.24s.06.35,0,.09a1.06,1.06,0,0,0-.07-.26c-.12-.31,0,.31,0,.05a3.77,3.77,0,0,0,0-.57c0-.28-.09.33,0,.07,0-.11,0-.22.07-.33s.3-.71.07-.27l.27-.5c.08-.14.23-.19,0,.06a2.51,2.51,0,0,0,.21-.22c.17-.19,0-.07-.08.05,0-.06.19-.11.25-.14-.11.06-.35.11-.1.06s-.44,0,0,0c.2,0,.19.12-.1,0l.27.08s-.26-.17,0,0l.34.23a1.52,1.52,0,0,0,2.07-.54,1.55,1.55,0,0,0-.54-2.07Z"/><path class="cls-1" d="M54.91,65.23c0,3.51-.82,6.91,0,10.4a1.52,1.52,0,0,0,3-.4,9.38,9.38,0,0,1,3.78-7.55l-1.84-.24c1.12,1.12.82,2.68.94,4.13A7.12,7.12,0,0,0,62,75.29c1.13,1.57,3.76.06,2.62-1.53-1.86-2.59-.19-6-2.66-8.46a1.53,1.53,0,0,0-1.84-.24,12.53,12.53,0,0,0-5.28,10.17l3-.4c-.71-3.17.1-6.4.14-9.59a1.52,1.52,0,0,0-3,0Z"/><path class="cls-1" d="M73.25,66.18c-4.5-3.84-8.88,4.54-6.36,8.15,1.76,2.52,4.78.25,6.17-1.43a16.87,16.87,0,0,0,3-14,1.53,1.53,0,0,0-2.92,0c-1.75,5.72-1.92,12.63,1,18,.92,1.72,3.54.19,2.62-1.53-2.49-4.66-2.16-10.75-.66-15.67H73.14a13.38,13.38,0,0,1-.5,7.46c-.41,1.27-1.85,5.26-3.69,5.29.93,0,.09.15.37-.75.16-.52.14-1.12.32-1.66s.74-2.34,1.47-1.72c1.48,1.26,3.63-.87,2.14-2.14Z"/><path class="cls-1" d="M5.84,76.59c-1.68,2.29-1.72,5.84-2,8.56C3.62,88,3.16,91,3.55,93.92c.64,4.68,4.07,10,8.31,4.7,1.2-1.51-.93-3.67-2.14-2.14-3,3.8-3.29-4.93-3.15-6.73.27-3.43-.23-8.73,1.89-11.62C9.61,76.54,7,75,5.84,76.59Z"/><path class="cls-1" d="M1.9,92.54c2-.35,4.1-1.16,6.06-.4s2.61-2.23.81-2.92c-2.5-1-5.17,0-7.67.4C-.82,90,0,92.88,1.9,92.54Z"/><path class="cls-1" d="M3.11,74C8,72.42,13,72.76,18,72.34c4.51-.38,8.84-1.38,13.36-.39,1.9.42,2.71-2.5.81-2.92-4.8-1.05-9.35-.12-14.16.28-5.35.45-10.54.11-15.72,1.74-1.85.58-1.06,3.51.81,2.92Z"/><path class="cls-1" d="M83.08,69.17c9.93-.33,19.82-1.74,29.73-2.48,9.11-.67,17.9-3.69,27.1-3.18v-3h-1.1a1.52,1.52,0,0,0,0,3h1.1a1.52,1.52,0,0,0,0-3c-9.22-.51-18,2.51-27.1,3.18-9.91.73-19.8,2.15-29.73,2.48-1.94.06-2,3.09,0,3Z"/><path class="cls-1" d="M14.52,79a160.58,160.58,0,0,1-1.15,21.72l3,.4c.16-2.85.9-6.42,3.4-8.18l-1.84-.24c2.32,2.26,1.11,7.13,1.52,10.12.26,1.92,3.18,1.1,2.92-.81-.53-3.88.83-8.41-2.3-11.46a1.53,1.53,0,0,0-1.84-.24c-3.47,2.45-4.67,6.72-4.9,10.79-.09,1.67,2.74,2.11,3,.4A166.32,166.32,0,0,0,17.55,79a1.52,1.52,0,0,0-3,0Z"/><path class="cls-1" d="M26.54,97.39c2.79-.68,9-3.43,6.65-7.25-1.87-3-7.13-3.17-9-.16-3.15,5,2.43,16.89,8.29,10.66,1.34-1.42-.8-3.56-2.14-2.14-2.82,3-4.47-3.93-4-5.89a2.2,2.2,0,0,1,1.28-1.73,3.25,3.25,0,0,1,2.73.57c.7.8-.89,1.43-1.59,1.82a12.43,12.43,0,0,1-3,1.2c-1.89.46-1.09,3.38.81,2.92Z"/><path class="cls-1" d="M35.93,88.26c0,3.87.39,7.77-.36,11.59-.37,1.89,2.4,2.71,2.92.81.81-3,1.06-7.35,4.08-9l-2.07-.54c1.53,2.84.73,6.6.68,9.68,0,1.95,3,2,3,0C44.27,97,45,93,43.11,89.56A1.54,1.54,0,0,0,41,89c-3.91,2.16-4.41,6.93-5.47,10.82l2.92.81c.81-4.11.5-8.23.47-12.4a1.52,1.52,0,0,0-3,0Z"/><path class="cls-1" d="M58.75,80.62c-2.51,4.2-2.13,11.27-1.8,16,.36,5.11,3.92,8.3,7.81,3.62,1.24-1.49-.89-3.64-2.14-2.14C59.54,101.8,60,92.95,60,91.33c.08-2.86-.15-6.64,1.36-9.18a1.52,1.52,0,0,0-2.62-1.53Z"/><path class="cls-1" d="M54.81,93.4a33.29,33.29,0,0,0,7.67-1.67c1.83-.64,1-3.57-.81-2.92a30,30,0,0,1-6.87,1.56c-1.92.2-1.94,3.23,0,3Z"/><path class="cls-1" d="M66.27,89.06a41.37,41.37,0,0,1,1.16,11.59c0,2,2.87,1.92,3,0,.3-3.7.43-9.43,4.1-11.49,1.7-1,.17-3.57-1.53-2.62-4.8,2.7-5.2,9.23-5.6,14.11h3a44.39,44.39,0,0,0-1.27-12.39,1.52,1.52,0,0,0-2.92.81Z"/><path class="cls-1" d="M75,97c2.73.13,6.65-.29,8.15-2.95,1.28-2.28.65-5.29-2.42-5.06-5.3.38-9.65,6.6-6.91,11.56,1.87,3.39,5.57,2.18,7.9,0,1.44-1.32-.71-3.46-2.14-2.14s-3,2-3.43-.31a5.12,5.12,0,0,1,2-5,6.79,6.79,0,0,1,2.34-1c.23,0,.71-.12.71-.06s-.41-.33-.35-.33c-.22,0,.26-.16-.06.07s-.31.92-.63,1.2a4,4,0,0,1-1.56.68A11.64,11.64,0,0,1,75,94c-1.95-.1-1.94,2.93,0,3Z"/><path class="cls-1" d="M84.29,84.12c5.33.62,3.4,8.48,4.06,12.38.55,3.3,2.95,6.34,5.9,2.93,1.27-1.47-.86-3.62-2.14-2.14-.55.64-.18.64-.3.55s-.27-.82-.34-1.11a16.19,16.19,0,0,1-.37-2.79c-.11-1.53,0-3.05-.05-4.59-.1-4.58-2-7.72-6.75-8.26-1.93-.22-1.92,2.81,0,3Z"/><path class="cls-1" d="M87.93,92c-2.67.79-4.66,3.37-3.63,6.2a3.37,3.37,0,0,0,2.36,2.28A3.34,3.34,0,0,0,90,98.71c1.07-1.63-1.55-3.15-2.62-1.53a1.27,1.27,0,0,1-.26.32s-.15,0-.14.1l.11,0q-.25.06.11,0c-.09,0,.09,0,.22.09-.07,0-.39-.17,0,0-.07,0-.39-.41-.11-.09a1.1,1.1,0,0,1-.17-.29c.14.38,0-.13-.05-.2s0-.16-.05-.24q0,.26,0,.09a3.8,3.8,0,0,1,0-.46c0,.35,0-.18.07-.26.08-.3-.1.15.06-.16a1.34,1.34,0,0,1,.52-.64,4.31,4.31,0,0,1,1-.46c1.86-.55,1.07-3.48-.81-2.92Z"/><path class="cls-1" d="M95.76,75.74C94.59,82,94,89.19,95.71,95.4c1.14,4.15,4.16,5.7,7.43,2.4A1.52,1.52,0,0,0,101,95.67c-1.64,1.65-1.83.64-2.37-1.07A18.88,18.88,0,0,1,98,90.49a52.81,52.81,0,0,1,.68-13.95c.36-1.91-2.56-2.72-2.92-.81Z"/><path class="cls-1" d="M94,91.79c2-.25,4-.64,6.06-.81s1.95-3.19,0-3-4,.56-6.06.81a1.57,1.57,0,0,0-1.51,1.51A1.52,1.52,0,0,0,94,91.79Z"/><path class="cls-1" d="M115.55,74.52c-1.13,3.95-1.22,7.93-1.47,12-.18,2.89-.93,5.94-.4,8.83.89,4.78,4.53,4.43,7.63,1.64,1.46-1.3-.69-3.44-2.14-2.14-3.75,3.36-2.4-4.25-2.22-6.13.41-4.51.27-9,1.52-13.4a1.52,1.52,0,0,0-2.92-.81Z"/><path class="cls-1" d="M113,89.72a6,6,0,0,1,4,0,1.53,1.53,0,0,0,1.86-1.06,1.55,1.55,0,0,0-1.06-1.86,8.69,8.69,0,0,0-5.65,0c-1.86.55-1.07,3.48.81,2.92Z"/><path class="cls-1" d="M123.57,74.93c-.09,7.09-1.18,14.13-.83,21.23.08,1.61,2.69,2.18,3,.4s1.22-6.87,3.07-6.56.88,5.82.84,7.54c0,1.95,3,1.95,3,0,.07-3.07,1.43-10.85-3.13-11.58s-6.23,6.72-6.73,9.79l3,.4c-.35-7.1.73-14.14.83-21.23a1.52,1.52,0,0,0-3,0Z"/><path class="cls-1" d="M136.8,92.54a6.54,6.54,0,0,0,5-4.55c.44-1.79-.32-4.08-2.48-4.06-2.32,0-4.25,2.56-4.82,4.58a8.31,8.31,0,0,0,.87,6.67c1.78,2.61,4.7,1.82,6.58-.21,1.32-1.43-.81-3.58-2.14-2.14-1,1.11-1.7,1.51-2.28,0a5.26,5.26,0,0,1,.35-4.51A17.37,17.37,0,0,1,139.37,87c0,.14-.6-.28-.52-.27s0,.14,0,.26A3.51,3.51,0,0,1,136,89.62c-1.89.47-1.09,3.39.81,2.92Z"/><path class="cls-1" d="M143,85.43c0,3.64-.46,7.26-.4,10.9,0,1.95,3.06,2,3,0-.06-3.64.37-7.26.4-10.9a1.52,1.52,0,0,0-3,0Z"/><path class="cls-1" d="M145.95,88.92c.24-.25,1.31-.89,1.43-1.19-.08.18-.35-.17-.38-.11a6.73,6.73,0,0,0,.31.85,9.29,9.29,0,0,1,.19,1.45c.12,1.87-.08,3.73-.1,5.59a1.52,1.52,0,0,0,3,0c0-2.61.42-5.27-.2-7.85A3.56,3.56,0,0,0,148,84.83c-1.66-.47-3.16.84-4.22,1.95-1.34,1.41.79,3.56,2.14,2.14Z"/><path class="cls-1" d="M150.62,88.62a14.83,14.83,0,0,1,.76-1.33s-.57,0-.56,0c-.2,0-.13-.14-.13-.09,0,.23.5.94.6,1.21a15.93,15.93,0,0,1,.47,1.62,25.5,25.5,0,0,1,.87,5.51c0,1.95,3.07,2,3,0a25.9,25.9,0,0,0-1.53-8.14c-.45-1.2-1.12-2.67-2.49-3-1.81-.44-3,1.32-3.65,2.71-.84,1.75,1.77,3.29,2.62,1.53Z"/><path class="cls-1" d="M7.64,116.24c4.15-3.5,4.26,2.24,3.74,5.14a50.41,50.41,0,0,0-1,6.6c-.2,4.28,2.34,6.95,6.13,3.74,1.73-1.47-.77-3.94-2.49-2.49-1.22,1,.06.53,0,.82a6.54,6.54,0,0,0-.11-1.34,19.69,19.69,0,0,1,.28-3.12c.27-1.84.76-3.66.93-5.51.24-2.66-.19-6-2.47-7.78-2.55-2-5.42-.29-7.5,1.47-1.73,1.46.77,3.94,2.49,2.49Z"/><path class="cls-1" d="M11.09,119.8c-3.68-.47-7.17,2.16-6.83,6.06a4.49,4.49,0,0,0,2.27,3.76c1.88,1,3.82,0,5.33-1.19a1.77,1.77,0,0,0,0-2.49,1.8,1.8,0,0,0-2.49,0,2.2,2.2,0,0,1-1.14.56c-.28,0,.42-.05,0,0s.07,0,.08,0-.41-.16-.14,0,0,0-.06,0c-.21-.12-.14-.06,0,0-.08,0-.2-.31-.1-.09s-.14-.26-.19-.35c.18.37,0-.11,0-.27s0-.24,0,0c0-.12,0-.23,0-.35s0-.19,0-.28-.07.3,0,0a5.11,5.11,0,0,1,.17-.64c.07-.19-.13.23,0-.06l.15-.26c.21-.36,0-.09.3-.36.1-.09.15-.14,0,0a3.27,3.27,0,0,1,.34-.22c.26-.15.08-.08.46-.19a4.77,4.77,0,0,1,1.86,0,1.77,1.77,0,0,0,1.76-1.76,1.8,1.8,0,0,0-1.76-1.76Z"/><path class="cls-1" d="M22.34,111.89c-3.62.77-6.71,5.85-4.46,9.28.88,1.34,2.68,2.22,4,3,.34.2,2.37,1,2.46,1.38,0-.06-2.49,2.24-2.61.68-.17-2.24-3.69-2.26-3.52,0,.43,5.79,8.83,4.75,9.71-.25.39-2.22-1.59-3.38-3.26-4.3a21,21,0,0,1-3.14-1.9c-1.72-1.39-.34-4.08,1.73-4.52s1.28-3.86-.93-3.39Z"/><path class="cls-1" d="M50.11,117.39c-3.32-7.76-13.33,5.16-9.66,10.12,2.66,3.6,8-.86,9.68-3.24,3.42-4.78,6.71-13.19,4.74-19.09a1.78,1.78,0,0,0-3.21-.42c-3.6,6.51-3.8,17.35-1.48,24.3.71,2.14,4.11,1.22,3.39-.93-2-6-2-16,1.12-21.59l-3.21-.42c1.51,4.51-2,18.14-7.74,19-.91.13-.52.54-.35-.79a9,9,0,0,1,1-2.76A7.68,7.68,0,0,1,46,119.11c1-.8.57-1.13,1.08.06.89,2.07,3.92.29,3-1.77Z"/><path class="cls-1" d="M59.85,121.44c3.69.29,10.53-1.08,10.24-6-.26-4.43-6.37-4.36-9.3-3-3.72,1.76-5,6.64-3.83,10.36,1.43,4.58,5.89,5.76,9.87,3.53,2-1.11.2-4.15-1.77-3s-4,.85-4.76-1.6c-.6-1.93-.17-4.73,1.64-5.9.71-.46,4.42-1.45,4.64-.07.31,2-5.61,2.25-6.73,2.17-2.26-.18-2.25,3.34,0,3.52Z"/><path class="cls-1" d="M74.85,112c3.3-.48,2.68,3.53,2.49,5.7a34.34,34.34,0,0,0-.22,5.21c.24,3.59,2.54,6.61,6.12,3.91,1.79-1.34,0-4.4-1.77-3-.67.5-1,.38-.51.77a1.69,1.69,0,0,1-.24-.92c0-.93-.12-1.86-.09-2.8.06-1.69.33-3.37.36-5.06.11-4.69-2.1-7.89-7.07-7.17-2.23.33-1.28,3.71.93,3.39Z"/><path class="cls-1" d="M78.55,116.29a4.52,4.52,0,0,0-7,3.13c-.51,2.51.21,6.1,3.12,6.75,2.06.46,3.93-1,5.22-2.44,1.51-1.68-1-4.17-2.49-2.49a9.35,9.35,0,0,1-1.09,1.07c.26-.21-.15.1-.21.14l-.42.24c-.3.16.33-.14-.13,0s.16.05,0,0-.41-.1.09,0c-.05,0-.32,0-.34-.09.17.44.35-.06,0,0,.14,0,.31.28.08,0s.13.26,0,0l-.2-.33c-.15-.23-.06-.16,0,.05,0-.13-.1-.26-.13-.4s-.06-.28-.1-.42c-.11-.41,0,.05,0,0,0-.28,0-.56,0-.85,0-.06,0-.54,0-.22s0-.15,0-.21.37-1,.13-.51c.09-.17.51-.75.15-.34l.27-.29q.16-.14,0,0t0,0c0-.09.7-.24,0,0l.4-.11c-.51.14-.16,0,0,0s.66.12.14,0l.53.14.28.1q-.27-.11,0,0a1.8,1.8,0,0,0,2.41-.63,1.77,1.77,0,0,0-.63-2.41Z"/><path class="cls-1" d="M91.68,113c-5.11-3.49-10.7,4.85-6,8.18,7.07,5.07,11.44-10.3,11.53-14.57a1.77,1.77,0,0,0-2.65-1.52c-5.42,3.61-4.82,15.06-4.54,20.68.11,2.25,3.63,2.27,3.52,0a60.27,60.27,0,0,1,.22-8.59c.22-2.33.36-7.57,2.58-9.05l-2.65-1.52c-.06,3.22-1.35,8.23-3.65,10.57-3.67,3.73-2.58-2.85-.08-1.15,1.87,1.28,3.63-1.77,1.77-3Z"/><path class="cls-1" d="M103.81,105.67c-2.21,3.28-2.71,8.49-3.34,12.28-.44,2.65-1.93,7.85.69,9.81,1.81,1.36,3.57-1.69,1.77-3,.93.7.22.13.38-.75.1-.59.06-1.23.11-1.83a56.47,56.47,0,0,1,1-6.08c.53-2.63.92-6.33,2.46-8.62,1.27-1.88-1.78-3.64-3-1.77Z"/><path class="cls-1" d="M111.13,115a44,44,0,0,0-1,10.31c0,2.26,3.49,2.26,3.52,0a39.92,39.92,0,0,1,.87-9.38c.56-2.19-2.83-3.13-3.39-.93Z"/><path class="cls-1" d="M112.94,107.49V108a1.76,1.76,0,1,0,3.52,0v-.47a1.76,1.76,0,0,0-3.52,0Z"/><path class="cls-1" d="M118.1,112.18c.08,4.23-.42,8.43-.47,12.66,0,2.26,3.49,2.27,3.52,0,0-4.22.55-8.43.47-12.66,0-2.26-3.56-2.27-3.52,0Z"/><path class="cls-1" d="M121.84,117.29c1-2,3-3.06,5.09-3.84l-2.16-1.23c1.1,4.17-2.85,10.13,1.35,13.4,1.76,1.37,4.27-1.1,2.49-2.49s-.77-4.17-.51-5.93a14.67,14.67,0,0,0,.07-5.92,1.77,1.77,0,0,0-2.16-1.23c-2.89,1.11-5.7,2.62-7.19,5.46-1,2,2,3.78,3,1.77Z"/><path class="cls-1" d="M133.46,118.57a6.91,6.91,0,0,0,8.86-5.34c.94-4.33-3.16-6.23-6.72-4.33-6.69,3.56-5.57,19.33,3.9,15.12,2.06-.92.28-3.95-1.77-3-4.36,1.94-2.9-6.84-1.08-8.53.42-.39,1.66-1.17,2.26-.84-.06,0-.08-.18,0,.21a2,2,0,0,1-.14,1,3.33,3.33,0,0,1-4.41,2.41c-2.14-.74-3.06,2.66-.93,3.39Z"/><path class="cls-1" d="M152.21,107.14c-4.25.46-6.84,3.88-5,8.07a6.36,6.36,0,0,0,3.51,3.52c4,1.8-.64,4-3.16,3.89-2.26-.06-2.26,3.46,0,3.52,3.92.1,9-2,8.34-6.74a4.39,4.39,0,0,0-2.84-3.48c-1.06-.51-1.94-.71-2.51-1.85-.84-1.67-.37-3.17,1.7-3.4,2.23-.24,2.25-3.76,0-3.52Z"/></g></g></svg>