<svg xmlns="http://www.w3.org/2000/svg" viewBox="0 0 160.19 110.65"><defs><style>.cls-1{fill:#231f20;}</style></defs><title>Asset 36</title><g id="Layer_2" data-name="Layer 2"><g id="Layer_1-2" data-name="Layer 1"><path class="cls-1" d="M41.73,3.06c-1.44,8.6-2,17.47-2.61,26.17-.2,2.91-.16,5.83-.29,8.74-.1,2.19.21,5.64-1.18,7.48-1.56,2.06,1.93,4.07,3.47,2,2.78-3.67,1.77-11,1.9-15.32a211.16,211.16,0,0,1,2.59-28C46,1.6,42.15.51,41.73,3.06Z"/><path class="cls-1" d="M43.13,7.14c3.07-1,9.44-3.15,12,.13,1.68,2.19.52,5.82-.43,8C52.73,19.87,45.9,29,40.27,24.14c-2-1.68-4.81,1.15-2.84,2.84,8.37,7.19,18-2.89,21.12-10.6,1.49-3.72,2.3-8.67-.61-12C54,0,46.86,1.75,42.06,3.27,39.6,4,40.65,7.92,43.13,7.14Z"/><path class="cls-1" d="M65.31,1.45C63,15.47,61,29.53,58.92,43.59a2.05,2.05,0,0,0,1.94,2.54c4.1.26,8.24-.87,12.28.13,2.51.62,3.58-3.25,1.07-3.88-4.44-1.1-8.85,0-13.35-.27l1.94,2.54c2.08-14.05,4.08-28.12,6.39-42.13C69.6,0,65.73-1.1,65.31,1.45Z"/><path class="cls-1" d="M73,36.1c6.92-8.65,11.1-19,15.09-29.24l-3.36.89c3.68,2.91,4.73,10.38,5.73,14.66,1,4.12,3.22,10.78,1.69,15-.89,2.43,3,3.48,3.88,1.07,1.78-4.87-.58-12.33-1.69-17.09-1.14-4.93-2.47-13-6.76-16.43a2,2,0,0,0-3.36.89c-3.72,9.53-7.6,19.41-14.06,27.47-1.6,2,1.22,4.86,2.84,2.84Z"/><path class="cls-1" d="M78.49,30.18A76.08,76.08,0,0,1,93,27.57c2.54-.29,2.57-4.31,0-4-5.23.59-10.5,1.16-15.54,2.75C75,27.08,76,31,78.49,30.18Z"/><path class="cls-1" d="M94.09,4.79c5.75,3.68,10.08,9.11,15.13,13.62,1.92,1.72,4.78-1.12,2.84-2.84-5.32-4.75-9.89-10.37-15.95-14.25-2.18-1.4-4.2,2.08-2,3.47Z"/><path class="cls-1" d="M124.77,2.17C119,6.7,114.87,13.61,108.56,17.4c-2.21,1.33-.2,4.81,2,3.47,6.65-4,10.94-11.1,17-15.85,2-1.59-.83-4.42-2.84-2.84Z"/><path class="cls-1" d="M107.1,15.92C104.18,23.8,106.88,33,107,41.1c0,2.58,4.07,2.59,4,0-.14-7.72-2.84-16.65-.07-24.11.9-2.43-3-3.48-3.88-1.07Z"/><path class="cls-1" d="M51.3,55.57A104.73,104.73,0,0,0,53.61,69.9a2,2,0,0,0,3.67.48c1.92-2.66,3.48-5.55,5.28-8.29H59.09c1.71,3.28,1.92,7.11,5.44,9.1a2,2,0,0,0,3-1.2c1.25-4.64,2.19-9.36,3.84-13.89.89-2.43-3-3.48-3.88-1.07-1.65,4.53-2.59,9.24-3.84,13.89l3-1.2c-2.44-1.38-2.77-5.31-4-7.66a2,2,0,0,0-3.47,0c-1.8,2.74-3.36,5.63-5.28,8.29l3.67.48a96.85,96.85,0,0,1-2.16-13.26C55,53,51,53,51.3,55.57Z"/><path class="cls-1" d="M75.49,58.79a27.94,27.94,0,0,0-.73,5.73A14.15,14.15,0,0,0,75,69c.72,2.48,4.6,1.42,3.88-1.07-.12-.42,0,.51,0-.25,0-.27,0-.54,0-.81,0-.77,0-1.55,0-2.32a22.58,22.58,0,0,1,.58-4.66c.65-2.51-3.23-3.57-3.88-1.07Z"/><path class="cls-1" d="M77.42,54.37H78a2,2,0,0,0,0-4h-.54a2,2,0,0,0,0,4Z"/><path class="cls-1" d="M85.06,43.25c-.12,5.89-3.16,34.69,10.53,24.24,2-1.55,0-5-2-3.47-1.83,1.4-3.15,2.4-4.19-.05-1-2.25-.89-5.11-.91-7.5-.05-4.43.54-8.81.63-13.22.05-2.59-4-2.59-4,0Z"/><path class="cls-1" d="M83.32,59.65a59.55,59.55,0,0,1,7.5-1c2.55-.27,2.57-4.29,0-4a68.13,68.13,0,0,0-8.57,1.14c-2.52.6-1.45,4.47,1.07,3.88Z"/><path class="cls-1" d="M99.06,40.57c-1.62,4.61-1.53,10.12-1.54,14.94,0,4.19-.31,9.58,1.74,13.41,1.23,2.28,4.7.25,3.47-2-1.82-3.39-1.24-8.86-1.19-12.56.06-4.13,0-8.74,1.39-12.68.86-2.44-3-3.5-3.88-1.07Z"/><path class="cls-1" d="M102.42,58.6A7,7,0,0,1,104.06,57c.29-.16.2-.13.39,0a9.64,9.64,0,0,1,1.4,2.71c.85,2.38,1.11,5.39,2.53,7.52s4.91.13,3.47-2a15.66,15.66,0,0,1-1.24-3.72,26.81,26.81,0,0,0-2-5.48A5.39,5.39,0,0,0,104.82,53c-2.17-.3-3.94,1.22-5.24,2.77-1.65,2,1.18,4.83,2.84,2.84Z"/><path class="cls-1" d="M29.74,54.63A38.53,38.53,0,0,0,18.26,57c-3.15,1.1-6.41,2.41-8.46,5.17-1.55,2.09-2.35,5-1.07,7.39,1.47,2.8,4.69,3.54,7.61,3.54,2.59,0,2.59-4,0-4-1.67,0-4.27-.18-4.23-2.39,0-2,2.09-3.5,3.62-4.32a33.37,33.37,0,0,1,14-3.74c2.58-.07,2.59-4.09,0-4Z"/><path class="cls-1" d="M11.93,57.66a77.94,77.94,0,0,1,4.82,7c1.34,2.21,4.82.19,3.47-2a77.94,77.94,0,0,0-4.82-7,2.08,2.08,0,0,0-2.75-.72,2,2,0,0,0-.72,2.75Z"/><path class="cls-1" d="M26.93,64.74a44.9,44.9,0,0,0-5,10.13c-.85,2.45,3,3.5,3.88,1.07a40.76,40.76,0,0,1,4.62-9.17c1.44-2.16-2-4.17-3.47-2Z"/><path class="cls-1" d="M36.17,69.17c-6.66,1.65-12.57,5.81-19.3,7a53.66,53.66,0,0,1-6.81.67,31.49,31.49,0,0,1-3.68,0,13.37,13.37,0,0,1-1.72-.17q-1.11-.56-.52.84c1.33-2.22-2.14-4.25-3.47-2-3.41,5.69,7.1,5.49,9.87,5.35a44.67,44.67,0,0,0,9.34-1.17c6-1.63,11.29-5.07,17.36-6.58,2.51-.62,1.45-4.5-1.07-3.88Z"/><path class="cls-1" d="M41,73.13c-4.35,2.06-8,5.83-11.25,9.33-3.05,3.32-6.15,7-7.89,11.16-1,2.39,2.9,3.43,3.88,1.07,1.58-3.82,4.76-7.18,7.55-10.14s6-6.16,9.74-7.95c2.34-1.11.3-4.57-2-3.47Z"/><path class="cls-1" d="M39.38,79.55a9.14,9.14,0,0,1,1.75,0c-.57-.05,1.12.21.38.07l.23.12q.27.18-.1-.1a.83.83,0,0,1,.25.24q-.29-.4-.12-.13t-.06-.18s.06.32.09.32q-.06-.52,0-.19,0,.12,0,.24t0,.24q.07-.49,0-.16c-.06.2-.38,1-.15.55a10.33,10.33,0,0,1-.51.91c0,.08-.46.62-.15.23l-.37.43a10.48,10.48,0,0,1-.88.85c-.4.35.33-.22-.11.09-.18.12-.35.24-.54.36s-.37.21-.56.3c-.37.19.34-.1-.09,0l-.58.18-.12,0-.51,0c-.56,0,.14.06-.18,0l-.42-.13c.5.18-.08-.06-.19-.14s-.17-.12,0,0l-.25-.23c-.06-.06-.39-.44-.15-.14a6.52,6.52,0,0,1-.82-1.47,2,2,0,0,0-2.75-.72,2.06,2.06,0,0,0-.72,2.75,6.44,6.44,0,0,0,4.34,3.95,7,7,0,0,0,5.26-1.17c2.6-1.72,5.74-5.64,3.93-8.91-1.16-2.1-3.73-2.46-5.9-2.25a2.07,2.07,0,0,0-2,2,2,2,0,0,0,2,2Z"/><path class="cls-1" d="M55.46,78.21a11.31,11.31,0,0,0-9.87,8.13c-1.25,5,3.45,8.27,8,7.85,8.63-.78,10.37-15.6.77-16-2.59-.1-2.58,3.92,0,4,4.4.17,2.61,7.37-.89,8-2.24.37-4.76-.9-3.86-3.37a7.31,7.31,0,0,1,5.82-4.58c2.57-.16,2.59-4.18,0-4Z"/><path class="cls-1" d="M75.28,78.82c-5.39-1.6-13.09,7.47-8.49,12,5.3,5.23,12.82-5.54,11.09-10.55-.78-2.26-3.65-1.66-3.95.53-1,7.59-1,20.51-8.79,24.72a10.75,10.75,0,0,1-8.5.49c-5.89-2.11-.62-5.67,3.12-6.64C66,97.74,72.66,98.21,79,97.16c2.55-.42,1.47-4.29-1.07-3.88-8,1.31-21.81-.76-27.39,6.65-4.31,5.72,3.31,10.18,8.26,10.63C75.1,112.07,76.41,92.32,77.95,80.8L74,81.33c.59,1.72-1.73,6.86-3.82,6.26-1.6-.46,1.87-5.54,4-4.9,2.48.74,3.55-3.14,1.07-3.88Z"/><path class="cls-1" d="M82.38,81.29A57.77,57.77,0,0,0,84.09,94L88,92.92c-1.62-4.89,1.69-9.43,6-11.5,2.33-1.12.3-4.58-2-3.47-5.9,2.82-10,9.52-7.86,16A2,2,0,0,0,88,92.92,52.76,52.76,0,0,1,86.4,81.29c0-2.58-4.06-2.59-4,0Z"/><path class="cls-1" d="M101.89,82.18c1.43-1.36,3-3.37,4.47-1.19a19.05,19.05,0,0,1,1.37,3,23.5,23.5,0,0,0,3.34,5.85c3.46,4,6.93,1.58,8.48-2.63.9-2.43-3-3.48-3.88-1.07-.59,1.59-.4,2.12-1.4,1.29a9.31,9.31,0,0,1-1.74-2.7c-.93-1.73-1.55-3.62-2.48-5.35-2.87-5.34-7.39-3.48-11,0-1.87,1.79,1,4.63,2.84,2.84Z"/><path class="cls-1" d="M110.59,83.31a6.83,6.83,0,0,0-5.83-.8,6.64,6.64,0,0,0-3.71,4c-1.09,2.82-.62,7.4,3,7.93,2.49.36,4.72-1.49,6.36-3.13,1.83-1.83-1-4.67-2.84-2.84-.36.36-.73.7-1.11,1l-.3.24s.23-.17,0,0-.36.25-.55.36l-.45.25-.25.12s.39-.13.18-.08l-.39.12c-.49.17.27-.09,0,0s-.27,0-.37,0c.13,0,.53.11.19,0s.48.27.1,0,.27.23.08.08c-.4-.32.18.35-.1-.11,0-.08-.22-.43-.06-.08s0-.06,0-.15,0-.22-.08-.33c-.12-.37,0,.1,0,.09a6.4,6.4,0,0,0,0-.79c0-.13,0-.25,0-.38,0-.46-.1.36,0,0s.12-.55.2-.82.09-.25.13-.37c.08-.3-.21.38,0,0l.42-.73c.24-.41-.16.11,0,0s.15-.17.22-.24l.32-.29c-.28.27-.21.15,0,0s.39-.15,0,0l.43-.14c.31-.09.42,0,0,0,.16,0,.33,0,.49,0,.52,0-.16-.08.12,0s.42.1.62.16l.21.07c.36.12-.19-.1,0,0s.47.23.69.36c2.25,1.29,4.27-2.18,2-3.47Z"/><path class="cls-1" d="M113.51,72.53c3.23,3.22,7.07,6,9.94,9.54,2,2.47,3.61,5.89,6.54,7.38,2.3,1.17,4.34-2.29,2-3.47-2.74-1.4-4.25-5.08-6.22-7.35-2.84-3.26-6.39-5.9-9.45-8.95-1.83-1.83-4.68,1-2.84,2.84Z"/><path class="cls-1" d="M119.88,74.8a7.64,7.64,0,0,1,1.57-1.89,4.58,4.58,0,0,1,.46-.28c.1-.06.42-.19.16-.09a4.22,4.22,0,0,1,.54-.16c.38-.09-.14,0,.09,0h.44c.51,0-.34-.11.15,0l.41.12c.22.07-.27-.15.07,0l.45.26c.32.19-.1-.1.08,0a5.59,5.59,0,0,1,.67.66c.25.28-.08-.12.05.07s.16.24.23.36.16.3.23.45c-.12-.25,0-.13,0,.06l.11.39c.14.47,0-.39,0,.09,0,.18-.05.88,0,.39a2,2,0,0,1-.12.44c.1-.24.09-.19,0,0s-.18.24,0,0a3.06,3.06,0,0,1-.36.35c.38-.31-.59.29-.26.14a5.74,5.74,0,0,1-1.35.35,2,2,0,0,0-1.4,2.47,2.06,2.06,0,0,0,2.47,1.4,5.76,5.76,0,0,0,4.89-4,7,7,0,0,0-6.86-8.19c-2.78.16-4.81,2.16-6.19,4.41s2.12,4.23,3.47,2Z"/><path class="cls-1" d="M117.8,59.14c4,3.76,9,6.72,13.6,9.6,2.9,1.8,8.18,6.16,11.93,5.38,2.53-.52,1.46-4.4-1.07-3.88,0,0-3-1.57-3.88-2-2.28-1.26-4.51-2.64-6.71-4-3.75-2.39-7.78-4.8-11-7.87-1.88-1.77-4.73,1.06-2.84,2.84Z"/><path class="cls-1" d="M134,66.48c-.94-.81-2-1.93-1.07-3.15s2.42-1.08,3.63-.55c2.25,1,4.12,3,6.74,2.85s2.59-4.14,0-4c-1.67.08-3.48-1.73-4.95-2.41a7,7,0,0,0-6.27-.15c-4.36,2.17-4.43,7.27-.92,10.28,2,1.68,4.81-1.15,2.84-2.84Z"/><path class="cls-1" d="M134.22,55.44c4.7,0,9.38.27,13.93-1.14,2.46-.76,1.41-4.64-1.07-3.88-4.2,1.3-8.53,1-12.86,1-2.59,0-2.59,4,0,4Z"/><path class="cls-1" d="M135.48,44.67c3,3.25,6.73,5.52,10.27,8.15a25,25,0,0,1,9.95,14.92,22.72,22.72,0,0,1-3,17.32c-1.94,3-8.53,5.79-7.87.3.35-2.93,3.36-6.08,5.09-8.22,10.72-13.29,16.19-34.49.3-46.34-2.07-1.55-4.08,1.94-2,3.47,13.24,9.88,8.1,28.52-.64,39.45-3,3.71-7.16,8.14-7,13.27.14,3.64,2.79,5.75,6.31,5.91,10.95.5,14.24-16.09,13-24.1a28.31,28.31,0,0,0-7.38-15.45c-4.29-4.41-10-7-14.25-11.53-1.77-1.89-4.61,1-2.84,2.84Z"/></g></g></svg>