<svg xmlns="http://www.w3.org/2000/svg" viewBox="0 0 163.54 211.2"><defs><style>.cls-1{fill:#030202;}.cls-2{fill:#fcfafc;}</style></defs><title>Asset 34</title><g id="Layer_2" data-name="Layer 2"><g id="Layer_1-2" data-name="Layer 1"><path class="cls-1" d="M124.68,6.81c-4.5-2-11.67-2.67-26-4-13.34-1.23-13.76-.1-30-1-21.31-1.18-25.48-3.41-34,0-2.81,1.12-10.73,4.29-15,12-3.36,6.06-2,10.41-2,24,0,6.33-.68,13.55-2,28-1.27,13.91-2,21.48-4,31-4.52,21.13-9,20.6-11,37-1.45,11.71-.31,21.13,1,32s2,16.41,5,21c4.44,6.86,11.65,10.64,28,15a254.33,254.33,0,0,0,51,8c29,1.86,43.71,2.67,53-3,14.6-8.92,19.58-25.12,22-33,7.83-25.5-1.83-37.76-12-89C139.24,37.25,140.88,14.06,124.68,6.81Z"/><path class="cls-2" d="M46,17c-3.13.94-4.07,8.15-4.72,10.65-1.36,5.27-3,11-3,16.47h2.5l.12.33c1.24-1-.54-2.79-1.77-1.77-.5.42-.88.76-.85,1.44a1.25,1.25,0,0,0,2.5,0c.05-4.39,1.29-9,2.3-13.21.46-1.93,2.13-11.06,3.61-11.51A1.25,1.25,0,0,0,46,17Z"/><path class="cls-2" d="M33.05,47.67a60.42,60.42,0,0,1,13.81-1.91,1.25,1.25,0,0,0,0-2.5,63.42,63.42,0,0,0-14.48,2c-1.57.35-.9,2.76.66,2.41Z"/><path class="cls-2" d="M36.13,19.42c4.21,0,8.59-.5,12.54,1.29,1.45.66,2.73-1.49,1.26-2.16-4.42-2-9.07-1.67-13.8-1.63a1.25,1.25,0,0,0,0,2.5Z"/><path class="cls-2" d="M56.88,30.52a26,26,0,0,0-.49,15.79c.48,1.53,2.89.88,2.41-.66a23.8,23.8,0,0,1,.49-14.46c.57-1.51-1.85-2.16-2.41-.66Z"/><path class="cls-2" d="M57.25,32.42c2.54-1.59,7.68-4,6.67,1.16-.46,2.33-2.76,6.29-5.39,3.89a1.25,1.25,0,0,0-1.77,1.77A66.47,66.47,0,0,0,65,47.34c1.2,1.07,3-.7,1.77-1.77a66.46,66.46,0,0,1-8.24-8.1l-1.77,1.77c4.32,3.93,8.79-.85,9.63-5.33.37-2,.15-4.39-1.72-5.56-2.71-1.69-6.4.48-8.68,1.91-1.36.85-.11,3,1.26,2.16Z"/><path class="cls-2" d="M71.47,31.34c-.14,4.88-2.91,10.66-.13,15.27,2.11,3.51,5.76.84,8.35-.53,1.42-.75.16-2.91-1.26-2.16-1.05.56-2.34,1.59-3.51,1.84-2.09.44-2.27-2.6-2.27-4.11,0-3.47,1.22-6.83,1.31-10.3a1.25,1.25,0,0,0-2.5,0Z"/><path class="cls-2" d="M70.61,39.37c2.37-.78,4.91-.85,7.32-1.46a1.25,1.25,0,0,0-.66-2.41c-2.41.62-4.95.68-7.32,1.46-1.52.5-.87,2.92.66,2.41Z"/><path class="cls-2" d="M71.74,30.15c2.28-.1,4.55.07,6.83,0,1.61,0,1.61-2.55,0-2.5-2.28.07-4.55-.1-6.83,0-1.6.07-1.61,2.57,0,2.5Z"/><path class="cls-2" d="M89.2,28.76c-2.8,5.38-4.9,11.57-4.56,17.7.09,1.6,2.59,1.61,2.5,0C86.82,40.77,88.76,35,91.36,30c.74-1.43-1.41-2.69-2.16-1.26Z"/><path class="cls-2" d="M89.07,29.23c1.35,5.48,1.73,11.18,3.41,16.58.48,1.53,2.89.88,2.41-.66-1.69-5.4-2.06-11.1-3.41-16.58-.38-1.56-2.8-.9-2.41.66Z"/><path class="cls-2" d="M86.72,38.07h0a1.26,1.26,0,0,0,1,2.28c1.31-.3,2.6-.68,3.9-1,1.57-.36.9-2.77-.66-2.41-1.31.3-2.6.68-3.9,1l1,2.28h0c1.41-.78.15-2.94-1.26-2.16Z"/><path class="cls-2" d="M97.36,16.86c-1.39,5-1.52,10.47-1.59,15.6-.05,4.23-.44,9.8,1.71,13.66.78,1.41,2.94.15,2.16-1.26C97.6,41.18,98.2,35.3,98.3,31.27c.11-4.54.25-9.34,1.48-13.74a1.25,1.25,0,0,0-2.41-.66Z"/><path class="cls-2" d="M99.69,47.54a12.15,12.15,0,0,1,4.58-1.34,1.26,1.26,0,0,0,.87-1.54,1.28,1.28,0,0,0-1.54-.87,13.73,13.73,0,0,0-5.18,1.59,1.25,1.25,0,0,0,1.26,2.16Z"/><path class="cls-2" d="M103.66,18.17c-.11,6.67-1.52,13.27-.94,19.95a1.27,1.27,0,0,0,1.58,1.21,18.18,18.18,0,0,1,4.51-.88c1.6-.11,1.61-2.61,0-2.5a21.86,21.86,0,0,0-5.17,1l1.58,1.21c-.59-6.68.83-13.28.94-19.95a1.25,1.25,0,0,0-2.5,0Z"/><path class="cls-2" d="M110.53,26.31c.94,3.55,1.71,7.13,2.44,10.73.32,1.58,2.73.91,2.41-.66-.73-3.6-1.5-7.18-2.44-10.73a1.25,1.25,0,0,0-2.41.66Z"/><path class="cls-2" d="M119,24.37c-2.57,5.17-4.52,10.71-6.58,16.09-1.13,2.95-2.25,5.9-3.27,8.88-.41,1.21-1.32,2.95-1,4.28.37,1.57,2.78.9,2.41-.66-.12-.53,1.22-3.57,1.53-4.44,1-2.81,2.06-5.61,3.13-8.39,1.87-4.85,3.63-9.84,5.94-14.49.72-1.44-1.44-2.7-2.16-1.26Z"/><path class="cls-2" d="M45.66,57.83c-2.44,6.08-1.75,12.91-2.41,19.31a1.25,1.25,0,0,0,.92,1.21,28.48,28.48,0,0,0,9,.09c1.58-.19,1.6-2.7,0-2.5a26.32,26.32,0,0,1-8.37,0l.92,1.21c.64-6.19,0-12.77,2.32-18.64.6-1.49-1.82-2.14-2.41-.66Z"/><path class="cls-2" d="M60.78,61.25a44.59,44.59,0,0,0-1.6,9.49c-.18,1.76-1.15,5.92.45,7.33,1.2,1.06,3-.7,1.77-1.77-.65-.57.31-5.9.43-6.93a37.87,37.87,0,0,1,1.35-7.46c.51-1.53-1.9-2.18-2.41-.66Z"/><path class="cls-2" d="M57.11,61.37h6.83a1.25,1.25,0,0,0,0-2.5H57.11a1.25,1.25,0,0,0,0,2.5Z"/><path class="cls-2" d="M60.37,79.37a19.11,19.11,0,0,1,3.45-.55,1.26,1.26,0,0,0,.33-2.46,11.08,11.08,0,0,0-6.4.11c-1.53.47-.88,2.89.66,2.41a8.74,8.74,0,0,1,5.07-.11l.33-2.46A22.77,22.77,0,0,0,59.7,77c-1.58.27-.91,2.68.66,2.41Z"/><path class="cls-2" d="M73,57.83c-1.65,5.86-3.71,13.75-1.46,19.69.56,1.49,3,.84,2.41-.66-2.1-5.55-.08-12.86,1.46-18.36A1.25,1.25,0,0,0,73,57.83Z"/><path class="cls-2" d="M75.06,68.81c4.6-5,10.75-8.57,16.82-11.51,1.45-.7.18-2.86-1.26-2.16C84.38,58.17,78,61.88,73.3,67c-1.09,1.18.68,3,1.77,1.77Z"/><path class="cls-2" d="M78.83,63.86c1.71,5.46,6,9.36,8.42,14.44.68,1.45,2.84.19,2.16-1.26-2.29-4.87-6.53-8.62-8.17-13.85-.48-1.53-2.89-.88-2.41.66Z"/><path class="cls-2" d="M98.29,59.14c.18,4-1.23,7.88-1,11.89.06,1.2-.22,3.67.74,4.67s2.9.92,4,1a22.23,22.23,0,0,0,7.12-1.19c1.53-.47.88-2.88-.66-2.41a24.91,24.91,0,0,1-5.1,1,12.6,12.6,0,0,1-2.92-.17c-1.11-.16-.45.06-.5-.07-.66-1.82-.22-4.72,0-6.58a46,46,0,0,0,.81-8.15c-.07-1.6-2.57-1.61-2.5,0Z"/><path class="cls-2" d="M99.39,69.13a21.57,21.57,0,0,1,9.42-1.91c1.61.11,1.6-2.39,0-2.5a23.19,23.19,0,0,0-10.09,2c-1.47.59-.83,3,.66,2.41Z"/><path class="cls-2" d="M100.36,60.84a28,28,0,0,1,8-.93c1.6.12,1.6-2.38,0-2.5a30.45,30.45,0,0,0-8.62,1c-1.57.33-.91,2.74.66,2.41Z"/><path class="cls-2" d="M64.32,82.9c-1.61,3.5-2.86,8-2.55,11.87.11,1.43.57,3,2.06,3.57,2,.69,4-1,5.38-2.21s-.55-2.8-1.77-1.77c-.61.52-2.29,2-2.92,1.46s-.26-2.78-.18-3.51a27,27,0,0,1,2.14-8.13c.67-1.45-1.49-2.72-2.16-1.26Z"/><path class="cls-2" d="M59.39,91.08c2.93-.57,6-.31,8.78-1.46,1.47-.6.83-3-.66-2.41-2.79,1.14-5.86.9-8.78,1.46-1.58.31-.91,2.72.66,2.41Z"/><path class="cls-2" d="M72.93,84v9.86a1.25,1.25,0,0,0,2.5,0c.08-1.44.7-4.15,2.47-4.29l-1.21-.92c.47,2.52.6,5,2.45,7,1.11,1.17,2.88-.6,1.77-1.77C79.46,92.34,79.47,90,79.11,88a1.25,1.25,0,0,0-1.21-.92c-3.37.27-4.81,3.79-5,6.79h2.5V84a1.25,1.25,0,0,0-2.5,0Z"/><path class="cls-2" d="M83.93,92.59c2.92-.11,7.56-1.56,6.94-5.4-.51-3.11-3.89-2.62-5.67-1-2.45,2.28-4.44,6.6-1,9C87.1,97.27,91.74,97,95,96c1.53-.49.87-2.9-.66-2.41-2.48.8-11.62,1.52-9-3.4.18-.34,2.69-3.92,3.11-2.5.56,1.9-3.58,2.4-4.5,2.44-1.6.06-1.61,2.56,0,2.5Z"/><path class="cls-2" d="M99.06,89.17a62.27,62.27,0,0,0,14.48-2.48,1.25,1.25,0,0,0-.66-2.41,59.41,59.41,0,0,1-13.81,2.39c-1.6.07-1.61,2.57,0,2.5Z"/><path class="cls-2" d="M53.84,89.28c-2.34-1.32-5.36-1.39-8-1.47a29.13,29.13,0,0,0-7.14.36c-1.57.36-.9,2.77.66,2.41a25.26,25.26,0,0,1,5.82-.29c2.34,0,5.26,0,7.36,1.14a1.25,1.25,0,0,0,1.26-2.16Z"/><path class="cls-2" d="M41.6,105.34c-3.49-7.74-13.77-5.73-14.94,2.45-1.26,8.73,8.92,13.58,15.23,7.84,1.19-1.08-.58-2.85-1.77-1.77a6.54,6.54,0,0,1-11-5.44,6.22,6.22,0,0,1,4.52-5.56c2.82-.63,4.77,1.35,5.84,3.74.66,1.46,2.82.19,2.16-1.26Z"/><path class="cls-2" d="M48.67,102.94c-3.39,2-4.91,6.52-4.21,10.31s3.95,5.47,7.45,3.81c4-1.88,5.34-6.55,4-10.57-1.19-3.62-4.75-6.11-8.23-3.54-1.28.94,0,3.11,1.26,2.16,2.37-1.75,4.13.27,4.73,2.66.71,2.81-.23,5.93-3,7.14-2.54,1.09-3.76-.76-3.84-3.14s.9-5.33,3.13-6.66a1.25,1.25,0,0,0-1.26-2.16Z"/><path class="cls-2" d="M61.22,104c.25,4.57-3.59,11.38-.35,15.53,2.3,2.94,6.95.55,9.74-.18a1.25,1.25,0,0,0-.66-2.41c-1.5.39-3,.94-4.47,1.27-1.83.41-2.83.18-3.15-1.9-.63-4.11,1.63-8.16,1.39-12.32-.09-1.6-2.59-1.61-2.5,0Z"/><path class="cls-2" d="M77.45,103.91c-3.95,1.7-5.36,7.09-4.11,10.93,1.39,4.27,6.33,5.35,9.9,2.89C90.37,112.81,83,99,75,104.4c-1.33.89-.08,3.06,1.26,2.16,5.27-3.55,10,5.52,5.77,9-2.51,2-5.88,1-6.51-2.14-.55-2.73.47-6.15,3.17-7.31,1.47-.63.2-2.79-1.26-2.16Z"/><path class="cls-2" d="M92,103.2c-.76,5.46-1.61,10.9-1.51,16.43a1.25,1.25,0,0,0,2.5,0,100.94,100.94,0,0,1,1.42-15.76c.22-1.57-2.19-2.25-2.41-.66Z"/><path class="cls-2" d="M95.3,103.63c2.28-1.12,11.09-2.29,8.2,2.81-1.69,3-8.75,4.67-11.32,2.13L91,110.66q.71.22,1.42.41a1.25,1.25,0,0,0,.66-2.41q-.72-.19-1.42-.41a1.26,1.26,0,0,0-1.22,2.09c3.93,3.89,14.05,1.62,15.73-3.75,2.34-7.52-7.83-7.22-12.1-5.11-1.44.71-.18,2.87,1.26,2.16Z"/><path class="cls-2" d="M99,111.48c3.11,4.35,10.33,8.37,15.37,4.84,1.31-.92.06-3.08-1.26-2.16-3.82,2.68-9.58-.63-11.95-3.94-.93-1.3-3.1-.05-2.16,1.26Z"/><path class="cls-2" d="M49.45,129.48c2.68-1.29,12.82-.13,10.79-6a4.1,4.1,0,0,0-5.4-2.39c-2.17,1-2.85,4-3.38,6.07-.79,3.13-1.32,9.16,2.42,10.71,3.2,1.32,8.54-2,6.45-5.66-2.39-4.21-8-2.7-8.81,1.71-.28,1.57,2.13,2.25,2.41.66.71-3.92,5.16-1.78,4.15-.09-.8,1.35-3.16,1.55-4,.31-.69-1-.64-2.61-.62-3.76a14.6,14.6,0,0,1,.51-3.61c.18-.64.4-1.29.63-1.91A7.93,7.93,0,0,1,55.2,124q3.92.46,2,1.46c-2.49,1.63-6.26.55-9,1.86-1.45.7-.18,2.86,1.26,2.16Z"/><path class="cls-2" d="M64.68,128.07c-1.09,3.4-1.51,9.83,3.7,9.63,4.6-.17,6-5.88,7-9.46a1.25,1.25,0,0,0-2.41-.66c-.63,2.33-1.33,6.46-3.9,7.47-3.7,1.44-2.51-4.64-2-6.32s-1.92-2.19-2.41-.66Z"/><path class="cls-2" d="M78.08,132.09c4.49,0,9.65,1,14-.53,1.51-.52.86-2.94-.66-2.41-4.09,1.41-9.08.47-13.33.44a1.25,1.25,0,0,0,0,2.5Z"/><path class="cls-2" d="M81.71,123c-.28,4.42-1.15,9-.26,13.4,1,5,4.74,5,8.25,2.12,1.25-1-.53-2.78-1.77-1.77s-2.56,2.17-3.58.66c-.86-1.28-.73-3.6-.74-5,0-3.14.41-6.23.61-9.35.1-1.61-2.4-1.6-2.5,0Z"/><path class="cls-2" d="M101.83,131.07c2.86-.92,7.36-2.49,10.26-1.1,1.44.69,2.71-1.46,1.26-2.16-3.65-1.75-8.55-.32-12.18.85-1.53.49-.87,2.91.66,2.41Z"/><path class="cls-2" d="M41.83,131.1c-4-.61-8-.09-12,0a1.25,1.25,0,0,0,0,2.5c3.78,0,7.61-.62,11.37,0,1.57.24,2.25-2.17.66-2.41Z"/><path class="cls-2" d="M35.49,146.71c-5.44-1.55-12.92,2.91-9.91,9.19,2.55,5.34,11.12,4.74,14.86,1.19,1.17-1.11-.6-2.88-1.77-1.77-2.4,2.28-7.92,3-10.31.3-3.68-4.22,2.9-7.52,6.47-6.5a1.25,1.25,0,0,0,.66-2.41Z"/><path class="cls-2" d="M45.25,148.15c1-.38,1.1,1.88,1.21,2.8.26,2,.28,4.09.57,6.12.48,3.36,2.48,5.66,5.6,3,1.22-1.06-.56-2.82-1.77-1.77-.39.34-.88.53-.8.58-.4-.22-.49-1.56-.55-1.95-.3-1.84-.31-3.73-.51-5.58-.25-2.32-1-6.89-4.42-5.56-1.49.57-.84,3,.66,2.41Z"/><path class="cls-2" d="M46.38,150.57a4.6,4.6,0,0,0-3.25,1.2,2.51,2.51,0,0,0-.46,2.7c.9,2.12,3.5,2.28,5.31,1.35,1.43-.74.17-2.89-1.26-2.16l-.23.12c.18-.07-.07,0-.1,0s-.54.12-.27.09a3.21,3.21,0,0,1-.41,0s-.31,0-.12,0,0,0-.06,0l-.22-.07c.08,0,.19.11.06,0s-.37-.23-.23-.12-.11-.13-.16-.17c.19.17.07,0,0-.09s.08.23,0,.1a.51.51,0,0,1,0-.14c0,.14,0,.19,0,0,0,.08-.05.3,0,.09,0-.05.08-.19,0,0s0,0,0,0-.18.08,0,0,.1-.09.12-.12-.13.08,0,0l.18-.1c.16-.08-.18.06,0,0a3.44,3.44,0,0,1,1.11-.21,1.28,1.28,0,0,0,1.25-1.25,1.26,1.26,0,0,0-1.25-1.25Z"/><path class="cls-2" d="M55.37,146.94c.18,3.57-1.38,7-.44,10.58a1.25,1.25,0,0,0,2.41-.66c-.86-3.23.7-6.62.53-9.91-.08-1.6-2.58-1.61-2.5,0Z"/><path class="cls-2" d="M56.28,150.95c.74-.47,3.35-2.48,4.35-1.79.53.37.42,2.17.45,2.7.16,2.88.24,6,2.47,8.16,1.16,1.11,2.93-.65,1.77-1.77C62.85,155.91,64,152,63.24,149c-1.17-4.27-5.79-1.8-8.22-.25-1.36.86-.1,3,1.26,2.16Z"/><path class="cls-2" d="M75.54,148.55c1.86,2.81,1.94,6.37,4.1,9,1,1.25,2.77-.53,1.77-1.77-2-2.42-2-5.92-3.71-8.53-.89-1.33-3.05-.08-2.16,1.26Z"/><path class="cls-2" d="M82.24,146.12c-1.16,4.42-1.64,9.63-4.13,13.56a13.42,13.42,0,0,1-2.39,2.69c-.74.67-3.15,2.93-3.21,1.15-.06-1.6-2.56-1.61-2.5,0,.18,4.79,4.41,3.23,7,1.08,5.34-4.51,6-11.42,7.69-17.82a1.25,1.25,0,0,0-2.41-.66Z"/><path class="cls-2" d="M89.2,147.77c-2.38,3.82-1.57,13,4.9,10.47,5.33-2.12,3.58-10.94-.62-13.32a1.29,1.29,0,0,0-1.51.2,7.14,7.14,0,0,0-2.4,3.93c-.36,1.57,2.05,2.23,2.41.66a5,5,0,0,1,1.76-2.82l-1.51.2c2.35,1.33,4.12,6.95,1.32,8.66-4,2.42-3.3-4.91-2.18-6.71.85-1.37-1.31-2.63-2.16-1.26Z"/><path class="cls-2" d="M100.78,145.63c-1.15,3.74-.92,11.79,4.64,11.6,2.51-.09,4.13-2,5-4.21.78-2,.56-4.49,1.46-6.42.67-1.45-1.48-2.72-2.16-1.26-1.22,2.65-.37,7.22-3.14,9-4.2,2.71-4-6.07-3.36-8,.48-1.54-1.94-2.2-2.41-.66Z"/><path class="cls-2" d="M29.15,167.68c-3.81-1.58-8.5-1-9.48,3.62-.68,3.23.66,7.64,4.1,8.75,2.37.76,4.65-.48,6.41-2,1.23-1-.55-2.81-1.77-1.77s-2.94,2.06-4.47,1.09A5,5,0,0,1,22,173.81,4.45,4.45,0,0,1,23.11,170c1.48-1.32,3.79-.53,5.38.13s2.13-1.8.66-2.41Z"/><path class="cls-2" d="M33,166.78c1.26,3.5-.2,7.45-1,10.91l2.41.66c.25-1.57,1.82-6.2,4-5.58,1.81.53.58,4.48.45,5.87-.16,1.6,2.34,1.59,2.5,0,.28-2.88,1.51-7.81-2.68-8.46-3.7-.57-6.15,4.53-6.62,7.5-.25,1.55,2,2.26,2.41.66.9-3.91,2.42-8.28,1-12.23-.54-1.5-3-.85-2.41.66Z"/><path class="cls-2" d="M51.85,171.67a3.67,3.67,0,0,0-5.42-.87,5.77,5.77,0,0,0-2.15,5.86c.4,1.83,1.82,3.32,3.8,2.82a6.24,6.24,0,0,0,3.77-3.62c.64-1.46-1.51-2.73-2.16-1.26-.35.79-2.21,3.64-2.86,1.92a3.21,3.21,0,0,1,.57-3.24c.61-.73,1.58-1.27,2.28-.35,1,1.26,3.14,0,2.16-1.26Z"/><path class="cls-2" d="M49.56,172.64c.67,3.16-.37,6.75,1.59,9.57.91,1.31,3.08.06,2.16-1.26-1.72-2.46-.74-6.14-1.34-9-.33-1.57-2.74-.91-2.41.66Z"/><path class="cls-2" d="M55.41,172.64a56.88,56.88,0,0,1,.93,6.36,1.25,1.25,0,0,0,2.5,0c0-1,.85-5.3,2.38-5,.75.15.7,1.64.73,2.22a18.41,18.41,0,0,0,.29,3.24c.37,1.56,2.78.9,2.41-.66-.59-2.48.39-7.46-3.64-7.29-3.26.13-4.56,4.87-4.67,7.49h2.5a62.89,62.89,0,0,0-1-7c-.36-1.57-2.77-.9-2.41.66Z"/><path class="cls-2" d="M73,171.59c-3.33-1.06-7.89,1.68-5.79,5.52,2.26,4.13,6.55,0,7.55-2.87l-2.41-.66c-1.28,5.22-1.32,15.53-7.43,17.52-5.29,1.72-14.46-2.68-18.49-6l-.25,2c9.2-5.33,20.52-.43,30.24-3.76,1.51-.52.86-2.93-.66-2.41-10,3.42-21.3-1.51-30.83,4a1.26,1.26,0,0,0-.25,2c4.77,4,14.53,8.53,20.86,6.79,7.56-2.09,7.75-13.3,9.24-19.38a1.25,1.25,0,0,0-2.41-.66q-2.23,3.6,0,.42c1.54.49,2.19-1.92.66-2.41Z"/><path class="cls-2" d="M80.85,176.44a15.45,15.45,0,0,0,8.76-4.13,1.26,1.26,0,0,0,0-1.77c-4-3.18-9.26-.45-10.06,4.4-1.34,8.06,9.59,6.32,14,4.91,1.53-.49.87-2.91-.66-2.41-2.37.76-11.49,3.42-10.9-1.93.31-2.77,3.38-5.18,5.87-3.21v-1.77A13.34,13.34,0,0,1,80.19,174c-1.59.23-.91,2.63.66,2.41Z"/><path class="cls-2" d="M102.68,169.87c0,3.28-1.07,7.88.66,10.87a1.25,1.25,0,0,0,2.16-1.26c-.71-1.24-.49-3.16-.47-4.53,0-1.7.14-3.39.15-5.08a1.25,1.25,0,0,0-2.5,0Z"/><path class="cls-2" d="M102.68,162.55a2.21,2.21,0,0,0,2.23,2.23,1.25,1.25,0,0,0,0-2.5h0a.47.47,0,0,1,.31.31q-.05-.21,0,0a1.28,1.28,0,0,0-1.25-1.25,1.26,1.26,0,0,0-1.25,1.25Z"/><path class="cls-2" d="M110.12,172c6.13-1.79,15.48.29,20.55-4.22,1.2-1.07-.57-2.83-1.77-1.77-2.47,2.19-7.26,2-10.34,2.28a48.22,48.22,0,0,0-9.1,1.3,1.25,1.25,0,0,0,.66,2.41Z"/><path class="cls-2" d="M118.34,146.61c-1.28,5.81-2.74,11.59-3.8,17.45-.73,4-1.85,8.77-1.13,12.86.89,5.1,7.43,9.64,11.9,5.54,1.19-1.09-.58-2.86-1.77-1.77-2.4,2.2-5,0-6.33-1.66s-1.48-3.22-1.45-5.32a55.15,55.15,0,0,1,1.19-9c1.07-5.86,2.52-11.64,3.8-17.45.35-1.57-2.06-2.24-2.41-.66Z"/><path class="cls-2" d="M132.13,158.56c3.35-2.69,5.46,1,5.49,4,0,2.33-1.41,4.33-2.66,6.2a15.69,15.69,0,0,0-3,8.94c-.06,1.61,2.44,1.61,2.5,0,.15-4.43,2.39-6.7,4.35-10.39a9.51,9.51,0,0,0,1-7.25c-1.33-4.78-5.58-6.3-9.4-3.24-1.25,1,.52,2.77,1.77,1.77Z"/><path class="cls-2" d="M134,186.45V186a1.25,1.25,0,0,0-2.5,0v.49a1.25,1.25,0,0,0,2.5,0Z"/></g></g></svg>