<svg xmlns="http://www.w3.org/2000/svg" viewBox="0 0 228.45 139.07"><defs><style>.cls-1{fill:#231f20;}</style></defs><title>Asset 40</title><g id="Layer_2" data-name="Layer 2"><g id="Layer_1-2" data-name="Layer 1"><path class="cls-1" d="M.5,21.36c-1.56,2.57,1,8.11,1.74,10.55C3.52,36,4.84,41,7.72,44.33a2,2,0,0,0,3.07-.4c2.47-4.15,2.61-9.23,5.46-13.16H12.88c2.49,5.07,3,10.62,7.24,14.71a2,2,0,0,0,2.76,0c5.83-6.35,6.77-15.93,9.86-23.67.93-2.34-2.85-3.35-3.77-1-2.8,7-3.58,16.2-8.85,21.94h2.76c-3.82-3.7-4.36-9.3-6.63-13.92-.71-1.44-2.59-1.09-3.38,0-2.88,4-3,9-5.46,13.16l3.07-.4C8.31,39.07,7.34,35,6.33,31.88c-.57-1.75-1.11-3.52-1.57-5.31a21.23,21.23,0,0,0-.89-3.24c1.31-2.16-2.07-4.12-3.38-2Z"/><path class="cls-1" d="M38.68,35.18c4.48-.87,9.17-1.08,12.92-4a2,2,0,0,0,.7-2.67C46.58,20,33.1,28.32,33.57,37c.54,10,13.67,7.88,20.23,6.49,2.46-.52,1.42-4.29-1-3.77C49,40.54,41,42.72,38.18,39c-4-5.3,7.14-13.9,10.74-8.51l.7-2.67c-3.46,2.66-7.86,2.77-12,3.57-2.47.48-1.42,4.25,1,3.77Z"/><path class="cls-1" d="M58.89,22.4c-1.33,1.85-1.94,4.12-2.8,6.2A2,2,0,0,0,57.45,31a2,2,0,0,0,2.4-1.37,24.79,24.79,0,0,1,2.41-5.27,2,2,0,0,0-.7-2.67,2,2,0,0,0-2.67.7Z"/><path class="cls-1" d="M70.09,16.09a128.1,128.1,0,0,1-1.68,19.79c-.41,2.81-2.72,10-.92,12.42a2,2,0,0,0,3.07.4l.39-.15c2.28-1.06.3-4.43-2-3.38a5.63,5.63,0,0,0-1.18.77l3.07.4c-.77-1.06.94-6.79,1.18-8.44.3-2.1.61-4.19.89-6.29A108.89,108.89,0,0,0,74,16.09c0-2.51-3.94-2.52-3.91,0Z"/><path class="cls-1" d="M81.11,15.57c-2.65,10.16-2.68,20.84-2.68,31.28,0,2.52,3.91,2.52,3.91,0,0-10.09,0-20.42,2.54-30.24.64-2.44-3.13-3.48-3.77-1Z"/><path class="cls-1" d="M98.24,30.69c0,4.6,0,9.2,0,13.8a2,2,0,0,0,3.84.52c1.28-4.28,2.86-10.66,7.56-12.39l-2.21-.9c1.57,3.44,1,7.4,2.57,10.9,1,2.3,4.37.31,3.38-2-1.51-3.48-1-7.4-2.57-10.9a2,2,0,0,0-2.21-.9C102.28,31.16,100,38.08,98.29,44l3.84.52c.07-4.6,0-9.2,0-13.8,0-2.52-3.91-2.52-3.91,0Z"/><path class="cls-1" d="M117.92,37.85a26,26,0,0,0,12.41-4,2,2,0,0,0,.7-2.67c-4.27-6.82-15.08-3.56-16.66,3.73-1.79,8.23,8,10.23,14,8.1,2.35-.84,1.34-4.62-1-3.77-2.62.94-9.37,1.71-9.24-2.71s7-7.48,9.59-3.39l.7-2.67a21.9,21.9,0,0,1-10.44,3.48c-2.51.08-2.52,4,0,3.91Z"/><path class="cls-1" d="M136.17,39.35c3.1-.72,6.25-1.64,8.47-4.07,1.4-1.54,2.76-3.89,2-6-1.65-4.89-9-2.21-11.25.64a10.29,10.29,0,0,0-1.28,10.71c2.13,4.13,6.61,4.06,10.32,2.21,2.25-1.12.27-4.5-2-3.38-1.74.87-3.83,1.36-4.89-.65a6.28,6.28,0,0,1,.1-5.22,5.2,5.2,0,0,1,1.71-2.14c.6-.42,3.11-1.51,3.64-.84-.12-.15-.35.73-.48,1a6.18,6.18,0,0,1-1.84,2,15.33,15.33,0,0,1-5.59,2c-2.45.57-1.41,4.34,1,3.77Z"/><path class="cls-1" d="M160.49,28.26c-10.07-9.4-18,16.53-6,13.48,5.62-1.42,8.49-9.15,10.26-13.91,2.22-6,4.67-13.5,4-20a2,2,0,0,0-3.64-1c-5.78,9.73-7.88,25.28-3,35.76,1.05,2.28,4.42.3,3.38-2-4.21-9.15-2-23.4,3-31.82l-3.64-1c.73,7.22-2.33,16-5.32,22.46-.82,1.77-3.88,8.61-6.73,7.74-2.38-.72,1.39-10.28,4.88-7,1.84,1.72,4.61-1,2.76-2.76Z"/><path class="cls-1" d="M41.49,50c-1.67,6.49-3.76,13.54-3.21,20.31.65,8,6.85,7.79,12.34,3.8,2-1.46.07-4.86-2-3.38-1.45,1.05-4.33,3.6-5.91,1.89-1.28-1.38-.6-5.46-.44-7.08a96,96,0,0,1,3-14.5c.63-2.44-3.14-3.48-3.77-1Z"/><path class="cls-1" d="M36.07,62.88c3.92,0,8.2-.85,12,.45,2.38.82,3.41-3,1-3.77-4.15-1.43-8.75-.65-13-.59-2.51,0-2.52,3.94,0,3.91Z"/><path class="cls-1" d="M65.79,56.88A10.28,10.28,0,0,0,55.25,65c-1.09,5.62,3.31,9.5,8.47,10.4,3.91.69,7.87-.57,9.61-4.36a11.33,11.33,0,0,0-.87-10.37c-2.57-4.1-7-4.93-11.31-3-2.3,1-.31,4.38,2,3.38,5.51-2.43,9.77,5.94,5.78,9.69-2.46,2.31-8.11.68-9.51-2.11-2.07-4.13,2.6-8,6.39-7.83,2.52.11,2.51-3.8,0-3.91Z"/><path class="cls-1" d="M106.4,57.67c-4.8-2.67-11-1-14.91,2.6-3.42,3.21-3.92,7.91.73,10.17,12.27,6,19.95-11.79,17.7-21.38a2,2,0,0,0-3.77,0,56.42,56.42,0,0,0-1.6,13.33c-.08,3.08-.51,8.16,2.48,10.12,2.11,1.38,4.07-2,2-3.38-1.48-1-.5-8.16-.41-9.57a47.8,47.8,0,0,1,1.32-9.47h-3.77c1.34,5.72-1.56,16.55-8.47,17.43-1.2.15-4.73-.05-5.07-1.66-.26-1.23,1.22-2.49,2-3.16,2.64-2.14,6.64-3.41,9.77-1.67,2.2,1.22,4.18-2.15,2-3.38Z"/><path class="cls-1" d="M116.93,56.11c-4,2.84-6.14,9.15-3.62,13.66s9.47,4.46,12.84.86c5.7-6.08-.59-20.86-8.58-13.18-1.82,1.75,1,4.51,2.76,2.76,3.86-3.72,5.08,5,3.23,7.43-1.51,2-5.54,2.63-6.88.15s-.09-6.7,2.21-8.31c2-1.43.09-4.83-2-3.38Z"/><path class="cls-1" d="M9.83,91c.85-1,2.18-2.81,3.58-3.17,1.19-.31,1.06.52,1,1.73-.09,3-1.9,5.77-1.51,8.87.79,6.29,8.41,6.07,11.29,1.56,1.36-2.13-2-4.09-3.38-2-1,1.5-3.16,2.38-4,.16-.47-1.29.35-3.22.69-4.47.66-2.42,1.34-5.23.18-7.63-2.5-5.14-8.41-.63-10.67,2.16C5.49,90.15,8.24,92.93,9.83,91Z"/><path class="cls-1" d="M13.65,94C10.25,92.75,7.12,95,6,98.15c-1,2.93.16,6.7,3.69,6.87,2.41.11,4.71-1.39,6.53-2.79a2,2,0,0,0,.7-2.67,2,2,0,0,0-2.67-.7,17.84,17.84,0,0,1-2.59,1.7l-.5.24c-.28.13.27-.1,0,0l-.22.08c-.32.1-.63.18-1,.25.54-.12-.12,0-.34,0s.49.08.12,0-.07,0,0,0a1.21,1.21,0,0,1-.23-.13c-.06,0,.38.34.1.06s0,0,.09.14c0-.1-.15-.18-.18-.29-.07-.29.07.44.06.14a1.31,1.31,0,0,0-.08-.26c0-.09-.09-.48,0-.11s0,0,0-.13,0-.44,0-.66c0,0-.11.45,0,.05,0-.12.05-.24.09-.36s.15-.45.23-.67c-.2.56.07-.12.2-.32s.13-.18.18-.28c.13-.26-.29.29,0,0l.54-.53s-.34.2,0,0a3.75,3.75,0,0,0,.37-.21c.21-.15-.39.09,0,0a3.36,3.36,0,0,0,.43-.11s-.41,0,0,0c.15,0,.32,0,.47,0s-.38-.11.1,0l.52.16A2,2,0,0,0,15,96.37,2,2,0,0,0,13.65,94Z"/><path class="cls-1" d="M44.81,80.79c-3.54,6.15-6.09,16.63-4.05,23.63,2.15,7.39,10,6.1,14.42,1.68,1.79-1.78-1-4.54-2.76-2.76-2,2-5.39,4.1-7.51,1-1.22-1.75-.75-5.1-.58-7.09.4-4.87,1.41-10.25,3.87-14.53,1.26-2.18-2.12-4.16-3.38-2Z"/><path class="cls-1" d="M34.51,96.76c4.7.11,9.38-.46,14.08-.52,2.51,0,2.52-3.95,0-3.91-4.7.07-9.37.63-14.08.52-2.52-.06-2.52,3.85,0,3.91Z"/><path class="cls-1" d="M59,100.15c4-1.75,11-2.38,11.9-7.65,1-5.47-5.7-5.67-9.2-4.1-5.1,2.29-6.73,9-4,13.69,3.16,5.43,9.94,6.23,14.84,2.75,2-1.44.09-4.84-2-3.38-3.16,2.24-7.35,2.35-9.5-1.35-1.7-2.92-.66-7.06,2.59-8.32.52-.2,2.89-1,3.34-.31s-1.18,1.82-1.73,2.13c-2.58,1.45-5.56,2-8.26,3.16-2.3,1-.31,4.38,2,3.38Z"/><path class="cls-1" d="M86.44,90.64c-.93-2.9-3.37-4.61-6.27-2.92A12.83,12.83,0,0,0,75,94.59a10.93,10.93,0,0,0,2.1,10c3,3.18,7,1.94,9.89-.61,1.9-1.66-.87-4.41-2.76-2.76-1.65,1.43-3.52,2.15-4.82,0a7.44,7.44,0,0,1-.64-5.57,9.67,9.67,0,0,1,2-3.33A4.9,4.9,0,0,1,82.31,91c.24-.11.37,0,.16-.11-.37-.13.12.54.2.78.76,2.39,4.54,1.37,3.77-1Z"/><path class="cls-1" d="M92.05,79.17c-3.25,8.28-2.66,18.81-2.68,27.6h3.91v-.49c0-2.52-3.91-2.52-3.91,0v.49c0,2.52,3.91,2.52,3.91,0,0-8.43-.57-18.67,2.54-26.56.92-2.34-2.86-3.36-3.77-1Z"/><path class="cls-1" d="M91.8,95.45c1.82-1.32,7.37-5.82,8-1.27.42,3.14-.42,6.35-.49,9.48-.06,2.52,3.85,2.52,3.91,0,.09-4,1.82-9.34-.59-13-3.3-5-9.28-1.12-12.78,1.4-2,1.46-.07,4.85,2,3.38Z"/><path class="cls-1" d="M124.5,84.9c-2.64-9.58-13.4,0-10.08,7,2.14,4.53,9.24,2.29,9.82,7.37.52,4.56-5.07,14-9.4,7.73l-3.07,2.37a15.15,15.15,0,0,0,3.09,2.77c2,1.5,4-1.89,2-3.38a6.42,6.42,0,0,1-2.3-2.16c-1.37-1.73-4.33.55-3.07,2.37,5.2,7.52,12.9,3.24,15.66-4,1.23-3.24,1.69-7.39-.49-10.35a7.26,7.26,0,0,0-4.8-2.75c-.67-.15-2-.06-2.6-.45q-2.57-2.09-1-4.7.63-2.23,2.53-.76c.67,2.42,4.44,1.39,3.77-1Z"/><path class="cls-1" d="M132.65,81.78c-.74,11.07-.41,22.16-.55,33.24,0,2.33,3.09,2.49,3.84.52l.55-1.44c.89-2.35-2.88-3.37-3.77-1l-.55,1.44L136,115c.14-11.08-.19-22.17.55-33.24.17-2.51-3.74-2.5-3.91,0Z"/><path class="cls-1" d="M134.42,89.93c1.55-1.87,3.56-.56,4.83,1a4.1,4.1,0,0,1,.67,4.8c-.7,1.42-5,7.22-6,3.72-.73-2.4-4.51-1.38-3.77,1,1,3.13,3.49,4.87,6.69,3.61s5.6-4.24,6.88-7.2c1.45-3.36.33-6.79-2.21-9.33-2.75-2.75-7.06-3.75-9.81-.44-1.6,1.92,1.15,4.7,2.76,2.76Z"/><path class="cls-1" d="M147.25,84.38v17.85h3.91v-.12c0-2.52-3.91-2.52-3.91,0v.12c0,2.52,3.91,2.52,3.91,0V84.38c0-2.52-3.91-2.52-3.91,0Z"/><path class="cls-1" d="M148.16,78.52c2.52,0,2.52-3.91,0-3.91s-2.52,3.91,0,3.91Z"/><path class="cls-1" d="M157.22,66.14c-3.36,13.9.86,28-.6,42.08-.23,2.17,3.5,2.7,3.84.52a4.52,4.52,0,0,1,.53-1.94c.93-2.34-2.85-3.36-3.77-1a4.52,4.52,0,0,0-.53,1.94l3.84.52c1.42-13.66-2.8-27.53.46-41,.59-2.44-3.18-3.49-3.77-1Z"/><path class="cls-1" d="M165.76,79.75c-2.69,4.06-6.7,7-10,10.53a2,2,0,0,0-.31,2.37c1.54,2.93,4.79,5.2,7.31,7.2,2,1.56,4.28,3.93,6.73,4.67s3.45-3,1-3.77c-1.56-.47-4.26-3.05-5.76-4.26-2-1.63-4.72-3.47-6-5.81L158.56,93c3.51-3.83,7.68-6.95,10.57-11.32,1.39-2.1-2-4.06-3.38-2Z"/><path class="cls-1" d="M172.14,94.09c4-.62,12.4-1.5,13.4-6.46,1.22-6.05-6.41-6.23-10.25-5.05-5.57,1.7-9.18,7.92-6.51,13.53,3.37,7.08,12.25,5.12,17.9,2.49,2.28-1.06.3-4.43-2-3.38-3.4,1.58-9.78,3.77-12.23-.45-2.16-3.71.77-7.61,4.36-8.56,1.38-.37,7.22-.48,3.75,1.57-2.74,1.62-6.39,2.06-9.49,2.55-2.48.39-1.43,4.16,1,3.77Z"/><path class="cls-1" d="M8.78,133.05a46.83,46.83,0,0,1,9.76-10.63l-3.93-.51c2.7,4.17,2.77,9.13,6.2,12.95a2.54,2.54,0,0,0,3,.39c3.16-1.69,5.31-4.31,8.16-6.39,5.17-3.77,5.42,3.54,7.73,6.46,4.77,6.05,10.79-1.6,14.94-4.22,4.32-2.72,4.86-2.15,7.62,1.4,2.15,2.76,4.74,5.92,8.45,6.38,5.91.74,12.77-10.82,17.56-8.12,1.76,1,2.51,4.23,4,5.7A9.4,9.4,0,0,0,99.88,139c7-.78,10.1-8,15.67-11.15s7.25,8.5,14.22,5.85c8.31-3.16,14.37-18.06,24.13-9.8,6.23,5.26,11.64,12.87,21,11,7.54-1.55,8.23-9.87,12.32-15l-3.93-.51c2.19,3.55,4.66,6.94,8.6,8.62a2.55,2.55,0,0,0,3.76-2.16c1.45-10.93,4.84-21.43,6.8-32.26s2.33-21.57,3.16-32.38c.82-10.59,3.39-20.27,6.6-30.35,2.94-9.27,5.62-18.59,5.55-28.4,0-3.22-4.94-3.22-5,0-.4,22.09-.67,44.22.94,66.27.77,10.6,1.9,21.24,3.29,31.77a84.56,84.56,0,0,0,2.83,14.61c1.1,3.45,3.51,7,3.63,10.71.1,3.21,5.1,3.22,5,0s-1.54-6.11-2.69-9a65,65,0,0,1-3.46-14.15c-1.69-11.2-2.78-22.62-3.6-33.91-1.6-22.05-1.34-44.18-.94-66.27h-5c.08,10.26-3.09,19.91-6.17,29.57a127,127,0,0,0-6,29.17c-.88,11.34-1.24,22.75-3.54,33.92-2.12,10.27-5,20.3-6.42,30.72l3.76-2.16c-3.19-1.36-5-4-6.8-6.83-.76-1.24-2.89-1.82-3.93-.51-4.11,5.19-5.31,15.48-13.9,13.49-8.28-1.91-11.52-12.36-20.19-13.59-8.19-1.15-13.33,7.26-19.27,11.27-4.49,3-4.92-1.36-7.89-3.84a7.12,7.12,0,0,0-7.14-1.19c-6,2-10,11.56-16.38,11.63-5.32.06-5.27-8.17-11.08-8.57-3.12-.21-6.24,1.48-8.67,3.26-3.08,2.25-6.06,6.83-10,3.95-4.82-3.56-5.9-10.53-13.16-7.93a22.16,22.16,0,0,0-5.44,3C49,129,47.29,131.37,45.48,132c-2.67.88-2.79-2-3.6-3.92a8.33,8.33,0,0,0-2.83-3.86c-6.93-5.22-12.3,3.84-17.75,6.76l3,.39c-3-3.3-3-8.23-5.42-11.94a2.55,2.55,0,0,0-3.93-.51A51.2,51.2,0,0,0,4.46,130.53c-1.83,2.66,2.5,5.16,4.32,2.52Z"/></g></g></svg>