<svg xmlns="http://www.w3.org/2000/svg" viewBox="0 0 239.27 281.26"><defs><style>.cls-1{fill:#6cc;}</style></defs><title>Asset 3</title><g id="Layer_2" data-name="Layer 2"><g id="Layer_1-2" data-name="Layer 1"><path class="cls-1" d="M56.56,3.11l-2,74.68c-.11,4.14,6.32,4.14,6.44,0L63,3.11c.11-4.14-6.32-4.14-6.44,0Z"/><path class="cls-1" d="M41.75,8.1l42.48.06c4.14,0,4.15-6.43,0-6.44L41.75,1.66c-4.14,0-4.15,6.43,0,6.44Z"/><path class="cls-1" d="M76,17.27,74.68,71.34c-.1,4.14,6.34,4.14,6.44,0L82.4,17.27c.1-4.14-6.34-4.14-6.44,0Z"/><path class="cls-1" d="M81.88,48.52c2.09-8,11.53-3.75,13.85,1.53,3.05,6.94.17,14.64-2.16,21.35-1.36,3.92,4.86,5.61,6.21,1.71,3.61-10.42,6.93-24.4-3.23-32.44-7-5.57-18.49-3-20.88,6.13-1.05,4,5.16,5.72,6.21,1.71Z"/><path class="cls-1" d="M120.34,48c10.76-1.73,24.88-6.33,23.38-20-1.47-13.32-16.87-12.64-22.79-2.71-3.65,6.11-5.66,14.58-6.45,21.57-.71,6.25.3,12.76,4.2,17.87,6.63,8.68,21.58,8.58,25-3,1.19-4-5-5.68-6.21-1.71-1,3.27-4.4,5-7.71,4.59-4-.47-6.72-4-8-7.51-2.92-7.75.29-17.56,3.06-24.94,1.34-3.56,5-10.2,9.93-7.85,2.82,1.34,3,5.22,2.3,7.88-2.07,7.32-12.13,8.55-18.4,9.56-4.08.66-2.35,6.86,1.71,6.21Z"/><path class="cls-1" d="M41.07,117.15c9.34-.74,22.15-4,21.08-16-1-10.84-14.52-10.59-19.94-3.4-5.88,7.81-6.89,23.31-.52,31.08,5.2,6.35,16.77,7.13,20.76-1,1.82-3.7-3.73-7-5.56-3.25-2.48,5-9.21,2.45-11.33-1.52-2.51-4.7-1.74-11.33-.48-16.28.68-2.67,1.85-5.79,4.43-7.19,3.48-1.89,7.05.31,6,4.3-1.56,5.94-9.51,6.39-14.45,6.78-4.1.32-4.14,6.76,0,6.44Z"/><path class="cls-1" d="M68.91,95.78l-1,34.77c-.12,4.14,6.32,4.14,6.44,0l1-34.77c.12-4.14-6.32-4.14-6.44,0Z"/><path class="cls-1" d="M77.14,97.52c4.12-4.34,9.38,1.06,7.45,5.9-2.06,5.19-8.14,5.27-12.61,3.57-2.83-1.08-4.79,2.46-3.63,4.73C73.58,122,84.63,148.28,100.15,135c3.15-2.7-1.42-7.24-4.55-4.55C85.94,138.7,76.75,114,73.92,108.47l-3.63,4.73c9.5,3.62,21.75-1.45,21.28-12.9C91.17,90.75,79.25,86,72.59,93c-2.85,3,1.69,7.56,4.55,4.55Z"/><path class="cls-1" d="M101.4,95.78l-2.65,29.6c-.37,4.12,6.07,4.1,6.44,0l2.65-29.6c.37-4.12-6.07-4.1-6.44,0Z"/><path class="cls-1" d="M100.28,96.36l13,27.76c1.2,2.57,5.21,1.75,5.88-.77L127.77,91c1.07-4-5.14-5.72-6.21-1.71l-8.64,32.39,5.88-.77-13-27.76c-1.75-3.75-7.3-.49-5.56,3.25Z"/><path class="cls-1" d="M137,94.51l.13,32.18c0,4.14,6.45,4.15,6.44,0l-.13-32.18c0-4.14-6.45-4.15-6.44,0Z"/><path class="cls-1" d="M133.62,96.11l7.73,1.25a3.32,3.32,0,0,0,4-2.25c.42-1.54-.52-3.68-2.25-4l-7.73-1.25a3.32,3.32,0,0,0-4,2.25c-.42,1.54.52,3.68,2.25,4Z"/><path class="cls-1" d="M130.6,134l12.87-1.29c4.08-.41,4.13-6.85,0-6.44l-12.87,1.29c-4.08.41-4.13,6.85,0,6.44Z"/><path class="cls-1" d="M155.63,90.64l-1.32,39.91c-.14,4.14,6.3,4.14,6.44,0l1.32-39.91c.14-4.14-6.3-4.14-6.44,0Z"/><path class="cls-1" d="M159.5,88.61l15.07,34.19c1.06,2.41,5.51,1.91,5.88-.77l4.87-34.56c.57-4.05-5.63-5.8-6.21-1.71l-4.87,34.56,5.88-.77L165.06,85.36c-1.67-3.78-7.21-.51-5.56,3.25Z"/><path class="cls-1" d="M224.28,94.41c2-14-14.53-16.78-23.41-9.35-8.09,6.78-10.15,19.06-5.91,28.51,4.35,9.69,18.39,17.43,26.82,7.75,7.11-8.17-2.29-21.61-11.89-15.17-2.48,1.66-1.77,6.16,1.62,6l20.72-1c4.12-.2,4.15-6.64,0-6.44l-20.72,1,1.62,6c3.09-2.08,6.11,1.66,4.33,4.66-2,3.35-6.42,3.47-9.62,2-4.85-2.28-7.75-7.22-8.44-12.39a18.73,18.73,0,0,1,2.81-12.84,13.93,13.93,0,0,1,6.27-5.21c3.5-1.42,10.41-1,9.59,4.8-.58,4.05,5.62,5.8,6.21,1.71Z"/><path class="cls-1" d="M13.17,66.2l-2.52,69.52c-.15,4.14,6.29,4.14,6.44,0L19.61,66.2c.15-4.14-6.29-4.14-6.44,0Z"/><path class="cls-1" d="M15.78,119,30,98.45c2.36-3.41-3.21-6.64-5.56-3.25L10.22,115.76c-2.36,3.41,3.21,6.64,5.56,3.25Z"/><path class="cls-1" d="M14.89,111.38,29,138.47c1.91,3.68,7.47.43,5.56-3.25L20.45,108.13c-1.91-3.68-7.47-.43-5.56,3.25Z"/><path class="cls-1" d="M91.18,157.58l-1.24,27c-.19,4.14,6.25,4.13,6.44,0l1.24-27c.19-4.14-6.25-4.13-6.44,0Z"/><path class="cls-1" d="M94.53,150.51c4.14,0,4.15-6.44,0-6.44s-4.15,6.44,0,6.44Z"/><path class="cls-1" d="M126.23,154.21A11.71,11.71,0,0,0,115,140.68c-7-.17-11.93,6.46-12,13-.06,6.91,5.07,11.34,10.22,15.06,2.69,1.94,6.33,3.93,7.74,7.1,3,6.8-7.3,11.09-9.89,3.92-1.4-3.87-7.62-2.2-6.21,1.71,2.21,6.12,8.53,10.27,15.08,8.08a12.07,12.07,0,0,0,7.11-15.83c-2.34-5.65-8.08-8.4-12.6-12-3-2.41-5.76-5.4-4.83-9.56.49-2.22,2-4.43,4.35-4.81,2.81-.45,6.47,1.91,6,5.18-.58,4.05,5.63,5.8,6.21,1.71Z"/><path class="cls-1" d="M39.69,188.82c6-7.53,1.62-19.72-8.16-21.28-11-1.75-19,10.29-16.43,20.16,2.5,9.64,11.71,15.27,18,22.28,3.47,3.88,6.3,9,3.86,14.19-3.92,8.37-15.56,6.89-18.35-1.52-1.3-3.91-7.52-2.24-6.21,1.71,3.39,10.21,15.44,15.58,24.72,9.15,7.95-5.5,9-15.8,4-23.61s-13.79-12.31-18.31-20.32c-2.83-5-2.28-11.77,3.27-14.77s13.5,3.91,9.08,9.46c-2.55,3.21,2,7.79,4.55,4.55Z"/><path class="cls-1" d="M53.67,176A89.9,89.9,0,0,0,48,199.41c-.66,6.3-1.23,13.47.88,19.58C53,231.24,67,228.58,70.06,217c2-7.61,2.18-16,3.1-23.81.77-6.51,1.73-13.69-2.59-19.25-3-3.87-8.4-6.3-13.07-3.88a9,9,0,0,0-4.18,12.07c1.72,3.76,7.27.5,5.56-3.25-1.87-4.1,4.51-3.17,6-1.72a9.14,9.14,0,0,1,2.32,4.77c.85,4.2-.23,9-.72,13.23-.54,4.58-1.07,9.16-1.63,13.73-.44,3.56-.46,9-3.83,11.18-7.86,5.13-7.14-13.63-6.93-17.1a83.73,83.73,0,0,1,5.79-25.32c1.51-3.86-4.71-5.53-6.21-1.71Z"/><path class="cls-1" d="M137.14,170.58,132.9,198.1c-.95,6.13-2.71,13.1.25,19,2.27,4.52,7,7.57,12.1,6.47,5.35-1.14,8.91-6.12,11-10.82,2.9-6.48,4.27-13.89,5.2-20.88s1.93-15.22-2.32-21.42c-2.73-4-7.79-6.87-12.7-5.58a9.79,9.79,0,0,0-7,11.93c1,4,7.23,2.31,6.21-1.71-1.08-4.25,3.94-4.59,6.27-3a9.16,9.16,0,0,1,3.26,4.79c1.3,4.08.63,8.94.12,13.12-.94,7.75-2.23,18.55-7.59,24.68-3,3.39-7.35,3.65-9.13-1.23-1.54-4.22-.09-9.35.56-13.59l4.24-27.51c.62-4.05-5.58-5.8-6.21-1.71Z"/><path class="cls-1" d="M171.75,173.14l21.9-.9c4.13-.17,4.15-6.61,0-6.44l-21.9.9c-4.13.17-4.15,6.61,0,6.44Z"/><path class="cls-1" d="M171.13,170.46v53.68c0,4.14,6.44,4.15,6.44,0v-3.47c0-4.14-6.44-4.15-6.44,0v3.47c0,4.14,6.44,4.15,6.44,0V170.46c0-4.14-6.44-4.15-6.44,0Z"/><path class="cls-1" d="M173.95,198.17l18-3.89c4-.87,2.33-7.08-1.71-6.21l-18,3.89c-4,.87-2.33,7.08,1.71,6.21Z"/><path class="cls-1" d="M203.81,151.15l.4,72.09c0,4.14,6.46,4.15,6.44,0l-.4-72.09c0-4.14-6.46-4.15-6.44,0Z"/><path class="cls-1" d="M205.25,152.87,231,154.12c4.14.2,4.13-6.24,0-6.44l-25.75-1.25c-4.14-.2-4.13,6.24,0,6.44Z"/><path class="cls-1" d="M206.53,190.42,222,191.7c4.13.34,4.11-6.09,0-6.44L206.53,184c-4.13-.34-4.11,6.09,0,6.44Z"/><path class="cls-1" d="M101.27,208.09,87.53,221.64c-1.87,1.85-.58,5.72,2.28,5.49l21.33-1.7-2.28-5.49L90.07,240.09c-1.75,1.88-.66,5.74,2.28,5.49l23.89-2L114,238.09,83.47,268.82c-2.92,2.94,1.63,7.5,4.55,4.55l30.49-30.73c1.84-1.85.6-5.74-2.28-5.49l-23.89,2,2.28,5.49,18.78-20.15c1.76-1.89.65-5.73-2.28-5.49L89.8,220.7l2.28,5.49,13.74-13.55c3-2.91-1.6-7.46-4.55-4.55Z"/><path class="cls-1" d="M79.08,263.09,77.7,278c-.18,1.91,2.23,3.88,4.07,3.1L108.21,270c3.76-1.58,2.11-7.81-1.71-6.21L80.06,274.88l4.07,3.1,1.38-14.89c.38-4.12-6.06-4.1-6.44,0Z"/><path class="cls-1" d="M3.09,161.57l59.22-5.15c4.1-.36,4.13-6.8,0-6.44L3.09,155.14c-4.1.36-4.13,6.8,0,6.44Z"/><path class="cls-1" d="M149.34,148.38l87.6-13.78c4.08-.64,2.35-6.85-1.71-6.21l-87.6,13.78c-4.08.64-2.35,6.85,1.71,6.21Z"/></g></g></svg>