<svg xmlns="http://www.w3.org/2000/svg" viewBox="0 0 256.19 365.41"><defs><style>.cls-1{fill:#6cc;}</style></defs><title>Asset 14</title><g id="Layer_2" data-name="Layer 2"><g id="Layer_1-2" data-name="Layer 1"><path class="cls-1" d="M202.38,3.13c-33.33-13.28-51.08,20-118.68,18.8-14.79-.27-30.94-2.17-45.83,8.23C25.32,38.92,19.46,52.38,15.54,65.41c-11.19,37.28-3.6,61.7-2.35,98.71C15.68,237.68-10.62,251,5,300.43c4.64,14.7,11.86,37.58,32.9,52.88C61,370.14,92.4,366.72,154.2,359.18c51.3-6.25,77.2-9.66,89.31-23.5,17.63-20.15,6.87-40.09,5.88-108.11C248,135.52,266.91,113.7,247,63.06,238,40.15,227.42,13.11,202.38,3.13Z"/><path d="M51.15,59.26l23.14-2c3.07-.26,3.1-5.08,0-4.82l-23.14,2c-3.07.26-3.1,5.08,0,4.82Z"/><path d="M58.71,56.18l-2.29,60.73c-.12,3.1,4.7,3.1,4.82,0l2.29-60.73c.12-3.1-4.7-3.1-4.82,0Z"/><path d="M47.32,122.4l18.32-1c3.09-.16,3.11-5,0-4.82l-18.32,1c-3.09.16-3.11,5,0,4.82Z"/><path d="M84.48,52.63,79.91,82.11c-1.15,7.43-4,16.66-1.28,24.06,3.77,10.34,17.95,11.12,24.25,2.93,1.89-2.46-2.3-4.86-4.16-2.43-2.83,3.68-8.57,4.25-12.4,1.82-5.63-3.57-3.81-11.79-3-17.24,1.9-12.45,3.86-24.89,5.79-37.34.47-3-4.17-4.34-4.65-1.28Z"/><path d="M71.42,84.62H93.6c3.1,0,3.11-4.82,0-4.82H71.42c-3.1,0-3.11,4.82,0,4.82Z"/><path d="M106.7,69l-2.89,12.54c-.7,3,4,4.31,4.65,1.28l2.89-12.54c.7-3-4-4.31-4.65-1.28Z"/><path d="M134.71,85.73a9.55,9.55,0,0,0-5.82-12.43c-5.68-1.86-11.82,2.49-13.21,8-1.62,6.44,2.42,12.52,8,15.45,3.83,2,9.92,3.65,8,9.24s-9.33,5.91-14.21,6.14c-3.09.14-3.11,5,0,4.82,5.63-.26,11.91-.78,16.08-5.06,3-3.09,4.5-7.88,2.59-11.92-2.3-4.87-7.75-5.53-11.74-8.37-3.67-2.6-6-8.16-2.45-11.9,3.82-4.09,10.45-.72,8.18,4.73-1.19,2.86,3.47,4.11,4.65,1.28Z"/><path d="M156.59,73.53l.93,34.71c.08,3.1,4.9,3.11,4.82,0l-.93-34.71c-.08-3.1-4.9-3.11-4.82,0Z"/><path d="M163.93,80.53q4.23.38,3.93,4.17.12,1.7.2,3.4c.12,2.14.22,4.28.33,6.42l.71,13.76c.16,3.09,5,3.11,4.82,0l-.8-15.6c-.22-4.19.22-9.21-1.62-13.1-2.24-4.75-8.63-6.22-11.72-1.49-1.7,2.61,2.47,5,4.16,2.43Z"/><path d="M181.26,77.8c-4.33,5.49-9.16,13.05-4.24,19.79,4.2,5.75,12.12,3.77,15.42-1.82,3.12-5.27,3.82-15.17-1-19.7-4-3.76-11.83-1.51-11.6,4.46.12,3.09,4.94,3.11,4.82,0-.14-3.59,4.17-.15,4.72,1.06a9.87,9.87,0,0,1,.53,3.82c0,3.19-.34,6.91-2.72,9.23-3.25,3.17-7.08,1-7.42-3.14-.32-3.87,2.66-7.48,4.89-10.3,1.9-2.41-1.49-5.84-3.41-3.41Z"/><path d="M202.27,40.76l-1.7,27.53c-.57,9.21-2,18.83-1.57,28,.22,5.11,2.34,11,7.86,12.38a7.53,7.53,0,0,0,9.48-7.12c.14-3.1-4.68-3.1-4.82,0l-4.51,2-1.78-1.82a10.32,10.32,0,0,1-1.38-4.56,46.19,46.19,0,0,1,.21-7.3q.51-8.36,1-16.72l2-32.45c.19-3.1-4.63-3.09-4.82,0Z"/><path d="M168.81,62.26l48.22.65c3.1,0,3.1-4.78,0-4.82l-48.22-.65c-3.1,0-3.1,4.78,0,4.82Z"/><path d="M59.26,142.77c2.56-6.25,10.41-3.58,10.48,2.49,0,3.94-2.5,7.47-4.14,10.88-2.06,4.3-3.49,9.2-1.43,13.79,3.2,7.11,15.28,6.7,14.95-2.14-.12-3.09-4.94-3.11-4.82,0,.17,4.61-5.26,1.54-5.94-.29a9.2,9.2,0,0,1-.1-5c.68-3.2,2.7-6,4.06-9,2-4.31,3.39-9.63.87-14.06-4.61-8.12-15.39-5.77-18.58,2-1.17,2.87,3.49,4.12,4.65,1.28Z"/><path d="M65.93,152c-8.86-3.29-19.55,4.41-16.73,14.2,2.48,8.61,15.74,8.3,16.55-1,.27-3.09-4.55-3.07-4.82,0-.17,1.92-2.64,2.87-4.31,2.52-2.27-.47-3.16-3-3-5.09.43-5.43,6.42-7.69,11-6,2.91,1.08,4.17-3.58,1.28-4.65Z"/><path d="M113.34,136.2c.89-8.19-6.9-14.51-14.72-12.79a2.45,2.45,0,0,0-1.77,2.32L94.41,209.5c-.09,3.1,4.73,3.1,4.82,0l2.45-83.76-1.77,2.32c5.1-1.12,9.14,3.27,8.62,8.14-.33,3.08,4.49,3.06,4.82,0Z"/><path d="M85.88,159.83h30.86c3.1,0,3.11-4.82,0-4.82H85.88c-3.1,0-3.11,4.82,0,4.82Z"/><path d="M141.27,140.76c-4.42-2.53-9.56-1.13-12.7,2.79-3.94,4.94-4,12.64-4.4,18.64a125.16,125.16,0,0,0,.52,25.1c.59,4.47,2.09,9.86,6.66,11.79,14,5.92,14.72-20.64,15.8-27.8,1.69-11.24,5-28.16-9.27-32.61-3-.93-4.24,3.73-1.28,4.65,11,3.43,7.13,18.51,5.9,26.68-.56,3.7-2.07,28.62-9.75,24.43-3.34-1.82-3.43-8.41-3.68-11.52q-.52-6.58-.42-13.19c.07-4.65,0-30.61,10.17-24.8,2.7,1.55,5.13-2.62,2.43-4.16Z"/><path d="M154.84,136c6.08,9.18,4.12,20.52,2.76,30.81l-4.74,35.92c-.4,3.07,4.42,3,4.82,0,1.74-13.21,3.54-26.41,5.23-39.62,1.29-10.08,1.95-20.69-3.91-29.54-1.7-2.58-5.88-.16-4.16,2.43Z"/><path d="M163.93,147.69a4.5,4.5,0,0,1,8.32-3.12c1.21,1.82,1.06,4.51,1,6.59-.18,4.09-.83,8.21-1.28,12.28-1,9-2.79,18.38-2.86,27.47,0,5.31,1.62,11.32,7.29,13,4.35,1.33,8.63-.28,10.33-4.55,1.15-2.88-3.51-4.13-4.65-1.28-1,2.47-4.62,1.45-6,.26-2-1.73-2.12-5.06-2.12-7.48,0-4.68.88-9.44,1.39-14.09,1-9.19,3.33-19.17,2.75-28.42-.37-6-4.11-11.58-10.75-11-6,.53-8.89,6.13-8,11.56.49,3.06,5.13,1.76,4.65-1.28Z"/><path d="M197,126.53l-3.25,24.72c-1,7.93-3.41,16.86-2.65,24.85.45,4.72,3,9.78,8,11.06a8.25,8.25,0,0,0,9.92-5.22c1.15-2.88-3.51-4.13-4.65-1.28-2,5.11-7,.06-7.93-2.4s-.58-5.41-.32-8.05c.48-4.75,1.24-9.48,1.86-14.21l3.88-29.47c.4-3.07-4.42-3-4.82,0Z"/><path d="M183.26,165.39l23.14-.9c3.09-.12,3.11-4.94,0-4.82l-23.14.9c-3.09.12-3.11,4.94,0,4.82Z"/><path d="M106.66,231.67l-1.15,19.27c-.18,3.1,4.64,3.09,4.82,0l1.15-19.27c.18-3.1-4.64-3.09-4.82,0Z"/><path d="M108.06,221.54c3.1,0,3.11-4.82,0-4.82s-3.11,4.82,0,4.82Z"/><path d="M123.38,209.85l-3.62,19.35c-1,5.45-3,11.54-2.46,17.13.61,6.44,8.52,12.7,13.82,6.51,2-2.34-1.39-5.77-3.41-3.41-2.93,3.42-5.5-1.93-5.67-3.85a17.28,17.28,0,0,1,.29-3.93c.5-3.42,1.26-6.81,1.9-10.21l3.8-20.31c.57-3-4.08-4.33-4.65-1.28Z"/><path d="M114.8,235l10.6-1c3.06-.3,3.09-5.12,0-4.82l-10.6,1c-3.06.3-3.09,5.12,0,4.82Z"/><path d="M136.59,219.45l-2.89,8.68c-1,3,3.67,4.22,4.65,1.28l2.89-8.68c1-3-3.67-4.22-4.65-1.28Z"/><path d="M156.61,228.18c-2.56-7.71-12.78-5.56-14,1.93-.68,4.22,1.66,7.76,4,11,1.34,1.81,3.13,3.78,3.66,6,1.43,6-5.1,9.08-9.69,5.84-2.54-1.79-5,2.39-2.43,4.16,6.21,4.38,15,1.72,16.89-6,.79-3.29-.25-6.51-2-9.32-1.14-1.86-2.64-3.47-3.84-5.29a11.9,11.9,0,0,1-1.3-2.18,3.77,3.77,0,0,1-.39-3.28q-.3-3.57,4.35-1.63c1,2.93,5.63,1.67,4.65-1.28Z"/><path d="M181,224.47l2.67.07A3.91,3.91,0,0,1,185,229a14.73,14.73,0,0,1-1.89,5,44.37,44.37,0,0,0-3,6.34c-1.08,3.41-1,7.25,1.43,10.07a10.4,10.4,0,0,0,14.83.87c2.3-2.1-1.12-5.5-3.41-3.41a5.27,5.27,0,0,1-6.07.66c-4-2-2.45-6.53-.9-9.69,2-4.17,5-8.45,3.85-13.35-1.27-5.46-7.89-8.35-12.24-4.48-2.32,2.07,1.1,5.47,3.41,3.41Z"/><path d="M181.85,236.81c-6.2-2.8-14.57,2.52-12.92,9.74,1.48,6.45,9.72,8.62,14.65,4.8,2.45-1.9-1-5.29-3.41-3.41-2,1.57-5.72.1-6.47-2.21-1-2.94,3-6,5.72-4.75s5.26-2.89,2.43-4.16Z"/><path d="M46.79,255.75C46.3,264,43.64,271.86,42.07,280c-1.13,5.84-2.25,12.74.25,18.38,1.85,4.16,6.17,7.65,11,6.78a7.85,7.85,0,0,0,6.15-9.62c-.64-3-5.29-1.75-4.65,1.28q-2.79,5.72-6.38,2.11a5.78,5.78,0,0,1-1.71-2.73,14.25,14.25,0,0,1-1-5.84,56.61,56.61,0,0,1,1.75-12.62c1.66-7.31,3.69-14.44,4.13-22,.18-3.1-4.64-3.09-4.82,0Z"/><path d="M36.71,276.17l12.54,0c3.1,0,3.11-4.82,0-4.82l-12.54,0c-3.1,0-3.11,4.82,0,4.82Z"/><path d="M58.73,259.88l6.75,15.43c1.24,2.84,5.4.38,4.16-2.43l-6.75-15.43c-1.24-2.84-5.4-.38-4.16,2.43Z"/><path d="M70,255l-6.39,44.16c-.78,5.36-1.38,10.89-3.28,16a18.27,18.27,0,0,1-5,7.75,9.68,9.68,0,0,1-5.83,2.52c-3,0-6-2.5-4-5.68,1.7-2.61-2.47-5-4.16-2.43-3.54,5.43.5,12.28,6.74,12.87,7.56.72,13.43-5.5,16.18-11.9,3.53-8.22,4-17.73,5.27-26.48l5.14-35.52c.44-3-4.21-4.35-4.65-1.28Z"/><path d="M79.91,266.39,78,328.1c-.1,3.1,4.72,3.1,4.82,0l1.93-61.71c.1-3.1-4.72-3.1-4.82,0Z"/><path d="M82.65,281.82c0-3.76,4.73-1.19,5.73.41a14.56,14.56,0,0,1,1.66,7c.06,2.19-.19,4.62-1.7,6.33S84,298,82.22,296c-2.07-2.32-5.47,1.1-3.41,3.41,3,3.43,8.19,3.36,11.73.68,4.26-3.21,4.77-9.14,4-14-.72-4.61-3-10.13-8.23-10.95-4.28-.68-8.49,2.27-8.49,6.7,0,3.1,4.82,3.11,4.82,0Z"/><path d="M102,287.76c6.93-.78,16.77-3.55,15.09-12.67-1.57-8.51-11.65-6.45-14.71-.16-3.27,6.72-3,17.24,2.55,22.69,4.9,4.8,13.57,4.52,17.27-1.46,1.64-2.65-2.53-5.07-4.16-2.43-1.89,3.05-6.16,3-8.92,1.14-3.33-2.29-4-7-3.88-10.69a21.38,21.38,0,0,1,.69-4.8,11.19,11.19,0,0,1,1.24-3.21q5.28-3.81,5.25.62c.14,5-6.81,5.75-10.42,6.15-3,.34-3.08,5.17,0,4.82Z"/><path d="M146.94,274.3c2.94-3.81,1.56-9.63-3.46-11-6.27-1.66-10.69,4.64-11.68,9.95-1.73,9.3-1.31,19.36-1.84,28.8l-1.78,31.53c-.15,2.71,4.12,3.28,4.74.64l.61-2.64c.7-3-3.95-4.31-4.65-1.28l-.61,2.64,4.74.64,1.94-34.48.94-16.75a63.14,63.14,0,0,1,.56-7.81,10,10,0,0,1,1.71-4.46,2.85,2.85,0,0,1,1.71-1.44q2.35-2.08,3.66,2.22c-1.87,2.42,1.51,5.86,3.41,3.41Z"/><path d="M105.14,312l43.38-4.9c3-.34,3.08-5.17,0-4.82l-43.38,4.9c-3,.34-3.08,5.17,0,4.82Z"/><path d="M161.79,274c2.58-3.27,7.47-2.19,9.66,1,2.71,4,1.31,9.62-.09,13.75-2.12,6.25-5.79,12.43-5,19.27.52,4.28,3.1,8.72,7.79,9.14a7.14,7.14,0,0,0,8-6.79c.11-3.1-4.71-3.1-4.82,0-.15,4.22-5.09.9-5.83-1a11.38,11.38,0,0,1-.25-5.78c.58-3.54,2.11-6.87,3.42-10.18,2.15-5.45,4.08-11.48,2.4-17.35-2.19-7.68-13.05-12.69-18.74-5.48-1.9,2.41,1.49,5.84,3.41,3.41Z"/><path d="M173,289.45c-5.17-7-17-3.9-16.46,5.4a8.76,8.76,0,0,0,6.78,8.21,9.46,9.46,0,0,0,10.18-4.73c1.43-2.75-2.73-5.19-4.16-2.43-1.85,3.58-7.45,3.33-8-1.05a4.18,4.18,0,0,1,7.47-3c1.82,2.47,6,.07,4.16-2.43Z"/><path d="M197.12,277.25c3.5-3,1.75-8.58-2.66-9.45-6.86-1.36-9.33,6.84-10.5,11.82-1.39,5.94-1.71,13.22,3.61,17.42a8.8,8.8,0,0,0,13.19-2.4c1.55-2.7-2.62-5.13-4.16-2.43-1.87,3.26-5.54,2.08-7.34-.37-1.51-2.07-1.54-4.75-1.31-7.17a34.06,34.06,0,0,1,1.06-5.38q.3-1.17.63-2.34.28-3.56,4.06-3.11c-2.37,2,1.05,5.4,3.41,3.41Z"/><path d="M212.35,282.15c5.6-2.57,13.21-8.58,8.31-15.46-4.57-6.41-11.31-.53-13.37,4.67-3,7.51-4.7,18.26.89,25,4.71,5.67,13.78,6,17.68-.74,1.56-2.69-2.6-5.12-4.16-2.43-3.25,5.58-9.77,1.73-11.47-2.84-1.52-4.07-.73-8.5.24-12.6.41-1.75,2.63-11.57,6.34-8.22s-5.1,7.65-6.88,8.46c-2.82,1.29-.37,5.45,2.43,4.16Z"/><path d="M51.15,58.09l23.14-2c3.07-.26,3.1-5.08,0-4.82l-23.14,2c-3.07.26-3.1,5.08,0,4.82Z"/><path d="M58.71,55l-2.29,60.73c-.12,3.1,4.7,3.1,4.82,0L63.53,55c.12-3.1-4.7-3.1-4.82,0Z"/><path d="M47.32,121.22l18.32-1c3.09-.16,3.11-5,0-4.82l-18.32,1c-3.09.16-3.11,5,0,4.82Z"/><path d="M84.48,51.45,79.91,80.93c-1.15,7.43-4,16.66-1.28,24.06,3.77,10.34,17.95,11.12,24.25,2.93,1.89-2.46-2.3-4.86-4.16-2.43-2.83,3.68-8.57,4.25-12.4,1.82-5.63-3.57-3.81-11.79-3-17.24,1.9-12.45,3.86-24.89,5.79-37.34.47-3-4.17-4.34-4.65-1.28Z"/><path d="M71.42,83.44H93.6c3.1,0,3.11-4.82,0-4.82H71.42c-3.1,0-3.11,4.82,0,4.82Z"/><path d="M106.7,67.85l-2.89,12.54c-.7,3,4,4.31,4.65,1.28l2.89-12.54c.7-3-4-4.31-4.65-1.28Z"/><path d="M134.71,84.55a9.55,9.55,0,0,0-5.82-12.43c-5.68-1.86-11.82,2.49-13.21,8-1.62,6.44,2.42,12.52,8,15.45,3.83,2,9.92,3.65,8,9.24s-9.33,5.91-14.21,6.14c-3.09.14-3.11,5,0,4.82,5.63-.26,11.91-.78,16.08-5.06,3-3.09,4.5-7.88,2.59-11.92-2.3-4.87-7.75-5.53-11.74-8.37-3.67-2.6-6-8.16-2.45-11.9,3.82-4.09,10.45-.72,8.18,4.73-1.19,2.86,3.47,4.11,4.65,1.28Z"/><path d="M156.59,72.36l.93,34.71c.08,3.1,4.9,3.11,4.82,0l-.93-34.71c-.08-3.1-4.9-3.11-4.82,0Z"/><path d="M163.93,79.35q4.23.38,3.93,4.17.12,1.7.2,3.4c.12,2.14.22,4.28.33,6.42l.71,13.76c.16,3.09,5,3.11,4.82,0l-.8-15.6c-.22-4.19.22-9.21-1.62-13.1-2.24-4.75-8.63-6.22-11.72-1.49-1.7,2.61,2.47,5,4.16,2.43Z"/><path d="M181.26,76.63c-4.33,5.49-9.16,13.05-4.24,19.79,4.2,5.75,12.12,3.77,15.42-1.82,3.12-5.27,3.82-15.17-1-19.7-4-3.76-11.83-1.51-11.6,4.46.12,3.09,4.94,3.11,4.82,0-.14-3.59,4.17-.15,4.72,1.06a9.87,9.87,0,0,1,.53,3.82c0,3.19-.34,6.91-2.72,9.23-3.25,3.17-7.08,1-7.42-3.14-.32-3.87,2.66-7.48,4.89-10.3,1.9-2.41-1.49-5.84-3.41-3.41Z"/><path d="M202.27,39.59l-1.7,27.53c-.57,9.21-2,18.83-1.57,28,.22,5.11,2.34,11,7.86,12.38a7.53,7.53,0,0,0,9.48-7.12c.14-3.1-4.68-3.1-4.82,0l-4.51,2-1.78-1.82A10.32,10.32,0,0,1,203.84,96a46.19,46.19,0,0,1,.21-7.3q.51-8.36,1-16.72l2-32.45c.19-3.1-4.63-3.09-4.82,0Z"/><path d="M168.81,61.08l48.22.65c3.1,0,3.1-4.78,0-4.82l-48.22-.65c-3.1,0-3.1,4.78,0,4.82Z"/><path d="M59.26,141.6c2.56-6.25,10.41-3.58,10.48,2.49,0,3.94-2.5,7.47-4.14,10.88-2.06,4.3-3.49,9.2-1.43,13.79,3.2,7.11,15.28,6.7,14.95-2.14-.12-3.09-4.94-3.11-4.82,0,.17,4.61-5.26,1.54-5.94-.29a9.2,9.2,0,0,1-.1-5c.68-3.2,2.7-6,4.06-9,2-4.31,3.39-9.63.87-14.06-4.61-8.12-15.39-5.77-18.58,2-1.17,2.87,3.49,4.12,4.65,1.28Z"/><path d="M65.93,150.78c-8.86-3.29-19.55,4.41-16.73,14.2,2.48,8.61,15.74,8.3,16.55-1,.27-3.09-4.55-3.07-4.82,0-.17,1.92-2.64,2.87-4.31,2.52-2.27-.47-3.16-3-3-5.09.43-5.43,6.42-7.69,11-6,2.91,1.08,4.17-3.58,1.28-4.65Z"/><path d="M113.34,135c.89-8.19-6.9-14.51-14.72-12.79a2.45,2.45,0,0,0-1.77,2.32l-2.45,83.76c-.09,3.1,4.73,3.1,4.82,0l2.45-83.76-1.77,2.32c5.1-1.12,9.14,3.27,8.62,8.14-.33,3.08,4.49,3.06,4.82,0Z"/><path d="M85.88,158.65h30.86c3.1,0,3.11-4.82,0-4.82H85.88c-3.1,0-3.11,4.82,0,4.82Z"/><path d="M141.27,139.59c-4.42-2.53-9.56-1.13-12.7,2.79-3.94,4.94-4,12.64-4.4,18.64a125.16,125.16,0,0,0,.52,25.1c.59,4.47,2.09,9.86,6.66,11.79,14,5.92,14.72-20.64,15.8-27.8,1.69-11.24,5-28.16-9.27-32.61-3-.93-4.24,3.73-1.28,4.65,11,3.43,7.13,18.51,5.9,26.68-.56,3.7-2.07,28.62-9.75,24.43-3.34-1.82-3.43-8.41-3.68-11.52q-.52-6.58-.42-13.19c.07-4.65,0-30.61,10.17-24.8,2.7,1.55,5.13-2.62,2.43-4.16Z"/><path d="M154.84,134.8c6.08,9.18,4.12,20.52,2.76,30.81l-4.74,35.92c-.4,3.07,4.42,3,4.82,0,1.74-13.21,3.54-26.41,5.23-39.62,1.29-10.08,1.95-20.69-3.91-29.54-1.7-2.58-5.88-.16-4.16,2.43Z"/><path d="M163.93,146.51a4.5,4.5,0,0,1,8.32-3.12c1.21,1.82,1.06,4.51,1,6.59-.18,4.09-.83,8.21-1.28,12.28-1,9-2.79,18.38-2.86,27.47,0,5.31,1.62,11.32,7.29,13,4.35,1.33,8.63-.28,10.33-4.55,1.15-2.88-3.51-4.13-4.65-1.28-1,2.47-4.62,1.45-6,.26-2-1.73-2.12-5.06-2.12-7.48,0-4.68.88-9.44,1.39-14.09,1-9.19,3.33-19.17,2.75-28.42-.37-6-4.11-11.58-10.75-11-6,.53-8.89,6.13-8,11.56.49,3.06,5.13,1.76,4.65-1.28Z"/><path d="M197,125.36l-3.25,24.72c-1,7.93-3.41,16.86-2.65,24.85.45,4.72,3,9.78,8,11.06a8.25,8.25,0,0,0,9.92-5.22c1.15-2.88-3.51-4.13-4.65-1.28-2,5.11-7,.06-7.93-2.4s-.58-5.41-.32-8.05c.48-4.75,1.24-9.48,1.86-14.21l3.88-29.47c.4-3.07-4.42-3-4.82,0Z"/><path d="M183.26,164.22l23.14-.9c3.09-.12,3.11-4.94,0-4.82l-23.14.9c-3.09.12-3.11,4.94,0,4.82Z"/><path d="M106.66,230.49l-1.15,19.27c-.18,3.1,4.64,3.09,4.82,0l1.15-19.27c.18-3.1-4.64-3.09-4.82,0Z"/><path d="M108.06,220.36c3.1,0,3.11-4.82,0-4.82s-3.11,4.82,0,4.82Z"/><path d="M123.38,208.68,119.76,228c-1,5.45-3,11.54-2.46,17.13.61,6.44,8.52,12.7,13.82,6.51,2-2.34-1.39-5.77-3.41-3.41-2.93,3.42-5.5-1.93-5.67-3.85a17.28,17.28,0,0,1,.29-3.93c.5-3.42,1.26-6.81,1.9-10.21L128,210c.57-3-4.08-4.33-4.65-1.28Z"/><path d="M114.8,233.79l10.6-1c3.06-.3,3.09-5.12,0-4.82l-10.6,1c-3.06.3-3.09,5.12,0,4.82Z"/><path d="M136.59,218.28,133.7,227c-1,3,3.67,4.22,4.65,1.28l2.89-8.68c1-3-3.67-4.22-4.65-1.28Z"/><path d="M156.61,227c-2.56-7.71-12.78-5.56-14,1.93-.68,4.22,1.66,7.76,4,11,1.34,1.81,3.13,3.78,3.66,6,1.43,6-5.1,9.08-9.69,5.84-2.54-1.79-5,2.39-2.43,4.16,6.21,4.38,15,1.72,16.89-6,.79-3.29-.25-6.51-2-9.32-1.14-1.86-2.64-3.47-3.84-5.29a11.9,11.9,0,0,1-1.3-2.18,3.77,3.77,0,0,1-.39-3.28q-.3-3.57,4.35-1.63c1,2.93,5.63,1.67,4.65-1.28Z"/><path d="M181,223.29l2.67.07a3.91,3.91,0,0,1,1.34,4.49,14.73,14.73,0,0,1-1.89,5,44.37,44.37,0,0,0-3,6.34c-1.08,3.41-1,7.25,1.43,10.07a10.4,10.4,0,0,0,14.83.87c2.3-2.1-1.12-5.5-3.41-3.41a5.27,5.27,0,0,1-6.07.66c-4-2-2.45-6.53-.9-9.69,2-4.17,5-8.45,3.85-13.35-1.27-5.46-7.89-8.35-12.24-4.48-2.32,2.07,1.1,5.47,3.41,3.41Z"/><path d="M181.85,235.63c-6.2-2.8-14.57,2.52-12.92,9.74,1.48,6.45,9.72,8.62,14.65,4.8,2.45-1.9-1-5.29-3.41-3.41-2,1.57-5.72.1-6.47-2.21-1-2.94,3-6,5.72-4.75s5.26-2.89,2.43-4.16Z"/><path d="M46.79,254.57c-.49,8.29-3.15,16.11-4.72,24.22-1.13,5.84-2.25,12.74.25,18.38,1.85,4.16,6.17,7.65,11,6.78a7.85,7.85,0,0,0,6.15-9.62c-.64-3-5.29-1.75-4.65,1.28q-2.79,5.72-6.38,2.11A5.78,5.78,0,0,1,46.7,295a14.25,14.25,0,0,1-1-5.84,56.61,56.61,0,0,1,1.75-12.62c1.66-7.31,3.69-14.44,4.13-22,.18-3.1-4.64-3.09-4.82,0Z"/><path d="M36.71,275l12.54,0c3.1,0,3.11-4.82,0-4.82l-12.54,0c-3.1,0-3.11,4.82,0,4.82Z"/><path d="M58.73,258.7l6.75,15.43c1.24,2.84,5.4.38,4.16-2.43l-6.75-15.43c-1.24-2.84-5.4-.38-4.16,2.43Z"/><path d="M70,253.82,63.66,298c-.78,5.36-1.38,10.89-3.28,16a18.27,18.27,0,0,1-5,7.75,9.68,9.68,0,0,1-5.83,2.52c-3,0-6-2.5-4-5.68,1.7-2.61-2.47-5-4.16-2.43-3.54,5.43.5,12.28,6.74,12.87,7.56.72,13.43-5.5,16.18-11.9,3.53-8.22,4-17.73,5.27-26.48L74.7,255.1c.44-3-4.21-4.35-4.65-1.28Z"/><path d="M79.91,265.21,78,326.92c-.1,3.1,4.72,3.1,4.82,0l1.93-61.71c.1-3.1-4.72-3.1-4.82,0Z"/><path d="M82.65,280.65c0-3.76,4.73-1.19,5.73.41A14.56,14.56,0,0,1,90,288c.06,2.19-.19,4.62-1.7,6.33s-4.36,2.42-6.11.45c-2.07-2.32-5.47,1.1-3.41,3.41,3,3.43,8.19,3.36,11.73.68,4.26-3.21,4.77-9.14,4-14-.72-4.61-3-10.13-8.23-10.95-4.28-.68-8.49,2.27-8.49,6.7,0,3.1,4.82,3.11,4.82,0Z"/><path d="M102,286.59c6.93-.78,16.77-3.55,15.09-12.67-1.57-8.51-11.65-6.45-14.71-.16-3.27,6.72-3,17.24,2.55,22.69,4.9,4.8,13.57,4.52,17.27-1.46,1.64-2.65-2.53-5.07-4.16-2.43-1.89,3.05-6.16,3-8.92,1.14-3.33-2.29-4-7-3.88-10.69a21.38,21.38,0,0,1,.69-4.8,11.19,11.19,0,0,1,1.24-3.21q5.28-3.81,5.25.62c.14,5-6.81,5.75-10.42,6.15-3,.34-3.08,5.17,0,4.82Z"/><path d="M146.94,273.13c2.94-3.81,1.56-9.63-3.46-11-6.27-1.66-10.69,4.64-11.68,9.95-1.73,9.3-1.31,19.36-1.84,28.8l-1.78,31.53c-.15,2.71,4.12,3.28,4.74.64l.61-2.64c.7-3-3.95-4.31-4.65-1.28l-.61,2.64,4.74.64L134.94,298l.94-16.75a63.14,63.14,0,0,1,.56-7.81,10,10,0,0,1,1.71-4.46,2.85,2.85,0,0,1,1.71-1.44q2.35-2.08,3.66,2.22c-1.87,2.42,1.51,5.86,3.41,3.41Z"/><path d="M105.14,310.78l43.38-4.9c3-.34,3.08-5.17,0-4.82L105.14,306c-3,.34-3.08,5.17,0,4.82Z"/><path d="M161.79,272.82c2.58-3.27,7.47-2.19,9.66,1,2.71,4,1.31,9.62-.09,13.75-2.12,6.25-5.79,12.43-5,19.27.52,4.28,3.1,8.72,7.79,9.14a7.14,7.14,0,0,0,8-6.79c.11-3.1-4.71-3.1-4.82,0-.15,4.22-5.09.9-5.83-1a11.38,11.38,0,0,1-.25-5.78c.58-3.54,2.11-6.87,3.42-10.18,2.15-5.45,4.08-11.48,2.4-17.35-2.19-7.68-13.05-12.69-18.74-5.48-1.9,2.41,1.49,5.84,3.41,3.41Z"/><path d="M173,288.28c-5.17-7-17-3.9-16.46,5.4a8.76,8.76,0,0,0,6.78,8.21,9.46,9.46,0,0,0,10.18-4.73c1.43-2.75-2.73-5.19-4.16-2.43-1.85,3.58-7.45,3.33-8-1.05a4.18,4.18,0,0,1,7.47-3c1.82,2.47,6,.07,4.16-2.43Z"/><path d="M197.12,276.08c3.5-3,1.75-8.58-2.66-9.45-6.86-1.36-9.33,6.84-10.5,11.82-1.39,5.94-1.71,13.22,3.61,17.42a8.8,8.8,0,0,0,13.19-2.4c1.55-2.7-2.62-5.13-4.16-2.43-1.87,3.26-5.54,2.08-7.34-.37-1.51-2.07-1.54-4.75-1.31-7.17a34.06,34.06,0,0,1,1.06-5.38q.3-1.17.63-2.34.28-3.56,4.06-3.11c-2.37,2,1.05,5.4,3.41,3.41Z"/><path d="M212.35,281c5.6-2.57,13.21-8.58,8.31-15.46-4.57-6.41-11.31-.53-13.37,4.67-3,7.51-4.7,18.26.89,25,4.71,5.67,13.78,6,17.68-.74,1.56-2.69-2.6-5.12-4.16-2.43-3.25,5.58-9.77,1.73-11.47-2.84-1.52-4.07-.73-8.5.24-12.6.41-1.75,2.63-11.57,6.34-8.22s-5.1,7.65-6.88,8.46c-2.82,1.29-.37,5.45,2.43,4.16Z"/><path d="M51.15,56.91l23.14-2c3.07-.26,3.1-5.08,0-4.82l-23.14,2c-3.07.26-3.1,5.08,0,4.82Z"/><path d="M58.71,53.83l-2.29,60.73c-.12,3.1,4.7,3.1,4.82,0l2.29-60.73c.12-3.1-4.7-3.1-4.82,0Z"/><path d="M47.32,120l18.32-1c3.09-.16,3.11-5,0-4.82l-18.32,1c-3.09.16-3.11,5,0,4.82Z"/><path d="M84.48,50.28,79.91,79.76c-1.15,7.43-4,16.66-1.28,24.06,3.77,10.34,17.95,11.12,24.25,2.93,1.89-2.46-2.3-4.86-4.16-2.43-2.83,3.68-8.57,4.25-12.4,1.82-5.63-3.57-3.81-11.79-3-17.24C85.24,76.45,87.2,64,89.13,51.56c.47-3-4.17-4.34-4.65-1.28Z"/><path d="M71.42,82.27H93.6c3.1,0,3.11-4.82,0-4.82H71.42c-3.1,0-3.11,4.82,0,4.82Z"/><path d="M106.7,66.68l-2.89,12.54c-.7,3,4,4.31,4.65,1.28L111.35,68c.7-3-4-4.31-4.65-1.28Z"/><path d="M134.71,83.38a9.55,9.55,0,0,0-5.82-12.43c-5.68-1.86-11.82,2.49-13.21,8-1.62,6.44,2.42,12.52,8,15.45,3.83,2,9.92,3.65,8,9.24s-9.33,5.91-14.21,6.14c-3.09.14-3.11,5,0,4.82,5.63-.26,11.91-.78,16.08-5.06,3-3.09,4.5-7.88,2.59-11.92-2.3-4.87-7.75-5.53-11.74-8.37-3.67-2.6-6-8.16-2.45-11.9,3.82-4.09,10.45-.72,8.18,4.73-1.19,2.86,3.47,4.11,4.65,1.28Z"/><path d="M156.59,71.18l.93,34.71c.08,3.1,4.9,3.11,4.82,0l-.93-34.71c-.08-3.1-4.9-3.11-4.82,0Z"/><path d="M163.93,78.18q4.23.38,3.93,4.17.12,1.7.2,3.4c.12,2.14.22,4.28.33,6.42l.71,13.76c.16,3.09,5,3.11,4.82,0l-.8-15.6c-.22-4.19.22-9.21-1.62-13.1-2.24-4.75-8.63-6.22-11.72-1.49-1.7,2.61,2.47,5,4.16,2.43Z"/><path d="M181.26,75.45c-4.33,5.49-9.16,13.05-4.24,19.79,4.2,5.75,12.12,3.77,15.42-1.82,3.12-5.27,3.82-15.17-1-19.7-4-3.76-11.83-1.51-11.6,4.46.12,3.09,4.94,3.11,4.82,0-.14-3.59,4.17-.15,4.72,1.06a9.87,9.87,0,0,1,.53,3.82c0,3.19-.34,6.91-2.72,9.23-3.25,3.17-7.08,1-7.42-3.14-.32-3.87,2.66-7.48,4.89-10.3,1.9-2.41-1.49-5.84-3.41-3.41Z"/><path d="M202.27,38.41l-1.7,27.53c-.57,9.21-2,18.83-1.57,28,.22,5.11,2.34,11,7.86,12.38a7.53,7.53,0,0,0,9.48-7.12c.14-3.1-4.68-3.1-4.82,0l-4.51,2-1.78-1.82a10.32,10.32,0,0,1-1.38-4.56,46.19,46.19,0,0,1,.21-7.3q.51-8.36,1-16.72l2-32.45c.19-3.1-4.63-3.09-4.82,0Z"/><path d="M168.81,59.91l48.22.65c3.1,0,3.1-4.78,0-4.82l-48.22-.65c-3.1,0-3.1,4.78,0,4.82Z"/><path d="M59.26,140.42c2.56-6.25,10.41-3.58,10.48,2.49,0,3.94-2.5,7.47-4.14,10.88-2.06,4.3-3.49,9.2-1.43,13.79,3.2,7.11,15.28,6.7,14.95-2.14-.12-3.09-4.94-3.11-4.82,0,.17,4.61-5.26,1.54-5.94-.29a9.2,9.2,0,0,1-.1-5c.68-3.2,2.7-6,4.06-9,2-4.31,3.39-9.63.87-14.06-4.61-8.12-15.39-5.77-18.58,2-1.17,2.87,3.49,4.12,4.65,1.28Z"/><path d="M65.93,149.6c-8.86-3.29-19.55,4.41-16.73,14.2,2.48,8.61,15.74,8.3,16.55-1,.27-3.09-4.55-3.07-4.82,0-.17,1.92-2.64,2.87-4.31,2.52-2.27-.47-3.16-3-3-5.09.43-5.43,6.42-7.69,11-6,2.91,1.08,4.17-3.58,1.28-4.65Z"/><path d="M113.34,133.85c.89-8.19-6.9-14.51-14.72-12.79a2.45,2.45,0,0,0-1.77,2.32l-2.45,83.76c-.09,3.1,4.73,3.1,4.82,0l2.45-83.76-1.77,2.32c5.1-1.12,9.14,3.27,8.62,8.14-.33,3.08,4.49,3.06,4.82,0Z"/><path d="M85.88,157.48h30.86c3.1,0,3.11-4.82,0-4.82H85.88c-3.1,0-3.11,4.82,0,4.82Z"/><path d="M141.27,138.41c-4.42-2.53-9.56-1.13-12.7,2.79-3.94,4.94-4,12.64-4.4,18.64a125.16,125.16,0,0,0,.52,25.1c.59,4.47,2.09,9.86,6.66,11.79,14,5.92,14.72-20.64,15.8-27.8,1.69-11.24,5-28.16-9.27-32.61-3-.93-4.24,3.73-1.28,4.65,11,3.43,7.13,18.51,5.9,26.68-.56,3.7-2.07,28.62-9.75,24.43-3.34-1.82-3.43-8.41-3.68-11.52q-.52-6.58-.42-13.19c.07-4.65,0-30.61,10.17-24.8,2.7,1.55,5.13-2.62,2.43-4.16Z"/><path d="M154.84,133.63c6.08,9.18,4.12,20.52,2.76,30.81l-4.74,35.92c-.4,3.07,4.42,3,4.82,0,1.74-13.21,3.54-26.41,5.23-39.62,1.29-10.08,1.95-20.69-3.91-29.54-1.7-2.58-5.88-.16-4.16,2.43Z"/><path d="M163.93,145.34a4.5,4.5,0,0,1,8.32-3.12c1.21,1.82,1.06,4.51,1,6.59-.18,4.09-.83,8.21-1.28,12.28-1,9-2.79,18.38-2.86,27.47,0,5.31,1.62,11.32,7.29,13,4.35,1.33,8.63-.28,10.33-4.55,1.15-2.88-3.51-4.13-4.65-1.28-1,2.47-4.62,1.45-6,.26-2-1.73-2.12-5.06-2.12-7.48,0-4.68.88-9.44,1.39-14.09,1-9.19,3.33-19.17,2.75-28.42-.37-6-4.11-11.58-10.75-11-6,.53-8.89,6.13-8,11.56.49,3.06,5.13,1.76,4.65-1.28Z"/><path d="M197,124.18l-3.25,24.72c-1,7.93-3.41,16.86-2.65,24.85.45,4.72,3,9.78,8,11.06A8.25,8.25,0,0,0,209,179.6c1.15-2.88-3.51-4.13-4.65-1.28-2,5.11-7,.06-7.93-2.4s-.58-5.41-.32-8.05c.48-4.75,1.24-9.48,1.86-14.21l3.88-29.47c.4-3.07-4.42-3-4.82,0Z"/><path d="M183.26,163l23.14-.9c3.09-.12,3.11-4.94,0-4.82l-23.14.9c-3.09.12-3.11,4.94,0,4.82Z"/><path d="M106.66,229.32l-1.15,19.27c-.18,3.1,4.64,3.09,4.82,0l1.15-19.27c.18-3.1-4.64-3.09-4.82,0Z"/><path d="M108.06,219.19c3.1,0,3.11-4.82,0-4.82s-3.11,4.82,0,4.82Z"/><path d="M123.38,207.5l-3.62,19.35c-1,5.45-3,11.54-2.46,17.13.61,6.44,8.52,12.7,13.82,6.51,2-2.34-1.39-5.77-3.41-3.41-2.93,3.42-5.5-1.93-5.67-3.85a17.28,17.28,0,0,1,.29-3.93c.5-3.42,1.26-6.81,1.9-10.21l3.8-20.31c.57-3-4.08-4.33-4.65-1.28Z"/><path d="M114.8,232.61l10.6-1c3.06-.3,3.09-5.12,0-4.82l-10.6,1c-3.06.3-3.09,5.12,0,4.82Z"/><path d="M136.59,217.1l-2.89,8.68c-1,3,3.67,4.22,4.65,1.28l2.89-8.68c1-3-3.67-4.22-4.65-1.28Z"/><path d="M156.61,225.83c-2.56-7.71-12.78-5.56-14,1.93-.68,4.22,1.66,7.76,4,11,1.34,1.81,3.13,3.78,3.66,6,1.43,6-5.1,9.08-9.69,5.84-2.54-1.79-5,2.39-2.43,4.16,6.21,4.38,15,1.72,16.89-6,.79-3.29-.25-6.51-2-9.32-1.14-1.86-2.64-3.47-3.84-5.29A11.9,11.9,0,0,1,148,232a3.77,3.77,0,0,1-.39-3.28q-.3-3.57,4.35-1.63c1,2.93,5.63,1.67,4.65-1.28Z"/><path d="M181,222.12l2.67.07a3.91,3.91,0,0,1,1.34,4.49,14.73,14.73,0,0,1-1.89,5,44.37,44.37,0,0,0-3,6.34c-1.08,3.41-1,7.25,1.43,10.07a10.4,10.4,0,0,0,14.83.87c2.3-2.1-1.12-5.5-3.41-3.41a5.27,5.27,0,0,1-6.07.66c-4-2-2.45-6.53-.9-9.69,2-4.17,5-8.45,3.85-13.35-1.27-5.46-7.89-8.35-12.24-4.48-2.32,2.07,1.1,5.47,3.41,3.41Z"/><path d="M181.85,234.46c-6.2-2.8-14.57,2.52-12.92,9.74,1.48,6.45,9.72,8.62,14.65,4.8,2.45-1.9-1-5.29-3.41-3.41-2,1.57-5.72.1-6.47-2.21-1-2.94,3-6,5.72-4.75s5.26-2.89,2.43-4.16Z"/><path d="M46.79,253.4c-.49,8.29-3.15,16.11-4.72,24.22-1.13,5.84-2.25,12.74.25,18.38,1.85,4.16,6.17,7.65,11,6.78a7.85,7.85,0,0,0,6.15-9.62c-.64-3-5.29-1.75-4.65,1.28q-2.79,5.72-6.38,2.11a5.78,5.78,0,0,1-1.71-2.73,14.25,14.25,0,0,1-1-5.84,56.61,56.61,0,0,1,1.75-12.62c1.66-7.31,3.69-14.44,4.13-22,.18-3.1-4.64-3.09-4.82,0Z"/><path d="M36.71,273.82l12.54,0c3.1,0,3.11-4.82,0-4.82l-12.54,0c-3.1,0-3.11,4.82,0,4.82Z"/><path d="M58.73,257.53,65.48,273c1.24,2.84,5.4.38,4.16-2.43L62.89,255.1c-1.24-2.84-5.4-.38-4.16,2.43Z"/><path d="M70,252.64l-6.39,44.16c-.78,5.36-1.38,10.89-3.28,16a18.27,18.27,0,0,1-5,7.75,9.68,9.68,0,0,1-5.83,2.52c-3,0-6-2.5-4-5.68,1.7-2.61-2.47-5-4.16-2.43-3.54,5.43.5,12.28,6.74,12.87,7.56.72,13.43-5.5,16.18-11.9,3.53-8.22,4-17.73,5.27-26.48l5.14-35.52c.44-3-4.21-4.35-4.65-1.28Z"/><path d="M79.91,264,78,325.75c-.1,3.1,4.72,3.1,4.82,0L84.74,264c.1-3.1-4.72-3.1-4.82,0Z"/><path d="M82.65,279.47c0-3.76,4.73-1.19,5.73.41a14.56,14.56,0,0,1,1.66,7c.06,2.19-.19,4.62-1.7,6.33s-4.36,2.42-6.11.45c-2.07-2.32-5.47,1.1-3.41,3.41,3,3.43,8.19,3.36,11.73.68,4.26-3.21,4.77-9.14,4-14-.72-4.61-3-10.13-8.23-10.95-4.28-.68-8.49,2.27-8.49,6.7,0,3.1,4.82,3.11,4.82,0Z"/><path d="M102,285.41c6.93-.78,16.77-3.55,15.09-12.67-1.57-8.51-11.65-6.45-14.71-.16-3.27,6.72-3,17.24,2.55,22.69,4.9,4.8,13.57,4.52,17.27-1.46,1.64-2.65-2.53-5.07-4.16-2.43-1.89,3.05-6.16,3-8.92,1.14-3.33-2.29-4-7-3.88-10.69a21.38,21.38,0,0,1,.69-4.8,11.19,11.19,0,0,1,1.24-3.21q5.28-3.81,5.25.62c.14,5-6.81,5.75-10.42,6.15-3,.34-3.08,5.17,0,4.82Z"/><path d="M146.94,272c2.94-3.81,1.56-9.63-3.46-11-6.27-1.66-10.69,4.64-11.68,9.95-1.73,9.3-1.31,19.36-1.84,28.8l-1.78,31.53c-.15,2.71,4.12,3.28,4.74.64l.61-2.64c.7-3-3.95-4.31-4.65-1.28l-.61,2.64,4.74.64,1.94-34.48.94-16.75a63.14,63.14,0,0,1,.56-7.81,10,10,0,0,1,1.71-4.46,2.85,2.85,0,0,1,1.71-1.44q2.35-2.08,3.66,2.22c-1.87,2.42,1.51,5.86,3.41,3.41Z"/><path d="M105.14,309.6l43.38-4.9c3-.34,3.08-5.17,0-4.82l-43.38,4.9c-3,.34-3.08,5.17,0,4.82Z"/><path d="M161.79,271.65c2.58-3.27,7.47-2.19,9.66,1,2.71,4,1.31,9.62-.09,13.75-2.12,6.25-5.79,12.43-5,19.27.52,4.28,3.1,8.72,7.79,9.14a7.14,7.14,0,0,0,8-6.79c.11-3.1-4.71-3.1-4.82,0-.15,4.22-5.09.9-5.83-1a11.38,11.38,0,0,1-.25-5.78c.58-3.54,2.11-6.87,3.42-10.18,2.15-5.45,4.08-11.48,2.4-17.35-2.19-7.68-13.05-12.69-18.74-5.48-1.9,2.41,1.49,5.84,3.41,3.41Z"/><path d="M173,287.1c-5.17-7-17-3.9-16.46,5.4a8.76,8.76,0,0,0,6.78,8.21A9.46,9.46,0,0,0,173.53,296c1.43-2.75-2.73-5.19-4.16-2.43-1.85,3.58-7.45,3.33-8-1.05a4.18,4.18,0,0,1,7.47-3c1.82,2.47,6,.07,4.16-2.43Z"/><path d="M197.12,274.9c3.5-3,1.75-8.58-2.66-9.45-6.86-1.36-9.33,6.84-10.5,11.82-1.39,5.94-1.71,13.22,3.61,17.42a8.8,8.8,0,0,0,13.19-2.4c1.55-2.7-2.62-5.13-4.16-2.43-1.87,3.26-5.54,2.08-7.34-.37-1.51-2.07-1.54-4.75-1.31-7.17a34.06,34.06,0,0,1,1.06-5.38q.3-1.17.63-2.34.28-3.56,4.06-3.11c-2.37,2,1.05,5.4,3.41,3.41Z"/><path d="M212.35,279.8c5.6-2.57,13.21-8.58,8.31-15.46-4.57-6.41-11.31-.53-13.37,4.67-3,7.51-4.7,18.26.89,25,4.71,5.67,13.78,6,17.68-.74,1.56-2.69-2.6-5.12-4.16-2.43-3.25,5.58-9.77,1.73-11.47-2.84-1.52-4.07-.73-8.5.24-12.6.41-1.75,2.63-11.57,6.34-8.22s-5.1,7.65-6.88,8.46c-2.82,1.29-.37,5.45,2.43,4.16Z"/></g></g></svg>