<svg xmlns="http://www.w3.org/2000/svg" viewBox="0 0 215.6 156.79"><defs><style>.cls-1{fill:#444d9f;}</style></defs><title>Asset 28</title><g id="Layer_2" data-name="Layer 2"><g id="Layer_1-2" data-name="Layer 1"><path class="cls-1" d="M22.3,74.4l6.84,16.27a2.17,2.17,0,0,0,3.56.94,35.75,35.75,0,0,0,12-22.66c.29-2.19-3-2.76-4-1.08C36.86,74.48,35.87,82,33,88.94c-1.58,3.78-3.8,7.68-7.49,9.76-4,2.22-9.46,2-12.18-2-1.53-2.26-5.22-.13-3.68,2.15,4.81,7.08,14.64,6.89,20.73,1.51,8.81-7.76,8.44-20.74,14-30.36l-4-1.08A31.35,31.35,0,0,1,29.68,88.6l3.56.94L26.41,73.27c-1-2.49-5.17-1.4-4.11,1.13Z"/><path class="cls-1" d="M49,73.25c-3.35,3.68-3.12,10.11,1.29,12.95,4.14,2.67,10.38.75,12.15-3.89A8.33,8.33,0,0,0,56,71.41c-5.47-.7-9.68,4.73-8.65,9.86.54,2.69,4.65,1.55,4.11-1.13-.49-2.42,2-5.17,4.5-4.42a4.05,4.05,0,0,1,2.41,5.43,4.25,4.25,0,0,1-5.86,1.37A4.42,4.42,0,0,1,52,76.27c1.84-2-1.16-5-3-3Z"/><path class="cls-1" d="M68.15,69.49C64.58,74.11,63,84.18,71.28,84.81a9.35,9.35,0,0,0,8.15-4.17c2.37-3.54,2.21-8.07,1.93-12.13-.19-2.72-4.45-2.74-4.26,0,.27,4,.82,11-4.47,12-5.75,1.07-2.41-6.78-.81-8.86s-2-4.29-3.68-2.15Z"/><path class="cls-1" d="M95.73,68.64l-2,15.68H98C97.71,81,97,75.49,101,74c5.27-2,2.78,5.63,1.71,7.73l3.89,1.64a18.42,18.42,0,0,1,7.92-12.3l-3.21-1.84.23,16.45c0,2.74,4.3,2.75,4.26,0l-.23-16.45a2.15,2.15,0,0,0-3.21-1.84,22.62,22.62,0,0,0-9.88,14.85c-.41,2.22,2.72,3.94,3.89,1.64,2.39-4.68,4.29-13.69-3.44-14.43-8.35-.8-9.7,8.81-9.2,14.87a2.13,2.13,0,0,0,4.26,0l2-15.68c.35-2.71-3.92-2.69-4.26,0Z"/><path class="cls-1" d="M132.21,66.9c-4.43.74-9.54,2-12,6.13-1.84,3.11-1.91,7.59.93,10.13s7,1.93,9.82-.32c4.15-3.32,4.18-8.88,3.91-13.73a2.14,2.14,0,0,0-4.18-.57,26.63,26.63,0,0,0,2,20.35c1.28,2.43,5,.28,3.68-2.15a22.18,22.18,0,0,1-1.6-17.07l-4.18-.57c.16,2.84.53,6.29-1,8.85-1.16,2-4.57,4-6.11,1.29-3.06-5.48,6.49-7.69,9.83-8.25,2.7-.45,1.55-4.56-1.13-4.11Z"/><path class="cls-1" d="M143.89,60.93l-2.57,28.12c-.25,2.73,4,2.71,4.26,0l2.57-28.12c.25-2.73-4-2.71-4.26,0Z"/><path class="cls-1" d="M153.84,68.49l-11,6.62a2.15,2.15,0,0,0-.43,3.35L154.59,88.5c2.1,1.74,5.13-1.26,3-3L145.46,75.44,145,78.78l11-6.62c2.34-1.42.21-5.1-2.15-3.68Z"/><path class="cls-1" d="M167.31,76.14l15.54-6.6a2.15,2.15,0,0,0,.76-2.91c-5.2-8.59-18.7-4.33-17.95,5.74.85,11.33,14.93,12.64,20.79,4.4,1.59-2.24-2.1-4.37-3.68-2.15-3.41,4.8-11.68,4.63-12.79-1.92-1-5.84,6.78-9.15,10-3.92l.76-2.91-15.54,6.6c-2.52,1.07-.35,4.74,2.15,3.68Z"/><path class="cls-1" d="M42.28,94.78c2.2,8.41-4.77,19.66,3.36,26.38a7.66,7.66,0,0,0,12.72-4.85c.33-2.71-3.93-2.69-4.26,0q-.73,3.46-5,2.12a7.13,7.13,0,0,1-3-4.2c-.94-3.21-.08-6.66.39-9.86a25.93,25.93,0,0,0-.15-10.73c-.69-2.65-4.8-1.53-4.11,1.13Z"/><path class="cls-1" d="M37.33,111.67H50.11c2.74,0,2.75-4.26,0-4.26H37.33c-2.74,0-2.75,4.26,0,4.26Z"/><path class="cls-1" d="M57.58,96l3.15,24.36c.34,2.63,4.43,2.8,4.26,0-.14-2.35-.68-5.83.91-7.81q6.4-3,6.34,2.8a23,23,0,0,1-.68,5c-.56,2.68,3.55,3.82,4.11,1.13,1.12-5.37,1.33-14.55-6.27-15.12s-9,8.44-8.66,14H65L61.84,96c-.35-2.68-4.61-2.72-4.26,0Z"/><path class="cls-1" d="M82.79,102.73l.78,16.19c.13,2.73,4.39,2.75,4.26,0L87,102.73c-.13-2.73-4.39-2.75-4.26,0Z"/><path class="cls-1" d="M82.07,93.35v.85a2.13,2.13,0,1,0,4.26,0v-.85a2.13,2.13,0,0,0-4.26,0Z"/><path class="cls-1" d="M114.65,99.85c-2.57-9.71-17.81-6.65-14.87,3.62,1.45,5.06,6.1,6.13,10.76,5.33,1.82-.31,4.51-1.37,6.23-.27,3.44,2.21.26,6.25-2.11,7.19-4,1.59-8.56-.56-12.19-2.21-2.48-1.13-4.64,2.54-2.15,3.68,5.2,2.37,11,4.73,16.58,2.18a8.81,8.81,0,0,0,5.29-9.92c-1-4.4-5.12-6-9.25-5.41-3,.41-7.74,2.38-9-1.7-1.54-4.83,5.48-5.81,6.66-1.35.7,2.65,4.81,1.52,4.11-1.13Z"/><path class="cls-1" d="M131.51,101.47a2.09,2.09,0,0,1,4.12.42c.19,3.4-3.58,5.32-6.08,6.73s-.25,5,2.15,3.68c2.85-1.6,5.88-3.44,7.34-6.51a7.77,7.77,0,0,0-.39-7.79c-3-4.25-9.95-2.48-11.24,2.33-.72,2.65,3.39,3.78,4.11,1.13Z"/><path class="cls-1" d="M131.07,122.75c2.74,0,2.75-4.26,0-4.26s-2.75,4.26,0,4.26Z"/><path class="cls-1" d="M7.08,125.79l2,29c.19,2.72,4.45,2.74,4.26,0l-2-29c-.19-2.72-4.45-2.74-4.26,0Z"/><path class="cls-1" d="M10.86,130c4.55-3.27,11.34-.79,11.31,5.24a6.9,6.9,0,0,1-11.43,5.1c-2.08-1.77-5.11,1.23-3,3,6.93,5.89,18,2.06,18.67-7.39S16.24,120.9,8.71,126.32c-2.21,1.59-.08,5.28,2.15,3.68Z"/><path class="cls-1" d="M32.37,128.3l1.58,25.57c.17,2.72,4.43,2.74,4.26,0L36.63,128.3c-.17-2.72-4.43-2.74-4.26,0Z"/><path class="cls-1" d="M34.76,147.66l13.64.78c2.74.16,2.73-4.1,0-4.26l-13.64-.78c-2.74-.16-2.73,4.1,0,4.26Z"/><path class="cls-1" d="M45.61,129.16l1,25.56c.1,2.73,4.37,2.75,4.26,0l-1-25.56c-.1-2.73-4.37-2.75-4.26,0Z"/><path class="cls-1" d="M65.46,134a8.42,8.42,0,0,1,8.07,7.58c.43,4.15-3,7.12-6.91,7.58-8.69,1-11.23-11.43-3.51-14.65,2.49-1,1.4-5.17-1.13-4.11a12.7,12.7,0,0,0-7.56,14.06c1.13,6.19,6.93,9.68,13,8.86s10.94-5.73,10.39-12a12.75,12.75,0,0,0-12.33-11.55c-2.74,0-2.75,4.24,0,4.26Z"/><path class="cls-1" d="M79.08,131.93l19.6-.79c2.73-.11,2.75-4.37,0-4.26l-19.6.79c-2.73.11-2.75,4.37,0,4.26Z"/><path class="cls-1" d="M85.47,130.84l1.7,17c.27,2.7,4.53,2.73,4.26,0l-1.7-17c-.27-2.7-4.53-2.73-4.26,0Z"/><path class="cls-1" d="M108.65,130.86a9.77,9.77,0,0,0-6.81,12.78c2,5.15,8.72,7.45,13.64,5.15,5.33-2.49,7.49-9.6,4.83-14.78a11.73,11.73,0,0,0-14.64-5.21c-2.49,1-1.4,5.17,1.13,4.11a7.69,7.69,0,0,1,8.82,1.74,6.91,6.91,0,0,1-.71,9.49,6.1,6.1,0,0,1-8.83-1.46c-1.78-3.1.44-7,3.69-7.72,2.67-.62,1.54-4.73-1.13-4.11Z"/><path class="cls-1" d="M129.65,128.07a6.71,6.71,0,0,0-5.67,7.21,2.17,2.17,0,0,0,2.7,2.05c3.4-.7,7.42,2.9,5.76,6.4a5.24,5.24,0,0,1-7.24,2.1c-2.37-1.39-4.52,2.29-2.15,3.68,5,2.94,12.4.41,13.82-5.51,1.58-6.64-5.12-12.05-11.32-10.78l2.7,2.05a2.9,2.9,0,0,1,2.55-3.1c2.7-.43,1.55-4.54-1.13-4.11Z"/><path class="cls-1" d="M140.05,125.79l2,24.69c.21,2.72,4.48,2.74,4.26,0l-2-24.69c-.21-2.72-4.48-2.74-4.26,0Z"/><path class="cls-1" d="M143.84,141l12.78.2c2.74,0,2.74-4.22,0-4.26l-12.78-.2c-2.74,0-2.74,4.22,0,4.26Z"/><path class="cls-1" d="M151.8,123.28l3,26.37c.3,2.69,4.57,2.72,4.26,0l-3-26.37c-.3-2.69-4.57-2.72-4.26,0Z"/><path class="cls-1" d="M166.9,124.88c-2.84,5.28-5.73,11.41-3.09,17.37a9.33,9.33,0,0,0,12.38,5c5.15-2.19,7.31-7.78,6-13.07-1.48-6.18-7.09-9.88-13-11.17-2.67-.58-3.81,3.52-1.13,4.11,3.66.8,7.34,2.46,9.18,5.94s1.43,8.15-2.29,10.07c-4.12,2.13-7.52-1.06-8-5.08s1.75-7.68,3.53-11c1.3-2.42-2.38-4.57-3.68-2.15Z"/><path class="cls-1" d="M188.2,120.65l2.13,26.45c.22,2.71,4.48,2.74,4.26,0l-2.13-26.45c-.22-2.71-4.48-2.74-4.26,0Z"/><path class="cls-1" d="M185.35,123.22c5.18-.84,11.6.5,13.36,6.16,1.38,4.44-2.89,9.6-7.41,6.71-2.32-1.48-4.46,2.2-2.15,3.68,6.63,4.24,14.71-1.84,14.1-9.21-.79-9.57-10.91-12.76-19-11.45-2.7.44-1.55,4.54,1.13,4.11Z"/><path class="cls-1" d="M205.73,117.2c1.81-2.05,4.68-.13,5.43,1.88.51,1.38.08,3.47-.31,4.82-.74,2.58-2.21,4.94-3.2,7.42-1.41,3.54-1.92,7.08-.46,10.68,1,2.51,5.14,1.41,4.11-1.13-3.41-8.41,7.48-15.79,3.36-24.55-2.17-4.61-8.45-6.08-11.94-2.13-1.81,2,1.19,5.07,3,3Z"/><path class="cls-1" d="M210.31,152.57c2.74,0,2.75-4.26,0-4.26s-2.75,4.26,0,4.26Z"/><path class="cls-1" d="M.72,17.5,0,61c-.09,5.49,8.43,5.49,8.52,0L9.24,17.5C9.33,12,.81,12,.72,17.5Z"/><path class="cls-1" d="M5,48.17l22.18-2.35c5.4-.57,5.46-9.1,0-8.52L5,39.65c-5.4.57-5.46,9.1,0,8.52Z"/><path class="cls-1" d="M23.89,16.64,23.07,58.4c-.11,5.49,8.41,5.49,8.52,0l.82-41.75c.11-5.49-8.41-5.49-8.52,0Z"/><path class="cls-1" d="M44.25,15.45C38.62,23.65,32.89,34,37.88,44c3.94,7.86,14.69,11.26,21.51,4.87,6.21-5.81,7.94-17.43,6.3-25.4C63.78,14.16,54.51,7.49,45.43,12c-4.9,2.46-.59,9.81,4.3,7.36,9.61-4.81,9.45,19.21,3.63,23.42-5,3.65-8.93-3.27-8.85-7.52.1-5.81,3.95-11,7.1-15.54s-4.27-8.8-7.36-4.3Z"/><path class="cls-1" d="M67.91,12.41,71.31,50.1c.33,3.7,6.06,6.43,7.94,2.15,4.24-9.67,6.81-20,11-29.65l-7.79-1c3.47,9.7,3.17,20.36,6.64,30.06,1.35,3.77,7.09,4.31,8.22,0L107.68,12c1.38-5.31-6.83-7.58-8.22-2.27L89.14,49.38h8.22c-3.47-9.7-3.17-20.36-6.64-30.06-1.09-3-6.18-4.68-7.79-1-4.24,9.67-6.81,20-11,29.65l7.94,2.15L76.43,12.41c-.49-5.42-9-5.47-8.52,0Z"/><path class="cls-1" d="M139.9,19c-8.35,1.18-17,4.89-19.88,13.54-2.42,7.34,1.78,16.05,9.82,17.24,8.52,1.26,12.87-6.84,15.42-13.56a105.06,105.06,0,0,0,6.46-32C152-.56,144.3-1.71,143.37,3a115.4,115.4,0,0,0,0,44.71c1,5.38,9.26,3.1,8.22-2.27a104.18,104.18,0,0,1,0-40.18l-8.37-1.13c-.56,11.05-2.46,23.72-7.83,33.58-1.05,1.93-2.65,4.38-5.2,3.32s-2.68-4.27-1.83-6.42c2.14-5.41,8.71-6.72,13.82-7.45,5.41-.77,3.11-9-2.27-8.22Z"/><path class="cls-1" d="M169,12.76c-9,2.51-15.62,11.88-13.5,21.35,2,9,11.52,15.42,20.61,13.83A18.46,18.46,0,0,0,190.84,28c-1.16-9.51-10.46-16.44-19.84-15.55-5.41.52-5.47,9,0,8.52,4.77-.45,9.79,1.95,11.18,6.87S179.91,38.46,175,39.5C163,42,159.67,24.19,171.26,21c5.28-1.46,3-9.69-2.27-8.22Z"/></g></g></svg>