<svg xmlns="http://www.w3.org/2000/svg" viewBox="0 0 188.59 127.25"><defs><style>.cls-1{fill:#ed3e95;}</style></defs><title>Asset 37</title><g id="Layer_2" data-name="Layer 2"><g id="Layer_1-2" data-name="Layer 1"><path class="cls-1" d="M32.56,3.23c-.2,14.53-3.29,28.83-3.44,43.37h4.29V45c0-2.76-4.29-2.77-4.29,0V46.6c0,2.76,4.27,2.77,4.29,0,.14-14.54,3.23-28.84,3.44-43.37,0-2.76-4.26-2.77-4.29,0Z"/><path class="cls-1" d="M26.12,5.95c5.45-.48,11.31-1.27,16.61.5,2.63.88,3.75-3.27,1.14-4.14C38.19.41,32,1.14,26.12,1.65c-2.73.24-2.76,4.54,0,4.29Z"/><path class="cls-1" d="M25.55,50c4.47-1.39,9.17.23,13.74.08,2.76-.09,2.77-4.39,0-4.29-5,.17-10-1.46-14.88.08-2.63.82-1.51,5,1.14,4.14Z"/><path class="cls-1" d="M62.33,45c2.17-5.12,1.76-10.79,1.8-16.24.06-7.63.95-15.33,1.47-22.94l-4.22.57c4.63,12.3,6.15,25.38,9.19,38.1.52,2.18,3.49,1.9,4.14,0,2.45-7.09,2.67-14.59,3-22,.2-5.1-1.11-13,1.27-17.54C80.2,2.43,76.5.26,75.22,2.72c-2.35,4.54-1.56,10.57-1.69,15.51-.22,8.38-.21,17.08-3,25.08h4.14c-3-12.72-4.56-25.8-9.19-38.1a2.16,2.16,0,0,0-4.22.57c-.46,6.76-1.12,13.55-1.41,20.32-.23,5.35.87,11.65-1.27,16.69-1.06,2.52,2.63,4.71,3.71,2.17Z"/><path class="cls-1" d="M85.23,5.52c-.09,12.16-1.65,24.26-1.06,36.43a2.21,2.21,0,0,0,2.15,2.15c5.53.47,10.68-2,15.94-3.3,2.68-.66,1.55-4.8-1.14-4.14-4.86,1.2-9.7,3.58-14.8,3.14l2.15,2.15c-.6-12.17,1-24.27,1.06-36.43,0-2.76-4.27-2.77-4.29,0Z"/><path class="cls-1" d="M88.52,26.48c4.87-1.2,10.18-.39,14.89-2.29,2.53-1,1.43-5.18-1.14-4.14-4.68,1.89-10,1.1-14.89,2.29-2.68.66-1.55,4.8,1.14,4.14Z"/><path class="cls-1" d="M88,8.24c5.55.43,11.06-.5,16.6-.57,2.76,0,2.77-4.33,0-4.29-5.55.07-11.05,1-16.6.57C85.2,3.73,85.21,8,88,8.24Z"/><path class="cls-1" d="M116.44,41a295.42,295.42,0,0,1,1.8-36.58l-2.15,2.15c2.05-.11,4.09-.32,6.14-.44,1.06-.06,2.12-.14,3.18-.13.82,0,2.14.48,1.66-.11,1.74,2.15,4.76-.9,3-3-2.38-2.95-10.85-.75-14-.57a2.22,2.22,0,0,0-2.15,2.15A295.43,295.43,0,0,0,112.14,41c0,2.76,4.29,2.77,4.29,0Z"/><path class="cls-1" d="M114.86,24.19a22.86,22.86,0,0,0,6.86.14c1.27-.1,5.27-.76,5.93-.11,2,1.94,5-1.1,3-3-3.54-3.47-10.39-.14-14.69-1.12-2.69-.61-3.84,3.53-1.14,4.14Z"/><path class="cls-1" d="M115.43,43.66a90.68,90.68,0,0,1,15.46-1.07c2.76,0,2.77-4.3,0-4.29a97.24,97.24,0,0,0-16.6,1.22c-2.72.48-1.57,4.61,1.14,4.14Z"/><path class="cls-1" d="M142.2,42.73c-.12-13.2-3.13-27.23,1.14-40.05l-2.64,1.5c10.28,1.63,18.39,6.76,17.07,18.33-1.15,10.09-9.51,14.22-17.66,18.36-2.46,1.25-.29,5,2.17,3.71,10.48-5.32,19.52-11.06,19.94-24,.4-12.51-9.07-18.77-20.38-20.57a2.22,2.22,0,0,0-2.64,1.5c-4.41,13.23-1.41,27.59-1.3,41.19,0,2.76,4.32,2.77,4.29,0Z"/><path class="cls-1" d="M8.81,58.82A39.5,39.5,0,0,0,5,75.39c0,6.15,4,8.2,8.9,4.36,2.17-1.71-.89-4.73-3-3-.32.25-1.68.9-1.37,1.09s-.13-.72-.16-1.11a23.47,23.47,0,0,1,.4-5.62A36.64,36.64,0,0,1,12.52,61c1.24-2.46-2.47-4.64-3.71-2.17Z"/><path class="cls-1" d="M2.07,71.22h9.16c2.76,0,2.77-4.29,0-4.29H2.07c-2.76,0-2.77,4.29,0,4.29Z"/><path class="cls-1" d="M18.3,67.55c-2.53,2.35-2.85,6.71-1.24,9.66,1.9,3.49,6,3.3,8.5.54,2.33-2.55,2.34-6.79.71-9.71-2.09-3.76-6.12-3.7-9.12-1.07-2.08,1.83,1,4.85,3,3a3.52,3.52,0,0,1,1.08-.7.56.56,0,0,1,.6,0,3.77,3.77,0,0,1,.82,1.13,4.54,4.54,0,0,1-.17,4.25,4.09,4.09,0,0,1-1,.82,1.1,1.1,0,0,1-.39.13c.08,0,.37,0,.12,0-.07,0-.13-.06-.23-.19s-.29-.52-.33-.62a4,4,0,0,1,.66-4.24c2-1.88-1-4.92-3-3Z"/><path class="cls-1" d="M47.24,62.63c-4.77-2.47-12.25,1.68-9.7,7.58,1.09,2.51,4.37,3.26,6.22,5.12,1.69,1.71,4.56,4.82,2.3,7.19a3,3,0,0,1-4.92-.8c-1.31-2.44-5-.27-3.71,2.17A7.37,7.37,0,0,0,51,82.27c.92-3.52-1.18-6.76-3.45-9.23a17,17,0,0,0-3.89-3.33c-1.26-.73-1.93-.42-1.76-2s1.82-2.09,3.2-1.37c2.45,1.27,4.62-2.43,2.17-3.71Z"/><path class="cls-1" d="M51,62.2A35.73,35.73,0,0,0,54.61,73c1.26,2.46,5,.29,3.71-2.17a32.13,32.13,0,0,1-3.22-9.79c-.43-2.72-4.57-1.57-4.14,1.14Z"/><path class="cls-1" d="M58.62,59.4c-2.39,4.09-3.43,9-4.32,13.64-.74,3.85-1.65,8.13-1.05,12.06.41,2.72,4.55,1.57,4.14-1.14-.52-3.45.59-7.58,1.28-10.93.8-3.85,1.65-8,3.65-11.46C63.72,59.17,60,57,58.62,59.4Z"/><path class="cls-1" d="M61.76,66.21c0,5.35-.6,10.68-.57,16,0,2.76,4.31,2.77,4.29,0,0-5.35.53-10.68.57-16,0-2.76-4.27-2.77-4.29,0Z"/><path class="cls-1" d="M65.43,72.3c.65-.63,2.91-2.78,3.57-2.55s1,2.41,1.17,3.22c.49,3.24.2,6.57.19,9.83,0,2.76,4.28,2.77,4.29,0,0-4.39.59-9.22-.95-13.42-.72-2-2.11-3.69-4.32-3.86-2.76-.21-5.16,2-7,3.74-2,1.93,1.06,5,3,3Z"/><path class="cls-1" d="M89.53,65.63c.45-3.85-1.52-8.57-6.19-7.07-3.77,1.21-6,5.75-5.87,9.5S79,76.12,81.57,78.85a4.93,4.93,0,0,0,4.53,1.81c2.13-.44,3.42-2.37,4.28-4.21,1.16-2.49-2.54-4.67-3.71-2.17a9.6,9.6,0,0,1-1,1.83c-.16.21-.65.38-.34.35s-.08,0-.27-.21a12.72,12.72,0,0,1-.88-1.05,15.17,15.17,0,0,1-2.35-6.61A6.15,6.15,0,0,1,83.93,63,2.41,2.41,0,0,1,85,62.56c-.28,0,.15.17,0,0,.6.65.37,2.23.27,3.11-.32,2.74,4,2.72,4.29,0Z"/><path class="cls-1" d="M103.06,61.06c-1.85,5.24-4.07,22.53,4.55,23.16,5.13.37,7.16-5.52,8.14-9.51,1.16-4.72,2.43-11.23.39-15.88-1.11-2.52-4.81-.34-3.71,2.17,1.21,2.76-1.16,20.88-5,18.72-2.06-1.16-1.53-7.3-1.46-9.15a28.69,28.69,0,0,1,1.23-8.37c.92-2.61-3.22-3.73-4.14-1.14Z"/><path class="cls-1" d="M120.16,58.76c-.1,6.79-1.22,13.58-1.64,20.36-.23,3.81-1.75,12.1,2.13,14.7,2.3,1.55,4.45-2.17,2.17-3.71-.25-.17-.23-4.81-.22-5.84,0-3.21.28-6.41.54-9.61.43-5.29,1.23-10.6,1.32-15.91,0-2.76-4.25-2.77-4.29,0Z"/><path class="cls-1" d="M123.59,64.43c1.08-1.43,2.61-1.82,3.82-.34a4.54,4.54,0,0,1,.65,4.34,9.77,9.77,0,0,1-2.12,3.85c-1,1.05-1.12,1-1.78-.28-1.3-2.44-5-.27-3.71,2.17,1.49,2.79,4.37,4.16,7.19,2.28a12.77,12.77,0,0,0,4.75-7.6A8.6,8.6,0,0,0,129.28,60c-3.4-2.44-7.12-.77-9.4,2.26-1.66,2.21,2.06,4.35,3.71,2.17Z"/><path class="cls-1" d="M137.91,59.34a40.48,40.48,0,0,0,3.74,15.25c.88,1.74,3.39,1.14,3.92-.51,1-3,1.47-6,2.43-9l-3.92.51c1.46,3.17,2.52,6.51,4,9.67a2.16,2.16,0,0,0,3.71,0c2.69-5.39,2.63-11.76,3-17.64.18-2.76-4.12-2.75-4.29,0-.32,5.06-.1,10.83-2.41,15.47h3.71c-1.48-3.16-2.55-6.5-4-9.67-.82-1.79-3.4-1.09-3.92.51-1,3-1.48,6-2.43,9l3.92-.51a35.08,35.08,0,0,1-3.16-13.08c-.21-2.74-4.5-2.76-4.29,0Z"/><path class="cls-1" d="M157.37,62.77c-.05,3.43-.71,6.88-.57,10.31.11,2.75,4.41,2.77,4.29,0-.14-3.43.52-6.87.57-10.31,0-2.76-4.25-2.77-4.29,0Z"/><path class="cls-1" d="M156.88,51.32c-.43,1.53-.06,3.45,1.56,4.14a2.36,2.36,0,0,0,1.65.22,2.15,2.15,0,0,0,.51-3.92c-.22-.1-.34-.27,0,.07a1.26,1.26,0,0,1,.35.72c.09.5,0-.12,0-.09s-.11.54,0,0a2.15,2.15,0,1,0-4.14-1.14Z"/><path class="cls-1" d="M164.89,42.73c1.6,4.89,1.23,10,.83,15.06-.28,3.48-1.32,7.29-1.11,10.79.38,6.24,7.14,7.43,10.5,2.72,1.61-2.25-2.12-4.4-3.71-2.17q-2.78.67-2.49-1.07a12.77,12.77,0,0,1,.11-1.65c.1-1.1.33-2.19.48-3.29.26-2,.42-4,.58-6.07.39-5.2.59-10.44-1-15.45-.85-2.62-5-1.5-4.14,1.14Z"/><path class="cls-1" d="M165.82,57.48a12.87,12.87,0,0,0,5.72-.65,2.2,2.2,0,0,0,1.5-2.64,2.17,2.17,0,0,0-2.64-1.5,9.93,9.93,0,0,1-4.58.5,2.16,2.16,0,0,0-2.15,2.15,2.2,2.2,0,0,0,2.15,2.15Z"/><path class="cls-1" d="M175.69,45c.11,6.85,1.26,13.77.57,20.61-.27,2.75,4,2.73,4.29,0,.69-6.84-.46-13.76-.57-20.61,0-2.76-4.34-2.77-4.29,0Z"/><path class="cls-1" d="M180.07,58.9a35.63,35.63,0,0,1,5-2.79l-2.6-.34c2.55,2.78,1.4,8.12,1.78,11.58.29,2.72,4.59,2.75,4.29,0-.53-4.92.62-10.64-3-14.61a2.21,2.21,0,0,0-2.6-.34,35.63,35.63,0,0,0-5,2.79c-2.29,1.52-.14,5.24,2.17,3.71Z"/><path class="cls-1" d="M16.17,122.31c2.14-7.48,6.32-14.14,8.42-21.64H20.45c2.13,5.07,3.92,10.27,6.54,15.12.71,1.31,3.06,1.49,3.71,0,2.34-5.37,4.46-10.83,6.7-16.24L33.18,99c.34,5,.51,9.93,1.19,14.86.52,3.77,1.1,8.34,4,11.14,2,1.93,5-1.1,3-3-2.63-2.57-2.77-8.13-3.11-11.5-.39-3.81-.53-7.64-.79-11.46a2.16,2.16,0,0,0-4.22-.57c-2.1,5.07-4.08,10.18-6.27,15.21h3.71c-2.44-4.52-4.12-9.36-6.1-14.09-.77-1.83-3.52-2.23-4.14,0-2.1,7.49-6.28,14.16-8.42,21.64-.76,2.66,3.38,3.8,4.14,1.14Z"/><path class="cls-1" d="M42.35,102.65c3.23,2.91,5.5,6.68,8.59,9.73,2,1.94,5-1.09,3-3-3.09-3.05-5.35-6.83-8.59-9.73-2.05-1.84-5.1,1.18-3,3Z"/><path class="cls-1" d="M62.39,98.47c-3.57,3.33-8.74,5.5-10.6,10.34s0,10.32-1.4,15.23c-.77,2.66,3.37,3.79,4.14,1.14,1.19-4.1.16-8.39.79-12.55.84-5.57,6.36-7.63,10.11-11.12,2-1.89-1-4.92-3-3Z"/><path class="cls-1" d="M80.45,103c3.4-1.75,10.67-2.41,13.86,0,2.2,1.67,4.35-2.06,2.17-3.71-4.44-3.35-13.52-2.4-18.2,0-2.46,1.26-.29,5,2.17,3.71Z"/><path class="cls-1" d="M85.81,100c.06,8.4.9,16.8.57,25.19-.11,2.76,4.19,2.76,4.29,0,.33-8.4-.52-16.8-.57-25.19,0-2.76-4.31-2.77-4.29,0Z"/><path class="cls-1" d="M102.41,100.56a202.94,202.94,0,0,0-1.67,24.4,2.2,2.2,0,0,0,2.15,2.15,22.27,22.27,0,0,0,10.26-1.58c2.54-1,1.43-5.16-1.14-4.14a19.59,19.59,0,0,1-9.12,1.43L105,125a203,203,0,0,1,1.67-24.4c.31-2.74-4-2.72-4.29,0Z"/><path class="cls-1" d="M102.84,114.16c3.84-.43,7.64-1.14,11.45-1.79,2.72-.46,1.57-4.6-1.14-4.14-3.43.59-6.85,1.25-10.31,1.64-2.72.31-2.75,4.6,0,4.29Z"/><path class="cls-1" d="M104,102.13h10.31c2.76,0,2.77-4.29,0-4.29H104c-2.76,0-2.77,4.29,0,4.29Z"/><path class="cls-1" d="M128.82,95.41c-1.71,5.93-3.7,11.77-5.29,17.74-.89,3.35-3.34,9.41-1.89,12.81.63,1.49,3,1.32,3.71,0a3,3,0,0,1,.53-.84c1.66-2.21-2.07-4.35-3.71-2.17a3,3,0,0,0-.53.84h3.71c-.37-.88,1.4-5.8,1.67-6.92.55-2.32,1.21-4.62,1.88-6.91,1.32-4.48,2.78-8.92,4.07-13.41.77-2.66-3.38-3.8-4.14-1.14Z"/><path class="cls-1" d="M129.61,97.63c2.41,4.25,4.51,8.66,6.87,12.94,1.48,2.7,4.21,5.91,5,8.89l.55-2.09-.16.16L144,117l-.5-.17c-2.62-.89-3.75,3.25-1.14,4.14l.5.17a2.13,2.13,0,0,0,2.09-.55l.16-.16a2.17,2.17,0,0,0,.55-2.09c-.78-2.91-3.19-5.92-4.65-8.51-2.67-4.72-5-9.63-7.67-14.35-1.36-2.4-5.07-.24-3.71,2.17Z"/><path class="cls-1" d="M125.74,113c3.7,0,7.34,0,10.88-1.22,2.6-.88,1.48-5-1.14-4.14-3.19,1.08-6.41,1.06-9.73,1.07-2.76,0-2.77,4.3,0,4.29Z"/><path class="cls-1" d="M153.08,118.31c-.25-8-.42-15.92-.62-23.87l-4,1.08a73.6,73.6,0,0,1,7.79,14.07,2.18,2.18,0,0,0,3.59.95c4.89-4.75,6-11.63,10.26-16.75l-3.67-1.52c0,10.53,2.22,20.91,2.09,31.44l2.72-2.07-1.42-.24c-2.7-.45-3.87,3.69-1.14,4.14l1.42.24a2.18,2.18,0,0,0,2.72-2.07c.13-10.53-2-20.91-2.09-31.44,0-1.73-2.43-3-3.67-1.52-4.26,5.1-5.46,12.09-10.26,16.75l3.59.95a78.35,78.35,0,0,0-8.22-15.09c-1.14-1.66-4.06-1.18-4,1.08.2,8,.37,15.92.62,23.87.09,2.76,4.38,2.77,4.29,0Z"/></g></g></svg>