<svg xmlns="http://www.w3.org/2000/svg" viewBox="0 0 251.08 234.84"><defs><style>.cls-1{fill:#231f20;}</style></defs><title>Asset 23</title><g id="Layer_2" data-name="Layer 2"><g id="Layer_1-2" data-name="Layer 1"><path class="cls-1" d="M17.65,28.88c9.67-1.84,18.72-5.52,28.26-7.8,3.16-.75,6.3-1.16,9.31-2.35a22,22,0,0,1,5.58-1.55,38.42,38.42,0,0,1,14.14.63,20.39,20.39,0,0,1,4,1.35c1.66,2,0,5.45-1.1,7.24C72,36.14,58.75,41.22,48.29,43.76l2.32,5.51c7.3-3.39,16-7.47,24.2-4.53,4.44,1.6,8.53,5.91,7.6,11-.67,3.64-3.81,5.87-6.85,7.51-14.93,8-33.51,10.7-50.23,10.41-3.88-.07-3.88,6,0,6a122.08,122.08,0,0,0,36.94-4.93C70.62,72.23,82.75,69,87.08,60.5c4.18-8.23-1.12-17.51-9-20.92-10.28-4.46-21.09.1-30.52,4.48-3.19,1.48-.88,6.29,2.32,5.51,11.8-2.86,25.36-8.6,32.44-19,2.61-3.83,4.46-8.92,2.37-13.4-2-4.26-7.18-5.2-11.44-5.89-7.73-1.24-14.45.08-21.62,2.4-5.42,1.76-11.2,2.49-16.67,4.26A154.11,154.11,0,0,1,16,23.07c-3.81.72-2.2,6.54,1.6,5.82Z"/><path class="cls-1" d="M43.08,3.77a234.38,234.38,0,0,1,.58,89c-.71,3.79,5.1,5.42,5.82,1.6a242.4,242.4,0,0,0-.58-92.21c-.76-3.8-6.57-2.19-5.82,1.6Z"/><path class="cls-1" d="M98,8.16,95.93,70.69c-.13,3.88,5.9,3.88,6,0L104,8.16c.13-3.88-5.9-3.88-6,0Z"/><path class="cls-1" d="M129.67,34.33C116.24,30,100.44,45.9,110,58.55c4.42,5.88,12.83,5.59,18.29,1.34,7.26-5.65,7.62-15.61,7.53-24,0-3.45-4.9-4-5.92-.8-3.53,11.09-5.62,26.42,8,31.31,3.66,1.31,5.23-4.51,1.6-5.82C129.54,57,133.35,44,135.68,36.68l-5.92-.8c.06,5,.28,10.63-2.05,15.24-2.15,4.25-8.72,8.74-12.79,4-7-8,5.38-17.53,13.16-15,3.7,1.2,5.29-4.62,1.6-5.82Z"/><path class="cls-1" d="M106.65,100.6l-.33,17.6c-.07,3.88,6,3.88,6,0l.33-17.6c.07-3.88-6-3.88-6,0Z"/><path class="cls-1" d="M109.45,88.28v.88a3,3,0,0,0,6,0v-.88a3,3,0,0,0-6,0Z"/><path class="cls-1" d="M139.21,92c-.78-11.75-18.3-10.24-18.14,1.31a10,10,0,0,0,9,9.53c1.54.18,3.11-.14,4.63,0a5.4,5.4,0,0,1,3.25.83q1.48,3.3-1.31,5.09c-3.68,2.58-8.77.39-12.31-1.24l-.72,5.51,2.75-.45c3.82-.63,2.2-6.44-1.6-5.82l-2.75.45c-2.48.41-3,4.46-.72,5.51,7.59,3.5,21.23,5.75,23.22-5.8a8.53,8.53,0,0,0-5.11-9.34c-2.18-.92-4.38-.63-6.68-.73s-5,.08-5.56-3c-.64-3.41,5.69-6.54,6-1.89.26,3.85,6.29,3.88,6,0Z"/><path class="cls-1" d="M44.09,144.61,42,185.75l5.92-.8-.34-2.39c-.54-3.83-6.35-2.2-5.82,1.6l.34,2.39c.5,3.51,5.76,2.42,5.92-.8l2.09-41.14c.2-3.88-5.83-3.87-6,0Z"/><path class="cls-1" d="M45,144.76l17.74,29.53c1.65,2.75,5.32,1.32,5.62-1.52l5.35-50.29c.41-3.85-5.62-3.83-6,0l-5.35,50.29,5.62-1.52L50.17,141.72c-2-3.32-7.21-.29-5.21,3Z"/><path class="cls-1" d="M90.55,134.09c-8.48,5.21-17,13-16.67,23.87.32,9.1,8.4,16.78,17.65,14.56,8.87-2.13,14.68-10.95,14.26-19.85A23.78,23.78,0,0,0,90.42,131.6c-3.63-1.39-5.2,4.44-1.6,5.82,11.5,4.41,16.22,23.83,2.51,28.86-8,2.92-12.78-5.64-10.9-12.55,1.8-6.63,7.59-11,13.16-14.43,3.3-2,.28-7.25-3-5.21Z"/><path class="cls-1" d="M105.3,137.69l36.05-8.11c3.78-.85,2.18-6.67-1.6-5.82l-36.05,8.11c-3.78.85-2.18,6.67,1.6,5.82Z"/><path class="cls-1" d="M120.91,130.54l1.75,29.05c.23,3.86,6.26,3.88,6,0l-1.75-29.05c-.23-3.86-6.26-3.88-6,0Z"/><path class="cls-1" d="M206.18,116.17c-5.36-5.68-14-3.83-18.84,1.54s-10.85,17.16-7.17,24.37c3.54,6.94,11.56,5.53,15.68.13,3-3.94,4.63-9,6.62-13.47l7.63-17.28a3,3,0,0,0-5.21-3,26.79,26.79,0,0,0,8.31,39.31c3.36,2,6.4-3.26,3-5.21-11.36-6.59-13.89-20.6-6.15-31.06l-5.21-3-7.25,16.42c-1.93,4.36-3.58,11-7.1,14.41-4,3.87-5.84-1.27-4.94-5.18a34.31,34.31,0,0,1,3.18-7.61c2.23-4.37,8.16-11.32,13.15-6,2.67,2.83,6.93-1.44,4.26-4.26Z"/><path class="cls-1" d="M164.59,92.9l63.19-20c3.69-1.17,2.11-7-1.6-5.82L163,87.08c-3.69,1.17-2.11,7,1.6,5.82Z"/><path class="cls-1" d="M209.23,69.84l22.93,3.06L230,67.75,217,80.14c-2.81,2.68,1.45,6.94,4.26,4.26l13-12.38c2.1-2,.27-4.83-2.13-5.15l-22.93-3.06c-3.83-.51-3.8,5.52,0,6Z"/><path class="cls-1" d="M80.79,99.64,8.57,105.42c-3.84.31-3.88,6.34,0,6l72.22-5.78c3.84-.31,3.88-6.34,0-6Z"/><path class="cls-1" d="M18.59,96.38,1.47,107.1a3,3,0,0,0,0,5.21l16.71,9.26c3.4,1.88,6.44-3.32,3-5.21L4.51,107.1v5.21l17.12-10.72c3.28-2.06.26-7.28-3-5.21Z"/><path class="cls-1" d="M72.42,200.42c-.6-9.23-8.22-11.38-15.92-8.09s-16,10.26-19,18.34c-3.07,8.52.9,19.19,9.41,22.66,9,3.67,19.82.2,27.23-5.35,3.57-2.67.08-8.77-3.54-6.06-5,3.76-11.51,6.6-17.92,5.74-6.65-.89-10.34-7.17-8.89-13.68,1.2-5.36,6.91-10.13,11.27-13,2.58-1.68,9.93-6.29,10.3-.6.29,4.48,7.31,4.51,7,0Z"/><path class="cls-1" d="M98.35,185.69C84.51,186,79.14,207.51,86,217.39c4.77,6.87,14.65,6.62,20.92,2,8.1-5.94,11.53-18.62,4.82-26.77-6.35-7.71-19.49-10.63-24.82-.3-2.07,4,4,7.56,6.06,3.54,3.93-7.61,14.68-.61,15.32,5.9.67,6.81-7.4,18-15,13.11-6.4-4.12-3.07-22,5.09-22.18,4.51-.1,4.52-7.12,0-7Z"/><path class="cls-1" d="M124,200.09c8.1-7.17,19.56-14.45,21.73-25.9.68-3.56.66-9.34-2.28-12.05-2.69-2.49-6.17-1.16-8.5,1.07-5.87,5.63-9.24,14.52-10.79,22.31-1.93,9.66-3.63,25.41,6.73,31.2,10,5.57,22.07-4.61,28.16-11.72,2.92-3.41-2-8.4-5-5-3.9,4.56-15.28,16-21.39,9.2S130,187,133,179.49a42.81,42.81,0,0,1,4.83-8.86c.17-.24,2.76-3.13,2.78-3.05l-2.17-.52a7.09,7.09,0,0,1,.33,1.37c-.22,1.11.28,2.56.12,3.76-1.3,9.89-13.07,16.87-19.92,22.93-3.39,3,1.59,7.94,5,5Z"/><path class="cls-1" d="M169.48,172.85c-12.77,6.54-8.49,30.76,7,29.15,15.23-1.58,23.83-24.88,11.61-35.1-7.85-6.56-16.5.71-21.28,7.2-2.68,3.64,3.4,7.14,6.06,3.54,2.82-3.83,8.56-9.56,12.24-3.56,2.9,4.73,1.88,11.54-1.37,15.8s-9.89,7.84-13.4,2.06c-2.61-4.29-2.07-10.61,2.68-13,4-2.06.47-8.11-3.54-6.06Z"/><path class="cls-1" d="M196.49,161.16c1.35,16,22.17,5.44,27.52-2.38,2.12-3.09-1.91-6.28-4.8-4.8-10,5.1-15.57,30-3.85,36,5.43,2.78,12.06.15,17.1-2.25,6-2.85,11.34-6.77,17-10.24,3.83-2.37.31-8.44-3.54-6.06-7.25,4.48-15.59,12-24.43,12.66-10.3.76-4.16-21.27,1.29-24.06l-4.8-4.8c-1.52,2.22-14,10.71-14.45,5.92-.38-4.46-7.39-4.5-7,0Z"/><path class="cls-1" d="M157.54,38.29c1.08-2.38,1.81-5.11-.32-7.17-1.91-1.85-4.95-1.66-7.27-.79-5.28,2-7.84,8.95-8.73,14s.22,11.07,5.17,13.77c5.21,2.85,11,.12,14.9-3.57,2.83-2.67-1.44-6.93-4.26-4.26-3.72,3.51-9.75,4.5-10.1-2.16a17.53,17.53,0,0,1,1.66-7.45,12.21,12.21,0,0,1,2-3.55A16.65,16.65,0,0,1,152.06,36a2,2,0,0,1,.92-.24q1.26-.05-.64-.52c-1.59,3.51,3.61,6.58,5.21,3Z"/><path class="cls-1" d="M174.94,2.82c-3.42,16.79-6.9,33.75-8.55,50.83-.37,3.86,5.66,3.83,6,0,1.6-16.55,5-33,8.33-49.23.77-3.79-5-5.41-5.82-1.6Z"/><path class="cls-1" d="M186,20.17c-5.65,4.78-8.86,12.23-15.5,15.83a3,3,0,0,0,.72,5.51c6.76,1.72,10.07,9.1,17.29,10.38,6.83,1.22,13.6-2,18.62-6.37,2.92-2.56-1.36-6.82-4.26-4.26-5.09,4.47-12.35,6.82-18.16,2.36-3.91-3-6.92-6.66-11.89-7.93l.72,5.51c7.2-3.91,10.62-11.62,16.72-16.77,3-2.51-1.32-6.76-4.26-4.26Z"/></g></g></svg>