<svg xmlns="http://www.w3.org/2000/svg" viewBox="0 0 139.77 150.23"><defs><style>.cls-1{fill:#ed3e95;}</style></defs><title>Asset 32</title><g id="Layer_2" data-name="Layer 2"><g id="Layer_1-2" data-name="Layer 1"><path class="cls-1" d="M34.48,3.2l-2,28.53c-.31,4.27,6.35,4.25,6.65,0l2-28.53c.31-4.27-6.35-4.25-6.65,0Z"/><path class="cls-1" d="M27.56,7.32l20.72-.39c4.27-.08,4.29-6.73,0-6.65L27.56.67c-4.27.08-4.29,6.73,0,6.65Z"/><path class="cls-1" d="M79.46,6.68c-5,4.76-9,11.87-5.51,18.72,3.22,6.33,10.79,7.19,16.18,3.07C95.75,24.18,98,15.51,94,9.41A11,11,0,0,0,78,7c-3.34,2.67,1.39,7.35,4.7,4.7C85,9.86,88.23,12,89,14.37a8.29,8.29,0,0,1-3.87,9.46c-3,1.59-5.7-.41-5.88-3.7-.18-3.55,2.49-6.47,4.89-8.74,3.11-2.95-1.59-7.65-4.7-4.7Z"/><path class="cls-1" d="M19.18,41.39,21,59l6.53-.88c-.58-2.09-2.26-6.77,0-8.26,2.89-2,3.49,2.33,2.34,4.38l6.2,1.68a19.42,19.42,0,0,1,.41-6.31c.65-2,3.81-5.36,4.63-1.31.6,3-.55,6.1.21,9.2,1,4.16,7.43,2.4,6.41-1.77-.88-3.6.75-7.33-.58-10.89a7.74,7.74,0,0,0-7-5.1C31.23,39.55,29.25,49,29.42,55.94c.08,3.22,4.54,4.62,6.2,1.68,3.15-5.59,1.17-15.07-6.5-15.3-9.66-.29-9.75,11.09-8,17.6,1,3.48,6.94,3,6.53-.88L25.83,41.39c-.45-4.21-7.1-4.26-6.65,0Z"/><path class="cls-1" d="M52.27,41.7c-1.71,4-3.48,8.35-1.86,12.65,1.27,3.39,4.39,6.07,8.12,6,8.75-.16,10.15-13.06,10.42-19.41.18-4.28-6.47-4.27-6.65,0-.15,3.39-.36,9.18-2.81,11.89-1.26,1.39-2.43.6-3-1.09-.65-2.08.68-4.83,1.49-6.69,1.68-3.89-4-7.28-5.74-3.36Z"/><path class="cls-1" d="M85.83,40.36c-6.95-6-16.72.5-16.36,9A11.4,11.4,0,0,0,87.2,58.2c3.52-2.39.2-8.16-3.36-5.74-2.78,1.89-7,1.12-7.66-2.62-.39-2.27,2.14-7.18,4.94-4.77,3.23,2.77,8-1.91,4.7-4.7Z"/><path class="cls-1" d="M99.68,20.22,91.87,56.14c-.91,4.17,5.5,6,6.41,1.77L106.09,22c.91-4.17-5.5-6-6.41-1.77Z"/><path class="cls-1" d="M101.26,43.68A3.43,3.43,0,0,1,105,41.57c2.24.51,2.61,3.28,2.66,5.18.11,4.6-1.28,8.76-.45,13.39.75,4.21,7.16,2.42,6.41-1.77-1.29-7.2,3.73-16.29-3.66-21.7-4.77-3.49-11.87-1.55-14.47,3.65-1.91,3.82,3.83,7.19,5.74,3.36Z"/><path class="cls-1" d="M11.61,77.4l7.17,20.81a3.36,3.36,0,0,0,6.41,0l5-13.84-6.08.79,8.5,13.64c1.48,2.37,5.34,2,6.08-.79l5.69-22c1.07-4.15-5.34-5.92-6.41-1.77l-5.69,22,6.08-.79L29.9,81.81a3.37,3.37,0,0,0-6.08.79l-5,13.84h6.41L18,75.63c-1.39-4-7.81-2.29-6.41,1.77Z"/><path class="cls-1" d="M48.22,67.19l-.81,29c-.12,4.28,6.53,4.28,6.65,0l.81-29c.12-4.28-6.53-4.28-6.65,0Z"/><path class="cls-1" d="M53.92,83.8c.51-1,1.7-1.88,2.88-1.31,1.49.72,1.45,3.22,1.4,4.58C58.06,91,57,94.51,58.07,98.43c1.11,4.13,7.52,2.38,6.41-1.77C62.8,90.35,67.35,83.36,61.75,78c-4.09-3.93-11-2.38-13.57,2.48-2,3.78,3.75,7.15,5.74,3.36Z"/><path class="cls-1" d="M68.22,79.62,67.9,95.74c-.08,4.28,6.57,4.28,6.65,0l.31-16.12c.08-4.28-6.57-4.28-6.65,0Z"/><path class="cls-1" d="M75.56,69v-.46a3.33,3.33,0,0,0-6.65,0V69a3.33,3.33,0,1,0,6.65,0Z"/><path class="cls-1" d="M84.28,67.7c-1.33,5.25-2.5,10.53-3.46,15.86-.75,4.17-2,9-.93,13.17A8.68,8.68,0,0,0,95,100.2c2.73-3.26-2-8-4.7-4.7-.78.93-2.6,1.58-3.65.48-.64-.68-.5-2.58-.5-3.47a47.35,47.35,0,0,1,1.24-8.06c.93-5,2-10,3.3-15,1-4.15-5.36-5.92-6.41-1.77Z"/><path class="cls-1" d="M79.14,84.34H91.57c4.28,0,4.29-6.65,0-6.65H79.14c-4.28,0-4.29,6.65,0,6.65Z"/><path class="cls-1" d="M101.16,90.41c3-2.17,6.87-2.23,9.85-4.46,2.58-1.92,4.35-5.05,3.56-8.31-1.81-7.46-11-5.7-14.78-1.14C95.24,82,93.9,90.41,98.47,96.26c4.15,5.32,12.3,6.05,16.77.71,2.73-3.26-2-8-4.7-4.7a4.25,4.25,0,0,1-7.05-.33c-1.93-2.73-1.37-6.39.1-9.19.31-.58,2.47-3.93,3-3.49,1.6,1.46-1.81,2.42-2.52,2.66a21.77,21.77,0,0,0-6.23,2.75c-3.42,2.5-.11,8.27,3.36,5.74Z"/><path class="cls-1" d="M39.93,103.37c-4.48.59-9,1.17-13.44,1.77-3.11.42-6.45.74-8.79,3.1-3.92,3.95-1.92,9.64,2.73,11.75,3.29,1.48,7.52,1.43,11,1.83,2.64.3,5.41.41,8,.93,1.68.34,5.63,1,.36,2.58-1.86.55-5-.31-6.88-.48l-5.7-.5L12,123l.88,6.53,1.71-.24c4.22-.58,2.42-7-1.77-6.41l-1.71.24c-4,.55-2.57,6.23.88,6.53,9,.79,18.72,2.65,27.8,2.29,5.12-.2,11-4.11,9.14-10-2-6.22-10.38-6-15.6-6.61-2.54-.29-5.13-.48-7.66-.87-2.31-.36-3.32-1.39-.73-2.5,2.08-.89,5.5-.75,7.77-1l7.17-.95c4.18-.55,4.24-7.21,0-6.65Z"/><path class="cls-1" d="M51.68,110.94l1,36a3.37,3.37,0,0,0,4.21,3.21l.42-.1a3.3,3.3,0,0,0,2.32-2.32l.1-.42c1-4.16-5.4-5.93-6.41-1.77l-.1.42,2.32-2.32-.42.1,4.21,3.21-1-36c-.12-4.27-6.78-4.29-6.65,0Z"/><path class="cls-1" d="M58.13,120.07c1.53-1,3.69-.37,3.7,1.68s-2.16,2.66-3.69,1.69c-3.63-2.29-7,3.46-3.36,5.74a8.86,8.86,0,1,0,0-14.85c-3.61,2.28-.27,8,3.36,5.74Z"/><path class="cls-1" d="M71.38,109.73c4.58-1.88,6.41,2.09,5.4,6-1,3.68-2.4,7.12-1.06,10.92,2.06,5.83,9.07,7.07,12.74,2.09,2.54-3.45-3.23-6.77-5.74-3.36a2.55,2.55,0,0,1-.94-2.47,15.93,15.93,0,0,1,.77-3.34,33.44,33.44,0,0,0,1.28-5.08,10.44,10.44,0,0,0-1.56-7.25,10.72,10.72,0,0,0-12.65-3.92c-3.91,1.6-2.2,8,1.77,6.41Z"/><path class="cls-1" d="M79.22,112.21a7.37,7.37,0,0,0-7.49.44A7,7,0,0,0,69,120.18a6.91,6.91,0,0,0,5.64,5.13,7.37,7.37,0,0,0,7.16-3.18c1.07-1.45.24-3.71-1.19-4.55A3.4,3.4,0,0,0,76,118.77s.25-.23.25-.24-.5.29-.11.12a2.35,2.35,0,0,1-.65.17c.38,0,.05-.12-.13-.07a.43.43,0,0,1,.38.11c-.06-.08-.43-.3-.16-.05-.14-.13-.27-.39-.11-.11l-.16-.3q.15.33,0,0c-.09-.54,0,.43,0-.12q0-.31,0-.06t0-.05c.24-.08-.09-.17-.08.08s.22-.29.1-.12a2.07,2.07,0,0,1,.26-.13c-.38.12.5-.13.12,0-.23.06.45.16,0,0a3.42,3.42,0,0,0,4.55-1.19,3.35,3.35,0,0,0-1.19-4.55Z"/><path class="cls-1" d="M103,107.84c-6.81-4.93-16.69.63-15.91,9A10.17,10.17,0,0,0,104.47,123c3-3-1.68-7.74-4.7-4.7-2.1,2.11-5.82,1.2-6.07-2-.28-3.47,3.53-4.46,5.95-2.71,1.46,1.05,3.71.25,4.55-1.19a3.4,3.4,0,0,0-1.19-4.55Z"/><path class="cls-1" d="M110.21,131.63c6.55-3.36,16.92-10.74,15.24-19.37-1.64-8.42-11.89-7.25-15.51-1-4.34,7.55-.14,17.2,7.51,20.46,8.61,3.67,17.78-.91,21.92-8.84,2-3.79-3.76-7.16-5.74-3.36s-5.5,7-10.12,6.87-8.84-3.82-8.56-8.75c.06-1,2.86-7.57,4.06-3.81.5,1.56-2,4.13-2.85,5.09a31.11,31.11,0,0,1-9.31,6.92c-3.81,2-.45,7.7,3.36,5.74Z"/><path class="cls-1" d="M4.12,15.59l17,3.22c4.18.79,6-5.62,1.77-6.41l-17-3.22c-4.18-.79-6,5.62-1.77,6.41Z"/><path class="cls-1" d="M3.18,29.22l14.27-1.45c4.22-.43,4.26-7.09,0-6.65L3.18,22.57c-4.22.43-4.26,7.09,0,6.65Z"/><path class="cls-1" d="M4.51,40.47l5.06-1.84a3.4,3.4,0,0,0,2.32-4.09c-.52-1.6-2.34-3-4.09-2.32L2.74,34.05A3.4,3.4,0,0,0,.42,38.15c.52,1.6,2.34,3,4.09,2.32Z"/><path class="cls-1" d="M110.4,13.25l12.4-2.9C127,9.38,125.2,3,121,3.94l-12.4,2.9c-4.17,1-2.4,7.39,1.77,6.41Z"/><path class="cls-1" d="M115.06,21.67,127,23c1.8.21,3.31-1.68,3.33-3.33A3.4,3.4,0,0,0,127,16.39l-12-1.37c-1.8-.21-3.31,1.68-3.33,3.33a3.4,3.4,0,0,0,3.33,3.33Z"/><path class="cls-1" d="M115.52,33.23l10.14,2.26c4.17.93,6-5.48,1.77-6.41l-10.14-2.26c-4.17-.93-6,5.48-1.77,6.41Z"/><path class="cls-1" d="M60.73,5.75c-6.55.9-12.81,5.1-15.38,11.32-2.41,5.83,0,13.4,6.8,14.52C65,33.72,77.24,8.28,61.23,6.75,57,6.35,57,13,61.23,13.41c3.59.34-1.21,7.26-2.12,8.35-1.68,2-6.16,5.56-7.83,1.56-2.53-6.09,6.81-10.54,11.22-11.15,4.22-.58,2.42-7-1.77-6.41Z"/></g></g></svg>