<svg xmlns="http://www.w3.org/2000/svg" viewBox="0 0 254.62 334.65"><defs><style>.cls-1{fill:#231f20;}</style></defs><title>Asset 22</title><g id="Layer_2" data-name="Layer 2"><g id="Layer_1-2" data-name="Layer 1"><path class="cls-1" d="M68,1,43.56,36.23c-1.52,2.19,2.06,4.26,3.57,2.09L71.6,3.13C73.12.94,69.54-1.12,68,1Z"/><path class="cls-1" d="M68,3.13c4.76,9.46,6.84,19.81,9.37,30,.64,2.58,4.63,1.49,4-1.1-2.63-10.58-4.86-21.2-9.79-31C70.41-1.33,66.84.76,68,3.13Z"/><path class="cls-1" d="M58,22.48a31.93,31.93,0,0,1,16.55-.09c2.58.66,3.68-3.32,1.1-4a36.41,36.41,0,0,0-18.75.09c-2.57.69-1.48,4.68,1.1,4Z"/><path class="cls-1" d="M88.8,11.53l4.56,14.33c.48,1.52,3,2.24,3.78.49L103.82,11c1.05-2.41-2.51-4.52-3.57-2.09L93.57,24.26l3.78.49L92.79,10.43C92,7.9,88,9,88.8,11.53Z"/><path class="cls-1" d="M108,21.84c3.94-.64,9.56-3.43,7.44-8.45s-8.21-2.5-10.31,1c-2.23,3.71-3.52,9.68,0,13.08,2.75,2.7,7.55,2.64,9.66-.73,1.42-2.26-2.16-4.34-3.57-2.09-.68,1.08-2.37.65-3.17-.11-1.47-1.38-.93-4-.38-5.67.24-.72,3.41-6.46,4-3.36.35,1.73-3.76,2.21-4.76,2.37-2.62.43-1.51,4.41,1.1,4Z"/><path class="cls-1" d="M119.34,9.86l-1,17.09c-.16,2.66,4,2.65,4.13,0l1-17.09c.16-2.66-4-2.65-4.13,0Z"/><path class="cls-1" d="M122.49,19l7.7-6.63c2-1.74-.92-4.65-2.92-2.92L119.57,16c-2,1.74.92,4.65,2.92,2.92Z"/><path class="cls-1" d="M128.15,18.09l3.31,7.72a2.08,2.08,0,0,0,2.83.74,2.12,2.12,0,0,0,.74-2.83L131.72,16a2.08,2.08,0,0,0-2.83-.74,2.12,2.12,0,0,0-.74,2.83Z"/><path class="cls-1" d="M136.73,11.43c-2.23,6.79-4.65,14.2-10,19.25-6.48,6.15-15.58,5.89-23.84,4.6-2.6-.41-3.72,3.58-1.1,4,8.91,1.39,18.53,1.75,26-4.08,7.07-5.49,10.17-14.46,12.87-22.66.83-2.53-3.16-3.62-4-1.1Z"/><path class="cls-1" d="M49.44,43.52a464.13,464.13,0,0,1,3,54c0,2.66,4.13,2.66,4.13,0a464.13,464.13,0,0,0-3-54c-.3-2.61-4.44-2.64-4.13,0Z"/><path class="cls-1" d="M54.24,58.23C58.41,55.8,64,52.35,68.85,55c6.38,3.45,1.51,9.41-2,12.85C65.23,69.33,53.19,80,52.44,76.91l-.95,2.33-.34.16c2.66.06,2.66-4.08,0-4.13a3.19,3.19,0,0,0-1.75.41A2.11,2.11,0,0,0,48.45,78c2.8,11.47,20.06-5.84,23.22-9.21,4.26-4.54,6.92-11.34,1.36-16.07C66.6,47.25,58.39,51,52.15,54.66c-2.3,1.34-.22,4.91,2.09,3.57Z"/><path class="cls-1" d="M83.56,74.06c7.29-2.94,19.66-7.64,20-17.19.36-10.14-11.47-9.29-16.71-3.67-6.05,6.5-11,17.32-6.5,25.9,3.85,7.34,13.92,9,18.94,2,1.55-2.17-2-4.24-3.57-2.09-4.75,6.66-12.46-.25-12.94-6.16-.47-5.76,2.79-11.6,6.35-15.91,1.45-1.76,4.45-4.75,7.07-3.86,2,.68,3.62,3.15,3,5.17A9.78,9.78,0,0,1,97,61.54c-3.86,4.3-9.28,6.42-14.51,8.53-2.44,1-1.37,5,1.1,4Z"/><path class="cls-1" d="M113.21,49.82c-3,1.41-6.25,3.2-7.37,6.52a6.66,6.66,0,0,0,1.94,7.31,5.51,5.51,0,0,0,3.15,1.08c1.52,0,6.86-1.21,4,2.21-3,3.6-9.17,3.09-12.73.9-2.27-1.4-4.35,2.18-2.09,3.57,6,3.68,17,3,19.75-4.66,1.06-3-.25-6.17-3.55-6.7-1.68-.27-5.11,1.28-6.37-.07-2.6-2.78,3.81-5.86,5.36-6.6,2.4-1.14.31-4.71-2.09-3.57Z"/><path class="cls-1" d="M123.33,50.67c.14,4.64-1.28,9.48-.12,14.06.73,2.88,4.27,7.13,7.2,4.05,1.83-1.93-1.09-4.86-2.92-2.92l-.31.2h2.09c-4.52-2-1.69-11.53-1.8-15.39-.08-2.65-4.22-2.67-4.13,0Z"/><path class="cls-1" d="M123.87,45h.55a2.07,2.07,0,1,0,0-4.13h-.55a2.07,2.07,0,1,0,0,4.13Z"/><path class="cls-1" d="M135.9,41.29c1.51-3,7.18-11,8.77-2.27.55,3-1.41,7.28-1.86,10.33-.62,4.19-.33,8.85,2.45,12.28,4,4.92,13,3.83,16.36-1.31,1.46-2.24-2.12-4.31-3.57-2.09-1.31,2-5,2.84-7.2,2.24-3.73-1-4.34-5.51-4.17-8.79.26-5.19,3.33-10.67,1.71-15.88a6.53,6.53,0,0,0-6.91-4.85c-4.73.37-7.24,4.4-9.15,8.25-1.18,2.38,2.39,4.47,3.57,2.09Z"/><path class="cls-1" d="M144.76,46.42a5.63,5.63,0,0,0-7.82-.38c-2.76,2.34-3.59,6.84-3.14,10.26s2.75,6.53,6.28,6.85a5.56,5.56,0,0,0,6-5.25c.25-2.65-3.88-2.63-4.13,0-.22,2.36-3,.56-3.59-.42a6.49,6.49,0,0,1-.5-3.94c.17-1.5,1.66-6.75,3.93-4.19,1.77,2,4.68-.94,2.92-2.92Z"/><path class="cls-1" d="M158.21,22.55a99.72,99.72,0,0,0,9,38.58c1.1,2.42,4.66.32,3.57-2.09a94.45,94.45,0,0,1-8.4-36.49c-.08-2.65-4.21-2.67-4.13,0Z"/><path class="cls-1" d="M67.57,92.1a72.79,72.79,0,0,0-6.34,12.22c-1.42,3.55-3.56,8.13-1.93,12,3.08,7.26,11.82,3.81,16.49.65,2.19-1.48.12-5.07-2.09-3.57-2,1.33-4.56,3.46-7.09,3.21-6-.6-2.93-7.12-2-9.61a68.31,68.31,0,0,1,6.52-12.77c1.44-2.25-2.14-4.32-3.57-2.09Z"/><path class="cls-1" d="M56.08,107.81a21,21,0,0,1,11.57-1.14c2.6.49,3.71-3.49,1.1-4A25.06,25.06,0,0,0,55,103.82c-2.46.94-1.39,4.94,1.1,4Z"/><path class="cls-1" d="M80.45,91.44l-4.71,25.69c-.47,2.58,3.3,3.71,4,1.1.26-1,4-12.71,6.07-12.32s-.43,11-.63,12.5c-.35,2.6,3.63,3.73,4,1.1.63-4.64,2.06-9.81,1.9-14.48-.07-2.17-1-4.23-3.46-4.44C81,100,77,112.43,75.73,117.13l4,1.1,4.71-25.69c.48-2.6-3.51-3.72-4-1.1Z"/><path class="cls-1" d="M98.36,94.58c1.24-2,3.85,1.13,4.29,2.36s-.63,3.26-1.07,4.21c-.94,2-2.34,3.83-3.32,5.85-1.34,2.77-2.24,6-1.16,9,1.83,5.12,7.69,4.73,11.86,2.72,2.4-1.15.3-4.72-2.09-3.57-3.15,1.52-5.85.32-5.92-3.3,0-2.49,2.32-5.15,3.49-7.28,1.69-3.05,3-6.48,1.95-10-1.6-5.33-8.49-7-11.61-2.06-1.41,2.26,2.16,4.34,3.57,2.09Z"/><path class="cls-1" d="M101.15,101.35c-4.47-2.36-10.71,1.49-9.71,6.75.93,4.88,7.17,6.59,10.82,3.64,2.07-1.68-.87-4.59-2.92-2.92-1.19,1-3.58-.05-3.84-1.49-.32-1.73,2.13-3.17,3.57-2.41,2.35,1.24,4.44-2.33,2.09-3.57Z"/><path class="cls-1" d="M109.91,89.28l-2.78,20.94c-.35,2.63,3.79,2.6,4.13,0L114,89.28c.35-2.63-3.79-2.6-4.13,0Z"/><path class="cls-1" d="M109.88,89.92l6.17,21.16c.68,2.34,3.86,1.71,4.06-.55A126.29,126.29,0,0,1,124.81,86c.75-2.56-3.23-3.65-4-1.1A131.88,131.88,0,0,0,116,110.54L120,110l-6.17-21.16c-.74-2.55-4.73-1.46-4,1.1Z"/><path class="cls-1" d="M126.21,88.7v29.65c0,2.66,4.13,2.66,4.13,0v-1.54c0-2.66-4.13-2.66-4.13,0v1.54c0,2.66,4.13,2.66,4.13,0V88.7c0-2.66-4.13-2.66-4.13,0Z"/><path class="cls-1" d="M138.4,82.28,125,99.28a2.1,2.1,0,0,0,0,2.92A43.13,43.13,0,0,1,136.74,118c1.07,2.43,4.63.33,3.57-2.09A45.64,45.64,0,0,0,128,99.28v2.92l13.37-17c1.63-2.07-1.28-5-2.92-2.92Z"/><path class="cls-1" d="M145.58,90.35a30.16,30.16,0,0,0,7.15,11.39c1.88,1.88,4.81-1,2.92-2.92a25.43,25.43,0,0,1-6.08-9.56c-.88-2.49-4.88-1.42-4,1.1Z"/><path class="cls-1" d="M154.52,86l-5.41,30.34c-.46,2.6,3.52,3.72,4,1.1l5.41-30.34c.46-2.6-3.52-3.72-4-1.1Z"/><path class="cls-1" d="M162.91,85.53c-2.48,3.8-4.72,8.95-.85,12.7,3.32,3.23,7.79,1.17,9.29-2.7s1.41-9.46-2.08-12.18-9-.7-8.58,4.05c.24,2.63,4.37,2.65,4.13,0-.21-2.33,2.12-.76,2.55-.11a5.62,5.62,0,0,1,.69,2.88,8.73,8.73,0,0,1-.77,4.31c-1.19,2.22-3.17.64-3.27-1.32s1.41-4,2.44-5.55c1.46-2.23-2.12-4.31-3.57-2.09Z"/><path class="cls-1" d="M172,79.33c-.36,4.23,1.22,19.19,8.66,16.39,3-1.14,3.73-5.34,4.22-8.07a39.3,39.3,0,0,0,.08-12.74c-.38-2.62-4.37-1.51-4,1.1a34.29,34.29,0,0,1,.31,7.23c-.13,1.93-.24,5.33-1.3,7.11-.64,1.08-.47,1.38-1.67.37-.78-.66-1.23-2.69-1.53-3.65a19.91,19.91,0,0,1-.66-7.73c.23-2.65-3.91-2.64-4.13,0Z"/><path class="cls-1" d="M132.41,74.34c-20,5.49-39.43,9.85-60.09,11.5a51.43,51.43,0,0,0-22.81,6.9c-7.36,4.32-14.36,9.89-23.09,11-1.55.19-3,2.25-1.46,3.53A11.51,11.51,0,0,0,31,109.89c3.25.5,12.66-.31,11,5.47-.8,2.82-4.74,4.93-6.76,6.79a25.84,25.84,0,0,0-6.11,8.17c-.61,1.31.09,3.22,1.78,3.11,66.49-4.16,140.27-10,190-60a2.09,2.09,0,0,0-1.46-3.53l-19-2.08,1,3.85a24.71,24.71,0,0,0,11-18.39c.18-1.71-1.85-2.38-3.11-1.78-24.26,11.45-51.25,16.06-77,22.84-2.57.68-1.48,4.66,1.1,4,26.16-6.87,53.4-11.64,78-23.25l-3.11-1.78a20.24,20.24,0,0,1-8.91,14.82,2.09,2.09,0,0,0,1,3.85l19,2.08L218,70.51c-48.93,49.17-121.75,54.69-187.1,58.78l1.78,3.11c2.32-5,6.31-7.56,10.09-11.27,1.94-1.91,3.83-4.44,3.74-7.3-.32-9.87-13.86-5.57-18.68-9.53l-1.46,3.53c7.73-1,14.13-4.67,20.64-8.74,8.76-5.48,16.63-8.52,27.05-9.25,20.36-1.42,39.77-6.12,59.4-11.52,2.56-.71,1.47-4.7-1.1-4Z"/><path class="cls-1" d="M106.49,129.36c-.68,6.12-7.51,12.2-3,18.46,2.52,3.51,8.07,3.59,10.11-.45,1.2-2.37-2.37-4.47-3.57-2.09-1.61,3.19-3.91-.8-3.91-2.52,0-2,1-3.79,1.88-5.49a23.35,23.35,0,0,0,2.64-7.91c.29-2.64-3.84-2.62-4.13,0Z"/><path class="cls-1" d="M102.87,139.55a11.44,11.44,0,0,1,8.88-.91c2.56.75,3.65-3.24,1.1-4A15.74,15.74,0,0,0,100.78,136c-2.34,1.27-.26,4.84,2.09,3.57Z"/><path class="cls-1" d="M117.93,135.32a5.94,5.94,0,0,0-4.18,7.79c1.27,3.34,5.44,4.78,8.64,3.44a8,8,0,0,0,4.37-9.06c-.9-3.82-5.15-6.33-8.68-4-2.23,1.44-.16,5,2.09,3.57,1.5-1,2.59.71,2.68,2.1a3.73,3.73,0,0,1-2,3.62c-2.71,1.08-4.74-2.82-1.78-3.43,2.6-.53,1.5-4.52-1.1-4Z"/><path class="cls-1" d="M144.22,128.86c2.17-1.84,2.67,2.74,2.51,3.76a19.25,19.25,0,0,1-1.08,3.34,11.48,11.48,0,0,0-1,5.73,5.67,5.67,0,0,0,5.92,5c2.63-.23,2.65-4.36,0-4.13-3.89.34.1-8.23.31-10a7.8,7.8,0,0,0-1.13-5.52,5.72,5.72,0,0,0-8.46-1.13c-2,1.72.9,4.63,2.92,2.92Z"/><path class="cls-1" d="M145.85,131.72a9.47,9.47,0,0,0-6.1,2.44,6,6,0,0,0-1.53,5.61c1.14,4.11,7.24,4.53,8.57.35.81-2.54-3.18-3.63-4-1.1,0-.07-.41-.08-.34-.05-.33-.16-.34-.58-.27-1,.31-1.57,2.33-2,3.66-2.15a2.12,2.12,0,0,0,2.07-2.07,2.08,2.08,0,0,0-2.07-2.07Z"/><path class="cls-1" d="M157.15,117.92a117.5,117.5,0,0,0-3.38,21.5c-.17,2.66,4,2.65,4.13,0a111.43,111.43,0,0,1,3.23-20.4c.66-2.58-3.33-3.68-4-1.1Z"/><path class="cls-1" d="M165.71,115.65a134.34,134.34,0,0,0-3.6,25.42c-.12,2.66,4,2.65,4.13,0a128.5,128.5,0,0,1,3.45-24.32c.62-2.59-3.36-3.69-4-1.1Z"/><path class="cls-1" d="M46.57,147.19c-7-.12-12.87,7-10.37,13.92A11.61,11.61,0,0,0,52,167.38c6.46-3.28,9-11.86,4.89-17.94-3.76-5.59-12.11-5.85-15.62.09-1.36,2.3,2.22,4.38,3.57,2.09,2.53-4.29,7.8-2.18,9.38,1.66a8.4,8.4,0,0,1-4.55,10.6,7.44,7.44,0,0,1-9.28-3.49c-2.19-4.34,1.65-9.15,6.18-9.07,2.66,0,2.66-4.09,0-4.13Z"/><path class="cls-1" d="M63.79,147.29c-3.71,5-7.82,18.86.34,22.25s12.31-14.15,13.14-19.13c.43-2.6-3.55-3.72-4-1.1A43.72,43.72,0,0,1,71.35,157c-.77,2.14-2.68,8.12-5.29,8-2.86-.16-2.46-5.31-2.15-7.52a17.5,17.5,0,0,1,3.46-8.11c1.58-2.15-2-4.21-3.57-2.09Z"/><path class="cls-1" d="M80.87,148.76,78.08,168.6c-.37,2.6,3.62,3.73,4,1.1l2.79-19.84c.37-2.6-3.62-3.73-4-1.1Z"/><path class="cls-1" d="M83.07,151.18c6.37.94,4.72,9.55-1.36,7.83-2.4-.68-3.39,2.45-1.59,3.78a59.6,59.6,0,0,1,10.19,9.61c1.72,2,4.63-.9,2.92-2.92a63.9,63.9,0,0,0-11-10.26L80.61,163c4.33,1.22,9.26-.88,10.63-5.39,1.48-4.89-2.26-9.71-7.07-10.41-2.6-.38-3.73,3.6-1.1,4Z"/><path class="cls-1" d="M111.72,156.21a8.41,8.41,0,0,0-11.38,9.41c1.36,6.62,9.44,8.6,14.17,4.14,1.94-1.83-1-4.75-2.92-2.92a4.27,4.27,0,0,1-7.26-2.31c-.54-3.68,3.22-5.58,6.3-4.33,2.46,1,3.53-3,1.1-4Z"/><path class="cls-1" d="M117.45,156.59c-1.65,2.42-3.36,5.26-2.79,8.33.46,2.5,2.51,4.89,5.15,5.12,6.41.56,8.14-10.23,8.68-14.66.32-2.63-3.81-2.61-4.13,0-.36,3-1.09,7.39-3.1,9.74-1.53,1.8-2.76-.56-2.5-2.14s1.39-3,2.26-4.31c1.5-2.2-2.08-4.27-3.57-2.09Z"/><path class="cls-1" d="M136.4,153.43c-2.35,0-4.86.35-6.29,2.45a4.15,4.15,0,0,0,.5,5.52c1.5,1.3,4.31.8,5,2.89.95,2.78-2.55,3.54-4.08,1.7-1.7-2.05-4.61.89-2.92,2.92,3.07,3.7,9.73,2.76,11.05-2.08a6.81,6.81,0,0,0-1.58-6.29,6.37,6.37,0,0,0-2.85-1.73c-.34-.11-1.58-.16-1.61-.55,0-.81,2.16-.68,2.74-.69,2.66,0,2.67-4.17,0-4.13Z"/><path class="cls-1" d="M142.89,152.73c1.63,5-2.36,10.38.89,15.14a6,6,0,0,0,8.77,1.36c2.08-1.66-.87-4.57-2.92-2.92-1.79,1.44-3-2-3.09-3a18.91,18.91,0,0,1,.54-4.56,14.45,14.45,0,0,0-.2-7.12c-.83-2.52-4.82-1.44-4,1.1Z"/><path class="cls-1" d="M142.06,162.43h4.41c2.66,0,2.66-4.13,0-4.13h-4.41c-2.66,0-2.66,4.13,0,4.13Z"/><path class="cls-1" d="M153.64,154.24c-2.69,2.21-3,6.36-1.26,9.24A6.84,6.84,0,0,0,163.85,156a7.32,7.32,0,0,0-9.53-2.31c-2.3,1.33-.22,4.9,2.09,3.57,3-1.71,6.23,2.6,2.87,4.59-3.2,1.9-5.16-2.72-2.71-4.73,2.06-1.69-.88-4.6-2.92-2.92Z"/><path class="cls-1" d="M166.43,151l1.27,17.63c.19,2.64,4.33,2.66,4.13,0L170.56,151c-.19-2.64-4.33-2.66-4.13,0Z"/><path class="cls-1" d="M166.73,151.48l6.07,11.58a2.09,2.09,0,0,0,3.57,0,66.73,66.73,0,0,0,6.82-12.49l-4.06-.55a73.09,73.09,0,0,0,1.18,17.49c.49,2.61,4.47,1.51,4-1.1a68.45,68.45,0,0,1-1-16.4c.14-2.54-3.23-2.52-4.06-.55a62,62,0,0,1-6.4,11.5h3.57L170.3,149.4c-1.24-2.36-4.8-.27-3.57,2.09Z"/><path class="cls-1" d="M186.7,159.07c4.58.56,10.68-.07,11.3-5.81.6-5.51-5.52-6.83-9.34-4.19a9.59,9.59,0,0,0,8.87,16.88c2.48-.9,1.41-4.9-1.1-4-4.71,1.71-9.64-2.69-7.15-7.48a5.25,5.25,0,0,1,2-2.22c1.15-.6,3.06-.69,2.48,1-.88,2.63-5,1.88-7.1,1.63-2.63-.32-2.61,3.82,0,4.13Z"/><path class="cls-1" d="M201.27,148.22l2.13,17.65c.32,2.61,4.45,2.64,4.13,0l-2.13-17.65c-.32-2.61-4.45-2.64-4.13,0Z"/><path class="cls-1" d="M204.4,150.38c2.24-.59,5.18.87,5.21,3.47s-2.88,4.15-5.13,3.6-3.69,2.6-1.59,3.78a23.29,23.29,0,0,1,7.11,6.15c1.64,2.1,4.54-.85,2.92-2.92a26.2,26.2,0,0,0-7.95-6.8l-1.59,3.78c4.85,1.19,10.38-2.26,10.36-7.58s-5.62-8.73-10.45-7.46c-2.57.68-1.48,4.67,1.1,4Z"/><path class="cls-1" d="M222.85,147.26a4.5,4.5,0,0,0-7.13,1.19c-2.46,4.66,2.64,7.31,5.13,10.13,8.1,9.19-11.85,11.79-16.77,12.6-8.27,1.37-16.55,2.71-24.86,3.77-15.62,2-31.41,3.08-47.14,1.88-11.42-.87-24-3-33.32,5.27-2,1.76.93,4.68,2.92,2.92,9.59-8.43,24.81-4.19,36.3-3.71,14.54.6,29.08-.61,43.48-2.52,7-.92,13.88-2,20.8-3.14,5.81-1,12.47-1.28,17.77-4a11.52,11.52,0,0,0,6.54-9.2,8.24,8.24,0,0,0-1.1-4.79,11.54,11.54,0,0,0-2.2-2.45l-1.1-.88a4.49,4.49,0,0,1-2.23-4.13c2,1.77,4.91-1.14,2.92-2.92Z"/><path class="cls-1" d="M174.28,33c3.16-4.09,6.73-4.33,11.53-4.5,3.16-.12,5.76-1.08,7.5-3.8,1.44-2.25-2.14-4.32-3.57-2.09-2,3.08-8.35,1.38-11.62,2.51a14.59,14.59,0,0,0-6.76,5c-1.61,2.08,1.3,5,2.92,2.92Z"/><path class="cls-1" d="M179,42.19c2.24-3.66,7.09-3.59,10.86-4.23,3.43-.57,6.56-1.66,8.85-4.38,1.7-2-1.21-5-2.92-2.92-5.21,6.2-15.64,1.74-20.35,9.44-1.39,2.28,2.18,4.36,3.57,2.09Z"/><path class="cls-1" d="M184.21,52.23c2.65-3.7,8-3.44,12-4.39a13.17,13.17,0,0,0,8.17-5.11c1.56-2.16-2-4.23-3.57-2.09-2.65,3.69-8,3.42-12,4.38a13.15,13.15,0,0,0-8.16,5.12c-1.55,2.17,2,4.23,3.57,2.09Z"/><path class="cls-1" d="M172.59,112.28a149.24,149.24,0,0,0,52.82-33.91c1.89-1.88-1-4.8-2.92-2.92a144.35,144.35,0,0,1-51,32.85c-2.47.93-1.4,4.93,1.1,4Z"/><path class="cls-1" d="M214,51.54l-2.28,13.2c-.45,2.6,3.53,3.72,4,1.1L218,52.64c.45-2.6-3.53-3.72-4-1.1Z"/><path class="cls-1" d="M29.77,140.53q34.83-2.89,69.51-7.29c2.6-.33,2.64-4.47,0-4.13q-34.67,4.4-69.51,7.29c-2.63.22-2.66,4.35,0,4.13Z"/><path class="cls-1" d="M177.67,119.1a123.86,123.86,0,0,0,40.5-20c1.62-1.21,0-4-1.6-2.74A121.49,121.49,0,0,1,176.83,116a1.59,1.59,0,0,0,.84,3.06Z"/><path class="cls-1" d="M175.62,128.3a238.14,238.14,0,0,0,45.8-14.8c1.86-.82.25-3.55-1.6-2.74a234.24,234.24,0,0,1-45,14.48c-2,.43-1.15,3.48.84,3.06Z"/><path class="cls-1" d="M176.82,136.83a325.67,325.67,0,0,0,44.3-8.47,1.59,1.59,0,0,0-.84-3.06,319.6,319.6,0,0,1-43.46,8.36c-2,.24-2,3.41,0,3.17Z"/><path class="cls-1" d="M22.65,114a19.66,19.66,0,0,0,14,3.51c2-.26,2-3.43,0-3.17a17,17,0,0,1-12.43-3.08c-1.67-1.18-3.25,1.56-1.6,2.74Z"/><path class="cls-1" d="M28.46,74.56a48.23,48.23,0,0,0-25,4.55C1,80.24,3.14,83.8,5.54,82.68a44.08,44.08,0,0,1,22.92-4c2.65.23,2.63-3.91,0-4.13Z"/><path class="cls-1" d="M17.67,66.21A35.69,35.69,0,0,0,1,70.88C-1.31,72.2.78,75.77,3.1,74.45a31.07,31.07,0,0,1,14.57-4.11c2.65-.09,2.67-4.22,0-4.13Z"/><path class="cls-1" d="M12.29,58.06A23.47,23.47,0,0,0,1.72,61.59c-2.24,1.42-.17,5,2.09,3.57a19,19,0,0,1,8.49-3c2.63-.24,2.65-4.38,0-4.13Z"/><path class="cls-1" d="M40,41.73c-5.09-3.2-13.35-5-18.9-1.74-5,2.91-6.14,11.39-3.17,16.07,4.41,7,15,6.45,20.33,12.47,9.71,11-7.74,28.95-19.07,18.79-2-1.77-4.91,1.14-2.92,2.92,13.35,12,33.35-3.9,27.71-20C41.16,62.2,32.1,60.42,25.36,56.91c-3-1.56-4.89-3.59-4.82-7.16.05-2.6.88-5.35,3.35-6.5,4.23-2,10.35-.25,14,2.06,2.26,1.42,4.34-2.15,2.09-3.57Z"/><path class="cls-1" d="M154.08,261c2.9,3.61,6.56,6.35,10.23,9.13a1.49,1.49,0,0,0,2-.53c2.87-4.33,7.23-7.15,11.85-9.34a1.48,1.48,0,0,0,.53-2c-2.77-4.32-7.16-7-11-10.25v2.08c4.68-5.45,3.12-10.14-1.69-14.85-3.15-3.07-5.68-5.76-7.49-9.85-1.65-3.72-3.1-7.21-5.83-10.27a1.48,1.48,0,0,0-2.08,0c-2.17,2.35-2.16,5.48-2,8.51,0,.77.06,1.58.16,2.34s-.41,2,.38,1.6-1.68-2.12-2.16-2.65-1-1.12-1.44-1.69c-4-4.77-10.54-15.59-18.06-13.87a1.5,1.5,0,0,0-1,1.81c1.29,6.06,6.21,10.16,9.51,15.12l2-2c-3.54-2.19-18.8-18-22.95-11.83-2,3,2.48,7.42,4.25,9.4,3.32,3.72,8.94,7.42,11.1,12l1.27-2.21c-5.7-.68-11.73-10.94-17.79-6a1.48,1.48,0,0,0,0,2.08c5.79,5.19,12.84,8.93,17.68,15.13l1.43-2.46c-4.32-1.16-8.55-5.46-13.22-5.31-3.56.11-3.64,3.3-1.71,5.57,3.78,4.43,10,6.64,14.38,10.43,3.24,2.81,6.17,6.31,9.92,8.48s8.28,2.09,12.39,3.3c1.82.54,2.6-2.3.78-2.84-2.93-.87-6-.93-9-1.85-3.86-1.21-6.73-4.26-9.62-6.94a67.05,67.05,0,0,0-10.58-8,32.21,32.21,0,0,1-5.27-3.71c-2.22-2.11-.38-1.36,1.43-.68,3.29,1.24,6.27,3.49,9.68,4.4a1.48,1.48,0,0,0,1.43-2.46c-4.85-6.21-11.88-9.94-17.68-15.13v2.08c3.05-2.5,11.91,6.38,15.71,6.84,1.21.15,1.69-1.33,1.27-2.21-1.36-2.87-4.4-5.17-6.59-7.38-1.62-1.63-9.23-7.8-8.71-10.33.27-1.29,2.87.48,4,1.11a55.05,55.05,0,0,1,5.94,4.12c3,2.27,5.76,5,8.95,7a1.48,1.48,0,0,0,2-2c-3.14-4.72-8-8.69-9.21-14.42l-1,1.81c4.48-1,9.52,6.2,12,9.12,2.11,2.54,4.84,7.36,8.06,8.63,5.73,2.26,2.29-10.46,4.42-12.75h-2.08c3.84,4.3,4.77,10.05,8,14.68,3.52,5,12.93,9.18,7,16.13a1.49,1.49,0,0,0,0,2.08c3.61,3.08,7.93,5.59,10.54,9.65l.53-2c-5.12,2.43-9.74,5.62-12.91,10.39l2-.53a52.45,52.45,0,0,1-9.63-8.67c-1.19-1.48-3.26.62-2.08,2.08Z"/><path class="cls-1" d="M158.35,266.16c-3,2-7-.15-10.48-.2-5.91-.1-9.86-1-14.76-4.41a121.83,121.83,0,0,0-12.67-8.12c-2.35-1.24-5.19-2.14-7.35-3.71.3.22-.54.42.67.55a32.53,32.53,0,0,1,4.13.67,1.48,1.48,0,0,0,1.13-2.69c-5.41-3.93-15.79-7.14-18-14l-1,1.81c5.34-1.78,11.16,6.07,15.59,8.31a1.48,1.48,0,0,0,1.78-2.31c-4.59-5-11.09-8.19-12.63-15.3l-1.42,1.86c4.23,0,7.49,3.66,10.84,5.8,1.18.75,2.92-.81,2-2-1.82-2.41-4.35-4.05-6.34-6.29-1.1-1.24-1.75-1.78-1.26-3.5.56-2,.79-1.35,2.42-.53,1.45.73,2.79,1.66,4.2,2.45,1.66.92,3.14-1.62,1.48-2.54-2.75-1.53-9.15-6.62-11.47-1.85-2.79,5.72,5.75,10.21,8.43,13.76l2-2c-3.94-2.51-7.36-6.22-12.33-6.2a1.49,1.49,0,0,0-1.42,1.86c1.67,7.73,8.39,11.16,13.39,16.6l1.78-2.31c-5.36-2.71-11.06-10.87-17.85-8.61a1.49,1.49,0,0,0-1,1.81c2.6,8,13.13,11.23,19.37,15.76l1.13-2.69c-1.95-.46-9-2.33-9.15,1.44-.07,1.66,2.09,2.72,3.23,3.38,3.7,2.12,7.66,3.71,11.3,6,5.91,3.67,11.28,9.16,18.5,10,4,.45,7.68.18,11.67,1,2.4.5,3.49.25,5.63-1.17,1.57-1,.1-3.59-1.48-2.54Z"/><path class="cls-1" d="M94.07,218.77c2.5,0,4.93.75,7.45.5,1.87-.19,1.88-3.13,0-2.94-2.52.26-4.95-.48-7.45-.5a1.47,1.47,0,0,0,0,2.94Z"/><path class="cls-1" d="M100.27,207.65a52.71,52.71,0,0,1,6.16,4.73c1.42,1.24,3.51-.83,2.08-2.08a57.93,57.93,0,0,0-6.75-5.19c-1.6-1-3.07,1.52-1.48,2.54Z"/><path class="cls-1" d="M113.87,199.48c2,1.91,3,4.56,5,6.45,1.37,1.3,3.46-.77,2.08-2.08-2-1.89-3-4.54-5-6.45-1.36-1.32-3.44.76-2.08,2.08Z"/><path class="cls-1" d="M132.77,203.9c0-2.31-.4-4.85.44-7.05.67-1.77-2.17-2.54-2.84-.78-.93,2.46-.57,5.27-.55,7.84a1.47,1.47,0,0,0,2.94,0Z"/><path class="cls-1" d="M143.14,206.27a18.47,18.47,0,0,1,2.33-5.11,1.47,1.47,0,0,0-2.54-1.48,21.15,21.15,0,0,0-2.63,5.81c-.44,1.84,2.4,2.63,2.84.78Z"/><path class="cls-1" d="M22.27,227.14c2.57-.31,5.34-.59,7.63.85,1.6,1,3.08-1.53,1.48-2.53-2.75-1.72-6-1.62-9.11-1.25-1.85.22-1.87,3.16,0,2.93Z"/><path class="cls-1" d="M24,224.94c-2.53,5.2-2.61,12.39-3.43,18a179.07,179.07,0,0,0-1.56,23,1.48,1.48,0,0,0,1.08,1.41l.19,0a1.5,1.5,0,0,0,1.8-1l.12-.43a1.47,1.47,0,0,0-2.83-.78l-.12.43,1.8-1-.19,0,1.08,1.41a175,175,0,0,1,1.46-22.19c.76-5.25.82-12.54,3.14-17.32.82-1.69-1.71-3.18-2.53-1.48Z"/><path class="cls-1" d="M28.63,232.28c-1.47,10-2.38,20.25-2.85,30.29-.28,6,5.24,6.46,9.48,3.52,1.54-1.07.08-3.61-1.48-2.53S31.56,265,30,264s-1.28-1.1-1.09-2.86c.31-2.91.53-5.82.74-8.74.45-6.47.91-12.93,1.85-19.35.27-1.84-2.55-2.64-2.83-.78Z"/><path class="cls-1" d="M28,252.66c2.76-.05,5.18-1.4,7.86-1.8,1.86-.28,1.07-3.1-.78-2.83-2.41.36-4.63,1.65-7.08,1.7-1.88,0-1.89,3,0,2.93Z"/><path class="cls-1" d="M29.75,233.43h6a1.47,1.47,0,0,0,0-2.93h-6a1.47,1.47,0,0,0,0,2.93Z"/><path class="cls-1" d="M40.24,220.78c-.05,16.53-1.36,33-1.49,49.55h2.93v-1a1.47,1.47,0,0,0-2.93,0v1a1.47,1.47,0,0,0,2.93,0c.13-16.53,1.44-33,1.49-49.55a1.47,1.47,0,0,0-2.93,0Z"/><path class="cls-1" d="M41.11,223.65c8-.27,7.59,13.17,1.2,15.41a1.49,1.49,0,0,0-1,1.8c3.57,10.31,4.45,21.3,5.54,32.08a1.47,1.47,0,0,0,2.93,0,6.57,6.57,0,0,0,0-.77c-.06-1.88-3-1.89-2.93,0a6.57,6.57,0,0,1,0,.77h2.93c-1.12-11-2-22.32-5.64-32.86l-1,1.8c9.41-3.31,9.5-21.55-2-21.17-1.88.06-1.89,3,0,2.93Z"/><path class="cls-1" d="M53.94,270.77q0-13,.49-25.93c.26-7.12-.18-14.71,2.21-21.51l-1.8,1c5.48,2,6,15-.92,14.84a1.49,1.49,0,0,0-1.27,2.2c2.35,5.46,3.22,11.27,4.45,17,.79,3.7,2.53,7.82,2.28,11.63-.12,1.88,2.81,1.88,2.93,0,.26-4.11-1.54-8.44-2.39-12.41-1.28-6-2.29-12-4.75-17.74l-1.27,2.2c10.52.28,10.18-17.54,1.7-20.6a1.49,1.49,0,0,0-1.8,1c-2.29,6.49-2,13.59-2.24,20.37Q51,256.84,51,270.77a1.47,1.47,0,0,0,2.93,0Z"/><path class="cls-1" d="M63.72,222.93c.5,14-3.15,29.43,1.25,43,.58,1.79,3.41,1,2.83-.78-4.31-13.31-.66-28.58-1.14-42.25-.07-1.88-3-1.89-2.93,0Z"/><path class="cls-1" d="M63.1,223c1.61-.16,3.18-.57,4.78-.7,1.87-.15,1.88-3.08,0-2.93-1.61.13-3.18.54-4.78.7a1.51,1.51,0,0,0-1.47,1.47A1.48,1.48,0,0,0,63.1,223Z"/><path class="cls-1" d="M64.89,268.44c.58-.07,1.14-.2,1.72-.3a6.52,6.52,0,0,1,.83-.11h.64q-.23,0,0,0c1.83.45,2.61-2.37.78-2.83a6.43,6.43,0,0,0-2.52,0l-1,.18c-.15,0-1.08.18-.46.11A1.51,1.51,0,0,0,63.42,267a1.47,1.47,0,0,0,1.47,1.47Z"/><path class="cls-1" d="M69.37,228.59h6.88a1.47,1.47,0,0,0,0-2.93H69.37a1.47,1.47,0,0,0,0,2.93Z"/><path class="cls-1" d="M67.91,228.87c.1,10.16,1.41,20.26,1.49,30.41a1.47,1.47,0,0,0,2.93,0c-.09-10.15-1.39-20.25-1.49-30.41a1.47,1.47,0,0,0-2.93,0Z"/><path class="cls-1" d="M70.27,241.87c2,0,3.82.36,5.77-.05s1.06-3.22-.78-2.83c-1.64.35-3.33,0-5-.05a1.47,1.47,0,0,0,0,2.93Z"/><path class="cls-1" d="M77,222.8a6.85,6.85,0,0,1,3.75-.5c1.89.08,1.88-2.85,0-2.93a9.41,9.41,0,0,0-5.22.9A1.47,1.47,0,0,0,77,222.8Z"/><path class="cls-1" d="M77.83,222.62C79.52,228.9,79,235.36,79,241.79c0,4.48.48,9.19-.27,13.63l2.88.39,0-.37c.13-1.88-2.8-1.87-2.93,0l0,.37c-.11,1.63,2.6,2,2.88.39.8-4.72.36-9.64.38-14.41,0-6.71.51-13.4-1.25-19.94a1.47,1.47,0,0,0-2.83.78Z"/><path class="cls-1" d="M77.15,257.6h6a1.47,1.47,0,0,0,0-2.93h-6a1.47,1.47,0,0,0,0,2.93Z"/><path class="cls-1" d="M90,230.55c.28-2.48.75-8.89-2.53-9.83-5.16-1.48-4.71,7.79-4.5,10.27.32,3.81.48,7.57.59,11.39.09,3.25-.1,7.74,1.76,10.67,3,4.66,6.19.66,7-3.06.38-1.84-2.44-2.63-2.83-.78-.93,4.49-2.35.74-2.66-1.7-.22-1.7-.25-3.42-.3-5.12-.1-3.42-.15-6.79-.47-10.2-.1-1.09-.24-8.94.82-7.74.91,1,.38,4.77.23,6.11-.21,1.87,2.72,1.86,2.93,0Z"/><path class="cls-1" d="M185.76,264.76c-.13-15-3-29.61-5.93-44.21l-1.95,1.95c3.81,1.47,8.65,1.76,8.74,6.91.07,4.09-3.79,6.47-6.35,9.21a1.6,1.6,0,0,0,1.12,2.7c5.51-.34,8.12,3.79,9.09,8.71a25.2,25.2,0,0,1,.44,6.3c-.13,2.1-2.37,9.64-6.34,7.06-1.71-1.12-3.3,1.63-1.6,2.74,2.42,1.58,5.35.4,7.45-1.23,3.57-2.76,3.86-7.28,3.61-11.49-.45-7.6-3.83-15.81-12.66-15.26l1.12,2.7c3.61-3.87,8.39-7.15,7.25-13.12-1.11-5.81-6.33-6.47-11-8.3-1.22-.47-2.17.89-1.95,1.95,2.91,14.33,5.69,28.7,5.82,43.37a1.59,1.59,0,0,0,3.17,0Z"/><path class="cls-1" d="M196.19,223.94c-.6,7.21.92,14.26,1.55,21.41.61,6.91.59,13.83,2.46,20.56a1.61,1.61,0,0,0,1.95,1.11c2.56-.78,4.82-2.1,7.32-3.07,1.88-.73,1.06-3.8-.84-3.06-2.47,1-4.77,2.3-7.32,3.07l1.95,1.11c-1.94-7-1.77-14.17-2.51-21.3-.69-6.62-1.95-13.15-1.4-19.83.17-2-3-2-3.17,0Z"/><path class="cls-1" d="M198.59,243c2.73-.4,5.35-1.44,8.13-1.5,2,0,2-3.21,0-3.17-3.08.06-6,1.17-9,1.61-2,.29-1.16,3.35.84,3.06Z"/><path class="cls-1" d="M196.22,224c3.95-.17,7.7-1.74,11.66-1.56,2,.1,2-3.07,0-3.17-4-.19-7.71,1.38-11.66,1.56-2,.09-2,3.26,0,3.17Z"/><path class="cls-1" d="M213.72,220.47c4.56.28,9.05-.7,13.61-.78,2,0,2-3.2,0-3.17-4.55.08-9,1.06-13.61.78-2-.13-2,3,0,3.17Z"/><path class="cls-1" d="M217.58,218.5c0,14.8-.07,29.62,2.39,44.26.3,1.79,3.11,1.32,3.11-.42v-1.08a1.59,1.59,0,0,0-3.17,0v1.08l3.11-.42c-2.41-14.35-2.28-28.92-2.27-43.42a1.59,1.59,0,0,0-3.17,0Z"/><path class="cls-1" d="M232,218.47a95.31,95.31,0,0,0-4.57,19.67q-.66,5-1,10.13-.16,2.49-.24,5c0,1,.52,5.11,0,5.78-1.1,1.44,1.26,3.19,2.49,1.92l.5-.52c1.4-1.49-.84-3.73-2.24-2.24l-.5.52,2.49,1.92c1.06-1.39.37-5.74.43-7.38.12-3.64.35-7.27.72-10.9a97.8,97.8,0,0,1,4.95-23.05c.69-1.92-2.37-2.75-3.06-.84Z"/><path class="cls-1" d="M231.4,218.91c3.6,7.57,5.11,16.27,6.41,24.51.58,3.65.65,7.34,1,11,.13,1.31,0,3.17,1.3,3.93a1.59,1.59,0,0,0,1.6-2.74c1,.55.16-2.53.08-3.41-.12-1.41-.21-2.82-.33-4.24a98.28,98.28,0,0,0-1.48-10c-1.32-7.07-2.77-14.1-5.87-20.63-.87-1.84-3.61-.24-2.74,1.6Z"/><path class="cls-1" d="M228.49,244.58c1.69-.17,3.36-.5,5-.8,1.45-.27,3.18-.76,4.65-.42,2,.46,2.83-2.6.84-3.06-3.42-.79-7.13.77-10.53,1.11-2,.2-2,3.37,0,3.17Z"/><path class="cls-1" d="M31.9,289.34a138,138,0,0,1,20,1.16c5,.76,10.05,1.81,15.08.8,5.85-1.18,3.37-10.12-2.47-8.95-4.49.9-9.69-.82-14.15-1.36a158.52,158.52,0,0,0-18.49-.92c-6,0-6,9.25,0,9.28Z"/><path class="cls-1" d="M38.55,287.53c-.11,8.13-1.69,16.25-2.32,24.35-.51,6.6-1.77,15.83,3,21.26,3.93,4.51,10.47-2.08,6.56-6.56-.53-.61-.62-4.77-.63-6.36,0-4,.31-8,.68-11.91.65-6.9,1.91-13.84,2-20.78.08-6-9.2-6-9.28,0Z"/><path class="cls-1" d="M73.83,285.41c-1.06,13.85-5.73,27.42-4.13,41.42.36,3.12,2.66,5.12,5.87,4.47,5.15-1,10.32-1.48,15.11-3.78,5.38-2.59.68-10.59-4.68-8-3.9,1.87-8.7,2-12.9,2.85L79,326.83c-1.6-14,3.07-27.59,4.13-41.42.46-6-8.82-5.93-9.28,0Z"/><path class="cls-1" d="M76.35,311.22A53.9,53.9,0,0,0,91,309.64c5.78-1.49,3.33-10.44-2.47-8.95a44.33,44.33,0,0,1-12.17,1.25c-6-.13-6,9.14,0,9.28Z"/><path class="cls-1" d="M78.46,288.64c4.71-.24,9.4.37,14.11,0,5.91-.46,6-9.74,0-9.28-4.71.37-9.4-.24-14.11,0-5.94.31-6,9.59,0,9.28Z"/><path class="cls-1" d="M126.68,280.65c-1.53-7.68-10-8.48-15.87-5.23-7.28,4-8.33,12.44-4.67,19.49,1.76,3.39,4.88,6.29,8.89,6.16,3.52-.11,4.71-2.25,4.52,2.55-.11,2.95-.92,7.65-3,9.93a4.73,4.73,0,0,1-3.64,1.48c-.64,0-1.4-.26-2-.2l-.81-.25q-1.59-1.2.61,2.79c3.41-4.92-4.63-9.56-8-4.68-5,7.19,4.8,11.85,10.7,11.6,8.61-.35,12.92-7.18,14.66-14.9,1.56-7,1.15-17.57-8.08-18.4-1.31-.12-3.93,1-4.94.69.44.15-.78-1.35-1-2a8.56,8.56,0,0,1-.67-3.66,3.44,3.44,0,0,1,2.19-2.61,6.41,6.41,0,0,1,2.14-.69c.68-.09-.27-1.55.11.37,1.16,5.85,10.11,3.37,8.95-2.47Z"/><path class="cls-1" d="M135.61,283.7c4.44-.06,11.47-2,15.3.78,4.8,3.55,9.44-4.5,4.68-8-5.52-4.08-13.65-2.13-20-2-6,.08-6,9.36,0,9.28Z"/><path class="cls-1" d="M137.33,279.77c-.43,13.05-2.09,28.36,3,40.74,2.23,5.45,11.21,3.06,8.95-2.47-4.78-11.66-3.06-26-2.66-38.28.19-6-9.08-6-9.28,0Z"/><path class="cls-1" d="M162.73,279.06a160.46,160.46,0,0,1,.13,22.54c-.24,5-2.15,11.57-.43,16.39,3.21,9,14,4.47,20.29,2.24,5.59-2,3.18-10.95-2.47-8.95-2.33.82-4.68,1.6-7.07,2.25-.85.23-3,.35-2.47.95.35.38.77-3.84.87-4.66a146.15,146.15,0,0,0,.43-30.75c-.54-5.9-9.83-6-9.28,0Z"/><path class="cls-1" d="M168.6,302.58c4.9-1,9.88-1.41,14.82-2.12,2.48-.35,3.84-3.51,3.24-5.71-.73-2.67-3.22-3.6-5.71-3.24-4.94.71-9.91,1.16-14.82,2.12-5.85,1.14-3.38,10.08,2.47,8.95Z"/><path class="cls-1" d="M169.3,282.83c5.68-1.86,11.93-1.27,17.82-1.25s6-9.25,0-9.28c-6.72,0-13.8-.54-20.28,1.58-5.65,1.85-3.23,10.81,2.47,8.95Z"/><path class="cls-1" d="M195.18,276.94c.44,7.46.85,14.92,1.11,22.38q.19,5.39.26,10.79c0,2.95-.55,6.45.26,9.32,1.05,3.77,6.53,4.64,8.48,1.11a5.21,5.21,0,0,1,.65-1c3.49-4.86-4.56-9.5-8-4.68a5.21,5.21,0,0,0-.65,1l8.48,1.11c-.68-2.44.09-6.19,0-8.81q-.09-5.39-.31-10.78c-.26-6.81-.63-13.62-1-20.43-.35-5.93-9.63-6-9.28,0Z"/><path class="cls-1" d="M204.28,280.95c3.31-1.59,8.37.8,7.86,4.9-.19,1.53-5.63,7.65-6.9,5.69-3.24-5-11.27-.35-8,4.68,6.68,10.3,21.6,1.67,23.86-7.9a14.06,14.06,0,0,0-5.76-14.42,15.37,15.37,0,0,0-15.72-1c-5.38,2.58-.68,10.58,4.68,8Z"/><path class="cls-1" d="M207.12,301.39c4.56,5.63,7.74,12.25,12,18.11,3.46,4.8,11.52.17,8-4.68-4.71-6.52-8.35-13.72-13.43-20-3.76-4.64-10.29,2-6.56,6.56Z"/><path class="cls-1" d="M248.2,276.24c.23-6.75-4.4-14.41-12-10.34s-8.51,16-5.16,22.89c1.72,3.51,4.16,6.17,8.11,6.8,1.62.26,3.16.26,4.78.63a8.38,8.38,0,0,0,2.14.55c1.55-.23-.9-.87-.82-.91-.08,0-.21,5.81-.29,6.29a35.81,35.81,0,0,1-1.91,6.92c-.58,1.45-1.9,4.86-3.65,5.29-1.14.28-.67-.13-1.76-.33l-.69-.66q-1.08-2-1.58,1.45c4.9-3.35.27-11.39-4.68-8C223,312,229.42,322,236.7,323.71c10.25,2.39,15.41-10.66,17-18.37s1.94-15.7-6.85-17.94c-1.75-.45-3.81-.39-5.48-.92-2-.63-2.49-1.92-2.81-4.49a13.17,13.17,0,0,1,.29-4.52c.1-.45,1.23-2.52,1.15-2.9.14.74,2.08-4.07-1.08-1a22.12,22.12,0,0,0,0,2.69c-.2,6,9.07,6,9.28,0Z"/><path class="cls-1" d="M31.31,192c.89-2.28,1.34-5.55-1-7.15-2.15-1.47-4.74-.28-6.13,1.57-5.51,7.33-1.07,18.18-5.64,25.53-1.08,1.74,1.66,3.33,2.74,1.6,2.53-4.07,2.19-9.23,2.56-13.82A40.53,40.53,0,0,1,25,192.94c.22-.88.39-2.73,1.08-3.36,1.61-1.49,3-.57,2.18,1.57-.74,1.9,2.32,2.72,3.06.84Z"/><path class="cls-1" d="M16.66,203.68c3.25,1.24,6.71.71,10,0,2-.43,1.15-3.48-.84-3.06-2.79.6-5.59,1-8.33,0-1.91-.73-2.73,2.34-.84,3.06Z"/><path class="cls-1" d="M32.89,198.92c-2.63,2.34-3.92,7.57-1.85,10.6s6.11,2.35,8.06-.33a10.26,10.26,0,0,0,1.5-8.71c-1.13-3.46-4.43-3.81-7.4-2.51-1.86.81-.25,3.54,1.6,2.74,4-1.74,3.23,4.11,2,6.16-.68,1.17-2.22,2.37-3.27.75-1.16-1.78.12-5.18,1.55-6.46s-.72-3.59-2.24-2.24Z"/><path class="cls-1" d="M43.72,196.51c0,4.18-.12,8.35.14,12.52a1.59,1.59,0,0,0,3.11.42c1.6-4.5,3.42-9.41,7.21-12.53,1.58-1.3-.68-3.53-2.24-2.24-4.2,3.46-6.26,8.94-8,13.93L47,209c-.26-4.17-.15-8.34-.14-12.52a1.59,1.59,0,0,0-3.17,0Z"/><path class="cls-1" d="M67.27,200.7c4.07-2.86,13.22-8,10.8-14.38-2.1-5.55-8.77,1.76-9.89,4.32-1.85,4.2-3.62,12.87,0,16.61,2.88,3,7.94,2.79,8.25-2,.35-5.37-4.61-6.73-8.21-3.49-1.52,1.37.73,3.6,2.24,2.24.94-.84,1.82-1.62,2.59-.4.32.51.45,2.1-.1,2.5-1.1.81-2.82-1.4-3.11-2.22-.74-2.12-.33-5,0-7.12a18,18,0,0,1,1.41-5.2c.24-.48,3.1-4.51,4-3.91.34.24-.66,2.74-.8,3A11.22,11.22,0,0,1,72,193.25,64.69,64.69,0,0,1,65.67,198c-1.66,1.16-.08,3.91,1.6,2.74Z"/><path class="cls-1" d="M80.68,203.52c3.45-2.63,7.51-4.45,9.14-8.76a1.59,1.59,0,0,0-.73-1.79c-2.08-1.11-4.62-1.82-6.8-.53a7,7,0,0,0-3,5.14c-.54,3.49.28,9.47,4.41,10.54,2.87.74,5.17-1.7,6.72-3.76,1.22-1.63-1.52-3.21-2.74-1.6A6.49,6.49,0,0,1,85.25,205a1,1,0,0,1-1.26-.19c-.87-.66-1.47-2.59-1.63-4a7.42,7.42,0,0,1,.86-5c1-1.34,2.67-1,4.26-.11l-.73-1.79c-1.24,3.3-5.05,4.86-7.68,6.86-1.6,1.22,0,4,1.6,2.74Z"/><path class="cls-1" d="M93.11,195.1c0,3.1-.58,7.13.92,10,1,1.8,3.69.2,2.74-1.6a8.92,8.92,0,0,1-.47-3.66c0-1.57,0-3.14,0-4.71a1.59,1.59,0,0,0-3.17,0Z"/><path class="cls-1" d="M93.28,189.63a1.59,1.59,0,0,0,0-3.17,1.59,1.59,0,0,0,0,3.17Z"/><path class="cls-1" d="M100.16,190.16a45.13,45.13,0,0,0,.61,10.09c.41,1.85,3,1.26,3.11-.42.33-3.76,2-8,5-10.38l-2.33-.95c1.55,4.8-1.39,9.94,1.55,14.45,1.11,1.7,3.85.12,2.74-1.6-2.55-3.92.18-9.31-1.24-13.7a1.6,1.6,0,0,0-2.33-.95c-4.05,3.12-6.16,8.1-6.6,13.11l3.11-.42a41.55,41.55,0,0,1-.49-9.24,1.59,1.59,0,0,0-3.17,0Z"/><path class="cls-1" d="M122.3,186c-4-2.09-8.77-.28-6.6,4.85,2.56,6,7.19.86,8.58-2.85l-3.11-.42c.39,3.14,1.65,6.45,1.47,9.62-.17,3-5.14,11.77-8.72,5.91l-.25,1.92c7.34-7.05,16.79-10.73,25.57-15.59,1.79-1,.19-3.72-1.6-2.74-9,5-18.66,8.83-26.21,16.08a1.61,1.61,0,0,0-.25,1.92c2.54,4.15,6.72,4.29,10.38,1.24,6.06-5.06,3.62-11.66,2.79-18.37a1.59,1.59,0,0,0-3.11-.42c-.43,1.16-1.4,4.4-2.64,2.41s1.2-1.31,2.12-.83c1.81.94,3.41-1.79,1.6-2.74Z"/><path class="cls-1" d="M166,187.38c-5-3.53-11.43-.2-11,6.05s6.82,2,10.05,3.76c4.29,2.29,1.87,5.66-1.42,6.91-1.42.54-7.21,2-5.5-1.15,1-1.79-1.76-3.39-2.74-1.6-1.32,2.43-1.15,5.27,1.77,6.3,2.69,1,6,.16,8.51-1s5-3.22,5-6.16c0-3.36-3.47-6.67-6.73-6.82-1.26-.06-4.74,1.11-5.65.15s.58-3.75,1.43-4.3c1.53-1,3.39-.38,4.74.58,1.67,1.18,3.25-1.57,1.6-2.74Z"/><path class="cls-1" d="M173.6,187.62c-.85,4.56-2.43,11.27,2.83,13.78a1.63,1.63,0,0,0,1.92-.25c3.54-3.78,8.47-10.64,5.91-16-.88-1.84-3.61-.23-2.74,1.6,1.76,3.71-3.07,9.68-5.41,12.19l1.92-.25c-3.62-1.72-1.95-7.12-1.37-10.2.37-2-2.68-2.85-3.06-.84Z"/><path class="cls-1" d="M197.88,189.45a15,15,0,0,0-.11-3.42,1.63,1.63,0,0,0-1.16-1.53c-6.37-1-9.67,5.87-9.34,11.34.15,2.43,1,5.17,3.44,6.21,3.19,1.38,6.51-1,8.82-3,1.55-1.33-.7-3.56-2.24-2.24-1.17,1-3.61,3.18-5.37,2.34-1.3-.62-1.49-2.68-1.5-3.92,0-2.9,1.48-8.28,5.35-7.66L194.6,186a14.94,14.94,0,0,1,.11,3.42c-.2,2,3,2,3.17,0Z"/><path class="cls-1" d="M203.88,181.69c.76,8.89-.14,17.79-.86,26.65l3.11-.42c-.72-3.2-.15-7.09.59-10.22s5-10.06,5.8-3.15c.5,4.07-.63,12.39,6.07,10.55a1.59,1.59,0,0,0-.84-3.06c-2.67.73-1.81-8.81-2.74-10.89a4.77,4.77,0,0,0-6.58-2.36c-5.78,2.79-6.57,14.59-5.35,20,.41,1.84,3,1.27,3.11-.42.73-8.86,1.62-17.76.86-26.65-.17-2-3.34-2-3.17,0Z"/></g></g></svg>