<svg xmlns="http://www.w3.org/2000/svg" viewBox="0 0 315.1 278.03"><defs><style>.cls-1{fill:#fff;}</style></defs><title>Asset 54</title><g id="Layer_2" data-name="Layer 2"><g id="Layer_1-2" data-name="Layer 1"><path d="M263.14,3.94c-22-11.14-26.94,5.11-95,3-56.76-1.76-78.51-13.84-116,0-16,5.91-34,12.56-45,30-16.62,26.37.5,49.32,4,120,2.6,52.48-6.11,54.56,2,71,23,46.74,107.38,58.14,168,45,21.05-4.56,76.26-16.54,109-66C336.54,136.84,312.88,29.12,263.14,3.94Z"/><path class="cls-1" d="M58.07,34.36C51.51,29.74,40.06,32,35.8,39,32,45.2,39.94,48.83,44.59,50.53c5.3,1.94,15.53,4.76,10.31,12.27-4.9,7-13,4.32-16.58-2.25L37.42,64a1.65,1.65,0,0,1,1.39-.28c3.2-.18,3.22-5.18,0-5a8,8,0,0,0-3.91,1,2.54,2.54,0,0,0-.9,3.42c3.22,6,9,10.31,16,8.65,5.43-1.28,10.53-5.92,11.21-11.63.83-6.93-5.06-10.84-10.84-12.86-2.3-.8-9.12-2-10.17-4.46-.94-2.26,3.85-4.56,5.62-5.17a10.62,10.62,0,0,1,9.71,1.1c2.63,1.86,5.14-2.47,2.52-4.32Z"/><path class="cls-1" d="M81.91,44.09C74.09,36.81,67.84,48.22,67,55.24c-.52,4.53.72,10.31,4.83,12.95,4.88,3.14,9.5-.5,12.44-4.4,1.94-2.57-2.4-5.07-4.32-2.52s-4.51,4.6-6.67,1.38a10.75,10.75,0,0,1-1.19-7.79c.48-2.46,2.84-10.39,6.25-7.22,2.35,2.19,5.9-1.34,3.54-3.54Z"/><path class="cls-1" d="M88.31,45.19c0,6.65-2.24,13.19-.72,19.81.52,2.28,4.46,2.49,4.82,0,.91-6.23,4.19-11.92,8.17-16.71,2-2.46-1.47-6-3.54-3.54-4.51,5.41-8.42,11.83-9.46,18.91h4.82c-1.39-6,.95-12.38.9-18.48,0-3.22-5-3.22-5,0Z"/><path class="cls-1" d="M104.4,46.52c-1.71,4.33-5.85,24.07,4.23,21.49,4.12-1.05,5.91-6.7,6.91-10.25s2.41-8.81.76-12.5c-1.31-2.93-5.62-.39-4.32,2.52.68,1.52-.47,5.45-.88,7.15-.37,1.53-1.66,7.85-3.7,8.21-.3.05.45.36,0-.16a4,4,0,0,1-.33-1.67,22,22,0,0,1,.2-5.1,34.51,34.51,0,0,1,1.9-8.35c1.18-3-3.65-4.29-4.82-1.33Z"/><path class="cls-1" d="M118.31,47.85c0,5.27.22,10.57-.61,15.8-.4,2.54,3.28,4.73,4.57,1.93,2.44-5.31,3.67-11.21,8.32-15.13L126.66,50c2,3.16,1.09,7.81.95,11.36-.12,2.94,4,3.22,4.91.66,1.33-3.84,2.18-9.12,6.08-11.21l-3.42-.9c1.94,4.36.53,10.05.46,14.65,0,3.22,5,3.22,5,0,.09-5.79,1.29-11.69-1.14-17.17a2.53,2.53,0,0,0-3.42-.9c-5.26,2.81-6.58,9-8.38,14.19l4.91.66c.19-4.55,1-9.83-1.63-13.88a2.54,2.54,0,0,0-3.93-.51C122,51.18,120.6,57.29,118,63.06L122.52,65c.91-5.69.81-11.38.79-17.13,0-3.22-5-3.22-5,0Z"/><path class="cls-1" d="M157,46.52c0,5-.15,10,.13,15,.16,2.76,4.11,3.47,4.91.66,1.38-4.84,2.35-10.11,5.89-13.91l-3,.39c3.21,2.18,1.5,9.78,1.4,13-.09,2.78,4.32,3.45,4.91.66,1.16-5.5,3.17-11,6.88-15.26l-3,.39c3.87,2.42,2,11.16,1.93,15,0,3.22,5,3.22,5,0,.06-6.23,1.86-15.4-4.41-19.33a2.52,2.52,0,0,0-3,.39,38.64,38.64,0,0,0-8.17,17.47l4.91.66c.19-5.81,1.74-13.52-3.88-17.33a2.52,2.52,0,0,0-3,.39c-4.2,4.51-5.53,10.35-7.17,16.12l4.91.66c-.28-5-.15-10-.13-15,0-3.22-5-3.22-5,0Z"/><path class="cls-1" d="M187.32,44.59c-3.4,5.75-4.45,15.49,1,20.36a2.59,2.59,0,0,0,3,.39c3.2-1.73,4.67-5.95,5.64-9.22s2.12-7.65.87-10.93c-1.13-3-6-1.69-4.82,1.33.86,2.25-.05,5.28-.65,7.49s-1.44,5.86-3.57,7l3,.39c-3.76-3.34-2.53-10.43-.24-14.3,1.64-2.78-2.68-5.29-4.32-2.52Z"/><path class="cls-1" d="M208.14,42.78c-5.77-1.07-8,4.36-6.43,9.23a6.9,6.9,0,0,0,4.18,4.65,4.73,4.73,0,0,0,1.4.48c1.59,0-.32.11.39-.52-.8.71-.73,1.1-2,1.21a5,5,0,0,1-2.19-.38c-3-1.1-4.34,3.73-1.33,4.82,2.51.91,5.8.84,8-.81,1.91-1.42,3.29-4.45,2.05-6.72-1.11-2-3.19-1.7-4.83-2.85-.8-.56-2-4.56-.56-4.29,3.15.58,4.49-4.24,1.33-4.82Z"/><path class="cls-1" d="M219.73,19.86a125.32,125.32,0,0,0-2.12,19.44c-.16,5.23-.54,10.91,1.17,16,.9,2.66,2.51,6.1,5.47,7,4,1.17,6.53-2.76,8.06-5.77s-2.86-5.4-4.32-2.52c-2,3.86-3,4-4.39,0-1.07-3-1-6.08-1.05-9.2a121.56,121.56,0,0,1,2-23.54c.6-3.14-4.22-4.49-4.82-1.33Z"/><path class="cls-1" d="M194.81,40.93c14.34-2.35,29.13-1.37,43.33-4.67,3.13-.73,1.81-5.55-1.33-4.82-14.18,3.29-29,2.31-43.33,4.67-3.17.52-1.82,5.34,1.33,4.82Z"/><path class="cls-1" d="M240.14,52.27a16.69,16.69,0,0,0,5.22-2.74c1.23-.94,3.36-2.26,3.81-3.8a6.51,6.51,0,0,0-2.81-6.56c-4.34-2.28-9,3-10.53,6.58-1.77,4.2-.8,10,1.42,13.91,2.89,5,8,5,12,1.31,2.37-2.18-1.17-5.71-3.54-3.54-1.62,1.49-2.76,1.87-4-.08a13,13,0,0,1-1.7-6.43,7.21,7.21,0,0,1,1.53-5.07,10.49,10.49,0,0,1,2.2-2c.41-.3.73,0,.29-.28a10.23,10.23,0,0,0,.25,1.48l.73-1.77c-1.88,1.7-3.72,3.38-6.18,4.15-3.06,1-1.75,5.79,1.33,4.82Z"/><path class="cls-1" d="M253.06,42.52c-1.48,5.41-.81,10.94-.76,16.46h5c-.11-5.08,1.4-10.95,6.1-13.64,2.79-1.6.27-5.92-2.52-4.32-6.23,3.57-8.72,11.1-8.57,18,.07,3.21,5,3.23,5,0,0-5-.77-10.2.58-15.13.85-3.11-4-4.43-4.82-1.33Z"/><path class="cls-1" d="M272.14,42.78a9.16,9.16,0,0,0-5.29,4.45,2.49,2.49,0,0,0,0,2.52,17.42,17.42,0,0,0,3.35,3.5c.82.68,3.4,2.23,2.89,3.5-.89,2.2-7.07,2-8.95,1.94-3.22-.06-3.22,4.94,0,5,4.24.07,10.82-.19,13.25-4.34,3.37-5.74-3.64-8.37-6.23-12.12v2.52a4,4,0,0,1,2.3-2.15c3-1.07,1.71-5.9-1.33-4.82Z"/><path class="cls-1" d="M77.48,82.78c-6.74,2.34-13.5,8.84-12.8,16.56.76,8.38,11.2,11.85,18.26,9.48,8.11-2.73,14.16-12.19,9.25-20.21-4.26-7-14-11.12-19.53-3.35-1.87,2.63,2.47,5.13,4.32,2.52,3.51-4.93,10.55,1,11.79,5.18,1.83,6.11-5.19,11.79-10.8,11.66-4.68-.11-9.42-3.21-8-8.31,1.14-4.13,5-7.35,8.87-8.72,3-1,1.72-5.88-1.33-4.82Z"/><path class="cls-1" d="M97,83.19c.79,8.78.33,19.59,5.67,27.09a2.53,2.53,0,0,0,4.32,0q7.41-12.87,14.67-25.83c1.58-2.81-2.74-5.33-4.32-2.52q-7.27,13-14.67,25.83H107c-4.82-6.77-4.27-16.63-5-24.57-.29-3.18-5.29-3.21-5,0Z"/><path class="cls-1" d="M126.81,101.69c7.86.08,22.42-1,25.63-9.82,3.28-9-8.56-11.3-14.88-10.48-9.85,1.28-16.15,12.63-14.72,22.07,1.9,12.51,16.3,11.34,25.29,8.14,3-1.07,1.71-5.9-1.33-4.82-6,2.15-17.74,5-19-4.34-.94-6.66,3.6-15.31,10.62-16.15,3.27-.4,13.62.71,8,5.9-4.44,4.09-13.85,4.56-19.56,4.5-3.22,0-3.22,5,0,5Z"/><path class="cls-1" d="M170,83.78c2.15,5,3.62,11.39,7.72,15.17,2.36,2.18,5.91-1.35,3.54-3.54-3.68-3.4-5-9.68-6.94-14.16-1.28-2.94-5.58-.4-4.32,2.52Z"/><path class="cls-1" d="M191.71,78.75c-5,4.39-7.53,10.69-10.08,16.68a81.13,81.13,0,0,1-4.25,9,24,24,0,0,1-3.08,4.34c-.36.39-3.76,3.18-3.52,3.33l1.15,2.82a5.75,5.75,0,0,0,0-2.4c-.6-3.16-5.42-1.82-4.82,1.33l0-.26a2.59,2.59,0,0,0,1.15,2.82c5.87,3.43,12.76-7.91,14.79-12,3.71-7.41,5.75-16.51,12.21-22.15,2.43-2.12-1.12-5.64-3.54-3.54Z"/><path class="cls-1" d="M206.14,81.44c-10.81,3.15-14.82,26.76-.7,27.27,13.81.5,20.63-18.59,11.9-28.25-5.39-6-12.09-1.73-16,3.46-1.95,2.56,2.39,5.05,4.32,2.52,3-4,7.09-5.7,9.44-.27,1.93,4.44,1.39,10.44-1.93,14.09s-10.3,5.43-11.54-.88c-.89-4.53.9-11.67,5.87-13.12,3.08-.9,1.77-5.72-1.33-4.82Z"/><path class="cls-1" d="M228.65,78.59c-3.24,6.64-5.88,25.29,5.49,25.76,12,.5,16.61-18,16.5-27.17,0-3.22-5-3.22-5,0,.08,6.49-2.35,19.53-9.55,21.89-7.78,2.55-4.86-14.41-3.12-18,1.41-2.88-2.9-5.42-4.32-2.52Z"/><path class="cls-1" d="M255.48,103c3.22,0,3.22-5,0-5s-3.22,5,0,5Z"/><path class="cls-1" d="M42.4,83.85c1.55,10.93-4.48,21.41-3.32,32.42a2.56,2.56,0,0,0,3.16,2.41c9.33-1.46,18.63-1.82,27.9.25,3.13.7,4.47-4.12,1.33-4.82-10.17-2.27-20.33-1.86-30.56-.25l3.16,2.41C42.87,104.81,48.85,94,47.22,82.52c-.45-3.17-5.27-1.82-4.82,1.33Z"/><path class="cls-1" d="M44,124.92c2.35,6.06,2.14,12.77,5.65,18.41a2.22,2.22,0,0,0,3.8,0c1.66-3.12,2.68-6.52,4.56-9.53h-3.8c1.69,3.59,3.15,7.7,7,9.43,1.16.52,3,.22,3.23-1.31a89.22,89.22,0,0,1,4.31-17.59c1-2.64-3.23-3.79-4.24-1.17a89.23,89.23,0,0,0-4.31,17.59l3.23-1.31c-3-1.36-4.12-5-5.45-7.86-.74-1.57-3-1.29-3.8,0-1.89,3-2.9,6.4-4.56,9.53h3.8c-3.27-5.26-3-11.68-5.2-17.36-1-2.61-5.27-1.48-4.24,1.17Z"/><path class="cls-1" d="M71.36,141.19c3.94.17,11.24-1.5,12.22-6.08,1.15-5.36-6.07-7.08-9.95-6.1-5.23,1.33-6.71,8.14-5,12.69,2.36,6.32,10.38,4.52,15,2.12,2.51-1.31.29-5.11-2.22-3.8-2.1,1.09-7.42,3.31-8.68.08-.8-2.06-.46-6.25,2.09-6.85.93-.22,4.92,0,4.35,1.14-.49,1-2.82,1.53-3.76,1.8a12.79,12.79,0,0,1-4,.59c-2.83-.13-2.82,4.27,0,4.4Z"/><path class="cls-1" d="M98.34,125.65C93,126,87.9,133.29,93,137.53s10.22-3.08,10.53-7.63c.17-2.44-3.89-3-4.32-.58-1,5.45.18,10.85,0,16.33a15.8,15.8,0,0,1-.68,4.85L97.78,152q-1.32,2.86-4.64.68c-.62-2.61,4.64-6.48,6.3-7.68,2.28-1.64.08-5.46-2.22-3.8-3.47,2.5-7.69,5.92-8.35,10.43-.58,4,2.54,8.44,6.91,7.37,11.85-2.92,6.21-20.49,7.62-28.51l-4.32-.58c-.08,1.12-.78,3.4-2,3.75q-1,1.28-.94-.71-1.3-2.31,2.17-2.89c2.81-.2,2.83-4.6,0-4.4Z"/><path class="cls-1" d="M106.41,129.09a11.24,11.24,0,0,0-1.78,8c.47,2.65,2.68,4.67,5.47,4,6.08-1.57,8.82-10,3.5-14.06-2.82-2.13-6.24-.95-7.77,2.09-1.27,2.52,2.52,4.75,3.8,2.22a7.87,7.87,0,0,1,.58-.93c.24-.21,0-.13.29-.11-.41,0,.11,0,.23.07-.36-.18.24.16.25.17-.27-.21.54.54.39.37a3.32,3.32,0,0,1-.37,4.57,6.31,6.31,0,0,1-1.47,1.15,3.21,3.21,0,0,1-.36.17l-.35.09q.29,0,.06,0c.09,0,.41.22.19,0,.29.28-.07-.25.07.11a5.44,5.44,0,0,1-.16-.53,5.91,5.91,0,0,1,0-2.23,7.87,7.87,0,0,1,1.21-2.85c1.58-2.36-2.23-4.56-3.8-2.22Z"/><path class="cls-1" d="M125.46,119.64c.32,6.61-.89,13.28.54,19.83.51,2.37,1.6,5.19,4.22,5.85,3.42.86,6.43-2.5,8.38-4.77s-1.27-5.27-3.11-3.11c-.83,1-3.41,4-4.31,3.5-1.4-.84-1.34-5.44-1.41-6.74-.27-4.85.32-9.71.09-14.55-.13-2.82-4.53-2.83-4.4,0Z"/><path class="cls-1" d="M123.55,129.46a54.21,54.21,0,0,1,7.62-.59c2.83.16,2.82-4.24,0-4.4a54.21,54.21,0,0,0-7.62.59c-2.8.24-2.83,4.64,0,4.4Z"/><path class="cls-1" d="M138.42,125.12a6.79,6.79,0,0,0-1.19,7.65,5.06,5.06,0,0,0,7.23,2.24c4.59-2.5,4-9.81-.44-12.18-3-1.62-5.86.56-7.12,3.33a2.27,2.27,0,0,0,.79,3,2.22,2.22,0,0,0,3-.79,9.58,9.58,0,0,1,.69-1.29c.14-.17.35-.3.48-.48-.32.42.34-.3-.15.09,0,0,.72-.19.08,0,.37-.08-.3-.12.06,0,.52.18-.4-.22.1,0,.11.06.48.39.14.08a5,5,0,0,1,.4.4c.3.33-.13-.24.13.19.11.18.21.35.31.54.18.35,0-.07.07.15s.28,1,.28,1,0,.92,0,.69a4.18,4.18,0,0,1-.13.5c-.15.45.12-.14-.12.23a1.34,1.34,0,0,1-.44.47,2.73,2.73,0,0,1-.49.27c-.07,0-.67.1-.39.09-.25,0-.22-.11-.17,0a3.1,3.1,0,0,1-.58-1.5,1.89,1.89,0,0,1,.58-1.62c2-2-1.07-5.08-3.11-3.11Z"/><path class="cls-1" d="M158.3,126.09v12.32c0,2.83,4.4,2.83,4.4,0V126.09c0-2.83-4.4-2.83-4.4,0Z"/><path class="cls-1" d="M162.62,130.19c.21-.73.5-1.31.77-2,.16-.41.35-.16,0-.21,0,0,.75,1,.95,1.35a8.08,8.08,0,0,1,.54,6l4-.53c-.93-2.14.49-6.38,3.18-6l-2.12-1.61a40,40,0,0,1,1.3,10.65c-.14,2.83,4.26,2.82,4.4,0A44.7,44.7,0,0,0,174.15,126a2.27,2.27,0,0,0-2.12-1.61c-6.41-.84-9.06,7.87-7,12.65.8,1.83,3.53,1.13,4-.53,1.12-3.82.38-8.91-2.73-11.67-3.74-3.32-6.95.61-8,4.19-.77,2.73,3.47,3.89,4.24,1.17Z"/><path class="cls-1" d="M179.85,133c3.23.13,6.76-1.11,7.86-4.44.78-2.36-.1-5.36-2.66-6.17-3-.94-6,1.73-7.15,4.28a10.24,10.24,0,0,0,.57,9.31c2.52,3.91,6.83,3.09,10,.48,2.18-1.81-.95-4.91-3.11-3.11-1.63,1.35-2.83,1.44-3.54-.56-.65-1.79-.48-4.22,1-5.55.21-.19.72-.52.78-.57.22-.17.19,0,.12-.11s.08.24-.13-.08c-.33-.5.08.13.06.13s-.1-.34,0,.1c0,.23,0-.31,0,.11a1.51,1.51,0,0,1-.52,1.07,4.63,4.63,0,0,1-3.23.71c-2.83-.11-2.83,4.29,0,4.4Z"/><path class="cls-1" d="M192.17,132.39c2.08-.25,4.37-.76,5.59-2.64a4.42,4.42,0,0,0,.2-4.4,4.8,4.8,0,0,0-7.62-1.53c-2.84,2.81-3.28,9.12-.19,11.88,3.33,3,8.31.86,11.2-1.6,2.16-1.84-1-4.94-3.11-3.11-1.08.92-3.39,2.36-4.9,1.6s-.88-3.95-.25-5.13a5.1,5.1,0,0,1,.43-.6c-.11.15-.07-.12.11,0-.24-.17.31.31.39.37s0,.15.07.1a6.27,6.27,0,0,1-1.92.65c-2.78.33-2.81,4.74,0,4.4Z"/><path class="cls-1" d="M202.87,113.19c0,6-.08,12.25,1.29,18.12.49,2.1,1.34,4.91,3.64,5.65,2.82.91,4.89-1.84,6.21-3.89,1.53-2.39-2.27-4.6-3.8-2.22-.27.42-1.74,2.08-1.33,1.9.73-.32.41.82.36-.09,0-.23-.29-.57-.36-.81a33.84,33.84,0,0,1-1.19-6.61c-.37-4-.42-8-.41-12,0-2.83-4.4-2.83-4.4,0Z"/><path class="cls-1" d="M195.1,123c6.09,0,12.24.4,18.18-1.25,2.72-.76,1.57-5-1.17-4.24-5.54,1.54-11.32,1.12-17,1.09-2.83,0-2.83,4.38,0,4.4Z"/><path class="cls-1" d="M217.25,125.44c.53,1.16.31,3,.32,4.19,0,1.75,0,3.49.1,5.24a2.23,2.23,0,0,0,3.31,1.9,2.36,2.36,0,0,0,1.39-1.49q.07-.41.1-.83-.14-1.1,0-.15c.78-2.73-3.46-3.89-4.24-1.17a8.05,8.05,0,0,0-.16,1.56l1.09-1.9-.38.18,3.31,1.9c-.24-3.75.59-8.14-1-11.65-1.17-2.57-5-.34-3.8,2.22Z"/><path class="cls-1" d="M217.53,116.12v.59a2.2,2.2,0,0,0,4.4,0v-.59a2.2,2.2,0,1,0-4.4,0Z"/><path class="cls-1" d="M224.57,121.4c0,4.72-.58,9.45.67,14.07.73,2.73,5,1.57,4.24-1.17-1.13-4.21-.55-8.6-.51-12.9,0-2.83-4.37-2.83-4.4,0Z"/><path class="cls-1" d="M228.91,126.47c.32-.25,1.09-.48,1.29-.72-.24.28-.43-.38-.38,0,0-.33,0,.14.1.27-.12-.3.09.33.11.39a12.22,12.22,0,0,1,.3,1.48c.28,2.06,0,4.47.77,6.42,1,2.6,5.29,1.46,4.24-1.17a10.61,10.61,0,0,1-.44-3.32,20.63,20.63,0,0,0-.75-4.94,4.74,4.74,0,0,0-3-3.35c-2-.55-3.82.67-5.32,1.85-2.22,1.75.91,4.85,3.11,3.11Z"/><path class="cls-1" d="M241.49,118.33c-3.8,2.39-6.48,7-3.73,11.17a2.23,2.23,0,0,0,3,.79,10.69,10.69,0,0,0,5.16-7.51,2.2,2.2,0,0,0-4.24-1.17c-2,6.12,0,12.63-1.62,18.76-.33,1.23-1.4,4.55-3.09,4.69-3.14.26-1-3.23-.18-4.34a13.75,13.75,0,0,1,7.57-5.47c2.76-.62,1.59-4.86-1.17-4.24-4.5,1-9.19,5-11.26,9.1-1.65,3.27-1.12,8.51,3.08,9.48,4.49,1,8-3.75,9.14-7.44,1.9-6.31-.32-13.12,1.77-19.37l-4.24-1.17a6.75,6.75,0,0,1-3.14,4.88l3,.79q-.77-3.69,2.15-5.15c2.39-1.5.19-5.31-2.22-3.8Z"/><path class="cls-1" d="M252.58,112.83c-4.39,1.7-6.36,5-4,9.39,1,1.94,2.71,3.49,3.73,5.43a4.64,4.64,0,0,1,.53,4.11,5,5,0,0,1-1,1.24c-.82.93-.31-.52,0,.72-.6-2.76-4.84-1.59-4.24,1.17,1.18,5.42,7.68,2,9.25-1.22a8.82,8.82,0,0,0-.67-8.24c-1.32-2.32-6.55-6.72-2.35-8.35,2.61-1,1.48-5.27-1.17-4.24Z"/><path class="cls-1" d="M70,160.06c-4.2-1.76-9,.16-11.49,3.8-2,2.82-.16,5,2.85,5.46a9.32,9.32,0,0,1,3.8.89c.28.18,1.22,1.22,1.25,1.06s-.42.22-.64.29a21.82,21.82,0,0,1-8.66,1.32c-2.82-.21-2.81,4.19,0,4.4,3.93.29,14.34-.44,13.63-6.44-.35-3-3.64-5-6.33-5.52-.71-.13-1.43-.17-2.14-.28a2.87,2.87,0,0,0-.76-.12l-.31-.08.84,1.63c.14,0,.91-1,1.07-1.14a5.8,5.8,0,0,1,1.9-1.25,5.07,5.07,0,0,1,3.84.23c2.61,1.09,3.75-3.16,1.17-4.24Z"/><path class="cls-1" d="M74.55,163.42c-3.37,5.64,3.76,18.52,10.38,12.67,2.9-2.57,4.41-8.19,3.48-11.93a6.64,6.64,0,0,0-6.6-5A8.71,8.71,0,0,0,74,164c-1.12,2.57,2.67,4.81,3.8,2.22a4.32,4.32,0,0,1,4.29-2.67,2.27,2.27,0,0,1,1.72.81,4.86,4.86,0,0,1,.44,2.91,10.75,10.75,0,0,1-2,5.37c-.53.61-.93.47-1.65-.07-1.78-1.34-3.43-4.85-2.18-6.94,1.45-2.44-2.35-4.65-3.8-2.22Z"/><path class="cls-1" d="M105.41,154c-.68,3.9-1.31,7.82-1.63,11.76-.25,3.13-.59,6.69.79,9.63,2.45,5.25,7,2.73,9.56-.93,1.61-2.34-2.2-4.54-3.8-2.22-1.34,2-1.58,2.39-2.15.11a17.69,17.69,0,0,1-.1-5.17,106.49,106.49,0,0,1,1.58-12c.48-2.77-3.75-4-4.24-1.17Z"/><path class="cls-1" d="M101.67,170.75c2.15-.42,4.28-.88,6.45-1.17a2.21,2.21,0,0,0,1.54-2.71,2.26,2.26,0,0,0-2.71-1.54c-2.17.29-4.31.75-6.45,1.17-2.77.55-1.6,4.79,1.17,4.24Z"/><path class="cls-1" d="M114.72,156.32c.23,6.87,1.69,13.64,1.17,20.53-.21,2.82,4.19,2.81,4.4,0,.52-6.89-.95-13.66-1.17-20.53-.09-2.82-4.49-2.84-4.4,0Z"/><path class="cls-1" d="M119.4,168.57a11.82,11.82,0,0,1,.88-1.44c.09-.12.47-.39.48-.51s.06.1,0,0-.61,0-.54-.06c-.28,0,0-.22.13.17-.08-.3.11.23.16.32a8.07,8.07,0,0,1,.6,1.55,20,20,0,0,1,.73,3.83c.06.68.1,1.36.1,2q0,.38,0,.76,0,.22,0,.45.06-.37,0,0c-.51,2.77,3.72,4,4.24,1.17a20.07,20.07,0,0,0-1.58-11.55c-.74-1.56-2.07-3-3.92-3.05-2.39,0-3.94,2.25-5,4.11-1.37,2.48,2.42,4.7,3.8,2.22Z"/><path class="cls-1" d="M130.34,162.91c4.89-2.09,3,10.85,3.14,13.35.12,2.82,4.52,2.83,4.4,0-.18-4.13.59-8.21-.33-12.32-1.11-4.92-4.82-6.79-9.43-4.82-2.6,1.11-.36,4.9,2.22,3.8Z"/><path class="cls-1" d="M136.65,168.25a4.65,4.65,0,0,0-7.75.48c-1.43,2.06-1.76,5.57.71,7,1.73,1,3.78.33,5.42-.51a2.2,2.2,0,0,0-2.22-3.8l-.41.2c-.36.18.41-.13,0,0l-.72.21c-.42.11.17,0,.15,0a1.1,1.1,0,0,0-.26,0c-.35,0,.36.07.27,0s-.45-.16,0,0,.14.07.06,0c-.28-.19.34.28.24.19-.32-.3.29.54,0,0,0-.09.17.6.12.29a1.22,1.22,0,0,0-.05-.19c-.13-.37.07.14,0,.28a1.54,1.54,0,0,0,0-.25c0-.07,0-.15,0-.22,0-.41,0,.11,0,.24a2.8,2.8,0,0,0,.11-.51l.09-.27c.1-.34,0,.12-.1.22a4.89,4.89,0,0,0,.27-.52l.13-.21c.19-.3,0,.11-.15.18a2.92,2.92,0,0,0,.39-.41c.25-.26-.09.13-.2.15.06,0,.14-.1.19-.13a1.71,1.71,0,0,0,.24-.12c.07-.05-.58.26-.21.1s.24.19-.21,0c.07,0,.19,0,.27,0,.38.1-.51-.16-.23,0a1.09,1.09,0,0,0,.33.1c-.18,0-.51-.27-.15,0,0,0,.26.2.3.19s-.37-.32-.23-.18l.22.19c.12.11.24.24.35.36a2.2,2.2,0,1,0,3.11-3.11Z"/><path class="cls-1" d="M144,154c0,6.06-1.78,12.08-.86,18.16.33,2.21,1.17,4.71,3.54,5.44,3.12,1,6.11-1.91,8.11-3.87s-1.09-5.09-3.11-3.11c-.64.63-2.94,3.17-3.77,2.58-1.08-.76-.62-5-.58-6.08.14-4.38,1.08-8.75,1.07-13.13,0-2.83-4.41-2.84-4.4,0Z"/><path class="cls-1" d="M138,161.37c4.21,1.26,8.58.71,12.9.67,2.83,0,2.84-4.43,0-4.4-3.91,0-7.92.63-11.73-.51-2.72-.81-3.88,3.43-1.17,4.24Z"/><path class="cls-1" d="M168.67,159.25c-.3,4.31,2.66,10,5.92,12.7,2.17,1.79,5.29-1.3,3.11-3.11-2.46-2-4.86-6.31-4.63-9.59.2-2.82-4.2-2.81-4.4,0Z"/><path class="cls-1" d="M176.88,157.49c-1,7.69-2.75,17.59-12.46,17.15-2.83-.13-2.82,4.27,0,4.4,12.52.56,15.55-11.44,16.86-21.55.36-2.8-4-2.77-4.4,0Z"/><path class="cls-1" d="M184.81,156.38a16.63,16.63,0,0,0-1.44,12.8,2.26,2.26,0,0,0,2.71,1.54c6.48-1.36,9.17-12.71,1.8-14.76-2.73-.76-3.9,3.48-1.17,4.24,3,.83.34,5.83-1.8,6.28l2.71,1.54a12.12,12.12,0,0,1,1-9.41c1.34-2.49-2.45-4.71-3.8-2.22Z"/><path class="cls-1" d="M193.38,156.32c-.87,4.24-1.53,8.91.77,12.82a2.23,2.23,0,0,0,2.48,1c5-1.71,8.18-8.75,7.52-13.83-.36-2.77-4.76-2.8-4.4,0,.39,3-1.13,8.51-4.29,9.59l2.48,1c-1.65-2.81-.95-6.41-.32-9.43.57-2.76-3.67-3.94-4.24-1.17Z"/><path class="cls-1" d="M220.51,158.87c-6.38-6.63-10.5,6.71-9,11.5a2.27,2.27,0,0,0,2.71,1.54c7.7-1.12,9.81-14.69,9.18-20.82a2.21,2.21,0,0,0-4.32-.58c-2,6.49-.15,14.77,1.89,21.06.87,2.68,5.12,1.53,4.24-1.17-1.81-5.57-3.7-13-1.89-18.72l-4.32-.58c.42,4.09-.64,15.81-5.95,16.58l2.71,1.54a8.22,8.22,0,0,1,.11-4.12,8.78,8.78,0,0,1,.75-2.38c.37-.65.31-1.25.82-.72,2,2,5.07-1.07,3.11-3.11Z"/><path class="cls-1" d="M229,159.11c-2.78,1.65-3.92,6-3.66,9,.39,4.38,4.85,5.72,8,2.83,2.68-2.44,2.86-6.81,1.35-9.94-1.72-3.57-5.51-3.8-7.69-.52-1.57,2.36,2.24,4.57,3.8,2.22,0,0,.3-.39.31-.38-.13-.36.22.2-.05,0,.14.09-1,0-.83-.15s.7,1.13.79,1.42c.37,1.27.45,3.2-.68,4.13-.27.22-.75.24-1,.43.09-.07.48.11.45.2a12.06,12.06,0,0,1-.1-1.61,8.7,8.7,0,0,1,.59-2.44,4.1,4.1,0,0,1,.9-1.42c2.43-1.44.22-5.25-2.22-3.8Z"/><path class="cls-1" d="M237.29,159.25a117.65,117.65,0,0,0-1.17,12.9c0,2.83,4.35,2.83,4.4,0a117.65,117.65,0,0,1,1.17-12.9c.35-2.8-4-2.78-4.4,0Z"/><path class="cls-1" d="M241.38,162.71a14.31,14.31,0,0,1,1.4-1.64c.29-.31,0,0-.05-.06.26.16-.59-.17-.55-.2s.82,2.11.94,2.7a37.66,37.66,0,0,1,.61,7.47c0,2.83,4.4,2.84,4.4,0,0-3.57-.11-7.53-1.41-10.89-.66-1.72-1.88-3.44-3.91-3.49-2.38-.06-4,2.13-5.23,3.88-1.61,2.33,2.2,4.54,3.8,2.22Z"/><path class="cls-1" d="M249.09,153.39q-.32,1.75-.59,3.52a2.26,2.26,0,0,0,1.54,2.71,2.22,2.22,0,0,0,2.71-1.54q.26-1.76.59-3.52a2.2,2.2,0,1,0-4.24-1.17Z"/><path class="cls-1" d="M257.23,146.35c-.12,8.84-1.69,17.62.3,26.36a2.22,2.22,0,0,0,2.71,1.54,19.05,19.05,0,0,0,5.59-2.54c2.32-1.59.13-5.4-2.22-3.8a15.52,15.52,0,0,1-4.54,2.09l2.71,1.54c-1.89-8.3-.26-16.79-.14-25.19,0-2.83-4.36-2.83-4.4,0Z"/><path class="cls-1" d="M255.9,161.82l.39.17,1.09,1.9v0l-.64,1.56c-.85.85-.93.4-.25.31.25,0,.5-.1.74-.15.64-.12,1.28-.21,1.92-.3a27.9,27.9,0,0,1,4.38-.31c2.83.09,2.83-4.31,0-4.4a35.52,35.52,0,0,0-7.46.76,4.38,4.38,0,0,0-2.44,1,2.28,2.28,0,0,0,1.11,3.76c2.73.77,3.89-3.47,1.17-4.24Z"/><path class="cls-1" d="M46.07,190.61c.71,10.21,0,20.44,0,30.67,0,3.22,5,3.22,5,0,0-10.22.71-20.45,0-30.67-.22-3.19-5.22-3.22-5,0Z"/><path class="cls-1" d="M48.57,208.44a197.59,197.59,0,0,1,27.33-.67c3.22.16,3.21-4.84,0-5a197.59,197.59,0,0,0-27.33.67c-3.18.29-3.21,5.29,0,5Z"/><path class="cls-1" d="M74.07,189.28c-.05,10-.63,20-.67,30,0,3.22,5,3.22,5,0,0-10,.62-20,.67-30,0-3.22-5-3.22-5,0Z"/><path class="cls-1" d="M88.31,217.94c3.27-9.3,8.81-17.57,12.9-26.5H96.89a187.77,187.77,0,0,0,15.52,25.1c1.88,2.57,6.22.08,4.32-2.52a187.77,187.77,0,0,1-15.52-25.1c-.81-1.58-3.54-1.69-4.32,0-4.27,9.34-10,18-13.4,27.69-1.07,3,3.76,4.35,4.82,1.33Z"/><path class="cls-1" d="M91.9,210.36c4-1.18,8.54-.67,12.67-.58,3.22.07,3.22-4.93,0-5-4.59-.1-9.53-.56-14,.76-3.08.91-1.77,5.73,1.33,4.82Z"/><path class="cls-1" d="M113.49,195.94c2.74,6.9,8.06,12.08,12.64,17.77,2,2.51,5.54-1.05,3.54-3.54-4-4.94-9-9.56-11.36-15.56-1.17-3-6-1.67-4.82,1.33Z"/><path class="cls-1" d="M137.08,190.68c-4.75,7.43-10.8,15-12.25,23.93-.51,3.15,4.31,4.5,4.82,1.33,1.38-8.49,7.23-15.67,11.75-22.74,1.74-2.72-2.59-5.23-4.32-2.52Z"/><path class="cls-1" d="M145.4,193.94c0,8.2-2.25,16.38,0,24.47a2.52,2.52,0,0,0,3.08,1.75,56.75,56.75,0,0,1,18.07-3.71c3.21-.09,3.22-5.09,0-5a60.75,60.75,0,0,0-19.39,3.89l3.08,1.75c-2.13-7.57.12-15.45.15-23.14,0-3.22-5-3.22-5,0Z"/><path class="cls-1" d="M146.57,207.11c5.55.32,11.45-.1,16.6-2.34,2.94-1.28.4-5.59-2.52-4.32-4.27,1.87-9.5,1.93-14.07,1.66-3.21-.19-3.2,4.81,0,5Z"/><path class="cls-1" d="M147.23,195.78c7.55-.11,15.13-1.64,22.67-.67,3.18.41,3.15-4.59,0-5-7.53-1-15.12.56-22.67.67-3.21,0-3.22,5,0,5Z"/><path class="cls-1" d="M201.9,194.44c8.15-.51,17.32-3.92,25.34-1.42,3.08,1,4.4-3.86,1.33-4.82-8.56-2.67-18,.7-26.66,1.24-3.2.2-3.22,5.2,0,5Z"/><path class="cls-1" d="M213.49,191.94c3,7.44-1.67,18.08,4,24.44,2.14,2.41,5.67-1.14,3.54-3.54s-1.23-8.27-1.26-11.28c0-3.67,0-7.5-1.43-11-1.18-2.95-6-1.66-4.82,1.33Z"/><path class="cls-1" d="M249.23,186.87c-17.27-2.4-19.6,25.73-3.47,28.92,6.84,1.35,15.29-.89,17.75-8.08,1.93-5.63-.05-12.42-4-16.74-5.37-5.9-12.88-5.17-18.06.54-2.16,2.38,1.37,5.92,3.54,3.54,3.8-4.19,8.36-4.33,11.74.42,2.53,3.56,3.93,9.63.54,13.12-4.69,4.82-14.51,3.06-16.84-3.23-2-5.34.25-14.66,7.46-13.66,3.15.44,4.51-4.38,1.33-4.82Z"/></g></g></svg>