<svg xmlns="http://www.w3.org/2000/svg" viewBox="0 0 224.52 222.51"><defs><style>.cls-1{fill:#ed3e95;}.cls-2{fill:#fff;}</style></defs><title>Asset 53</title><g id="Layer_2" data-name="Layer 2"><g id="Layer_1-2" data-name="Layer 1"><path class="cls-1" d="M104.94,3.74c-17-1.7-19.33.63-41-2-12.29-1.49-21.38-3.43-32,1a41.5,41.5,0,0,0-15,11c-12.16,13.5-13.34,31-15,64-3.07,61.18-2.32,66.75,1,75,8.14,20.21,21.91,32.14,30,39,7.27,6.16,45.6,38.62,97,29,43.33-8.11,66.84-40.69,73-50,26.81-40.52,30.66-102.43,0-135C179.87,11.23,141,7.34,104.94,3.74Z"/><path class="cls-2" d="M37.42,24.24c-8.07,3.19-10.6,14.16-11.55,21.86-1.11,9,1.88,19.34,10.46,23.72,8.85,4.52,19.85.4,25.24-7.46S68.07,42.25,63,33.89c-5.39-8.91-17.41-15.78-26-7-2.26,2.3,1.28,5.84,3.54,3.54,7.87-8,18.83,3.59,20.29,11.69C62.49,51.4,58.73,62.8,49,65.91c-10.48,3.35-18.16-5.29-18.44-15.27-.17-5.95,1.73-19,8.16-21.57,3-1.17,1.67-6-1.33-4.82Z"/><path class="cls-2" d="M73.58,22a234.39,234.39,0,0,1-3.29,47.88l4.91.66a62.91,62.91,0,0,1,2.17-9.66c.78-2.61,2.56-9.75,5.73-10.62,5-1.37,2.55,17.17,2.48,20.4s4.94,3.22,5,0C90.7,64.53,94.66,43.4,83,45.07,73.68,46.41,71.18,63.2,70.2,70.53c-.37,2.77,4.4,3.43,4.91.66A240.84,240.84,0,0,0,78.58,22c-.08-3.21-5.08-3.22-5,0Z"/><path class="cls-2" d="M97,65.32c.72,3.38-.3,6.79-1.33,10s3.83,4.38,4.82,1.33c1.34-4.13,2.25-8.34,1.33-12.66-.67-3.15-5.49-1.81-4.82,1.33Z"/><path class="cls-2" d="M109.53,44.65a22,22,0,0,0,3.67,13.26c1.74,2.69,6.07.19,4.32-2.52a17.49,17.49,0,0,1-3-10.74c.27-3.21-4.74-3.19-5,0Z"/><path class="cls-2" d="M118.29,42a248.87,248.87,0,0,0-8.67,26c-.84,3.11,4,4.44,4.82,1.33a248.87,248.87,0,0,1,8.67-26c1.17-3-3.66-4.3-4.82-1.33Z"/><path class="cls-2" d="M128.93,43.55c-3.3,2.77-4.56,8.49-3,12.48,2,5.31,8.57,4.47,11.92.9a9.07,9.07,0,0,0-.12-12.12c-3.63-3.94-8.5-2-11.16,1.91-1.81,2.67,2.52,5.17,4.32,2.52,1.09-1.6,2.22-2.34,3.44-.72A3.94,3.94,0,0,1,134,53.7c-1.5,1.39-3.37,1.91-3.67-.42a7.21,7.21,0,0,1,2.15-6.19c2.47-2.07-1.09-5.59-3.54-3.54Z"/><path class="cls-2" d="M143.2,43.39c-2,4.69-3.83,18.53,5.15,17.06,6.57-1.08,7.53-12.66,7.51-17.8,0-3.22-5-3.22-5,0,0,3.51-.27,9.66-2.8,12.37-1.26,1.35-1.61-1.22-1.67-2.56a15.56,15.56,0,0,1,1.12-6.55c1.27-2.92-3-5.47-4.32-2.52Z"/><path class="cls-2" d="M25.83,88.09c-.66,2.35-.42,4.73-.43,7.14a1.36,1.36,0,0,0,2.66.36c.59-2.51,1.28-4.79,3.28-6.53H29.43c1.47,1.47,1.08,4.08,1.12,6,0,1.23,2,2,2.53.68.93-2.17,1.14-5,2.91-6.66l-2.27-.6c.48,2.62.42,5.29.73,7.93.2,1.71,2.91,1.73,2.71,0-.33-2.88-.3-5.79-.83-8.65a1.37,1.37,0,0,0-2.27-.6c-2.08,2-2.27,4.7-3.34,7.21l2.53.68c-.06-2.75.19-5.8-1.92-7.91a1.39,1.39,0,0,0-1.92,0c-2.33,2-3.3,4.79-4,7.73l2.66.36c0-2.15-.26-4.32.33-6.42a1.36,1.36,0,0,0-2.61-.72Z"/><path class="cls-2" d="M39.79,95.59c2.4-.28,6.53-1.3,6.82-4.25s-4.13-5.45-6.47-3.28c-2,1.88-1.75,6.12-.75,8.43,1.37,3.14,4.39,2.43,6.86,1.09,1.53-.83.17-3.17-1.37-2.34-1,.52-2.38,1.51-3,.18A7,7,0,0,1,41.6,91c.18-.75.38-1.21,1.26-1,.63.17,1.23.68.91,1.29-.51,1-3,1.44-4,1.56-1.71.2-1.73,2.91,0,2.71Z"/><path class="cls-2" d="M49.19,93.42c2.08-.21,4.24-1,5-3.12a3.22,3.22,0,0,0-1-3.94c-1.68-1-3.32.47-4.19,1.83a7.28,7.28,0,0,0-.45,7.45,4.32,4.32,0,0,0,3,2.15,5.66,5.66,0,0,0,4.32-1.51c1.37-1.07-.56-3-1.92-1.92s-3,.91-3.47-1.06A5.38,5.38,0,0,1,52,88.83a.3.3,0,0,1,.19-.11c0,.12-.32-.06-.09,0,0,0-.34-.12-.27-.08-.11-.07,0,0,0,.13,0-.18,0,.29,0,.28a1.64,1.64,0,0,1-.6.94,3.8,3.8,0,0,1-2,.69c-1.72.17-1.74,2.88,0,2.71Z"/><path class="cls-2" d="M57.6,83.75A45.37,45.37,0,0,0,58.88,95.1c.36,1.34.9,3.18,2.36,3.7,1.63.58,2.81-.83,3.58-2.08.92-1.49-1.43-2.85-2.34-1.37-.18.3-.44.56-.62.85s.13-.11.33.07c0,0-.35-.78-.45-1a19.89,19.89,0,0,1-.88-4.16,56.3,56.3,0,0,1-.56-7.32,1.36,1.36,0,0,0-2.71,0Z"/><path class="cls-2" d="M57.14,91.93a28.37,28.37,0,0,1,4.7-.72,1.37,1.37,0,0,0,.95-1.67,1.39,1.39,0,0,0-1.67-.95,28.26,28.26,0,0,0-4.7.72c-1.66.53-.95,3.15.72,2.61Z"/><path class="cls-2" d="M74.86,82.76a5.13,5.13,0,0,0-4.65,2.59,3.5,3.5,0,0,0,1,4.38c1.41.94,4.06.74,4.65,2.77a1.05,1.05,0,0,1-2,.7c-.75-1.57-3.09-.2-2.34,1.37C73,97.72,78,96.88,78.6,93.47c.36-2.16-1.41-4-3.15-5-.71-.4-1.66-.41-2.32-.81-1.55-.93.56-2.15,1.74-2.16a1.36,1.36,0,0,0,0-2.71Z"/><path class="cls-2" d="M80.06,75.08c-1.39,3.83-.66,9.43-.12,13.35.35,2.51,1.8,8.12,5.28,5,1.3-1.17-.63-3.09-1.92-1.92-.14.13.37.44,0-.2a8.18,8.18,0,0,1-.55-2,33.77,33.77,0,0,1-.52-5.35c-.09-2.47-.47-5.73.4-8.1.6-1.64-2-2.35-2.61-.72Z"/><path class="cls-2" d="M78.11,86.91h4.7a1.36,1.36,0,0,0,0-2.71h-4.7a1.36,1.36,0,0,0,0,2.71Z"/><path class="cls-2" d="M86.79,85.06c3.66-1,3.57,2,3.59,4.84,0,2.52-.19,5.25,1,7.55.81,1.55,3.15.18,2.34-1.37-1.55-2.95-.25-6.94-.95-10.13-.76-3.47-3.5-4.4-6.73-3.5a1.36,1.36,0,0,0,.72,2.61Z"/><path class="cls-2" d="M91.13,86.78a3.54,3.54,0,0,0-4.87,2.8c-.38,1.89.12,4.56,2.29,5.09,1.5.37,2.9-.65,3.9-1.65a1.36,1.36,0,0,0-1.92-1.92,4.16,4.16,0,0,1-1.16.9c.17-.07-.19,0-.22.05.19,0,.2-.05,0,0s.29.06,0,0,.2.19,0,0-.24,0,0,0a.79.79,0,0,1-.17-.17c.16.38,0-.1-.11-.22.18.32,0-.14-.08-.28s0-.19-.06-.28c.07.37,0,0,0-.08s0-.4,0-.6,0,.07,0,0,0-.23.07-.34.24-.63.09-.32a3.43,3.43,0,0,1,.28-.48c-.31.43.4-.39,0,0a.62.62,0,0,1,.23-.13c-.47.09,0,0,0,0,.2.09-.22,0,0,0a2,2,0,0,1,.3,0c-.35,0,.06,0,.14.05l.42.15a1.36,1.36,0,0,0,1.67-.95,1.39,1.39,0,0,0-.95-1.67Z"/><path class="cls-2" d="M94.83,84.11c0,2.9-.32,5.78-.36,8.68a1.36,1.36,0,0,0,2.71,0c0-2.89.33-5.78.36-8.68a1.36,1.36,0,0,0-2.71,0Z"/><path class="cls-2" d="M97,88a6.27,6.27,0,0,1,1-1.3,3.83,3.83,0,0,0,.39-.27s0,.08-.11,0-.2,0-.05,0a.37.37,0,0,1-.23-.14s.23.28.11.08a2.9,2.9,0,0,1,.4.81,15.44,15.44,0,0,1,.63,4.8,1.36,1.36,0,0,0,2.71,0c0-2.2-.13-4.88-1.29-6.81a2.62,2.62,0,0,0-2.8-1.39c-1.42.32-2.38,1.68-3.14,2.82C93.69,88.14,96,89.5,97,88Z"/><path class="cls-2" d="M108.93,85.6c-3.67-5.31-7.63,2.3-6,6.1,1.15,2.61,3.63,1.33,5-.31,3.64-4.23,2.87-10.43,2.46-15.57a1.37,1.37,0,0,0-2.53-.68c-1.35,2.46-1.31,5.73-1.16,8.45s.41,6.06,2,8.43c1,1.45,3.3.1,2.34-1.37-2.08-3.18-2.66-10.77-.8-14.15l-2.53-.68a45.84,45.84,0,0,1,.22,8.51,10.08,10.08,0,0,1-1.54,4.7c-.29.42-.74.76-1,1.18-.48.73-.32-.27,0,.52a5.13,5.13,0,0,1,.06-2.61c.29-1.27.37-2.14,1-1.15,1,1.43,3.34.07,2.34-1.37Z"/><path class="cls-2" d="M114.4,84.47c-.63,2.79-1.4,6.26-.22,9,.69,1.6,3,.22,2.34-1.37a7.21,7.21,0,0,1-.11-3.21,28.3,28.3,0,0,1,.61-3.7c.38-1.7-2.23-2.43-2.61-.72Z"/><path class="cls-2" d="M115.08,78.69v.72a1.36,1.36,0,0,0,2.71,0v-.72a1.36,1.36,0,0,0-2.71,0Z"/><path class="cls-2" d="M119.42,84.83c0,2.63-.4,5.3-.08,7.92.17,1.38,2.33,2,2.66.36.58-2.85,1.43-5.86,4.09-7.44l-2-.81a18.71,18.71,0,0,1,1.1,7.19,1.36,1.36,0,0,0,2.71,0,20.82,20.82,0,0,0-1.2-7.91,1.38,1.38,0,0,0-2-.81c-3.29,2-4.6,5.47-5.34,9.06l2.66.36c-.32-2.62.06-5.29.08-7.92a1.36,1.36,0,0,0-2.71,0Z"/><path class="cls-2" d="M132.38,83.66c-2.1,1.59-4.61,7.46-.71,8.51,3.6,1,5.47-5,5.56-7.59.05-1.59-2.18-1.75-2.66-.36-1.38,4-.16,8.07-.64,12.16-.11.95-.42,3.18-1.4,3.78q-1.24,1.71-1.45-.9a6.74,6.74,0,0,1,1.19-1.4,40.88,40.88,0,0,1,3.92-3c1.38-1.07-.55-3-1.92-1.92-2.19,1.7-5.59,3.48-6.12,6.5-.38,2.19.91,4.52,3.31,4.33,2.92-.23,4.55-3.62,5-6.11.77-4.21-.72-8.58.71-12.69l-2.66-.36a7.58,7.58,0,0,1-1.3,4c-.81,1-1,1.25-.7-.19A4.56,4.56,0,0,1,133.75,86c1.37-1,0-3.39-1.37-2.34Z"/><path class="cls-2" d="M144,83c-1.17,3-1.85,7.8,1.07,10.06a1.4,1.4,0,0,0,1.64.21c3-2.07,5.26-6.72,3.74-10.24-.69-1.6-3-.22-2.34,1.37.87,2-1.15,5.41-2.77,6.53l1.64.21c-2.12-1.64-1.2-5.3-.37-7.43.63-1.63-2-2.33-2.61-.72Z"/><path class="cls-2" d="M152.31,83c-.09,8.25-2.28,16.31-1.81,24.58.1,1.73,2.81,1.75,2.71,0-.47-8.27,1.72-16.33,1.81-24.58a1.36,1.36,0,0,0-2.71,0Z"/><path class="cls-2" d="M154.84,85.88a6.18,6.18,0,0,1,.55-.87c.25-.31.22-.13.38-.31-.1.11-.24,0-.24,0s.13.08.1,0a5.09,5.09,0,0,1,1.16,2.72,5,5,0,0,1-.25,2.8.76.76,0,0,1-.41.37,3.33,3.33,0,0,1-1.77-.5c-1.54-.81-2.91,1.52-1.37,2.34s3.21,1.3,4.72.39a4.54,4.54,0,0,0,1.86-3.67c.19-2.29-.6-6.28-3.18-7.07-1.78-.54-3.12.92-3.88,2.34s1.52,2.91,2.34,1.37Z"/><path class="cls-2" d="M162.43,76.84c.74-1.51,2.79-1.77,3,.3.18,1.8-1.44,3.86-2.45,5.21s1.3,2.75,2.34,1.37c1.87-2.48,4.06-6.17,1.93-9.13-2-2.72-5.77-1.93-7.16.89-.77,1.56,1.57,2.94,2.34,1.37Z"/><path class="cls-2" d="M164.15,92.7a1.36,1.36,0,0,0,0-2.71,1.36,1.36,0,0,0,0,2.71Z"/><path class="cls-2" d="M29.87,111.25c2.82,4.06,5.58,8.73,10.23,10.9,2.9,1.35,5.44-3,2.52-4.32-3.88-1.81-6.09-5.72-8.44-9.1-1.82-2.62-6.16-.13-4.32,2.52Z"/><path class="cls-2" d="M52.77,104.49c-4.85,3.7-11.08,7.71-13.68,13.44-2.73,6,.26,13.76.44,20.05.09,3.21,5.1,3.22,5,0-.16-5.45-2.72-12.05-1.13-17.34,1.48-4.89,8-8.9,11.89-11.83,2.52-1.93,0-6.27-2.52-4.32Z"/><path class="cls-2" d="M58.93,117.55c-5.94,4.89-4.12,18.85,5.37,17,4.23-.83,8.25-4.45,8.57-8.89a10.67,10.67,0,0,0-5-9.34c-3.53-2.27-8.14-1.69-10,2.41-1.29,2.92,3,5.46,4.32,2.52.89-2,2.39-1.43,3.92.06s2.5,4.11.92,6.07-4.9,3.61-6.19.77a6.12,6.12,0,0,1,1.63-7.06c2.49-2-1.07-5.57-3.54-3.54Z"/><path class="cls-2" d="M77.2,117.39c-1.78,3.73-3.54,8-3.33,12.25.17,3.5,2.59,7.26,6.52,6.88,6.65-.64,9.16-11.9,9.47-17.21.19-3.21-4.81-3.2-5,0a24.35,24.35,0,0,1-1.3,6c-.5,1.53-1.49,5.24-3.14,6-1.86.84-1.61-2.59-1.44-3.74a27.1,27.1,0,0,1,2.54-7.6c1.38-2.89-2.93-5.43-4.32-2.52Z"/><path class="cls-2" d="M102.2,120c0,5.32-1.28,10.53-1.36,15.84,0,2.79,4.24,3.43,4.91.66a56.34,56.34,0,0,1,1.74-5.63c.86-2.41,2.35-4.59,3.21-6.94a2.77,2.77,0,0,1,.7-.84c-1.21,1.13-.33-.79-.38.63,0,1,.52,2.29.59,3.37a65.37,65.37,0,0,1-.1,6.6c-.11,2.79,4.31,3.44,4.91.66a25.81,25.81,0,0,1,6.9-12.57l-3.93-.51c2.7,4.17.16,10.75.15,15.38,0,3.22,5,3.22,5,0,0-5.87,2.64-12.55-.83-17.91a2.53,2.53,0,0,0-3.93-.51A30.68,30.68,0,0,0,111.59,133l4.91.66c.15-4.07,1.14-17.24-6.48-15.42-3,.72-4.65,4.69-5.74,7.19a59.87,59.87,0,0,0-3.36,9.72l4.91.66c.08-5.32,1.35-10.52,1.36-15.84,0-3.22-5-3.22-5,0Z"/><path class="cls-2" d="M129.2,118.72c-2.46,5.71-2.89,12.63.06,18.24a2.53,2.53,0,0,0,3.42.9c6.59-4,8.26-12.82,9.17-19.88.41-3.18-4.59-3.15-5,0-.67,5.14-1.87,12.63-6.7,15.56l3.42.9c-2-3.88-1.78-9.22-.06-13.19,1.26-2.92-3-5.47-4.32-2.52Z"/><path class="cls-2" d="M149.44,110.49c-4.43,2-6.9,5.45-4.25,10.06,1.33,2.32,3.55,4.16,4.39,6.75,1,3.22,0,5.6-3.55,4.28-3-1.14-4.32,3.69-1.33,4.82,5,1.9,9.83-.59,10.22-6.19a12.67,12.67,0,0,0-2.07-7.51c-.86-1.37-2-2.56-2.87-3.92-1.47-2.27-.32-2.93,2-4,2.93-1.31.39-5.62-2.52-4.32Z"/><path class="cls-2" d="M164.29,96a142.72,142.72,0,0,0-2.2,18c-.39,5.14-1.61,10.41-1.67,15.55-.08,7.39,7.91,12.53,12.44,5,1.66-2.76-2.66-5.28-4.32-2.52-3.08,5.12-2.92-5-2.75-6.19.32-2.21.69-4.38.88-6.6.66-7.35.94-14.7,2.43-21.95.65-3.14-4.17-4.48-4.82-1.33Z"/><path class="cls-2" d="M155.36,122.49c3.9-.07,8.17-1.13,12-.09,3.11.85,4.44-4,1.33-4.82-4.36-1.19-8.9-.16-13.33-.09-3.21.05-3.22,5.05,0,5Z"/><path class="cls-2" d="M32.86,150c-.56,8.49-1.9,16.93-2,25.44h5c-.06-2.5-.57-8.59,1.37-10.43,1-1,1.72-.36,2.28,1.09s-.09,2.49-1,3.78a14.2,14.2,0,0,1-5.79,4.38c-2.94,1.2-1.65,6,1.33,4.82,6.74-2.74,17.22-14.27,6.06-19.21-8.64-3.83-9.34,10.5-9.23,15.57.07,3.21,5,3.23,5,0,.1-8.51,1.44-17,2-25.44.21-3.21-4.79-3.2-5,0Z"/><path class="cls-2" d="M50.69,168.4c4.33-.61,11.6-4.77,8.81-10.15-2.41-4.65-9.15-1.2-11.21,2-4.34,6.65,1.13,22.26,10.33,15.25,2.53-1.92,0-6.27-2.52-4.32-1.68,1.28-2.63,1.44-3.54-.61a10.3,10.3,0,0,1-.56-6.41,3.62,3.62,0,0,1,1.38-2.1,5.39,5.39,0,0,1,1.45-.83,2.5,2.5,0,0,0,.58-.18c.52-.37.23.44.12-.16a.44.44,0,0,1-.41-.36q-.16-.45-.12,0c.23-.11-.16.48-.12.44a5.72,5.72,0,0,1-1.56,1.2,11,11,0,0,1-3.95,1.4c-3.17.45-1.82,5.27,1.33,4.82Z"/><path class="cls-2" d="M78.1,152.49c-2.9,1.82-7.15,4.6-5,8.57.72,1.36,2.06,2.27,3,3.46,2,2.53,1.68,7.77-2.71,6.39-3.08-1-4.39,3.86-1.33,4.82a8.09,8.09,0,0,0,10.42-8.66,11.2,11.2,0,0,0-3.08-6.37c-.42-.47-1.71-1.34-1.88-2,.12.47-.31.76.25.14a13.62,13.62,0,0,1,2.88-2c2.72-1.7.21-6-2.52-4.32Z"/><path class="cls-2" d="M85.2,158.06c-1.77,3.09-2.5,7.3.07,10.2s6.34,2.12,8.81-.23,4.16-6.36,3.11-9.88a8.44,8.44,0,0,0-5.75-5.75c-3.53-.9-6.54,1.46-7.17,4.93A2.57,2.57,0,0,0,86,160.4a2.52,2.52,0,0,0,3.08-1.75,4,4,0,0,1,.39-1.28c.18-.27.08-.12.09-.13-.38.24.6-.21.15-.06s.18,0,.29,0c-.69-.15.95.37.45.13a3.46,3.46,0,0,1,2,3.79,6.58,6.58,0,0,1-1.55,3,5.72,5.72,0,0,1-1.08.92s-.78.17-.38.12c-.44.05.12.12-.31,0,.33.12,0,0-.16-.1a.32.32,0,0,1-.1-.12,1.82,1.82,0,0,1-.33-.89,6,6,0,0,1,.92-3.39c1.6-2.8-2.72-5.32-4.32-2.52Z"/><path class="cls-2" d="M119.6,143.55c-4.19,5.24-5.31,11.73-7.19,18-1.11,3.7-2.61,7.27-4,10.87-1.19,3.08-4,7.92-3.54,11.27.29,2.29,3.3,3.62,4.66,1.26a8.87,8.87,0,0,1,.66-1.05c1.8-2.68-2.53-5.18-4.32-2.52a8.87,8.87,0,0,0-.66,1.05l4.66,1.26c-.34-2.7,2.38-7.42,3.36-9.95,1.23-3.19,2.56-6.35,3.61-9.6,1.82-5.64,2.48-12.31,6.29-17.07,2-2.49-1.53-6-3.54-3.54Z"/><path class="cls-2" d="M119.53,149.32c.25,4.56,1.17,9.08,1.79,13.59.41,3,2.55,11.39.28,14-2.12,2.41,1.41,6,3.54,3.54,3-3.45,2.13-9.26,1.69-13.44-.62-5.89-2-11.74-2.29-17.66-.17-3.2-5.18-3.22-5,0Z"/><path class="cls-2" d="M112,171.15c4.55-.05,8.87-1.39,13.33-2.09,3.17-.5,1.82-5.32-1.33-4.82-4,.63-7.91,1.87-12,1.91-3.22,0-3.22,5,0,5Z"/><path class="cls-2" d="M134,153.57c-4.84,1.73-10,7.14-5.48,12.16,4.86,5.34,9.27-1.55,9.93-6.14.45-3.11-4.2-4.54-4.82-1.33-2,10.35.05,21.16-2,31.55-.26,1.31-.69,4.79-2.06,5.52-3.13,1.67-1.2-5.52-.54-6.83,3.75-7.45,11.73-12.87,18.25-17.7,2.56-1.89.07-6.23-2.52-4.32-7.75,5.73-18.28,12.66-21.31,22.37-1.67,5.34,1.1,15.65,8.56,10.91,5.16-3.28,5.19-12.55,5.53-17.84.47-7.31-.45-15.13.94-22.34l-4.82-1.33c-.1.67-.76,5.11-1.51,4-1.32-2,1.95-3.4,3.21-3.85,3-1.08,1.71-5.91-1.33-4.82Z"/><path class="cls-2" d="M147,156c1.18,4.59,2.6,9.22,2.58,14,0,3.22,5,3.22,5,0,0-5.23-1.47-10.31-2.76-15.33-.8-3.12-5.62-1.79-4.82,1.33Z"/><path class="cls-2" d="M150.53,148v-.41c0-3.22-5-3.22-5,0V148c0,3.22,5,3.22,5,0v-.41c0-3.22-5-3.22-5,0V148c0,3.22,5,3.22,5,0Z"/><path class="cls-2" d="M156.2,144c.33,9.57,1.69,19.06,2.15,28.63a2.53,2.53,0,0,0,3.76,2.16l.47-.26a2.47,2.47,0,0,0,1.24-2.16l0-.37c.42-3.15-4.39-4.51-4.82-1.33a8.31,8.31,0,0,0-.14,1.7l1.24-2.16-.47.26,3.76,2.16c-.46-9.56-1.82-19.06-2.15-28.63-.11-3.21-5.11-3.22-5,0Z"/><path class="cls-2" d="M170.69,165.73c4.06-1.06,9.87-4.84,6.79-9.78-2.78-4.47-8.69-2.09-10.9,1.56-2.1,3.45-1.85,8.8-.47,12.46,1.89,5,6.4,5.8,10.36,2.45,2.46-2.08-1.09-5.6-3.54-3.54a3.25,3.25,0,0,1-1.13.74c-.18,0-.38,0-.13.05-.54-.22-.88-1.41-1.06-2a11.82,11.82,0,0,1-.1-6.79,3.81,3.81,0,0,1,1.64-2.14c.66-.36.94-.25,1.1-.18-.13-.06.25,0-.11.41a7.13,7.13,0,0,1-3.77,1.91c-3.11.81-1.79,5.64,1.33,4.82Z"/><path class="cls-2" d="M183.36,175.15c3.22,0,3.22-5,0-5s-3.22,5,0,5Z"/></g></g></svg>