<svg xmlns="http://www.w3.org/2000/svg" viewBox="0 0 245.67 174.88"><defs><style>.cls-1{fill:#ed3b94;}</style></defs><title>Asset 20</title><g id="Layer_2" data-name="Layer 2"><g id="Layer_1-2" data-name="Layer 1"><path class="cls-1" d="M33,7.55l-18,53.06c-.81,2.38,3,3.41,3.76,1l18-53.06c.81-2.38-3-3.41-3.76-1Z"/><path class="cls-1" d="M31.67,8,58.61,58.14c1.19,2.21,4.56.24,3.37-2L35,6c-1.19-2.21-4.56-.24-3.37,2Z"/><path class="cls-1" d="M23.29,42.53l28.1-.83c2.51-.07,2.52-4,0-3.9l-28.1.83c-2.51.07-2.52,4,0,3.9Z"/><path class="cls-1" d="M59.34,25.32l1,20h3.9A18.54,18.54,0,0,1,72.34,27.2c2.09-1.38.13-4.76-2-3.37A22.35,22.35,0,0,0,60.31,45.36c.31,2.41,4,2.58,3.9,0l-1-20c-.12-2.5-4-2.52-3.9,0Z"/><path class="cls-1" d="M73.07,41.07c5.11.53,13.92-.71,12.7-8.06-1.09-6.56-9.06-5-12.26-1.21-4,4.74-6.23,12.22-2.13,17.6A8.17,8.17,0,0,0,84.89,49c1.35-2.12-2-4.08-3.37-2-1.93,3-6,2-7.53-.77s-.84-6.31.59-9.08a14.33,14.33,0,0,1,2.07-3.1c1.49-1.61,2.8-2.64,4-.29q2.16,2.27-1.44,3.24l-2.1.34a23.72,23.72,0,0,1-4.06-.24c-2.5-.26-2.48,3.65,0,3.9Z"/><path class="cls-1" d="M104.28,21.33l6.65,24.09c.67,2.42,4.43,1.39,3.76-1L108,20.29c-.67-2.42-4.43-1.39-3.76,1Z"/><path class="cls-1" d="M115.57,23c-.58,8.3-1.14,16.63-2.77,24.81-.72,3.63-1.46,7.65-3.66,10.71-1.36,1.89-3,3.47-5.44,3.76-2.84.33-7.4-2.38-4.55-5.88,1.57-1.93-1.17-4.71-2.76-2.76A7.63,7.63,0,0,0,96.88,64c3.41,3.38,8.79,2.62,12.38,0,5-3.7,6.39-10.34,7.49-16.11A210.89,210.89,0,0,0,119.48,23c.17-2.51-3.73-2.5-3.9,0Z"/><path class="cls-1" d="M127.77,26.26c-4.85.28-8.48,5.42-6.45,10.05s8.19,6,12.16,3.09a9.34,9.34,0,0,0,1.79-13.12c-3.37-4.16-9.93-3.49-11.8,1.69-.86,2.37,2.92,3.39,3.76,1,1.15-3.18,5-1.16,5.78,1.07a5.52,5.52,0,0,1-2.06,6.34,4.32,4.32,0,0,1-5.63-1,3.37,3.37,0,0,1,2.45-5.28c2.5-.14,2.51-4,0-3.9Z"/><path class="cls-1" d="M139.9,17.52c.42,6.64.32,13.57,1.31,20.14.45,3,1.79,6.37,5.34,6.46,3.34.09,5.17-3.18,5.9-6,1.6-6.27,1.55-13.3,2.22-19.73.26-2.5-3.65-2.48-3.9,0L149.55,30c-.18,1.72-.3,3.46-.56,5.17-.29,1.94-.07,4.51-2.47,3.7s-1.84-7.48-2-10l-.72-11.38c-.16-2.49-4.06-2.51-3.9,0Z"/><path class="cls-1" d="M181.9,9.22A5.41,5.41,0,0,0,178.46,0c-6.71-.64-8.74,7.14-9.28,12.24-.56,5.29-.08,11.42,5.52,13.67,3.15,1.27,6.55,1.63,7.3,5.76.53,2.93-1.15,6.25-2.31,8.85a19.88,19.88,0,0,1-3.09,5.36c-2.14,2.35-7.68,4.39-8.41-.49l-2.87,2.2,3.77,2c2.22,1.17,4.19-2.2,2-3.37l-3.77-2a2,2,0,0,0-2.87,2.2c.69,4.59,5.76,6.88,10,5.67,5.58-1.59,8.22-8.21,10.09-13.07,1.94-5,2.48-12-3-15.07-4.09-2.31-8.11-1.36-8.64-7.28a24.52,24.52,0,0,1,.4-6,20.77,20.77,0,0,1,.6-2.83q1-5.18,5.25-1.45c-1.76,1.79,1,4.55,2.76,2.76Z"/><path class="cls-1" d="M191.79,10a46.56,46.56,0,0,0,1,30.28,2,2,0,0,0,3.57.47,44.62,44.62,0,0,0,5.9-29.87c-.36-2.48-4.12-1.42-3.76,1A40.27,40.27,0,0,1,193,38.79l3.57.47a42.91,42.91,0,0,1-1-28.21c.73-2.41-3-3.44-3.76-1Z"/><path class="cls-1" d="M206.41,11.26l-.77,28.11c-.07,2.51,3.83,2.51,3.9,0l.77-28.11c.07-2.51-3.83-2.51-3.9,0Z"/><path class="cls-1" d="M209.33,24.51a13.43,13.43,0,0,1,7.82-10.74c2.27-1.07.29-4.44-2-3.37a17.34,17.34,0,0,0-9.75,14.11c-.26,2.5,3.65,2.48,3.9,0Z"/><path class="cls-1" d="M218.76,28.93c5.45-.87,13.1-3.9,10.88-11-2.12-6.75-9.77-3.47-11.9,1.39-2.52,5.74-4.48,14.93.94,19.72,4.51,4,11.33,1.61,12.06-4.35.31-2.49-3.6-2.46-3.9,0-.24,2-3.2,2.46-4.77,2-1.88-.52-2.62-3.57-2.82-5.19-.33-2.7.44-5.51,1.21-8.08.24-.8.57-3,1.21-3.4l4.38-.12-.51,2c-1.44,2.43-5.31,2.81-7.83,3.21s-1.42,4.16,1,3.76Z"/><path class="cls-1" d="M76.57,63.25a183.07,183.07,0,0,0-4.78,21.84c-.81,5.27-2.3,11.68.23,16.7,3.77,7.5,14.61,5.79,16.89-1.92.71-2.41-3.05-3.45-3.76-1a5.24,5.24,0,0,1-10,.41c-1.46-3.49-.26-8.71.25-12.2a181.75,181.75,0,0,1,4.92-22.76c.68-2.42-3.08-3.46-3.76-1Z"/><path class="cls-1" d="M66.48,89.13,83.68,88c2.49-.16,2.51-4.07,0-3.9l-17.2,1.12c-2.49.16-2.51,4.07,0,3.9Z"/><path class="cls-1" d="M90.67,66l.55,27.53h3.9A9.57,9.57,0,0,1,101,84l-2.87-1.17,5.18,12.43c1,2.29,4.73,1.28,3.76-1l-5.18-12.43A2,2,0,0,0,99,80.66a13.23,13.23,0,0,0-7.79,12.91c.1,2.5,4,2.52,3.9,0L94.57,66c0-2.51-4-2.52-3.9,0Z"/><path class="cls-1" d="M108.91,74.65a6.48,6.48,0,0,1,6.72,0c3.49,2.1,3,6.36,1.86,9.71-1.27,3.84-3.34,7.69-2.74,11.86.74,5.21,6.42,9.3,11.26,6.11,2.09-1.38.14-4.76-2-3.37-1.46,1-4.22,0-4.92-1.52-.8-1.74-.34-4.47.05-6.29.55-2.55,2-4.89,2.6-7.43.8-3.17.93-6.63-1-9.46a10.45,10.45,0,0,0-13.87-2.95c-2.16,1.27-.2,4.65,2,3.37Z"/><path class="cls-1" d="M117.45,81.59c-4.83-3-12.14,1.61-10.78,7.39,1.23,5.23,8.91,7.07,12.34,2.92,1.59-1.92-1.16-4.7-2.76-2.76-1.42,1.72-4.93,1.5-5.72-.82-.9-2.63,2.92-4.62,5-3.36s4.1-2,2-3.37Z"/><path class="cls-1" d="M134.37,53.86,131,72.68c-.83,4.6-2.67,10.25-1,14.86,2.09,5.91,10.65,7.78,12.61.85.69-2.42-3.08-3.45-3.76-1l-4.68-.06L133.25,84a19.64,19.64,0,0,1,.5-4.62c.47-2.83,1-5.65,1.52-8.47l2.87-16c.44-2.46-3.32-3.51-3.76-1Z"/><path class="cls-1" d="M127.41,81.91l7-.77a2,2,0,0,0,2-2,2,2,0,0,0-2-2l-7,.77a2,2,0,0,0-2,2,2,2,0,0,0,2,2Z"/><path class="cls-1" d="M146.62,61.63,144.28,71c-.61,2.44,3.15,3.48,3.76,1l2.34-9.37c.61-2.44-3.15-3.48-3.76-1Z"/><path class="cls-1" d="M166.22,74.46c4.72-8.23-8.66-14.27-12.32-5-1.77,4.48.6,8.46,3.83,11.48,2.68,2.5,6.34,4.64,6.5,8.78.24,6.17-6.44,8.87-11.29,5.84-2.14-1.33-4.1,2-2,3.37,6.73,4.2,15.85.87,17-7.36a11.28,11.28,0,0,0-2.85-9.11c-1.52-1.77-3.49-3.06-5.12-4.72a8.81,8.81,0,0,1-2.64-3.6l-.11-2.51q1.35-5.38,5.56.88c-1.25,2.18,2.12,4.15,3.37,2Z"/><path class="cls-1" d="M27.49,120.14c2-6.06-5.14-9.55-10-6.84C10.76,117,6.89,127.61,7.57,134.91c.61,6.54,5.12,13.14,11.84,14.47,6.44,1.27,13.12-3,14.24-9.49.42-2.46-3.34-3.51-3.76-1-1.8,10.42-14.49,7.23-17.53-.61-1.59-4.11-1-8.4.59-12.42a26.35,26.35,0,0,1,2.63-5,16.46,16.46,0,0,1,2-2.62q2.73-3.66,6.14.91c-.79,2.39,3,3.41,3.76,1Z"/><path class="cls-1" d="M41.54,112.08l-3,32.8c-.23,2.5,3.68,2.49,3.9,0l3-32.8c.23-2.5-3.68-2.49-3.9,0Z"/><path class="cls-1" d="M42,114.77,50.46,134c.64,1.44,2.64,1.09,3.37,0l12.32-18.34-3.64-1,3.36,29.48c.28,2.47,4.19,2.5,3.9,0l-3.36-29.48a2,2,0,0,0-3.64-1L50.46,132h3.37l-8.5-19.23c-1-2.29-4.38-.31-3.37,2Z"/><path class="cls-1" d="M72.95,117.4l10,10.32c1.75,1.81,4.51-1,2.76-2.76l-10-10.32c-1.75-1.81-4.51,1-2.76,2.76Z"/><path class="cls-1" d="M96,111.21l-11.78,14c-1.61,1.91,1.14,4.69,2.76,2.76l11.78-14c1.61-1.91-1.14-4.69-2.76-2.76Z"/><path class="cls-1" d="M82.29,127l1.43,19.53c.18,2.49,4.09,2.51,3.9,0L86.19,127c-.18-2.49-4.09-2.51-3.9,0Z"/><path class="cls-1" d="M99.71,119.92v23.56a2,2,0,0,0,3.64,1l.66-1c1.39-2.1-2-4.06-3.37-2l-.66,1,3.64,1V119.92c0-2.51-3.9-2.52-3.9,0Z"/><path class="cls-1" d="M103.19,133.95l20.19-19.63c1.8-1.75-1-4.51-2.76-2.76l-20.19,19.63c-1.8,1.75,1,4.51,2.76,2.76Z"/><path class="cls-1" d="M107.54,126.54,119,143.12c1.42,2.05,4.8.1,3.37-2l-11.44-16.58c-1.42-2.05-4.8-.1-3.37,2Z"/><path class="cls-1" d="M140.44,108.49,130.3,143.63c-.7,2.42,3.07,3.45,3.76,1l10.15-35.13c.7-2.42-3.07-3.45-3.76-1Z"/><path class="cls-1" d="M153.37,112.1l-2.3,25.77c-.22,2.5,3.68,2.49,3.9,0l2.3-25.77c.22-2.5-3.68-2.49-3.9,0Z"/><path class="cls-1" d="M154,116.91c3.19-3.12,9.28-2.34,9.75,2.84.43,4.71-4,7.12-8.13,5.57-2.22-.83-3.17,2.37-1.5,3.57l14.26,10.25c2,1.47,4-1.92,2-3.37l-14.26-10.25-1.5,3.57c7,2.61,14.69-3.08,12.94-10.73s-10.94-9.42-16.27-4.2c-1.8,1.76,1,4.52,2.76,2.76Z"/><path class="cls-1" d="M196.68,107A13.68,13.68,0,0,0,178,104c-6.37,4.32-8.68,13.07-6.64,20.25s8.24,13.35,16,13a14.05,14.05,0,0,0,13.45-12.47c.12-1.12-1-1.86-2-2l-13.62-1.29v3.9l15.54-1.52c2.48-.24,2.5-4.15,0-3.9l-15.54,1.52a2,2,0,0,0,0,3.9l13.62,1.29-2-2c-.51,5-5.29,8.55-10.16,8.57-5.74,0-10.12-4.94-11.59-10.1-1.37-4.83-.37-10.64,3.18-14.35,4-4.19,11.24-4.73,15,.18,1.5,2,4.89,0,3.37-2Z"/><path class="cls-1" d="M206.89,105.09l.3,30.45c0,2.51,3.93,2.52,3.9,0l-.3-30.45c0-2.51-3.93-2.52-3.9,0Z"/><path class="cls-1" d="M211.21,111.62q4.09-3.05,5.36,2.35a4.4,4.4,0,0,1-1.9,3.85c-1.75,1.83-4,2.35-6.43,2.58l.52,3.83c3.32-1.18,14.35-4.3,13,3.45-.9,5.1-8.44,4.76-12.27,4.62-2.51-.09-2.51,3.81,0,3.9,6.51.24,17.61-1.48,16.19-10.68-1.35-8.75-12.16-7.12-18-5.05-1.93.69-1.82,4.05.52,3.83,6.4-.6,14.25-5.08,11.86-12.77a6.88,6.88,0,0,0-12.26-1.88c-1.45,2.06,1.94,4,3.37,2Z"/><path class="cls-1" d="M3,158.78l5.45-.64c1.57-.18,1.59-2.67,0-2.48L3,156.3c-1.57.18-1.59,2.67,0,2.48Z"/><path class="cls-1" d="M.59,158.24,0,172.55a1.25,1.25,0,0,0,1.24,1.24l6.24-.29c1.59-.07,1.6-2.56,0-2.48l-6.24.29,1.24,1.24.59-14.31c.07-1.6-2.42-1.6-2.48,0Z"/><path class="cls-1" d="M12.14,163.72l.46,7c.11,1.59,2.59,1.6,2.48,0l-.46-7c-.11-1.59-2.59-1.6-2.48,0Z"/><path class="cls-1" d="M13,160h.5a1.24,1.24,0,0,0,0-2.48H13A1.24,1.24,0,0,0,13,160Z"/><path class="cls-1" d="M17.1,161.73l.49,9.94c.08,1.59,2.56,1.6,2.48,0l-.49-9.94c-.08-1.59-2.56-1.6-2.48,0Z"/><path class="cls-1" d="M19.81,165c.36-2.2,2.87-1.42,3.69,0,1,1.78.54,4,.16,5.92-.31,1.56,2.08,2.23,2.4.66.66-3.3,1.14-7.63-2.18-9.75-2.36-1.51-6-.45-6.46,2.51-.26,1.56,2.14,2.24,2.4.66Z"/><path class="cls-1" d="M40.88,158.79c-3.1-2-7.23,1.05-5.59,4.6.94,2,2.66,2,4.6,2.35,1.11.19,2.08,1.12,1.61,2.33a1.68,1.68,0,0,1-2.88.14c-.9-1.31-3.05-.07-2.14,1.25,2,2.91,7.08,2.52,7.56-1.39a4.35,4.35,0,0,0-2-4.26,6.65,6.65,0,0,0-2.73-.61c-3-.32-1.62-3.54.33-2.28,1.35.87,2.59-1.28,1.25-2.14Z"/><path class="cls-1" d="M47,165.79a8.87,8.87,0,0,0,6.48-7,1.26,1.26,0,0,0-1.2-1.57,7.52,7.52,0,0,0-7.4,6.58,7.44,7.44,0,0,0,6.43,7.82c1.56.21,2.24-2.18.66-2.4a5.08,5.08,0,0,1-4.64-4.77,5,5,0,0,1,5-4.75l-1.2-1.57a6.46,6.46,0,0,1-4.75,5.27,1.24,1.24,0,0,0,.66,2.4Z"/><path class="cls-1" d="M55.43,157.75l0,11.82a1.24,1.24,0,0,0,2.48,0,14.5,14.5,0,0,1,5.31-10.79c1.22-1-.54-2.78-1.76-1.76a17,17,0,0,0-6,12.55h2.48l0-11.82a1.24,1.24,0,0,0-2.48,0Z"/><path class="cls-1" d="M68.39,152.44c-.77,4-1.56,8-2.32,12-.45,2.39-1.23,5.09-.13,7.42,1.6,3.39,6.23,3.53,7.22-.28a1.24,1.24,0,0,0-2.4-.66q-3.63-.57-2.75-3.15a24.22,24.22,0,0,1,.45-2.67c.22-1.25.48-2.5.72-3.75l1.59-8.26c.3-1.56-2.09-2.23-2.4-.66Z"/><path class="cls-1" d="M63.63,165.91l7.45-.53c1.59-.11,1.6-2.6,0-2.48l-7.45.53c-1.59.11-1.6,2.6,0,2.48Z"/><path class="cls-1" d="M88.54,158.86a6.1,6.1,0,0,0-7.75,7.23C82,170.76,87.73,172,91,168.75c1.14-1.12-.61-2.88-1.76-1.76a3.56,3.56,0,1,1-1.4-5.73,1.24,1.24,0,0,0,.66-2.4Z"/><path class="cls-1" d="M94.58,158.84a4.43,4.43,0,0,0-1.85,5.66,4.25,4.25,0,0,0,5.93,2,4.79,4.79,0,0,0,2.35-6.26,5.05,5.05,0,0,0-7.19-2.28c-1.4.77-.15,2.92,1.25,2.14,3.05-1.69,5.54,2.95,2.34,4.24A1.85,1.85,0,0,1,95.83,161c1.43-.72.17-2.86-1.25-2.14Z"/><path class="cls-1" d="M104.6,151.79l-2.54,19.86c-.2,1.58,2.28,1.57,2.48,0l2.54-19.86c.2-1.58-2.28-1.57-2.48,0Z"/><path class="cls-1" d="M109.52,159.46a4.73,4.73,0,0,0-2.32,6.22,4.65,4.65,0,0,0,6.35,2.14,5.35,5.35,0,0,0,2.48-6.15,6.26,6.26,0,0,0-6.24-4c-1.59.06-1.6,2.54,0,2.48,2.54-.09,5.47,2.53,3.25,5s-5.6-1.89-2.26-3.49c1.44-.69.18-2.83-1.25-2.14Z"/><path class="cls-1" d="M118.79,157.18a13.28,13.28,0,0,0-.29,12.32,1.25,1.25,0,0,0,2,.25,18.68,18.68,0,0,0,5.05-12.5,1.24,1.24,0,0,0-2.48,0A16,16,0,0,1,118.7,168l2,.25a10.63,10.63,0,0,1,.29-9.81c.76-1.41-1.38-2.66-2.14-1.25Z"/><path class="cls-1" d="M126.65,158.24l-.24,10.68a1.24,1.24,0,0,0,2.48,0,13.93,13.93,0,0,1,4.64-9.95c1.18-1.08-.58-2.83-1.76-1.76a16.48,16.48,0,0,0-5.37,11.71h2.48l.24-10.68a1.24,1.24,0,0,0-2.48,0Z"/><path class="cls-1" d="M139.88,157.25l-.28,9.41A1.25,1.25,0,0,0,142,167c.21-.8,1.89-7.42,3.17-6.77.76.39,0,2.78,0,3.42a5.13,5.13,0,0,0,.32,2.71,1.24,1.24,0,0,0,2.4-.66c-.25-1.63-.19-5.19,1.49-6.18l1.78.08a3.16,3.16,0,0,1,.48,3,14.94,14.94,0,0,1-.82,2.29c-.6,1.48,1.8,2.12,2.4.66.79-1.95,1.6-4.22.66-6.27a4.15,4.15,0,0,0-3.92-2.59c-4.24.32-4.92,6.55-4.44,9.7l2.4-.66c-.89-2.18,1.57-7.9-2.75-8.23-3.61-.28-4.85,6.42-5.49,8.87l2.44.33.28-9.41c0-1.6-2.44-1.6-2.48,0Z"/><path class="cls-1" d="M157.69,157.07c-1.54,2.29-3,5.42-.85,7.84,1.86,2,4.7,1.37,5.85-1,1-2.12,1.51-5.66.09-7.69a3.37,3.37,0,0,0-5.57-.09c-.85,1.36,1.3,2.61,2.14,1.25.3-.49,1.07-.13,1.35.18a2.73,2.73,0,0,1,.42,1.66,8.87,8.87,0,0,1-.54,3.31c-.18.44-.5,1.14-1.07,1.17-.8.05-1.27-1.05-1.31-1.69-.08-1.34.93-2.64,1.64-3.69.89-1.33-1.26-2.57-2.14-1.25Z"/><path class="cls-1" d="M169.48,153.85c-5,1.44-6.33,6.64-3.23,10.61a1.25,1.25,0,0,0,2-.25A34.83,34.83,0,0,0,173.14,147c0-1.37-2.19-1.73-2.44-.33a76.33,76.33,0,0,0-1,18.56c.11,1.59,2.59,1.6,2.48,0a73.62,73.62,0,0,1,.92-17.9l-2.44-.33a32.14,32.14,0,0,1-4.6,16l2-.25c-2.31-3-.53-5.69,2.14-6.46a1.24,1.24,0,0,0-.66-2.4Z"/><path class="cls-1" d="M174.8,161.64c2.91-.43,7.07-2.16,5.88-6-1-3.27-5.34-2.44-6.72,0-1.51,2.71-1,7.52,1.41,9.59,2.06,1.79,5.9,1.16,6.47-1.77.3-1.56-2.09-2.23-2.4-.66s-2.31.9-3-.06a7,7,0,0,1-.77-4.2,3.29,3.29,0,0,1,.84-2.23c1.12-1,2.24.05,1.53,1.29s-2.69,1.37-3.93,1.56c-1.58.23-.91,2.63.66,2.4Z"/><path class="cls-1" d="M193.74,146.81l-.86,19.49a1.26,1.26,0,0,0,2.12.88l.64-.59c1.18-1.08-.58-2.84-1.76-1.76l-.64.59,2.12.88.86-19.49c.07-1.6-2.41-1.59-2.48,0Z"/><path class="cls-1" d="M194.72,159.39c.46-2.41,3.22-1.39,4.05.15,1.05,1.94.42,4.34,0,6.34-.36,1.56,2,2.22,2.4.66.8-3.44,1.42-8-2-10.29-2.44-1.65-6.2-.6-6.79,2.48-.3,1.56,2.09,2.23,2.4.66Z"/><path class="cls-1" d="M204,163.76c2.58-1.05,5.74-2.89,4.73-6.19a3,3,0,0,0-5.6-.66c-1.39,2.39-1.48,7,.32,9.17,1.62,2,5.12,2.24,6.41-.21.74-1.41-1.4-2.67-2.14-1.25-.6,1.14-2.12.36-2.6-.5-.69-1.25-.48-3.12-.27-4.47.07-.44.15-1.38.53-1.67.83-.63,1.1.35,1,1-.15,1.34-2,2-3.07,2.45-1.46.6-.82,3,.66,2.4Z"/><path class="cls-1" d="M211.33,155.27l.34,11.31a1.24,1.24,0,0,0,2.48,0,16,16,0,0,1,5.3-10.48c1.18-1.08-.58-2.83-1.76-1.76a18.58,18.58,0,0,0-6,12.24h2.48l-.34-11.31c0-1.59-2.53-1.6-2.48,0Z"/><path class="cls-1" d="M220.82,163.4c1.56-2.77,7.33-2.91,6.16-7.33-.91-3.44-4.54-2.16-6,0-1.85,2.74-3.6,6.69-1.48,9.76a4.1,4.1,0,0,0,7-.12c.77-1.4-1.37-2.66-2.14-1.25-1.33,2.41-3.4-.63-3.3-2.27a9.11,9.11,0,0,1,2.38-5.19c1.47-1.21,1.36.57.22,1.42a13.64,13.64,0,0,1-1.95,1,6.68,6.68,0,0,0-3,2.66,1.24,1.24,0,0,0,2.14,1.25Z"/><path class="cls-1" d="M224.58,149.09l7.72.15L231.05,148a195.47,195.47,0,0,1-.88,24.56l1.24-1.24-8.83,1.06c-1.57.19-1.59,2.67,0,2.48l8.83-1.06a1.29,1.29,0,0,0,1.24-1.24,195.47,195.47,0,0,0,.88-24.56,1.27,1.27,0,0,0-1.24-1.24l-7.72-.15a1.24,1.24,0,0,0,0,2.48Z"/><path class="cls-1" d="M239.65,141l3.32.2a4,4,0,0,1-.36,3,9.49,9.49,0,0,1-1.24,2.19,39,39,0,0,0-3.08,4.39,7.3,7.3,0,0,0-.19,6.88c.68,1.45,2.82.19,2.14-1.25-2.89-6.14,8.83-10.74,4.42-17.38-2.25-3.39-7.41-2.23-7.5,2a1.24,1.24,0,0,0,2.48,0Z"/><path class="cls-1" d="M238.24,163.71v.5a1.24,1.24,0,0,0,2.48,0v-.5a1.24,1.24,0,0,0-2.48,0Z"/></g></g></svg>