<svg xmlns="http://www.w3.org/2000/svg" viewBox="0 0 255 175.65"><defs><style>.cls-1{fill:#444d9f;}.cls-2{fill:#fcfdff;}</style></defs><title>Asset 17</title><g id="Layer_2" data-name="Layer 2"><g id="Layer_1-2" data-name="Layer 1"><path class="cls-1" d="M210.9,7.82c-27.59-21.32-53.17,8-127.59,5.32-27.79-1-47.31-5.93-61.67,7.44-6.53,6.08-9,14.68-13.82,31.9C4.57,64-1.59,89.45.38,125.84c1.17,21.53,1.89,32.44,8.51,39.34,9.64,10.06,23.12,8.13,53.16,7.44,15.19-.35,62.33-1.42,106.32,2.13,9.23.74,30.35,2.66,56.35-3.19,18-4.05,23.48-8.49,26.58-12.76,5.71-7.87,4.38-16.57-1.06-44.66-11.11-57.35-14.16-65.31-18.07-73.36C223.6,23.15,219.32,14.33,210.9,7.82Z"/><path class="cls-2" d="M31.47,29.37,28.34,92.92c-.17,3.47,5,3.34,5.32,0l.41-4.08c.35-3.4-5-3.38-5.32,0l-.41,4.08h5.32l3.12-63.55c.17-3.42-5.15-3.41-5.32,0Z"/><path class="cls-2" d="M29.75,31.39,52.41,88.53a2.67,2.67,0,0,0,5.22-.71L64.52,26.2c.38-3.39-4.94-3.37-5.32,0L52.31,87.82l5.22-.71L34.88,30c-1.25-3.14-6.39-1.77-5.13,1.41Z"/><path class="cls-2" d="M71.62,61.1c-6.52,4.71-8.76,13.81-3.19,20.28a13.21,13.21,0,0,0,19.46.84C93.35,77,94.6,68.47,89.8,62.41a17.94,17.94,0,0,0-20.45-5.22c-3.13,1.26-1.76,6.41,1.41,5.13,8-3.22,20.33,2.73,15.88,12.62-1.89,4.2-6.57,7.36-11.12,5.24A8.32,8.32,0,0,1,74.3,65.69c2.75-2,.1-6.6-2.68-4.59Z"/><path class="cls-2" d="M93,82.53v1.06a2.66,2.66,0,1,0,5.32,0V82.53a2.66,2.66,0,1,0-5.32,0Z"/><path class="cls-2" d="M113.17,26.17l-.9,25.35c-.25,7.18-1.7,15.52.16,22.56,1.17,4.41,4.18,8,8.92,8.43,4.07.36,7.93-1.58,8.9-5.74.78-3.33-4.35-4.75-5.13-1.41-.51,2.19-3.21,2.37-4.9,1.44-2.44-1.33-2.94-4.65-3.12-7.11-.33-4.39.15-8.91.31-13.3l1.07-30.23c.12-3.42-5.2-3.42-5.32,0Z"/><path class="cls-2" d="M107.38,60.9l16-.94c3.4-.2,3.42-5.52,0-5.32l-16,.94c-3.4.2-3.42,5.52,0,5.32Z"/><path class="cls-2" d="M133.87,24l-1,55,5.22-.71a20.69,20.69,0,0,1,7.13-19.42l-4.44-1.17L144.58,81c.55,3.37,5.68,1.94,5.13-1.41l-3.83-23.29c-.35-2.13-3.09-2.35-4.44-1.17a26.07,26.07,0,0,0-8.5,24.59c.53,3,5.17,2.2,5.22-.71l1-55c.06-3.42-5.25-3.42-5.32,0Z"/><path class="cls-2" d="M167.84,57.06c-4.13-4-11.17-4.39-15.11.2a10.38,10.38,0,0,0,2.29,15c12.78,8,24.45-10.86,17-21.36-1.46-2-5-1.47-5,1.34a149.33,149.33,0,0,0,3.23,30.37c.7,3.35,5.83,1.93,5.13-1.41a142.07,142.07,0,0,1-3-29l-5,1.34c3.15,4.42,2.1,11.27-2.87,14-3.55,2-8.84.45-8.74-4.16s5.55-5.26,8.29-2.63c2.47,2.37,6.23-1.38,3.76-3.76Z"/><path class="cls-2" d="M189.74,23,187.29,50.6c-.67,7.53-2.6,16-1.39,23.55.77,4.76,3.46,9,8.5,9.76,4.15.64,8-1.23,9.23-5.36,1-3.29-4.17-4.7-5.13-1.41-.6,2.05-3.54,1.86-5,1C191.3,76.67,191,73.2,191,70.84c-.12-5.07.75-10.28,1.2-15.32L195.06,23c.3-3.41-5-3.39-5.32,0Z"/><path class="cls-2" d="M183.56,64.89l13.82-2.13c3.37-.52,1.94-5.64-1.41-5.13l-13.82,2.13c-3.37.52-1.94,5.64,1.41,5.13Z"/><path class="cls-2" d="M28.16,116.21l5.09,27.33c.5,2.66,4.47,2.4,5.13,0l5.57-20.3H38.82l7.63,22.13c.81,2.36,4.46,2.69,5.13,0l8-32.21c.82-3.32-4.3-4.74-5.13-1.41l-8,32.21h5.13l-7.63-22.13c-.83-2.4-4.4-2.65-5.13,0l-5.57,20.3h5.13L33.29,114.8c-.63-3.36-5.75-1.94-5.13,1.41Z"/><path class="cls-2" d="M68.62,117.71c-3.87,3.88-8,8.4-7.71,14.26.2,4.4,3,8.77,7.63,9.39,4.78.65,9.17-3.11,10.66-7.45,2.08-6-1.18-12.16-4.24-17.22-1.77-2.93-6.36-.26-4.59,2.68,1.55,2.56,3.22,5.23,3.87,8.19.7,3.2-.51,9-5,8.34-3.38-.53-3.44-4.68-2.47-7.22,1.1-2.87,3.44-5.08,5.57-7.21,2.42-2.42-1.34-6.19-3.76-3.76Z"/><path class="cls-2" d="M83.48,115.49l1.11,23.92c.16,3.41,5.21,3.43,5.32,0a44.75,44.75,0,0,1,8.27-24.72l-5-1.34,1.5,30.86c.17,3.41,5.48,3.43,5.32,0l-1.5-30.86a2.68,2.68,0,0,0-5-1.34,50,50,0,0,0-9,27.4h5.32l-1.11-23.92c-.16-3.41-5.48-3.43-5.32,0Z"/><path class="cls-2" d="M106.83,105.92l-1.06,10.63c-.34,3.4,5,3.38,5.32,0l1.06-10.63c.34-3.4-5-3.38-5.32,0Z"/><path class="cls-2" d="M120.63,93.17l-2.2,23.72c-.61,6.54-2.63,14.42-1.4,20.93.72,3.85,3.45,7,7.63,6.44a5.46,5.46,0,0,0,4.94-6.61c-.56-3.37-5.68-1.94-5.13,1.41-.21-1.24-2.22-3-2.3-4.9a42.4,42.4,0,0,1,.48-5.42l1.1-11.86,2.2-23.72c.32-3.4-5-3.38-5.32,0Z"/><path class="cls-2" d="M112.24,129.43,124,126.29c3.3-.88,1.9-6-1.41-5.13l-11.71,3.14c-3.3.88-1.9,6,1.41,5.13Z"/><path class="cls-2" d="M144.14,114.07l4.26,24.84c.37,2.18,3.93,2.66,4.86.63l8.24-18-4.86-.63,3.7,20.45c.49,2.72,4.41,2.33,5.13,0l10.79-35c1-3.28-4.12-4.68-5.13-1.41l-10.79,35h5.13l-3.7-20.45c-.39-2.17-3.93-2.67-4.86-.63l-8.24,18,4.86.63-4.26-24.84c-.58-3.37-5.7-1.94-5.13,1.41Z"/><path class="cls-2" d="M176.77,124.11c-3.66,5.18-1.43,12.76,3.77,16,5.57,3.51,12.28.5,15-5.1s.79-12.49-5.22-14.89c-5.59-2.23-12.67,0-15.38,5.5-1.5,3.06,3.08,5.76,4.59,2.68,3.18-6.48,14.58-3.75,11.41,4-1.24,3-4.61,5.26-7.68,3.21a6.32,6.32,0,0,1-1.86-8.76c2-2.8-2.63-5.46-4.59-2.68Z"/><path class="cls-2" d="M200.4,117.61l0,23.07c0,3.42,5.25,3.42,5.32,0a38.4,38.4,0,0,1,7.47-22.21c2-2.78-2.61-5.44-4.59-2.68a43.38,43.38,0,0,0-8.2,24.89h5.32l0-23.07c0-3.42-5.32-3.43-5.32,0Z"/><path class="cls-2" d="M220.65,98.38,216,145.22c-.34,3.4,5,3.38,5.32,0L226,98.38c.34-3.4-5-3.38-5.32,0Z"/><path class="cls-2" d="M233.07,114.67,216.4,128.19a2.67,2.67,0,0,0,0,3.76l14.72,12.87c2.57,2.24,6.34-1.5,3.76-3.76l-14.72-12.87v3.76l16.68-13.52c2.66-2.15-1.12-5.9-3.76-3.76Z"/><path class="cls-2" d="M241.86,139.94V141a2.66,2.66,0,0,0,5.32,0v-1.06a2.66,2.66,0,0,0-5.32,0Z"/></g></g></svg>