<svg xmlns="http://www.w3.org/2000/svg" viewBox="0 0 262.87 364.2"><defs><style>.cls-1{fill:#fff;}</style></defs><title>Asset 13</title><g id="Layer_2" data-name="Layer 2"><g id="Layer_1-2" data-name="Layer 1"><path d="M34,15.29C52.9,1,75.37.67,115.37,0c25.88-.42,45.36,3.22,64.43,6.78,26.41,4.93,39.8,7.55,49.17,15.26,6.18,5.08,17,16.5,23.74,66.12,6.36,46.84-1.39,50.66,3.39,101.73,2.77,29.67,6.74,42.84,6.78,76.3,0,36.53-4.66,46.57-8.48,52.56-11.75,18.41-31.7,24.38-59.34,32.21-20.55,5.83-29.51,5.61-93.25,10.17-54.39,3.89-64.65,5.25-74.6-3.39-3.76-3.26-11-11-15.26-57.65-3.82-41.68-.08-57.7-1.7-93.25C8.11,159.81.47,164.06.08,128.89-.27,97.5-.89,41.58,34,15.29Z"/><path class="cls-1" d="M71.6,44.76c-2.33,7.44-2.73,15.84-3.31,23.56C68,72,65.8,82.5,69.58,85.14c2.24,1.57,4.36-2.11,2.14-3.66,1.28.89.36.4.42-.93s-.06-2.78,0-4.17c.08-3.62.34-7.24.65-10.84.56-6.49,1-13.4,2.93-19.65.82-2.61-3.27-3.72-4.09-1.13Z"/><path class="cls-1" d="M60.65,48.44c6.52.36,13-1.65,19.43-.08,2.65.65,3.78-3.44,1.13-4.09-6.89-1.69-13.61.31-20.56-.08-2.73-.15-2.72,4.09,0,4.24Z"/><path class="cls-1" d="M60.65,88.43c7-.11,14-1.15,21-1,2.73.06,2.73-4.18,0-4.24-7-.15-14,.89-21,1-2.72,0-2.73,4.28,0,4.24Z"/><path class="cls-1" d="M96.52,60.32c-.1,7.62,4.36,15.07,6.85,22.08.63,1.77,3.71,2.25,4.09,0a119.23,119.23,0,0,1,3.44-15.22l-3.87.51c3,5.32,3.87,11.52,7.58,16.46a2.15,2.15,0,0,0,3.87-.51c3.15-8.65,4.39-17.77,6.2-26.76.53-2.66-3.55-3.8-4.09-1.13-1.81,9-3,18.11-6.2,26.76l3.87-.51c-3.68-4.91-4.61-11.15-7.58-16.46a2.14,2.14,0,0,0-3.87.51,119.24,119.24,0,0,0-3.44,15.22h4.09c-2.34-6.58-6.79-13.82-6.7-21,0-2.73-4.2-2.73-4.24,0Z"/><path class="cls-1" d="M131.63,49.44c10.49-.4,9.44,8.94,8.14,16.61a54.39,54.39,0,0,0-.28,14.37c.36,3.68.62,9.7,3.86,12.2,4,3.09,7.42-2.21,9.1-5.24,1.32-2.39-2.34-4.53-3.66-2.14-.58,1.06-1.38,3.14-2.51,3.7-.91.45,0,.63-.76-.33-1.19-1.48-1.33-4.49-1.58-6.29a53.26,53.26,0,0,1-.3-14c.7-5.27,2.2-10.74.46-16-1.85-5.58-7-7.32-12.48-7.11-2.72.1-2.73,4.34,0,4.24Z"/><path class="cls-1" d="M140.12,68.82c-2-2.11-4.88-4.23-7.94-3.22-2.52.83-3.92,3.43-4.53,5.85-1.06,4.2-.75,12.17,4.72,13.22,4,.78,7.52-3,9.75-5.86a2.19,2.19,0,0,0,0-3,2.13,2.13,0,0,0-3,0c-.6.76-1.22,1.5-1.89,2.19-.28.3-.58.58-.88.86l-.42.37c-.06.05-.61.48-.3.25a9.18,9.18,0,0,1-1.43.87c.19-.09.05,0-.32.1l-.32.08c-.4.12.46,0,.07,0H133c.76,0,.07.05-.08-.07.41.33,0-.15-.07-.06l-.18-.12c.53.5.1.08,0,0s-.44-.51-.21-.21-.12-.18-.17-.28-.2-.37-.3-.55c-.22-.41.17.47,0,0,0-.13-.1-.25-.14-.38a13.21,13.21,0,0,1-.35-1.37c0-.16-.13-1-.06-.32,0-.28-.06-.55-.07-.83q0-.73,0-1.46c0-.26,0-.51.05-.77s0-.31,0-.46c0,.34,0,.23,0,0,.1-.49.19-1,.33-1.45.07-.23.15-.45.22-.68.18-.52-.14.22.1-.25a9.36,9.36,0,0,1,.65-1.11c-.38.55,0,0,.13-.12l.21-.2c.33-.35-.35.22,0,0,.11-.07.68-.34.32-.2s.24-.05.38-.08c-.75.12,0,0,.24,0-.67,0,.05,0,.31.1.49.13-.16-.15.3.12.29.17.58.33.85.52.48.33-.2-.17.09.06s.36.3.54.46c.34.3.65.63,1,1,1.87,2,4.86-1,3-3Z"/><path class="cls-1" d="M151.5,55.32V77c0,2.75,4.07,2.7,4.24,0,.37-5.93,2.57-15.6,9.75-16.44l-2-1.56c.65,4.23,1,8.51,1.63,12.75.32,2.3.26,6.25,2,8s4.92-1.06,3-3c-.77-.77-1.08-7.19-1.3-9-.41-3.32-.77-6.66-1.28-10a2.11,2.11,0,0,0-2-1.56c-9.92,1.16-13.45,12-14,20.68h4.24V55.32c0-2.73-4.24-2.73-4.24,0Z"/><path class="cls-1" d="M184.57,31.76q-2.69,14-4.56,28.1c-1,7.85-2.94,16.37-.53,24.15,1.33,4.3,4.18,9.15,9.08,9.75,6,.74,10.12-5,12.89-9.39,1.45-2.32-2.22-4.45-3.66-2.14-2.58,4.13-7.64,10.71-12.14,4.92-3.06-3.94-3.33-9.67-2.93-14.42a376,376,0,0,1,6-39.85c.51-2.67-3.57-3.81-4.09-1.13Z"/><path class="cls-1" d="M157.62,49.44c16.88-1.61,33.95,5.22,50.55-.08,2.59-.83,1.48-4.92-1.13-4.09-16.16,5.16-33-1.65-49.42-.08-2.69.26-2.72,4.5,0,4.24Z"/><path class="cls-1" d="M108.59,94.74c-1.13,7-2.36,14.2-1.94,21.32.44,7.51,4.58,12.66,11.48,6.73,2.07-1.78-.94-4.77-3-3s-3.13,2.29-3.86-.62-.49-6.4-.31-9.46a139.25,139.25,0,0,1,1.72-13.85c.43-2.67-3.65-3.82-4.09-1.13Z"/><path class="cls-1" d="M99.2,110.35c4.87-1.62,10-1.26,14.87,0,2.64.68,3.77-3.41,1.13-4.09-5.6-1.44-11.57-1.84-17.12,0-2.58.86-1.47,5,1.13,4.09Z"/><path class="cls-1" d="M131.06,103.26a8.72,8.72,0,0,0-5.45,11.84c2.16,5.31,8.46,6.87,13.24,4,4.34-2.64,4.28-8.17,1.64-12-3-4.3-8.23-6.14-12.94-3.57-2.4,1.31-.26,5,2.14,3.66s5.17-.39,6.9,1.74c1.4,1.71,2.45,4.63.45,6.3-5.8,4.86-11.61-5.63-4.87-7.82,2.58-.84,1.48-4.94-1.13-4.09Z"/><path class="cls-1" d="M50.77,159.29c-.41-11.74,3.25-23,4.2-34.68L51,125.67c3.79,7.87,6.32,16.35,11.63,23.41a2.15,2.15,0,0,0,3.87-.51c3.18-8.21,4.39-17.55,9.9-24.67h-3c4.57,4.86,6,14.44,7.53,20.65,1,3.8,1.85,7.63,2.62,11.48.28,1.38.53,2.75.77,4.14.09.5.08,2.09.26,1.55-.86,2.6,3.24,3.71,4.09,1.13.57-1.73-.34-4.35-.66-6-.84-4.5-1.87-9-3-13.39-1.79-7.06-3.42-17-8.62-22.52a2.13,2.13,0,0,0-3,0c-6,7.82-7.49,17.53-11,26.55l3.87-.51c-5.3-7.06-7.83-15.54-11.63-23.41-1-2.06-3.79-.83-3.95,1.07-.95,11.65-4.61,22.92-4.2,34.68.1,2.72,4.33,2.73,4.24,0Z"/><path class="cls-1" d="M103.8,134.23c-4.09,8.07-5.13,17.09-8.21,25.5-.94,2.57,3.16,3.67,4.09,1.13,2.95-8.05,3.87-16.77,7.78-24.49,1.23-2.43-2.42-4.58-3.66-2.14Z"/><path class="cls-1" d="M104.8,132.37c4.17,9.74,8.81,19.26,13,29,1.08,2.5,4.73.34,3.66-2.14-4.19-9.73-8.83-19.25-13-29-1.07-2.5-4.72-.34-3.66,2.14Z"/><path class="cls-1" d="M99.64,152.41c7.22.07,14.51.93,21.56-1.08,2.62-.75,1.51-4.84-1.13-4.09-6.66,1.9-13.61,1-20.43.92-2.73,0-2.73,4.21,0,4.24Z"/><path class="cls-1" d="M131.51,129.3a90,90,0,0,0,1,17.74c.52,4,.77,9.66,3.67,12.75,1.87,2,4.86-1,3-3-2.54-2.71-2.49-9.92-2.84-13.31a83.54,83.54,0,0,1-.54-14.18c.19-2.72-4-2.71-4.24,0Z"/><path class="cls-1" d="M136.12,143.79c6.22-5.57,12.2-11.42,18.38-17,3.63-3.3,7.29-6.58,11.1-9.67a55.45,55.45,0,0,1,4.54-3.43c.72-.47,2.54-1.15,1.9-1.3,2.65.63,3.78-3.45,1.13-4.09-2.47-.59-5,1.57-6.85,2.92-4,3-7.77,6.27-11.49,9.58-7.35,6.55-14.37,13.46-21.71,20-2,1.82,1,4.81,3,3Z"/><path class="cls-1" d="M143.79,132.37c7,9.82,14.63,19.16,22.32,28.42,1.75,2.1,4.73-.91,3-3-7.47-9-14.89-18-21.66-27.56-1.57-2.2-5.25-.09-3.66,2.14Z"/><path class="cls-1" d="M177.49,122.3c-.53,8-1.29,19.39,3.6,26.35s13.49,3.85,19.58.47c2.39-1.32.25-5-2.14-3.66-2.88,1.6-6.45,3.58-9.9,3.16-3.86-.47-5.23-4.07-6-7.42-1.42-6.11-1.32-12.68-.9-18.91.18-2.72-4.06-2.71-4.24,0Z"/><path class="cls-1" d="M180.68,135.13c7.43-3.46,15.83-4,23.49-6.78,2.55-.92,1.45-5-1.13-4.09-8,2.9-16.7,3.58-24.5,7.21-2.47,1.15-.32,4.81,2.14,3.66Z"/><path class="cls-1" d="M179.18,121.34c4.32-1.72,8.72-3.26,13.12-4.76,2.32-.79,4.65-1.57,7-2.26.86-.25,1.83-.4,2.67-.74,1-.41,1.63.19.57-.45,2.34,1.41,4.48-2.25,2.14-3.66-2.63-1.58-8.36,1.31-10.84,2.13-5.3,1.74-10.59,3.59-15.78,5.65-2.51,1-1.41,5.1,1.13,4.09Z"/><path class="cls-1" d="M135.8,177.35c6.11,10.24,11.26,21.05,18.27,30.74.82,1.13,3,1.61,3.66,0,5.12-11.67,8.58-24,11.94-36.24.72-2.63-3.37-3.76-4.09-1.13-3.25,11.9-6.54,23.91-11.51,35.23h3.66c-7-9.69-12.16-20.5-18.27-30.74-1.4-2.34-5.06-.21-3.66,2.14Z"/><path class="cls-1" d="M178.49,168.29c-.24,12.34,4.18,25.18,2.08,37.43-.46,2.67,3.63,3.81,4.09,1.13,2.18-12.72-2.17-25.76-1.92-38.55.05-2.73-4.19-2.73-4.24,0Z"/><path class="cls-1" d="M179.68,172.11c4.81-3.63,10.23-6.41,16.38-6.62,3.59-.12,7.18.7,10.76.94,6.4.44,12.75-.74,14.83-7.59.79-2.62-3.3-3.73-4.09-1.13-2.19,7.21-12.8,4.15-18.31,3.67-8-.69-15.37,2.27-21.7,7.06-2.15,1.62,0,5.31,2.14,3.66Z"/><path class="cls-1" d="M179.68,193.11c11.11-5.88,23.87-4.55,35.48-8.78,2.54-.93,1.44-5-1.13-4.09-12,4.37-25,3.12-36.5,9.21-2.41,1.28-.27,4.94,2.14,3.66Z"/><path class="cls-1" d="M178.68,211.1a63.28,63.28,0,0,1,21.4-9c5.25-1.09,10.59-1,15.9-1.59,8.5-.92,17.09-3.59,19.66-12.66.74-2.63-3.34-3.75-4.09-1.13-2.76,9.77-14.94,9.56-23.18,10.11a66.29,66.29,0,0,0-31.83,10.62c-2.29,1.47-.16,5.14,2.14,3.66Z"/><path class="cls-1" d="M73.3,221c-1.72,7-3.25,15.08-2.26,22.33.35,2.61,1.19,5.69,3.9,6.74,3.49,1.36,7-1.63,9.39-3.78,2-1.82-1-4.81-3-3-1.49,1.33-4,4.05-5.52,2-1.29-1.76-.81-5.68-.73-7.68a79.66,79.66,0,0,1,2.3-15.44c.65-2.65-3.44-3.78-4.09-1.13Z"/><path class="cls-1" d="M65.92,236.91a22.09,22.09,0,0,1,14.85-1.29c2.61.81,3.73-3.28,1.13-4.09-5.64-1.76-12.84-.8-18.12,1.71-2.46,1.17-.31,4.83,2.14,3.66Z"/><path class="cls-1" d="M94.51,227.26A9.58,9.58,0,0,0,92,240.59c3,4.5,9.51,4.7,13.22.91,7.17-7.31-3.72-21.59-11.85-13.17-1.89,2,1.1,5,3,3,4.1-4.25,8.9,3.16,6.14,6.86-1.68,2.26-5.36,2.42-7,.07s-1.27-5.8,1.15-7.35.17-5.13-2.14-3.66Z"/><path class="cls-1" d="M123,225.66c1.84,3.66,3.89,19.13,10.64,16.71,2.55-.91,1.45-5-1.13-4.09q-.3.15.13.18a2.42,2.42,0,0,1-.52-.62,6.12,6.12,0,0,1-.79-1.48,39,39,0,0,1-1.57-4.36,59.57,59.57,0,0,0-3.1-8.49c-1.23-2.44-4.88-.29-3.66,2.14Z"/><path class="cls-1" d="M138,221.27c-5.06,7-3.55,15.81-6.41,23.59-4,10.78-14.65,6.78-23.34,6.67l1.83,1-.31-.53-1.83,3.19a3,3,0,0,0,1.17-.05c2.67-.34,2.7-4.59,0-4.24a3,3,0,0,1-1.17.05,2.14,2.14,0,0,0-1.83,3.19c1.68,2.86,8.2,2.07,11.17,2.35,4.55.42,9.22.27,13-2.62,9.64-7.38,4.87-21.47,11.39-30.5,1.6-2.22-2.08-4.33-3.66-2.14Z"/><path class="cls-1" d="M148,224.59c-2.75,3.09-4,8.67-2.17,12.5a6.34,6.34,0,0,0,9.91,2c6.16-5.23,5.22-18.08-4-18.85-2.72-.23-2.7,4,0,4.24,4.91.41,4.2,7.77,2,10.61-1.33,1.69-3.58,2-4.28-.44a8.53,8.53,0,0,1,1.56-7c1.81-2-1.18-5-3-3Z"/><path class="cls-1" d="M163.23,221.78c-.94,5.18-3.14,17.84,4.27,19.47,8.65,1.9,9.75-12.68,9.63-18.15-.06-2.72-4.3-2.73-4.24,0,0,2.2-.65,15.59-4.68,14-1.93-.78-1.67-5.21-1.65-6.84a44.24,44.24,0,0,1,.74-7.3c.49-2.67-3.6-3.81-4.09-1.13Z"/><path class="cls-1" d="M182.72,219.53c-1.06,3.51-.58,7.66-.27,11.24.28,3.13.35,7.09,2,9.88,1.37,2.36,5,.22,3.66-2.14s-1.28-6.09-1.48-8.64c-.22-2.91-.67-6.37.19-9.21.79-2.62-3.3-3.74-4.09-1.13Z"/><path class="cls-1" d="M188.84,228.66c2.63-5.63,8.27-8.34,13.83-10.38l-1.63-.21-.37-.74.55-2.06a5.41,5.41,0,0,0-1.26,2c-.91,2.58,3.18,3.69,4.09,1.13.36-1,1.46-2.42-.31-3.72-1.95-1.42-4.72.43-6.59,1.26-5,2.23-9.6,5.49-12,10.56-1.15,2.46,2.51,4.61,3.66,2.14Z"/><path class="cls-1" d="M58.44,258c-6.33-13.57-20.74,1.38-21.84,10.63-.74,6.17,2.86,12.55,8.2,15.56,6.16,3.48,13.13,2.31,18.56-1.89,2.15-1.67-.87-4.65-3-3-7.86,6.09-21,.39-19.56-10.36.75-5.45,9.77-17.84,14-8.8,1.15,2.47,4.81.32,3.66-2.14Z"/><path class="cls-1" d="M75.53,261.52c-12.3,2-9.79,21.79,1.79,23,5.43.55,11.73-2.39,13-8,1.08-4.73-1.29-9.94-4.5-13.33-3.44-3.63-9.13-5.54-12.75-1.05-1.7,2.1,1.28,5.12,3,3,4.6-5.7,13.48,7.86,8.87,12.82-3.52,3.79-10.14,3.1-12.41-1.53-2.05-4.19-1-9.9,4.1-10.75,2.68-.44,1.55-4.53-1.13-4.09Z"/><path class="cls-1" d="M95.71,259.81c.13,8,1.23,15.91,1.61,23.89a2.19,2.19,0,0,0,2.12,2.12c7.23.9,14.45-.65,21.62-1.4,2.69-.28,2.71-4.52,0-4.24-7.17.75-14.39,2.31-21.62,1.4l2.12,2.12c-.38-8-1.49-15.9-1.61-23.89,0-2.72-4.28-2.73-4.24,0Z"/><path class="cls-1" d="M136,259.94c-5.1-.19-10.72,2-12.2,7.36-1.32,4.78,1.68,9.24,6.25,10.65,4.84,1.5,12.23.41,15.05-4.28,2.26-3.76.89-8.62-2.13-11.53-4.14-4-9.86-3.28-13.72.67-1.91,2,1.08,5,3,3,6.3-6.43,14,4.82,6.46,7.72-3.32,1.28-10.12,1.49-10.95-3.18s4.69-6.3,8.23-6.17c2.73.1,2.72-4.14,0-4.24Z"/><path class="cls-1" d="M150.42,254.57c-.07,7.2-3.11,29.65,10.15,27.19,5.74-1.06,8.1-7.66,9.18-12.69,1-4.8,2.18-11.8-.39-16.32-1.35-2.37-5-.24-3.66,2.14,2.67,4.7.46,22.45-6.38,22.76-7.47.33-4.71-18.57-4.66-23.08,0-2.73-4.21-2.73-4.24,0Z"/><path class="cls-1" d="M183.13,280c.14-4.55-.65-9-1.23-13.46-.45-3.48-1.39-9.33.12-12.72.36-.81-.73.69-.14.15a7.93,7.93,0,0,1,1.78-.67,35.6,35.6,0,0,1,5-1.66c4.17-1,8.76-1.63,13-.77,1,.21,4,.71,3.87,2.25s-4.34,3.27-5.72,3.72c-2.82.93-6,1-8.9,1.31s-10.78-.41-13,2.37c-1.66,2.12,1.32,5.14,3,3,.93-1.19,8.55-1,10.52-1.18,3.62-.34,7.61-.52,11-2,2.8-1.19,7.43-3.94,7.51-7.57.06-3.15-3-4.82-5.64-5.63-4.48-1.39-9.24-1-13.79-.21-3.27.53-8.66,1.35-11.34,3.62-2.06,1.74-1.88,5.65-2,8.09-.47,7.16,1.89,14.15,1.67,21.31-.08,2.73,4.15,2.73,4.24,0Z"/><path class="cls-1" d="M195.68,263.89c4.41,1.91,5.49,6.76,8.21,10.32a17.09,17.09,0,0,0,8.84,5.85c6.92,2.06,14,0,16.8-6.95,1-2.53-3.08-3.63-4.09-1.13-2.78,6.88-12.65,5.18-17.07,1-4.18-4-4.76-10.2-10.54-12.71-2.48-1.07-4.64,2.58-2.14,3.66Z"/><path class="cls-1" d="M56.15,295.94c-.61,10.76-3.41,21.3-6.81,31.48-.64,1.92,2.22,3.74,3.54,2.06l.85-.85c2.28-1.48.16-5.15-2.14-3.66a5.54,5.54,0,0,0-1.71,1.51l3.54,2.06c3.53-10.55,6.33-21.47,7-32.61.15-2.73-4.08-2.72-4.24,0Z"/><path class="cls-1" d="M62.34,301.5a5.39,5.39,0,0,1,1.58-.19,3.48,3.48,0,0,1,.62.1c.42.2.55.37.69,1a6.8,6.8,0,0,1-.07,1.91,9.48,9.48,0,0,1-1,2.63,7,7,0,0,1-3.66,3.44c-1.88.56-3.64-1-5-2.6-1.71-2.13-4.69.89-3,3,2.2,2.74,5.49,4.71,9.08,3.69,2.88-.81,5.15-3.28,6.45-5.88s2.07-5.74.83-8.41c-1.41-3-4.74-3.46-7.71-2.76-2.65.62-1.53,4.71,1.13,4.09Z"/><path class="cls-1" d="M82.69,298c.65-.11.61,0,.89.66a10,10,0,0,1,.36,3.76c0,3-.5,6.11-.31,9.16.14,2.34.75,5.16,3.38,5.83,3.39.86,7-2.56,9.25-4.53,2.07-1.79-.94-4.77-3-3a26.52,26.52,0,0,1-4.71,3.28c-.45.25-.58.11-.54.12.45.24.12.09.1-.19a56.1,56.1,0,0,1,0-7.81c.26-4.73.37-12.53-6.5-11.38-2.68.45-1.55,4.53,1.13,4.09Z"/><path class="cls-1" d="M83.89,304.64a7.28,7.28,0,0,0-6.23-1.27,6.92,6.92,0,0,0-4,3.61c-1.51,3.11-1.2,8.07,2.91,8.91,2.91.6,5.8-1.05,8.07-2.68a2.18,2.18,0,0,0,.76-2.9,2.14,2.14,0,0,0-2.9-.76,17.46,17.46,0,0,1-3.16,1.87c.41-.18-.15,0-.28.09l-.58.17-.54.11c.47-.1.17,0-.11,0-.08,0-.65,0-.21,0s-.08,0-.17,0c-.53-.1.21.1,0,0s-.52-.32-.16-.07-.05-.09-.08-.09c-.31-.1,0-.3.06.09a1.41,1.41,0,0,0-.18-.3c-.2-.26.1.48,0,0,0-.12-.07-.24-.1-.36-.1-.34,0-.24,0,.09,0-.3,0-.6,0-.9s.18-.47,0,.05a3.23,3.23,0,0,0,.08-.41c.07-.3.19-.58.26-.87,0,0-.22.43,0,0,.07-.13.13-.26.2-.38l.23-.37c.29-.48-.17.13,0,0a8.18,8.18,0,0,0,.6-.6c.13-.14-.43.25,0,0a4.55,4.55,0,0,0,.41-.23c.24-.17-.17.08-.21.09.1,0,.2-.08.3-.1s.65-.16.25-.08.16,0,.28,0,.77.15.15,0c.19.05.38.08.57.13s.67.25.22,0a8.88,8.88,0,0,1,1.39.8,2.14,2.14,0,0,0,2.9-.76,2.16,2.16,0,0,0-.76-2.9Z"/><path class="cls-1" d="M108.14,292.57c-2.13,6.35-3.69,14.2-2.88,20.91.32,2.67,4.57,2.71,4.24,0-.78-6.42.7-13.71,2.73-19.78.87-2.59-3.22-3.7-4.09-1.13Z"/><path class="cls-1" d="M119.87,307.11a46.24,46.24,0,0,0,18-7.91,2.18,2.18,0,0,0,.76-2.9c-2.93-5.38-9.16-5-14-2.4s-8.52,7.72-7.86,13.56c1.25,11,16.46,4.1,22.73,3.16,2.69-.4,1.55-4.49-1.13-4.09s-5.45,1.31-8.17,2c-2.09.5-6.48,1.92-8.41.32-2.74-2.28.31-7.52,2.19-9.26,2.74-2.54,8.56-5.53,11-1.12l.76-2.9a43.29,43.29,0,0,1-17,7.49c-2.66.59-1.54,4.68,1.13,4.09Z"/><path class="cls-1" d="M159.91,286a20.7,20.7,0,0,0-4.73,20.73c2.9,8.05,10.83,7.67,17.12,3.65,2.29-1.46.17-5.13-2.14-3.66-4.88,3.12-10.09,3.57-11.45-3.08A16.58,16.58,0,0,1,162.9,289c1.94-1.92-1.05-4.92-3-3Z"/><path class="cls-1" d="M147.94,301.5c6.95-2.69,14.9,1.49,21.55-2.32,2.37-1.35.23-5-2.14-3.66-3.17,1.82-7.27,1-10.75.82a23.11,23.11,0,0,0-9.79,1.07c-2.52,1-1.42,5.08,1.13,4.09Z"/><path class="cls-1" d="M177.91,299.18c3.05-2.14,6.81-.68,10.23-.46a10.92,10.92,0,0,0,8.44-2.68c2.06-1.8-1-4.79-3-3-2.8,2.45-6.58,1.24-9.89.88-2.85-.3-5.52-.09-7.92,1.59-2.22,1.55-.1,5.23,2.14,3.66Z"/><path class="cls-1" d="M184.62,281.35c-1.22,7.85-3.21,15.94-2.38,23.94.9,8.7,6.93,10.77,13.91,5.82,2.21-1.56.09-5.24-2.14-3.66-2.06,1.46-5,3.83-6.75,1.1-1.45-2.24-1-6.31-.89-8.83.25-5.82,1.44-11.5,2.33-17.24.41-2.67-3.67-3.82-4.09-1.13Z"/><path class="cls-1" d="M208.27,300.79c3.09-1.16,12-4.5,8.88-9.46-2.21-3.57-8.21-2.33-11.14-.63-5.38,3.11-6.83,9.95-4,15.34,4.24,8.15,13.1,4.72,19.43,1.55,2.44-1.22.29-4.88-2.14-3.66-4,2-10.43,5.67-13.43.32-1.81-3.22-1.31-7.41,1.8-9.58,1.86-1.3,3.64-1.34,5.76-1.13.12,0,.42.19.12-.09-.49-.44.3-.25-.47.18a42.57,42.57,0,0,1-5.89,3.07c-2.53,1-1.43,5,1.13,4.09Z"/><path class="cls-1" d="M68,169.48c-.33,7-7.36,14.12-10.87,19.91-3.14,5.18-9.37,10.11-9.6,16.55a2.13,2.13,0,0,0,3.19,1.83c4.61-3.15,11-3.71,16.45-3.86s11.92,0,16.61,3.11c2.28,1.51,4.41-2.16,2.14-3.66-5.29-3.49-12.61-3.85-18.75-3.69s-13.37.86-18.59,4.43l3.19,1.83c.12-3.55,3.82-7.25,5.86-9.91s3.62-5.45,5.44-8.22c3.6-5.48,8.85-11.47,9.17-18.33.13-2.73-4.11-2.72-4.24,0Z"/><path class="cls-1" d="M106.73,206.36c-4.77-7.92-18.36-12.82-19.3-22.61-.87-9.06,13.82-.9,16.86,2a2.16,2.16,0,0,0,3.33-.43c2.3-3.22,19.07-13.32,19.14-5.32.06,6.26-6.59,11.33-11,14.8-4.55,3.6-9.18,6.93-12.72,11.59-1.65,2.17,2,4.28,3.66,2.14,5.4-7.1,14-10.89,19.66-17.77,3.05-3.72,6.89-11,3.26-15.54-6-7.53-21.71,2.4-25.69,8l3.33-.43c-4.58-4.32-18.3-12-23.1-4.3-2.76,4.41-.2,10.5,2.69,14.1,4.76,5.92,12.22,9.38,16.19,16,1.41,2.33,5.07.21,3.66-2.14Z"/><path class="cls-1" d="M56,111.81c6.85.08,13.66,1,20.51,1.08,2.73,0,2.73-4.21,0-4.24-6.85-.08-13.66-1-20.51-1.08-2.73,0-2.73,4.21,0,4.24Z"/><path class="cls-1" d="M154.19,105.69c16.11-.2,32.11-2.43,48.22-2.52,2.73,0,2.73-4.25,0-4.24-16.11.09-32.11,2.32-48.22,2.52-2.73,0-2.73,4.27,0,4.24Z"/></g></g></svg>