<svg xmlns="http://www.w3.org/2000/svg" viewBox="0 0 282.79 213.35"><defs><style>.cls-1{fill:#454da1;}.cls-2{fill:#fffeff;}</style></defs><title>Asset 39</title><g id="Layer_2" data-name="Layer 2"><g id="Layer_1-2" data-name="Layer 1"><path class="cls-1" d="M106.45,2.9c-27.62.19-35.31-1.57-54,2-24.67,4.71-34.36,12.2-40,19-6.15,7.41-8.56,15.29-10,20-3.14,10.27-2.57,16.95-2,36,1,32.2-.2,28.93,1,47,1.31,19.69,2,29.54,4,36,5.84,18.5,19.25,34.88,34,44,17,10.5,25.94,5.34,86,4,42.6-.95,64.87,1,102-7,19.44-4.21,26.69-7.66,33-13,20.3-17.2,21.23-46.07,22-70,.79-24.62,1.56-48.44-14-69-9.14-12.08-21.09-18.39-45-31-17-9-29-15.29-46-19C156.09-2.75,153.6,2.57,106.45,2.9Z"/><path class="cls-2" d="M39.61,36.81c0,7.66,3.92,14.13,6.18,21.25s3.13,14.47,6.68,21.14c1.12,2.09,3.82,1.24,4.57-.6,3.18-7.79,2.83-16.58,6.51-24.18l-3.93.51c5.7,6.26,7.71,14.81,12.31,21.79a2.53,2.53,0,0,0,3.93.51c4.44-4.54,4.85-12.08,5.67-18,.52-3.81,1.31-7.55,2-11.32.53-2.79,1.15-5.59,1.56-8.4.12-.81-.1-3.22.33-3.84L80.87,35l.16.44c1.09,3,5.93,1.7,4.82-1.33l-.16-.44a2.54,2.54,0,0,0-4.57-.6c-1.3,1.87-1,5.68-1.35,7.84-.84,4.6-1.87,9.19-2.62,13.81-.93,5.68-.56,14.58-4.83,18.94l3.93.51c-4.86-7.38-7-16.17-13.09-22.8a2.52,2.52,0,0,0-3.93.51c-3.89,8-3.67,17.17-7,25.38l4.57-.6c-3.33-6.25-4.07-13.28-6.18-19.95s-6-12.81-6-19.92c0-3.22-5-3.22-5,0Z"/><path class="cls-2" d="M92.77,63.22c4.18-.59,9.75-.23,13.84-2.35,4.3-2.23,2.95-7.56-1.34-8.8s-9.74-.29-13.59,1.53c-5,2.39-6.39,9.48-4.56,14.31,3.53,9.31,13.82,6.78,20.9,3.72,2.95-1.27.4-5.58-2.52-4.32s-6.57,3-9.83,2.22c-3.08-.71-4.54-3.62-4.32-6.6.34-4.69,3.6-5.67,7.74-6.17a19.16,19.16,0,0,1,2.83-.14,13.34,13.34,0,0,0,2.23.32c.43-.12,0,.05.29-.45s-.9.23-1.42.38c-3.76,1.06-7.75,1-11.59,1.53-3.17.45-1.82,5.27,1.33,4.82Z"/><path class="cls-2" d="M116.62,36.88a17.62,17.62,0,0,0-1.67,9.26c.2,3.2,5.2,3.22,5,0a12.79,12.79,0,0,1,1-6.74c1.45-2.86-2.86-5.4-4.32-2.52Z"/><path class="cls-2" d="M129.7,29.48c-2.66,7.77-3.94,16.23-5.33,24.29-.72,4.16-1.44,8.36-1.75,12.58-.13,1.8-.59,4.92,1.06,6.23,2.49,2,6.05-1.53,3.54-3.54.87.69.27-.07.32-1.39,0-1.48.23-3,.41-4.44.51-4.16,1.25-8.29,2-12.4,1.25-6.65,2.36-13.58,4.56-20,1-3.05-3.78-4.36-4.82-1.33Z"/><path class="cls-2" d="M138.27,30.14c-.75,13.46-6.95,26.51-6.67,40,.07,3.21,5.07,3.22,5,0-.28-13.44,5.92-26.55,6.67-40,.18-3.21-4.82-3.2-5,0Z"/><path class="cls-2" d="M162.94,32.14c-.4,11.76.64,24.18-3.28,35.46h4.82c-1.54-5.5.71-15.92,7-17.53l-3.08-1.75c1.69,4.64,1.12,10.28,1.43,15.15.18,2.83,0,7.92,3,9.49s5.37-2.81,2.52-4.32c-.88-.47-.7-9.07-.78-10.8-.17-3.54-.11-7.47-1.34-10.85a2.56,2.56,0,0,0-3.08-1.75c-9.1,2.32-12.8,15.53-10.51,23.68a2.52,2.52,0,0,0,4.82,0c4.06-11.71,3-24.6,3.46-36.79.11-3.22-4.89-3.21-5,0Z"/><path class="cls-2" d="M183.21,48.58c3.92-3.77,3.81,4.82,3.5,7.2-.52,3.91-2.14,7.88-1.1,11.86,1.54,5.9,8.47,9.26,12,3.1,1.6-2.8-2.72-5.32-4.32-2.52-1.06,1.85-2.1-.2-2.53-1.18a8.33,8.33,0,0,1-.28-4.57c.3-2.22,1-4.37,1.24-6.59A19.88,19.88,0,0,0,191,47.5c-1.92-6.09-7-6.66-11.33-2.46-2.32,2.23,1.21,5.77,3.54,3.54Z"/><path class="cls-2" d="M188.7,55.32a7.32,7.32,0,0,0-10.42,3.21c-1.49,3-1.72,8.2,2.36,9.34,2.69.75,5.26-1,7.24-2.62a2.52,2.52,0,0,0,0-3.54,2.56,2.56,0,0,0-3.54,0,11.36,11.36,0,0,1-1.33.9l-.54.28c-.41.21.44-.1-.22.07-.29.07-.77,0-.05.06a3.25,3.25,0,0,1-.38,0c-.44-.07.7.18.1,0-.41-.13.56.28.21.08s.5.5.11.07.39.6.08.09.14,0,.07.2c0-.07-.12-.36-.13-.45-.1-.63-.05.48,0,.05a3.34,3.34,0,0,0,0-.39c0-.18,0-.36,0-.54,0-.46-.16.61,0,0,.1-.35.19-.7.29-1.05.06-.19.3-.55,0,0,.1-.17.17-.36.27-.53s.78-1,.28-.48c.14-.14.27-.29.4-.43s.55-.46.19-.19.16-.09.23-.13c.23-.14.72-.21.06-.06a1.41,1.41,0,0,0,.42-.13l.29-.06q-.62.07-.21,0a4,4,0,0,0,.64,0c-.37,0-.35-.08,0,0s.48.13.71.22c-.6-.21.22.12.34.18,2.83,1.52,5.36-2.79,2.52-4.32Z"/><path class="cls-2" d="M195,44.14c-1.76,6.11-1.54,14.31,2.07,19.74a2.54,2.54,0,0,0,4.32,0c4.31-6.09,7-13.08,10.18-19.81,1.35-2.9-3-5.44-4.32-2.52-3.14,6.73-5.87,13.72-10.18,19.81h4.32c-2.9-4.36-3-11-1.57-15.89.89-3.1-3.93-4.42-4.82-1.33Z"/><path class="cls-2" d="M212.11,61.88c5.42-1.63,14.24-4.51,14.73-11.24.52-7.26-7.52-6.41-11.73-3.6-5.82,3.88-8.26,12.84-4.7,19,4.51,7.78,13.3,4.83,18.14-.8,2.09-2.43-1.43-6-3.54-3.54-2.64,3.08-7.83,6.72-10.45,1.53-1.92-3.8-.37-9.45,3.07-11.87,1-.69,2.65-1.7,3.91-1.57.6.06.48.17.34-.06.33.54-.26,1.66-.57,2.1-2,2.83-7.37,4.29-10.52,5.24s-1.76,5.75,1.33,4.82Z"/><path class="cls-2" d="M99.67,80.37c-3.88,4.77-9.93,11.36-8.46,18.09s9.13,5.51,13.49,2.5c2.63-1.82.13-6.15-2.52-4.32-1.15.79-3.47,2.49-5,1.88S96,95.65,96.43,94.3c1.22-3.86,4.27-7.31,6.78-10.39,2-2.48-1.5-6-3.54-3.54Z"/><path class="cls-2" d="M110.85,88a8.36,8.36,0,0,0-3.51,9.26c1.36,4.18,6.33,4.57,9.61,2.38a7,7,0,0,0,2.17-9.29c-2-3.44-6.16-3.34-8.77-.63-2.24,2.31,1.29,5.85,3.54,3.54a7.45,7.45,0,0,1,.65-.59c-.15.1.38-.2,0,0,.35-.13,0-.07,0,0q.35.11.1,0t0,0c.24.27-.31-.48.09.07.1.13.17.12.24.34-.07-.21.22.93.16.46a3.39,3.39,0,0,1,0,.74,1.76,1.76,0,0,1-.9,1.3,3.35,3.35,0,0,1-1.91.48c.13,0-.06,0-.07-.05.19.24-.23-.45,0,0a1.8,1.8,0,0,1-.14-.49,3.67,3.67,0,0,1,1.35-3.13c2.69-1.75.19-6.08-2.52-4.32Z"/><path class="cls-2" d="M134.7,93.63c5.86-3.46,18.65-9.2,13.18-18.22-4.43-7.31-11.95,3.63-14.07,7.34-3.3,5.78-3.32,14.28,1.13,19.61s14.71.35,12.29-6.57a8.09,8.09,0,0,0-7.61-5c-4.13.12-6.05,3.59-6,7.37,0,3.22,5,3.22,5,0,0-2.05,1-3.23,3-1.77,1.66,1.24.35,4-1.77,3.61-3.38-.54-3.79-9.63-3-12,.51-1.63,5.25-10.47,7.27-9.9-.2-.06-.14,2.59-.43,3.23-.65,1.47-2.39,2.63-3.66,3.52-2.46,1.71-5.19,3-7.77,4.5-2.77,1.63-.26,6,2.52,4.32Z"/><path class="cls-2" d="M148.27,88.81c-.06,3.64-.81,7.35.07,11,.76,3.14,3.58,5.82,7,4.94,5.64-1.45,7.47-11,7.26-15.89-.14-3.21-5.14-3.22-5,0a18.92,18.92,0,0,1-.75,5.59c-.32,1.21-1.07,4.76-2.45,5.28-2.32.88-1.15-9.44-1.13-10.87.05-3.22-4.95-3.22-5,0Z"/><path class="cls-2" d="M165.7,88.14c-1.57,4.83-1.4,10.3-1.42,15.33,0,3.22,5,3.22,5,0,0-4.6-.2-9.58,1.24-14,1-3.07-3.83-4.38-4.82-1.33Z"/><path class="cls-2" d="M168.11,82.64c3.22,0,3.22-5,0-5s-3.22,5,0,5Z"/><path class="cls-2" d="M176.27,79.47v21.33c0,3.22,5,3.22,5,0V79.47c0-3.22-5-3.22-5,0Z"/><path class="cls-2" d="M196.7,86c-4.08-1.74-8.47.06-11,3.59-2.18,3.06-2.25,7.94,1,10.37,5.53,4.13,11.79-5.73,13.54-9.87,1.24-2.93-3.07-5.48-4.32-2.52a24.37,24.37,0,0,1-2.6,4.48c-.89,1.26-2.19,3.22-3.71,3.77-.33.12.17.23.07.17-.75-.47-.65-2-.39-2.67.57-1.53,3.08-3.76,4.86-3,2.93,1.25,5.48-3.06,2.52-4.32Z"/><path class="cls-2" d="M201.94,78.81A8.27,8.27,0,0,1,202,77c.22-3.07-3.92-3-4.91-.66-2.58,6.14-5.15,24.34,3.71,26.84,3.1.87,4.43-3.95,1.33-4.82-2.67-.75-2.13-8.12-2.07-10.14a30.13,30.13,0,0,1,1.85-10.55L197,77a8.27,8.27,0,0,0,0,1.76c.11,3.21,5.11,3.22,5,0Z"/><path class="cls-2" d="M49.21,119.91c.56-.44,3-2.57,4-2s.5,3.17.42,4c-.34,3.59-2.28,6.88-2.21,10.54.05,3,2,6.23,5.07,6.89,3.29.71,5.82-1.74,7.08-4.51s-3-5.45-4.32-2.52c-1,2.2-2.73,2.88-2.82-.25-.05-1.69.76-3.55,1.22-5.15.85-3,1.49-6.27.74-9.34-1.74-7.07-8.73-4.25-12.74-1.1-2.53,2,1,5.5,3.54,3.54Z"/><path class="cls-2" d="M52.77,124.31c-5.08-.42-10.38,1.14-12.9,5.89a2.62,2.62,0,0,0,.39,3c2.73,3.49,7.4,3.36,11.11,1.74,2.94-1.28.4-5.59-2.52-4.32-1.85.8-3.78.67-5.05-1l.39,3c1.72-3.23,5.24-3.69,8.59-3.41s3.19-4.74,0-5Z"/><path class="cls-2" d="M97.85,119.48c-.71-3.92-4.16-5.63-7.58-3.44s-5.92,6.72-6.77,10.64c-1,4.61.75,9.87,5.09,12.18,4.58,2.44,9.78.37,13.28-2.94,2.34-2.22-1.2-5.75-3.54-3.54-1.83,1.74-4.66,3.37-7.22,2.16-2.39-1.13-3.26-4.11-2.79-6.54a12,12,0,0,1,5.14-8c-.55.45-.77-1-.44.86.57,3.16,5.39,1.82,4.82-1.33Z"/><path class="cls-2" d="M107.67,117c-5.21,5.72-6.62,25,4.56,25,9.43,0,10.3-16.69,10.37-23.24,0-3.22-5-3.22-5,0a51.7,51.7,0,0,1-.88,9c-.46,2.43-1.1,7.33-3.42,8.8-5.49,3.48-4.6-13.26-2.1-16,2.16-2.37-1.36-5.92-3.54-3.54Z"/><path class="cls-2" d="M134.77,116.31c-5.41,0-13.55,5.62-10.52,11.8,1.11,2.25,3.38,3.36,5.64,4.18,1.72.63,7.74,1.39,7.44,4-.43,3.71-12.48,5.58-15.14,6.11a73.05,73.05,0,0,1-10.26,1.35,28.55,28.55,0,0,1-3.7.05c-.72-.05-2.16-.47-1.69-.06-2.41-2.12-6,1.41-3.54,3.54,3.29,2.89,10,1.48,13.9,1,6.65-.83,13.75-2.1,19.76-5.21,4.09-2.12,7.94-6.64,4.24-11.12-1.75-2.11-4.64-2.87-7.15-3.65-1.16-.36-3.77-.73-4.49-1.76-1.85-2.62,3.28-5.21,5.51-5.2,3.22,0,3.22-5,0-5Z"/><path class="cls-2" d="M146.94,112.81c.18,7.58-3,16.07,1.44,23,3.53,5.44,9.74,6.22,14.16,1.44,2.18-2.36-1.34-5.9-3.54-3.54-5.56,6-8.17-4.65-8-8.61.18-4.12,1-8.15.93-12.28-.08-3.21-5.08-3.22-5,0Z"/><path class="cls-2" d="M142.77,127.88c4-.79,7.85-2.26,12-1.91,3.21.27,3.19-4.73,0-5-4.6-.38-8.88,1.22-13.33,2.09-3.15.62-1.82,5.44,1.33,4.82Z"/><path class="cls-2" d="M166.85,116.65c-8.07,5.37-3.28,20.12,7,17,9.07-2.77,7.38-13.37.59-17.77-3.5-2.27-7.94-1.7-9.77,2.34-1.32,2.91,3,5.45,4.32,2.52.46-1,.65-1.34,1.33-1.27a5.16,5.16,0,0,1,2.25,1.25c1.49,1.29,3.28,3.82,2.66,5.91-.66,2.26-4.55,3.32-6.21,1.67s-1.8-5.87.4-7.33c2.67-1.77.17-6.11-2.52-4.32Z"/><path class="cls-2" d="M188.61,136.14a56.69,56.69,0,0,1,.12-9c.18-1.94.47-8.09,2.75-9l-2.82-1.15c2.87,6.07,3.51,12.6,3.77,19.23.1,2.68,4.37,3.56,4.91.66.58-3.15.94-6.33,1.59-9.47.3-1.45,1.82-10.15,4-10s1.4,16.39,2.07,18.76c.87,3.09,5.7,1.78,4.82-1.33-1.47-5.2,2.33-22.64-7.06-22.41-8.72.21-9.18,17.19-10.28,23.09l4.91.66c-.3-7.57-1.19-14.84-4.46-21.75a2.5,2.5,0,0,0-2.82-1.15c-7.54,3.15-7,16.19-6.54,22.89.22,3.19,5.22,3.22,5,0Z"/><path class="cls-2" d="M60.52,156.81c-.77-4.52-4.82-5.49-8.1-2.62a22.22,22.22,0,0,0-6.55,11.37c-1,4.56.87,10.72,5.27,12.92,5.45,2.72,10.47-2.11,13.13-6.41,1.7-2.74-2.63-5.26-4.32-2.52-1.2,1.94-3.91,5.85-6.73,4.39-2.3-1.19-2.93-5.27-2.42-7.5a18.74,18.74,0,0,1,3.38-6.77c.29-.38,2-1.79,2.06-2.13q.17,0,.15-.12a1.88,1.88,0,0,1-.93-.39,9.13,9.13,0,0,0,.23,1.12c.54,3.17,5.36,1.82,4.82-1.33Z"/><path class="cls-2" d="M70.36,160.14c-1.8,5.26-1.2,11.85,3.33,15.56a2.64,2.64,0,0,0,3,.39C82.29,173.41,86.29,163.5,83,158a6.8,6.8,0,0,0-8-3.22c-3.48,1.15-5.15,4.62-5.38,8.05-.21,3.21,4.79,3.2,5,0,.26-3.9,4.61-4.48,4.58-.26,0,3.16-2,7.8-5,9.23l3,.39c-3.25-2.66-3.32-7-2-10.7,1-3.05-3.78-4.36-4.82-1.33Z"/><path class="cls-2" d="M91.94,175.47c0-3.25-1.85-14.14,2.72-14.83l-2.82-1.15c2.54,4.69,2.52,10.06,3.88,15.11.74,2.74,4.87,2.15,4.91-.66.07-4.56.05-10.08,3.27-13.68l-3.93-.51c3.46,4.68,3,11,4.4,16.39.81,3.11,5.64,1.79,4.82-1.33-1.54-5.89-1.13-12.48-4.9-17.58-.89-1.21-2.75-1.82-3.93-.51-4.21,4.72-4.64,11.17-4.73,17.21l4.91-.66C99,167.72,98.94,162.12,96.15,157a2.58,2.58,0,0,0-2.82-1.15c-8.24,1.26-6.47,13.87-6.39,19.66,0,3.21,5,3.22,5,0Z"/><path class="cls-2" d="M112.27,156.81c-.18,13.57,3.08,26.91,2.67,40.5h5v-1.83c0-3.22-5-3.22-5,0v1.83c0,3.22,4.9,3.21,5,0,.41-13.58-2.85-26.92-2.67-40.5,0-3.22-5-3.22-5,0Z"/><path class="cls-2" d="M115.88,161.24c3-2.44,6.21-1.28,7,2.51.9,4.11-2.5,6.63-6.52,5.91l1.49,1.15,0-.08-1.49,3.67a6,6,0,0,0,2.19-1.16c2.29-2.27-1.25-5.81-3.54-3.54.64-.63.62-.37,0-.12a2.56,2.56,0,0,0-1.49,3.67c1,2.05,4.6,1.57,6.41,1.27a10.06,10.06,0,0,0,5.08-2.28,9.76,9.76,0,0,0,2.85-9.17,10.32,10.32,0,0,0-5.15-7.38c-3.65-1.86-7.41-.38-10.38,2-2.5,2,1.05,5.54,3.54,3.54Z"/><path class="cls-2" d="M136.78,155.06c-4.45,1.25-6.91,5.61-6.66,10.09.24,4.28,3.07,8.4,7.73,8.23,4.89-.18,10.5-4.75,10.71-9.82.17-4.07-2.89-7.66-6.43-9.3-4.31-2-9.68-.77-10.43,4.54-.44,3.15,4.37,4.51,4.82,1.33a3.32,3.32,0,0,1,.46-1.55,1.17,1.17,0,0,1,.69-.33,5.17,5.17,0,0,1,3.21,1c2.28,1.48,3.62,4,1.66,6.33-1.61,1.91-5.72,4.48-7.08,1.09-1-2.49-.14-6,2.64-6.8,3.09-.87,1.78-5.7-1.33-4.82Z"/><path class="cls-2" d="M148.62,152.74c3.53,5.4,3.67,13.51,3,19.73h5c-.07-6.16,1.37-12.81,6.66-16.61l-3-.39c3.7,4.61-1.57,15,4.61,18.17,2.86,1.45,5.4-2.86,2.52-4.32-1.32-.67-.77-7.7-.88-9-.25-3.07-.75-5.89-2.72-8.35a2.49,2.49,0,0,0-3-.39c-6.8,4.89-9.23,12.82-9.14,20.93,0,3.29,4.66,3.13,5,0,.77-7,.31-16.16-3.67-22.26-1.75-2.68-6.09-.18-4.32,2.52Z"/><path class="cls-2" d="M172.77,166.55c5.13-1.3,12-6.72,10.41-12.77-1.83-7.08-10.55-2.12-12.81,1.85a12.16,12.16,0,0,0,1.86,13.93c4,4.27,9.63,3.43,13.64-.32,2.35-2.21-1.19-5.74-3.54-3.54-1.8,1.69-4,2.59-6.06.83A7.28,7.28,0,0,1,174,160a5.85,5.85,0,0,1,1.81-3.31,4.85,4.85,0,0,1,2.5-1.5c.74,0-.06-.28,0,.1.64,3-4.68,5.87-6.91,6.44-3.12.79-1.8,5.62,1.33,4.82Z"/><path class="cls-2" d="M188.94,153.47c.67,5.62,1.35,11.22,1.47,16.88a2.51,2.51,0,0,0,4.91.66c.62-1.92,1-3.92,1.47-5.87.31-1.2.64-2.42,1.07-3.58.31-.83,1.37-2.1,1.52-2.87h-.94a1.55,1.55,0,0,1,.23.54c-.09.39.31,1.25.38,1.69a31.4,31.4,0,0,1,.21,4,33.54,33.54,0,0,0,.45,7.22c.76,3.13,5.58,1.8,4.82-1.33-1-4.09,1.77-17.42-5.84-16.95-6.23.38-6.79,11.53-8.18,15.83l4.91.66c-.12-5.66-.8-11.27-1.47-16.88-.37-3.16-5.38-3.19-5,0Z"/><path class="cls-2" d="M208.11,157.31c4-.34,7.89-.89,11.8-1.59,3.08-.55,7.7-.66,10.38-2.3l-3-3.93c-.3.31-.62.59-.93.88-2.33,2.23,1.21,5.76,3.54,3.54.31-.29.63-.58.93-.88,1.95-2-.56-5.44-3-3.93-2.22,1.36-6.6,1.33-9.19,1.8-3.47.62-7,1.1-10.47,1.41-3.18.27-3.21,5.28,0,5Z"/><path class="cls-2" d="M217,117.48c-2.31,6.89-2.23,14.28-1.95,21.46.26,6.65.17,13.41.69,20,.28,3.56.81,7.71,3.93,10,3.82,2.78,9.1,1.06,13.07-.39,3-1.09,1.7-5.93-1.33-4.82s-8.15,3.44-9.92-.48c-1.5-3.33-.88-8-.93-11.51-.13-10.85-2.27-22.42,1.25-32.93,1-3.06-3.8-4.37-4.82-1.33Z"/><path class="cls-2" d="M86,93c4-2.11,12.1-2.22,16.14,0,2.82,1.55,5.35-2.77,2.52-4.32-5.7-3.13-15.5-3-21.19,0-2.85,1.5-.33,5.81,2.52,4.32Z"/></g></g></svg>