<svg xmlns="http://www.w3.org/2000/svg" viewBox="0 0 251.67 266.92"><defs><style>.cls-1{fill:#fcfdff;}</style></defs><title>Asset 8</title><g id="Layer_2" data-name="Layer 2"><g id="Layer_1-2" data-name="Layer 1"><path d="M192.8,8.79a96.08,96.08,0,0,1,24.89,9.68c6.54,3.7,16.87,9.86,24.89,21.73a57,57,0,0,1,8.32,19.72c3.69,16.5-7,37.77-6.93,74.72.05,20.53,4.39,22.54,2.92,36-4.37,40.15-3.49,82-26.68,88.23-36.16,9.68-17.31,8.54-96.55,7.15-43.31-.76-50.9-.61-62.23-6.91-20.85-11.61-30.34-31.71-41.49-55.32-6.6-14-16.79-35.55-19.36-65C-.07,131.44-6.5,44.83,46.21,12.93c14-8.45,29.13-9.78,59.47-12.45C105.68.49,145.63-3,192.8,8.79Z"/><path class="cls-1" d="M56.34,177.91a248.38,248.38,0,0,1,25.39-42.86h-4l11.7,27.3c1.86,4.34,4.45,8.81,5.46,13.42.66,3.05,0,6.78-3.87,7.1-4.14.34-3.76-7.22-3.46-9.27,2.31-15.45,12.17-29.8,24.57-38.95,2.36-1.74.07-5.75-2.33-4a68.29,68.29,0,0,0-21.53,25.89c-3.51,7.48-9.93,22.28-1.82,29s14.76-3.25,12.88-11c-1.67-6.84-5.5-13.53-8.26-20l-9.36-21.84c-.76-1.77-3.09-1.21-4,0a248.38,248.38,0,0,0-25.39,42.86c-1.24,2.68,2.73,5,4,2.33Z"/><path class="cls-1" d="M143.88,124.26c-10.18,2.67-26.19,9.54-21.55,23.22,3,8.84,20.51,15.76,27.51,8.08,3.15-3.46,2.23-8.58-1.28-11.41-4.41-3.56-11.15-2.67-16.13-.92-10.68,3.76-18.18,14.59-14.87,26C121,181,136.37,185.62,145,176.3c2-2.18-1.24-5.45-3.26-3.26-6.73,7.3-18.15,2.87-20-6.36-1.9-9.48,5.31-17.37,14.07-19.65a16.66,16.66,0,0,1,6-.66,5.8,5.8,0,0,1,5,2.69q-.76,5.79-5.63,4.93c-4.3-.19-10-2-12.9-5.34-4.37-5.05-.83-11.72,3.85-15,3.83-2.67,8.52-3.8,13-5,2.87-.75,1.65-5.2-1.23-4.45Z"/><path class="cls-1" d="M153.42,123.46l14.13,54.34c.62,2.39,3.66,2,4.45,0,4.18-10.48,8.4-20.94,12.55-31.43,2.19-5.54,4.13-16.47-5-17-7.83-.41-7.15,9.1-5.37,13.91,4.16,11.25,8.71,22.37,13.06,33.54a2.32,2.32,0,0,0,4.53-.61,77.4,77.4,0,0,1,25.38-53.91c2.2-2-1.07-5.25-3.26-3.26a82.07,82.07,0,0,0-26.73,57.17l4.53-.61-8-20.5-4-10.25c-.55-1.4-1.2-2.8-1.64-4.24-.12-.39-2.29-9.34,2.27-6.31,5.22,3.47-3.22,18.29-4.89,22.48l-7.89,19.76H172l-14.13-54.34c-.75-2.87-5.2-1.65-4.45,1.23Z"/><path class="cls-1" d="M103,107.75l-2.53,16.86c-.44,2.9,4,4.16,4.45,1.23L107.45,109c.44-2.9-4-4.16-4.45-1.23Z"/><path class="cls-1" d="M106.27,99.28c3,0,3-4.61,0-4.61s-3,4.61,0,4.61Z"/><path class="cls-1" d="M125.19,101.62c-3.09-.87-6.61-1.08-9.28,1a6.82,6.82,0,0,0-2.38,7.46c1,2.87,3.74,3.66,6.5,4.05.65.09,2.16,0,2.68.56,1,1,.4,2.27-.4,3-1.83,1.76-5.36.92-7.5.52-2.9-.55-4.14,3.9-1.23,4.45,5.55,1,14.54.71,14.28-7.19A5.88,5.88,0,0,0,123.3,110c-1.23-.35-4.14-.05-5-1-1.42-1.5.57-3.06,1.76-3.37a7.82,7.82,0,0,1,3.93.39c2.86.8,4.08-3.64,1.23-4.45Z"/><path class="cls-1" d="M156.08,87.53c-.44,7.55-2.07,16.07-1.1,23.57.63,4.86,4.22,8.69,9.32,7.28,2.86-.79,1.64-5.24-1.23-4.45-5.31,1.47-3.24-11.71-3.13-13.72l.74-12.68c.17-3-4.44-3-4.61,0Z"/><path class="cls-1" d="M150,107.36l10.77-.67c2.95-.18,3-4.8,0-4.61l-10.77.67c-2.95.18-3,4.8,0,4.61Z"/><path class="cls-1" d="M169.76,84.84l-1.82,30.55,4.53-.61c-.39-1.18-2.31-6.6-1.15-7.17l4.71.69a12.49,12.49,0,0,1-.19,2.54,24.27,24.27,0,0,0,0,7c.54,2.92,5,1.68,4.45-1.23-.9-4.92,2.73-16.64-6.49-16.19-8.22.41-7.56,10.08-5.76,15.56a2.32,2.32,0,0,0,4.53-.61l1.82-30.55c.18-3-4.44-3-4.61,0Z"/><path class="cls-1" d="M184.66,109.5c4.47-1.29,9.88-4.2,8.33-9.79-1.31-4.71-6.84-4.77-9.49-1.24-2.88,3.83-3.48,10.65-.85,14.73,2.4,3.74,8.06,4.84,11.21,1.48,2-2.16-1.23-5.43-3.26-3.26-1.53,1.64-3.84.14-4.51-1.57a10.43,10.43,0,0,1,0-6.23c.24-.87,2.39-4.91,2.49-2,.07,2.22-3.66,3-5.18,3.46-2.85.82-1.64,5.27,1.23,4.45Z"/><path class="cls-1" d="M70.65,111.2l-5.5-26.58c-1.6-7.76-6.72-20.56,1.71-25.93,7.93-5,17.31,2.15,16.89,10.89-.44,9.21-8.73,15.5-15.45,20.53-1.88,1.41-.88,5.27,1.78,4.22,3.84-1.52,8-3.36,12.27-3.05,6.77.49,10.14,6.26,6.12,12.07-5,7.21-14.81,10.38-23.18,10.42l1.63,3.94,1.6-1.82c2-2.22-1.29-5.49-3.26-3.26l-1.6,1.82a2.34,2.34,0,0,0,1.63,3.94c10.87-.05,28.29-6.08,29.71-18.93.59-5.31-2.74-9.71-7.54-11.65-6.24-2.52-12.72-.26-18.63,2.08l1.78,4.22c8.3-6.23,17.8-13.89,17.73-25.31C88.31,60,81,52,71.95,52.38c-9.92.46-15.16,9.24-14.16,18.41,1.52,13.92,5.59,27.93,8.42,41.64.6,2.9,5,1.68,4.45-1.23Z"/><path class="cls-1" d="M99.29,47.12,97.71,88A2.33,2.33,0,0,0,100,90.3l46.64-1.41c3-.09,3-4.7,0-4.61L100,85.68,102.32,88l1.58-40.87c.11-3-4.5-3-4.61,0Z"/><path class="cls-1" d="M115.51,80.24l17.07-31.43-4.22-.55L136,76.81c.76,2.87,5.21,1.65,4.45-1.23L132.81,47a2.33,2.33,0,0,0-4.22-.55L111.53,77.91c-1.42,2.61,2.56,4.94,4,2.33Z"/><path class="cls-1" d="M119.74,70.24l15.49,1.34c3,.26,2.94-4.36,0-4.61l-15.49-1.34c-3-.26-2.94,4.36,0,4.61Z"/><path class="cls-1" d="M170.48,48.6c-1.22-5.24-6.85-8-11.95-6.62-6.6,1.72-10,9.21-11.56,15.2-1.74,6.66-1.21,14.55,4.56,19.14a11,11,0,0,0,15-1.06c2-2.18-1.25-5.46-3.26-3.26-3.34,3.64-8.5,2.27-10.93-1.69-2.21-3.6-1.88-8-.89-11.91.85-3.37,2.29-7.17,4.77-9.71,2.71-2.78,8.67-3.93,9.84,1.13.67,2.89,5.12,1.67,4.45-1.23Z"/><path class="cls-1" d="M186,40.44l-8,33.68c-.69,2.89,3.76,4.12,4.45,1.23l8-33.68c.69-2.89-3.76-4.12-4.45-1.23Z"/><path class="cls-1" d="M186.11,64.46,212.4,48.34c2.53-1.55.21-5.54-2.33-4L183.78,60.48c-2.53,1.55-.21,5.54,2.33,4Z"/><path class="cls-1" d="M190.41,59.35l14.39,47.06c.87,2.83,5.32,1.62,4.45-1.23L194.86,58.13c-.87-2.83-5.32-1.62-4.45,1.23Z"/><path class="cls-1" d="M59.69,190.59l3.15,47.47c.09,1.35,1.42,2.8,2.92,2.22,9-3.46,20.26-8.94,19.36-20.45-.88-11.29-13.26-11.59-21.76-10.36l1.23,4.45c11.31-2.57,23.44-14.19,16.47-26.53-5.38-9.53-20.68-9.41-22.93,2.43-.55,2.9,3.9,4.14,4.45,1.23,1.94-10.26,15-6,15.64,2.72s-7.32,14-14.85,15.71c-3,.67-1.63,4.86,1.23,4.45,6.75-1,18-.67,15.68,9.35-1.71,7.23-9.55,10.21-15.73,12.57l2.92,2.22-3.15-47.47c-.2-2.95-4.81-3-4.61,0Z"/><path class="cls-1" d="M91.87,193.27l.79,40.43a2.34,2.34,0,0,0,2.92,2.22,261.44,261.44,0,0,1,57-6.88v-4.61l-1.86.19c-2.93.29-3,4.91,0,4.61l1.86-.19c2.89-.29,3-4.64,0-4.61a267.24,267.24,0,0,0-58.22,7l2.92,2.22-.79-40.43c-.06-3-4.67-3-4.61,0Z"/><path class="cls-1" d="M109.44,220.58l17-28.53h-4l15.74,23.52c1.64,2.45,5.64.15,4-2.33l-15.74-23.52a2.33,2.33,0,0,0-4,0l-17,28.53c-1.52,2.56,2.46,4.88,4,2.33Z"/><path class="cls-1" d="M115,210.54l20.86-1.47c2.94-.21,3-4.82,0-4.61L115,205.92c-2.94.21-3,4.82,0,4.61Z"/><path class="cls-1" d="M169.79,193.27c-2.27-5.43-8-7.6-13.49-5.41-6.12,2.45-10.63,9.3-11.31,15.73-.67,6.27,2.43,13,8.44,15.54a12.11,12.11,0,0,0,14.92-4.8c1.6-2.51-2.39-4.82-4-2.33-5.21,8.16-15,.69-14.88-6.92a15.67,15.67,0,0,1,4.77-10.35c2.76-2.75,8.94-5.38,11.09-.24,1.13,2.7,5.59,1.51,4.45-1.23Z"/><path class="cls-1" d="M179.78,185.15l-3.25,38.17c-.16,1.93,2.68,3.13,3.94,1.63l1.49-1.78c1.89-2.26-1.36-5.54-3.26-3.26l-1.49,1.78,3.94,1.63,3.25-38.17c.25-3-4.36-2.94-4.61,0Z"/><path class="cls-1" d="M206,181.15,179.54,202c-1.25,1-.63,2.89.47,3.62l29.73,19.87c2.47,1.65,4.79-2.34,2.33-4l-29.73-19.87.47,3.62,26.47-20.83c2.33-1.83-1-5.08-3.26-3.26Z"/></g></g></svg>