<svg xmlns="http://www.w3.org/2000/svg" viewBox="0 0 259.2 181.74"><defs><style>.cls-1{fill:#444d9f;}.cls-2{fill:#fff;}</style></defs><title>Asset 15</title><g id="Layer_2" data-name="Layer 2"><g id="Layer_1-2" data-name="Layer 1"><polygon class="cls-1" points="147.16 6.13 44.63 0 11.95 18.26 0 102.82 11.95 174.01 37.57 181.74 217.58 174.01 259.2 117.35 227.72 7.97 147.16 6.13"/><path class="cls-2" d="M63.63,23.3,84.45,46.19c1.79,2,4.71-1,2.92-2.92L66.55,20.38c-1.79-2-4.71,1-2.92,2.92Z"/><path class="cls-2" d="M107.1,19.65,85.8,43.07c-3.07,3.38-2.45,4.27-1.73,8.87L86.57,68a2.1,2.1,0,0,0,2.54,1.44l.41-.07A2.05,2.05,0,0,0,91,68l.15-.48a2.06,2.06,0,0,0-.53-2l-.3-.3c-1.87-1.89-4.79,1-2.92,2.92l.3.3-.53-2-.15.48,1.44-1.44L88,65.5l2.54,1.44L87.31,46.11l-.53,2L110,22.57c1.78-2-1.13-4.89-2.92-2.92Z"/><path class="cls-2" d="M103.94,49.27a9.72,9.72,0,0,0-2.83,13.49c3.13,4.6,10,5,14.24,1.73,4.47-3.48,4.8-10.32,1.51-14.72-3.72-5-11.11-5.49-16-2.05-2.16,1.51-.1,5.09,2.08,3.57,3-2.12,7.53-2.46,10.24.47,2.19,2.37,2.53,6.67.17,9.05-2.13,2.15-6.21,2.43-8.38.18A5.51,5.51,0,0,1,106,52.83c2.24-1.41.17-5-2.08-3.57Z"/><path class="cls-2" d="M125,36.89c-.25,6.86-1.37,14.29-.52,21.11.42,3.39,2.05,7.28,6,7.61,4.9.4,7.27-4.46,7.83-8.55,1-7.46,1.24-15.11,1.84-22.62.21-2.65-3.92-2.64-4.13,0l-1,13.11c-.15,1.87-.29,3.75-.45,5.62q-.14,2.13-.41,4.25.09,2.54-2.77,1.63-3.14,1.48-2.79-1.66a19,19,0,0,1-.06-2.43c0-1.8.13-3.62.2-5.42l.47-12.65c.1-2.66-4-2.65-4.13,0Z"/><path class="cls-2" d="M137.56,35.65c2.66,0,2.66-4.13,0-4.13s-2.66,4.13,0,4.13Z"/><path class="cls-2" d="M147.8,32.17l-1.62,6.61c-.63,2.58,3.35,3.68,4,1.1l1.62-6.61c.63-2.58-3.35-3.68-4-1.1Z"/><path class="cls-2" d="M154.49,39.37V64.15c0,2.66,4.13,2.66,4.13,0V39.37c0-2.66-4.13-2.66-4.13,0Z"/><path class="cls-2" d="M157.29,54a15.27,15.27,0,0,1,10.2-12.16c2.51-.84,1.43-4.83-1.1-4a19.34,19.34,0,0,0-13.08,15c-.44,2.6,3.54,3.72,4,1.1Z"/><path class="cls-2" d="M167.87,55.09c5.63.59,14.76-.67,13.83-8.52a6,6,0,0,0-5.41-5.15c-3.2-.4-6,1.28-7.86,3.77-3.44,4.57-5,12.79,0,16.91,3.8,3.15,10.74,1.83,11.83-3.36.54-2.59-3.44-3.7-4-1.1-.49,2.37-3.69,2.55-5.31,1.18-2.51-2.13-1.58-6.5-.41-9.06a7.55,7.55,0,0,1,3-3.71c1.86-1,4.56-.35,3.9,2.21-1,3.8-6.74,3-9.59,2.7-2.64-.28-2.62,3.85,0,4.13Z"/><path class="cls-2" d="M52.21,81.77a55.88,55.88,0,0,0-2.06,26.44c.83,4.65,3.15,10.23,8.49,10.91,6.11.78,9.85-5.11,10.74-10.33,1.59-9.38,1.06-19.49,1.47-29,.11-2.66-4-2.65-4.13,0l-.77,17.85c-.19,4.54.94,16-5.3,17.25-6.48,1.33-6.92-9.88-7.07-13.63a54.24,54.24,0,0,1,2.61-18.41c.8-2.54-3.19-3.63-4-1.1Z"/><path class="cls-2" d="M97.26,81.09c-5.14-9.69-20.68-5.19-18,6.14a10,10,0,0,0,3.45,5.63c2.86,2.27,6.73,1.66,9.62,3.83,8.91,6.68-.23,19.52-9.66,14.33-2.33-1.28-4.42,2.28-2.08,3.57,9,5,21.24-1.8,19.37-12.66a13.3,13.3,0,0,0-8.45-10.34c-4-1.39-9.11-1.73-8.32-7.47s8.23-5.32,10.55-.94c1.25,2.35,4.81.26,3.57-2.08Z"/><path class="cls-2" d="M108.65,84.38h10.74c2.66,0,2.66-4.13,0-4.13H108.65c-2.66,0-2.66,4.13,0,4.13Z"/><path class="cls-2" d="M111.55,82.32v28.91c0,2.66,4.13,2.66,4.13,0V82.32c0-2.66-4.13-2.66-4.13,0Z"/><path class="cls-2" d="M107.82,114.82l10.73-.87c2.63-.21,2.65-4.34,0-4.13l-10.73.87c-2.63.21-2.65,4.34,0,4.13Z"/><path class="cls-2" d="M133.51,78.16l-2.45,30.56c-.21,2.65,3.92,2.64,4.13,0l2.45-30.56c.21-2.65-3.92-2.64-4.13,0Z"/><path class="cls-2" d="M134.08,79.26l18.44,31.33a2.09,2.09,0,0,0,3.77-.49l11.14-34.73c.81-2.54-3.17-3.62-4-1.1L152.31,109l3.77-.49L137.65,77.18c-1.35-2.29-4.92-.21-3.57,2.08Z"/><path class="cls-2" d="M196,75.31c-13.22-6.53-29.7,3.17-25.34,18.77,3.86,13.83,22.68,14.76,29.69,3.06a2.08,2.08,0,0,0-1.23-3l-12.05-3v4l13-2.48c2.61-.5,1.5-4.48-1.1-4l-13,2.48c-2,.39-1.9,3.5,0,4l12.05,3-1.23-3c-5.19,8.66-19.21,8.27-22.14-2.07-3.37-11.9,9.23-19.06,19.27-14.1,2.37,1.17,4.47-2.39,2.08-3.57Z"/><path class="cls-2" d="M43.07,131.59l5.12,21.23c.53,2.18,3.27,1.72,4,0l3.72-8.95c1-2.45-3-3.52-4-1.1l-3.72,8.95h4L47.05,130.5c-.62-2.58-4.61-1.49-4,1.1Z"/><path class="cls-2" d="M53,141.24l6,12.92c.79,1.7,3.29,1.07,3.77-.49l6.1-19.75c.79-2.54-3.2-3.63-4-1.1l-6.1,19.75,3.77-.49-6-12.92c-1.11-2.41-4.67-.32-3.57,2.08Z"/><path class="cls-2" d="M76.5,133.48l-2,17.31c-.3,2.64,3.83,2.62,4.13,0l2-17.31c.3-2.64-3.83-2.62-4.13,0Z"/><path class="cls-2" d="M76.86,126.09v.83a2.06,2.06,0,0,0,4.13,0v-.83a2.06,2.06,0,0,0-4.13,0Z"/><path class="cls-2" d="M87.92,128.56l.65,19.83c.09,2.65,4.22,2.66,4.13,0l-.65-19.83c-.09-2.65-4.22-2.66-4.13,0Z"/><path class="cls-2" d="M91.33,137.42l11.8-6.37L100,129.27,102.69,150c.33,2.6,4.47,2.63,4.13,0l-2.67-20.74a2.1,2.1,0,0,0-3.11-1.78l-11.8,6.37c-2.34,1.26-.26,4.83,2.08,3.57Z"/><path class="cls-2" d="M127.06,127.19a15.16,15.16,0,0,0-14.27,6.23c-2.65,3.78-3.75,10.17.39,13.43,4.36,3.43,9.5-.26,11.6-4.34,4.13-8,6.54-17.29,9.66-25.72l-4-1.1a74.8,74.8,0,0,0-3.88,33.5c.29,2.61,4.42,2.64,4.13,0a72.09,72.09,0,0,1,3.74-32.41c.89-2.52-3.07-3.57-4-1.1L126,127.77c-1.38,3.73-2.47,9.37-4.77,12.65q-.67,2.56-3.59,1.52-3.56,1.61-3.07-1.67c-.36-1.76,1.18-4.08,2.29-5.36a11.31,11.31,0,0,1,10.21-3.6c2.63.33,2.61-3.8,0-4.13Z"/><path class="cls-2" d="M141.67,131.23a7.6,7.6,0,0,0-4.55,10.42A8.38,8.38,0,0,0,148.55,145c9.86-5.67,2.37-19.87-7.81-17.67-2.6.56-1.5,4.54,1.1,4,4.82-1,9.51,4.73,6,8.92a4.35,4.35,0,0,1-5.78,1,3.37,3.37,0,0,1,.65-6c2.49-.87,1.42-4.86-1.1-4Z"/><path class="cls-2" d="M156.92,124.44,158.23,148c.1,1.85,2.95,3.06,3.85,1l6.37-14.25h-3.57l5.32,12.17c.8,1.84,3.19.93,3.77-.49l9.49-23.05c1-2.46-3-3.53-4-1.1L170,145.35l3.77-.49-5.32-12.17a2.07,2.07,0,0,0-3.57,0l-6.37,14.25,3.85,1-1.31-23.53c-.15-2.64-4.28-2.66-4.13,0Z"/><path class="cls-2" d="M203.21,121.07c-3.89-6.25-13.69-5.09-14.52,2.79-.42,4,2.24,6.39,5.17,8.6,3.15,2.37,5.45,6.19,2.86,10s-8.08,3-10.53-.32c-1.56-2.12-5.15-.06-3.57,2.08,4.4,6,14,6.86,18-.24a11.08,11.08,0,0,0,0-10.65,15,15,0,0,0-4-4c-1.79-1.46-4.52-2.81-3.61-5.73,1-3.28,5.11-3,6.72-.41,1.4,2.25,5,.18,3.57-2.08Z"/><path class="cls-2" d="M37.63,48l21.47,1c2.66.12,2.65-4,0-4.13l-21.47-1c-2.66-.12-2.65,4,0,4.13Z"/><path class="cls-2" d="M39.86,60.61,63,57.25c2.62-.38,1.51-4.36-1.1-4L38.76,56.62c-2.62.38-1.51,4.36,1.1,4Z"/><path class="cls-2" d="M43.13,71.09l17.34-2.48c2.62-.37,1.51-4.35-1.1-4L42,67.11c-2.62.37-1.51,4.35,1.1,4Z"/><path class="cls-2" d="M185.45,37.17l21.48-2.41c2.61-.29,2.64-4.43,0-4.13L185.45,33c-2.61.29-2.64,4.43,0,4.13Z"/><path class="cls-2" d="M189.6,47.08l16.52.83c2.66.13,2.65-4,0-4.13l-16.52-.83c-2.66-.13-2.65,4,0,4.13Z"/><path class="cls-2" d="M192.06,59l18.17.77c2.66.11,2.65-4,0-4.13l-18.17-.77c-2.66-.11-2.65,4,0,4.13Z"/><path class="cls-2" d="M46.6,164l161.08-8.53c2.64-.14,2.66-4.27,0-4.13L46.6,159.87c-2.64.14-2.66,4.27,0,4.13Z"/><path class="cls-2" d="M214.82,118.89c-2.36-5.36,5.12-9.68,8.18-4.72,2.55,4.12-2,8.72-4.82,11.07-3.6,3-7.32,5.48-9.55,9.73-1.23,2.35,2.33,4.44,3.57,2.08,3.72-7.11,23.66-16.74,12.84-26.78-7.65-7.1-17.64,2-13.78,10.7,1.07,2.43,4.63.33,3.57-2.08Z"/><path class="cls-2" d="M210.4,143.71a2.33,2.33,0,0,0-2.51.16,2.42,2.42,0,0,0-.92,1.94,2.51,2.51,0,0,0,.72,1.77,2.34,2.34,0,0,0,2.72.32,2.07,2.07,0,0,0,.74-2.83,2.12,2.12,0,0,0-2.83-.74l.37-.17h1.1l1.26,1.26q.05.64.05.38t0,.17a1.68,1.68,0,0,1-1.29,1.47h-1.1l-.37-.17a2.12,2.12,0,0,0,2.83-.74,2.09,2.09,0,0,0-.74-2.83Z"/></g></g></svg>