<svg xmlns="http://www.w3.org/2000/svg" viewBox="0 0 199.46 163.54"><defs><style>.cls-1{fill:#ed3e95;}</style></defs><title>Asset 52</title><g id="Layer_2" data-name="Layer 2"><g id="Layer_1-2" data-name="Layer 1"><path class="cls-1" d="M14.54,5.22C13,6.7,13.16,9.81,13,11.75c-.37,4.38-.47,8.78-.67,13.17s-.87,8.52-1.43,12.8a71.13,71.13,0,0,0-.76,9.65,34.58,34.58,0,0,0,.25,4.15c.11.87,1,3.08.92,3.77l4.22.57c0-.63,0-1.26,0-1.9,0-2.46-3.53-2.87-4.22-.57l0,.1c-.79,2.65,3.35,3.79,4.14,1.14l0-.1L11.27,54c0,.63-.06,1.26,0,1.9,0,2.31,3.85,3.05,4.22.57.27-1.84-.57-3.67-.8-5.51a42.34,42.34,0,0,1,.07-9.18c.44-4.66,1.41-9.26,1.76-13.93.27-3.61.32-7.25.5-10.87.09-1.71,0-8.07.61-8.69,2-1.93-1.06-5-3-3Z"/><path class="cls-1" d="M2.06,11.55c9.62.84,19.07-1.83,28.67-2,2.76,0,2.77-4.34,0-4.29-9.6.17-19,2.84-28.67,2-2.75-.24-2.74,4.05,0,4.29Z"/><path class="cls-1" d="M25.24,16.07c-.11,10.83.27,21.67-.66,32.48-.21,2.38,3.87,3,4.22.57A40.57,40.57,0,0,1,35.88,30.5l-2.42,1c4.85,1.34,3.39,16,3.12,19.91-.19,2.76,4.11,2.75,4.29,0,.43-6.32,1.9-21.8-6.28-24.05a2.22,2.22,0,0,0-2.42,1A42.82,42.82,0,0,0,24.66,48l4.22.57c.93-10.81.56-21.64.66-32.48,0-2.76-4.27-2.77-4.29,0Z"/><path class="cls-1" d="M49.14,40.59c5.44-2.74,18.18-8.69,13.42-16.93-4.62-8-14.71-.35-17.15,5.32C42.68,35.34,43,44.07,47.33,49.7c4.83,6.33,11.93,4,16.92-.78,2-1.92-1-5-3-3-3.49,3.36-7.88,5.31-11,.5-2.29-3.55-2.68-8.48-1.87-12.52a13.82,13.82,0,0,1,3-6.48c1.45-1.63,5.83-4.45,7.48-1.55,2.71,4.76-8.91,9.55-11.88,11.05-2.47,1.24-.3,4.95,2.17,3.71Z"/><path class="cls-1" d="M86,1.5c-2.38,7.59-2.59,15.7-2.67,23.59-.06,6.2-.56,12.54,1,18.61,1,3.88,2.69,9.23,6.47,11.31,4.56,2.5,8.24-1.67,10.5-5.19,1.5-2.33-2.22-4.49-3.71-2.17-1.13,1.75-2.66,4.53-5,3.39-1.44-.71-2.39-3.25-2.94-4.62a29.39,29.39,0,0,1-2.09-10.34c-.21-10.94-.71-22.91,2.59-33.45C91,0,86.81-1.14,86,1.5Z"/><path class="cls-1" d="M77.39,30.21H96.06c2.76,0,2.77-4.29,0-4.29H77.39c-2.76,0-2.77,4.29,0,4.29Z"/><path class="cls-1" d="M108,38.14c5.89-2.17,16.71-9,14.35-16.75-2.29-7.49-12-2.08-14.15,2.57-2.61,5.71-2.39,13.94-.08,19.7,2.6,6.49,8.22,6.65,12.83,1.92,1.93-2-1.1-5-3-3-3.05,3.13-4.93,2.54-6.19-1.55a26,26,0,0,1-.49-12.34,9.25,9.25,0,0,1,2-4.61c1.1-1.2,4.24-3.2,5.06-1.05,1.63,4.26-8.42,9.9-11.4,11-2.57.95-1.46,5.1,1.14,4.14Z"/><path class="cls-1" d="M125.14,9.25c6.66-4,9.84.87,10.88,7.24,1.25,7.7-1.64,15.22-1.75,22.9-.07,5.44,4.15,19.72,10.31,9.76,1.46-2.36-2.26-4.52-3.71-2.17q-1.76,1.3-.26,1.45a5.45,5.45,0,0,1-.85-1.64c-.27-1.18-.68-2.3-.9-3.5a31.88,31.88,0,0,1,.26-9.94c.81-5.9,2.05-11.54,1.11-17.5C138.74,6.38,132.33-.09,123,5.55c-2.36,1.42-.21,5.14,2.17,3.71Z"/><path class="cls-1" d="M137.91,29.65c-6.4-10-19.24,7.07-11.33,11.47,3,1.68,7,0,9.89-1.2a2.16,2.16,0,0,0,.77-2.94,2.2,2.2,0,0,0-2.94-.77,19.74,19.74,0,0,1-3.62,1.17,3.46,3.46,0,0,1-1.07.12,5.91,5.91,0,0,1-.64,0c.42,0,.05,0-.14-.05-.42-.11.07.06,0,0s-.26-.17-.39-.23c.54.24,0,.05.07,0-.27.19.52.16,0,0-.28-.09.11.16,0,0a1,1,0,0,1-.09-.37c.08.67,0-.25,0-.5,0-.4-.09.4,0,0,0-.17.07-.35.12-.52a9,9,0,0,1,.32-1c-.17.44.21-.44.32-.63.19-.36.41-.69.63-1,0-.07.34-.47.19-.27s.22-.26.27-.32c.25-.27.5-.53.77-.78s.29-.25.44-.37c-.29.23-.09.06.08,0s1.1-.54.55-.34l.47-.15c.38-.13.28-.06.11,0a1.61,1.61,0,0,1,.47,0c-.45-.09-.19-.08,0,0,.45.22-.33-.16.14.06.18.09.44.33.13.06a2.34,2.34,0,0,1,.7.81c1.48,2.32,5.2.17,3.71-2.17Z"/><path class="cls-1" d="M149.32,10.83c-2.33,9.24-3,18.77-4.72,28.13a2.22,2.22,0,0,0,1,2.42l.27.15A2.18,2.18,0,0,0,149,40.25l.23-.44c1.39-2.4-2.32-4.56-3.71-2.17a8.49,8.49,0,0,0-.66,1.46L148,37.83l-.27-.15,1,2.42c1.72-9.36,2.38-18.89,4.72-28.13.68-2.68-3.46-3.82-4.14-1.14Z"/><path class="cls-1" d="M151.91,22.48c.76-1,2.35-3.61,3.72-4.06s.51-.68,1.37.22c1.42,1.48,1.27,5.76,1.39,7.6.32,5.21-.12,10.43.23,15.63l4.22-.57c-1.16-3.71.09-8.21,1.13-11.82.86-3,2.55-9.91,5.69-11.44,4.41-2.15,2.55,10.21,2.4,12.18-.44,5.73.83,11.48,1.94,17.08.54,2.71,4.68,1.56,4.14-1.14-.89-4.48-2-9.1-1.93-13.69,0-4.16,1.16-8.37.46-12.53-.66-3.89-3.86-8.24-8.24-6.22S162,21.86,160.57,26c-1.68,4.9-3.49,11.33-1.88,16.48.69,2.21,4.39,1.94,4.22-.57-.51-7.57.91-15.61-1.26-23-2.64-9-9.66-3.63-13.44,1.44-1.65,2.22,2.07,4.36,3.71,2.17Z"/><path class="cls-1" d="M17.32,68.16C16,76,15,83.82,14,91.67c-.55,4.18-1.29,8.33-1.84,12.5-.12.93-.23,1.87-.33,2.8-.15,1.37-1.19,4,.33,3.68-2.71.53-1.56,4.67,1.14,4.14,1.8-.35,2.07-2.17,2.36-3.68.73-3.73.91-7.64,1.48-11.4,1.54-10.13,2.6-20.32,4.32-30.42.46-2.7-3.68-3.86-4.14-1.14Z"/><path class="cls-1" d="M35.87,68.55C33.2,72,11.34,99.05,7.58,95.22c-1.94-2-5,1.06-3,3,5,5.06,13.48-3.81,16.82-7A182.34,182.34,0,0,0,38.91,71.59c1.69-2.15-1.33-5.21-3-3Z"/><path class="cls-1" d="M8.24,94.92c3.52-4,8.88-8.93,14.75-7.28,4.71,1.33,6.82,5.83,8.64,9.89,2.41,5.4,4.74,12.94,11.19,14.6,2.68.69,3.82-3.45,1.14-4.14-4.42-1.14-6.29-7.29-7.92-11s-3.28-7.73-6.58-10.52c-8.31-7-18.11-1.65-24.26,5.41-1.81,2.08,1.22,5.12,3,3Z"/><path class="cls-1" d="M49.91,72.73c-.91,8.76-2,17.33-2,26.16,0,2.77,4.24,2.76,4.29,0q0-.41,0-.83c0-2.76-4.28-2.77-4.29,0q0,.41,0,.83H52.2c0-8.83,1.09-17.4,2-26.16.29-2.75-4-2.73-4.29,0Z"/><path class="cls-1" d="M49.54,72.48c6.52,11.34,11.18,23.6,17.22,35.18,1,2,3.89.91,4-1.08.56-9.69.18-20.91,5.17-29.61C80.4,69.16,89.24,68.21,97.3,66.8c2.72-.47,1.57-4.61-1.14-4.14C87.45,64.18,78.23,65.57,73,73.55c-6.22,9.45-5.9,22.19-6.52,33l4-1.08c-6-11.59-10.7-23.84-17.22-35.18-1.38-2.4-5.09-.23-3.71,2.17Z"/><path class="cls-1" d="M104.72,71.92c-9.66.08-21.14,2.58-22.8,14-1.56,10.67,9.23,16.46,18.37,16.81,6.25.24,12.61-2,15.09-8.21,2.13-5.31.93-11.73-2-16.53-3-5.08-8.58-8.81-14.6-6.63-2.58.93-1.47,5.08,1.14,4.14,9.39-3.4,15,12.48,10.61,19-3.89,5.76-14.26,4.66-19.34,1.51-5.78-3.58-6.87-11-1.77-15.79,4-3.8,10.08-4,15.27-4,2.76,0,2.77-4.32,0-4.29Z"/><path class="cls-1" d="M115.91,65.4c.86,13.36,5.29,26.06,7.56,39.18.31,1.82,3.11,2.08,3.92.51,4-7.7,3.45-16.71,5.57-25h-4.14c3.07,8.81,5.27,18,11.72,25.09a2.16,2.16,0,0,0,3.37-.43c6-12.43,5-27.32,6.3-40.73.27-2.75-4-2.73-4.29,0-1.25,12.58-.07,26.92-5.71,38.56l3.37-.43C137.67,95.73,135.76,87,133,79c-.67-1.91-3.59-2.17-4.14,0-2,7.81-1.37,16.65-5.13,23.93l3.92.51c-2.2-12.73-6.57-25.09-7.4-38-.18-2.74-4.47-2.76-4.29,0Z"/><path class="cls-1" d="M174.8,65.5c-2.71-10.15-12.8-5-16.33,1.67-1.92,3.65-2.49,8.19-.29,11.86,3.65,6.08,13.2,5.44,15.13,12.82,2.4,9.2-7.76,16.53-15.46,18.14-7.21,1.51-14.72.46-22,.53-19.43.19-38.68,3.34-58.14,3.41-2.76,0-2.77,4.29,0,4.29h1.7c2.76,0,2.77-4.29,0-4.29h-1.7v4.29c17.7-.07,35.17-2.58,52.82-3.27,12-.48,26.59,2.65,37.34-4.33,9.21-6,14.88-20.82,3.6-27.83-5-3.09-12.58-4.61-9.81-12.24,1.18-3.25,7.27-10.47,9-3.9.71,2.67,4.86,1.54,4.14-1.14Z"/><path class="cls-1" d="M4,136c1.37,6.45,2.76,12.88,4.7,19.18.76,2.44,3.94,1.75,4.22-.57.61-5.17,1.93-11.28,5.87-15l-3.59-.95c2,5,2.56,10.45,5.66,15a2.17,2.17,0,0,0,3.71,0c3.82-6.68,5-14.33,6.9-21.67.7-2.68-3.44-3.82-4.14-1.14-1.83,7-2.85,14.32-6.47,20.65h3.71c-2.87-4.19-3.37-9.31-5.23-13.94a2.18,2.18,0,0,0-3.59-.95c-4.83,4.51-6.38,11.69-7.12,18l4.22-.57c-1.95-6.3-3.34-12.73-4.7-19.18-.57-2.7-4.71-1.56-4.14,1.14Z"/><path class="cls-1" d="M37.24,122.07c-.3,6.51-1.7,13-2.38,19.43-.5,4.74-1.59,11.44,1.34,15.65,1.57,2.25,5.29.11,3.71-2.17-2.77-4-1-11.56-.47-16,.69-5.63,1.83-11.25,2.09-16.93.13-2.76-4.17-2.76-4.29,0Z"/><path class="cls-1" d="M38.91,143.59c1.37-1.68,3.12-3.7,5.32-4.25,2.7-.68,3.78,2.13,3.89,4.32.17,3.31-1.38,7.91.75,10.83,1.61,2.21,5.34.07,3.71-2.17-1.29-1.77-.17-5.57-.15-7.63,0-2.73-.43-5.39-2.33-7.47-4.56-5-10.87-.81-14.22,3.32-1.73,2.13,1.29,5.18,3,3Z"/><path class="cls-1" d="M55.81,129.25c2.5-1.9,4.58-2.86,6.26.27,1.52,2.84,1.87,6.53,2.19,9.68.46,4.46-.52,10.43,1.27,14.61,1.09,2.53,4.79.35,3.71-2.17-.6-1.39-.24-6.18-.37-8.35a60.26,60.26,0,0,0-1.58-11.85c-1.9-7.1-7.08-10.89-13.65-5.91-2.17,1.65,0,5.38,2.17,3.71Z"/><path class="cls-1" d="M65.14,136.21c-4-1.78-8-.27-9.61,3.84-1.24,3.16-.4,7.53,3.27,8.55,2.67.74,5.48-.62,7.67-2s.17-5.2-2.17-3.71a12,12,0,0,1-3.22,1.54c-.1,0-.7.12-.22.07-.18,0-.36,0-.54,0-.49,0-.14,0-.16,0a2.16,2.16,0,0,1-.5-.14c.75.26,0,0,0,0q-.28-.19.11.1l-.15-.14c-.38-.33.15.31,0,0l-.2-.35c-.2-.34.1.44,0-.07,0-.16-.08-.32-.12-.48-.11-.46,0,.47,0,0,0-.18,0-.35,0-.53s0-.36,0-.54c0,.36-.05.21,0,0s.4-1.19.18-.69c.13-.29.3-.56.45-.84.28-.5-.09,0,.13-.19l.32-.34c.16-.18.33-.26,0-.06.17-.12.35-.22.53-.32.37-.22-.38.09.06,0l.46-.12c.42-.1-.4,0,.17,0,.11,0,.74.06.23,0a4.86,4.86,0,0,1,.57.12c.08,0,.77.28.48.15a2.21,2.21,0,0,0,2.94-.77,2.16,2.16,0,0,0-.77-2.94Z"/><path class="cls-1" d="M79.24,128.07c-.08,8-3,15.81-2.64,23.89.1,2.48.37,5.95,3,7.16,3.34,1.57,6.67-2,8.68-4.2s-1.15-5.07-3-3c-.74.79-2.5,3.14-3.72,3.24-.19,0-.06.17-.39-1-.77-2.78-.12-6.35.18-9.15.6-5.58,2.21-11.26,2.26-16.88,0-2.76-4.27-2.77-4.29,0Z"/><path class="cls-1" d="M74,141.47c3.69-.68,7.7,0,11.43.08,2.76,0,2.77-4.27,0-4.29-4.16,0-8.44-.69-12.57.08-2.71.5-1.56,4.64,1.14,4.14Z"/><path class="cls-1" d="M95.32,128.83a42.07,42.07,0,0,0-1.41,8.57c-.27,2.75,4,2.73,4.29,0A36.29,36.29,0,0,1,99.46,130c.83-2.64-3.32-3.77-4.14-1.14Z"/><path class="cls-1" d="M110.58,137.65c-3.63-5.69-11-1.6-11.48,4.28-.21,2.83,1.64,4.13,3.34,6a24,24,0,0,1,3.44,4.41c1.62,3.26-3.46,5.18-5.31,2.61-1.6-2.22-5.33-.08-3.71,2.17,3.43,4.76,12.89,4.16,14-2.44.47-2.89-1.66-5-3.27-7.06-1-1.32-2.13-2.49-3.17-3.77-.72-.88-1.08-.86-.88-2.25.16-1.11,2.17-3.67,3.35-1.82,1.48,2.32,5.2.17,3.71-2.17Z"/><path class="cls-1" d="M130.65,122.16c-2.21,6.15-1.89,13.85-1.94,20.27,0,4.73-1,13.25,2.49,17.15,1.84,2.07,4.87-1,3-3-1.1-1.23-.92-4.71-1-6.21-.23-3.38-.24-6.77-.17-10.15.11-5.4-.1-11.72,1.75-16.88.94-2.61-3.21-3.73-4.14-1.14Z"/><path class="cls-1" d="M132.8,141.3c1.46-4.64,8.08.41,8.55,3.44.8,5.12-4.95,11.06-10.05,9.25-2.61-.93-3.73,3.22-1.14,4.14,8.59,3,18-7.44,15-15.78-2.39-6.71-13.84-10.73-16.51-2.19-.83,2.64,3.32,3.77,4.14,1.14Z"/><path class="cls-1" d="M153.14,143.92c4.31-1.91,12.22-7.93,8.62-13.54-3.22-5-9.73,1.79-11.06,5-1.74,4.24-1.69,10.15.67,14.16,2.92,5,8,3.4,11.54,0,2-1.93-1.05-5-3-3-1.77,1.71-3.76,3.12-5.08.33a13.35,13.35,0,0,1-.67-8c.45-2.15,2.1-5.47,4.59-5.82-.88.12-.14-.3-.54.46-.18.33-.15.87-.32,1.24a8.18,8.18,0,0,1-2.1,2.41,18.4,18.4,0,0,1-4.77,3.08c-2.52,1.12-.34,4.82,2.17,3.71Z"/><path class="cls-1" d="M173.14,131.55c-9.86-4.91-6.94,9.76-4.17,14.23,2,3.19,4.71,6.76,1.08,10.23-1.85,1.77-5,2.29-7.41,2.6-3.18.41-7.76.73-10.67.05-2.69-.63-3.84,3.51-1.14,4.14,6.17,1.45,16.28.93,21.4-3.05a10.07,10.07,0,0,0,3.12-11.68c-1.08-2.6-3.18-4.65-4.22-7.26-.42-1-1.75-6.36-.14-5.56,2.47,1.23,4.64-2.47,2.17-3.71Z"/><path class="cls-1" d="M181.24,108.07c.17,10.14-1.15,20.18,0,30.32.88,7.77,4.82,18.4,13.66,10.53,2.07-1.84-1-4.87-3-3-2.93,2.61-4.19,1.56-5.25-1.91-1.31-4.27-1.46-8.95-1.58-13.38-.21-7.52.62-15,.5-22.53,0-2.76-4.34-2.77-4.29,0Z"/><path class="cls-1" d="M168.15,124.8c9.72,1.4,19.41,3.08,29.24,3.41,2.76.09,2.76-4.2,0-4.29-9.45-.32-18.76-1.91-28.1-3.26-2.7-.39-3.87,3.75-1.14,4.14Z"/></g></g></svg>