<svg xmlns="http://www.w3.org/2000/svg" viewBox="0 0 134.8 118.42"><defs><style>.cls-1{fill:#ed3e95;}</style></defs><title>Asset 45</title><g id="Layer_2" data-name="Layer 2"><g id="Layer_1-2" data-name="Layer 1"><path class="cls-1" d="M3.18,6.65C4.63,10.71,6,14.83,7.19,19c.83,2.91,1.64,5.73,3.67,8a1.51,1.51,0,0,0,2.51-.66c1.32-4,2.25-8.11,3.32-12.19l-2.74.36c1.88,4,3.52,8.1,5.16,12.2.49,1.22,2.58,1.62,2.89,0,.85-4.48,1.34-9.16,2.93-13.46,1.21-3.28,3-6.35,3.27-9.89.15-1.92-2.85-1.91-3,0-.29,3.64-2.5,6.88-3.6,10.3-1.27,4-1.72,8.19-2.5,12.26H22c-1.75-4.34-3.48-8.68-5.47-12.92a1.52,1.52,0,0,0-2.74.36c-1.07,4.08-2,8.18-3.32,12.19L13,24.89c-2.16-2.46-2.58-5.93-3.54-9C8.37,12.57,7.26,9.19,6.07,5.86c-.65-1.8-3.55-1-2.89.8Z"/><path class="cls-1" d="M27.55,21c3.35,1.88,10.64-.23,10.36-4.89S31,12,28.63,14.53c-4.74,5-.3,17.85,7.16,12.54,1.56-1.11.06-3.71-1.51-2.59-3.61,2.57-5.26-2.75-4.62-5.61.42-1.89,2.25-4.06,4.44-3.25,1.62.6.11,1.86-.82,2.38-1.19.66-3,1.09-4.21.39-1.69-.95-3.2,1.64-1.51,2.59Z"/><path class="cls-1" d="M41.27,7.14c-.22,1.17-.48,2.34-.64,3.52a1.55,1.55,0,0,0,1,1.85,1.51,1.51,0,0,0,1.85-1c.16-1.18.42-2.35.64-3.52a1.54,1.54,0,0,0-1-1.85,1.51,1.51,0,0,0-1.85,1Z"/><path class="cls-1" d="M48.31,3.29c-2.15,7.32-.51,15-2.24,22.41-.44,1.88,2.45,2.68,2.89.8,1.73-7.37.1-15.11,2.24-22.41.54-1.86-2.35-2.65-2.89-.8Z"/><path class="cls-1" d="M55.35,2c-1,3.6-.75,7.17-1,10.86-.28,4.45-1.54,8.75-1.63,13.22,0,1.93,3,1.93,3,0,.08-4,1.16-7.82,1.53-11.78s-.08-7.72,1-11.51A1.5,1.5,0,0,0,55.35,2Z"/><path class="cls-1" d="M69.72,11.07c1.7-1.06,3.62-1.79,4.74.41a8.33,8.33,0,0,1,.19,5.61c-.71,2.77-2.37,5.84-.67,8.62,2.22,3.62,7.94,3.35,9.23-.8.57-1.85-2.32-2.64-2.89-.8a2,2,0,0,1-3.12.68c-1.76-1.35-.62-3.89-.07-5.61a13.23,13.23,0,0,0,.54-7.6c-1.31-4.74-5.6-5.51-9.46-3.1-1.64,1-.13,3.62,1.51,2.59Z"/><path class="cls-1" d="M77.08,15.84c-2.87-1.23-6.35-1.36-8.34,1.44-1.28,1.8-1.35,4.76.78,6,1.49.85,3.24.35,4.68-.34,1.74-.83.22-3.42-1.51-2.59a4.1,4.1,0,0,1-.81.3s-.47.1-.28.07-.25,0-.3,0-.46,0,0,0a.76.76,0,0,1-.29-.08c.39.19.09,0,0,0s.06.18,0,0-.18-.13,0,0a.94.94,0,0,1-.14-.22c-.15-.25.07.3,0,0,0-.1-.05-.21-.08-.31s0,.35,0,0c0-.11,0-.23,0-.34,0-.3-.08.31,0,0,0-.1.06-.2.08-.3s.16-.41,0,0a2.57,2.57,0,0,1,.15-.3l.17-.29c.17-.28-.16.17,0-.06l.28-.3c.22-.22,0,0,.07-.07s.72-.41.47-.31a4,4,0,0,1,.79-.23c.43-.08-.27,0,.19,0h.47a5.6,5.6,0,0,1,2,.48,1.55,1.55,0,0,0,2.05-.54,1.51,1.51,0,0,0-.54-2.05Z"/><path class="cls-1" d="M86.33,6.73c-4-1.22-9.05,4.43-4.57,7,1.28.74,4.86.85,4.91,2.87,0,1.6-2.87,2.53-3.84,1.37-1.25-1.48-3.36.65-2.12,2.12,2.54,3,8.3.89,8.92-2.78.36-2.1-1.13-4.09-2.93-5-.87-.44-2.13-.44-2.92-1-.62-.41-.85-.05-.53-1s1.6-1,2.28-.77c1.85.57,2.64-2.33.8-2.89Z"/><path class="cls-1" d="M93.76,1.05c-1.2,4.12-1,8.27-1.22,12.51s-1.32,8.54-1.39,12.86c0,1.93,3,1.93,3,0,.07-3.83,1-7.57,1.29-11.38.39-4.44,0-8.85,1.22-13.19C97.2,0,94.3-.8,93.76,1.05Z"/><path class="cls-1" d="M99.91,9.35c-2.73,2.12-8.74,4.77-6.55,9.12,1.71,3.39,5.35,6.8,8.46,8.92,1.6,1.09,3.1-1.51,1.51-2.59a29.42,29.42,0,0,1-6.4-6.37c-1.37-1.81-.91-2.52.86-3.91,1.37-1.08,2.87-2,4.25-3.05s-.61-3.29-2.12-2.12Z"/><path class="cls-1" d="M12.79,39.94c.85-2.49-.19-5.34-3-5.73-2.61-.35-4.2,1.86-4.88,4.09a38.92,38.92,0,0,0-1.1,9.09c-.15,2.79-.42,6,.85,8.6.85,1.73,3.44.21,2.59-1.51-1.15-2.35-.53-6-.34-8.55.1-1.32.22-2.63.37-3.95.07-.54.11-1.1.22-1.64a6.42,6.42,0,0,1,.4-1.47q.25-1.77,2,.28c-.63,1.83,2.27,2.62,2.89.8Z"/><path class="cls-1" d="M1.34,46.75c2.37.84,5.11.49,7.32,1.77a1.5,1.5,0,0,0,1.51-2.59c-2.5-1.45-5.39-1.13-8-2.07-1.82-.65-2.61,2.25-.8,2.89Z"/><path class="cls-1" d="M12.61,44.23a8.26,8.26,0,0,0,.22,7.37,3.21,3.21,0,0,0,2.65,1.83,3.79,3.79,0,0,0,3-2c1.54-2.36,1-5.25-.62-7.42A4.19,4.19,0,0,0,15,42a2.51,2.51,0,0,0-2.5,1.94c-.64,1.82,2.25,2.61,2.89.8,0-.09.17,0-.07,0,0,0-.45.23-.44.22-.23.13-.25-.17,0,.08a5.75,5.75,0,0,1,1,1.31,3.13,3.13,0,0,1-.1,3.65s-.47.49-.48.45.24-.06.27-.06c.29,0,0,.08.06,0s0,0-.14-.26a3.3,3.3,0,0,1-.31-.74,5.23,5.23,0,0,1,0-3.68c.87-1.72-1.72-3.24-2.59-1.51Z"/><path class="cls-1" d="M20.29,43.18c1.52,3.07.78,7.14.76,10.45a1.5,1.5,0,0,0,3,0c0-4,.66-8.28-1.17-12-.86-1.73-3.45-.21-2.59,1.51Z"/><path class="cls-1" d="M23.68,47.94a7.14,7.14,0,0,1,1.83-2.55,9.18,9.18,0,0,1,2.6-2c1.75-.82.23-3.4-1.51-2.59a12,12,0,0,0-5.81,6.34c-.59,1.84,2.3,2.63,2.89.8Z"/><path class="cls-1" d="M36.31,49.37c3-.38,9.1-1.34,8.88-5.54-.19-3.71-5.57-3.87-8-2.37-3.12,2-3.79,6.36-2.16,9.47,1.85,3.54,5.83,4.08,9,2.07,1.63-1,.13-3.62-1.51-2.59S39,51.62,37.81,49.7a4.45,4.45,0,0,1,.44-5.19,3,3,0,0,1,2.2-.95c.34,0,1.66,0,1.74.43.31,1.51-5,2.27-5.88,2.38-1.89.24-1.91,3.24,0,3Z"/><path class="cls-1" d="M51.36,37.08c-3-.17-6,3.06-4.2,5.94.77,1.2,2.07,1.59,3.26,2.21.73.38,2,1.23,1.83,2.21-.25,1.21-1.81.45-2.39,0-1.5-1.19-3.63.92-2.12,2.12s3.21,2,5.08,1.29a3.76,3.76,0,0,0,2.45-3.6,5.62,5.62,0,0,0-3-4.43,19.77,19.77,0,0,1-2.05-1c-1.16-.86-.07-1.82,1.12-1.76,1.93.11,1.92-2.89,0-3Z"/><path class="cls-1" d="M57.22,30.58c.07,5.79.37,11.54,0,17.33a29.93,29.93,0,0,0,.09,7.33c.88,4.8,4.2,5.08,7.3,1.68,1.3-1.42-.82-3.55-2.12-2.12-3.16,3.47-2.43-4.34-2.32-6.25.35-6,.15-12,.07-18a1.5,1.5,0,0,0-3,0Z"/><path class="cls-1" d="M54.16,42a68.08,68.08,0,0,0,7.12,1c1.92.18,1.91-2.82,0-3A60.38,60.38,0,0,1,55,39.06c-1.89-.38-2.69,2.51-.8,2.89Z"/><path class="cls-1" d="M65.28,42.67c-1,3-.26,6.22-1,9.28-.43,1.88,2.46,2.68,2.89.8.7-3.06,0-6.29,1-9.28.6-1.84-2.3-2.63-2.89-.8Z"/><path class="cls-1" d="M66.08,39.12a1.5,1.5,0,0,0,0-3,1.5,1.5,0,0,0,0,3Z"/><path class="cls-1" d="M70,39.54c0,3.95-.53,7.9-.32,11.84.1,1.92,3.1,1.93,3,0-.21-3.94.29-7.9.32-11.84a1.5,1.5,0,0,0-3,0Z"/><path class="cls-1" d="M72.58,42.84c.39-.31,1.59-1.33,2.14-1s.57,1.54.62,2A20.07,20.07,0,0,1,74.88,50c-.4,1.88,2.49,2.69,2.89.8.62-2.91,1.12-6.45.13-9.33a3.76,3.76,0,0,0-2.58-2.64c-1.83-.42-3.52.81-4.86,1.87-1.51,1.2.62,3.31,2.12,2.12Z"/><path class="cls-1" d="M79.31,41.24c.91-.75,1.16-1.17,1.43-.07a15.66,15.66,0,0,1,.33,4.14c0,2.46-.44,4.9-.48,7.35,0,1.93,3,1.93,3,0,.07-3.7.86-7.38.28-11.09-.63-4-3.55-5-6.69-2.46-1.49,1.23.64,3.34,2.12,2.12Z"/><path class="cls-1" d="M88.27,40.28c.73-.81.93-1.24,1.64-.39a4.29,4.29,0,0,1,.6,1.79,9.78,9.78,0,0,1,0,2.71,41.92,41.92,0,0,0-.17,5.27c.06,1.38.08,3.38,1.21,4.38,1.51,1.32,3,0,4-1.26,1.16-1.54-1.44-3-2.59-1.51q-.81.66.74.65a2.62,2.62,0,0,1-.12-.4,6.44,6.44,0,0,0-.15-1,23.36,23.36,0,0,1-.06-3c0-1.48.28-3,.29-4.44,0-4.36-3.51-9.36-7.51-4.9-1.28,1.43.83,3.56,2.12,2.12Z"/><path class="cls-1" d="M90.95,45.95c0-.31,0-.6,0-.91a1.55,1.55,0,0,0-1.5-1.5,3.46,3.46,0,0,0-3.62,2.24,5.14,5.14,0,0,0,.4,3.85A4.36,4.36,0,0,0,89,52.06c1.74.4,3.14-.79,4-2.16,1-1.63-1.55-3.14-2.59-1.51a2.39,2.39,0,0,1-.35.47s-.36.31-.09.12l-.25.16q-.15.08.11,0l-.1,0s-.34.17-.09,0-.09,0-.09,0q.34.06.17,0l-.14,0c-.1,0-.07,0,.09,0L89.42,49c-.23-.14.15.15,0,0l-.19-.18c-.25-.25,0,.1-.17-.21s-.21-.36-.3-.54.11.33,0,0l-.09-.27c0-.09-.13-.61-.11-.41s0-.08,0-.13,0-.22,0-.32c0-.28-.05.21,0,0s0-.17.06-.25.05-.33,0-.1.05-.09.06-.08-.21.22,0,0,0,0,0,0,.45-.18,0,0a1.51,1.51,0,0,1,.28-.08c.21,0-.37,0,0,0h.43L87.9,45c0,.31,0,.6,0,.91a1.54,1.54,0,0,0,1.5,1.5,1.51,1.51,0,0,0,1.5-1.5Z"/><path class="cls-1" d="M97.87,32.18c.07,4.29-1.16,8.5-.68,12.82s3.35,6.26,7.1,3.52c1.54-1.13,0-3.73-1.51-2.59-1.14.83-1.77,1.5-2.38.1s-.34-3.54-.27-5c.14-2.93.79-5.89.75-8.82,0-1.93-3-1.93-3,0Z"/><path class="cls-1" d="M95.53,42.64c1.56,0,3.17-.37,4.72-.05,1.88.38,2.69-2.51.8-2.89s-3.65,0-5.52-.05a1.5,1.5,0,0,0,0,3Z"/><path class="cls-1" d="M105.05,43.23c3,.83,9.82-.55,8.52-5.07-1.09-3.77-6.58-2.81-8.33-.15-2.83,4.32,1.76,14,7.37,10.18,1.59-1.08.09-3.68-1.51-2.59-2.27,1.55-3.8-2.45-3.79-4.19a2.5,2.5,0,0,1,1.75-2.66c.3-.08,1.42-.29,1.62.2s-.94,1-1.28,1.19a5.67,5.67,0,0,1-3.55.19,1.5,1.5,0,0,0-.8,2.89Z"/><path class="cls-1" d="M118.46,35.37c-4.4,2.54-1.39,5.87-.66,9.63,1.18,6.15-4.14,10-9.66,7.34-1.73-.84-3.25,1.74-1.51,2.59,3.35,1.63,8.29,1.77,11.24-.7A9.41,9.41,0,0,0,120.94,48a13,13,0,0,0-.54-4.88c-.4-1.39-2.32-4-.42-5.12a1.5,1.5,0,0,0-1.51-2.59Z"/><path class="cls-1" d="M45.07,63.86c-4.63-2.74-11.8,3-7.87,7.83,3.47,4.24,8.58-2.81,8.93-6.13l-2.95.4c.43,2.3.45,6.35,2.94,7.53,1.74.82,3.26-1.77,1.51-2.59-.72-.34-.87-1.88-1-2.57-.22-1.05-.35-2.12-.55-3.17-.33-1.79-2.78-1.15-2.95.4-.11,1-2.23,4.75-3.47,4.38s-.19-2.43.31-2.89a3.1,3.1,0,0,1,3.6-.61,1.5,1.5,0,0,0,1.51-2.59Z"/><path class="cls-1" d="M47.94,64.83a19.47,19.47,0,0,0,1.33,7.44c.67,1.79,3.57,1,2.89-.8a17.2,17.2,0,0,1-1.23-6.64c.07-1.93-2.93-1.93-3,0Z"/><path class="cls-1" d="M50.73,67.83a2.07,2.07,0,0,1,3.59-.14c.8,1.4.71,3.18,1.5,4.62.93,1.69,3.52.18,2.59-1.51-1.27-2.31-.73-5.2-3.51-6.56a5.18,5.18,0,0,0-6.76,2.08c-.91,1.7,1.68,3.22,2.59,1.51Z"/><path class="cls-1" d="M68.76,63.86c-3.06-1.45-7.67-.35-9.56,2.59-1.72,2.67.42,6.47,3.6,6.56,5.83.16,8.38-11.5,8.32-15.8a1.51,1.51,0,0,0-2.95-.4c-1.24,4.87-1.64,11.27,0,16.1.61,1.82,3.51,1,2.89-.8-1.45-4.3-1.09-10.16,0-14.5l-2.95-.4a22.56,22.56,0,0,1-2.86,10.24c-.59,1.07-1.61,3.11-3,2.24-2.74-1.71,3.28-4.06,5-3.25s3.26-1.76,1.51-2.59Z"/><path class="cls-1" d="M5.1,71.79C3.73,76.54,2.42,81.92,2.9,86.88c.54,5.5,4.56,6.44,8.88,3.57,1.6-1.06.1-3.66-1.51-2.59-1.33.88-3,2.2-4,.56-.83-1.31-.44-3.87-.32-5.31A54.32,54.32,0,0,1,8,72.59a1.5,1.5,0,0,0-2.89-.8Z"/><path class="cls-1" d="M1.42,82.34A55.24,55.24,0,0,1,8.79,82a1.5,1.5,0,0,0,0-3,55.24,55.24,0,0,0-7.36.32c-1.89.25-1.91,3.25,0,3Z"/><path class="cls-1" d="M14.65,70.27a70.81,70.81,0,0,1-1.55,14.88l2.95.4a6.88,6.88,0,0,1,.64-3.17c1.12-2.42,1.55-.28,1.57,1.15s-.4,3.39.44,4.78a1.5,1.5,0,0,0,2.59-1.51c-.78-1.29.13-4.16-.21-5.72s-1.16-2.9-2.84-3.13c-3.69-.51-5.3,4.79-5.19,7.6.06,1.62,2.58,2.12,2.95.4a74.7,74.7,0,0,0,1.66-15.67,1.5,1.5,0,0,0-3,0Z"/><path class="cls-1" d="M24.59,86.29c2.51-1.13,6.78-3.3,4.6-6.79-1.8-2.89-5.73-1.21-6.72,1.42-1.46,3.91,1.16,12.89,6.59,8.89,1.54-1.13,0-3.74-1.51-2.59-1,.71-1.41.64-2-.46A7,7,0,0,1,25,83.19c0-.4.63-3,1.58-2.15s-3.09,2.46-3.53,2.66c-1.76.79-.23,3.38,1.51,2.59Z"/><path class="cls-1" d="M31.29,79.55V90.12a1.5,1.5,0,0,0,3,0V79.55a1.5,1.5,0,0,0-3,0Z"/><path class="cls-1" d="M34.09,83.51c.35-.54.77-1,1.15-1.47s.27.08,0-.11-.38,0-.32-.13a2.79,2.79,0,0,1,.37.74,10.62,10.62,0,0,1,.37,1.53,31.77,31.77,0,0,1,.4,5.72,1.5,1.5,0,0,0,3,0,25.38,25.38,0,0,0-.92-8.14c-.45-1.28-1.27-2.67-2.79-2.72-1.8-.06-3,1.73-3.89,3.06-1,1.63,1.55,3.13,2.59,1.51Z"/><path class="cls-1" d="M49.59,76.92A46.09,46.09,0,0,0,47.24,85c-.4,2.14-1,4.77-.19,6.89,1.43,3.94,5.49,2.08,7.61-.08,1.35-1.38-.77-3.5-2.12-2.12-.39.4-1.78,1.94-2.48,1.56-.94-.51-.12-4.33,0-5a44.88,44.88,0,0,1,2.43-8.51c.7-1.8-2.2-2.58-2.89-.8Z"/><path class="cls-1" d="M45.92,85.86c1.5-.18,3-.44,4.48-.64a1.55,1.55,0,0,0,1.5-1.5c0-.73-.69-1.61-1.5-1.5-1.5.2-3,.46-4.48.64a1.55,1.55,0,0,0-1.5,1.5,1.51,1.51,0,0,0,1.5,1.5Z"/><path class="cls-1" d="M55.35,80.12c-1,2.73-.46,6.71.32,9.44a1.5,1.5,0,0,0,2.89-.8c-.64-2.24-1.14-5.6-.32-7.84.66-1.82-2.23-2.6-2.89-.8Z"/><path class="cls-1" d="M57.86,85.74A10.43,10.43,0,0,1,62.64,82c1.83-.6,1-3.5-.8-2.89a13,13,0,0,0-6.1,4.55,1.55,1.55,0,0,0,0,2.12,1.51,1.51,0,0,0,2.12,0Z"/><path class="cls-1" d="M62.56,88.42c2.76-.37,7.2-.35,7.72-3.92.6-4.08-5-3.34-7.09-1.88a5.84,5.84,0,0,0-2.06,7.13c1.36,2.86,4.58,2.83,7,1.35,1.64-1,.14-3.6-1.51-2.59-.91.56-2.14,1.11-2.75,0a2.75,2.75,0,0,1,.58-3,3.65,3.65,0,0,1,2-1c.31-.06.71,0,1-.08,0,0,.5,0,0-.21s.28-.17-.16.14c-1.3.94-3.17.9-4.71,1.1a1.55,1.55,0,0,0-1.5,1.5,1.51,1.51,0,0,0,1.5,1.5Z"/><path class="cls-1" d="M72.9,79.66a7.92,7.92,0,0,1,.78-.63c.45-.33.25,0,.06-.16s.09.4.09.48c0,1.25.34,2.64.36,3.93,0,1.86-.58,5,.53,6.64s3.67.1,2.59-1.51c-.27-.4-.12-2.63-.11-3.54a31.9,31.9,0,0,0-.27-5.35c-.62-3.7-3.43-4.49-6.14-2-1.42,1.31.71,3.43,2.12,2.12Z"/><path class="cls-1" d="M74.72,83.18a5.25,5.25,0,0,0-3.85,2.09,4.22,4.22,0,0,0-.62,3.36,3,3,0,0,0,2.19,2.27,4,4,0,0,0,3.66-1.64,1.54,1.54,0,0,0,0-2.12,1.51,1.51,0,0,0-2.12,0c-.17.2-.35.38-.54.56s.06,0-.06.05-.18.1-.25.16,0,0,.07,0A1.73,1.73,0,0,0,73,88c-.2.1-.06,0,.1,0-.2,0-.08-.06,0,0s.2,0,0,0c0,0,.33.16.16.06s.27.25.07.06l-.1-.11c.3.34.06,0,0-.09.19.3.08.06,0-.12s0,.06,0,.14c0-.07,0-.15,0-.23,0-.45-.08.11,0-.16,0-.1.17-.51.09-.34s.12-.2.17-.28c.17-.28-.14.14,0,0l.19-.2s.28-.22.12-.11.15-.08.15-.09l.23-.12c-.25.13,0,0,.08,0l.35-.1s.46-.09.22-.06a1.55,1.55,0,0,0,1.5-1.5,1.51,1.51,0,0,0-1.5-1.5Z"/><path class="cls-1" d="M80.27,69c0,4.27-.22,8.53-.46,12.79-.15,2.63-.55,5.48,0,8.1.87,4.22,4,4.54,7.21,2.17,1.53-1.14,0-3.74-1.51-2.59-3.88,2.88-2.9-3.82-2.77-6.08.27-4.79.52-9.58.55-14.39a1.5,1.5,0,0,0-3,0Z"/><path class="cls-1" d="M77,76.57c2.46.06,4.9.29,7.36.32a1.5,1.5,0,0,0,0-3c-2.46,0-4.91-.26-7.36-.32-1.93,0-1.93,3,0,3Z"/><path class="cls-1" d="M96,68c-.84,3.45-.44,6.86-.36,10.37a46,46,0,0,0,.15,6.76c.75,4.41,4,4.5,6.88,1.61,1.36-1.38-.76-3.5-2.12-2.12s-1.73.89-1.91-.78a25.4,25.4,0,0,1,0-3.06c.06-4-.67-8.08.28-12,.46-1.88-2.43-2.68-2.89-.8Z"/><path class="cls-1" d="M94,81a22.09,22.09,0,0,1,5.36-.91c1.91-.15,1.93-3.16,0-3a25.56,25.56,0,0,0-6.16,1c-1.82.61-1,3.51.8,2.89Z"/><path class="cls-1" d="M103.69,67.31c-1.7,4.78-.15,10.12-.05,15h3c-.11-2.37.42-4.73,2.46-6.2l-1.82-.23c2.07,2,1.55,5.26,2.18,7.88.45,1.88,3.34,1.08,2.89-.8-.8-3.32-.3-6.64-2.95-9.21a1.52,1.52,0,0,0-1.82-.23,9.74,9.74,0,0,0-3.94,8.79c.09,1.92,3,1.94,3,0-.09-4.61-1.64-9.77-.05-14.23.65-1.82-2.25-2.61-2.89-.8Z"/><path class="cls-1" d="M114.17,81c2.81-.57,6.78-3.35,5.9-6.64-1-3.69-5.47-1.5-6.76.7s-1.06,5.84.06,8.17c1.45,3,4.47,2.83,6.58.59,1.32-1.41-.79-3.53-2.12-2.12-1,1-1.36,1.28-1.9-.07a7.24,7.24,0,0,1-.29-4.38,2.66,2.66,0,0,1,1-1.43c.17-.13.7-.29.83-.45s.21-.17-.12-.16c-.63,0,.16-.22-.12,0,0,0-.19.6-.29.74a4.66,4.66,0,0,1-1.1.95,6.65,6.65,0,0,1-2.43,1.16c-1.89.38-1.09,3.28.8,2.89Z"/><path class="cls-1" d="M121.88,73.15v9.28a1.5,1.5,0,0,0,3,0V73.15a1.5,1.5,0,0,0-3,0Z"/><path class="cls-1" d="M124.44,76.77a9.09,9.09,0,0,1,1.07-1,.92.92,0,0,1-.29,0c-.14,0-.13-.18-.06,0s.27.51.17.27a6.19,6.19,0,0,1,.33,1.09,18.63,18.63,0,0,1,.38,4.05,1.5,1.5,0,0,0,3,0,17.26,17.26,0,0,0-.82-5.95A3.43,3.43,0,0,0,126,72.86c-1.49-.35-2.77.74-3.67,1.8-1.24,1.47.87,3.6,2.12,2.12Z"/><path class="cls-1" d="M128.51,76.47c.35-.55,1.85-2.3,2.65-1.83.55.32.27,2.09.25,2.58-.07,1.61-.62,4.26,1.13,5.22s3.21-1.66,1.51-2.59c.79.43.17.58.27.11a6.75,6.75,0,0,0,0-1c0-.65.08-1.29.1-1.94a6.86,6.86,0,0,0-.65-4c-2.09-3.29-6.37-.5-7.85,1.85-1,1.64,1.56,3.14,2.59,1.51Z"/><path class="cls-1" d="M12.32,100.88c-4.45-6.85-13,3.5-9.82,8.59,2.24,3.59,6.86.6,8.45-1.92,2.06-3.27,4.29-10,.81-13.06-1.44-1.28-3.57.83-2.12,2.12,3.17,2.82-2.74,13.32-4.61,11.23-1.31-1.46,2.65-8.6,4.7-5.45,1,1.61,3.65.11,2.59-1.51Z"/><path class="cls-1" d="M10.49,101c-.24,3.91-2.7,8-1.23,11.87,1.07,2.85,3.68,3.19,5.71,1,1.32-1.41-.8-3.53-2.12-2.12s-.67-4.21-.53-4.8a33.47,33.47,0,0,0,1.17-6c.12-1.93-2.88-1.92-3,0Z"/><path class="cls-1" d="M24,99.72a8.12,8.12,0,0,0,0-.91,1.53,1.53,0,0,0-1.1-1.45,6.21,6.21,0,0,0-6.11,2.46c-1.3,2-.23,4.28,1.8,5.25.9.43,5.18,1,4.76,2.61-.14.54-1.24.84-1.68.93a4.39,4.39,0,0,1-1,.09c-.45,0-.16-.21-.12.3-.13-1.92-3.13-1.93-3,0,.31,4.43,7.44,2.83,8.62-.29.8-2.11-.84-4.32-2.7-5.2-1.12-.54-2.7-.49-3.71-1.2-1.52-1.07,1.35-2.23,2.36-2.06L21,98.81a8.12,8.12,0,0,1,0,.91c0,1.93,3,1.93,3,0Z"/><path class="cls-1" d="M44.42,105.06c-9.34-7.73-17.86,10.83-8.8,12.27,3.87.61,6.48-4.51,7.82-7.31,1.79-3.74,3.89-8.53,3.66-12.77a1.5,1.5,0,0,0-3,0c-.48,4.08-1.89,8.05-2.56,12.11-.45,2.72-1.09,6.06.76,8.39,1.2,1.51,3.31-.62,2.12-2.12-1.62-2,.42-7.74.92-9.94a82.11,82.11,0,0,0,1.76-8.44h-3c.24,4.5-2.36,10.17-4.66,13.88-1,1.59-3.71,5.32-4.79,1.48s4.47-8.06,7.65-5.43c1.48,1.22,3.61-.89,2.12-2.12Z"/><path class="cls-1" d="M47.84,114c3.43-.07,8.67-3.37,8.28-7.35-.37-3.75-5.27-2.82-7.37-1.34a7.9,7.9,0,0,0-2.59,10,5.48,5.48,0,0,0,4.08,3.11c1.91.19,3.66-.84,5.36-1.55s1-3.63-.8-2.89c-1.33.55-3.49,2-4.92,1.22-2-1.18-1.83-4.34-.74-6a4.91,4.91,0,0,1,2.33-1.93c.25-.1,1.48-.47,1.68-.23.32.4-1.39,2.15-1.63,2.37A5.66,5.66,0,0,1,47.84,111c-1.93,0-1.93,3,0,3Z"/><path class="cls-1" d="M60.74,103.34c2-1.72,4-.73,4.19,1.79a21.47,21.47,0,0,1-.6,4.73c-.38,2.75-.2,5.28,2,7.24,1.43,1.29,3.56-.82,2.12-2.12-3.36-3,.81-8.9-1.24-12.81-1.85-3.53-5.85-3.31-8.57-1-1.46,1.27.67,3.38,2.12,2.12Z"/><path class="cls-1" d="M65.86,107.3c-6.33-5.51-11.34,8-5.74,9.42,2.15.54,4.26-1.19,5.74-2.5s-.68-3.39-2.12-2.12a10.41,10.41,0,0,1-1.9,1.39c-.14.08-.29.16-.44.22.23-.1,0,0-.1,0l-.37.09s.29,0,0,0,0,0,0,0-.32-.12-.08,0,.09,0,0,0,.12.08.12.11-.25-.34-.09-.06-.2-.59,0,0c-.06-.2-.11-.39-.15-.6.09.43,0-.15,0-.33s0-.73,0-.59.08-.4.12-.56.14-.51.23-.76c0-.07.16-.42.09-.24s.06-.13.09-.18c.12-.23.24-.45.38-.67s.14-.21.21-.31c-.15.2-.08.09,0,0s.62-.53.28-.3l.32-.2c.29-.21-.1,0,.06,0s.41-.1.15-.05.13,0,.21,0h0c.14,0,.42.16.14,0l.36.2s.25.16.11.06.16.14.16.14c1.45,1.26,3.58-.85,2.12-2.12Z"/><path class="cls-1" d="M77.71,104.42c-5.95-6.49-13.06,8.77-6.58,11C78.86,118,80.26,99.53,80,95.23c-.07-1.17-1.67-2.14-2.56-1.06-2.72,3.3-1.53,8.1-1,12,.39,2.69-.26,7.9,1.66,10,1.3,1.44,3.41-.69,2.12-2.12.43.48,0-.95-.06-1.2-.06-.7-.15-1.4-.22-2.1-.13-1.33-.23-2.66-.4-4-.36-2.81-2-8,0-10.45L77,95.23A35.25,35.25,0,0,1,74.88,109c-.51,1.35-3.19,5.84-3.2,1.87,0-1.64,1.91-6.47,3.91-4.3,1.31,1.43,3.42-.7,2.12-2.12Z"/><path class="cls-1" d="M84.43,95.56c.35,6-.58,13.51,2.45,19,.93,1.69,3.52.18,2.59-1.51-2.71-4.92-1.72-12-2-17.49-.11-1.92-3.11-1.93-3,0Z"/><path class="cls-1" d="M91.47,101.32c0,3.42.26,6.83.32,10.24,0,1.93,3,1.93,3,0-.06-3.42-.3-6.83-.32-10.24a1.5,1.5,0,0,0-3,0Z"/><path class="cls-1" d="M90.51,95.56v.32a1.5,1.5,0,0,0,3,0v-.32a1.5,1.5,0,0,0-3,0Z"/><path class="cls-1" d="M97,99.8c.7,4.07.36,8.24,1,12.33.25,1.72,2.91,1.23,2.95-.4a27,27,0,0,1,1.69-9.07,4,4,0,0,1,.79-1.43c-.46.45-.39-.32-.27.36,0,.26.08,0,.15.33.23,1.19.35,2.38.49,3.58.28,2.36.33,5.92,2.14,7.73,2.32,2.32,4.76-.62,6-2.51,1.07-1.62-1.53-3.12-2.59-1.51-.27.41-1,1.81-1.65,1.91.59-.09.21.09.1-.46-.3-1.46-.72-2.85-.91-4.35-.29-2.29,0-5.52-1.95-7.2-5.2-4.58-6.94,10.06-7,12.63l2.95-.4c-.6-4.09-.25-8.24-1-12.33-.33-1.9-3.22-1.09-2.89.8Z"/><path class="cls-1" d="M111.61,104.69a14.14,14.14,0,0,0,6.3-5.34c1.6-2.46,0-5.33-3-5a7.9,7.9,0,0,0-6.49,5,6.81,6.81,0,0,0,2.33,7.23c2.85,2.3,6.51,1.57,8.85-1.05,1.29-1.43-.83-3.56-2.12-2.12-1.47,1.64-3.56,2.24-5.23.5a3.59,3.59,0,0,1,.1-5.26A5.87,5.87,0,0,1,115,97.4c.18,0,.84,0,.65-.13s0,.07,0,0a3.73,3.73,0,0,1-.23.44,11.36,11.36,0,0,1-4.58,4.07c-1.81.64-1,3.54.8,2.89Z"/><path class="cls-1" d="M126.26,90.86c-4.93.5-7.8,6.41-3.3,9.65,2.45,1.76,7.64,2.69,5.27,6.93-1.47,2.63-6,4.4-8.57,2.51-1.56-1.14-3.06,1.46-1.51,2.59,4.13,3,11,.09,13-4.22a6.43,6.43,0,0,0-.83-6.85,9.34,9.34,0,0,0-3.17-2.18,18.22,18.22,0,0,1-2.07-1c-1.73-1.15-2.57-4.06,1.18-4.44,1.9-.19,1.92-3.19,0-3Z"/></g></g></svg>