<svg xmlns="http://www.w3.org/2000/svg" viewBox="0 0 193.6 195.33"><defs><style>.cls-1{fill:#ed3e95;}.cls-2{fill:#fdfefe;}.cls-3{fill:#fff;}</style></defs><title>Asset 29</title><g id="Layer_2" data-name="Layer 2"><g id="Layer_1-2" data-name="Layer 1"><path class="cls-1" d="M85.88.67C77.29,8.11,68.46,16.27,60,24c-7.34,6.73-15.74,11.65-22.78,18.8-14.8,15-27.28,30.52-33.52,51C-7.57,131,6.83,178.17,47.26,190c35.14,10.28,80.89,6.19,110.11-16.67,16.83-13.16,26.31-28.57,31.67-49.19,5.94-22.84,8.62-48.37-8.4-66.55-13.9-14.84-34.51-22.4-53.47-28.45a140.88,140.88,0,0,1-25.3-10.67C92.71,13.54,89.58,6.12,84.54,0"/><path class="cls-2" d="M34,97C39.86,82.09,47.29,67.83,53,52.82H49.61c1.78,11.32,1.84,22.92,6.19,33.68a1.76,1.76,0,0,0,3.17.41c7.72-11.15,10.29-24.8,14.58-37.43H70.21c2.08,8.87,2.22,18,4,26.92C75.43,82.5,78.28,89,77.8,95.3h3.47q0-1.1,0-2.2c0-2.23-3.5-2.24-3.47,0q0,1.1,0,2.2c0,2.26,3.3,2.2,3.47,0,.47-6.15-2.11-12.44-3.41-18.36-2.06-9.36-2.11-19-4.3-28.37-.41-1.76-2.82-1.53-3.34,0C66,60.93,63.53,74.27,56,85.17l3.17.41C54.81,74.83,54.73,63.22,53,51.9c-.29-1.87-2.81-1.41-3.34,0-5.67,15-13.1,29.26-18.92,44.21-.81,2.08,2.54,3,3.34.92Z"/><path class="cls-2" d="M86.81,65.36c.25-2.49,2.24-6.75,5.11-7.21,4.85-.78,3.17,9.1,2.74,11.68-1.31,8-3.44,15.21-.23,23a1.77,1.77,0,0,0,2.55,1c2.76-1.34,4.24-3.44,5.55-6.17,1-2-2-3.76-3-1.75s-2.11,3.85-4.3,4.92l2.55,1c-3.26-7.95-.52-15.18.54-23.23.51-3.85,1.19-10.26-2.39-13.09-5.95-4.7-12.09,4.74-12.59,9.73-.22,2.22,3.25,2.2,3.47,0Z"/><path class="cls-2" d="M96,73.85c-1.69-2-4.15-3.93-6.93-3.33-2.14.47-3.61,2.3-4.46,4.21C83.14,78,82,84.8,85.86,87.08c2.66,1.58,5.55-.63,7.38-2.46a1.73,1.73,0,0,0-2.45-2.45A8.3,8.3,0,0,1,88.43,84c-.38.17-.72.2-.81.12l0,0c.17.16-.14-.14-.19-.21.28.39-.27-.54-.21-.39a6.5,6.5,0,0,1-.38-1.77,11.66,11.66,0,0,1,.67-4.85,7.57,7.57,0,0,1,1-1.91,3.3,3.3,0,0,1,1.2-1,1.88,1.88,0,0,1,.51-.06,2.27,2.27,0,0,1,.73.16,8.15,8.15,0,0,1,2.67,2.26C95,78,97.47,75.53,96,73.85Z"/><path class="cls-2" d="M108.32,45.25c-.6,12.18-1.22,24.36-1.4,36.55,0,1.9,3.06,2.43,3.41.46l.53-1.46c1.15-1.92-1.84-3.66-3-1.75a4.78,4.78,0,0,0-.88,2.29l3.41.46c.19-12.19.8-24.37,1.4-36.55.11-2.23-3.36-2.23-3.47,0Z"/><path class="cls-2" d="M122.42,48.54c-3.92,6-9.86,10.1-14.27,15.65a1.8,1.8,0,0,0-.27,2.1c6.19,10.23,15,18.67,23.14,27.35,1.53,1.63,4-.82,2.45-2.45-7.91-8.46-16.57-16.67-22.6-26.65l-.27,2.1c4.61-5.79,10.72-10.13,14.82-16.36,1.23-1.87-1.77-3.61-3-1.75Z"/><path class="cls-2" d="M127.8,55.19A47.74,47.74,0,0,0,126,67.65c-.11,3.37-.33,8.06,1.82,10.94,3.78,5.06,15.58,0,20.11-1.84,2-.81,1.16-4.17-.92-3.34-3.51,1.39-14.79,6.19-16.86,2.1-1.34-2.64-.76-7.11-.56-9.95a41.38,41.38,0,0,1,1.53-9.43c.67-2.13-2.68-3-3.34-.92Z"/><path class="cls-2" d="M126.88,69.63c6.45-2.89,13.53-3.92,20.39-5.37,2.18-.46,1.26-3.81-.92-3.34-7.19,1.52-14.47,2.69-21.22,5.72-2,.91-.27,3.9,1.75,3Z"/><path class="cls-2" d="M127.57,57.15c3.62-1.68,8.09-2.13,12-2.7,2.41-.35,8.95-2.16,11.22-.77,1.91,1.16,3.66-1.83,1.75-3-3-1.86-9.09-.24-12.32.2-4.77.65-10,1.23-14.4,3.27-2,.94-.26,3.93,1.75,3Z"/><path class="cls-2" d="M86.18,103a57,57,0,0,0-.76,10.86,1.74,1.74,0,0,0,3.47,0,52.27,52.27,0,0,1,.63-9.94c.43-2.18-2.91-3.11-3.34-.92Z"/><path class="cls-2" d="M89.24,96.92a1.74,1.74,0,0,0,0-3.47,1.74,1.74,0,0,0,0,3.47Z"/><path class="cls-2" d="M95.48,106.63c6-.33,12.09-.08,18.12-.28,4-.13,10.31.4,13.62-2.31,1.73-1.41-.74-3.85-2.45-2.45-1.29,1.05-4.34.9-5.86,1-2.9.23-5.81.3-8.72.36-4.9.09-9.82-.07-14.71.2-2.22.12-2.23,3.59,0,3.47Z"/><path class="cls-2" d="M106.23,90.33c0,6.56-3.05,13.34-1.88,19.89,1.31,7.31,8.49,5.44,13.5,3.11,2-.94.26-3.93-1.75-3s-6,3.09-7.78,1c-1.21-1.43-.69-4.52-.53-6.2.47-4.95,1.9-9.81,1.91-14.8a1.74,1.74,0,0,0-3.47,0Z"/><path class="cls-2" d="M32.71,118.08c.81,9.56-1,19.43-2.26,28.89-.49,3.8-1.3,7.54-1.84,11.33-.35,2.46-1.06,5.51.18,7.82,1.05,2,4,.22,3-1.75-1.31-2.46.59-7.84,1.06-10.45.57-3.2,1-6.39,1.41-9.61,1.08-8.62,2.67-17.53,1.93-26.23-.19-2.21-3.66-2.23-3.47,0Z"/><path class="cls-2" d="M33.94,117.49c5.68-4.22,14.81-3.38,21.32-2,5.61,1.15,17.67,4.67,16.83,12.4-.71,6.58-10.73,10.15-16,11.77-5.67,1.76-14.22,4.06-19.9,1.21L35.82,144a13.33,13.33,0,0,0,2.56-.68c2.12-.67,1.21-4-.92-3.34a13.33,13.33,0,0,1-2.56.68,1.75,1.75,0,0,0-.41,3.17c7,3.54,17.09,1,24.09-1.36,6.47-2.22,16.57-6.66,17-14.73.47-8.59-9.88-13.16-16.68-15-7.95-2.14-19.62-3.53-26.72,1.75-1.77,1.32,0,4.33,1.75,3Z"/><path class="cls-2" d="M102.19,123.34c-20.25-5.55-38,25.07-18.24,36.89,12.91,7.72,40.78,3.78,42-14.71.9-13.74-12.08-24.09-24.9-24.32-2.23,0-2.23,3.43,0,3.47,11.66.21,26.21,12.2,20.35,25-3.62,7.9-14,10.77-22,10.83-9.16.07-20.27-4-20.73-14.72-.48-11.3,11.46-22.15,22.62-19.08a1.74,1.74,0,0,0,.92-3.34Z"/><path class="cls-2" d="M133.28,103.51c.21,19,3.54,37.9,2.08,56.87-.17,2.23,3.3,2.21,3.47,0,1.46-19-1.87-37.91-2.08-56.87,0-2.23-3.49-2.24-3.47,0Z"/><path class="cls-2" d="M134.79,106.57c10.4-4.16,28.59,1.72,29.06,14.71.51,13.92-16.88,17.06-27.44,17.26-2.23,0-2.24,3.51,0,3.47,13-.24,32.38-5.1,30.84-21.81-1.35-14.54-21.13-21.87-33.38-17-2,.82-1.15,4.17.92,3.34Z"/><path class="cls-2" d="M88.09,151.65c7.4,1.33,15,1.44,21.45-2.95,1.83-1.25.1-4.26-1.75-3-5.68,3.87-12.25,3.77-18.78,2.6-2.18-.39-3.12,3-.92,3.34Z"/><path class="cls-2" d="M91.32,140.62a1.74,1.74,0,0,0,0-3.47,1.74,1.74,0,0,0,0,3.47Z"/><path class="cls-2" d="M108,138.54a1.74,1.74,0,0,0,0-3.47,1.74,1.74,0,0,0,0,3.47Z"/><path class="cls-3" d="M93,139.33c0-.34,0-.69,0-1s0-.08-.05.37a1.71,1.71,0,0,1,.06-.23q-.28.6-.09.26-.39.47-.12.16H89.3a3.62,3.62,0,0,1,.29.3c.16.18.71.87.14.11a2.75,2.75,0,0,0,1.49,1.15,2.55,2.55,0,0,0,1.93-.25c1-.66,1.74-2.31.9-3.42a9.19,9.19,0,0,0-1.2-1.42,2.54,2.54,0,0,0-3.54,0,4.5,4.5,0,0,0-1.16,2.08,8,8,0,0,0-.1,1.93,2.5,2.5,0,0,0,5,0Z"/><path class="cls-3" d="M108.29,136.67a2.76,2.76,0,0,0-5.49,0,2.5,2.5,0,0,0,4.82,1.33q.11-.35,0,0a1.66,1.66,0,0,1-.82.89l-1.26.34h.05l-1.26-.34a1.66,1.66,0,0,1-.82-.89q-.14-.34,0,0a2.5,2.5,0,0,0,4.82-1.33Z"/></g></g></svg>