<svg xmlns="http://www.w3.org/2000/svg" viewBox="0 0 246.51 278.04"><defs><style>.cls-1{fill:#fff;}</style></defs><title>Asset 25</title><g id="Layer_2" data-name="Layer 2"><g id="Layer_1-2" data-name="Layer 1"><path d="M10.92,192.39C6,175.65-12.33,112.57,13.39,61.19c3.85-7.68,16.14-31.44,43.32-47,33.61-19.28,76.76-18.47,108.92,0C190.72,28.56,201,49,218.86,84.71c19.88,39.66,36.62,73.07,22.28,101.49-13.86,27.49-49.71,36.29-58.17,38.37-18.61,4.57-23.82.13-68.08,3.71-23.21,1.88-34.82,2.82-43.32,6.19C37.14,248.1,25.42,281.17,18.34,277.8c-5.92-2.82,4.38-25-1.24-60.65C15.36,206,13,199.53,10.92,192.39Z"/><path class="cls-1" d="M69.49,50.67c.56-8.46-8.46-14.13-16.2-11.9-9.42,2.71-14.17,13.78-14.1,22.82.07,9.58,5.82,18.93,15.41,21.5A17,17,0,0,0,75.16,71.89c.83-2.57-3.22-3.67-4-1.11A12.8,12.8,0,0,1,55,78.87c-6.65-2.06-10.82-8.5-11.5-15.18-.64-6.32,1.27-13.26,5.88-17.79,5.07-5,16.52-4.42,15.91,4.77-.18,2.69,4,2.68,4.19,0Z"/><path class="cls-1" d="M81.73,54.73A5.67,5.67,0,0,1,88,52.67c3.53,1.08,4,4.62,3.27,7.84-.94,4.47-3.51,8.64-2.69,13.37,1,5.61,7.69,9.34,12.24,5.09,2-1.84-1-4.8-3-3l-3,.27a3,3,0,0,1-1.94-3c-.58-2.17,0-4.17.67-6.28a51,51,0,0,0,2-6.84c.48-3.12.13-6.45-2.09-8.88a10,10,0,0,0-14.75.52c-1.65,2.09,1.29,5.08,3,3Z"/><path class="cls-1" d="M92.72,61.73c-4.82-4.6-13.31-1.25-12.8,5.68A7.33,7.33,0,0,0,84.82,74a7.79,7.79,0,0,0,8.24-2.2c1.75-2-1.2-5-3-3s-5.58,1.7-6-1.4a3.31,3.31,0,0,1,5.65-2.72c1.95,1.86,4.92-1.1,3-3Z"/><path class="cls-1" d="M102.68,47.67,98.54,65.85a2.1,2.1,0,0,0,4,1.11,22.27,22.27,0,0,1,11.13-13.52l-3.08-1.25,3,16.63c.48,2.65,4.52,1.53,4-1.11l-3-16.63a2.12,2.12,0,0,0-3.08-1.25,26.54,26.54,0,0,0-13.06,16l4,1.11,4.14-18.18c.6-2.62-3.44-3.75-4-1.11Z"/><path class="cls-1" d="M134.37,50.44,137.73,68c.51,2.65,4.54,1.53,4-1.11l-3.36-17.59c-.51-2.65-4.54-1.53-4,1.11Z"/><path class="cls-1" d="M144.79,48.17A37.65,37.65,0,0,1,115,82.92c-2.64.55-1.52,4.59,1.11,4,18.29-3.8,32-20.19,32.82-38.79.12-2.7-4.07-2.69-4.19,0Z"/><path class="cls-1" d="M156.55,51.45a7.14,7.14,0,0,0-6,8.88c1.06,4.52,6.05,6.19,10.12,4.73,10.18-3.65,5.63-18.94-4.45-18.4-2.68.14-2.7,4.33,0,4.19,4.52-.24,8.59,6.1,4.56,9.42-1.48,1.22-4.5,1.87-5.79,0-.94-1.36-.37-4.41,1.54-4.63,2.65-.3,2.68-4.5,0-4.19Z"/><path class="cls-1" d="M171.16,48.87c-.72,3.27-1.4,6.78-.06,10,1.09,2.61,3.48,4.85,6.42,5a7.39,7.39,0,0,0,6.67-4.21c1.78-3.37,1-7.24.21-10.77-.6-2.63-4.64-1.51-4,1.11.55,2.38,2,10.39-2.89,9.64-4.17-.65-2.85-7-2.27-9.61s-3.46-3.75-4-1.11Z"/><path class="cls-1" d="M37.28,86.83,34.66,116.7l4.11-.56c-.75-4.28-2.09-11.19,2.75-13.67,8.54-4.36,7.15,8.47,6.24,12.43-.6,2.62,3.44,3.74,4,1.11,1.51-6.61,1.77-19.44-8.48-18.68-10,.75-9.85,12.73-8.59,19.91.44,2.48,3.92,1.63,4.11-.56l2.62-29.87c.24-2.69-4-2.67-4.19,0Z"/><path class="cls-1" d="M61.38,97.37c2.33-2.26,6.92-1.43,7.89,1.87,1,3.58-1.76,7.73-1.59,11.45.22,4.79,5.1,9,9.65,6.1,2.27-1.44.17-5.07-2.11-3.62-1.91,1.21-3.15-1.3-3.29-2.77a12.08,12.08,0,0,1,.58-4,32.83,32.83,0,0,0,1-4.74,8.6,8.6,0,0,0-2.4-7.25,9.25,9.25,0,0,0-12.69,0c-1.94,1.88,1,4.84,3,3Z"/><path class="cls-1" d="M69.41,104.3C64.78,100,57,103.6,58,110s9.5,7.67,12.6,2.17c1.32-2.35-2.29-4.47-3.62-2.11-1.17,2.08-4.41,2-4.85-.61a2.57,2.57,0,0,1,4.34-2.22c2,1.83,4.94-1.12,3-3Z"/><path class="cls-1" d="M77.26,94.88,81,108.34a2.12,2.12,0,0,0,3.83.5L93.17,96.3c1.5-2.25-2.13-4.35-3.62-2.11l-8.34,12.53,3.83.5L81.3,93.77c-.72-2.59-4.76-1.49-4,1.11Z"/><path class="cls-1" d="M92.33,112.14c6.3-.62,15-2.85,14.24-11-.68-7.27-9.41-7.2-13.4-2.68-4.54,5.15-6,14.55-1.07,19.89,4.58,4.94,12.62,3.82,14.87-2.72.88-2.56-3.17-3.65-4-1.11-1.63,4.73-7.21,2.69-8.89-.67s-.74-7.53.95-10.6c.83-1.51,2.73-4.54,4.84-3.94a3.27,3.27,0,0,1,1.78,5.2c-1.88,2.83-6.28,3.13-9.28,3.43-2.66.26-2.69,4.45,0,4.19Z"/><path class="cls-1" d="M139.85,77.7l-4.57,17.76c-1.09,4.22-3,9.18-1.2,13.48,2.52,6.18,12,6.63,12.31-1,.12-2.7-4.07-2.69-4.19,0q-5.2,2.11-4.64-3.22a24.57,24.57,0,0,1,.85-4.63c.54-2.38,1.22-4.74,1.83-7.1l3.65-14.21c.67-2.61-3.37-3.73-4-1.11Z"/><path class="cls-1" d="M128,98.86,146.47,98c2.68-.12,2.7-4.31,0-4.19L128,94.67c-2.68.12-2.7,4.31,0,4.19Z"/><path class="cls-1" d="M151.88,75l-1.54,34.36c-.12,2.7,4.07,2.69,4.19,0L156.07,75c.12-2.7-4.07-2.69-4.19,0Z"/><path class="cls-1" d="M155.49,95c1.39-2,4.65-.29,5.61,1.28,1.76,2.89.58,7-.16,10-.65,2.62,3.39,3.73,4,1.11,1.23-5,2.43-11.58-2.11-15.34-3.34-2.77-8.39-2.89-11,.86-1.54,2.22,2.09,4.32,3.62,2.11Z"/><path class="cls-1" d="M170,89.25l-.06,15.08c0,2.7,4.18,2.7,4.19,0l.06-15.08c0-2.7-4.18-2.7-4.19,0Z"/><path class="cls-1" d="M172.44,81.29c2.7,0,2.7-4.19,0-4.19s-2.7,4.19,0,4.19Z"/><path class="cls-1" d="M190,75.86c-6.21-1.24-12.29,3.65-10.34,10.3,1,3.28,3.59,4.69,6.23,6.49,2.3,1.56,4.84,3.47,3.72,6.71-1.56,4.52-7.63,4.05-9.17-.33l-3.5,2,1.59,1.4c2,1.77,5-1.18,3-3l-1.59-1.4c-1.45-1.27-4.25-.08-3.5,2,2.46,7,12.36,9.59,16.39,2.38a9.38,9.38,0,0,0-.18-9.56,13,13,0,0,0-4.05-3.59c-1.17-.76-2.9-1.45-3.8-2.54-2.61-3.16-.29-7.81,4.12-6.92,2.63.52,3.76-3.51,1.11-4Z"/><path class="cls-1" d="M56.87,137.2c-9.36-2.75-20.46-2.46-26.92,5.91-4.74,6.14-4.3,15.17,2.16,20,7,5.19,14.9.53,19.41-5.49,6.74-9,9.92-20.84,11-31.87.22-2.33-3.72-2.89-4.11-.56a89.66,89.66,0,0,0,1.32,36.72c.65,2.62,4.69,1.51,4-1.11a84.38,84.38,0,0,1-1.32-34.49l-4.11-.56a66,66,0,0,1-5.58,21.33c-2.52,5.51-6.78,14.06-13.86,14-9-.1-9.54-11.42-4.54-16.6,5.66-5.85,14.24-5.33,21.44-3.22,2.59.76,3.7-3.28,1.11-4Z"/><path class="cls-1" d="M83.61,134.83a12.47,12.47,0,0,0-10.73,18.39c4.8,9.26,17,10.42,25.16,4.88,7.08-4.84,10.8-15.54,4-22.25-8.09-8-19.84-3.64-27.88,1.85-2.21,1.51-.12,5.14,2.11,3.62,5-3.45,11.1-6.89,17.44-5.35,7.38,1.79,9.73,9.15,5.46,15.23-3.85,5.48-12.27,8-18.26,4.62-7.27-4.13-7.2-16.63,2.69-16.8,2.69,0,2.7-4.24,0-4.19Z"/><path class="cls-1" d="M106.31,130.17a23.69,23.69,0,0,1,5.93,23.51l4.11.56c.4-6.56,2.44-13.77,7-18.68,2.13-2.27,5.76-4.55,9-3.23,4.24,1.72,3.65,6.66,3.17,10.27-.89,6.67.36,17.22,9.79,15.08,2.63-.6,1.52-4.64-1.11-4-7.62,1.73-3.4-15.84-4.89-19.77a9.59,9.59,0,0,0-10.25-6c-11.62,1.14-16.4,16.76-17,26.35-.14,2.4,3.48,2.78,4.11.56a28,28,0,0,0-7-27.59c-1.89-1.93-4.85,1-3,3Z"/><path class="cls-1" d="M156.85,142.36c6.3-2.83,13.67-1.18,19.83-4.46,4.1-2.19,7.71-6.29,6.9-11.22-1.72-10.53-15.87-9.44-22-3.91-8.17,7.41-7.39,19.85.59,27.07,8.5,7.69,21.08,5.91,29.15-1.38,2-1.81-1-4.77-3-3-6.38,5.76-16.39,7.4-23.23,1.38-5.91-5.2-7.23-14.27-1.58-20.19,2.65-2.78,6.46-4.59,10.34-3.87,6.35,1.18,6.82,7.47,1.87,10.76-6,4-14.43,2.2-21,5.17-2.46,1.1-.33,4.71,2.11,3.62Z"/><path class="cls-1" d="M31.08,184.11a12.5,12.5,0,0,0,11-3c2.6-2.46,4.69-6.88,2.75-10.33-1.73-3.08-5.82-3.27-8.5-1.33-3.33,2.41-4,7.22-4.5,11-.57,4.08-.21,8.5,3.25,11.23,2.84,2.23,7,2.45,9.34-.63,4.66-6.23-4.21-12.88-9.42-7.46-1.65,1.71,1,4.33,2.61,2.61,2.26-2.35,5.9.83,3.63,3-2.55,2.37-5.34-1.73-5.77-3.47-.73-3,.1-6.57.93-9.46.41-1.43,1.2-4.18,3.11-4.24l2.35,2a6.62,6.62,0,0,1-1.62,3.81,8.69,8.69,0,0,1-8.21,2.86c-2.32-.42-3.32,3.14-1,3.56Z"/><path class="cls-1" d="M48.75,177.63a4.82,4.82,0,0,0,2.29,8.1c5.6,1.37,8.18-4.72,9.15-9l-3.63-.49c-.69,8.2-2.25,19.9-7.36,26.77a5.19,5.19,0,0,1-5.5,2.83q-2.42-4.8,1.56-6.73c1.42-1,3-1.81,4.49-2.69l13.3-7.82c2-1.2.19-4.4-1.86-3.19l-13.3,7.82c-2.89,1.7-6.28,3.32-8.31,6.12-2.72,3.74-1.68,8.8,3.15,10.05,6,1.54,9.71-3.89,11.72-8.59a79.46,79.46,0,0,0,5.81-24.57c.17-2.08-3.17-2.51-3.63-.49a21.18,21.18,0,0,1-.55,2.23q-.5,2.9-4.72,2.27c1.62-1.74-1-4.36-2.61-2.61Z"/><path class="cls-1" d="M77,168c1.87,8.05-7.66,16.45-1.88,24.19,2.9,3.88,8.93,3.82,11.33-.49,1.16-2.08-2-3.94-3.19-1.86-3,5.36-6.41-1.94-6.28-4.42s1.38-5,2.27-7.32c1.42-3.78,2.24-7.08,1.31-11.08-.54-2.31-4.1-1.33-3.56,1Z"/><path class="cls-1" d="M73.46,182.72l7.39-.71c2.35-.23,2.37-3.92,0-3.69l-7.39.71c-2.35.23-2.37,3.92,0,3.69Z"/><path class="cls-1" d="M89.71,177.15a6.79,6.79,0,0,0-4,8.59c1.31,3.62,5.74,5.09,9.19,3.77,3.65-1.4,5.35-5.73,4.34-9.38-1.13-4.06-5.38-6.4-9.42-6.07-2.35.19-2.37,3.89,0,3.69a5.63,5.63,0,0,1,5.28,2.15,4.43,4.43,0,0,1-.55,5.58,3.63,3.63,0,0,1-4.88-.21,3,3,0,0,1,1-4.55c2.17-.88,1.22-4.46-1-3.56Z"/><path class="cls-1" d="M101.06,178.53,99.5,194.78c-.23,2.37,3.47,2.35,3.69,0l1.56-16.25c.23-2.37-3.47-2.35-3.69,0Z"/><path class="cls-1" d="M104,183.23c.48-3.26,4-1.22,4.63.85.79,2.61-.51,5.44-1.48,7.83-.89,2.2,2.68,3.16,3.56,1,1.78-4.4,3.3-10.4-1.16-13.82-3.14-2.41-8.49-1.06-9.12,3.18-.34,2.33,3.22,3.33,3.56,1Z"/><path class="cls-1" d="M111.42,183.17c.56-3.39,4.33-1.48,5.16.67,1,2.67-.07,5.69-.89,8.26-.72,2.27,2.84,3.24,3.56,1,1.48-4.66,2.7-10.92-2-14.27-3.32-2.38-8.7-1-9.42,3.38-.39,2.33,3.17,3.33,3.56,1Z"/><path class="cls-1" d="M126.2,177.28a7.13,7.13,0,0,0-2.81,10c2.32,3.62,7.92,3.91,10.93,1s2.67-8.16-.34-11c-3.3-3.09-8.86-2.27-11.61,1.12-1.48,1.83,1.11,4.46,2.61,2.61s4.13-2.75,6.17-1.29a4.09,4.09,0,0,1,.89,5.56c-1.25,1.56-4.21,1.78-5.47.09a3.42,3.42,0,0,1,1.48-5c2.15-1,.28-4.19-1.86-3.19Z"/><path class="cls-1" d="M138.16,174.6l3,12.9c.54,2.33,4,1.33,3.56-1a15.85,15.85,0,0,1,3.76-13.69c1.57-1.77-1-4.4-2.61-2.61a19.84,19.84,0,0,0-4.71,17.28l3.56-1-3-12.9c-.54-2.31-4.1-1.33-3.56,1Z"/><path class="cls-1" d="M148.88,176.33l.12,13.3c0,2.38,3.72,2.38,3.69,0l-.12-13.3c0-2.38-3.72-2.38-3.69,0Z"/><path class="cls-1" d="M152.17,183.36l7.43-6.6c1.78-1.58-.84-4.19-2.61-2.61l-7.43,6.6c-1.78,1.58.84,4.19,2.61,2.61Z"/><path class="cls-1" d="M166.59,171.19a6.26,6.26,0,0,0-3.89,8.18c1.36,3.42,5.77,4.61,8.93,3,3.35-1.68,4.42-6,2.91-9.3-1.72-3.73-6.32-5.16-10-3.81-2.22.8-1.26,4.37,1,3.56a4.63,4.63,0,0,1,5.28,1.09,3.64,3.64,0,0,1-.27,4.83,3.06,3.06,0,0,1-4.13-.3,2.51,2.51,0,0,1,1.2-3.71c2.26-.72,1.29-4.28-1-3.56Z"/><path class="cls-1" d="M175.41,170.12,178,187.24c.23,1.55,2.73,1.81,3.38.44l5.48-11.55-3.38-.44,3.2,11.34c.53,1.9,2.91,1.6,3.56,0l8.08-20c.89-2.2-2.68-3.16-3.56-1l-8.08,20h3.56L187,174.72c-.4-1.43-2.67-1.93-3.38-.44l-5.48,11.55,3.38.44L179,169.14c-.35-2.34-3.91-1.35-3.56,1Z"/><path class="cls-1" d="M198.48,156.05c3.21-7.48,13.6-2.69,9.74,4.78-1.61,3.12-4.61,5.32-6.83,8-3.07,3.65-5.22,8.09-3.31,12.78.88,2.17,4.46,1.22,3.56-1-4.1-10.11,14.66-15.14,10.79-26.21-2.89-8.25-13.88-7.76-17.13-.19-.93,2.16,2.25,4,3.19,1.86Z"/><path class="cls-1" d="M199.79,189.25H199a1.85,1.85,0,1,0,0,3.69h.74a1.85,1.85,0,0,0,0-3.69Z"/></g></g></svg>