<svg xmlns="http://www.w3.org/2000/svg" viewBox="0 0 234.95 265.47"><defs><style>.cls-1{fill:#454da1;}.cls-2{fill:#fff;}</style></defs><title>Asset 50</title><g id="Layer_2" data-name="Layer 2"><g id="Layer_1-2" data-name="Layer 1"><path class="cls-1" d="M93.67,8.89c-14.8-2.41-22.35-6.46-44-8-19.49-1.38-34.32-2.25-43,6-10.71,10.19-6,28.56-3,51,10.63,79.06-14.91,94.65,5,138,4.89,10.66,17.82,34.5,44,51,42.5,26.78,105.35,25,145-8,63.58-53,28.69-154,19-182-7.64-22.12-16.18-45.76-37-54C154.51-7.06,138.43,16.18,93.67,8.89Z"/><path class="cls-2" d="M28.86,24c5.85,4.84,9,12.29,14.42,17.56,2.18,2.1,5.51-1.22,3.33-3.33C41.14,33,38.05,25.56,32.18,20.7c-2.32-1.92-5.66,1.39-3.33,3.33Z"/><path class="cls-2" d="M58.33,18.82C52.74,24.6,46.15,32.88,44.79,41c-1,5.82-.87,14.16,1.89,19.54,1.38,2.69,5.44.32,4.06-2.37C48.55,53.9,48.49,46,49.47,41.36c1.46-6.94,7.42-14.29,12.19-19.21,2.11-2.17-1.21-5.5-3.33-3.33Z"/><path class="cls-2" d="M59.59,41.4c-3.26,3.17-4.66,9.3-2.58,13.46,2.42,4.84,9.08,4.27,12.47.75,6.76-7-5.2-22.87-10.25-14.35-1.55,2.61,2.52,5,4.06,2.37.35-.59,0-.14-.11-.15a1.68,1.68,0,0,1,.62.31,8.34,8.34,0,0,1,2,2.45c1,1.84,1.87,4.74,0,6.36s-4.46,1.71-4.95-.9a8.2,8.2,0,0,1,2-7c2.17-2.11-1.15-5.44-3.33-3.33Z"/><path class="cls-2" d="M75.29,39.3c-1.57,4.91-3.48,21.49,6.15,19.26,4.07-.94,5.82-6.32,6.71-9.83.79-3.11,2.18-8.32-.15-11.09-2-2.32-5.26,1-3.33,3.33-.62-.74-.13,0-.21.48s0,1.07-.06,1.56a26.28,26.28,0,0,1-.78,4.47C83.3,48.71,82.08,54,80.3,54c-3.29,0-1.07-11.57-.47-13.44.92-2.89-3.61-4.13-4.54-1.25Z"/><path class="cls-2" d="M103.42,38.67a64.58,64.58,0,0,0,3.83,18.7,2.39,2.39,0,0,0,4.3.56c2.2-3.39,3-7.34,4.88-10.9l-4.3-.56c2,4.8,3.74,9.94,7.56,13.62,1.17,1.13,3.62.78,3.93-1,1.21-7,1.49-14.29,3.86-21,1-2.86-3.54-4.09-4.54-1.25-2.36,6.71-2.65,14-3.86,21l3.93-1c-3.21-3.09-4.69-7.52-6.35-11.55-.7-1.7-3.28-2.55-4.3-.56-1.83,3.56-2.7,7.54-4.88,10.9l4.3.56a60.21,60.21,0,0,1-3.66-17.45c-.22-3-4.93-3-4.7,0Z"/><path class="cls-2" d="M129,52.94c5.8-.2,10.46-3.22,14.69-7a2.4,2.4,0,0,0,0-3.33c-2.05-2.44-5-4.87-8.44-4.19-2.63.52-4.43,2.7-5.48,5-2.05,4.59-2.74,12.76,2,16,3.12,2.14,6.86.71,9.66-1.27,2.45-1.73.11-5.81-2.37-4.06a8.18,8.18,0,0,1-3.66,1.72,1.31,1.31,0,0,1-1.41-.68c-1.07-1.46-1.23-4.21-.95-6.36.27-2,1-4.48,2.49-5.58a1.55,1.55,0,0,1,1.51-.13,8.94,8.94,0,0,1,3.28,2.8V42.65c-3.26,2.88-6.87,5.43-11.36,5.58-3,.1-3,4.81,0,4.7Z"/><path class="cls-2" d="M147.95,38v16.3c0,3,4.7,3,4.7,0V38c0-3-4.7-3-4.7,0Z"/><path class="cls-2" d="M151.07,47.38a13.86,13.86,0,0,1,2.29-2.61c.17-.14.54-.42.52-.3s-.61-.1-.57-.13.2.25.13.09c.11.25.29.46.4.72a13.52,13.52,0,0,1,.6,2c.83,3.41.94,6.95,1.75,10.36.7,2.94,5.23,1.7,4.54-1.25-1-4.4-.76-9.33-2.82-13.45a4.72,4.72,0,0,0-4.41-3c-2.9.16-4.95,3.08-6.47,5.19-1.77,2.46,2.31,4.81,4.06,2.37Z"/><path class="cls-2" d="M164.25,17.35c0,7.5.45,15,.49,22.48A33.34,33.34,0,0,0,166,50c2.21,6.85,7.62,9,12.88,3.49,2.09-2.19-1.23-5.52-3.33-3.33-2.52,2.65-3.66,2.15-4.88-1a21.78,21.78,0,0,1-1.25-6.54c-.47-8.37-.47-16.92-.51-25.3,0-3-4.72-3-4.7,0Z"/><path class="cls-2" d="M159.08,39.77c3.91,0,9.06-2.52,12.61-.32,2.58,1.6,4.94-2.47,2.37-4.06-4.76-3-9.9-.27-15-.32-3,0-3,4.68,0,4.7Z"/><path class="cls-2" d="M47.61,73.16c.39,10.87-2,21.78-.54,32.61.4,3,4.94,1.71,4.54-1.25-1.4-10.35,1.09-21,.71-31.36-.11-3-4.81-3-4.7,0Z"/><path class="cls-2" d="M51.84,73.63c7.3-.08,14.76-1.19,22,.54,2.94.71,4.2-3.83,1.25-4.54-7.64-1.84-15.44-.79-23.2-.71-3,0-3,4.74,0,4.7Z"/><path class="cls-2" d="M50.59,91.73c8.12-1.68,16.17-3.65,24.46-4.31,3-.24,3-4.94,0-4.7-8.72.69-17.17,2.71-25.71,4.47-3,.61-1.71,5.15,1.25,4.54Z"/><path class="cls-2" d="M90.25,71.28a141.43,141.43,0,0,0,1.07,21.34c.77,5.14,2.36,14.23,9,14.79,7.62.64,9.48-8.66,10.23-14.3,1.16-8.71.76-17.47.72-26.22,0-3-4.72-3-4.7,0,0,4.7,1.88,37.85-6.19,35.8-4.29-1.09-4.68-12.27-5-15.5-.45-5.29-.46-10.6-.45-15.91,0-3-4.7-3-4.7,0Z"/><path class="cls-2" d="M125.06,66.33c-2.13,3.67-2.2,8.6-2.53,12.71-.39,4.89-.92,9.88-1.09,14.77-.39,11.4,11,7.07,18.19,7.4,3,.14,3-4.56,0-4.7-3.47-.16-6.79.68-10.24.76-4.6.1-3.13-4.18-2.86-7.54.51-6.26-.65-15.45,2.58-21,1.52-2.62-2.54-5-4.06-2.37Z"/><path class="cls-2" d="M150.45,70c-.09,5.23-.81,10.43-.87,15.66,0,3.23-.36,8.64,1.85,11.36,2,2.48,5.54,1.87,8.34,1.65,4.87-.38,9.8-.69,14.28-2.81,2.73-1.3.35-5.35-2.37-4.06-3.49,1.66-7.49,1.82-11.28,2.12S155,95,154.5,91c-.84-7,.54-14,.65-21,.05-3-4.65-3-4.7,0Z"/><path class="cls-2" d="M52.08,115.18c-3.73,11.46-11,22.27-12,34.49-.25,3,4.46,3,4.7,0,1-11.67,8.26-22.25,11.83-33.24.94-2.88-3.6-4.12-4.54-1.25Z"/><path class="cls-2" d="M52.71,117.68c1.86,10.19,8.77,18.18,12.54,27.59,1.11,2.77,5.66,1.56,4.54-1.25-3.76-9.38-10.7-17.47-12.54-27.59-.54-3-5.08-1.71-4.54,1.25Z"/><path class="cls-2" d="M47.45,137.51a63.21,63.21,0,0,1,16.31-2.42c3-.11,3-4.82,0-4.7A68.35,68.35,0,0,0,46.2,133c-2.88.89-1.65,5.43,1.25,4.54Z"/><path class="cls-2" d="M88.84,121.06c-9.48-3.51-18.84,10.38-10.89,17.41,7.63,6.74,14.46-7.91,15.73-13.49a2.35,2.35,0,0,0-4.54-1.25c-1.79,5.85-.34,12.45.38,18.36.7,5.75,2.7,15.08-1.49,20-2.4,2.81-7.53,3.34-10.52,1.15-4.16-3.05-.4-7.71,2.29-10.22a48,48,0,0,1,21-11.09c2.95-.68,1.7-5.22-1.25-4.54-9.13,2.11-19.82,7.63-25.62,15.12-6,7.78-1.26,16.93,8.67,16.73,21.76-.42,7.63-32.76,11.13-44.24l-4.54-1.25c-.72,3.14-2.76,9.38-5.87,10.95s-4.22-2.56-3.13-5.13c1.23-2.93,4.27-5.13,7.45-3.95,2.84,1.05,4.07-3.49,1.25-4.54Z"/><path class="cls-2" d="M111.57,122.7a116.45,116.45,0,0,0-.63,17.9,2.37,2.37,0,0,0,4.38,1.19,2.61,2.61,0,0,0,.26-.49c2-2.27-1.32-5.61-3.33-3.33a9.17,9.17,0,0,0-1,1.44l4.38,1.19a116.47,116.47,0,0,1,.63-17.9c.32-3-4.39-3-4.7,0Z"/><path class="cls-2" d="M112.29,112.67a3.17,3.17,0,0,0,2.27,4.15,2.35,2.35,0,1,0,1.25-4.54,1,1,0,0,0-.24-.06l.77.45a1.32,1.32,0,0,1,.33.52,1.54,1.54,0,0,1,.11.8c0,.42,0,0,0-.07a2.35,2.35,0,1,0-4.54-1.25Z"/><path class="cls-2" d="M132.27,110.16c.64,10.54-4.84,24.11.95,33.8,1.55,2.6,5.62.23,4.06-2.37-2.64-4.42-1.71-10.62-1.27-15.5.47-5.29,1.29-10.6,1-15.92-.18-3-4.89-3-4.7,0Z"/><path class="cls-2" d="M154.69,129.36c5.62,1.83,12.47-1,15.93-5.52a2.28,2.28,0,0,0,0-2.37c-7.41-11.1-24.66-1.67-23.36,10.34,1.22,11.26,17,9.7,24.29,6.1,2.71-1.35.33-5.41-2.37-4.06-4,2-13.55,4.12-16.61-.59-4.51-6.95,9-16.9,14-9.41v-2.37a10.62,10.62,0,0,1-10.62,3.36c-2.88-.94-4.12,3.6-1.25,4.54Z"/><path class="cls-2" d="M180.4,138.22c3,0,3-4.7,0-4.7s-3,4.7,0,4.7Z"/><path class="cls-2" d="M43.15,161.2c-2.52,4.61-3.44,10.47-4.41,15.57-.62,3.25-2.7,9.87.05,12.66,2.31,2.34,5.91-1.27,3.6-3.6.82.83.2-.5.34-1.37s.17-1.85.3-2.77c.32-2.28.78-4.54,1.28-6.78.79-3.61,1.44-7.85,3.23-11.13,1.57-2.88-2.83-5.46-4.4-2.57Z"/><path class="cls-2" d="M42.21,163.16c2.63,7.45,4,15.37,8.8,21.86,1.12,1.51,4.31,1.81,4.66-.61a200.88,200.88,0,0,0,2.42-25.32c.05-3.28-5-3.28-5.1,0a190.16,190.16,0,0,1-2.23,24l4.66-.61c-4.52-6.14-5.81-13.59-8.29-20.64-1.08-3.07-6-1.75-4.91,1.35Z"/><path class="cls-2" d="M62.33,184c4-1,11-4.69,10.5-9.72-.65-6.41-8.27-5.63-12-2.65-4.65,3.75-4,10.46-.89,15.09a9,9,0,0,0,7.42,4c3.9,0,7.07-2.68,10.56-4,3-1.15,1.72-6.08-1.35-4.91s-7.11,4.63-10.36,3.66c-2.72-.81-4.47-5.82-3.47-8.34.54-1.36,5.25-4,4.77-2-.44,1.85-4.95,3.54-6.57,4-3.17.81-1.83,5.73,1.35,4.91Z"/><path class="cls-2" d="M78.88,177.2c3.12,3.44,4.47,8.39,7.36,12.08,1.2,1.53,3.84.59,4.26-1.12,1.19-4.86,3.16-9.43,4.87-14.11,1.13-3.09-3.8-4.42-4.91-1.35-1.71,4.69-3.68,9.26-4.87,14.11l4.26-1.12c-2.91-3.72-4.17-8.56-7.36-12.08-2.21-2.43-5.8,1.18-3.6,3.6Z"/><path class="cls-2" d="M100.38,181.93a21.93,21.93,0,0,0,7.89-4.61,5.45,5.45,0,0,0,1.79-4.82,4.57,4.57,0,0,0-3.67-4.08c-3.48-.62-7.11,2.37-8.84,5.12-1.94,3.1-2.42,7.44-.36,10.6,2.83,4.35,8.21,3.53,11.95.92,2.67-1.86.13-6.28-2.57-4.4-1.55,1.08-4.23,2.64-5.32.31-1-2.15.35-5,2-6.4.19-.15,2.48-1.4,2.47-1.15s-1-.39-.76-.37c.4,0-.2.26.11.1a5.05,5.05,0,0,1-.71.8,15.79,15.79,0,0,1-3.32,2.09c-.5.26-1,.49-1.51.73-.77.36.05,0-.54.23-3.06,1.11-1.74,6,1.35,4.91Z"/><path class="cls-2" d="M112.78,169.28c-.08,4.9-.95,9.77-.54,14.68.23,2.73,4.24,3.62,5,.68,1.45-5.59,3.87-11.47,8-15.59,2.34-2.31-1.27-5.91-3.6-3.6-4.79,4.72-7.69,11.41-9.35,17.84l5,.68c-.4-4.91.46-9.77.54-14.68.05-3.28-5-3.28-5.1,0Z"/><path class="cls-2" d="M160.14,164.13A10.68,10.68,0,0,0,155.77,176c1.37,4.84,6.16,6.33,10.36,3.84,4.74-2.81,6.48-8.63,3.35-13.34-2.92-4.4-8.53-5.67-12.57-2-2.43,2.21,1.18,5.8,3.6,3.6,1.69-1.53,3.73-.39,4.79,1.32,1.53,2.45.33,5.06-2.17,6.26-1.64.78-2.33.11-2.61-1.75a5.44,5.44,0,0,1,2.2-5.42c2.8-1.69.25-6.1-2.57-4.4Z"/><path class="cls-2" d="M60.19,202.74c.11-2.73-.21-6.8-3.76-7-2.73-.18-4.83,2.52-6.12,4.58-2.33,3.74-2.68,7.57-2.51,11.9.13,3.31.6,6.68.24,10-.25,2.33-1.74,4.45-.23,6.55a2.71,2.71,0,0,0,4.16.54l.54-.21c3.11-1.37.42-5.93-2.67-4.57a6.43,6.43,0,0,0-1.62,1l4.16.54s1-6.18,1-7.17c0-3.06-.42-6.1-.39-9.16a11.84,11.84,0,0,1,1.59-6.36c.39-.66,1.56-1.6,1.7-2.22l-1.51-.92a9.11,9.11,0,0,1,.07,2.53c-.13,3.41,5.17,3.4,5.3,0Z"/><path class="cls-2" d="M46.17,216.33a20.28,20.28,0,0,1,10.67-2.46c3.41.09,3.41-5.21,0-5.3a25.53,25.53,0,0,0-13.34,3.19c-2.95,1.71-.28,6.29,2.67,4.57Z"/><path class="cls-2" d="M61.25,209.1c-.18,5.7-.3,11.12,3.41,15.8a2.66,2.66,0,0,0,3.75,0c4.21-4.78,6.08-11,6.62-17.21.29-3.4-5-3.38-5.3,0-.41,4.76-1.85,9.81-5.06,13.46h3.75c-2.63-3.31-2-8.11-1.86-12,.11-3.41-5.19-3.41-5.3,0Z"/><path class="cls-2" d="M77.5,199.92c-.08,4.82-.77,9.62-1,14.44-.15,3.34-.68,8.05,1.76,10.74,2.3,2.53,6-1.23,3.75-3.75-1.39-1.53-.15-8.26,0-10.29.26-3.71.73-7.42.79-11.14.05-3.41-5.24-3.41-5.3,0Z"/><path class="cls-2" d="M86,199.92c-.75,8.25-2,16.43-2.12,24.72,0,3.41,5.26,3.41,5.3,0,.1-8.3,1.37-16.47,2.12-24.72.31-3.39-5-3.37-5.3,0Z"/><path class="cls-2" d="M112.2,197.8c-1.42,5.59-4.48,10.71-6.73,16-1.63,3.84-3.9,8.73-2.45,13,1.1,3.21,6.21,1.83,5.11-1.41-1.35-3.95,2.35-9.94,3.91-13.33,1.92-4.17,4.14-8.34,5.27-12.81.84-3.31-4.27-4.72-5.11-1.41Z"/><path class="cls-2" d="M113.52,199.21c.1,8.88.69,18.2,2.92,26.84.85,3.3,6,1.9,5.11-1.41-2.11-8.19-2.64-17-2.73-25.43,0-3.41-5.34-3.42-5.3,0Z"/><path class="cls-2" d="M107,218.1c3.6,0,7.05-1,10.59-1.51,1.43-.21,2.18-2,1.85-3.26a2.71,2.71,0,0,0-3.26-1.85c-3.07.44-6.06,1.3-9.18,1.32-3.41,0-3.41,5.32,0,5.3Z"/><path class="cls-2" d="M131.71,202.31c-7-1.2-14.58,10.53-7.47,15,6.16,3.9,11.08-7.78,11-12.27-.06-3.43-5.1-3.39-5.3,0-.28,4.8.54,9.53,1,14.3.41,4.49,1.34,11.79-2.49,15.2-2.87,2.56-3.25-1.23-2.24-3.52a19.29,19.29,0,0,1,3.49-4.8c2.57-2.88,5.6-5.31,8.14-8.21,2.24-2.55-1.49-6.32-3.75-3.75-4.1,4.68-9.58,8.4-12.46,14.09-2.14,4.24-1.86,11.89,4.08,12.82s9.71-6.86,10.46-11.58c1.29-8.2-1.39-16.34-.92-24.54h-5.3a11.49,11.49,0,0,1-2.18,6.06c-.71,1-1.47,2.65-.79.16.32-1.2,1.67-4.16,3.33-3.88,3.33.57,4.77-4.54,1.41-5.11Z"/><path class="cls-2" d="M143.18,204.86c0,2.76-.38,5.51-.51,8.26-.09,2-.4,4.8.87,6.49,2,2.69,6.63.05,4.57-2.67-.62-.83-.15-3.89-.07-5.13.14-2.32.4-4.63.43-7,.05-3.41-5.25-3.41-5.3,0Z"/><path class="cls-2" d="M131,192.55a3.07,3.07,0,0,0-3.23,3.23,2.55,2.55,0,0,0,5.1,0v-.13a1.21,1.21,0,0,1-.8,1.19,1.06,1.06,0,0,1-1,.77q-.41,0-.1,0a2.56,2.56,0,0,0,2.55-2.55,2.61,2.61,0,0,0-2.55-2.55Z"/><path class="cls-2" d="M151,187.91c0,6.92.3,13.83.5,20.74.09,3.13.17,6.26.18,9.4,0,2.35-.39,4.22,1.13,6.08,1.31,1.59,3.92.6,4.43-1.17a9,9,0,0,1,.38-1.15c1.15-3.21-4-4.6-5.11-1.41a9,9,0,0,0-.38,1.15l4.43-1.17c-.24-.3.38-5.86.35-7-.06-2.82-.14-5.64-.23-8.46-.18-5.66-.36-11.32-.38-17,0-3.41-5.31-3.41-5.3,0Z"/><path class="cls-2" d="M163.49,213.07a51.31,51.31,0,0,0,14.6-5.93,2.68,2.68,0,0,0-.63-4.84c-8.67-3.07-22.11,3.24-17.59,13.89,4.14,9.76,16.57,3.75,23.33.86,3.12-1.34.43-5.9-2.67-4.57-3.46,1.48-11.34,6-14.89,3-2.64-2.25-1.23-5.85,1.29-7.3a11.27,11.27,0,0,1,9.13-.78l-.63-4.84a46.6,46.6,0,0,1-13.33,5.4c-3.31.82-1.91,5.93,1.41,5.11Z"/><path class="cls-2" d="M147.95,162.75c-5.47-1.36-14.19,5.38-11.35,11.36,4.13,8.69,12.54-1.83,14.8-6l-4.66-2c-1.32,5.86-.89,13.31-4.29,18.48a11.6,11.6,0,0,1-1.24,1.47q-1.59-.06-1.34,1,0,.8.24-.11a9.55,9.55,0,0,1,3.13-4.15c3.24-2.74,7.38-4.1,10.59-6.94,2.46-2.18-1.15-5.77-3.6-3.6-4.77,4.22-11.15,5.62-14.31,11.64-1.75,3.34-1.79,8.17,3.11,8.11,11.3-.14,10.92-17,12.63-24.53.61-2.72-3.23-4.61-4.66-2-.69,1.29-3.2,6.47-4.83,6.37-2-.12,2.36-4.72,4.43-4.21,3.18.79,4.54-4.12,1.35-4.91Z"/></g></g></svg>