<svg xmlns="http://www.w3.org/2000/svg" viewBox="0 0 197 85.03"><defs><style>.cls-1{fill:#231f20;}</style></defs><title>Asset 55</title><g id="Layer_2" data-name="Layer 2"><g id="Layer_1-2" data-name="Layer 1"><path class="cls-1" d="M28.23,6c-6.09-.31-12.2,1.74-17.5,4.62C7.28,12.49,2.28,15.47,1,19.53c-2.34,7.64,10.34,7.52,14.7,7.8,5.2.34,21.86,3.09,20.7,10.55-.85,5.48-9.74,6.36-13.92,6.31C17.34,44.14,12.17,43,8.09,39.71c-2-1.56-4.85.35-3.57,2.76a7.61,7.61,0,0,0,.52.91c1.54,2.48,5.48.2,3.93-2.3a7.61,7.61,0,0,1-.52-.91L4.87,42.93c7.3,5.84,18.32,7.52,27.19,4.42,7.81-2.73,12.43-11.13,5.16-17.28-6.2-5.24-15-6.84-22.8-7.37A38.46,38.46,0,0,1,7.87,22C5.06,21.3,5,20.86,7,18.81c5.05-5.26,14-8.65,21.23-8.28,2.93.15,2.92-4.4,0-4.55Z"/><path class="cls-1" d="M51.43,9.48C50.9,15.72,48,21.69,47,27.88,45.72,35.41,45.31,43,43.1,50.37c-.86,2.84,3.4,3.93,4.39,1.21L48,50.11c1-2.76-3.39-3.94-4.39-1.21l-.53,1.46,4.39,1.21c2.39-7.94,2.65-16.17,4.21-24.27,1.15-6,3.77-11.7,4.29-17.83.25-2.92-4.3-2.9-4.55,0Z"/><path class="cls-1" d="M52.12,10.08c2.15,7.79,4.62,15.49,7,23.21,1.57,5,3.64,10.35,3.35,15.71l3.88-1.61.45.3C66.42,44.8,62,46,62.43,48.9a3,3,0,0,0,.72,1.71c1.31,1.68,3.79.15,3.88-1.61.28-5.19-1.47-10.3-3-15.18-2.56-8.31-5.25-16.57-7.56-25-.78-2.82-5.17-1.62-4.39,1.21Z"/><path class="cls-1" d="M46.43,38.36A85.69,85.69,0,0,1,61,35.4c2.88-.32,2.91-4.87,0-4.55A92.48,92.48,0,0,0,45.22,34c-2.8.82-1.61,5.21,1.21,4.39Z"/><path class="cls-1" d="M61.8,10.48c3.29,3.1,6.53,6.26,9.75,9.43,1.77,1.74,3.53,3.48,5.27,5.25.69.7,1.34,1.46,2.05,2.14.55.52.71,1.35.53.38.53,2.88,4.91,1.66,4.39-1.21-.21-1.16-1.59-2.27-2.35-3.08-1.8-1.9-3.67-3.73-5.53-5.57-3.6-3.55-7.22-7.08-10.9-10.55-2.13-2-5.35,1.2-3.22,3.22Z"/><path class="cls-1" d="M99.26,6.3c-7.4,4.36-16,11.37-19.93,19.16-2.14,4.28-.21,7.65.88,12a29.94,29.94,0,0,1,.34,9.88H85.1v-.23c0-2.92-4.59-2.93-4.55,0v.23c0,3,4.25,2.86,4.55,0a45.43,45.43,0,0,0,.06-7.91c-.29-3.81-3.33-7.94-1.89-11.64,1.53-3.92,5.67-7.42,8.71-10.17a59,59,0,0,1,9.59-7.36c2.52-1.48.23-5.42-2.3-3.93Z"/><path class="cls-1" d="M113.9,11.29a51.45,51.45,0,0,1-.61,7.28,2.29,2.29,0,0,0,2.27,2.27,2.33,2.33,0,0,0,2.27-2.27,51.45,51.45,0,0,0,.61-7.28c-.09-2.92-4.64-2.93-4.55,0Z"/><path class="cls-1" d="M129.15,8.26a191.24,191.24,0,0,0-10.31,34.57c-.53,2.86,3.85,4.09,4.39,1.21A191.25,191.25,0,0,1,133.53,9.47c1.07-2.73-3.33-3.91-4.39-1.21Z"/><path class="cls-1" d="M130.28,8.87c.48,11.11,5.66,21.63,5.46,32.75-.05,2.93,4.5,2.93,4.55,0,.2-11.17-5-21.64-5.46-32.75-.13-2.92-4.68-2.93-4.55,0Z"/><path class="cls-1" d="M122.24,35.32a127.89,127.89,0,0,0,13.95-3.64c2.79-.85,1.6-5.25-1.21-4.39A127.89,127.89,0,0,1,121,30.94c-2.87.54-1.66,4.92,1.21,4.39Z"/><path class="cls-1" d="M150.14,21.84C143.54,20,139.8,31.72,144,35.76c6.41,6.17,12.33-5.74,12.06-11-.15-2.9-4.59-2.95-4.55,0,.11,8.59,1.88,17.28.42,25.84-.32,1.86-.74,4.12-1.93,5.65-3,3.86-8.33.36-6.75-4.17,1.77-5.09,7.46-9.68,11.68-12.75,2.34-1.71.08-5.66-2.3-3.93-5.43,4-13.14,10.09-14.29,17.19-1.12,6.89,6.56,12.75,12.71,8.89,5-3.16,5.65-10.42,5.88-15.76.29-7-.79-14-.88-21h-4.55c.09,1.66-.75,6.45-2.64,7.25-4.23,1.77-1.25-6.17.06-5.8,2.82.8,4-3.58,1.21-4.39Z"/><path class="cls-1" d="M160,22.82c.06,4.25.55,8.48.61,12.74,0,2.92,4.59,2.93,4.55,0-.06-4.25-.55-8.48-.61-12.74,0-2.92-4.59-2.93-4.55,0Z"/><path class="cls-1" d="M162.27,14.18c2.93,0,2.93-4.55,0-4.55s-2.93,4.55,0,4.55Z"/><path class="cls-1" d="M171.52,2.2c0,7.56-.23,15.11-.41,22.67-.09,3.77-.26,7.55-.21,11.31,0,1.85-.2,3,1.47,4.08s3.26-.36,3.42-2l0,.23c1.34-2.6-2.58-4.9-3.93-2.3a5.31,5.31,0,0,0-.59,2.07l3.42-2-.36-.23,1.13,2c.09-12,.61-23.91.64-35.87,0-2.93-4.54-2.93-4.55,0Z"/><path class="cls-1" d="M181.07,32.29a25.6,25.6,0,0,0,10.67-6,2.34,2.34,0,0,0,.36-2.76c-4.13-9.33-14-.83-15.51,5.72-.81,3.63.43,8.28,4.2,9.69s7.84-.34,11.21-1.76c2.66-1.12,1.49-5.52-1.21-4.39-3.24,1.36-10.58,4.56-9.87-2a9.68,9.68,0,0,1,3.22-5.64c1.84-1.66,3-1.71,4,.64l.36-2.76a20.59,20.59,0,0,1-8.66,4.87c-2.82.76-1.63,5.15,1.21,4.39Z"/><path class="cls-1" d="M192.45,4.62v6.67c0,2.93,4.55,2.93,4.55,0V4.62c0-2.93-4.55-2.93-4.55,0Z"/><path class="cls-1" d="M2.36,70.34A7.36,7.36,0,0,0,.7,78.89a5.79,5.79,0,0,0,7,3.23,8.11,8.11,0,0,0,5.47-7.58,7.63,7.63,0,0,0-4.42-6.37,5.81,5.81,0,0,0-8,2.63,2.34,2.34,0,0,0,.82,3.11,2.29,2.29,0,0,0,3.11-.82,2,2,0,0,1,.67-1c-.37.31.38-.27-.06,0,.09-.06.7-.16.22-.1a2.94,2.94,0,0,1,.65,0c-.34,0,0,0,.16.06a2.16,2.16,0,0,1,.83.37,2.65,2.65,0,0,1,1.28,3.22,4.21,4.21,0,0,1-2.1,2.09.9.9,0,0,1-1.21-.32,2.76,2.76,0,0,1-.63-1.74,2.79,2.79,0,0,1,1.06-2.17c2.15-2-1.07-5.2-3.22-3.22Z"/><path class="cls-1" d="M16.25,69.52a59.77,59.77,0,0,1-.66,10.88H20c-.66-1.6.58-6.64,2.5-7.14-.07,0-.33-.25-.17-.16s.19.72.22.9a19.11,19.11,0,0,1,.15,3.12A22.21,22.21,0,0,0,23,82.26c.71,2.84,5.1,1.64,4.39-1.21-.91-3.64,1.32-13.82-5.85-12.22-4.41,1-7.61,8.77-5.95,12.79.75,1.81,3.93,2.48,4.39,0a66.23,66.23,0,0,0,.82-12.09c0-2.93-4.55-2.93-4.55,0Z"/><path class="cls-1" d="M30.66,79.07c3.42.26,6.9-1.13,8.35-4.41,1.07-2.42.75-5.84-2-7-3-1.25-6.55,1.36-7.61,4.09a12.45,12.45,0,0,0,.84,9.68c2,3.9,6,4.66,9.3,1.81,2.22-1.92-1-5.12-3.22-3.22-1.42,1.23-2.13-.49-2.58-2.06s-.86-4.25.61-5.47c.27-.23.7-.34.95-.57s.24.14-.21-.2c0,0-.07-.36,0,.08,0-.12,0,.48,0,.34-.45,2-2.42,2.5-4.4,2.36-2.92-.22-2.91,4.33,0,4.55Z"/><path class="cls-1" d="M51.51,70.13c-.62,4.25-1.41,8.47-1.9,12.73-.33,2.9,4.22,2.88,4.55,0,.44-3.86,1.18-7.68,1.74-11.53.42-2.86-4-4.1-4.39-1.21Z"/><path class="cls-1" d="M55.06,74.91c.07-.12,1.34-1.84,1.34-1.86s-.63,0-.64-.11c.08.53.52,1.32.68,1.94a16.85,16.85,0,0,1,.45,6h4.55c-.19-2,.35-5.86,1.74-6.92,0,0-.21-.41-.17-.08s.14.48.16.74a25.27,25.27,0,0,1,.05,2.65c0,1.47-.24,2.93-.27,4.4-.06,2.93,4.49,2.93,4.55,0,.08-3.8,1.82-12.15-4.22-12.26-5.1-.09-6.77,7.55-6.4,11.47a2.28,2.28,0,0,0,4.55,0c.36-3.24-.06-7.5-1.86-10.29-2.7-4.18-6.6-1.06-8.44,2-1.49,2.53,2.44,4.82,3.93,2.3Z"/><path class="cls-1" d="M71.76,70.8c-2,3.61-3.18,7.77-.13,11.16a2.27,2.27,0,0,0,2.21.58A8.43,8.43,0,0,0,80,73.76c-.24-3.55-3.29-6.7-6.84-4.39C70.74,71,73,74.91,75.48,73.3c.69-.45.34,0-.05-.24-.11-.06-.23-.1-.24-.16a5.16,5.16,0,0,1,.3,1.71,3.78,3.78,0,0,1-2.85,3.54l2.21.58c-1.45-1.62,0-4.08.84-5.64,1.43-2.56-2.49-4.85-3.93-2.3Z"/><path class="cls-1" d="M81.84,70.12c.67,3.58.28,7.15-.09,10.73-.28,2.65,3.72,2.93,4.47.6,1.32-4.1,3.09-9.3,6.85-11.8,2.43-1.61.15-5.55-2.3-3.93C85.9,69,83.55,74.9,81.83,80.25l4.47.6a40.77,40.77,0,0,0-.07-11.94c-.54-2.87-4.92-1.66-4.39,1.21Z"/><path class="cls-1" d="M94.34,79c3.14-.7,7.12-1.32,9.47-3.71,2.58-2.61,1.27-7.35-2.58-7.51C94.6,67.5,85.51,76.5,91.88,82.4c3.94,3.66,9.75,1.73,13.17-1.57,2.11-2-1.11-5.25-3.22-3.22-1.51,1.45-5.83,3.85-7.29.91-1.16-2.36,2-4.59,3.68-5.38a10,10,0,0,1,1.42-.56,6.24,6.24,0,0,0,1.3-.27c.29-.23.11.15.14,0,0,.31-.58-.71-.49-.71.4,0-.25.7-.24.69-.77.84-2.68,1.19-3.72,1.48s-2.34.58-3.51.84c-2.86.64-1.65,5,1.21,4.39Z"/><path class="cls-1" d="M123.69,57.39c-2.37,5.88-3.63,13.77-1.47,19.9,2.59,7.33,9.67,6.21,15.12,2.69,2.45-1.58.17-5.52-2.3-3.93-1.73,1.12-4.83,3.33-7,2-1.62-1-2-3.55-2.17-5.24a30.25,30.25,0,0,1,2.18-14.25c1.09-2.72-3.31-3.9-4.39-1.21Z"/><path class="cls-1" d="M118.6,74.83c3.66-.31,7.23-1.32,10.92-1.21,2.93.09,2.93-4.46,0-4.55-3.7-.11-7.25.9-10.92,1.21-2.9.24-2.92,4.79,0,4.55Z"/><path class="cls-1" d="M141.8,73.16a26.93,26.93,0,0,1-.53,7.28c-.62,2.85,3.77,4.07,4.39,1.21a31.54,31.54,0,0,0,.69-8.49c-.17-2.91-4.72-2.93-4.55,0Z"/><path class="cls-1" d="M141.2,65.88v1.21a2.27,2.27,0,0,0,4.55,0V65.88a2.27,2.27,0,0,0-4.55,0Z"/><path class="cls-1" d="M150.29,67.7V79.83c0,2.93,4.55,2.93,4.55,0V67.7c0-2.93-4.55-2.93-4.55,0Z"/><path class="cls-1" d="M155.14,71.27a13.35,13.35,0,0,0,1-2l.28-.37a1.4,1.4,0,0,1-.88,0,18.92,18.92,0,0,0,.63,1.82,11.27,11.27,0,0,1,.25,5.62l4.47.6c-.45-3.84,2.45-7,5.45-9l-3.11-.82c1.37,3,.51,6.59,1.71,9.69,1,2.7,5.45,1.53,4.39-1.21-1.35-3.48-.6-7.28-2.17-10.77A2.29,2.29,0,0,0,164,64c-4.23,2.81-8.35,7.51-7.71,12.95.28,2.37,3.79,3.29,4.47.6.87-3.44.47-8.17-1.58-11.16-2.85-4.15-6.57-.73-8,2.59-1.15,2.66,2.77,5,3.93,2.3Z"/><path class="cls-1" d="M173.19,70.58c5.21.45,10.16-1.29,13-5.83a2.31,2.31,0,0,0-.36-2.76c-5.58-5.83-16.73-1.3-15,7.17,1.86,9.16,13.42,6.35,18.52,2,2.22-1.91-1-5.12-3.22-3.22s-8.54,4.9-10.53,1.34c-2.43-4.35,4.2-7,7-4l-.36-2.76c-2,3.21-5.53,3.88-9.09,3.57-2.92-.25-2.9,4.3,0,4.55Z"/></g></g></svg>