<svg xmlns="http://www.w3.org/2000/svg" viewBox="0 0 257.34 305.2"><defs><style>.cls-1{fill:#ffcc02;}</style></defs><title>Asset 19</title><g id="Layer_2" data-name="Layer 2"><g id="Layer_1-2" data-name="Layer 1"><path d="M198.65,149.79c1.22,3.42-1.39,7.31-2.87,10.28-2.76,5.52,5.54,10.4,8.31,4.85,2.68-5.37,6-11.57,3.84-17.69-2.06-5.79-11.36-3.29-9.28,2.56Z"/><path class="cls-1" d="M92.64,8.88c-10.24.24-33.71.56-57.06,13.43-12.16,6.7-18,13.34-21.26,20.14-5.89,12.33-3.08,24.87-2.24,29.09,10,50.21-26.28,98.68-5.59,158.87,3.54,10.29,12.46,36.25,35.8,53.7,54.84,41,172.27,22.38,210.33-57.06,17.77-37.09-19.78-52-29.09-162.22C221,34.43,222.12,18.24,209,6.64,191.72-8.62,175.62,6.93,92.64,8.88Z"/><path d="M78,70.61c5.41-7.89-.27-18.54-9.25-20.06C57.5,48.63,49.56,58.17,46.48,67.84c-2.78,8.72-.56,22.45,11.6,20.58,3.12-.48,5.79-2.8,8,.53,1.71,2.61,1.3,6.93,1,9.92-.3,2.67-1,5.84-3.11,7.72s-5.42,2.15-5.92-1.31l-2.21,5.43,1.75-.75c5.67-2.43.78-10.72-4.85-8.31l-1.75.75c-2.1.9-2.49,3.5-2.21,5.43,1.37,9.5,12.82,12.2,20,7.23,8.09-5.63,9.9-18.8,7.2-27.69-1.34-4.41-4.76-8.52-9.37-9.68a13.61,13.61,0,0,0-6.81.32c-2.49.66-4.54,1.6-5-1.74-.61-4.85,2.9-12.25,6.92-14.89,3.46-2.27,11.69-.93,8.06,4.37-3.51,5.12,4.82,9.93,8.31,4.85Z"/><path d="M86.46,57.89C85.34,70.46,84.15,83,83.09,95.6c-.61,7.24.24,17.27,8.67,19.65,10.76,3,16.21-8.19,17.78-16.72,2.4-13,4.61-26.11,6.92-39.16,1.07-6.05-8.2-8.65-9.28-2.56l-4.84,27.41c-.48,2.7-3.13,25.59-8.63,21.28-1.72-1.35-1.27-6-1.18-7.75.22-4.27.74-8.53,1.12-12.78l2.42-27.07c.55-6.16-9.07-6.13-9.62,0Z"/><path d="M139,71.52c9.52-3,7.75-17.11-2-18.33C123.17,51.47,121.9,68,121.44,77.53c-.33,6.94-.76,13.88-1,20.82-.18,5.57.58,11.32,5.11,15.1,8.93,7.47,21,.45,21.65-10.26.4-6.18-9.22-6.16-9.62,0a3.76,3.76,0,0,1-3.63,3.74c-2.55,0-3.55-2.48-3.87-4.62-.73-4.83.29-10.4.52-15.25.24-5,.43-10.07.73-15.11.24-4.07.68-8.32,5.09-9.71-5.89,1.85-3.37,11.14,2.56,9.28Z"/><path d="M151.76,52.21l3.63,60.61c.37,6.15,10,6.19,9.62,0l-3.63-60.61c-.37-6.15-10-6.19-9.62,0Z"/><path d="M160.43,85l23-4.16c6.08-1.1,3.51-10.37-2.56-9.28l-23,4.16c-6.08,1.1-3.51,10.37,2.56,9.28Z"/><path d="M178.65,47.36l-.84,61.56c-.08,6.19,9.53,6.19,9.62,0l.84-61.56c.08-6.19-9.53-6.19-9.62,0Z"/><path d="M78.66,134.84c-6.93-.84-14.7.5-19.37,6.16a14.74,14.74,0,0,0-1.61,16.12c3.17,5.58,10,7.1,15.62,4.61,7.58-3.34,9.95-11.24,11.23-18.77a4.81,4.81,0,0,0-9.28-2.56,40.28,40.28,0,0,0-1.32,24.83c1.54,6,10.82,3.45,9.28-2.56A31.39,31.39,0,0,1,84.52,143l-9.28-2.56c-.61,3.55-1,8-3.54,10.88-1.68,1.9-5,3.31-6,.18-2.3-7.07,9-7.48,12.94-7,6.13.74,6.08-8.88,0-9.62Z"/><path d="M116.4,138.19c-10.31-3.19-22,6.5-19.57,17.39,2.19,9.85,14.87,14.83,23.23,9.31,5.14-3.4.33-11.73-4.85-8.31-2.88,1.9-7.79.88-8.91-2.75-1.29-4.17,4-7.47,7.54-6.36,5.93,1.83,8.46-7.45,2.56-9.28Z"/><path d="M131.23,138.18a14,14,0,0,0-9.08,15.89c1.24,6.78,7.82,10.69,14.41,9.8s12.2-6.43,11.58-13.4-6.92-13.21-14.18-12.76c-6.15.39-6.19,10,0,9.62,4.52-.29,6.65,6.35,1.32,7.07-4.3.58-5.23-5.64-1.49-6.94,5.81-2,3.31-11.32-2.56-9.28Z"/><path d="M151.74,142.33a14.08,14.08,0,0,0,3.38,17c5.36,4.62,13.17,3.74,17.91-1.34,4.59-4.93,5.16-12.68.42-17.72-4.43-4.7-12-6-17.49-2.44-5.2,3.32-.38,11.65,4.85,8.31,3.37-2.15,8.44,1.34,5.41,5.06s-8.07-.21-6.18-4c2.75-5.52-5.54-10.4-8.31-4.85Z"/><path d="M177.34,124.67,183,157.39c1.06,6.09,10.33,3.51,9.28-2.56l-5.69-32.72c-1.06-6.09-10.33-3.51-9.28,2.56Z"/><path d="M43.65,178.19l2.79,26c.65,6.09,10.28,6.16,9.62,0l-2.79-26c-.65-6.09-10.28-6.16-9.62,0Z"/><path d="M51.16,190.11c7.3-5.11,15,1.57,11.67,9.6L72.28,201c0-3.15-.31-7.69,2.06-10.18,2.54-2.67,4.3-.43,4.81,2.36,1.12,6.1-.58,11.52,2.75,17.22,3.12,5.35,11.43.51,8.31-4.85-2.75-4.71-.59-11-2.08-16.19-1.26-4.39-4.35-8.27-9-9.28C66.68,177.3,62.73,191.73,62.66,201c0,5.82,7.5,6,9.45,1.28,6.5-15.75-12-30.12-25.8-20.46-5,3.52-.24,11.86,4.85,8.31Z"/><path d="M95.44,183.12c-1.82,5.78-3.36,12-1,17.82,2.05,5.11,6.72,9.06,12.43,8.83,5.31-.21,9.85-4,12.05-8.66,2.92-6.18,1.48-13.09-.14-19.41-1.54-6-10.82-3.45-9.28,2.56.92,3.58,4,15.3-2.72,15.85s-3-11.56-2.07-14.44c1.87-5.92-7.42-8.45-9.28-2.56Z"/><path d="M140.78,176.72c-12.14,1.4-21.09,14.65-14.37,26a15.35,15.35,0,0,0,27.82-2.36c2.17-5.81-7.13-8.31-9.28-2.56-2,5.46-9.11,3.41-10.82-1.11s2.07-9.85,6.65-10.38c6.08-.7,6.15-10.33,0-9.62Z"/><path d="M159.08,171.45l3.85,33.67c.69,6.08,10.32,6.15,9.62,0l-3.85-33.67c-.69-6.08-10.32-6.15-9.62,0Z"/><path d="M168.79,191.56c5.34-9.48,18.68-3.18,15.25,7-2,5.88,7.31,8.4,9.28,2.56,2.92-8.66-1.18-18.85-9.66-22.58s-18.69.22-23.17,8.17c-3,5.4,5.26,10.25,8.31,4.85Z"/><path d="M34,227.12l15.2,32.79c2.6,5.61,10.89.73,8.31-4.85l-15.2-32.79c-2.6-5.61-10.89-.73-8.31,4.85Z"/><path d="M61.64,230.58l-11.54,26c-2.49,5.61,5.79,10.51,8.31,4.85l11.54-26c2.49-5.61-5.79-10.51-8.31-4.85Z"/><path d="M59.43,237.5l11,22.4c2.73,5.56,11,.69,8.31-4.85l-11-22.4c-2.73-5.56-11-.69-8.31,4.85Z"/><path d="M83.92,222l-9.3,33.76c-1.65,6,7.63,8.53,9.28,2.56l9.3-33.76c1.65-6-7.63-8.53-9.28-2.56Z"/><path d="M123.24,218.87c-12.16-.81-23.47,9.68-23.53,21.94s11.5,22.58,23.52,22.44c12.4-.15,22.43-11.27,23.07-23.33.65-12.38-9.34-23.54-21.41-25.22-6.05-.84-8.67,8.43-2.56,9.28,7.43,1,14.22,6.61,14.39,14.59.14,6.81-5.13,14-12.06,15-6.78,1-14.42-4.46-15.27-11.37-1-7.81,6.5-14.16,13.86-13.68,6.18.41,6.15-9.21,0-9.62Z"/><path d="M148,225l14.47,25c3.1,5.36,11.42.52,8.31-4.85l-14.47-25c-3.1-5.36-11.42-.52-8.31,4.85Z"/><path d="M172.8,224.63l-8.73,20.17c-2.43,5.62,5.85,10.53,8.31,4.85l8.73-20.17c2.43-5.62-5.85-10.53-8.31-4.85Z"/><path d="M171.41,228.09,182,254.61c2.28,5.67,11.58,3.2,9.28-2.56l-10.64-26.52c-2.28-5.67-11.58-3.2-9.28,2.56Z"/><path d="M198.65,207.67l-16,43.07c-2.15,5.81,7.14,8.32,9.28,2.56l16-43.07c2.15-5.81-7.14-8.32-9.28-2.56Z"/><path d="M211,248.4c6.19,0,6.2-9.62,0-9.62s-6.2,9.62,0,9.62Z"/><path d="M215.07,203.84,211.23,224c-1.15,6,8.12,8.64,9.28,2.56l3.85-20.2c1.15-6-8.12-8.64-9.28-2.56Z"/></g></g></svg>