<svg xmlns="http://www.w3.org/2000/svg" viewBox="0 0 204.36 375.54"><defs><style>.cls-1{fill:#231f20;}</style></defs><title>Asset 11</title><g id="Layer_2" data-name="Layer 2"><g id="Layer_1-2" data-name="Layer 1"><path class="cls-1" d="M97.38,185.43c-13.64-1.18-25,7.06-34.25,16.12-9.86,9.63-20,21.9-35,21.91-3.37,0-4.31,4.37-1.66,6.12,13.94,9.16,32.21,10,47.14,2.65,16.8-8.23,24.22-26,30.59-42.48,1.52-3.94-4.82-5.65-6.33-1.75-5.57,14.41-11.89,30.23-26.29,37.9a41.46,41.46,0,0,1-41.79-2L28.11,230c13,0,23.51-7.85,32.43-16.61,10.23-10,21-22.8,36.84-21.42,4.21.36,4.19-6.2,0-6.57Z"/><path class="cls-1" d="M99.33,187.07C88.82,191,81.27,198.76,73.78,206.8,65.7,215.47,56.33,225,43.62,224.89c-4.23,0-4.23,6.53,0,6.57,26.45.25,35.26-29.83,57.46-38,3.93-1.46,2.23-7.8-1.75-6.33Z"/><path class="cls-1" d="M100.18,193.29a36.18,36.18,0,0,1,47.89,2.37c11,10.93,13.89,31.23,31.74,34.07,4.13.66,5.91-5.67,1.75-6.33-10.43-1.66-15.17-11.49-19.83-19.82-4.45-8-10-14.83-18-19.38-15.55-8.81-34.39-6.56-48.17,4.45-3.3,2.64,1.37,7.26,4.64,4.64Z"/><path class="cls-1" d="M98.92,192.61c17,7.88,23.13,27.6,37.05,39.09,14.57,12,36.36,11,49-3.55,2.76-3.18-1.86-7.84-4.64-4.64a29,29,0,0,1-24.5,10c-8.86-.79-15.84-6.16-21.5-12.64-10.26-11.73-17.25-27-32.06-33.88-3.81-1.77-7.15,3.89-3.31,5.67Z"/><path class="cls-1" d="M105,193.21c16.43-1.82,27.44,12,37.37,22.85,9,9.88,19.75,19.06,33.81,19.33,4.23.08,4.23-6.49,0-6.57-16.19-.31-26.32-14.71-36.4-25.37C130.69,193.84,119,185.1,105,186.64c-4.15.46-4.2,7,0,6.57Z"/><path class="cls-1" d="M39.59,234.75,25.06,267c-1,2.26.75,6,3.71,4.82l17.7-7.11-3.71-4.82a57.3,57.3,0,0,0-7.91,45.47c.54,2.23,3.93,3.4,5.49,1.45l4.5-5.61-5.16-.66,9.67,21.71c1.26,2.82,5.15,1.59,6-.78l3.26-9.09-6,.78,17.84,30a3.33,3.33,0,0,0,6-.78l3-8.82-6,.78L85.2,359.58c.92,2,3.76,2,5.16.66L94.74,356l-5.49-1.45,5.9,14.05c.9,2.13,3.62,3.44,5.49,1.45l8.74-9.31-5.16-.66,7,13.82c1.14,2.26,4.47,2,5.67,0,2.79-4.65,9.32-4.58,12.56-.53,1.41,1.77,4.1.91,5.16-.66L158,338l-5.16.66,4.76,5.52a3.29,3.29,0,0,0,4.64,0c26.62-33.17,33.73-80,17.37-119.36-1.6-3.85-8-2.16-6.33,1.75,15.42,37.1,9.55,81.54-15.68,113h4.64l-4.76-5.52c-1.47-1.7-4.06-1-5.16.66l-23.45,34.7,5.16-.66c-5.95-7.43-18.1-6.1-22.87,1.86h5.67l-7-13.82a3.31,3.31,0,0,0-5.16-.66L96,365.45l5.49,1.45-5.9-14.05c-.94-2.23-3.54-3.32-5.49-1.45l-4.39,4.21,5.16.66L79.15,331c-1.28-2.77-5.17-1.64-6,.78l-3,8.82,6-.78-17.84-30a3.33,3.33,0,0,0-6,.78L49,319.68l6-.78-9.67-21.71a3.3,3.3,0,0,0-5.16-.66l-4.5,5.61,5.49,1.45a50.76,50.76,0,0,1,7.25-40.41c1.5-2.25-1-5.9-3.71-4.82L27,265.46l3.71,4.82,14.54-32.22c1.72-3.82-3.93-7.16-5.67-3.31Z"/><path class="cls-1" d="M53.4,233.45,42,259.37c-1.69,3.83,4,7.18,5.67,3.31l11.43-25.92c1.69-3.83-4-7.18-5.67-3.31Z"/><path class="cls-1" d="M83.08,226A165,165,0,0,0,45.59,290.6c-1.24,4,5.09,5.78,6.33,1.75a157.64,157.64,0,0,1,35.81-61.7c2.89-3.08-1.74-7.73-4.64-4.64Z"/><path class="cls-1" d="M131,215c-18.41,6.8-32.46,20.41-44.67,35.36C72,267.91,58.6,286.38,44.86,304.45c-2.56,3.36,3.14,6.64,5.67,3.31C63.61,290.56,76.36,273,89.94,256.21c11.65-14.43,25-28.36,42.79-34.92,3.93-1.45,2.23-7.8-1.75-6.33Z"/><path class="cls-1" d="M130.56,225.4l-36,47.47c-10.4,13.71-20.33,31-35.73,39.59-3.69,2.07-.38,7.74,3.31,5.67,15.41-8.63,25.28-25.07,35.68-38.78l38.41-50.63c2.55-3.37-3.15-6.64-5.67-3.31Z"/><path class="cls-1" d="M134.28,240.91A162.59,162.59,0,0,1,65.76,323c-3.62,2.17-.32,7.85,3.31,5.67a169.77,169.77,0,0,0,71.53-86c1.48-4-4.86-5.67-6.33-1.75Z"/><path class="cls-1" d="M149.68,240.07A147.67,147.67,0,0,1,83.16,341.38c-3.57,2.25-.27,7.93,3.31,5.67A154,154,0,0,0,156,241.82c.65-4.13-5.67-5.91-6.33-1.75Z"/><path class="cls-1" d="M163.81,246a143.38,143.38,0,0,1-60.56,103.36c-3.45,2.39-.17,8.08,3.31,5.67a150.46,150.46,0,0,0,63.82-109c.4-4.21-6.17-4.18-6.57,0Z"/><path class="cls-1" d="M34.68,220.21,30,192.28a3.28,3.28,0,0,0-3.17-2.41C14.49,190.64,9.76,177.59,8,167.6c-.95-5.46-2.22-11.41-1.26-16.94.81-4.65,7.34-13.32,12-6.61,1.65,2.39,6.51,1.88,6.12-1.66l-.63-5.65c-.46-4.15-7-4.2-6.57,0l.63,5.65,6.12-1.66a12.22,12.22,0,0,0-17-3.2c-7.41,4.88-8,14.6-7.08,22.54,1.82,15,6.76,37.6,26.51,36.37L23.69,194,28.35,222c.69,4.16,7,2.39,6.33-1.75Z"/><path class="cls-1" d="M21.89,88.92l-1.23-8.25c-.54-3.62-6.84-2.81-6.45.87l6.23,58.08c.45,4.16,7,4.2,6.57,0L20.78,81.55l-6.45.87,1.23,8.25c.62,4.17,6.95,2.4,6.33-1.75Z"/><path class="cls-1" d="M176.3,226.79l8.88-33-2.29,2.29c11.94-3.78,20.94-14.64,21.45-27.34s-7.92-24.09-19.46-28.78l2.29,4a131.85,131.85,0,0,0,.45-75.45c-1.18-4-7.52-2.33-6.33,1.75a125.38,125.38,0,0,1-.45,72c-.56,1.84.69,3.38,2.29,4a23.12,23.12,0,0,1,7.49,37.86c-3,2.94-6,3.59-9.48,5.6-2.85,1.66-2.95,4.73-3.77,7.79L170,225c-1.1,4.09,5.23,5.83,6.33,1.75Z"/><path class="cls-1" d="M17.45,107.8c47-34.65,112-41.74,165.13-17.34,3.81,1.75,7.15-3.91,3.31-5.67C130.72,59.46,63.09,66,14.14,102.13c-3.36,2.48-.09,8.18,3.31,5.67Z"/><path class="cls-1" d="M20.39,64a58,58,0,0,0,3.9,39.11c1.79,3.82,7.45.49,5.67-3.31a50.78,50.78,0,0,1-3.24-34.05c1-4.1-5.31-5.85-6.33-1.75Z"/><path class="cls-1" d="M32.88,57.22l1,34.51c.13,4.22,6.69,4.23,6.57,0l-1-34.51c-.13-4.22-6.69-4.23-6.57,0Z"/><path class="cls-1" d="M46.94,50.5l2.81,32.6c.36,4.18,6.93,4.22,6.57,0L53.51,50.5c-.36-4.18-6.93-4.22-6.57,0Z"/><path class="cls-1" d="M62.54,48.63l2.28,31.68c.3,4.19,6.87,4.22,6.57,0L69.1,48.63c-.3-4.19-6.87-4.22-6.57,0Z"/><path class="cls-1" d="M80.85,46.66l.64,33.56c.08,4.22,6.65,4.23,6.57,0l-.64-33.56c-.08-4.22-6.65-4.23-6.57,0Z"/><path class="cls-1" d="M101.19,42.82l.42,25.88c.07,4.22,6.64,4.23,6.57,0l-.42-25.88c-.07-4.22-6.64-4.23-6.57,0Z"/><path class="cls-1" d="M119.8,39.94l.8,30.68c.11,4.22,6.68,4.23,6.57,0l-.8-30.68c-.11-4.22-6.68-4.23-6.57,0Z"/><path class="cls-1" d="M138.69,42.86l2.54,27.83c.38,4.17,7,4.21,6.57,0l-2.54-27.83c-.38-4.17-7-4.21-6.57,0Z"/><path class="cls-1" d="M158.46,47.52l4,25.86c.64,4.16,7,2.4,6.33-1.75l-4-25.86c-.64-4.16-7-2.4-6.33,1.75Z"/><path class="cls-1" d="M30.69,59.39A224.47,224.47,0,0,1,178.34,44c2.48.59,5.58-2.39,3.71-4.82-16.21-21.07-42.15-34-68.91-32.74-26.2,1.2-50.62,15.52-65,37.3-2.34,3.53,3.35,6.83,5.67,3.31,13.09-19.78,35.57-33,59.36-34a76.55,76.55,0,0,1,63.24,29.49l3.71-4.82A231.75,231.75,0,0,0,27.37,53.72c-3.82,1.81-.49,7.48,3.31,5.67Z"/><path class="cls-1" d="M75.31,18.16A27.15,27.15,0,0,0,57.1,40c-.46,3.34,2.8,5.29,5.49,3.19L96.23,17c3.07-2.39-.84-6.77-4-5.16A57.67,57.67,0,0,0,67.39,36.45a3.31,3.31,0,0,0,4.49,4.49,120.23,120.23,0,0,0,35.68-26l-4.64-4.64L81.68,34.58c-2.29,2.62.76,7.46,4,5.16l28.12-20.12-4-5.16L92.67,35.37c-2.15,2.62.77,7.6,4,5.16l29.78-22.62-4.49-4.49L105.79,36.07c-2.27,3.19,2.51,6.31,5.16,4l20.71-18.23-5.16-4L116.21,31.69c-1.94,2.61,1.26,5.17,3.71,4.82a27.12,27.12,0,0,0,20-14l-5.67-3.31-6.08,11.49a3.31,3.31,0,0,0,4.49,4.49l17.28-8.22c3.08-1.46,1.39-6.05-1.66-6.12-4.5-.09-7.56,4.16-6.76,8.51,1,5.3,7.05,6.74,11.27,4.19,5-3,5.46-9.32,2.49-14-3.92-6.14-11.32-7-18-7.36-3.45-.19-4.2,4.44-1.66,6.12l27.06,17.92c3.53,2.34,6.83-3.34,3.31-5.67L139,12.65l-1.66,6.12c3.19.18,6.81.24,9.69,1.84,2.53,1.4,5.66,6.88,1.27,6.79l-1.66-6.12-17.28,8.22L133.84,34l6.08-11.49c2-3.73-3.64-7-5.67-3.31a21.06,21.06,0,0,1-16.08,11L121.88,35l10.29-13.85c2.34-3.14-2.52-6.3-5.16-4L106.3,35.4l5.16,4,16.16-22.65c1.85-2.59-1.89-6.47-4.49-4.49L93.34,34.85l4,5.16,17.13-20.9c2.16-2.64-.7-7.5-4-5.16L82.35,34.07l4,5.16,21.24-24.32c2.76-3.16-1.71-7.75-4.64-4.64a115.25,115.25,0,0,1-34.35,25l4.49,4.49A51.66,51.66,0,0,1,95.56,17.5l-4-5.16L57.95,38.51l5.49,3.19c1.1-7.92,6-14.5,13.62-17.21,4-1.4,2.25-7.75-1.75-6.33Z"/><path class="cls-1" d="M110.79,4.47A91.93,91.93,0,0,0,36.14,51.86c-2,3.71,3.53,7,5.67,3.31l10.4-17.74c1.83-3.12-2.7-6.91-5.16-4L30.13,53.62l5.49,3.19A75.73,75.73,0,0,1,86.84,8.92c24.64-6.58,51.86.84,70.3,18.27,3.07,2.9,7.72-1.73,4.64-4.64C141.63,3.5,112-4.59,85.09,2.59,59.15,9.5,38,29.83,29.29,55.06c-1,3,3.39,5.69,5.49,3.19L51.69,38.1l-5.16-4L36.14,51.86l5.67,3.31a85.21,85.21,0,0,1,69-44.14c4.2-.26,4.23-6.83,0-6.57Z"/><path class="cls-1" d="M36.48,111.4,54.31,130c2.93,3.05,7.57-1.59,4.64-4.64L41.12,106.76c-2.93-3.05-7.57,1.59-4.64,4.64Z"/><path class="cls-1" d="M74.19,98.23c-14.69,10.49-21.35,29.67-15.69,46.93.69,2.11,3.84,3.51,5.49,1.45l1.37-1.71c2.62-3.27-2-7.94-4.64-4.64L59.35,142l5.49,1.45c-4.7-14.31.31-30.69,12.67-39.52,3.41-2.43.13-8.13-3.31-5.67Z"/><path class="cls-1" d="M88.81,113.77l-.87,25.68c-.23,6.69-1.51,14.24,0,20.84,1.1,4.89,4.47,8.66,9.61,9.27,6.48.76,11.57-3.3,16.09-7.39,3.14-2.84-1.52-7.48-4.64-4.64s-10.56,9.19-14,3.33c-2.18-3.7-.82-10.5-.68-14.49l1.1-32.6c.14-4.23-6.42-4.22-6.57,0Z"/><path class="cls-1" d="M94.44,144.72l15.34-2.88c4.15-.78,2.39-7.11-1.75-6.33l-15.34,2.88c-4.15.78-2.39,7.11,1.75,6.33Z"/><path class="cls-1" d="M89.73,117h20.13c4.23,0,4.23-6.57,0-6.57H89.73c-4.23,0-4.23,6.57,0,6.57Z"/><path class="cls-1" d="M121.14,106.16l7.05,39.4c.61,3.41,5.41,2.83,6.33,0l8.9-27.14h-6.33l9.85,24c1.11,2.71,5.55,3.5,6.33,0l9.91-44.2c.92-4.12-5.41-5.87-6.33-1.75l-9.91,44.2h6.33l-9.85-24c-1.2-2.92-5.25-3.29-6.33,0l-8.9,27.14h6.33l-7.05-39.4c-.74-4.15-7.07-2.39-6.33,1.75Z"/><path class="cls-1" d="M171,97.56l-5.51,28.62c-.8,4.13,5.53,5.9,6.33,1.75l5.51-28.62c.8-4.13-5.53-5.9-6.33-1.75Z"/><path class="cls-1" d="M167.79,148.27v-1a3.28,3.28,0,1,0-6.57,0v1a3.28,3.28,0,0,0,6.57,0Z"/></g></g></svg>