<svg xmlns="http://www.w3.org/2000/svg" viewBox="0 0 220.27 159.99"><defs><style>.cls-1{fill:#231f20;}</style></defs><title>Asset 46</title><g id="Layer_2" data-name="Layer 2"><g id="Layer_1-2" data-name="Layer 1"><path class="cls-1" d="M0,6.43c.09,5.76,2.75,11.66,4.33,17.12,2.36,8.17,3,16.64,6.34,24.52.76,1.79,3.46,1.46,4.32,0,4-6.72,3.1-15.23,3.89-22.71l-4.27,1.77c6.35,7.12,8,17.29,12.77,25.39a2.52,2.52,0,0,0,4.32,0c3.06-5.94,3.16-12.62,4-19.11,1.18-9.06,3.74-17.9,4.93-27,.42-3.18-4.59-3.15-5,0C34.52,14.84,32.21,23,31,31.37c-.92,6.18-.66,13-3.59,18.63h4.32c-5-8.54-6.82-18.87-13.55-26.4-1.59-1.78-4.06-.2-4.27,1.77-.69,6.51.23,14.35-3.21,20.19H15c-3.17-7.44-3.61-15.62-5.83-23.33C7.73,17.27,5.08,11.64,5,6.43,5,3.21,0,3.2,0,6.43Z"/><path class="cls-1" d="M48.6,2.87C43.31,15.23,45.94,29,44.81,42c-.28,3.21,4.72,3.19,5,0,1-11.94-1.74-25.33,3.11-36.66,1.25-2.93-3.05-5.48-4.32-2.52Z"/><path class="cls-1" d="M44.35,29.52A33.94,33.94,0,0,0,67,27c2.84-1.51.32-5.83-2.52-4.32-5.13,2.72-13.15,3.54-18.76,2-3.11-.83-4.44,4-1.33,4.82Z"/><path class="cls-1" d="M62.62,2.41c-.9,14.45-3.19,29.18-1.72,43.66.32,3.17,5.32,3.2,5,0-1.46-14.48.82-29.21,1.72-43.66.2-3.21-4.8-3.2-5,0Z"/><path class="cls-1" d="M75.67,48.94c.86-7.94,5.21-14.87,7.27-22.49,2-7.29,2.68-14.83,5.28-21.95H83.4c2.58,9.66,3.49,19.89,6.85,29.33.82,2.31,1.88,4.55,2.84,6.8.66,1.54,3.32,6,2.95,7.65-.69,3.14,4.13,4.48,4.82,1.33,1.06-4.83-3.52-11.36-5.23-15.67-3.88-9.77-4.7-20.65-7.4-30.76-.68-2.53-4-2.21-4.82,0C80.6,10.82,80,19,77.66,26.75c-2.29,7.52-6.13,14.26-7,22.19-.34,3.2,4.66,3.17,5,0Z"/><path class="cls-1" d="M76,39.38a97.09,97.09,0,0,0,12.73-1.24c3.16-.57,1.82-5.39-1.33-4.82A87,87,0,0,1,76,34.38c-3.2.15-3.22,5.15,0,5Z"/><path class="cls-1" d="M93.19,7.69c11.9,2.29,25.83,4.12,37.53,0,3-1.06,1.72-5.9-1.33-4.82-10.82,3.82-23.84,2.12-34.87,0-3.14-.6-4.49,4.21-1.33,4.82Z"/><path class="cls-1" d="M106.86,7c-.66,12.09,1,24.12,1.15,36.2,0,3.21,5,3.22,5,0-.16-12.08-1.81-24.11-1.15-36.2.18-3.22-4.83-3.21-5,0Z"/><path class="cls-1" d="M136.51,5.17a66.47,66.47,0,0,0-5.42,10.36c-1.2,3,3.63,4.28,4.82,1.33a59.49,59.49,0,0,1,4.92-9.17c1.71-2.74-2.61-5.25-4.32-2.52Z"/><path class="cls-1" d="M151.31,14.84c-5.13-.28-15.58,3.91-13.28,10.78,2.24,6.68,11.94.76,15.69,4.55,3.42,3.45-8.43,6-10.44,6.34-6.09,1-14.49,1-18.76-4.19l-1.77,4.27q.78,0,1.55-.09c3.19-.23,3.22-5.24,0-5q-.77.07-1.55.09A2.53,2.53,0,0,0,121,35.86c7.41,9.06,26.77,7.75,35.35,1.05,3.68-2.88,4.37-7.5.52-10.65-2.64-2.15-6.16-2.18-9.41-2.19-1.62,0-5.07.84-3.85-1.44s5.6-2.9,7.72-2.79c3.22.17,3.21-4.83,0-5Z"/><path class="cls-1" d="M33.41,61.1C34.92,67,39.73,72.72,44.9,75.81c2.77,1.65,5.29-2.67,2.52-4.32-4.1-2.44-8-7-9.19-11.72-.8-3.12-5.62-1.8-4.82,1.33Z"/><path class="cls-1" d="M51.29,56.94c-3.6,3.81-3.6,8.9-5,13.68-1,3.5-3.11,6.53-6.75,7.69-1.78.57-8.51.68-9.32-.49L28.72,81.5A5.2,5.2,0,0,0,30.19,81c2.92-1.34.38-5.65-2.52-4.32h-.27a2.51,2.51,0,0,0-1.49,3.67c3.59,5.22,14.61,3.9,19.08.78a15.64,15.64,0,0,0,5.76-7.94c1.36-4,1-9.49,4.09-12.71,2.21-2.34-1.32-5.88-3.54-3.54Z"/><path class="cls-1" d="M59.34,62.11c-3.56,3.42-4.44,9.47-1,13.3,3.7,4.08,10.06,2.18,12.86-2,5.26-7.87-8.6-17.84-13.45-9.64-1.64,2.78,2.68,5.29,4.32,2.52.35-.59.53-.59,1.25-.52a5.59,5.59,0,0,1,2.24.93c1.3.92,2.4,2.42,1.53,3.86-1,1.64-3.77,3.14-5.23,1.32s-.64-4.7,1-6.23c2.32-2.23-1.21-5.77-3.54-3.54Z"/><path class="cls-1" d="M76.5,60.92c-2.13,5.32-2.64,19.61,6.8,17.42,6.46-1.5,8.74-12.53,7.21-18-.86-3.1-5.69-1.78-4.82,1.33.76,2.74-.14,10.27-3.14,11.63-3.86,1.75-1.86-9.47-1.23-11.06,1.2-3-3.64-4.28-4.82-1.33Z"/><path class="cls-1" d="M94.89,60.52c.77,5-.06,10.09,1.18,15.07.8,3.2,5.27,1.76,4.82-1.33-.89-6.06,5.56-11.08,10.86-12,3.16-.55,1.82-5.37-1.33-4.82-8.37,1.46-15.63,9.44-14.36,18.15l4.82-1.33c-1.22-4.92-.42-10.08-1.18-15.07-.48-3.17-5.3-1.82-4.82,1.33Z"/><path class="cls-1" d="M15.76,95.44C3.25,85.24-5.14,111.38,7.07,110.73,18.7,110.11,20,87.33,19.23,79.09c-.24-2.67-4.15-3.56-4.91-.66C12.5,85.37,12.7,93.4,13,100.5c.18,4.17,0,14.48,6.16,14.72,3.22.13,3.21-4.87,0-5,.81,0,0-.67-.19-1.66a34.92,34.92,0,0,1-.65-3.72,78.4,78.4,0,0,1-.4-9.55c0-5.05-.07-10.6,1.22-15.53l-4.91-.66A49.57,49.57,0,0,1,11.43,100c-.49,1.31-4.07,8.48-5.73,4.81-1.39-3.08,3.62-8.2,6.52-5.84,2.47,2,6-1.5,3.54-3.54Z"/><path class="cls-1" d="M25.48,108.9c5.69-.14,12.08-2.76,15.38-7.54a2.52,2.52,0,0,0-.39-3c-2.53-2.45-5.81-4.92-9.54-4.57a8.06,8.06,0,0,0-6.38,5c-2.27,5-2.09,12.69,2.3,16.51,3,2.62,7,2,10.23.16,2.81-1.58.29-5.9-2.52-4.32-2.22,1.25-3.86,1.32-5-.17-1.35-1.82-1.6-4.46-1.38-6.76.19-2,1-4.37,2.28-5.18a2.18,2.18,0,0,1,2.08-.16,11.24,11.24,0,0,1,4.35,3l-.39-3c-2.25,3.25-7.27,5-11.07,5.07-3.21.08-3.22,5.08,0,5Z"/><path class="cls-1" d="M61,87.9c-2-3.56-6.08-6.68-10.28-4.65s-4.08,6.68-4.13,10.62c-.13,10.84-1.79,22.85,1.8,33.31,1,3,5.87,1.73,4.82-1.33-2.2-6.4-2-13.6-1.92-20.29,0-3.17.16-6.34.25-9.51,0-1.45,0-2.92.05-4.37a10.33,10.33,0,0,1,.31-2.6q3.66-1.67,4.78,1.34c1.59,2.8,5.91.28,4.32-2.52Z"/><path class="cls-1" d="M43.38,109.38c3.93-.82,8.43-2.73,12.46-1.72,3.12.78,4.45-4,1.33-4.82-5.08-1.27-10.18.69-15.12,1.72-3.15.66-1.82,5.48,1.33,4.82Z"/><path class="cls-1" d="M65.5,96.05v14.36c0,3.22,5,3.22,5,0V96.05c0-3.22-5-3.22-5,0Z"/><path class="cls-1" d="M67.38,86.91l.57.57a2.5,2.5,0,0,0,3.54-3.54l-.57-.57a2.5,2.5,0,0,0-3.54,3.54Z"/><path class="cls-1" d="M75.26,92v20.11c0,3.22,5,3.22,5,0V92c0-3.22-5-3.22-5,0Z"/><path class="cls-1" d="M79,99c1.34-1.35,3.32-3.12,5.37-3.12,2.54,0,2.88,2.77,2.83,4.72-.09,3.42-1.69,8,.52,11.11,1.86,2.59,6.2.09,4.32-2.52-1.26-1.75,0-5.55.11-7.54.19-2.74,0-5.54-1.76-7.77-4.22-5.35-10.94-2.42-14.92,1.59C73.15,97.72,76.69,101.26,79,99Z"/><path class="cls-1" d="M94.89,93.09c-.88,4.59-.68,9.23-.66,13.88,0,3.22,5,3.22,5,0,0-4.17-.3-8.43.49-12.55.6-3.14-4.22-4.49-4.82-1.33Z"/><path class="cls-1" d="M97.87,88.21c3.22,0,3.22-5,0-5s-3.22,5,0,5Z"/><path class="cls-1" d="M109.74,73.07c-.22,9.61-4.79,20.81-.79,30.08,2.69,6.23,8.38,8.19,13.1,2.71,2.09-2.43-1.43-6-3.54-3.54-5.11,5.94-6.16-6.41-6-9.48.43-6.64,2-13.11,2.18-19.77.07-3.22-4.93-3.22-5,0Z"/><path class="cls-1" d="M105.34,95.11c4-.41,8-1.42,12.07-1.15,3.21.21,3.2-4.79,0-5-4.09-.27-8,.74-12.07,1.15-3.17.32-3.2,5.32,0,5Z"/><path class="cls-1" d="M124.67,88c-.08,6.36-1.21,12.84.66,19,.93,3.07,5.75,1.76,4.82-1.33-1.73-5.72-.56-11.86-.49-17.72,0-3.22-5-3.22-5,0Z"/><path class="cls-1" d="M127.75,81.89c3.22,0,3.22-5,0-5s-3.22,5,0,5Z"/><path class="cls-1" d="M133.06,87.32a13.72,13.72,0,0,0-1.3,10.37c.74,2.86,2.78,6.11,6.12,6,3.54-.1,6.37-4.11,7-7.27a12.9,12.9,0,0,0-1.86-9.57,5.48,5.48,0,0,0-4.26-2.68c-2.08,0-3.58,1.48-4.59,3.13-1.68,2.75,2.64,5.27,4.32,2.52.2-.33.51-.8.58-.75s-.6.12-.53.07c-.19.13,0-.2,0,0s1,1.49,1.18,2.2A6.46,6.46,0,0,1,138.57,98a9.43,9.43,0,0,1-.73.67c-.25.18-.28.05,0,.05,0,0,0-.15,0,0,0-.06-.42-.38-.53-.53a4.82,4.82,0,0,1-.57-1.18,8.65,8.65,0,0,1,.6-7.2c1.66-2.77-2.67-5.29-4.32-2.52Z"/><path class="cls-1" d="M146.6,82.36a122.63,122.63,0,0,1,2.21,21.44h5a44.25,44.25,0,0,1,.89-8.79c.24-1.26,1.71-9.46,3.89-9.19,2.74.34,1.86,16.59,2.95,19.53s5.95,1.69,4.82-1.33c-1.94-5.2,1.71-25-8.55-23.13-8.11,1.44-9.08,16.62-9,22.92,0,3.22,5,3.22,5,0A130.33,130.33,0,0,0,151.42,81c-.59-3.16-5.41-1.82-4.82,1.33Z"/><path class="cls-1" d="M11,134.44c-8.15,2.58-8.42,17.26-.27,20.14,4.43,1.56,9.5-1.86,10.86-6.12s-.56-9-3.55-12.05-8.58-4.54-10.84.33c-1.34,2.9,3,5.44,4.32,2.52,1-2.15,3.35.94,4.12,2.12,1.71,2.63,2.16,6.19-.91,8-5,2.95-7.07-8.65-2.41-10.13,3.06-1,1.75-5.8-1.33-4.82Z"/><path class="cls-1" d="M40,128.32c1.53-4.58-2.62-10.08-7.31-6.22-3.21,2.64-3.41,8.86-3.38,12.71A114.15,114.15,0,0,0,30.46,150c.44,3.07.69,8.05,4.12,9.33,3,1.13,4.32-3.7,1.33-4.82,1.31.49.49.28.25-1s-.54-2.53-.74-3.82c-.46-3.05-.71-6.14-.91-9.22-.14-2.18-.3-4.4-.26-6.59a24,24,0,0,1,.31-3.39c.13-.77.28-1.54.48-2.29.11-.4.8-3.31.1-1.2-1,3.06,3.81,4.37,4.82,1.33Z"/><path class="cls-1" d="M25.39,141.56a26.68,26.68,0,0,0,14,0c3.12-.77,1.8-5.59-1.33-4.82a21.5,21.5,0,0,1-11.31,0c-3.09-.94-4.41,3.89-1.33,4.82Z"/><path class="cls-1" d="M71.24,124.21c-.29,3.17-1.21,6.09-.49,9.28s5.53,1.81,4.82-1.33c-.58-2.57.43-5.38.66-8,.29-3.2-4.71-3.18-5,0Z"/><path class="cls-1" d="M81,123.63v33.95c0,3.22,5,3.22,5,0V157c0-3.22-5-3.22-5,0v.62h5V123.63c0-3.22-5-3.22-5,0Z"/><path class="cls-1" d="M83.6,127.77c8-2,18.35,1,16.18,11.34a14.41,14.41,0,0,1-7.22,9.32c-1.12.63-8.37,4.06-9.18,2.66-1.61-2.78-5.93-.27-4.32,2.52,2.65,4.57,9.34,2.12,13.09.52,5.74-2.44,10.65-6.84,12.28-13.06,3.78-14.4-10-21.18-22.16-18.13-3.12.78-1.8,5.6,1.33,4.82Z"/><path class="cls-1" d="M112.7,131.82c-5.17,3.22-7.58,10.62-6.45,16.45,1.31,6.79,8.29,8.51,13.77,4.93s6.39-11,4.49-16.65c-1.71-5.13-6.73-9.14-11.81-5.3-2.53,1.92,0,6.26,2.52,4.32,2.75-2.08,4.18.9,4.8,3.48.8,3.29.42,7.68-2.53,9.84-3.3,2.41-6.26,1.1-6.48-2.82-.2-3.43,1.16-8,4.22-9.93,2.73-1.7.22-6-2.52-4.32Z"/><path class="cls-1" d="M129.27,131.1c-.07,7.09-2.39,17.27,1.49,23.67,1.67,2.75,6,.24,4.32-2.52s-1.19-7.17-1.15-10.28c0-3.62.3-7.24.34-10.86,0-3.22-5-3.22-5,0Z"/><path class="cls-1" d="M134.18,135.56c1.19-.74,3.71-2.6,5-1.51s1.06,4.57,1.13,6c.15,3.45-.7,9.49,2.84,11.61,2.77,1.66,5.28-2.66,2.52-4.32.56.34,0-.29-.09-1.13a29,29,0,0,1-.19-3.52,38.26,38.26,0,0,0-.73-8.3c-1.76-6.9-7.93-6.3-13-3.14-2.73,1.7-.22,6,2.52,4.32Z"/><path class="cls-1" d="M150.82,143.85c5.1-1.49,14.83-5.09,12.84-12.14s-11.33-4.42-14.17.34c-3,5.06-1.28,11.77,2.12,16.18,3,3.91,8.75,6.25,11.61.79,1.5-2.85-2.82-5.38-4.32-2.52-1,2-2.86-.58-3.66-1.72-1.66-2.34-2.84-5.7-2.11-8.57a5.24,5.24,0,0,1,2.62-3.49c1.33-.63,3.87-.52,2.88,1.58-1.19,2.54-6.71,4-9.15,4.73-3.08.9-1.77,5.73,1.33,4.82Z"/><path class="cls-1" d="M167.77,117.89v6.89c0,3.22,5,3.22,5,0v-6.89c0-3.22-5-3.22-5,0Z"/><path class="cls-1" d="M175.9,126.64a13.63,13.63,0,0,1-2.78,1.63l3.67,2.82c.41-1.09,3-5.6,4.82-4.71s-.12,5.2-1,6.28c-3.34,4-8.38,6.17-7.65,12.22.38,3.15,5.38,3.19,5,0-.49-4.08,3.54-5.85,6-8.46a11.11,11.11,0,0,0,2.84-11,5.61,5.61,0,0,0-7.21-3.77c-3.72,1.1-6.27,4.61-7.57,8.07-.85,2.28,1.91,3.6,3.67,2.82a13.63,13.63,0,0,0,2.78-1.63c2.55-1.9.06-6.24-2.52-4.32Z"/><path class="cls-1" d="M174.86,158.31h.57a2.5,2.5,0,0,0,0-5h-.57a2.5,2.5,0,0,0,0,5Z"/><path class="cls-1" d="M178.45,54.09c5.63,10.81,9.24,22.54,15.3,33.13a2.56,2.56,0,0,0,3.42.9c6.37-3,9.17-11.51,11.58-17.55,3.65-9.17,9-18,10.94-27.74.61-3.14-4.21-4.49-4.82-1.33-1.7,8.73-6.45,16.38-9.7,24.57-2.22,5.6-4.58,15-10.52,17.74l3.42.9c-6.06-10.59-9.67-22.32-15.3-33.13-1.49-2.86-5.8-.33-4.32,2.52Z"/><path class="cls-1" d="M180.87,67.65c4.07-1.84,9.09.41,13.37.33,2.84-.05,5.69-.49,8.53-.71a48.33,48.33,0,0,1,8.43-.21c2.82.28,3.42,1,3.77,3.77,1.26,9.94-2.75,21.1-5.24,30.6l2.41-1.84c-11.25.45-22.62,1.18-33.8-.59l1.84,2.41c-.35-6,1.55-11.67,1.93-17.59.4-6.09,0-12.23,0-18.33,0-3.22-5-3.22-5,0,0,6.09.42,12.24,0,18.33s-2.29,11.6-1.93,17.59a2.54,2.54,0,0,0,1.84,2.41c11.66,1.85,23.39,1.24,35.13.77a2.56,2.56,0,0,0,2.41-1.84c1.63-6.21,3.26-12.43,4.35-18.76.93-5.38,2.59-12.85-.09-18s-10.53-4.12-15.41-3.77c-3.54.26-7.12.86-10.67.73-5.14-.19-9.46-1.85-14.38.38-2.93,1.32-.39,5.63,2.52,4.32Z"/></g></g></svg>