<svg xmlns="http://www.w3.org/2000/svg" viewBox="0 0 249.34 225.69"><defs><style>.cls-1{fill:#5954a3;}</style></defs><title>Asset 18</title><g id="Layer_2" data-name="Layer 2"><g id="Layer_1-2" data-name="Layer 1"><path class="cls-1" d="M18.94,66.81l23.3-49.23-5.8-.76L50.56,64.71C51.72,68.63,57.85,67,56.69,63L42.56,15.14c-.72-2.43-4.58-3.34-5.8-.76L13.46,63.6c-1.74,3.67,3.73,6.9,5.48,3.2Z"/><path class="cls-1" d="M24,52.15,49.37,51c4.07-.19,4.09-6.54,0-6.35L24,45.81c-4.07.19-4.09,6.54,0,6.35Z"/><path class="cls-1" d="M57.57,34.42l8.15,31.2c.84,3.21,5.11,2.81,6.12,0L79.3,44.89l-5.8.76,8.38,18.3c1.13,2.47,5.25,1.8,5.8-.76l6.5-30.11c.86-4-5.26-5.69-6.12-1.69L81.55,61.5l5.8-.76L79,42.44c-1.24-2.71-5-1.55-5.8.76L65.72,63.93h6.12l-8.15-31.2c-1-3.95-7.16-2.28-6.12,1.69Z"/><path class="cls-1" d="M99,56.45c7.72-1.19,17.24-4.75,16-14.32-1-7.91-10-9.74-14.93-3.92C95,44.23,93.92,56,99,62.31c4.17,5.13,13.47,5.75,16.63-.81,1.77-3.66-3.71-6.89-5.48-3.2-2,4.05-6.58.37-7.47-2.51A16.93,16.93,0,0,1,103.83,44c.61-1.15,2.08-3.6,3.76-2.95,1.46.57,1.33,3.13.86,4.27-1.61,3.93-7.54,4.48-11.18,5C93.25,51,95,57.07,99,56.45Z"/><path class="cls-1" d="M132.11,33.73C125.58,29.83,119,37.58,121.46,44c1.42,3.68,4.73,5.94,7.88,8,2.06,1.36,5.62,3.22,5.77,6.1.22,4.36-5.24,4.58-7,1.31-2-3.58-7.45-.38-5.48,3.2,4.12,7.53,15.54,7.46,18.34-1.23,1.34-4.16-.29-8.23-3.33-11.16a34.87,34.87,0,0,0-5.07-3.7,17.18,17.18,0,0,1-3.73-2.78c-.81-1-2.24-5.95.09-4.56,3.52,2.1,6.71-3.39,3.2-5.48Z"/><path class="cls-1" d="M146.67,34.73C144,40.89,141.29,48,144.81,54.38c2.84,5.19,9,7.6,14.3,4.58a13.52,13.52,0,0,0,6.3-14.49c-1.51-6.57-7-11.09-12.71-14.11-3.61-1.92-6.82,3.56-3.2,5.48,5.2,2.76,13.08,8.81,8.63,15.47-2.47,3.7-6.57,3.24-8.15-1-1.52-4.09.56-8.65,2.17-12.37s-3.86-6.95-5.48-3.2Z"/><path class="cls-1" d="M169.13,33.54,170,62.75c.13,4.08,6.48,4.09,6.35,0l-.91-29.22c-.13-4.08-6.48-4.09-6.35,0Z"/><path class="cls-1" d="M173.75,47.09l9.16-5.72-4.78-2.74,2.58,20.91c.49,3.94,6.56,4.18,6.35,0a18.7,18.7,0,0,1,8.42-17l-4.66-1.9,4.35,21.63c.81,4,6.93,2.31,6.12-1.69l-4.35-21.63a3.19,3.19,0,0,0-4.66-1.9,25.14,25.14,0,0,0-11.56,22.5h6.35l-2.58-20.91c-.28-2.24-2.53-4.15-4.78-2.74l-9.16,5.72c-3.46,2.16-.27,7.66,3.2,5.48Z"/><path class="cls-1" d="M212.05,54l14.11-13.89c1.31-1.29,1.27-4.17-.64-5-10.32-4.41-23.85,3.59-22.66,15.52C204,61.83,218.14,67.94,227.32,62c3.42-2.21.24-7.71-3.2-5.48-5.15,3.33-13.57.57-14.85-5.81-1.33-6.65,7-12.67,13.05-10.1l-.64-5L207.56,49.53c-2.92,2.87,1.57,7.36,4.49,4.49Z"/><path class="cls-1" d="M243,3.06l-2.33,43.18c-.22,4.08,6.13,4.07,6.35,0l2.33-43.18c.22-4.08-6.13-4.07-6.35,0Z"/><path class="cls-1" d="M244.9,57h-1.27a3.17,3.17,0,1,0,0,6.35h1.27a3.17,3.17,0,1,0,0-6.35Z"/><path class="cls-1" d="M25.25,88.51C13.39,82.82-1,91.11.06,104.84,1.12,118.24,16.77,125,27.46,117c3.24-2.41.08-7.92-3.2-5.48-6.52,4.84-16.43,2.41-17.79-6.31S14.22,90.23,22,94c3.67,1.76,6.89-3.71,3.2-5.48Z"/><path class="cls-1" d="M36.26,88.15l-1.77,31.36h6.35a18.49,18.49,0,0,1,7.89-16l-4.66-1.9,4,20.32c.79,4,6.91,2.31,6.12-1.69l-4-20.32A3.19,3.19,0,0,0,45.52,98a25,25,0,0,0-11,21.52c.11,4.11,6.12,4.07,6.35,0l1.77-31.36c.23-4.08-6.12-4.07-6.35,0Z"/><path class="cls-1" d="M62.87,112.23c5.61,2.28,12.54-1.21,13-7.54A9.38,9.38,0,0,0,65,94.54c-6.34,1.06-10,6.93-9.45,13.11.73,7.85,7.16,12.89,13.59,16.4,3.59,2,6.79-3.52,3.2-5.48-4.75-2.6-10.89-6.47-10.55-12.71.14-2.51,2.26-5.53,5.15-5.13,4.51.63,2.4,7.35-2.44,5.39-3.78-1.54-5.43,4.6-1.69,6.12Z"/><path class="cls-1" d="M91.35,97.18A13.33,13.33,0,0,0,76.81,108.8c-.73,7.63,5.94,13.9,13.29,14,4.09.07,4.09-6.28,0-6.35-3.9-.07-7.76-3.61-6.87-7.75.81-3.76,4.56-5.62,8.12-5.21,4.05.47,4-5.88,0-6.35Z"/><path class="cls-1" d="M104.14,79.58l-6,36.88c-.65,4,5.47,5.72,6.12,1.69l6-36.88c.65-4-5.47-5.72-6.12-1.69Z"/><path class="cls-1" d="M113.9,96.52c-6.72-.6-13.33,4.37-14.15,11.18a13.2,13.2,0,0,0,11.06,14.23c4,.58,5.72-5.54,1.69-6.12-3.58-.52-6.87-3.33-6.45-7.26s4.27-6,7.85-5.68c4.07.36,4-6,0-6.35Z"/><path class="cls-1" d="M141.84,122.1l7.3-34.35-5.31,1.4,13.64,17.3c1.31,1.66,4,.93,5-.64l12-19.68-5.8-.76,5.56,35.4c.63,4,6.75,2.32,6.12-1.69l-5.56-35.4c-.45-2.84-4.5-2.9-5.8-.76l-12,19.68,5-.64-13.64-17.3c-1.47-1.86-4.84-.78-5.31,1.4l-7.3,34.35c-.85,4,5.27,5.69,6.12,1.69Z"/><path class="cls-1" d="M191.67,86.79l15.4,13.78c3,2.72,7.54-1.76,4.49-4.49L196.16,82.3c-3-2.72-7.54,1.76-4.49,4.49Z"/><path class="cls-1" d="M225.22,80.76c-15.3,4.62-23.09,22.18-16.95,36.73,1.58,3.75,7.05.52,5.48-3.2-4.55-10.77,2.14-24.08,13.15-27.4,3.9-1.18,2.24-7.31-1.69-6.12Z"/><path class="cls-1" d="M5.37,141.44,1.65,173.19c-.47,4.05,5.88,4,6.35,0l3.72-31.75c.47-4.05-5.88-4-6.35,0Z"/><path class="cls-1" d="M7.47,152.48c1.6-2.94,6.73-3.39,8.72-.53,2.7,3.87-3.06,8.12-6.62,6.77-3.83-1.44-5.48,4.69-1.69,6.12,8.78,3.32,18.75-7.18,14-15.67-4.06-7.33-16-7.18-19.94.1-2,3.59,3.52,6.8,5.48,3.2Z"/><path class="cls-1" d="M29.21,150.59a12.13,12.13,0,0,0,6.84,13.92c5.49,2.44,11.52-.32,14.22-5.47,6.05-11.54-9.07-21.48-18.18-13.26-3,2.74,1.46,7.22,4.49,4.49,3.88-3.5,10.55.51,8.2,5.59-2.73,5.91-10.92,2.31-9.44-3.58,1-4-5.13-5.66-6.12-1.69Z"/><path class="cls-1" d="M57.25,145.3l1.44,17.44c.28,3.34,5.45,4.58,6.24.84A21.62,21.62,0,0,1,77.62,148c3.73-1.66.5-7.13-3.2-5.48a27.48,27.48,0,0,0-15.6,19.38l6.24.84L63.6,145.3c-.33-4-6.69-4.08-6.35,0Z"/><path class="cls-1" d="M91,135.47c-4.76,8.3-9.63,18.22-5,27.68,3.84,7.82,13.44,10.29,20.31,5,3.23-2.5-1.3-7-4.49-4.49-6.3,4.88-11.45-4-11.35-9.29.12-5.71,3.22-10.85,6-15.66,2-3.55-3.45-6.75-5.48-3.2Z"/><path class="cls-1" d="M81.83,161.68l12.73-2.35c4-.74,2.31-6.86-1.69-6.12l-12.73,2.35c-4,.74-2.31,6.86,1.69,6.12Z"/><path class="cls-1" d="M124.27,136.58c-2.4-8.18-12.47-5.42-14.94,1.16-3.67,9.78-.47,23.14,3.33,32.38,1.53,3.73,7.68,2.09,6.12-1.69a55.27,55.27,0,0,1-4.16-16.35,50.71,50.71,0,0,1-.12-7.11c.09-1.53,0-3.37.71-4.75.22-.43,2.47-3.54,2.93-2,1.15,3.91,7.28,2.25,6.12-1.69Z"/><path class="cls-1" d="M101.43,155.87,119.22,157c4.08.26,4.06-6.09,0-6.35l-17.78-1.15c-4.08-.26-4.06,6.09,0,6.35Z"/><path class="cls-1" d="M130.31,147.65a12.19,12.19,0,0,0-3.54,15.7c3.07,5.39,10.16,6.75,15.47,3.94a11.14,11.14,0,0,0,4.43-15.17,11.71,11.71,0,0,0-6.87-5.88c-2.1-.61-3.63.3-5.55,1.09L128,149.88c-3.73,1.52-2.1,7.67,1.69,6.12l6.24-2.55c1.91-.78,2.36-1.51,4,0,2.18,2.11,2.61,5.85,0,7.78-2.12,1.57-5.6,1.63-7.31-.56a5.72,5.72,0,0,1,.9-7.58c3.23-2.42.07-7.94-3.2-5.48Z"/><path class="cls-1" d="M154.63,130.07l1.5,35.54c.17,4.07,6.52,4.09,6.35,0L161,130.07c-.17-4.07-6.52-4.09-6.35,0Z"/><path class="cls-1" d="M177,144v19c0,4.09,6.35,4.09,6.35,0V144c0-4.09-6.35-4.09-6.35,0Z"/><path class="cls-1" d="M181.41,138.29c4.09,0,4.09-6.35,0-6.35s-4.09,6.35,0,6.35Z"/><path class="cls-1" d="M200.9,142.77c-7,3.19-9.51,13-4.72,19,4.56,5.77,14.12,6.16,19.15.79s3.85-14.93-2.11-19.13c-6.34-4.47-15.82-1.61-19.1,5.26-1.75,3.67,3.72,6.89,5.48,3.2,1.65-3.46,6.2-5.68,9.75-3.44,3,1.9,3.83,6.89,1.49,9.61a6.69,6.69,0,0,1-9.68-.17c-2.66-3.3-.5-8.1,2.94-9.67,3.71-1.7.49-7.17-3.2-5.48Z"/><path class="cls-1" d="M230.58,116.06l1.19,30.48c.16,4.07,6.51,4.09,6.35,0l-1.19-30.48c-.16-4.07-6.51-4.09-6.35,0Z"/><path class="cls-1" d="M236,167.49c4.09,0,4.09-6.35,0-6.35s-4.09,6.35,0,6.35Z"/><path class="cls-1" d="M68.62,180.82c-.07,6.18-.84,12.33-.7,18.52.1,4.68.3,10.9,4.17,14.2,3.09,2.64,7.6-1.83,4.49-4.49s-2.38-9.74-2.3-13.41c.11-4.95.63-9.87.69-14.82,0-4.09-6.3-4.09-6.35,0Z"/><path class="cls-1" d="M83,194.37c.48,4.78.18,9.63,1,14.39.66,4,6.78,2.32,6.12-1.69-.69-4.17-.31-8.5-.73-12.7-.4-4-6.76-4.07-6.35,0Z"/><path class="cls-1" d="M87,184.85c4.09,0,4.09-6.35,0-6.35s-4.09,6.35,0,6.35Z"/><path class="cls-1" d="M93.16,191c.25,5.92.56,11.83,1,17.73.24,2.93,4.32,4.58,5.92,1.6a48.68,48.68,0,0,0,2.41-6.07c.54-1.45,1.07-2.91,1.71-4.32a29.88,29.88,0,0,0,1.54-2.86c-.24-.57-1.46.07-1.52.49a7.13,7.13,0,0,0,.69,1.28,23.78,23.78,0,0,1,1.16,3.88,43.84,43.84,0,0,0,1.88,6.79c1.59,3.75,7.06.52,5.48-3.2-1.85-4.36-1.8-16.18-9.5-15.1-5.94.83-7.08,11.69-9.33,15.9l5.92,1.6c-.48-5.9-.79-11.81-1-17.73-.17-4.07-6.52-4.09-6.35,0Z"/><path class="cls-1" d="M115.29,182.52c1.68,10-2.18,20.75,1.69,30.47,1.49,3.75,7.64,2.11,6.12-1.69-3.78-9.48,0-20.55-1.69-30.47-.67-4-6.79-2.32-6.12,1.69Z"/><path class="cls-1" d="M129.44,187.4c-4.5,2.65-8.66,5.86-13.29,8.3a3.2,3.2,0,0,0,0,5.48c5.14,2.53,9.22,6.62,14.89,8.11,4,1,5.64-5.09,1.69-6.12-5-1.32-8.77-5.2-13.37-7.47v5.48c4.63-2.44,8.78-5.65,13.29-8.3,3.52-2.07.33-7.56-3.2-5.48Z"/><path class="cls-1" d="M54.86,225.48c17.77,1,35.77-1.88,53.39-3.84,14.22-1.58,29.64-6.51,44-3.89,4,.73,5.71-5.39,1.69-6.12-14.58-2.67-29.81,1.74-44.27,3.5-18,2.2-36.62,5.07-54.77,4-4.08-.24-4.07,6.11,0,6.35Z"/></g></g></svg>