<svg xmlns="http://www.w3.org/2000/svg" viewBox="0 0 213.14 168.79"><defs><style>.cls-1{fill:#fdd405;}.cls-2{fill:#231f20;}</style></defs><title>Asset 41</title><g id="Layer_2" data-name="Layer 2"><g id="Layer_1-2" data-name="Layer 1"><path class="cls-1" d="M83.75,5.17c-30.06-1.86-46.16-7.2-62,4-12.79,9-17.44,23.24-19,28-5.45,16.63-2.11,30.69,4,55,6.07,24.14,9.1,36.22,16,45,16.75,21.34,44.08,24.63,72,28,38.52,4.65,66.51,8,90-11,32-25.95,28.58-71.61,28-78-.27-3-5.6-53.8-42-72C147.93-7.24,142.18,8.79,83.75,5.17Z"/><path class="cls-2" d="M33.49,29.7C31.85,35,32.06,40.57,32.34,46c.16,3.11.42,6.21.52,9.31,0,1.44-.38,3.21.76,4.3a1.86,1.86,0,0,0,3.08-.81l.15-.27c1.29-2-1.9-3.85-3.18-1.86a4.81,4.81,0,0,0-.52,1.15L36.23,57s.17-4.67.13-5.49c-.14-2.37-.31-4.75-.41-7.12-.2-4.61-.29-9.3,1.1-13.75.71-2.27-2.85-3.24-3.55-1Z"/><path class="cls-2" d="M27.26,32c5.84,0,11.67.53,17.51.48,2.37,0,2.37-3.7,0-3.68-5.84.05-11.67-.44-17.51-.48-2.37,0-2.37,3.66,0,3.68Z"/><path class="cls-2" d="M48.51,30.2c1.63,8.61.21,17.79,1,26.52.08.9.78,2,1.84,1.84l.46-.06c2.32-.28,2.35-4,0-3.68l-.46.06,1.84,1.84c-.8-9.08.59-18.52-1.11-27.5-.44-2.32-4-1.34-3.55,1Z"/><path class="cls-2" d="M51.58,46.41c1.32-1.07,4-3.6,5.88-3.26,2.1.37,2,3.4,2,5,0,3.16-.59,6.5.77,9.47,1,2.15,4.15.28,3.18-1.86s-.28-5.06-.27-7.26S63,43.75,61.7,41.83c-3.48-5-9.34-.76-12.72,2-1.84,1.49.78,4.08,2.6,2.6Z"/><path class="cls-2" d="M67.29,50.8c4.25-.5,7.88-2.73,11.4-5a1.87,1.87,0,0,0,.85-2.08c-1.31-3.41-4.16-6-8-4.48a9.52,9.52,0,0,0-5.65,8c-.26,3.15.53,7,2.68,9.45,2.72,3,6.35,1.8,9-.65,1.74-1.62-.87-4.22-2.6-2.6-1.55,1.45-2.94,2.08-4.15.07A10.56,10.56,0,0,1,69.58,48c.06-3.31,4.47-8.39,6.41-3.35l.85-2.08c-2.87,1.88-6,4.11-9.54,4.52-2.32.27-2.35,4,0,3.68Z"/><path class="cls-2" d="M81,40.3c-.06,5.15-2.08,12.61.75,17.3,1.22,2,4.41.18,3.18-1.86s-.72-5.22-.64-7.42c.1-2.67.36-5.34.39-8,0-2.37-3.65-2.37-3.68,0Z"/><path class="cls-2" d="M84.58,49.93c.94-3.16,4.26-5.73,7.22-6.9,2.18-.86,1.23-4.42-1-3.55-4.21,1.66-8.46,5-9.79,9.47-.68,2.28,2.88,3.25,3.55,1Z"/><path class="cls-2" d="M94.81,51.22c4-1.52,10.87-2.7,11.91-7.73s-6.06-3.94-8.58-2.48c-3.63,2.09-6.16,6.67-5,10.87,1.25,4.68,6,5.7,10.22,4.64,2.29-.58,1.32-4.13-1-3.55s-5,.57-5.69-2.07c-.6-2.29.78-4.8,2.55-6.18a6.55,6.55,0,0,1,3.3-1.37,5.39,5.39,0,0,1,.78,0q.51.17-.12-.42a16.1,16.1,0,0,1-1,1.24c-2.14,2-5.64,2.51-8.28,3.53-2.19.84-1.24,4.4,1,3.55Z"/><path class="cls-2" d="M121.77,31.3c3.27-2.51,3.64.39,3.77,3.38a55.73,55.73,0,0,1-.47,7.14c-.4,4.7-.58,9.77,2.42,13.71a1.88,1.88,0,0,0,2.52.66,18.14,18.14,0,0,0,2.65-2.07c1.75-1.6-.86-4.2-2.6-2.6L128.14,53l2.52.66c-4.63-6.07-.53-14.49-1.67-21.41-.88-5.3-4.5-7.65-9.08-4.13-1.85,1.42,0,4.62,1.86,3.18Z"/><path class="cls-2" d="M127.27,40.63c-2.05-1.15-4.53-1.82-6.74-.69a6.85,6.85,0,0,0-3.27,4.54c-.84,3.36-.13,8.74,3.83,9.83,2.74.75,5.29-1.23,7.06-3.09s-1-4.33-2.6-2.6a9.73,9.73,0,0,1-2.59,2c-.48.21-.32.2-.81.14s.3.08-.08,0,.22.18-.2-.09-.09-.06-.14-.09a1.86,1.86,0,0,1-.35-.37c.2.29-.28-.52-.36-.7a8.77,8.77,0,0,1-.38-1.89,6.17,6.17,0,0,1,.22-2.34,3.13,3.13,0,0,1,.31-.87,5.88,5.88,0,0,1,.46-.72c.32-.39.17-.29.62-.5-.13.06.73-.18.5-.16a4.61,4.61,0,0,1,2.67.78c2.07,1.16,3.93-2,1.86-3.18Z"/><path class="cls-2" d="M132.51,34a37.93,37.93,0,0,0,1.08,14.35,1.85,1.85,0,0,0,3.62-.49c.5-4.91,2.79-10.07,7.08-12.75,2-1.25.16-4.44-1.86-3.18-5.47,3.42-8.27,9.68-8.9,15.93l3.62-.49c-1.33-4.26-1.33-9-.95-13.37.2-2.36-3.48-2.35-3.68,0Z"/><path class="cls-2" d="M145.85,48.33c3.14-1.13,8.18-2.21,10-5.35,1.92-3.36-1.08-6.1-4.35-6-3.1.12-7.06,1.54-9,4.1-2.36,3.16-2.58,7.65.51,10.38,3.51,3.09,9,2.91,12.78.51,2-1.26.15-4.45-1.86-3.18-2.48,1.56-6.34,2-8.62-.2s-.41-5.4,1.87-6.61A11.29,11.29,0,0,1,151,40.72a3.18,3.18,0,0,1,1.46,0c.5.25.24-.1.2.18-.15,1.07-2.61,1.89-3.48,2.26-1.41.61-2.88,1.08-4.33,1.6-2.21.79-1.26,4.35,1,3.55Z"/><path class="cls-2" d="M26.42,75.44c0,4.45,0,8.9,0,13.36,0,2,3.18,2.56,3.62.49a23.72,23.72,0,0,1,7.94-13l-2.89-.37c2.07,4.51,1.51,9.74,2.92,14.46.68,2.26,4.23,1.3,3.55-1-1.52-5.07-1-10.45-3.29-15.33a1.86,1.86,0,0,0-2.89-.37A27,27,0,0,0,26.48,88.3l3.62.49c0-4.45,0-8.9,0-13.36a1.84,1.84,0,0,0-3.68,0Z"/><path class="cls-2" d="M46.48,76.06a10.06,10.06,0,0,0-2.57,9.19c.55,2.69,2.46,5.56,5.48,5.61,3.39.06,6.49-3.61,7.11-6.69A7.85,7.85,0,0,0,52.63,76,5.39,5.39,0,0,0,44.5,78.8c-.87,2.2,2.69,3.16,3.55,1,.74-1.88,2.89-.76,3.85.34,1.8,2.06,1,4.6-.91,6.28-1.52,1.32-2.64.63-3.27-1.14a6.38,6.38,0,0,1,1.37-6.59,1.84,1.84,0,0,0-2.6-2.6Z"/><path class="cls-2" d="M74.21,63.92c-4.36,8.23-7.15,17.09-9.72,26A1.82,1.82,0,0,0,65,91.72l.18.16a1.87,1.87,0,0,0,3.08-.81l.16-.26a1.84,1.84,0,0,0-3.18-1.86,7.53,7.53,0,0,0-.53,1.14l3.08-.81c1,.87,2-4.23,2.21-4.85.59-1.92,1.21-3.84,1.87-5.74a91.87,91.87,0,0,1,5.56-12.91c1.11-2.09-2.07-4-3.18-1.86Z"/><path class="cls-2" d="M73.53,64.85c1.37,8.64,6.24,16.38,10.19,24C84.81,91,88,89.13,86.9,87c-3.82-7.4-8.5-14.8-9.82-23.15-.37-2.33-3.92-1.34-3.55,1Z"/><path class="cls-2" d="M68.3,83.53c4-.07,8-.56,12-.48,2.37,0,2.37-3.63,0-3.68-4-.08-8,.41-12,.48-2.37,0-2.37,3.72,0,3.68Z"/><path class="cls-2" d="M90.47,65.33c-.12,7.82.58,16.13,3.07,23.59.75,2.24,4.3,1.28,3.55-1C94.7,80.75,94,72.87,94.16,65.33c0-2.37-3.64-2.37-3.68,0Z"/><path class="cls-2" d="M90.8,68.07c4-1.2,11.54-1.46,14,2.73,3.52,6-6,8.34-10,8.1-2.37-.14-2.36,3.54,0,3.68,6.66.4,16.44-3.67,13.91-12-2.23-7.28-12.86-7.91-18.9-6.1-2.26.68-1.3,4.23,1,3.55Z"/><path class="cls-2" d="M114.49,64.85c0,7.25.08,14.49,0,21.74a1.84,1.84,0,0,0,.91,1.59l.29.16a1.86,1.86,0,0,0,2.7-1.1l.05-.28c1-2.14-2.19-4-3.18-1.86a4.76,4.76,0,0,0-.42,1.16l2.7-1.1-.29-.16.91,1.59c.11-7.25,0-14.49,0-21.74a1.84,1.84,0,0,0-3.68,0Z"/><path class="cls-2" d="M110.33,65.24h10a1.84,1.84,0,0,0,0-3.68h-10a1.84,1.84,0,0,0,0,3.68Z"/><path class="cls-2" d="M111.83,88.35c3.94.2,7.64-1,11.51-1.44,2.33-.27,2.35-4,0-3.68-3.85.44-7.6,1.64-11.51,1.44-2.37-.12-2.36,3.56,0,3.68Z"/><path class="cls-2" d="M139.34,68.37a8.88,8.88,0,0,0-8.56,1.29c-2.06,1.63-3.15,4.37-1.51,6.7,1.85,2.64,5.27,2.82,8.15,3.26,1.46.22,3.21.75,1.11,2.23-1.53,1.08-4.43.48-6.18.41-2.37-.1-2.36,3.58,0,3.68,3.14.13,7.24.61,9.48-2.14,1.79-2.19,2-5.48-.73-7-2.43-1.32-6.3-.24-8.37-2.17-1-1-.36-1.72.69-2.41a5.37,5.37,0,0,1,4.94-.36c2.22.84,3.18-2.72,1-3.55Z"/><path class="cls-2" d="M51.62,100.95c0-4.68-6.63-7.35-8.63-2.45-1.06,2.59-.83,6.45-1,9.19a42.46,42.46,0,0,0,1,12c.56,2.3,4.12,1.33,3.55-1a37.84,37.84,0,0,1-.85-10.39c.05-1.49.16-3,.3-4.46q.12-1,.19-2.06-.35-1.77,1.75-.89c0,2.37,3.67,2.37,3.68,0Z"/><path class="cls-2" d="M40.77,110h8.51a1.84,1.84,0,0,0,0-3.68H40.77a1.84,1.84,0,0,0,0,3.68Z"/><path class="cls-2" d="M55.86,105.62c-7,4.86-.06,16.77,7.42,12a6.58,6.58,0,0,0,2.87-8,8.43,8.43,0,0,0-6.08-5.26c-4.26-.75-6.21,3.12-6.62,6.72-.27,2.35,3.41,2.33,3.68,0,.11-.95.35-2.33,1.17-2.91a1.67,1.67,0,0,1,1.68,0,4.68,4.68,0,0,1,3,3.93,3.21,3.21,0,0,1-4.5,2.65c-2-1.14-2.81-4.44-.73-5.88s.1-4.53-1.86-3.18Z"/><path class="cls-2" d="M69,103.84a45.91,45.91,0,0,0,1.58,13.27c.54,1.95,3.75,1.63,3.62-.49-.2-3.18.91-11.13,5.15-11.42,2.35-.16,2.37-3.84,0-3.68-6.7.45-9.18,9.52-8.83,15.1l3.62-.49a42.35,42.35,0,0,1-1.45-12.29c0-2.37-3.63-2.37-3.68,0Z"/><path class="cls-2" d="M97,94.2c-2.23,5.64-3.84,14-2,20,1.61,5.23,6.1,7.29,10.09,3,1.61-1.74-1-4.35-2.6-2.6C98.4,119,98.06,109.4,98.22,107a38.93,38.93,0,0,1,2.38-11.81c.87-2.2-2.69-3.16-3.55-1Z"/><path class="cls-2" d="M90.8,109.94a35.25,35.25,0,0,1,10-1.86c2.36-.06,2.37-3.74,0-3.68a38.81,38.81,0,0,0-11,2c-2.24.73-1.28,4.29,1,3.55Z"/><path class="cls-2" d="M107.49,96.13c.09,6.79,1.19,13.51,1.11,20.3a1.82,1.82,0,0,0,.91,1.59l.36.19a1.87,1.87,0,0,0,2.7-2.08l0,.23c.43-2.32-3.11-3.31-3.55-1a4.91,4.91,0,0,0,0,1.73l2.7-2.08-.36-.19.91,1.59c.08-6.79-1-13.51-1.11-20.3,0-2.37-3.71-2.37-3.68,0Z"/><path class="cls-2" d="M110.13,107.06a10,10,0,0,1,2.36-2.32,2.5,2.5,0,0,1,.81-.33c.86.34,1.39,2.06,1.69,3.06.82,2.75.82,5.66,1.57,8.41a1.84,1.84,0,0,0,3.55-1c-1-3.57-.82-7.3-2.44-10.73-.77-1.63-2-3.16-3.94-3.37-2.6-.29-4.69,1.83-6.2,3.67s1.09,4.43,2.6,2.6Z"/><path class="cls-2" d="M122.83,100.32c7.64-2,5.28,6.93,5.65,11.46.36,4.34,2.93,8.36,7.18,4.43,1.74-1.61-.87-4.21-2.6-2.6-.39.36-1.06.51-.44.75.25.09-.17-.64-.21-.91-.13-1-.28-2-.32-3-.08-2.11.18-4.21.12-6.31-.16-6.13-4.7-8.86-10.36-7.36-2.29.61-1.32,4.16,1,3.55Z"/><path class="cls-2" d="M129.65,105.42c-5.44-5.29-11.21,7-5.14,9.1,2,.67,4.12-.37,5.76-1.4,2-1.25.16-4.44-1.86-3.18a7.79,7.79,0,0,1-2.25,1.06c-.5.15.11,0-.15,0s-.3,0-.45,0c.19,0,.4.1.1,0s.4.27,0,0,.34.36,0,0,.27.38.08.11-.11-.44,0,0c0-.08-.14-.28-.11-.35s0-.19,0,.11c0-.13,0-.27,0-.4s0-.28,0-.42c0-.44,0,.1,0,0,.06-.27.11-.54.19-.81s.09-.25.13-.37c.13-.43-.16.29,0,0s.28-.5.42-.75.32-.34,0,0l.27-.29c.13-.14.46-.28,0,0l.23-.14c.41-.22-.33.11,0,0s-.37,0-.07,0,0,0-.14,0c.17.05.48.21,0,0l.36.21c-.44-.26,0,0,.09.1,1.7,1.65,4.31-.95,2.6-2.6Z"/><path class="cls-2" d="M136.35,106.64a115.74,115.74,0,0,0,15-.48c2.33-.25,2.36-3.93,0-3.68a115.74,115.74,0,0,1-15,.48c-2.37-.06-2.37,3.62,0,3.68Z"/><path class="cls-2" d="M141.08,89.87c-2.12,6.2-3.07,33.72,9.71,24.7,1.92-1.35.08-4.55-1.86-3.18-5.15,3.63-5.36-4.45-5.47-8-.12-4-.15-8.7,1.17-12.55.77-2.25-2.79-3.21-3.55-1Z"/><path class="cls-2" d="M168,67.84a47.07,47.07,0,0,0-10.72,17.33,1.85,1.85,0,0,0,.85,2.08c9.51,4.61,22.1,5,26.22-6.83,3.72-10.65-9.16-11.08-15.59-14.75-2.06-1.18-3.92,2-1.86,3.18,3.78,2.15,14.49,3.21,14.44,8.47,0,4.38-4.44,8.4-8.44,9.25-4.38.93-9-.6-12.92-2.49l.85,2.08a42.93,42.93,0,0,1,9.77-15.71c1.64-1.71-1-4.31-2.6-2.6Z"/><path class="cls-2" d="M181.07,85.81c3.92,2.39,9.26,5.51,9.66,10.65.42,5.3-3.51,11-7,14.64a56.38,56.38,0,0,1-26.45,15.72c-10.09,2.64-19.84,1.92-30.05.85a41.6,41.6,0,0,0-24.56,4.43c-2.11,1.08-.25,4.26,1.86,3.18A35,35,0,0,1,122,131c6,.16,11.83,1.41,17.8,1.53,11.33.22,22.88-2.17,32.72-7.93,8.58-5,17.43-12.22,20.86-21.86s-2.79-15.42-10.41-20.06c-2-1.24-3.88,1.95-1.86,3.18Z"/><path class="cls-2" d="M147.28,76.39a47.33,47.33,0,0,0,7.55,4.15c2,.86,4.41,1.89,6.6,1.22s1.3-4.24-1-3.55c-1.64.5-4.15-1-5.56-1.68a49.59,49.59,0,0,1-5.76-3.32c-2-1.32-3.82,1.87-1.86,3.18Z"/><path class="cls-2" d="M153.11,70A76.18,76.18,0,0,1,163.93,74c2.15,1,4-2.22,1.86-3.18a82.53,82.53,0,0,0-11.7-4.42,1.84,1.84,0,0,0-1,3.55Z"/></g></g></svg>