<svg xmlns="http://www.w3.org/2000/svg" viewBox="0 0 215.65 138.67"><defs><style>.cls-1{fill:#231f20;}</style></defs><title>Asset 7</title><g id="Layer_2" data-name="Layer 2"><g id="Layer_1-2" data-name="Layer 1"><path class="cls-1" d="M31.46,4.54c-.23,15.57-5.2,30.53-6.68,46l3.59-2.06-.16-.1.48,3.75a4.92,4.92,0,0,1,1.11-1c2.41-1.91-1-5.26-3.38-3.38a4.92,4.92,0,0,0-1.11,1,2.42,2.42,0,0,0,.48,3.75l.16.1c1.64,1.08,3.43-.39,3.59-2.06C31,35.06,36,20.13,36.24,4.54c0-3.07-4.73-3.07-4.77,0Z"/><path class="cls-1" d="M20.48,6.93c8.6-.55,17.66-4,26.1-1,2.91,1,4.16-3.61,1.27-4.6-9-3.09-18.28.29-27.37.87-3.05.19-3.07,5,0,4.77Z"/><path class="cls-1" d="M16,51.72c8.51,1.52,16.9,0,25.46.09,3.07,0,3.07-4.73,0-4.77-8.07-.13-16.16,1.52-24.19.09-3-.54-4.29,4.06-1.27,4.6Z"/><path class="cls-1" d="M42.44,32.71c10.73-.84,21.56.41,32.14-2,3-.68,1.73-5.28-1.27-4.6-10.13,2.3-20.59,1-30.87,1.82-3,.24-3.07,5,0,4.77Z"/><path class="cls-1" d="M51.51,16c-1,8.58-1.49,18.29.8,26.7.83,3,2.35,6.62,5.68,7.56,4.41,1.24,8.38-2.9,11-5.84,2-2.3-1.34-5.69-3.38-3.38-1.57,1.78-4.76,6.12-7.24,3.83-2-1.81-2.13-6.61-2.37-9A93.14,93.14,0,0,1,56.29,16c.36-3-4.42-3-4.77,0Z"/><path class="cls-1" d="M97.34,6.45c-.77,11.5,1,23,.51,34.46A75.23,75.23,0,0,1,96,55.64c-.65,2.58-1.75,5.06-4,6.65-.84.59-6.1,3.14-6.09.49,0-3.07-4.76-3.08-4.77,0,0,4.52,3.45,6.43,7.65,5.8,5.7-.86,9.74-5,11.45-10.35,5.31-16.63.77-34.78,1.9-51.78.2-3.07-4.57-3.05-4.77,0Z"/><path class="cls-1" d="M109.75,20.77c.38,5.87-4.58,27.91,8,25.21,8.93-1.92,9.11-19.25,9.22-26.16,0-3.07-4.73-3.07-4.77,0a72.42,72.42,0,0,1-.79,9.71c-.42,2.78-1.08,9.74-3.9,11.33-5.53,3.13-2.77-17.41-2.94-20.09-.2-3.05-5-3.07-4.77,0Z"/><path class="cls-1" d="M139.19,9.88c-9.12,2.43-6.25,11.71-3.4,18.13,1.7,3.81,4.2,7.59,4.63,11.81.39,3.85-.32,8.7-2.93,11.7-1.13,1.3-7.8,5.85-7.69,1.71.09-3.07-4.69-3.07-4.77,0-.15,5.45,4.3,7.38,9.11,5.91,6.2-1.89,9.88-7.41,10.79-13.61.88-6-.5-10.35-3-15.63-1.7-3.59-7.94-13.71-1.48-15.43,3-.79,1.71-5.4-1.27-4.6Z"/><path class="cls-1" d="M145.56,26c9.59,0,19.07-1.69,28.64-1.91,3.07-.07,3.08-4.85,0-4.77-9.57.22-19.05,1.9-28.64,1.91-3.07,0-3.08,4.78,0,4.77Z"/><path class="cls-1" d="M153.67,2.63c-.1,10.35-1.73,20.62-.39,31,.5,3.84,1.31,8.74,4.69,11.19,3.8,2.76,8.09.24,11.23-2.28,2.4-1.92-1-5.28-3.38-3.38-2.8,2.25-5.07,3.09-6.59-.6-1.59-3.85-1.62-8.5-1.71-12.59-.17-7.8.85-15.53.92-23.31,0-3.07-4.74-3.08-4.77,0Z"/><path class="cls-1" d="M2.91,68.19a202.15,202.15,0,0,0,13.58,42.15c.9,2,3.79,1.21,4.36-.57C23.58,101.26,24.63,92,29,84.11H24.84c4.9,10.37,5.88,23.53,15,31.47a2.42,2.42,0,0,0,4-1.05A224,224,0,0,0,56.2,69.14c.46-3-4.14-4.3-4.6-1.27a224,224,0,0,1-12.39,45.39l4-1.05c-8.6-7.5-9.57-20.63-14.23-30.51a2.4,2.4,0,0,0-4.12,0c-4.55,8.32-5.73,17.86-8.6,26.79l4.36-.57a196.78,196.78,0,0,1-13.1-41c-.61-3-5.22-1.73-4.6,1.27Z"/><path class="cls-1" d="M81.27,78.62C67.14,72.75,54.49,91,62.95,103c9.24,13.06,34.57,8.41,34.33-9-.14-9.59-8.07-15.84-17-17.25-3-.48-4.3,4.12-1.27,4.6,7.28,1.16,14.4,6,13.38,14.29-1,8.44-9.74,11.11-17.08,9.57-7.08-1.49-12-7.13-9.78-14.48,1.95-6.53,8-10.14,14.44-7.46,2.83,1.18,4.07-3.44,1.27-4.6Z"/><path class="cls-1" d="M108.8,65.65c0,7.9-.7,15.79-.71,23.7,0,6.17-.38,14,2.95,19.51,1.59,2.63,5.72.23,4.12-2.41-3.23-5.35-2.36-13.71-2.27-19.68.1-7,.65-14.08.69-21.12,0-3.07-4.76-3.08-4.77,0Z"/><path class="cls-1" d="M110.86,71.77C117,70.68,131.34,70,131,79.29c-.43,10.51-16.84,8.17-23.74,7.63l2.06,1.18-.42-.63L107.43,91c-.84.14,1.24,0,1.53-.11,3-.84,1.7-5.44-1.27-4.6-.16,0-1.1,0-1.53.11a2.4,2.4,0,0,0-1.43,3.51c1.62,2.45,4.57,2,7.26,2.16a51.79,51.79,0,0,0,10.62-.3c6.24-.94,11.88-4.12,12.94-10.8,2.28-14.39-16.14-15.53-26-13.78-3,.54-1.74,5.14,1.27,4.6Z"/><path class="cls-1" d="M120.34,88.24c3.33,9.8,9.29,17.07,16.84,24,2.26,2.07,5.65-1.3,3.38-3.38C133.65,102.52,128,96,124.94,87c-1-2.89-5.6-1.65-4.6,1.27Z"/><path class="cls-1" d="M143.17,69.46c-.05,10.19-.89,20.36-1,30.55,0,3.07,4.75,3.08,4.77,0,.07-10.19.9-20.36,1-30.55,0-3.07-4.76-3.08-4.77,0Z"/><path class="cls-1" d="M157.23,68.73c-3.92,4.54-8.82,8-13.07,12.25a2.42,2.42,0,0,0,1.05,4c8.12,2.86,12.73,11,18.7,16.73,2.22,2.12,5.6-1.25,3.38-3.38-6.73-6.42-11.64-14.74-20.81-18l1.05,4c4.25-4.21,9.15-7.71,13.07-12.25,2-2.31-1.36-5.71-3.38-3.38Z"/><path class="cls-1" d="M180.08,59.67c-3.36-6.72-9.67-3.61-12.22,2-1.4,3.07-2,6.89-.81,10.13,1.49,3.92,4.58,4.71,8.08,6.15,10.5,4.31,4.84,25.84-1.33,32-2.91,2.91-6.8,3.25-10.75,3.17a26.72,26.72,0,0,1-6.22-.75,7.77,7.77,0,0,1-2.41-.8c-.83-.58-.61-.18-.5-.29,2.11-2.23-1.26-5.62-3.38-3.38-5.35,5.68,3.24,8.92,7.8,9.59,8.07,1.19,15.92.27,21-6.73,5.66-7.85,8.52-22.11,4.38-31.21-2.15-4.72-5.4-4.86-9.52-6.94-3.23-1.64-3.44-4.62-2.47-7.71.62-2,2.57-6.2,4.27-2.81,1.38,2.75,5.49.33,4.12-2.41Z"/><path class="cls-1" d="M3,138.6C38,130.5,74.09,128.17,110,127.47c17.69-.35,35.39-.28,53.08-.26,16.77,0,33.52-.89,50.28-.95,3.07,0,3.08-4.78,0-4.77-16.77.05-33.51,1-50.28.95-18.32,0-36.64-.09-55,.29-35.69.75-71.53,3.21-106.39,11.26-3,.69-1.73,5.29,1.27,4.6Z"/></g></g></svg>