<svg xmlns="http://www.w3.org/2000/svg" viewBox="0 0 263.63 246.18"><defs><style>.cls-1{fill:#231f20;}</style></defs><title>Asset 21</title><g id="Layer_2" data-name="Layer 2"><g id="Layer_1-2" data-name="Layer 1"><path class="cls-1" d="M41.79,48.29A209.12,209.12,0,0,0,69.47,79.12a2.55,2.55,0,0,0,3.93-.51L103.81,39c2-2.55-2.38-5-4.32-2.52L69.08,76.09,73,75.58A202.79,202.79,0,0,1,46.1,45.77c-1.89-2.57-6.23-.07-4.32,2.52Z"/><path class="cls-1" d="M68,78.63l1,27c.12,3.21,5.12,3.22,5,0l-1-27c-.12-3.21-5.12-3.22-5,0Z"/><path class="cls-1" d="M96.54,67.19c-4.68,6.65-10,15.4-5.25,23.46,3.79,6.48,12.15,8.48,17.28,2.36,4.89-5.84,6.72-16.56,1.19-22.52-4.84-5.22-14-3.92-15.57,3.52-.68,3.14,4.14,4.48,4.82,1.33,1-4.67,6.22-3.42,8.09-.11a10.76,10.76,0,0,1,.74,7.27c-.79,4.07-3.27,10.76-8.57,8.93-10.2-3.53-2-16.57,1.59-21.71,1.86-2.64-2.48-5.14-4.32-2.52Z"/><path class="cls-1" d="M122.93,43.92A99.76,99.76,0,0,0,119,78.57c.44,6.37,1.58,17,9.68,18,8.7,1.17,11.54-9.72,13.29-16a160.65,160.65,0,0,0,5.52-35c.16-3.22-4.84-3.21-5,0a155.35,155.35,0,0,1-3.16,24.74c-.94,4.39-3.09,21.33-9.46,21.36-7.24,0-6.16-17.25-6.07-21.51a95.93,95.93,0,0,1,3.94-25c.9-3.1-3.92-4.42-4.82-1.33Z"/><path class="cls-1" d="M175.64,68.12c-11.62-.84-20.19,11.37-14.4,21.81s20.64,9.5,26.11-.72c1.52-2.84-2.8-5.37-4.32-2.52-3.67,6.87-13.48,8.06-17.47.72s2.34-14.84,10.08-14.28c3.21.23,3.2-4.77,0-5Z"/><path class="cls-1" d="M189,62c2.64-3.7,8-1.68,9.71,1.69s1,7.41-.21,10.8c-1.88,5.09-5,9.88-3.86,15.56.8,4,3.58,7.4,7.85,7.71a7.33,7.33,0,0,0,7.91-5.56c.72-3.13-4.1-4.47-4.82-1.33-.9,3.92-5.09,1-5.8-.82a9.73,9.73,0,0,1,0-5.51c.69-2.79,2.15-5.33,3.21-8,1.77-4.47,2.45-9.53.57-14.09-3.21-7.81-13.75-10.21-18.92-3-1.87,2.62,2.46,5.12,4.32,2.52Z"/><path class="cls-1" d="M199.5,71.89A8.72,8.72,0,0,0,190.25,68a8.27,8.27,0,0,0-.68,15.77,8.73,8.73,0,0,0,9.67-3.23,2.52,2.52,0,0,0-.9-3.42,2.56,2.56,0,0,0-3.42.9c-1.94,2.56-6.05.79-5.81-2.28a3.28,3.28,0,0,1,6.07-1.38c1.72,2.71,6,.21,4.32-2.52Z"/><path class="cls-1" d="M217.73,47.63l.08,47c0,3.22,5,3.22,5,0l-.08-47c0-3.22-5-3.22-5,0Z"/><path class="cls-1" d="M234.68,47.91l-6.06,44c-.43,3.15,4.38,4.51,4.82,1.33l6.06-44c.43-3.15-4.38-4.51-4.82-1.33Z"/><path class="cls-1" d="M96.3,106.3c-6.86,9.13-14.53,20.91-9.25,32.69,3.9,8.69,15.2,12.38,22.64,5.75,2.41-2.14-1.14-5.67-3.54-3.54-7.63,6.79-15.71-2.95-15.8-10.46-.1-8.39,5.47-15.55,10.25-21.92,1.93-2.57-2.41-5.07-4.32-2.52Z"/><path class="cls-1" d="M77.5,129l22-1.48c3.19-.22,3.22-5.22,0-5L77.5,124c-3.19.22-3.22,5.22,0,5Z"/><path class="cls-1" d="M116,106.63a179.41,179.41,0,0,1,.12,37.68l4.91-.66c-.52-3.35-1.37-8,.93-10.87,2.78-3.47,6.54-1.67,6.42,2.45s-1.42,7.87,1.06,11.64c1.76,2.68,6.09.18,4.32-2.52-2.53-3.84.61-9-.72-13.22a7.47,7.47,0,0,0-7.24-5.41c-10.39,0-10.73,11.82-9.58,19.27.46,3,4.65,1.91,4.91-.66a179.41,179.41,0,0,0-.12-37.68c-.34-3.16-5.35-3.2-5,0Z"/><path class="cls-1" d="M142.69,118.6c.36-1.27,2.66-1.35,3.59-.9,1.33.64,1.92,3,2,4.35.18,2.52-.59,5-1.06,7.47-.66,3.46-1.19,7.38.48,10.66,2.43,4.78,9.08,6.82,13,2.7,2.22-2.33-1.31-5.87-3.54-3.54-1.66,1.74-4,.06-4.82-1.47-1.05-1.92-.81-4.1-.47-6.22s1-4.23,1.21-6.4c.41-3.46.19-7.42-2.22-10.19-3.7-4.25-11.38-3.53-13,2.19-.88,3.1,3.94,4.42,4.82,1.33Z"/><path class="cls-1" d="M145.53,125.83c-5.33-.15-9.49,6.28-6.55,11,2.79,4.45,9.62,4.13,12.4-.08,1.78-2.69-2.55-5.2-4.32-2.52a2.55,2.55,0,0,1-3.76.08c-1.09-1.45.72-3.49,2.24-3.44,3.22.09,3.22-4.91,0-5Z"/><path class="cls-1" d="M159.5,126.3l45,1c3.22.07,3.22-4.93,0-5l-45-1c-3.22-.07-3.22,4.93,0,5Z"/><path class="cls-1" d="M175.18,106.45c-.14,11-7.56,23-1.53,33.7,3.85,6.82,14,9.59,19.58,3.24,2.11-2.41-1.41-6-3.54-3.54-2.62,3-6.9,2.58-9.77.14-3.33-2.83-3.81-7.66-3.5-11.76.55-7.41,3.67-14.28,3.76-21.78,0-3.22-5-3.22-5,0Z"/><path class="cls-1" d="M122.45,159.45c1.11-2.88,5,0,6,1.45a33.17,33.17,0,0,1,2.52,5.73c1.18,2.89,2.68,5.83,5.4,7.56,4.21,2.68,10.6,1.07,11.63-4.19.62-3.14-4.2-4.49-4.82-1.33-.89,4.53-5.51.2-6.46-1.44a51.9,51.9,0,0,1-2.45-5.8c-1.12-2.63-2.6-5.36-5.12-6.91-4.29-2.63-9.74-1.09-11.54,3.6-1.15,3,3.68,4.31,4.82,1.33Z"/><path class="cls-1" d="M130.57,164.78c-4.17-6.59-14.7-1.55-12.46,5.91a8.83,8.83,0,0,0,8.6,6.06c4.13-.15,7.66-3.19,9.27-6.84,1.29-2.92-3-5.46-4.32-2.52-1.23,2.78-4.89,6.25-7.83,3.3-2.5-2.51,1.05-5.55,2.42-3.38,1.72,2.71,6,.21,4.32-2.52Z"/><path class="cls-1" d="M63.78,162.6l-4,36c-.36,3.19,4.64,3.17,5,0l4-36c.36-3.19-4.64-3.17-5,0Z"/><path class="cls-1" d="M64.31,165.31c3.33-1.86,7-4.11,10.93-4.17,4.32-.07,8.55,2.8,7.41,7.57-1.76,7.43-10.82,8.65-17.1,9.58l1.33,4.82c5-.93,10.59-2.1,15.54-.39,5.11,1.76,9.5,7.31,5.85,12.46-5.67,8-19.11,5.69-26.17,1.41v4.32l2.65-1.12c3-1.25.41-5.56-2.52-4.32l-2.65,1.12c-1.81.77-1.44,3.44,0,4.32,9.73,5.9,30.61,7.65,34.69-6.57,1.68-5.84-1.78-11.61-6.68-14.66-6.64-4.14-14.79-2.74-22-1.39-3.2.59-1.79,5.28,1.33,4.82,9.26-1.37,23.37-6,20.75-18.37-.94-4.45-4.78-7.41-9.09-8.3-6-1.25-11.69,1.71-16.77,4.56-2.81,1.57-.29,5.89,2.52,4.32Z"/><path class="cls-1" d="M99.12,174.62l3.1,34c.29,3.18,5.29,3.21,5,0l-3.1-34c-.29-3.18-5.29-3.21-5,0Z"/><path class="cls-1" d="M105.82,198A27.84,27.84,0,0,1,121,186.6c3.07-.94,1.76-5.77-1.33-4.82a33.27,33.27,0,0,0-18.21,13.68c-1.77,2.7,2.55,5.2,4.32,2.52Z"/><path class="cls-1" d="M129,180.63v2a2.5,2.5,0,0,0,5,0v-2a2.5,2.5,0,0,0-5,0Z"/><path class="cls-1" d="M129,190.63l-.4,18c-.07,3.22,4.93,3.22,5,0l.4-18c.07-3.22-4.93-3.22-5,0Z"/><path class="cls-1" d="M148.93,193.81c6.91-.41,16.26-2.38,16.37-11.12.11-8.26-9.58-9.26-15.2-5.8-6.05,3.72-9.11,11.95-6.31,18.58,3,7.2,11.38,10.69,18.72,8.6,3.09-.88,1.78-5.7-1.33-4.82-8.63,2.45-16.74-6.21-12-14.4,1.33-2.29,10.59-9.38,11.1-2.15.38,5.45-7.79,5.91-11.37,6.12-3.2.19-3.22,5.19,0,5Z"/><path class="cls-1" d="M191.35,157.76c-3.34-3.41-7.94-7.26-13.1-5.69-3.87,1.18-5.8,4.71-6.5,8.46-1.07,5.71.42,11.85,1.13,17.52l2.93,23.59c.39,3.15,5.4,3.19,5,0l-3.54-28.5c-.45-3.61-1.18-7.33-.71-11,.27-2,.76-4.44,3-5.28,3.14-1.17,6.37,2.49,8.24,4.4,2.25,2.3,5.79-1.23,3.54-3.54Z"/><path class="cls-1" d="M158.52,170.9l33,2.65c3.21.26,3.19-4.74,0-5l-33-2.65c-3.21-.26-3.19,4.74,0,5Z"/><path class="cls-1" d="M213.63,148.09q-1.47-4.7,4.05-.07a7.41,7.41,0,0,1-1,5.23,22.73,22.73,0,0,1-3.33,4.42,40.26,40.26,0,0,0-5.57,7.16,24,24,0,0,0-1.93,17.56c.79,3.12,5.62,1.8,4.82-1.33-2.25-8.84,1.79-14.58,7.23-21,3.45-4.07,6.51-9.57,3.93-14.9-1.78-3.69-6.2-6.2-10.12-4.15-3.45,1.81-4.86,6.45-2.46,9.61,1.92,2.53,6.27,0,4.32-2.52Z"/><path class="cls-1" d="M205,197.63v1a2.5,2.5,0,0,0,5,0v-1a2.5,2.5,0,0,0-5,0Z"/><path class="cls-1" d="M24.08,39.73c7.57-3.83,16.45-4.6,24.71-6.08,9.77-1.75,19.59-3.13,29.44-4.28,20.16-2.35,40.41-4.15,60.65-5.67,20.5-1.53,41-2.61,61.61-2.89,19.78-.27,39.59,2.09,59.35,1.09,3.2-.16,3.22-5.16,0-5-20.41,1-40.89-1.39-61.34-1.06-21.22.34-42.43,1.52-63.59,3.16-20.81,1.62-41.64,3.45-62.35,6-9.5,1.19-18.94,2.7-28.37,4.37-7.73,1.37-15.55,2.41-22.63,6-2.87,1.45-.34,5.77,2.52,4.32Z"/><path class="cls-1" d="M258.83,18.53c-3.39,4.56-3,11.18-3.27,16.58-.44,8.84-2.7,17.64-3.92,26.4-2.55,18.32-2.85,37.09-3.5,55.56-.67,19.16-.89,38.35-.24,57.51.61,18.18,1.71,36.42,8.62,53.47l2.41-3.16c-38.06,1.24-76.3-2.6-114.3,0C126.72,226,109,229,91.37,232a158.48,158.48,0,0,0-23.15,5.42c-2.19.73-4.35,1.52-6.56,2.17-1.2.36-6.63,2.44-7.68,1.47-2.37-2.17-5.91,1.36-3.54,3.54,3.23,3,8.94.89,12.55-.19,6.06-1.8,11.92-3.95,18.11-5.34a433.27,433.27,0,0,1,57.81-8.85c39.87-3.4,80.08.91,120-.4,1.46,0,3-1.59,2.41-3.16-6.75-16.66-7.84-34.38-8.44-52.14-.62-18.5-.44-37,.17-55.53.62-18.66.83-37.7,3.39-56.21,1.12-8.11,3-16.16,3.87-24.31.58-5.49-.65-12.81,2.81-17.48,1.92-2.59-2.42-5.08-4.32-2.52Z"/><path class="cls-1" d="M20.31,38.35c1.44,16.33,1.42,32.83,2.62,49.19,1.24,16.87,3.59,33.63,6.46,50.3,3,17.52,6.57,34.94,9.95,52.4,1.64,8.46,3.22,16.88,5.46,25.21,2.16,8,4.6,16.07,5.67,24.35.41,3.15,5.41,3.19,5,0-2.07-15.89-7.54-31.27-10.56-47-3.35-17.46-6.93-34.87-10-52.38a527.19,527.19,0,0,1-7-52.86c-1.21-16.36-1.18-32.86-2.62-49.19-.28-3.18-5.28-3.21-5,0Z"/><path class="cls-1" d="M224.35,19.29c2.26-6,5.59-19.54-4.53-19.29-2.46.06-4.86.69-7.3.93-4,.39-8,.32-12,.52-8.93.47-17.86.77-26.79,1.11-18.85.71-37.71,1.49-56.47,3.59-17.8,2-35.49,5.27-53.12,8.38-17.34,3.05-35.59,6.13-52.16,12.24-5,1.84-9.4,4.07-10.74,9.63-1.68,7-.83,15.1-1,22.23C-.29,76.38,0,93.93,3.31,111.42a470,470,0,0,0,13,52.44c5.67,18,12.22,36.16,16.53,54.57.94,4,1.85,11.55,6.09,13.63,4.06,2,10.11-2.38,13.08-4.81,2.49-2-1.06-5.55-3.54-3.54-1.44,1.18-4.24,3.3-6.12,3.45s-.32.86-1.75-.43c-.75-.68-1-2.42-1.33-3.36-1.64-5.15-2.68-10.5-4.26-15.68-4.51-14.77-9-29.54-13.61-44.27C12,133.48,4.75,102.57,5,71c0-7.61.33-15.22.54-22.83.08-2.94-.07-6,.3-8.92.58-4.64,3.29-6.11,7.49-7.69,13.84-5.22,29.17-8,43.66-10.69,31.58-6,63.18-10.81,95.31-12.42,17.28-.87,34.57-1.4,51.85-2.2,3.11-.14,6.26-.06,9.35-.45C215.07,5.62,220,4,221.32,5c2.32,1.78-.94,10.72-1.79,13-1.14,3,3.69,4.31,4.82,1.33Z"/></g></g></svg>