<svg xmlns="http://www.w3.org/2000/svg" viewBox="0 0 211.51 246.24"><defs><style>.cls-1{fill:#fff;}</style></defs><title>Asset 9</title><g id="Layer_2" data-name="Layer 2"><g id="Layer_1-2" data-name="Layer 1"><path class="cls-1" d="M97.51,13.73c-21.12.16-54.13,2-68,21C16.4,52.56,18.75,86,17.31,107.48c-4.65-14.61-16.13-6-14.72,5.83,1,8.43,3.5,26.28,14.77,25.5,2.5,7.46,1.25,16.64,2.18,24.37,1.06,8.88,3.51,17.07,5.75,25.73,4.9,18.93,14.49,34.36,32.27,44.12,33.9,18.62,81.07,13.31,105.44-18.34,13.86-18,21.54-40,24.46-62.64,16.35,7.23,37.51-45.76,2.93-46.37C188.1,93.63,194,79.75,192,66.73c-1.92-12.48-12.06-23-21.56-31.3-10.85-9.52-23.36-16.28-37.8-19-7.16-1.33-33.78-9.16-37.18-2.73"/><path d="M97.51,11.23C75,11.43,45.15,12.47,29.22,31,21.14,40.48,18.45,53.33,17,65.33c-1.69,14-1.3,28.11-2.19,42.15l4.91-.66c-1.79-5.06-5.67-11.29-12-9.09-5.87,2-8,9.37-7.69,15,.64,10.32,3.8,28.89,17.32,28.62l-2.41-1.84c1.69,5.66,1.55,11.43,1.7,17.27a88.86,88.86,0,0,0,2.07,16.4c2.24,10.4,4.82,21.11,9.16,30.86,7.63,17.14,21.47,29.2,38.79,36,32.4,12.74,73.46,6.07,96.36-21.39C178.68,199.86,186.75,176,190,152.06l-3.16,2.41c12.46,5,21.58-13,23.73-22.39,1.48-6.43,1.59-13.73-1.81-19.6-3.82-6.62-11.06-9-18.33-9.3L192.8,105c-1.5-9.35,1.27-18.67,2-28,.57-7.58-.44-14.78-3.92-21.59-7.06-13.8-21.11-25.69-34.5-33.08C145,16.11,132.22,13.6,119.62,11,113,9.57,98.1,5.13,93.35,12.47c-1.75,2.71,2.58,5.22,4.32,2.52s9.63-1.08,12.09-.75c4.85.66,9.65,1.75,14.41,2.85,12,2.77,23.32,5.42,33.87,12.1,11.76,7.45,25.14,19,30.08,32.37,5.34,14.51-2.52,29.91-.14,44.79a2.52,2.52,0,0,0,2.41,1.84c29.31,1,12.15,47.26-2.27,41.46-1.69-.68-3,1-3.16,2.41-2.81,20.91-9.68,41.43-22.09,58.65a73,73,0,0,1-41.13,27.83c-32.33,8.45-72.27-2.48-88-33.83-5-9.92-7.57-21.18-10-32a91.19,91.19,0,0,1-2.14-18.48c-.1-5.45-.26-10.85-1.84-16.1a2.55,2.55,0,0,0-2.41-1.84c-8.66.17-10.62-12.09-11.67-18.62-.64-4-1.39-8.27.55-12,3.07-5.94,7-2.3,8.66,2.46a2.51,2.51,0,0,0,4.91-.66c.8-12.57.56-25.2,1.72-37.75,1.11-12,3.21-25.64,11.23-35.15C47.6,17,76.41,16.42,97.51,16.23c3.22,0,3.22-5,0-5Z"/><path class="cls-1" d="M54.51,58.73c15.17-6.44,37-5.74,38,14.41.82,17.14-6.67,33.2-5.85,50.46a94.93,94.93,0,0,0,22.85,4.12"/><path d="M55.18,61.15C65.38,57,83.56,54,88.77,67.09c3.37,8.45.6,19.49-1.07,28-1.86,9.45-3.83,18.84-3.53,28.52A2.58,2.58,0,0,0,86,126a102.34,102.34,0,0,0,23.51,4.21c3.21.23,3.2-4.77,0-5a96.42,96.42,0,0,1-22.18-4l1.84,2.41c-.38-12.21,3.1-23.84,4.89-35.81,1.27-8.47,2.52-18.65-2.54-26.18-8.09-12.06-26-10.06-37.67-5.29-2.94,1.2-1.65,6,1.33,4.82Z"/><path class="cls-1" d="M78.51,76.73c-10.9-9.41-28.6-.61-40.9,1.1,4,23.71,42.27,21.9,43.9-1.1"/><path d="M80.28,75c-12.9-10.26-29.17-1.73-43.33.45-1.41.22-2,1.88-1.75,3.08C40.13,104.08,81.5,103,84,76.73c.31-3.2-4.7-3.18-5,0-.93,9.77-9.75,15.4-19,15.57-9.72.18-18.09-5.35-20-15.14l-1.75,3.08C50,78.43,66,70,76.74,78.5c2.49,2,6.05-1.53,3.54-3.54Z"/><path class="cls-1" d="M58.51,79.73c-3.12,4-.64,9.06,4.27,6.27,4.45-2.52,4.07-11.13-1.89-8.74-8.36,3.35.33,14.94,4.69,5.25,3.3-7.34-8.27-7.45-5.06.22"/><path d="M56.35,78.47c-2.13,2.89-2.62,7.66.74,9.91,3,2,7.09.44,9.18-2.16a8.75,8.75,0,0,0,1.55-8.3c-1.32-3.52-5-4.2-8.2-2.81A7.35,7.35,0,0,0,54.9,82a7.25,7.25,0,0,0,4,6.21c6,2.85,12.27-6.17,8.91-11.28a5.75,5.75,0,0,0-7.36-1.78c-3.08,1.61-3.47,5.28-2.3,8.25s6,1.67,4.82-1.33a5.26,5.26,0,0,1-.48-2c0-.26,0-.26.21-.47a1.13,1.13,0,0,1,.34-.13c-.38,0,.76.11,0,0,.19,0,.83.3.37.08.21.1.21.29.19.1,0,.44.12-.17.08.32a3.16,3.16,0,0,1-.12.84A6.56,6.56,0,0,1,62.46,83a3.4,3.4,0,0,1-1,.84c.11,0-.62-.12-.2,0-.36-.11,0,.1-.39-.17a2.38,2.38,0,0,1-.71-.86,1.91,1.91,0,0,1,.13-2.12,3.85,3.85,0,0,1,1.59-1.08,4,4,0,0,1,.82-.21.64.64,0,0,1,.34,0,1.28,1.28,0,0,1,.24.64,6.26,6.26,0,0,1-.07,1.39c-.28,1.21-1.48,3.07-3,2.9s0-2.7.46-3.32a2.52,2.52,0,0,0-.9-3.42,2.55,2.55,0,0,0-3.42.9Z"/><path class="cls-1" d="M69.08,152.33,59.44,187"/><path d="M66.66,151.66,57,186.34c-.87,3.12,4,4.46,4.85,1.34L71.51,153c.87-3.12-4-4.46-4.85-1.34Z"/><path class="cls-1" d="M69,152.48l8.71,30.28"/><path d="M66.6,153.15l8.71,30.28c.89,3.11,5.75,1.78,4.85-1.34l-8.71-30.28c-.89-3.11-5.75-1.78-4.85,1.34Z"/><path class="cls-1" d="M62,176.33l14.09-1.46"/><path d="M62,178.85l14.09-1.46c3.19-.33,3.22-5.36,0-5L62,173.82c-3.19.33-3.22,5.36,0,5Z"/><path class="cls-1" d="M85.94,152l.78,29.73c-.55-2.66-1.08-5.49-.13-8s4-4.47,6.44-3.21,2.62,4.25,2.4,6.79-.69,5.35.78,7.43"/><path d="M83.43,152l.78,29.73,4.94-.67a15.06,15.06,0,0,1-.44-2.91q-.9-3.43,4-4.11c.65.87.08,3.77,0,4.78A12.9,12.9,0,0,0,94,185.94c1.45,2.89,5.79.35,4.34-2.54-1.84-3.66.5-8.08-1.25-11.9a6.29,6.29,0,0,0-6-3.9c-7.81.27-7.95,9.16-6.86,14.76.55,2.8,5,2.14,4.94-.67L88.46,152c-.08-3.23-5.12-3.24-5,0Z"/><path class="cls-1" d="M105.69,151a225.26,225.26,0,0,1-.66,31.25c.07-2.54.18-5.2,1.44-7.4s4.09-3.74,6.4-2.68c3,1.37,3,5.59,2.56,8.87"/><path d="M103.17,151a239.85,239.85,0,0,1-.66,31.25h5a26.76,26.76,0,0,1,.32-3.91q0-3.57,3-1.71c3.09.71,2.37,1.62,2,4.4-.37,3.21,4.66,3.18,5,0,.57-4.91-.48-11.83-6.87-11.68-6.8.16-8.36,7.48-8.56,12.89-.12,3.27,4.76,3.18,5,0A239.85,239.85,0,0,0,108.2,151c-.14-3.22-5.17-3.24-5,0Z"/><path class="cls-1" d="M124.08,148.44l-.26,31.78a11.07,11.07,0,0,1-.24-5.41c.52-1.75,2.26-3.28,4-2.9s2.79,2.6,2.89,4.52-.29,3.92.35,5.74"/><path d="M121.56,148.44l-.26,31.78,4.94-.67q1.81-6.06,1.72-2.64a19.76,19.76,0,0,1,0,2.43,19,19,0,0,0,.47,3.5c.7,3.16,5.55,1.82,4.85-1.34-.91-4.13.61-11.47-5.67-12.11-6.55-.67-7.09,7-6.22,11.49.55,2.84,4.92,2.1,4.94-.67l.26-31.78c0-3.24-5-3.24-5,0Z"/><path class="cls-1" d="M139.06,149.95,138.47,180a14.23,14.23,0,0,1-.28-5.41,4.84,4.84,0,0,1,3.39-3.88c2.16-.46,4.3,1.24,5.12,3.28s.64,4.34.45,6.54"/><path d="M136.54,149.95,136,180l4.94-.67q-2.07-5.37,3.89-2.13a28.53,28.53,0,0,1-.15,3.32c-.24,3.23,4.79,3.21,5,0,.38-5-.77-12.52-7.45-12.35s-7,7.62-6.17,12.5c.48,2.87,4.89,2.07,4.94-.67l.59-30.07c.06-3.24-5-3.24-5,0Z"/><path class="cls-1" d="M153.08,181.14"/><path d="M153.08,183.65c3.24,0,3.24-5,0-5s-3.24,5,0,5Z"/><path class="cls-1" d="M159.12,181.14"/><path d="M159.12,183.65c3.24,0,3.24-5,0-5s-3.24,5,0,5Z"/><path class="cls-1" d="M165.66,181.64"/><path d="M165.66,184.15c3.24,0,3.24-5,0-5s-3.24,5,0,5Z"/><path class="cls-1" d="M112.51,79.73c8.1-3.78,15.62-8.08,25.07-8,10.06,0,15,5.31,22.93,10"/><path d="M113.77,81.89c8-3.79,16.25-8.31,25.44-7.65,7.78.56,13.66,5.75,20,9.65,2.75,1.69,5.27-2.64,2.52-4.32-7.25-4.44-13.71-9.79-22.56-10.33-10.1-.62-19.12,4.16-28,8.33-2.91,1.37-.37,5.68,2.52,4.32Z"/><path class="cls-1" d="M110.51,80.73c7.74,10.5,15.65,17,29,15,7-1.07,23-6,21-14"/><path d="M108.35,82c8.24,11,18.2,18.56,32.61,16,8.19-1.45,23.8-6,22-16.94-.53-3.17-5.35-1.82-4.82,1.33,1.19,7.08-15.24,10.48-20.13,11-11.22,1.28-19-5.51-25.3-14-1.91-2.55-6.25-.06-4.32,2.52Z"/><path class="cls-1" d="M134.51,78.73c-.58,15.16,15.49-5.61,5.41-3-11.75,3,.23,17.72,6.72,5C135.27,67,128.1,90.93,139,85.3c6-3.06,1.41-11.66-3.47-9.52-5.41,2.37-.94,8.71,3.93,7"/><path d="M132,78.73c-.1,3.88,1.39,9.42,6.48,7.82,3.19-1,6.09-4.56,7-7.7,1.33-4.65-2.81-6.62-6.79-5.38-5.19,1.62-8.22,7.08-4.54,11.77a7.75,7.75,0,0,0,6.93,3c3.61-.4,6.11-3.26,7.74-6.29a2.6,2.6,0,0,0-.39-3c-3.32-3.89-8.69-7-13.4-3.41-2.88,2.18-4.92,6.68-3.42,10.2,2.14,5,9.27,2.79,11.63-.86,3.23-5-1.13-13.16-7.43-11.75-3.65.82-6.14,4.36-4.74,8s5.56,5.13,9.12,4.07c3.08-.92,1.77-5.75-1.33-4.82-1.1.33-4.11-.34-3-1.82s2.8,0,3.27,1.14c.72,1.74-.22,3.1-1.87,3.74a5,5,0,0,1-1.43.27c.52-.09.19.22.21,0,0,.06.2.18.14.09s-.08.19,0-.21c0,0,0,.07,0-.4a2.59,2.59,0,0,1,.22-1.18A5.13,5.13,0,0,1,138,79.51c2.28-1.81,5.16.87,6.92,2.94l-.39-3c-.85,1.59-2.31,4.11-4.49,3.88a3,3,0,0,1-2.32-1.71,2,2,0,0,1,1-2.72,12.45,12.45,0,0,1,2.53-.87c.55-.21.36.22.28,0,0,0-.68-.72-.7-.74s0-.18-.08,0a6.64,6.64,0,0,1-.55,1.28,9,9,0,0,1-2.18,2.6s-1.08.71-.82.55c-.44.27-.23-.11-.15.09,0,0,0,0-.09,0,.36,0,.48.45.49.3s-.19-.39-.23-.57a11.69,11.69,0,0,1-.18-2.8c.08-3.22-4.92-3.22-5,0Z"/><path class="cls-1" d="M118.41,55.15C129.14,46.69,149,53,160.68,56"/><path d="M119.67,57.31C131,49,147.8,55.25,160,58.37c3.12.8,4.45-4,1.33-4.82-13.53-3.46-31.6-9.74-44.2-.56-2.58,1.88-.08,6.22,2.52,4.32Z"/><path class="cls-1" d="M71.25,12.87c1.51-.7,10.65-7.47,15-10.28C83.67,5.7,79.88,9.49,78,12.77c7.14,0,10.57-8.44,17.49-9.65-2.59,4.08-6.92,6.94-8.75,11.33,6.18-1.85,12-8,17.59-11.43-3.25,3.84-9.41,8.72-10.2,13.81C102,16,106.5,6.91,113.48,4c-2.86,4.3-6.85,9-8.81,13.85,6.82-.7,13.12-10.9,19.77-14-2.6,5.46-8.65,8.52-10.05,14.5C121,16.34,127.23,8,133.52,4.1c-3.1,3.34-7.51,6.68-8.83,11,7.05-2,12-9.57,18.73-11.06-3.53,3.79-7.42,7.29-10.33,11.54,4,1.29,11.33-4.43,13.55-8.24-3,3.79-5.25,8.14-7.74,12.22,4.48.19,8.22-4.92,12.58-6.59C150,16.63,147.42,20.07,147,24c1.76-1.88,4.36-3.21,6.27-4.57a9.08,9.08,0,0,1-1.5,5.63"/><path d="M72.51,15c5.29-2.82,10-7,15-10.28l-3-3.93c-2.95,3.51-6.18,6.79-8.63,10.68A2.52,2.52,0,0,0,78,15.27c7.77-.5,11.07-8,18.16-9.74L93.32,1.86c-2.75,4-6.61,6.93-8.75,11.33-.87,1.8.6,4.45,2.82,3.67,7-2.43,12.12-7.7,18.19-11.68l-3-3.93C98.49,5.84,93.2,9.94,91.71,16.17a2.54,2.54,0,0,0,3.08,3.08c8.49-1.41,12.59-9.63,20-13.09l-3.42-3.42c-3.1,4.54-6.57,8.79-8.81,13.85a2.54,2.54,0,0,0,2.82,3.67C113.86,18.77,118.42,9.8,125.7,6l-3.42-3.42c-3,5.53-8.43,8.88-10.3,15.09a2.52,2.52,0,0,0,3.08,3.08C123,17.9,128,10.79,134.78,6.26l-3-3.93c-3.64,3.79-7.54,7.05-9.48,12.07-.68,1.76,1.37,3.65,3.08,3.08,7-2.38,11.63-9.08,18.73-11.06l-2.43-4.18c-3.71,3.92-7.55,7.66-10.72,12A2.51,2.51,0,0,0,132.42,18c6.48,1.24,13-4.3,16.37-9.39,1.8-2.75-2.44-5-4.32-2.52a143.19,143.19,0,0,0-7.74,12.22A2.52,2.52,0,0,0,138.89,22c5.6-.34,9-4.72,13.84-6.94l-3.42-3.42c-1.7,3.89-4,7.44-4.76,11.67a2.52,2.52,0,0,0,4.18,2.43,44.13,44.13,0,0,1,5.77-4.18l-3.76-2.16a6.7,6.7,0,0,1-1.16,4.36c-1.58,2.81,2.74,5.33,4.32,2.52a13.73,13.73,0,0,0,1.84-6.89A2.52,2.52,0,0,0,152,17.28a52.35,52.35,0,0,0-6.78,5l4.18,2.43c.69-3.8,2.73-7,4.25-10.47a2.52,2.52,0,0,0-3.42-3.42c-3.72,1.7-7.1,6-11.32,6.25l2.16,3.76a143.19,143.19,0,0,1,7.74-12.22L144.47,6c-1.92,2.93-6.78,7.84-10.72,7.09l1.49,3.67c2.91-4,6.53-7.43,9.94-11a2.52,2.52,0,0,0-2.43-4.18c-7.25,2-11.7,8.68-18.73,11.06l3.08,3.08c1.56-4,5.27-6.82,8.19-9.86,1.9-2-.59-5.55-3-3.93-6.31,4.19-11.28,11.38-18.54,14L116.8,19c1.67-5.53,7.1-8.88,9.8-13.9a2.52,2.52,0,0,0-3.42-3.42C116.41,5.21,111.73,14.09,104,15.43l2.82,3.67c2.24-5.06,5.71-9.31,8.81-13.85,1.54-2.25-1.37-4.38-3.42-3.42-6.88,3.23-11,11.3-18.76,12.59l3.08,3.08c1.26-5.25,6.12-8.83,9.56-12.71,1.79-2-.53-5.57-3-3.93C97.43,4.55,92.52,9.79,86.06,12l2.82,3.67c2.11-4.34,6-7.4,8.75-11.33C98.95,2.49,96.79.23,94.81.71,88.37,2.26,84.51,9.85,78,10.27L80.14,14C82.37,10.5,85.32,7.54,88,4.36c1.71-2-.5-5.6-3-3.93-5,3.3-9.68,7.46-15,10.28-2.84,1.51-.32,5.83,2.52,4.32Z"/></g></g></svg>