<svg xmlns="http://www.w3.org/2000/svg" viewBox="0 0 265 177.19"><defs><style>.cls-1{fill:#f39;}.cls-2{fill:#fcfdff;}</style></defs><title>Asset 6</title><g id="Layer_2" data-name="Layer 2"><g id="Layer_1-2" data-name="Layer 1"><path class="cls-1" d="M117.71,1.07C67.79.87,58.75-3,39.09,5.36,31.21,8.71,4.71,20,.49,41.1-2,53.55,5.78,56.85,6.21,79.69c.31,16.62-3.74,18.51-2.86,35.74.58,11.45,1.18,23.21,8.58,32.88,6.32,8.27,15.32,12,30,15.72,33,8.33,45.3,4.06,85.77,8.58,24.12,2.69,31.29,5.5,50,4.29,11.83-.77,24.27-1.69,38.6-8.58a86.54,86.54,0,0,0,34.31-30c13.45-20.37,14.13-40.43,14.3-48.6.18-8.92.72-34.94-17.15-57.18C233.27,14.44,214.3,8.47,199.19,3.93,176.6-2.85,169.59,1.27,117.71,1.07Z"/><path class="cls-2" d="M48.52,39l4.66,36.81c.59,4.64,8,4.7,7.37,0L55.89,39c-.59-4.64-8-4.7-7.37,0Z"/><path class="cls-2" d="M51.53,40.35,70,40.9c4.74.14,4.74-7.23,0-7.37L51.53,33c-4.74-.14-4.74,7.23,0,7.37Z"/><path class="cls-2" d="M55.42,61.56l11-2.28c4.64-1,2.68-8.06-2-7.11l-11,2.28c-4.64,1-2.68,8.06,2,7.11Z"/><path class="cls-2" d="M77.77,49.33c.3,7.46-.24,15.54,1.16,22.89.88,4.61,3.94,9.29,9.23,8.72,5.54-.6,7.89-6.33,9.18-11a81.7,81.7,0,0,0,2.72-22.84c-.07-4.74-7.44-4.75-7.37,0a76.68,76.68,0,0,1-.9,13.69C91.44,63,90.7,71,88.58,72.45c-3.43,2.28-2.83-7.94-2.89-9.51l-.55-13.61c-.19-4.73-7.56-4.75-7.37,0Z"/><path class="cls-2" d="M119.85,42.23c-7.28-1.61-14.42,3.51-13.33,11.38a11,11,0,0,0,4.87,7.51c1.71,1.23,4.29,2,5.08,4.07,1.41,3.66-3,4.43-5,1.88-2.94-3.72-8.12,1.53-5.21,5.21,4.77,6,14.9,5,17.45-2.64A10.29,10.29,0,0,0,122.09,60a18.52,18.52,0,0,0-4.76-3.81,11.73,11.73,0,0,1-2.47-1.65,3.09,3.09,0,0,1,3-5.18c4.62,1,6.59-6.08,2-7.11Z"/><path class="cls-2" d="M145.84,48.49a7.47,7.47,0,0,0-8.92-8.83c-6.32,1.22-8.48,9.25-9.38,14.62-1,6.24.49,13.54,6.8,16.42a9.61,9.61,0,0,0,13.05-5.8c1.6-4.47-5.52-6.4-7.11-2-1,2.81-3.92.49-4.85-.86-1.23-1.79-1-4.32-.67-6.33A29.44,29.44,0,0,1,136,50.94a14.62,14.62,0,0,1,.78-2.09,5,5,0,0,1,2-2.32c-1,4.62,6.08,6.6,7.11,2Z"/><path class="cls-2" d="M153.22,20.58l-3.13,54.52c-.27,4.74,7.1,4.72,7.37,0l3.13-54.52c.27-4.74-7.1-4.72-7.37,0Z"/><path class="cls-2" d="M160.35,48.15s1.49.55,1.55.61c.68.65.81,2.42.92,3.29a62.19,62.19,0,0,1,.1,7.37l0,15.7c0,4.74,7.38,4.75,7.37,0l-.05-17.55c0-4.17.25-8.82-2-12.53-3.56-5.84-12.89-5.77-15,1.15-1.4,4.54,5.71,6.49,7.11,2Z"/><path class="cls-2" d="M177.47,46.37l-.84,26.53c-.15,4.74,7.22,4.74,7.37,0l.84-26.53c.15-4.74-7.22-4.74-7.37,0Z"/><path class="cls-2" d="M178.61,35.72l.74.74a3.68,3.68,0,0,0,5.21-5.21l-.74-.74a3.68,3.68,0,1,0-5.21,5.21Z"/><path class="cls-2" d="M197.65,41.12c1.68-3.76,6.67-5.93,9.4-1.63,2.21,3.48-.07,8.21-1.75,11.33-2.86,5.3-6.41,10.17-6.52,16.44-.08,4.78,2,9.42,6.47,11.54,4.09,2,9.18,1.37,12.1-2.26s-2.24-8.91-5.21-5.21-6-1.07-6-4.07c0-3.67,2.12-6.91,3.91-10C213.12,52,216.17,46.35,215,40,212.66,28,196.24,26.32,191.29,37.4c-1.92,4.29,4.43,8,6.36,3.72Z"/><path class="cls-2" d="M203.94,53.06c-10.36-4.56-22,5.31-16.74,16.2,5,10.49,20.55,8.2,23-2.92,1-4.62-6.07-6.59-7.11-2-1,4.39-6.75,6.35-9.19,1.91a4.93,4.93,0,0,1,6.27-6.87c4.3,1.89,8.05-4.45,3.72-6.36Z"/><path class="cls-2" d="M59.43,85.84,45.55,137.45c-1.23,4.58,5.87,6.54,7.11,2L66.54,87.8c1.23-4.58-5.87-6.54-7.11-2Z"/><path class="cls-2" d="M61.76,89.21l14.11,50.08c1.28,4.56,8.4,2.62,7.11-2L68.87,87.25c-1.28-4.56-8.4-2.62-7.11,2Z"/><path class="cls-2" d="M53,125.6l21.35-1.7c4.7-.37,4.74-7.75,0-7.37L53,118.23c-4.7.37-4.74,7.75,0,7.37Z"/><path class="cls-2" d="M83.89,94.2l4.48,41.58c.5,4.65,7.83,4.74,7.37,0-.39-4-1.78-11.93,1.55-15.06,2.82-2.65,5.22,0,5.65,3.11.4,2.93-.76,6-1.65,8.74-1.46,4.52,5.65,6.46,7.11,2,1.63-5,3.25-11,.71-16-1.87-3.71-5.64-6.64-9.91-6.63-11.56.05-11.6,16-10.83,23.91h7.37L91.26,94.2c-.5-4.67-7.88-4.72-7.37,0Z"/><path class="cls-2" d="M113.84,89.84l1,46.21h7.37a15.57,15.57,0,0,1,5-12.5l-6.16-1.63,5,14.6c1.52,4.46,8.64,2.55,7.11-2l-5-14.6a3.73,3.73,0,0,0-6.16-1.63,22.81,22.81,0,0,0-7.15,17.71c.19,4.72,7.48,4.76,7.37,0l-1-46.21c-.11-4.73-7.48-4.75-7.37,0Z"/><path class="cls-2" d="M132.94,93.5l4,35.13c.53,4.61,7.23,4.86,7.37,0,.08-2.86-.16-8.72,3.31-9.81,5.08-1.59,2.84,6.31,2.09,8.69-1.44,4.53,5.68,6.47,7.11,2,2.15-6.79,2.32-18-7.47-18.47s-12.18,10.06-12.4,17.62h7.37l-4-35.13c-.53-4.66-7.91-4.71-7.37,0Z"/><path class="cls-2" d="M163,89.35a131,131,0,0,1,.78,39.92l7.24-1a7.58,7.58,0,0,1,2.34-7.24c3.1-2.73,7.74.37,4.26,3.63s1.75,8.45,5.21,5.21c6.6-6.18,3.09-17.67-6.49-17.67-9.15,0-14,10.12-12.42,18,.88,4.46,6.75,2.76,7.24-1a137.13,137.13,0,0,0-1-41.88c-.82-4.66-7.93-2.69-7.11,2Z"/><path class="cls-2" d="M191.54,128.91h.74a3.68,3.68,0,0,0,0-7.37h-.74a3.68,3.68,0,0,0,0,7.37Z"/><path class="cls-2" d="M208.48,123v-.74a3.68,3.68,0,0,0-7.37,0V123a3.68,3.68,0,1,0,7.37,0Z"/><path class="cls-2" d="M220.28,120.8h-.74a3.68,3.68,0,1,0,0,7.37h.74a3.68,3.68,0,1,0,0-7.37Z"/></g></g></svg>