<svg xmlns="http://www.w3.org/2000/svg" viewBox="0 0 247.68 473.78"><defs><style>.cls-1{fill:#030202;}.cls-2{fill:#231f20;}.cls-3{fill:#fff;}</style></defs><title>Asset 38</title><g id="Layer_2" data-name="Layer 2"><g id="Layer_1-2" data-name="Layer 1"><path class="cls-1" d="M114.2,300c-3.54,6.67-3.34,31.53.25,39,9.84-6.24,13.92-21.59,24-27.25,8.74-4.92,23.85-4.86,33.68-7C192.85,300.16,216,293.2,227,273.6c7.13-12.68,9.78-27,13.44-40.86,4.89-18.56,8.33-37.83,6.85-57-2.88-37.27-5.24-76.38-19.64-111.44-11.36-27.65-34.38-52-63.93-59.64C137.64-2.13,109.12.16,82.35,1.36,68.83,2,52.67,3.61,41.3,11.62,25.5,22.75,12.59,37.9,8.23,57c-4,17.5-4.16,36.08-5,53.93-.93,19.93-3,39.88-3.21,59.86-.46,35.8,3.92,79.44,26.06,109,16.26,21.68,49.06,18.6,73.08,19.59,4.3.18,11.53-.26,15,1.3"/><path class="cls-2" d="M55.85,30c3,1.63-2,42.53-2,49.83V78"/><path class="cls-3" d="M54.08,31.8c-.3-.23.14,1.57.19,2.4.1,1.8,0,3.6,0,5.4-.14,5-.52,9.92-.91,14.87-.67,8.43-1.92,16.94-2,25.39h5V78c0-3.22-5-3.22-5,0v1.83c0,3.22,5,3.22,5,0,.1-9.55,1.55-19.16,2.26-28.68.38-5.07.77-10.16.71-15.25,0-2.16.27-6.13-1.7-7.67-2.51-2-6.07,1.56-3.54,3.54Z"/><path class="cls-2" d="M55.18,30c6.48,0,13.38-1.41,19.33.67"/><path class="cls-3" d="M55.18,32.53c6.24-.1,12.59-1.28,18.67.58,3.08.94,4.4-3.88,1.33-4.82-6.56-2-13.28-.86-20-.76-3.21,0-3.22,5,0,5Z"/><path class="cls-2" d="M56.52,52c4.86-.84,11.8-4.26,16-2.67"/><path class="cls-3" d="M57.18,54.44c4.53-.89,10-4.1,14.67-2.67,3.08,1,4.4-3.87,1.33-4.82-5.77-1.78-11.75,1.57-17.33,2.67-3.15.62-1.82,5.44,1.33,4.82Z"/><path class="cls-2" d="M87.18,30.7c0,14.49-.35,28.73-.72,43.18A10.4,10.4,0,0,1,87.18,72"/><path class="cls-3" d="M84.68,30.7c0,14.4-.36,28.79-.72,43.18-.07,2.91,4,3.27,4.91.66l.46-1.25c1.29-2.91-3-5.46-4.32-2.52-.37.83-.68,1.59-1,2.44l4.91.66c.36-14.39.7-28.78.72-43.18,0-3.22-5-3.22-5,0Z"/><path class="cls-2" d="M73.18,76.7c5.55-1.09,13.26,0,19.33,0"/><path class="cls-3" d="M73.85,79.11c6.13-1,12.5,0,18.67.09,3.22,0,3.22-5,0-5-6.68-.07-13.36-1-20,.09-3.17.54-1.82,5.35,1.33,4.82Z"/><path class="cls-2" d="M81.85,30.7h9.33"/><path class="cls-3" d="M81.85,33.2h9.33c3.22,0,3.22-5,0-5H81.85c-3.22,0-3.22,5,0,5Z"/><path class="cls-2" d="M99.85,67.37c0-6.62-1.74-32.53,4-34.66,11.61-4.31,14.56,23-4,17.33"/><path class="cls-3" d="M102.35,67.37c0-5.39-.3-10.77-.21-16.16.06-3.45-.77-14.22,2.81-16.23,3.84-2.15,5.81,4.39,5.72,6.9-.22,6-5.11,7.14-10.15,5.74-3.11-.86-4.43,4-1.33,4.82,6.73,1.87,14,.23,16-7.26,1.42-5.33-.47-12.75-6.07-14.89C93,24.15,97.35,60,97.35,67.37c0,3.22,5,3.22,5,0Z"/><path class="cls-2" d="M105.18,51.37c14.42,4.46,2.54,35.39,25.33,26"/><path class="cls-3" d="M104.52,53.78c7.28,2.56,6.59,13.9,8.78,19.93,3,8.37,10.26,9.06,17.88,6.07,3-1.16,1.67-6-1.33-4.82-3.32,1.3-7.91,3.1-10.56-.26-2-2.53-2.34-6.55-3-9.6C114.88,58.39,113,51.46,105.85,49c-3-1.07-4.35,3.76-1.33,4.82Z"/><path class="cls-2" d="M132.52,36.7c1.26-7.07-3-8-6.41-2.62-3.2,5.05-3.5,12.81,1.42,16,2.05,1.32,3.37-1.87,5.53.59s.56,7.61-.53,9.91c-1.87,4-10.29,10.11-11.33,2.8"/><path class="cls-3" d="M135,36.7c.52-4-.92-10.15-6.38-8.2-4.79,1.71-7.21,8.39-7.37,13-.14,4.17,2,11.19,7.22,11.4,1.9.08,2.1-1.44,3.06.85.55,1.31-.58,4.34-1.2,5.56-.8,1.58-5.88,7.35-6.76,3.4-.7-3.14-5.52-1.81-4.82,1.33,2.64,11.82,15.53.87,17.23-5.88,1-3.83.79-11.07-4.89-11-.6,0-1.9.8-2.39.65-2.18-.68-2.53-4.58-2.45-6.35.12-2.71,4.63-11.67,3.75-4.79-.41,3.18,4.59,3.15,5,0Z"/><path class="cls-2" d="M124.52,23.37c5,0,10,.23,15,0s14.25-2.88,18.33-.67"/><path class="cls-3" d="M124.52,25.87c5.83,0,11.75.45,17.55-.25,4.33-.52,10.31-2.58,14.53-.76,2.92,1.26,5.47-3,2.52-4.32-4.34-1.87-9-1.12-13.5-.45-7,1-14,.81-21.1.78-3.22,0-3.22,5,0,5Z"/><path class="cls-2" d="M143.18,25.37c2.38,6.4.38,15.87,0,22.62-.5,9-.67,20.56-.67,28"/><path class="cls-3" d="M140.77,26c2.52,7.95.13,16.89-.24,25-.38,8.32-.5,16.65-.51,25,0,3.22,5,3.22,5,0,0-8.84.12-17.7.59-26.53.43-8.21,2.54-16.76,0-24.8-1-3.06-5.8-1.75-4.82,1.33Z"/><path class="cls-2" d="M161.18,67.37c-.87,4.67-3.76,8.59-4.67,13.33"/><path class="cls-3" d="M158.77,66.7c-1,4.64-3.65,8.69-4.67,13.33-.69,3.14,4.13,4.48,4.82,1.33,1-4.64,3.67-8.69,4.67-13.33.67-3.14-4.15-4.48-4.82-1.33Z"/><path class="cls-2" d="M36.52,93.37c-.65,6.49,2.88,20,7.37,24.5a95.31,95.31,0,0,0,4-15c2.49,4.58,4.19,10.27,8.53,13.51,2.24-6.28,3.46-16.78,3.47-21.7"/><path class="cls-3" d="M34,93.37c-.58,8.59,2.23,19.78,8.1,26.26,1.36,1.5,3.57.55,4.18-1.1a105.62,105.62,0,0,0,4-15l-4.57.6c2.6,5,4.49,10.29,8.92,14a2.54,2.54,0,0,0,4.18-1.1A75.21,75.21,0,0,0,62.35,94.7c0-3.22-5-3.22-5,0a70.32,70.32,0,0,1-3.38,21l4.18-1.1c-4.07-3.42-5.76-8.41-8.14-13a2.53,2.53,0,0,0-4.57.6,105.6,105.6,0,0,1-4,15l4.18-1.1c-5-5.47-7.12-15.53-6.64-22.73.22-3.21-4.78-3.2-5,0Z"/><path class="cls-2" d="M67.85,110c3.32.36,11-2.44,12.71-5.48,4-6.95-5.17-8.33-9.43-3.91-7.52,7.77-1.35,27.63,10.05,18.06"/><path class="cls-3" d="M67.85,112.53c6.12.32,16.92-4,16.15-11.6-.81-8-11.74-5.57-15.3-1.3-4.16,5-4.37,13-1.39,18.66,3.53,6.64,10.25,6.45,15.64,2.18,2.52-2-1-5.52-3.54-3.54-7.74,6.14-10.49-6.43-8.18-11.92a7,7,0,0,1,3.7-4c1.11-.44,3.66-1,4.1.5,1.13,3.84-8.89,6.11-11.19,6-3.22-.17-3.21,4.83,0,5Z"/><path class="cls-2" d="M101.85,100c-2.11,7.82-2.41,19.68-2,27.9.87-6.34,1.82-22.57,9.42-24.51,3.46,5.81,4.85,18.2,3.93,23.28"/><path class="cls-3" d="M99.44,99.37c-2.33,9.26-2.51,19.07-2.1,28.56.14,3.31,4.59,3.11,5,0,.76-5.79.72-19.81,7.58-22.1l-2.82-1.15A36.76,36.76,0,0,1,110.77,126c-.46,3.15,4.35,4.51,4.82,1.33,1.2-8.14-.22-18-4.18-25.2a2.53,2.53,0,0,0-2.82-1.15c-10.07,3.36-10.12,18.28-11.25,26.92h5c-.39-9-.29-18.41,1.93-27.23.79-3.12-4-4.45-4.82-1.33Z"/><path class="cls-2" d="M125.18,116c3,0,13.57-4.12,14.56-6.63,2.16-5.47-7.41-6.3-10.89-3.75-9.43,6.9-2.36,28.37,9.67,17"/><path class="cls-3" d="M125.18,118.53c4.95-.2,12.07-2.94,15.63-6.44,4.62-4.55-.37-9.72-5.34-10.24-12.19-1.27-17.17,14.09-10.55,22.82,4.26,5.62,10.74,4,15.37-.21,2.4-2.16-1.15-5.68-3.54-3.54-3.21,2.89-6.87,3.53-8.83-.92-1.51-3.44-1.32-8.14,1.12-11.11a6.07,6.07,0,0,1,5.12-2.13c1.23,0,3.85.18,3.13,1.79s-4.84,2.76-6.2,3.3a19.3,19.3,0,0,1-5.9,1.68c-3.21.13-3.22,5.13,0,5Z"/><path class="cls-2" d="M148.52,116c3.18-1.47,12-6.77,11.92-10.69-.07-7-7.91-4.61-10.64-1-7.72,10.13,4.07,30.38,12,16.39"/><path class="cls-3" d="M149.78,118.19c4.53-2.17,11.39-6,12.91-11.18,1.64-5.63-3.41-9.74-8.65-8.31-11.45,3.12-11.72,20.07-3.83,27,5.12,4.49,10.72,1.37,13.8-3.73,1.66-2.76-2.66-5.28-4.32-2.52-2.2,3.66-5,4.72-7.59.86a13.74,13.74,0,0,1-1.4-12.61,7.18,7.18,0,0,1,4.1-4c1.59-.58,3.58-.53,3.1,1.81-.4,2-3.3,3.84-4.8,4.91a40.05,40.05,0,0,1-5.85,3.45c-2.9,1.39-.37,5.7,2.52,4.32Z"/><path class="cls-2" d="M180.52,100c-10.08-10.59-16.15,31.59-4.7,13.87,5.67-8.78,6.55-22.87,8.72-32.9,1.69-7.84,3.78-16.21,3.2-24.26-6.1,6.84-3.68,27.15-4.41,36.46-.62,7.94-3,23.76,1.85,29.5"/><path class="cls-3" d="M182.28,98.26c-5.18-5.07-10.31-1-12.68,4.47-1.78,4.07-4.51,12.65-1.18,16.62,5.69,6.78,12.4-9.64,13.37-12.57,2.41-7.26,3.2-14.92,4.61-22.41,1.74-9.21,4.27-18.17,3.83-27.63-.09-1.95-2.81-3.58-4.27-1.77-7.22,9-4.86,23.58-5,34.27s-4.83,25.45,2,34.72c1.9,2.56,6.24.07,4.32-2.52-3.26-4.4-2.77-10.88-2.52-16.07.25-5,1-10,1.14-15.05.14-5.42-.14-10.85.06-16.27.18-4.92.22-11.48,3.49-15.54l-4.27-1.77c.55,11.78-3.17,23.59-5.16,35.14a85.29,85.29,0,0,1-3.59,15,28,28,0,0,1-3.34,6.55c-.34.47-2,1.87-2,2.38,0,0,1.44.31,1.26.56,0,0-.2-.48-.16-.55a10.1,10.1,0,0,0-.1-2.22,24.17,24.17,0,0,1,1.08-6.14c.65-2.2,2.55-8.56,5.55-5.63,2.3,2.25,5.84-1.28,3.54-3.54Z"/><path class="cls-2" d="M54.52,132.7c-1.42,5.28-4.32,10.48-5.18,16-.75,4.81,2,16.1,7.85,8"/><path class="cls-3" d="M52.11,132c-2.38,8.06-7.32,15.95-4.43,24.54,2.05,6.11,7.32,6.84,11.28,1.89,2-2.49-1.52-6-3.54-3.54-1.48,1.85-2,2.69-2.92.31a12.76,12.76,0,0,1-.76-5.38c.35-5.67,3.6-11.11,5.2-16.51.91-3.09-3.91-4.41-4.82-1.33Z"/><path class="cls-2" d="M44.52,145.37h10"/><path class="cls-3" d="M44.52,147.87h10c3.22,0,3.22-5,0-5h-10c-3.22,0-3.22,5,0,5Z"/><path class="cls-2" d="M65.18,146.7c-4.28,2.65-3.85,13.37,2.48,11.43,7.64-2.34,2.79-16.79-3.81-10.76"/><path class="cls-3" d="M63.92,144.54c-3.7,2.52-5,7.84-3.45,12,1.75,4.79,7.47,5.59,11.06,2.2,3.11-2.93,3.19-8.14,1.13-11.68-2.45-4.23-7.06-4.46-10.58-1.43-2.44,2.1,1.11,5.62,3.54,3.54,1.39-1.19,2.27-.73,3,.89.63,1.45.79,3.62-.33,4.88s-2.72,1.26-3.21-.46-.18-4.52,1.4-5.59c2.64-1.8.14-6.14-2.52-4.32Z"/><path class="cls-2" d="M97.85,143.37c0-2.25-1.19-6.74-3.64-7.7-4.72-1.85-4.69,4.62-5,8.45-.93,10.57-1.56,29.76,2,37.91"/><path class="cls-3" d="M100.35,143.37c-.29-4.39-2.42-11-8-10.5-5,.42-5.28,6.53-5.59,10.33-1,12.46-2.77,27.6,2,39.51,1.18,2.95,6,1.66,4.82-1.33-3-7.57-2.76-16.52-2.59-24.54.08-3.88.29-7.76.59-11.63.1-1.31-.14-4.28.52-5.39,1.71-2.87,3.11,1.59,3.24,3.55.21,3.19,5.21,3.22,5,0Z"/><path class="cls-2" d="M82.52,156.7c4.51.25,9.36-2.36,13.33-1.33"/><path class="cls-3" d="M82.52,159.2c4.17.07,8.58-2.24,12.67-1.42,3.14.63,4.49-4.19,1.33-4.82-4.81-1-9.23,1.33-14,1.24-3.22-.06-3.22,4.94,0,5Z"/><path class="cls-2" d="M108.52,151.37c-.88,4.15-1.59,12.91,0,15.33"/><path class="cls-3" d="M106.11,150.7c-1,5.09-2.38,12.47.25,17.26,1.55,2.82,5.87.3,4.32-2.52-.93-1.7-.64-4.31-.57-6.17a45.54,45.54,0,0,1,.82-7.24c.63-3.14-4.19-4.49-4.82-1.33Z"/><path class="cls-2" d="M109.85,141.37q-.75-.08-.67.67"/><path class="cls-3" d="M109.85,138.87a3,3,0,0,0-3.17,3.17,2.5,2.5,0,0,0,5,0v-.13a1.19,1.19,0,0,1-.79,1.17,1,1,0,0,1-.95.75q-.4,0-.1,0a2.52,2.52,0,0,0,2.5-2.5,2.56,2.56,0,0,0-2.5-2.5Z"/><path class="cls-2" d="M128.52,144c-4.86-2.48-12.77,5.39-9.19,10,4.42,5.73,9.68-6.31,9.19-10.53-.79,14,10.12,42.88-10.85,44.53-5.81.46-14.42-1.45-11.21-8.58,3.55-7.88,19.55-13,26.72-16.78"/><path class="cls-3" d="M129.18,141.62c-7.68-2.88-18.12,8.59-11,14.94s13-7.58,12.79-13a2.5,2.5,0,0,0-5,0c-.27,6.72,1.15,13.41,1.77,20.08.55,5.93,1.57,14.67-3.24,19.24-2.63,2.49-6.66,3-10.13,2.72-1.66-.15-5.12-.55-5.93-2.34-1-2.15,1.49-4.8,2.86-6.08,6.38-5.94,15.5-8.36,23.1-12.29,2.86-1.48.33-5.8-2.52-4.32-8.86,4.59-23,7.8-27.62,17.68-4.9,10.46,8.71,13.51,16.23,12,20.5-4.2,9.92-32.95,10.48-46.65h-5c.1,2.23-1,7.49-3.18,8.74s-1.92-1.92-1-3.38c1.29-1.94,3.72-3.3,6-2.46,3,1.13,4.32-3.7,1.33-4.82Z"/><path class="cls-2" d="M140.52,142.7c-1.73,4.25-.46,10.88,3.3,13.8,5.09-2.15,7.11-10,6.7-15.13"/><path class="cls-3" d="M138.11,142c-2,5.44-.51,12.41,3.94,16.23a2.62,2.62,0,0,0,3,.39c6.13-2.95,8.31-11,7.94-17.29-.19-3.2-5.19-3.22-5,0,.27,4.61-.89,10.77-5.46,13l3,.39a10.43,10.43,0,0,1-2.66-11.36c1.09-3-3.74-4.34-4.82-1.33Z"/><path class="cls-2" d="M157.85,142.7c-.64,5.63.4,12.93,1.33,18.51.67-6.11,1.6-20.44,8.67-22.51"/><path class="cls-3" d="M155.35,142.7c-.58,6.42.38,12.85,1.42,19.18.49,3,4.64,1.9,4.91-.66.58-5.4.59-17.8,6.83-20.1,3-1.1,1.7-5.94-1.33-4.82-9.32,3.43-9.62,16.64-10.5,24.92l4.91-.66c-1-5.9-1.78-11.86-1.24-17.85.29-3.2-4.71-3.18-5,0Z"/><path class="cls-2" d="M175.85,146.7c2.9-.82,11.37-3.9,11.91-7.37.91-5.79-5.9-3.94-8.62-1.33-8.75,8.39-3.26,26.47,10,17.37"/><path class="cls-3" d="M176.51,149.11c5.16-1.52,15.93-5.2,13.59-12.56-2.18-6.87-11.28-2.4-14.17,1.32-3.7,4.76-4.85,12-1.81,17.42,3.62,6.42,10.82,5.81,16.32,2.23,2.69-1.75.18-6.08-2.52-4.32-2.88,1.87-6.83,3.54-9.18.06-1.9-2.81-1.64-6.93-.33-9.92a9.57,9.57,0,0,1,3.46-4.28c.88-.56,3.18-1.76,3.47-.54.62,2.57-8.41,5.25-10.16,5.77-3.08.91-1.77,5.73,1.33,4.82Z"/><path class="cls-2" d="M39.85,190c-3.15,4.8-.42,12.81,5.62,7.29,7.09-6.49-5.17-16.11-6.28-8"/><path class="cls-3" d="M37.69,188.77c-1.82,2.92-2.38,7.09-.57,10.15,2.17,3.68,6.42,3.15,9.37.79a8.74,8.74,0,0,0,3.3-9.38,9.63,9.63,0,0,0-5.86-6.25c-3.51-1.18-6.6,1.1-7.16,4.63a2.58,2.58,0,0,0,1.75,3.08A2.52,2.52,0,0,0,41.59,190a4.19,4.19,0,0,1,.34-1.26c.08-.14.16-.22-.11,0,.35-.29-.34,0,.1,0s-.34-.12.15,0a4.65,4.65,0,0,1,.63.2c-.46-.19.15.1.24.16a4.71,4.71,0,0,1,2.21,4,4.44,4.44,0,0,1-1.65,2.61,5.5,5.5,0,0,1-1.59.94c-.29.11-.32-.12-.19.07a2.71,2.71,0,0,1-.46-.66A4.62,4.62,0,0,1,41,194.8a6,6,0,0,1,1-3.5c1.71-2.74-2.62-5.25-4.32-2.52Z"/><path class="cls-2" d="M55.18,186.7c-.73,3.22-3.47,12.83,2,13.95s7.4-9.66,7.33-13.28"/><path class="cls-3" d="M52.77,186c-1.23,5.3-3.78,16.82,4.9,17.18,7.22.3,9.36-10.42,9.34-15.85,0-3.22-5-3.22-5,0a21.42,21.42,0,0,1-.94,6.07c-.38,1.29-1.25,4.52-2.94,4.79-3.57.57-.91-9.29-.55-10.86.73-3.13-4.09-4.47-4.82-1.33Z"/><path class="cls-2" d="M74.52,172a134.59,134.59,0,0,0-2,19.37c-.2,5.64,3.38,16.89,8.67,8"/><path class="cls-3" d="M72.11,171.37c-1.55,8.8-4,19.77-.59,28.4,2.62,6.66,8.09,6.53,11.83.86,1.78-2.69-2.55-5.2-4.32-2.52-1.92,2.92-2.35,1.57-3.22-1.16A18.6,18.6,0,0,1,75,191.4a104.91,104.91,0,0,1,1.91-18.7c.55-3.15-4.26-4.5-4.82-1.33Z"/><path class="cls-2" d="M63.85,180c4.66-.49,9.28.64,14,.67"/><path class="cls-3" d="M63.85,182.53c4.69-.38,9.32.56,14,.67,3.22.07,3.22-4.93,0-5-4.68-.11-9.31-1-14-.67-3.19.26-3.21,5.26,0,5Z"/><path class="cls-2" d="M134.52,184.7c.29,4.31.78,10.38,3.53,13.85a51.15,51.15,0,0,1,3.3-10.33,34.6,34.6,0,0,0,5.7,9.78c.8-5.65,2.6-11.51,2.13-17.3"/><path class="cls-3" d="M132,184.7c.35,5.16.77,10.78,3.88,15.11,1.16,1.61,4.06,1.68,4.57-.6a53.37,53.37,0,0,1,3-9.73l-4.57-.6a41.85,41.85,0,0,0,6.35,10.88,2.51,2.51,0,0,0,4.18-1.1c.92-6,2.53-11.86,2.22-18-.16-3.2-5.16-3.22-5,0,.29,5.66-1.19,11.08-2,16.63l4.18-1.1a33.84,33.84,0,0,1-5.06-8.67c-.69-1.72-3.61-2.8-4.57-.6a59.87,59.87,0,0,0-3.55,10.93l4.57-.6c-2.6-3.63-2.9-8.27-3.19-12.59-.22-3.19-5.22-3.22-5,0Z"/><path class="cls-2" d="M155.85,172c-.61,8,2.21,19.77,3.33,26"/><path class="cls-3" d="M153.35,172c-.47,9,1.8,17.89,3.42,26.66.59,3.16,5.41,1.82,4.82-1.33C160,189,157.9,180.6,158.35,172c.17-3.22-4.83-3.21-5,0Z"/><path class="cls-2" d="M156.52,185.37c8.77-7.28,10.09,8.77,12,12.67"/><path class="cls-3" d="M158.28,187.13c2.93-2.33,4.11.05,5.15,2.89,1.11,3,1.57,6.32,2.93,9.27s5.66.38,4.32-2.52c-1.52-3.29-1.93-8.26-4.11-11.82-3-4.84-7.66-4.66-11.82-1.35-2.52,2,1,5.52,3.54,3.54Z"/><path class="cls-2" d="M168.52,173.37c7.24-6.74,9.74,6.93,10,11.68.13,2.45-1.12,9.3,1.3,11,3.16,2.28,6.55-1.39,7.36-4.73"/><path class="cls-3" d="M170.28,175.13c5.92-5,5.39,15,5.6,17.34.31,3.42,1.87,6.56,5.71,6.79,4.17.24,6.86-3.72,8-7.23,1-3.07-3.83-4.38-4.82-1.33-.34,1-1.8,4.82-3.75,2.61-.42-.48-.21-3-.2-3.6,0-1.65.25-3.3.17-5a30.84,30.84,0,0,0-1.79-9c-2.24-6.09-7.09-8.73-12.46-4.19-2.46,2.08,1.09,5.6,3.54,3.54Z"/><path class="cls-2" d="M177.18,181.37c-9.92-7.69-6.89,12.92-.67,5.33"/><path class="cls-3" d="M178.45,179.21c-1.79-1.37-4.08-2.51-6.38-1.93a5.18,5.18,0,0,0-3.56,4c-.73,3.13.19,7.65,3.33,9.19,2.39,1.17,4.87-.06,6.45-2a2.57,2.57,0,0,0,0-3.54,2.52,2.52,0,0,0-3.54,0c-.25.3-.54.55-.79.83s.4-.22.07,0a2.83,2.83,0,0,0-.42.25c-.31.24.59-.21.14-.07-.21.07-.67.11.23,0a1.67,1.67,0,0,1-.28,0c-.36,0,.72.16.22,0,1.1.33-.11,0,0-.07-.11.18.65.27.22.15a2.45,2.45,0,0,1-.27-.29s.39.6.12.13l-.19-.33c-.05-.1-.09-.21-.15-.3s.2.59,0,.07c-.08-.27-.17-.53-.24-.8,0-.12-.05-.24-.08-.35-.12-.54-.15-.1,0,.06a4.31,4.31,0,0,1,0-1.66c-.05,0-.15.69,0,.16l.09-.37c0-.1.08-.2.1-.3.08-.35-.09.34-.13.31s.09-.16.09-.18.16-.19.18-.29-.44.5-.12.18-.1.05-.22.15a1.44,1.44,0,0,1,.32-.19c-.32.14-.54.18-.14.1s-.71,0-.14,0-.42-.17-.07,0a4.41,4.41,0,0,0,.52.13c.57.15-.18-.13.12,0l.54.28a12.78,12.78,0,0,1,1.46,1,2.51,2.51,0,0,0,3.42-.9,2.56,2.56,0,0,0-.9-3.42Z"/><path class="cls-2" d="M184.52,176.7c5.4,0,10.69-.75,16-.67"/><path class="cls-3" d="M184.52,179.2c5.34-.05,10.66-.69,16-.67,3.22,0,3.22-5,0-5-5.34,0-10.66.61-16,.67-3.22,0-3.22,5,0,5Z"/><path class="cls-2" d="M194.52,161.37c-2,6.08-2.19,12.79-2,19.3.2,6.83,4.8,22.14,12,10"/><path class="cls-3" d="M192.11,160.7c-2.79,9.45-3.76,21.56.34,30.83,3.51,7.94,9.85,7.27,14.23.43,1.74-2.72-2.59-5.23-4.32-2.52-1.92,3-3.15,4.3-5,.9a22.13,22.13,0,0,1-2-6.71,50.12,50.12,0,0,1,1.6-21.6c.91-3.09-3.91-4.41-4.82-1.33Z"/><path class="cls-2" d="M57.85,216.7c5.92,8.31,10,19.32,17.37,26.51,2.71-5.28,3.84-11.43,6.65-16.7a61.3,61.3,0,0,0,4.8,11c3.32,6.39,3.74,9.43,9.18,5.37,8.71-6.5,13.94-19.16,22-26.81"/><path class="cls-3" d="M55.69,218c6.14,8.89,10.14,19.18,17.76,27a2.52,2.52,0,0,0,3.93-.51c2.61-5.42,4-11.32,6.65-16.7l-4.57-.6c1.8,5.71,4.53,12.35,8,17.23,2.23,3.1,5.25,3.32,8.44,1.4,10.54-6.34,15.16-19.59,23.68-28,2.29-2.27-1.24-5.8-3.54-3.54-6.48,6.41-10.6,14.62-16.49,21.5a34.81,34.81,0,0,1-4.44,4.47c-2.3,1.86-2.48,2.39-4.13.32-3-3.79-5.33-10.21-6.75-14.71-.6-1.92-3.56-2.62-4.57-.6-2.69,5.39-4,11.28-6.65,16.7l3.93-.51c-7.29-7.51-11.09-17.49-17-26-1.82-2.63-6.15-.13-4.32,2.52Z"/><path class="cls-2" d="M177.85,211.37c-7,.64-14.21,1.52-21.32,1.85-6.56.3-15.09-1.39-21.27,1.06-.7,6.45,0,19.27,2,25.54,6.17-2.17,14.34-1.73,20.88-1.79,4.44,0,21.74-2.54,21.67-2.67"/><path class="cls-3" d="M177.85,208.87c-8,.75-16.16,2-24.24,1.88-6.4-.1-12.82-1-19,1.13a2.62,2.62,0,0,0-1.84,2.41,71.92,71.92,0,0,0,2.12,26.2,2.53,2.53,0,0,0,3.08,1.75c8.63-2.7,17.87-1.24,26.76-2.25,4.87-.55,11.17-.46,15.79-2.2,3-1.13,1.69-6-1.33-4.82-4.83,1.82-11.38,1.72-16.47,2.24-8.72.88-17.57-.45-26.08,2.21l3.08,1.75c-2.3-7.84-2.7-16.76-1.94-24.87l-1.84,2.41c6.22-2.13,12.74-.89,19.17-.94,7.59-.06,15.2-1.18,22.75-1.89,3.18-.3,3.21-5.3,0-5Z"/><path class="cls-2" d="M135.85,226.7c7.07.63,14.85-1,22-1.31,7.84-.37,20.22-.84,26-3.36"/><path class="cls-3" d="M135.85,229.2c9.11.58,18.38-1.08,27.48-1.57,7-.38,14.6-.58,21.18-3.18,3-1.17,1.67-6-1.33-4.82-6.63,2.63-14.25,2.72-21.29,3.08-8.66.44-17.38,2-26,1.5-3.21-.2-3.2,4.8,0,5Z"/><path class="cls-2" d="M44.52,256c-8.63-12.3-23.36,7.06-14,10.88,12.76,5.18,15-25.85,14.48-32.74-1.75,7.53-2.75,36.43,4.15,39.86"/><path class="cls-3" d="M46.68,254.77c-5.28-6.88-13.67-6.61-18.88.35-4,5.39-3.7,13.66,4.24,14.75,14.58,2,16-26.45,15.5-35.7-.15-2.68-4.28-3.56-4.91-.66-1.67,7.69-1.67,16-1.16,23.84.38,5.87.69,15.41,6.46,18.84,2.77,1.65,5.29-2.67,2.52-4.32-4.46-2.65-4-13.62-4.14-18-.19-6.27-.19-12.92,1.14-19.08l-4.91-.66c.49,8.6-.38,20.05-5,27.52-1,1.54-2.21,3.17-4.16,3.29-2.39.15-3.62-1.53-3.18-3.7,1.16-5.76,8.25-9.11,12.17-4,1.93,2.52,6.28,0,4.32-2.52Z"/><path class="cls-2" d="M53.85,258c-1.76,4.38.11,13.42,6.16,9.23,7.71-5.33-4.71-15.65-7.49-7.23"/><path class="cls-3" d="M51.44,257.37A13.05,13.05,0,0,0,52,267.42c1.74,3.4,5.46,4.22,8.7,2.38s5-5.17,4-8.75a9.66,9.66,0,0,0-6.1-6.31c-3.91-1.31-7.19,1-8.5,4.64-1.09,3,3.74,4.34,4.82,1.33.35-1,.65-1.25,1.29-1.37-.4.07.32,0,.38,0-.34,0,.16,0,.27.07a3.27,3.27,0,0,1,1.1.51c1.35.87,2.39,2.57,1.89,3.84a4,4,0,0,1-2,1.9c-.47.2-.67.21-.81.16s-.3-.23-.49-.52c-1.2-1.83-1-4.66-.27-6.62,1.13-3-3.7-4.32-4.82-1.33Z"/><path class="cls-2" d="M68.52,254.7c1.43,5.08,2.08,13.52,2.67,17.33"/><path class="cls-3" d="M66.11,255.36c1.5,5.67,1.82,11.55,2.67,17.33.46,3.17,5.28,1.82,4.82-1.33-.84-5.78-1.16-11.66-2.67-17.33-.82-3.11-5.65-1.79-4.82,1.33Z"/><path class="cls-2" d="M69.85,261.37c5.29-10,8.36,8.58,9.33,10"/><path class="cls-3" d="M72,262.63a9.94,9.94,0,0,1,.85-1.4c.14-.18.36-.54.3-.33.06-.23-.27,0-.15,0-.4,0-.59-.07-.58-.17,0,.2.75,1,1,1.34a16,16,0,0,1,1,2.19c1,2.62,1.24,6,2.69,8.35,1.67,2.75,6,.24,4.32-2.52-.23-.37.16.58,0-.08-.09-.33-.2-.65-.3-1-.27-.91-.51-1.83-.78-2.75a35.08,35.08,0,0,0-2.47-6.6c-1-1.81-2.46-3.66-4.67-3.77-2.59-.12-4.29,2.13-5.41,4.18-1.54,2.83,2.77,5.35,4.32,2.52Z"/><path class="cls-2" d="M85.18,254a16,16,0,0,1-.67,5.33"/><path class="cls-3" d="M82.68,254a14.88,14.88,0,0,1-.58,4.67c-.9,3.1,3.93,4.42,4.82,1.33a19.61,19.61,0,0,0,.76-6c-.09-3.21-5.09-3.22-5,0Z"/><path class="cls-2" d="M89.85,262.7c5.72-1.56,13.91-.69,18.67-2.67"/><path class="cls-3" d="M90.51,265.11c6.12-1.48,12.7-.48,18.67-2.67,3-1.1,1.7-5.93-1.33-4.82-5.93,2.17-12.55,1.19-18.67,2.67-3.13.76-1.8,5.58,1.33,4.82Z"/><path class="cls-2" d="M101.18,250c-3.06,6.4-11,37.71,6.67,26"/><path class="cls-3" d="M99,248.77c-3.18,6.92-5.27,15.72-4.73,23.34.67,9.29,7.65,10.63,14.82,6.08,2.71-1.72.2-6-2.52-4.32-1.81,1.15-4.92,3.52-6.6,1.28-1.37-1.82-.79-5.72-.6-7.79a50.48,50.48,0,0,1,4-16.07c1.33-2.9-3-5.45-4.32-2.52Z"/><path class="cls-2" d="M127.18,252c1.31,5.21-.92,23.89,2,25.33"/><path class="cls-3" d="M124.77,252.7c1.09,5.18.23,10.93.32,16.2.05,3.45-.27,8.34,2.83,10.63,2.59,1.91,5.09-2.42,2.52-4.32.82.61,0-.64-.08-1.35-.06-1-.18-1.92-.22-2.88-.11-2.39-.07-4.78,0-7.16,0-4.11.35-8.39-.51-12.45-.66-3.15-5.49-1.81-4.82,1.33Z"/><path class="cls-2" d="M137.85,257.37c-3.21,1.73-7.3,3.35-9.11,6.55,3.71,3.82,7.16,9.32,11.78,10.78"/><path class="cls-3" d="M136.59,255.21c-3.8,2-7.6,3.73-10,7.45a2.54,2.54,0,0,0,.39,3c4,4.22,7.23,9.31,12.88,11.42,3,1.13,4.32-3.7,1.33-4.82-4.53-1.69-7.49-6.76-10.68-10.14l.39,3c1.85-2.84,5.33-4.13,8.22-5.66s.32-5.82-2.52-4.32Z"/><path class="cls-2" d="M147.18,258.7c-.46,4.54.92,13.31,2,16"/><path class="cls-3" d="M144.68,258.7a41.57,41.57,0,0,0,2.09,16.66c1.1,3,5.93,1.7,4.82-1.33a37.79,37.79,0,0,1-1.91-15.34c.25-3.21-4.75-3.19-5,0Z"/><path class="cls-2" d="M148.52,269.37c-2.08-4.26,3.2-10.59,6.72-7.76,2.21,1.78,2.17,9.73,3.28,11.09"/><path class="cls-3" d="M150.93,268.7a4,4,0,0,1,1-4.47c.95-1,1.66-1.14,2.17.12,1.21,3,.5,6.9,2.31,9.61s6.12.16,4.32-2.52c-.84-1.25-.89-4.68-1.31-6.56-.58-2.62-1.63-5.37-4.44-6.22-6-1.82-11,6.24-8.82,11.37,1.23,2.92,6.07,1.64,4.82-1.33Z"/><path class="cls-2" d="M167.85,257.37c-4.37,3.5-4.82,15.68,3.34,13.92,10.9-2.36.75-22-4.67-15.25"/><path class="cls-3" d="M166.08,255.6c-3.77,3.3-5.08,10.2-2.67,14.63,2.75,5,10.25,4.72,13.47.29,5.08-7-4.52-24.88-12.13-16.24-2.12,2.41,1.4,6,3.54,3.54,2.56-2.9,6.18,6.87,4.82,9.37-1.2,2.21-4.69,2.57-5.57,0a8.07,8.07,0,0,1,2.08-8c2.43-2.12-1.12-5.65-3.54-3.54Z"/><path class="cls-2" d="M181.85,249.37c-2.47,4.5,3.36,16.8,5.46,22,3.07-2.08,4.39-11.71,5.22-15.82,1.17,5.65,3.1,11.77,8,15.13,5.62-13.32,4.37-29.55,11.2-42.69.14-1-.35.48-.55.74"/><path class="cls-3" d="M179.69,248.1c-3.23,7.52,2.37,17,5.21,23.9a2.54,2.54,0,0,0,4.18,1.1c4.44-3.8,4.83-11.59,5.86-16.93h-4.82c1.43,6.59,3.67,12.41,9.15,16.62,1.42,1.09,3.15-.19,3.67-1.49,3-7.41,4.06-15.23,5.43-23A101.11,101.11,0,0,1,210.85,237c.8-2.71,3.68-6.59,3.34-9.32-.27-2.18-3.43-3.75-4.66-1.26l-.51,1c-1.44,2.87,2.87,5.4,4.32,2.52l.51-1-4.66-1.26c.06.52-1.62,3.45-1.87,4.11-.58,1.53-1.08,3.09-1.52,4.66a110.48,110.48,0,0,0-2.39,11.31c-1.3,7.55-2.42,15.08-5.29,22.23l3.67-1.49c-4.28-3.29-5.75-8.59-6.85-13.63-.51-2.35-4.35-2.42-4.82,0-.83,4.29-1.06,11.71-4.58,14.72l4.18,1.1c-1.29-3.13-2.67-6.22-3.81-9.41-1-2.85-3.19-7.65-1.9-10.64s-3-5.47-4.32-2.52Z"/><path class="cls-2" d="M63.11,377.59c3.2,4.15,6.13,8.41,9.92,12,1.44,1.38,4.88,5.77,7.24,5.5,3.16-.36,3.2-5.36,0-5,1.55-.17,1.18.72.52-.19a9.73,9.73,0,0,0-1.42-1.25q-1.85-1.66-3.63-3.4c-3.16-3.1-5.62-6.74-8.32-10.24-1.94-2.51-6.28,0-4.32,2.52Z"/><path class="cls-2" d="M82.42,371.95c-5.6,7-12.67,13.91-16.7,22-1.43,2.87,2.88,5.41,4.32,2.52,3.85-7.76,10.56-14.29,15.92-21,2-2.49-1.53-6.05-3.54-3.54Z"/><path class="cls-2" d="M103.31,373.08c.79,3.94,4.85,7.87,7.37,10.75,3,3.38,6.51,7.82,10.74,9.66,2.92,1.27,5.47-3,2.52-4.32-3.62-1.58-6.58-5.35-9.15-8.22-2.14-2.4-6-5.9-6.67-9.2s-5.45-1.82-4.82,1.33Z"/><path class="cls-2" d="M120.52,367.89c-5.12,8.24-8.36,17.41-12.46,26.16a2.52,2.52,0,0,0,0,2.52l.37.51c.72,1,2.26,1.77,3.42.9a2.78,2.78,0,0,1,1-.57c2.92-1.35.38-5.67-2.52-4.32a2.78,2.78,0,0,0-1,.57l3.42.9-.37-.51v2.52c4.1-8.75,7.34-17.92,12.46-26.16,1.7-2.74-2.62-5.25-4.32-2.52Z"/><path class="cls-2" d="M75.06,434.28c12.64-.11,25.23-1.17,37.84-2,3.2-.2,3.22-5.2,0-5-12.61.78-25.2,1.84-37.84,2-3.22,0-3.22,5,0,5Z"/><path class="cls-2" d="M131.28,331.87c-6-2.85-10.76-6.18-17.37-7.78a136.81,136.81,0,0,0-19.22-3.51A49,49,0,0,0,59,331c-8.93,7-15.83,16.32-18.59,27.38-3.49,14-4.07,28.7-3.83,43l4.66-1.26c-2.48-4.07-6.94-9-11.83-5.11C25.23,398.39,24,405.47,24,410.49c.06,5.81,2,12.08,6.65,15.82,5.14,4.1,11.43,3.39,17.13,1l-3.67-1.49c2.19,6.51,3.43,13.34,6.08,19.7a48.49,48.49,0,0,0,11.18,15.92,42,42,0,0,0,33.71,12.17c26.58-2.51,43-26.45,46.41-51.37l-4.18,1.1c14.19,11.38,32.06-34.89,3.09-28.83l3.16,2.41c1.81-14.82,4.93-31.16,1.18-45.91-1.84-7.22-6.14-19-15.24-19-3.22,0-3.22,5,0,5,7.17-.07,10.42,13.66,11.17,19.14,1.84,13.48-.47,27.35-2.1,40.73-.21,1.72,1.76,2.71,3.16,2.41,7.94-1.66,10.49,3.47,8.58,10.57-.72,2.69-5.14,13.37-9.47,9.9-1.26-1-3.89-1-4.18,1.1-3.09,22.45-17.25,45.34-41.59,47.7-11.78,1.14-22.44-2.95-30.77-11.31a43,43,0,0,1-10.42-16c-1.94-5.5-3.09-11.25-4.95-16.77A2.55,2.55,0,0,0,45.28,423c-8,3.41-14.56-.75-16-9.16a22.1,22.1,0,0,1,.82-10.41c.38-1.16,1-3.57,2.19-4.27,2.15-1.28,3.6,1.93,4.59,3.55a2.52,2.52,0,0,0,4.66-1.26c-.22-12.79.38-25.55,2.87-38.12A46.58,46.58,0,0,1,60.8,335.9a44.32,44.32,0,0,1,33-10.4,125.09,125.09,0,0,1,18.77,3.41c6.09,1.47,10.64,4.66,16.17,7.28,2.89,1.37,5.43-2.94,2.52-4.32Z"/></g></g></svg>