<?xml version="1.0" encoding="UTF-8"?>
<svg width="48px" height="48px" viewBox="0 0 48 48" version="1.1" xmlns="http://www.w3.org/2000/svg" xmlns:xlink="http://www.w3.org/1999/xlink">
    <g id="Icon-msteams-48х48" stroke="none" stroke-width="1" fill="none" fill-rule="evenodd">
        <g transform="translate(2.000000, 2.000000)" fill="#5558AF" fill-rule="nonzero">
            <g transform="translate(0.012308, 0.252308)">
                <path d="M37.2110769,16.6006154 C37.5710769,16.9606154 37.9956923,17.2467692 38.4646154,17.4461538 C39.4430769,17.856 40.5452308,17.856 41.5255385,17.4461538 C42.4707692,17.0436923 43.224,16.2923077 43.6246154,15.3470769 C44.0344615,14.3686154 44.0344615,13.2664615 43.6246154,12.2861538 C43.2221538,11.3409231 42.4707692,10.5876923 41.5255385,10.1870769 C40.5470769,9.77723077 39.4449231,9.77723077 38.4646154,10.1870769 C37.5193846,10.5895385 36.7661538,11.3409231 36.3655385,12.2861538 C35.9556923,13.2646154 35.9556923,14.3667692 36.3655385,15.3470769 C36.5649231,15.8141538 36.8529231,16.2406154 37.2110769,16.6006154 Z M36.0590769,20.2523077 L36.0590769,32.1064615 L38.0344615,32.1064615 C38.7138462,32.1027692 39.3895385,32.04 40.056,31.9144615 C40.7261538,31.7963077 41.3723077,31.5710769 41.9704615,31.2461538 C42.5353846,30.9396923 43.0227692,30.5076923 43.3975385,29.9870769 C43.7907692,29.4092308 43.9883077,28.7206154 43.9606154,28.0209231 L43.9606154,20.2523077 L36.0590769,20.2523077 Z M29.6566154,15.2824615 C30.1809231,15.2861538 30.7015385,15.1809231 31.1852308,14.9741538 C32.1304615,14.5716923 32.8818462,13.8203077 33.2824615,12.8750769 C33.6923077,11.8966154 33.6923077,10.7944615 33.2806154,9.81415385 C32.8781538,8.86892308 32.1267692,8.11569231 31.1815385,7.71507692 C30.6978462,7.50830769 30.1772308,7.40307692 29.6510769,7.40676923 C29.1286154,7.40307692 28.6116923,7.50830769 28.1316923,7.71507692 C27.7735385,7.86830769 27.6609231,8.06769231 27.168,8.30769231 L27.168,14.3815385 C27.6627692,14.6233846 27.7735385,14.8209231 28.1316923,14.9741538 C28.6135385,15.1827692 29.1323077,15.2861538 29.6566154,15.2824615 Z M27.168,35.2412308 C27.6627692,35.3483077 27.84,35.4313846 28.1907692,35.4793846 C28.5747692,35.5347692 28.9624615,35.5624615 29.3501538,35.5643077 C29.9483077,35.5606154 30.5464615,35.4978462 31.1316923,35.3723077 C31.728,35.2523077 32.3003077,35.0289231 32.8209231,34.7132308 C33.3323077,34.3993846 33.7624615,33.9710769 34.08,33.4633846 C34.4307692,32.8707692 34.6024615,32.1876923 34.5766154,31.4990769 L34.5766154,17.7821538 L27.168,17.7821538 L27.168,35.2412308 Z M0,39.0221538 L0,4.44553846 L25.6855385,0 L25.6855385,43.4676923 L0,39.0221538 Z M18.7698462,13.3366154 L6.91569231,14.0584615 L6.91569231,16.7926154 L11.3612308,16.6135385 L11.3612308,29.2910769 L14.3243077,29.4646154 L14.3243077,16.4972308 L18.7698462,16.2996923 L18.7698462,13.3366154 Z"></path>
            </g>
        </g>
    </g>
</svg>