<svg xmlns="http://www.w3.org/2000/svg" width="24" height="24" viewBox="0 0 24 24">
    <g fill="currentColor" fill-rule="evenodd">
        <path fill-rule="nonzero"
              d="M15.182 13.768a1 1 0 0 1 0-1.414l3.89-3.89c.78-.78.427-2.4-.354-3.182-.782-.78-2.401-1.134-3.182-.353l-3.89 3.889a1 1 0 0 1-1.414-1.414l3.89-3.89c1.561-1.561 4.448-1.208 6.01.354 1.562 1.562 1.915 4.449.353 6.01l-3.889 3.89a1 1 0 0 1-1.414 0z"/>
        <path d="M15.536 7.05l1.414 1.414-8.486 8.486-1.414-1.414z"/>
        <path fill-rule="nonzero"
              d="M8.464 10.586a1 1 0 0 1 0 1.414L4.93 15.536c-.781.78-.428 2.4.353 3.182.782.78 2.401 1.134 3.182.353L12 15.536a1 1 0 0 1 1.414 1.414L9.88 20.485c-1.562 1.562-4.449 1.209-6.01-.353-1.563-1.562-1.916-4.449-.354-6.01l3.535-3.536a1 1 0 0 1 1.414 0z"/>
    </g>
</svg>
